<?xml version="1.0" encoding="utf-8"?>
<!-- Generator: Adobe Illustrator 24.1.0, SVG Export Plug-In . SVG Version: 6.00 Build 0)  -->
<svg version="1.1" id="Ebene_1" xmlns="http://www.w3.org/2000/svg" xmlns:xlink="http://www.w3.org/1999/xlink" x="0px" y="0px"
	 viewBox="0 0 520 234" style="enable-background:new 0 0 520 234;" xml:space="preserve">
<style type="text/css">
	.st0{fill:none;}
	.st1{opacity:0.504;}
	.st2{fill:#DAE0E7;}
	.st3{fill:#CAD3DD;}
	.st4{fill:#3D4C5E;stroke:#252D38;stroke-width:0.5;}
	.st5{fill:url(#SDE-82_Activity_Stream_german_fake__1_);}
	.st6{fill-rule:evenodd;clip-rule:evenodd;fill:#252D38;}
	.st7{fill-rule:evenodd;clip-rule:evenodd;fill:#2A3746;}
	.st8{filter:url(#Path_9142);}
	.st9{fill-rule:evenodd;clip-rule:evenodd;fill:#4F5E71;}
	.st10{filter:url(#Path_9143);}
	.st11{filter:url(#Path_9144);}
	.st12{filter:url(#Path_9145);}
	.st13{filter:url(#Path_9146);}
	.st14{filter:url(#Path_9147);}
	.st15{filter:url(#Path_9148);}
	.st16{filter:url(#Path_9149);}
	.st17{filter:url(#Path_9150);}
	.st18{filter:url(#Path_9151);}
	.st19{filter:url(#Path_9152);}
	.st20{filter:url(#Path_9153);}
	.st21{filter:url(#Path_9154);}
	.st22{filter:url(#Path_9155);}
	.st23{filter:url(#Path_9156);}
	.st24{filter:url(#Path_9157);}
	.st25{filter:url(#Path_9158);}
	.st26{filter:url(#Path_9159);}
	.st27{filter:url(#Path_9160);}
	.st28{filter:url(#Path_9161);}
	.st29{filter:url(#Path_9162);}
	.st30{filter:url(#Path_9163);}
	.st31{filter:url(#Path_9164);}
	.st32{filter:url(#Path_9165);}
	.st33{filter:url(#Path_9166);}
	.st34{filter:url(#Path_9167);}
	.st35{filter:url(#Path_9168);}
	.st36{filter:url(#Path_9169);}
	.st37{filter:url(#Path_9170);}
	.st38{filter:url(#Path_9171);}
	.st39{filter:url(#Path_9172);}
	.st40{filter:url(#Path_9173);}
	.st41{filter:url(#Path_9174);}
	.st42{filter:url(#Path_9175);}
	.st43{filter:url(#Path_9176);}
	.st44{filter:url(#Path_9177);}
	.st45{filter:url(#Path_9178);}
	.st46{filter:url(#Path_9179);}
	.st47{filter:url(#Path_9180);}
	.st48{filter:url(#Path_9181);}
	.st49{filter:url(#Path_9182);}
	.st50{fill-rule:evenodd;clip-rule:evenodd;fill:#3D4C5E;}
	.st51{fill:#3D4C5E;}
	.st52{fill:#00AF9C;}
	.st53{fill-rule:evenodd;clip-rule:evenodd;fill:#FDC509;}
	.st54{fill-rule:evenodd;clip-rule:evenodd;fill:#028FF1;}
	.st55{fill-rule:evenodd;clip-rule:evenodd;fill:#00121F;}
	.st56{fill-rule:evenodd;clip-rule:evenodd;fill:#FFCF6E;}
	.st57{fill:#019686;}
	.st58{fill:#FFFFFF;}
	.st59{fill-rule:evenodd;clip-rule:evenodd;fill:#001324;}
	.st60{fill-rule:evenodd;clip-rule:evenodd;fill:#001C36;}
	.st61{fill-rule:evenodd;clip-rule:evenodd;fill:#3F94E3;}
	.st62{fill-rule:evenodd;clip-rule:evenodd;fill:#005FB8;}
	.st63{fill-rule:evenodd;clip-rule:evenodd;fill:#356A9C;}
	.st64{fill-rule:evenodd;clip-rule:evenodd;fill:#000C17;}
	.st65{fill-rule:evenodd;clip-rule:evenodd;fill:#183E61;}
	.st66{fill-rule:evenodd;clip-rule:evenodd;fill:#0E6BC2;}
	.st67{fill-rule:evenodd;clip-rule:evenodd;fill:#D9A704;}
	.st68{fill-rule:evenodd;clip-rule:evenodd;fill:#0A59A3;}
	.st69{opacity:0.424;}
	.st70{fill-rule:evenodd;clip-rule:evenodd;fill:#647C99;}
	.st71{fill-rule:evenodd;clip-rule:evenodd;fill:#0A1F33;}
	.st72{fill-rule:evenodd;clip-rule:evenodd;fill:#00559D;}
	.st73{fill-rule:evenodd;clip-rule:evenodd;fill:#406FDF;}
	.st74{fill-rule:evenodd;clip-rule:evenodd;fill:#CC9933;}
	.st75{fill-rule:evenodd;clip-rule:evenodd;fill:#4E5745;}
	.st76{fill-rule:evenodd;clip-rule:evenodd;fill:#3DA2EB;}
	.st77{fill-rule:evenodd;clip-rule:evenodd;fill:#00162B;}
	.st78{fill-rule:evenodd;clip-rule:evenodd;}
</style>
<filter  filterUnits="userSpaceOnUse" height="4.633" id="Path_9182" width="96.424" x="231.01" y="209.939">
	<feOffset  dx="-0.5" dy="0.5" input="SourceAlpha"></feOffset>
	<feGaussianBlur  result="blur-41"></feGaussianBlur>
	<feFlood  flood-opacity="0.2"></feFlood>
	<feComposite  in2="blur-41" operator="in"></feComposite>
	<feComposite  in="SourceGraphic" operator="over"></feComposite>
</filter>
<filter  filterUnits="userSpaceOnUse" height="4.461" id="Path_9181" width="15.14" x="352.044" y="209.906">
	<feOffset  dx="-0.5" dy="0.5" input="SourceAlpha"></feOffset>
	<feGaussianBlur  result="blur-40"></feGaussianBlur>
	<feFlood  flood-opacity="0.2"></feFlood>
	<feComposite  in2="blur-40" operator="in"></feComposite>
	<feComposite  in="SourceGraphic" operator="over"></feComposite>
</filter>
<filter  filterUnits="userSpaceOnUse" height="4.465" id="Path_9180" width="14.813" x="332.313" y="209.92">
	<feOffset  dx="-0.5" dy="0.5" input="SourceAlpha"></feOffset>
	<feGaussianBlur  result="blur-39"></feGaussianBlur>
	<feFlood  flood-opacity="0.2"></feFlood>
	<feComposite  in2="blur-39" operator="in"></feComposite>
	<feComposite  in="SourceGraphic" operator="over"></feComposite>
</filter>
<filter  filterUnits="userSpaceOnUse" height="4.484" id="Path_9179" width="14.831" x="212.227" y="210.025">
	<feOffset  dx="-0.5" dy="0.5" input="SourceAlpha"></feOffset>
	<feGaussianBlur  result="blur-38"></feGaussianBlur>
	<feFlood  flood-opacity="0.2"></feFlood>
	<feComposite  in2="blur-38" operator="in"></feComposite>
	<feComposite  in="SourceGraphic" operator="over"></feComposite>
</filter>
<filter  filterUnits="userSpaceOnUse" height="4.256" id="Path_9178" width="14.761" x="350.087" y="204.779">
	<feOffset  dx="-0.5" dy="0.5" input="SourceAlpha"></feOffset>
	<feGaussianBlur  result="blur-37"></feGaussianBlur>
	<feFlood  flood-opacity="0.2"></feFlood>
	<feComposite  in2="blur-37" operator="in"></feComposite>
	<feComposite  in="SourceGraphic" operator="over"></feComposite>
</filter>
<filter  filterUnits="userSpaceOnUse" height="4.256" id="Path_9177" width="14.411" x="330.894" y="204.793">
	<feOffset  dx="-0.5" dy="0.5" input="SourceAlpha"></feOffset>
	<feGaussianBlur  result="blur-36"></feGaussianBlur>
	<feFlood  flood-opacity="0.2"></feFlood>
	<feComposite  in2="blur-36" operator="in"></feComposite>
	<feComposite  in="SourceGraphic" operator="over"></feComposite>
</filter>
<filter  filterUnits="userSpaceOnUse" height="4.268" id="Path_9176" width="14.083" x="311.642" y="204.803">
	<feOffset  dx="-0.5" dy="0.5" input="SourceAlpha"></feOffset>
	<feGaussianBlur  result="blur-35"></feGaussianBlur>
	<feFlood  flood-opacity="0.2"></feFlood>
	<feComposite  in2="blur-35" operator="in"></feComposite>
	<feComposite  in="SourceGraphic" operator="over"></feComposite>
</filter>
<filter  filterUnits="userSpaceOnUse" height="4.264" id="Path_9175" width="13.714" x="292.391" y="204.816">
	<feOffset  dx="-0.5" dy="0.5" input="SourceAlpha"></feOffset>
	<feGaussianBlur  result="blur-34"></feGaussianBlur>
	<feFlood  flood-opacity="0.2"></feFlood>
	<feComposite  in2="blur-34" operator="in"></feComposite>
	<feComposite  in="SourceGraphic" operator="over"></feComposite>
</filter>
<filter  filterUnits="userSpaceOnUse" height="4.271" id="Path_9174" width="13.406" x="273.061" y="204.822">
	<feOffset  dx="-0.5" dy="0.5" input="SourceAlpha"></feOffset>
	<feGaussianBlur  result="blur-33"></feGaussianBlur>
	<feFlood  flood-opacity="0.2"></feFlood>
	<feComposite  in2="blur-33" operator="in"></feComposite>
	<feComposite  in="SourceGraphic" operator="over"></feComposite>
</filter>
<filter  filterUnits="userSpaceOnUse" height="4.268" id="Path_9173" width="13.614" x="253.383" y="204.846">
	<feOffset  dx="-0.5" dy="0.5" input="SourceAlpha"></feOffset>
	<feGaussianBlur  result="blur-32"></feGaussianBlur>
	<feFlood  flood-opacity="0.2"></feFlood>
	<feComposite  in2="blur-32" operator="in"></feComposite>
	<feComposite  in="SourceGraphic" operator="over"></feComposite>
</filter>
<filter  filterUnits="userSpaceOnUse" height="4.273" id="Path_9172" width="14.021" x="233.668" y="204.861">
	<feOffset  dx="-0.5" dy="0.5" input="SourceAlpha"></feOffset>
	<feGaussianBlur  result="blur-31"></feGaussianBlur>
	<feFlood  flood-opacity="0.2"></feFlood>
	<feComposite  in2="blur-31" operator="in"></feComposite>
	<feComposite  in="SourceGraphic" operator="over"></feComposite>
</filter>
<filter  filterUnits="userSpaceOnUse" height="4.279" id="Path_9171" width="14.427" x="213.914" y="204.873">
	<feOffset  dx="-0.5" dy="0.5" input="SourceAlpha"></feOffset>
	<feGaussianBlur  result="blur-30"></feGaussianBlur>
	<feFlood  flood-opacity="0.2"></feFlood>
	<feComposite  in2="blur-30" operator="in"></feComposite>
	<feComposite  in="SourceGraphic" operator="over"></feComposite>
</filter>
<filter  filterUnits="userSpaceOnUse" height="4.07" id="Path_9170" width="14.379" x="348.253" y="199.908">
	<feOffset  dx="-0.5" dy="0.5" input="SourceAlpha"></feOffset>
	<feGaussianBlur  result="blur-29"></feGaussianBlur>
	<feFlood  flood-opacity="0.2"></feFlood>
	<feComposite  in2="blur-29" operator="in"></feComposite>
	<feComposite  in="SourceGraphic" operator="over"></feComposite>
</filter>
<filter  filterUnits="userSpaceOnUse" height="4.066" id="Path_9169" width="14.067" x="329.521" y="199.924">
	<feOffset  dx="-0.5" dy="0.5" input="SourceAlpha"></feOffset>
	<feGaussianBlur  result="blur-28"></feGaussianBlur>
	<feFlood  flood-opacity="0.2"></feFlood>
	<feComposite  in2="blur-28" operator="in"></feComposite>
	<feComposite  in="SourceGraphic" operator="over"></feComposite>
</filter>
<filter  filterUnits="userSpaceOnUse" height="4.072" id="Path_9168" width="13.716" x="310.75" y="199.928">
	<feOffset  dx="-0.5" dy="0.5" input="SourceAlpha"></feOffset>
	<feGaussianBlur  result="blur-27"></feGaussianBlur>
	<feFlood  flood-opacity="0.2"></feFlood>
	<feComposite  in2="blur-27" operator="in"></feComposite>
	<feComposite  in="SourceGraphic" operator="over"></feComposite>
</filter>
<filter  filterUnits="userSpaceOnUse" height="4.076" id="Path_9167" width="13.423" x="291.979" y="199.936">
	<feOffset  dx="-0.5" dy="0.5" input="SourceAlpha"></feOffset>
	<feGaussianBlur  result="blur-26"></feGaussianBlur>
	<feFlood  flood-opacity="0.2"></feFlood>
	<feComposite  in2="blur-26" operator="in"></feComposite>
	<feComposite  in="SourceGraphic" operator="over"></feComposite>
</filter>
<filter  filterUnits="userSpaceOnUse" height="4.078" id="Path_9166" width="13.093" x="273.128" y="199.945">
	<feOffset  dx="-0.5" dy="0.5" input="SourceAlpha"></feOffset>
	<feGaussianBlur  result="blur-25"></feGaussianBlur>
	<feFlood  flood-opacity="0.2"></feFlood>
	<feComposite  in2="blur-25" operator="in"></feComposite>
	<feComposite  in="SourceGraphic" operator="over"></feComposite>
</filter>
<filter  filterUnits="userSpaceOnUse" height="4.08" id="Path_9165" width="13.321" x="253.929" y="199.953">
	<feOffset  dx="-0.5" dy="0.5" input="SourceAlpha"></feOffset>
	<feGaussianBlur  result="blur-24"></feGaussianBlur>
	<feFlood  flood-opacity="0.2"></feFlood>
	<feComposite  in2="blur-24" operator="in"></feComposite>
	<feComposite  in="SourceGraphic" operator="over"></feComposite>
</filter>
<filter  filterUnits="userSpaceOnUse" height="4.084" id="Path_9164" width="13.653" x="234.729" y="199.969">
	<feOffset  dx="-0.5" dy="0.5" input="SourceAlpha"></feOffset>
	<feGaussianBlur  result="blur-23"></feGaussianBlur>
	<feFlood  flood-opacity="0.2"></feFlood>
	<feComposite  in2="blur-23" operator="in"></feComposite>
	<feComposite  in="SourceGraphic" operator="over"></feComposite>
</filter>
<filter  filterUnits="userSpaceOnUse" height="4.092" id="Path_9163" width="14.041" x="215.493" y="199.973">
	<feOffset  dx="-0.5" dy="0.5" input="SourceAlpha"></feOffset>
	<feGaussianBlur  result="blur-22"></feGaussianBlur>
	<feFlood  flood-opacity="0.2"></feFlood>
	<feComposite  in2="blur-22" operator="in"></feComposite>
	<feComposite  in="SourceGraphic" operator="over"></feComposite>
</filter>
<filter  filterUnits="userSpaceOnUse" height="3.904" id="Path_9162" width="14.015" x="346.525" y="195.27">
	<feOffset  dx="-0.5" dy="0.5" input="SourceAlpha"></feOffset>
	<feGaussianBlur  result="blur-21"></feGaussianBlur>
	<feFlood  flood-opacity="0.2"></feFlood>
	<feComposite  in2="blur-21" operator="in"></feComposite>
	<feComposite  in="SourceGraphic" operator="over"></feComposite>
</filter>
<filter  filterUnits="userSpaceOnUse" height="3.906" id="Path_9161" width="13.662" x="328.275" y="195.273">
	<feOffset  dx="-0.5" dy="0.5" input="SourceAlpha"></feOffset>
	<feGaussianBlur  result="blur-20"></feGaussianBlur>
	<feFlood  flood-opacity="0.2"></feFlood>
	<feComposite  in2="blur-20" operator="in"></feComposite>
	<feComposite  in="SourceGraphic" operator="over"></feComposite>
</filter>
<filter  filterUnits="userSpaceOnUse" height="3.9" id="Path_9160" width="13.368" x="309.929" y="195.283">
	<feOffset  dx="-0.5" dy="0.5" input="SourceAlpha"></feOffset>
	<feGaussianBlur  result="blur-19"></feGaussianBlur>
	<feFlood  flood-opacity="0.2"></feFlood>
	<feComposite  in2="blur-19" operator="in"></feComposite>
	<feComposite  in="SourceGraphic" operator="over"></feComposite>
</filter>
<filter  filterUnits="userSpaceOnUse" height="3.896" id="Path_9159" width="13.034" x="291.62" y="195.293">
	<feOffset  dx="-0.5" dy="0.5" input="SourceAlpha"></feOffset>
	<feGaussianBlur  result="blur-18"></feGaussianBlur>
	<feFlood  flood-opacity="0.2"></feFlood>
	<feComposite  in2="blur-18" operator="in"></feComposite>
	<feComposite  in="SourceGraphic" operator="over"></feComposite>
</filter>
<filter  filterUnits="userSpaceOnUse" height="3.904" id="Path_9158" width="12.779" x="273.215" y="195.293">
	<feOffset  dx="-0.5" dy="0.5" input="SourceAlpha"></feOffset>
	<feGaussianBlur  result="blur-17"></feGaussianBlur>
	<feFlood  flood-opacity="0.2"></feFlood>
	<feComposite  in2="blur-17" operator="in"></feComposite>
	<feComposite  in="SourceGraphic" operator="over"></feComposite>
</filter>
<filter  filterUnits="userSpaceOnUse" height="3.904" id="Path_9157" width="12.987" x="254.477" y="195.305">
	<feOffset  dx="-0.5" dy="0.5" input="SourceAlpha"></feOffset>
	<feGaussianBlur  result="blur-16"></feGaussianBlur>
	<feFlood  flood-opacity="0.2"></feFlood>
	<feComposite  in2="blur-16" operator="in"></feComposite>
	<feComposite  in="SourceGraphic" operator="over"></feComposite>
</filter>
<filter  filterUnits="userSpaceOnUse" height="3.904" id="Path_9156" width="13.319" x="235.777" y="195.311">
	<feOffset  dx="-0.5" dy="0.5" input="SourceAlpha"></feOffset>
	<feGaussianBlur  result="blur-15"></feGaussianBlur>
	<feFlood  flood-opacity="0.2"></feFlood>
	<feComposite  in2="blur-15" operator="in"></feComposite>
	<feComposite  in="SourceGraphic" operator="over"></feComposite>
</filter>
<filter  filterUnits="userSpaceOnUse" height="3.908" id="Path_9155" width="13.692" x="217" y="195.313">
	<feOffset  dx="-0.5" dy="0.5" input="SourceAlpha"></feOffset>
	<feGaussianBlur  result="blur-14"></feGaussianBlur>
	<feFlood  flood-opacity="0.2"></feFlood>
	<feComposite  in2="blur-14" operator="in"></feComposite>
	<feComposite  in="SourceGraphic" operator="over"></feComposite>
</filter>
<filter  filterUnits="userSpaceOnUse" height="3.732" id="Path_9154" width="13.688" x="344.828" y="190.854">
	<feOffset  dx="-0.5" dy="0.5" input="SourceAlpha"></feOffset>
	<feGaussianBlur  result="blur-13"></feGaussianBlur>
	<feFlood  flood-opacity="0.2"></feFlood>
	<feComposite  in2="blur-13" operator="in"></feComposite>
	<feComposite  in="SourceGraphic" operator="over"></feComposite>
</filter>
<filter  filterUnits="userSpaceOnUse" height="3.736" id="Path_9153" width="13.352" x="327.023" y="190.854">
	<feOffset  dx="-0.5" dy="0.5" input="SourceAlpha"></feOffset>
	<feGaussianBlur  result="blur-12"></feGaussianBlur>
	<feFlood  flood-opacity="0.2"></feFlood>
	<feComposite  in2="blur-12" operator="in"></feComposite>
	<feComposite  in="SourceGraphic" operator="over"></feComposite>
</filter>
<filter  filterUnits="userSpaceOnUse" height="3.73" id="Path_9152" width="13.037" x="309.141" y="190.863">
	<feOffset  dx="-0.5" dy="0.5" input="SourceAlpha"></feOffset>
	<feGaussianBlur  result="blur-11"></feGaussianBlur>
	<feFlood  flood-opacity="0.2"></feFlood>
	<feComposite  in2="blur-11" operator="in"></feComposite>
	<feComposite  in="SourceGraphic" operator="over"></feComposite>
</filter>
<filter  filterUnits="userSpaceOnUse" height="3.734" id="Path_9151" width="12.741" x="291.239" y="190.863">
	<feOffset  dx="-0.5" dy="0.5" input="SourceAlpha"></feOffset>
	<feGaussianBlur  result="blur-10"></feGaussianBlur>
	<feFlood  flood-opacity="0.2"></feFlood>
	<feComposite  in2="blur-10" operator="in"></feComposite>
	<feComposite  in="SourceGraphic" operator="over"></feComposite>
</filter>
<filter  filterUnits="userSpaceOnUse" height="3.738" id="Path_9150" width="12.502" x="273.28" y="190.867">
	<feOffset  dx="-0.5" dy="0.5" input="SourceAlpha"></feOffset>
	<feGaussianBlur  result="blur-9"></feGaussianBlur>
	<feFlood  flood-opacity="0.2"></feFlood>
	<feComposite  in2="blur-9" operator="in"></feComposite>
	<feComposite  in="SourceGraphic" operator="over"></feComposite>
</filter>
<filter  filterUnits="userSpaceOnUse" height="3.742" id="Path_9149" width="12.691" x="255.004" y="190.867">
	<feOffset  dx="-0.5" dy="0.5" input="SourceAlpha"></feOffset>
	<feGaussianBlur  result="blur-8"></feGaussianBlur>
	<feFlood  flood-opacity="0.2"></feFlood>
	<feComposite  in2="blur-8" operator="in"></feComposite>
	<feComposite  in="SourceGraphic" operator="over"></feComposite>
</filter>
<filter  filterUnits="userSpaceOnUse" height="3.746" id="Path_9148" width="12.968" x="236.769" y="190.867">
	<feOffset  dx="-0.5" dy="0.5" input="SourceAlpha"></feOffset>
	<feGaussianBlur  result="blur-7"></feGaussianBlur>
	<feFlood  flood-opacity="0.2"></feFlood>
	<feComposite  in2="blur-7" operator="in"></feComposite>
	<feComposite  in="SourceGraphic" operator="over"></feComposite>
</filter>
<filter  filterUnits="userSpaceOnUse" height="3.744" id="Path_9147" width="13.34" x="218.436" y="190.871">
	<feOffset  dx="-0.5" dy="0.5" input="SourceAlpha"></feOffset>
	<feGaussianBlur  result="blur-6"></feGaussianBlur>
	<feFlood  flood-opacity="0.2"></feFlood>
	<feComposite  in2="blur-6" operator="in"></feComposite>
	<feComposite  in="SourceGraphic" operator="over"></feComposite>
</filter>
<filter  filterUnits="userSpaceOnUse" height="4.49" id="Path_9146" width="15.215" x="191.939" y="210.039">
	<feOffset  dx="-0.5" dy="0.5" input="SourceAlpha"></feOffset>
	<feGaussianBlur  result="blur-5"></feGaussianBlur>
	<feFlood  flood-opacity="0.2"></feFlood>
	<feComposite  in2="blur-5" operator="in"></feComposite>
	<feComposite  in="SourceGraphic" operator="over"></feComposite>
</filter>
<filter  filterUnits="userSpaceOnUse" height="4.271" id="Path_9145" width="14.814" x="194.142" y="204.893">
	<feOffset  dx="-0.5" dy="0.5" input="SourceAlpha"></feOffset>
	<feGaussianBlur  result="blur-4"></feGaussianBlur>
	<feFlood  flood-opacity="0.2"></feFlood>
	<feComposite  in2="blur-4" operator="in"></feComposite>
	<feComposite  in="SourceGraphic" operator="over"></feComposite>
</filter>
<filter  filterUnits="userSpaceOnUse" height="4.084" id="Path_9144" width="14.431" x="196.217" y="199.986">
	<feOffset  dx="-0.5" dy="0.5" input="SourceAlpha"></feOffset>
	<feGaussianBlur  result="blur-3"></feGaussianBlur>
	<feFlood  flood-opacity="0.2"></feFlood>
	<feComposite  in2="blur-3" operator="in"></feComposite>
	<feComposite  in="SourceGraphic" operator="over"></feComposite>
</filter>
<filter  filterUnits="userSpaceOnUse" height="3.908" id="Path_9143" width="14.024" x="198.224" y="195.324">
	<feOffset  dx="-0.5" dy="0.5" input="SourceAlpha"></feOffset>
	<feGaussianBlur  result="blur-2"></feGaussianBlur>
	<feFlood  flood-opacity="0.2"></feFlood>
	<feComposite  in2="blur-2" operator="in"></feComposite>
	<feComposite  in="SourceGraphic" operator="over"></feComposite>
</filter>
<filter  filterUnits="userSpaceOnUse" height="3.748" id="Path_9142" width="13.713" x="200.084" y="190.875">
	<feOffset  dx="-0.5" dy="0.5" input="SourceAlpha"></feOffset>
	<feGaussianBlur  result="blur"></feGaussianBlur>
	<feFlood  flood-opacity="0.2"></feFlood>
	<feComposite  in2="blur" operator="in"></feComposite>
	<feComposite  in="SourceGraphic" operator="over"></feComposite>
</filter>
<pattern  y="234" width="157.6" height="157.6" patternUnits="userSpaceOnUse" id="pattern" viewBox="0 -157.6 157.6 157.6" style="overflow:visible;">
	<g>
		<rect y="-157.6" class="st0" width="157.6" height="157.6"/>
		
			<image style="overflow:visible;enable-background:new    ;" width="5334" height="4434" xlink:href="C2ACFE2650C7F6B4.png"  transform="matrix(2.953806e-02 0 0 -2.953806e-02 0 -33.3321)">
		</image>
	</g>
</pattern>
<g id="Group_12562" transform="translate(2 -130)">
	<g id="Group_12399" transform="translate(-2 130)">
		<g id="Group_12397" transform="translate(0 64.676)" class="st1">
			<g id="Group_12395" transform="translate(0 0)">
				<rect id="Rectangle_9677" x="52.7" y="54.9" class="st2" width="26.2" height="114.4"/>
				<path id="Path_9422" class="st2" d="M183.9,54.9h26.2v114.4h-26.2V54.9z"/>
				<rect id="Rectangle_9678" x="140.3" y="54.9" class="st2" width="26.2" height="114.4"/>
				<rect id="Rectangle_9679" x="100.8" y="10.1" class="st2" width="52.7" height="159.2"/>
				<rect id="Rectangle_9680" x="310" y="54.9" class="st2" width="26.2" height="114.4"/>
				<rect id="Rectangle_9681" x="270.4" y="90" class="st2" width="39.6" height="79.3"/>
				<rect id="Rectangle_9682" x="320.2" y="144.3" class="st2" width="39.6" height="25"/>
				<rect id="Rectangle_9683" x="310" y="49.3" class="st2" width="21.3" height="5.6"/>
				<rect id="Rectangle_9684" x="310" y="43.7" class="st2" width="17.4" height="5.6"/>
				<rect id="Rectangle_9685" x="310" y="31" class="st2" width="13.7" height="12.7"/>
				<rect id="Rectangle_9686" x="206.4" y="54.9" class="st2" width="26.2" height="114.4"/>
				<rect id="Rectangle_9687" x="262.7" y="54.9" class="st2" width="26.2" height="114.4"/>
				<rect id="Rectangle_9688" x="278.2" y="10.7" class="st2" width="36.2" height="158.6"/>
				<rect id="Rectangle_9689" y="145" class="st2" width="206.4" height="24.3"/>
				<rect id="Rectangle_9690" x="219.6" y="0" class="st2" width="52.7" height="169.3"/>
				<rect id="Rectangle_9691" x="206.4" y="49.3" class="st2" width="21.3" height="5.6"/>
				<rect id="Rectangle_9692" x="262.7" y="49.3" class="st2" width="21.3" height="5.6"/>
				<rect id="Rectangle_9693" x="206.4" y="43.7" class="st2" width="17.4" height="5.6"/>
				<rect id="Rectangle_9694" x="262.7" y="43.7" class="st2" width="17.4" height="5.6"/>
				<rect id="Rectangle_9695" x="206.4" y="34.5" class="st2" width="13.7" height="9.2"/>
				<rect id="Rectangle_9696" x="262.7" y="38.1" class="st2" width="13.7" height="5.6"/>
				<rect id="Rectangle_9697" x="162" y="21.7" class="st2" width="26.2" height="147.7"/>
				<rect id="Rectangle_9698" x="182.4" y="74.2" class="st2" width="26.2" height="95.1"/>
				<rect id="Rectangle_9699" x="116.6" y="29.3" class="st2" width="39.6" height="140.1"/>
				<rect id="Rectangle_9700" x="440.7" y="54.9" class="st2" width="26.2" height="114.4"/>
				<rect id="Rectangle_9701" x="26.4" y="74.3" class="st2" width="26.2" height="95.1"/>
				<rect id="Rectangle_9702" x="420.1" y="74.3" class="st2" width="26.2" height="95.1"/>
				<rect id="Rectangle_9703" x="65.8" y="85.8" class="st2" width="52.7" height="83.5"/>
				<rect id="Rectangle_9704" x="52.7" y="49.3" class="st2" width="21.3" height="5.6"/>
				<rect id="Rectangle_9705" x="52.7" y="43.7" class="st2" width="17.4" height="5.6"/>
				<rect id="Rectangle_9706" x="52.7" y="38.1" class="st2" width="13.7" height="5.6"/>
				<rect id="Rectangle_9707" x="188.7" y="112.1" class="st2" width="34.5" height="5.6"/>
				<rect id="Rectangle_9708" x="237.2" y="54.9" class="st2" width="26.2" height="114.4"/>
				<rect id="Rectangle_9709" x="210.1" y="90" class="st2" width="39.6" height="79.3"/>
				<rect id="Rectangle_9710" x="160.3" y="144.3" class="st2" width="39.6" height="25"/>
				<rect id="Rectangle_9711" x="188.8" y="49.3" class="st2" width="21.3" height="5.6"/>
				<rect id="Rectangle_9712" x="242.2" y="49.3" class="st2" width="21.3" height="5.6"/>
				<rect id="Rectangle_9713" x="192.7" y="43.7" class="st2" width="17.4" height="5.6"/>
				<rect id="Rectangle_9714" x="246" y="43.7" class="st2" width="17.4" height="5.6"/>
				<rect id="Rectangle_9715" x="196.4" y="34.5" class="st2" width="13.7" height="9.2"/>
				<rect id="Rectangle_9716" x="249.7" y="38.1" class="st2" width="13.7" height="5.6"/>
				<rect id="Rectangle_9717" x="87.1" y="38.1" class="st2" width="26.2" height="131.2"/>
				<rect id="Rectangle_9718" x="166.6" y="113.6" class="st2" width="52.5" height="55.7"/>
				<rect id="Rectangle_9719" x="145.3" y="49.3" class="st2" width="21.3" height="5.6"/>
				<rect id="Rectangle_9720" x="149.1" y="43.7" class="st2" width="17.4" height="5.6"/>
				<rect id="Rectangle_9721" x="152.8" y="38.1" class="st2" width="13.7" height="5.6"/>
				<rect id="Rectangle_9722" x="337.7" y="54.9" class="st2" width="26.2" height="114.4"/>
				<rect id="Rectangle_9723" x="311.4" y="74.2" class="st2" width="26.2" height="95.1"/>
				<rect id="Rectangle_9724" x="26.1" y="74.2" class="st2" width="26.2" height="95.1"/>
				<rect id="Rectangle_9725" x="363.9" y="29.3" class="st2" width="39.6" height="140.1"/>
				<rect id="Rectangle_9726" x="342.6" y="49.3" class="st2" width="21.3" height="5.6"/>
				<rect id="Rectangle_9727" x="346.5" y="43.7" class="st2" width="17.4" height="5.6"/>
				<rect id="Rectangle_9728" x="350.2" y="33.8" class="st2" width="13.7" height="9.9"/>
				<rect id="Rectangle_9729" x="441.2" y="54.9" class="st2" width="26.2" height="114.4"/>
				<rect id="Rectangle_9730" x="467.4" y="74.2" class="st2" width="26.2" height="95.1"/>
				<rect id="Rectangle_9731" x="382.8" y="58.4" class="st2" width="52.2" height="110.9"/>
				<rect id="Rectangle_9732" x="319.7" y="145.6" class="st2" width="200.2" height="23.7"/>
				<rect id="Rectangle_9733" x="446.1" y="49.3" class="st2" width="21.3" height="5.6"/>
				<rect id="Rectangle_9734" x="450" y="43.7" class="st2" width="17.4" height="5.6"/>
				<rect id="Rectangle_9735" x="453.7" y="38.1" class="st2" width="13.7" height="5.6"/>
				<g id="Group_12393" transform="translate(441.73 76.404)">
					<rect id="Rectangle_8929" x="0.4" y="0" class="st2" width="24" height="6"/>
					<rect id="Rectangle_8930" x="0.4" y="21.7" class="st2" width="24" height="6"/>
					<rect id="Rectangle_8931" x="0.4" y="43.3" class="st2" width="24" height="6"/>
					<rect id="Rectangle_8932" x="0" y="64.9" class="st2" width="24" height="6"/>
					<rect id="Rectangle_8933" x="0" y="86.6" class="st2" width="24" height="6"/>
				</g>
			</g>
			<g id="Group_12396" transform="translate(48.666 11.575)">
				<rect id="Rectangle_9677-2" x="372.4" y="51.2" class="st3" width="19.8" height="106.6"/>
				<path id="Path_9422-2" class="st3" d="M293.2,51.2h-19.8v106.6h19.8V51.2z"/>
				<rect id="Rectangle_9678-2" x="306.3" y="51.2" class="st3" width="19.8" height="106.6"/>
				<rect id="Rectangle_9679-2" x="326.2" y="9.4" class="st3" width="29.7" height="148.3"/>
				<rect id="Rectangle_9680-2" x="178.4" y="51.2" class="st3" width="19.8" height="106.6"/>
				<rect id="Rectangle_9681-2" x="198.2" y="83.9" class="st3" width="29.8" height="73.9"/>
				<rect id="Rectangle_9682-2" x="160.6" y="134.4" class="st3" width="29.8" height="23.3"/>
				<rect id="Rectangle_9683-2" x="182.1" y="45.9" class="st3" width="16.1" height="5.2"/>
				<rect id="Rectangle_9684-2" x="185" y="40.7" class="st3" width="13.1" height="5.2"/>
				<rect id="Rectangle_9685-2" x="187.8" y="28.9" class="st3" width="10.4" height="11.9"/>
				<rect id="Rectangle_9686-2" x="256.5" y="51.2" class="st3" width="19.8" height="106.6"/>
				<rect id="Rectangle_9687-2" x="214.1" y="51.2" class="st3" width="19.8" height="106.6"/>
				<rect id="Rectangle_9688-2" x="194.8" y="10" class="st3" width="27.3" height="147.8"/>
				<rect id="Rectangle_9689-2" x="276.2" y="135.1" class="st3" width="155.6" height="22.6"/>
				<rect id="Rectangle_9690-2" x="226.6" y="0" class="st3" width="39.7" height="157.7"/>
				<rect id="Rectangle_9691-2" x="260.2" y="45.9" class="st3" width="16.1" height="5.2"/>
				<rect id="Rectangle_9692-2" x="217.8" y="45.9" class="st3" width="16.1" height="5.2"/>
				<rect id="Rectangle_9693-2" x="263.1" y="40.7" class="st3" width="13.1" height="5.2"/>
				<rect id="Rectangle_9694-2" x="220.7" y="40.7" class="st3" width="13.1" height="5.2"/>
				<rect id="Rectangle_9695-2" x="265.9" y="32.2" class="st3" width="10.4" height="8.6"/>
				<rect id="Rectangle_9696-2" x="223.5" y="35.5" class="st3" width="10.4" height="5.2"/>
				<rect id="Rectangle_9697-2" x="290" y="20.2" class="st3" width="19.8" height="137.6"/>
				<rect id="Rectangle_9698-2" x="274.6" y="69.2" class="st3" width="19.8" height="88.6"/>
				<rect id="Rectangle_9699-2" x="314.1" y="27.3" class="st3" width="29.8" height="130.5"/>
				<rect id="Rectangle_9700-2" x="79.9" y="51.2" class="st3" width="19.8" height="106.6"/>
				<rect id="Rectangle_9701-2" x="392.2" y="69.2" class="st3" width="19.8" height="88.6"/>
				<rect id="Rectangle_9702-2" x="95.3" y="69.2" class="st3" width="19.8" height="88.6"/>
				<rect id="Rectangle_9703-2" x="342.6" y="79.9" class="st3" width="39.7" height="77.8"/>
				<rect id="Rectangle_9704-2" x="376.1" y="45.9" class="st3" width="16.1" height="5.2"/>
				<rect id="Rectangle_9705-2" x="379" y="40.7" class="st3" width="13.1" height="5.2"/>
				<rect id="Rectangle_9706-2" x="381.8" y="35.5" class="st3" width="10.4" height="5.2"/>
				<rect id="Rectangle_9707-2" x="263.6" y="104.5" class="st3" width="26" height="5.2"/>
				<rect id="Rectangle_9708-2" x="233.2" y="51.2" class="st3" width="19.8" height="106.6"/>
				<rect id="Rectangle_9709-2" x="243.6" y="83.9" class="st3" width="29.8" height="73.9"/>
				<rect id="Rectangle_9710-2" x="281.2" y="134.4" class="st3" width="29.8" height="23.3"/>
				<rect id="Rectangle_9711-2" x="273.5" y="45.9" class="st3" width="16.1" height="5.2"/>
				<rect id="Rectangle_9712-2" x="233.2" y="45.9" class="st3" width="16.1" height="5.2"/>
				<rect id="Rectangle_9713-2" x="273.5" y="40.7" class="st3" width="13.1" height="5.2"/>
				<rect id="Rectangle_9714-2" x="233.2" y="40.7" class="st3" width="13.1" height="5.2"/>
				<rect id="Rectangle_9715-2" x="273.5" y="32.2" class="st3" width="10.4" height="8.6"/>
				<rect id="Rectangle_9716-2" x="233.2" y="35.5" class="st3" width="10.4" height="5.2"/>
				<rect id="Rectangle_9717-2" x="346.4" y="35.5" class="st3" width="19.8" height="122.2"/>
				<rect id="Rectangle_9718-2" x="266.7" y="105.9" class="st3" width="39.5" height="51.9"/>
				<rect id="Rectangle_9719-2" x="306.3" y="45.9" class="st3" width="16.1" height="5.2"/>
				<rect id="Rectangle_9720-2" x="306.3" y="40.7" class="st3" width="13.1" height="5.2"/>
				<rect id="Rectangle_9721-2" x="306.3" y="35.5" class="st3" width="10.4" height="5.2"/>
				<rect id="Rectangle_9722-2" x="157.5" y="51.2" class="st3" width="19.8" height="106.6"/>
				<rect id="Rectangle_9723-2" x="177.3" y="69.2" class="st3" width="19.8" height="88.6"/>
				<rect id="Rectangle_9724-2" x="392.5" y="69.2" class="st3" width="19.8" height="88.6"/>
				<rect id="Rectangle_9725-2" x="127.7" y="27.3" class="st3" width="29.8" height="130.5"/>
				<rect id="Rectangle_9726-2" x="157.5" y="45.9" class="st3" width="16.1" height="5.2"/>
				<rect id="Rectangle_9727-2" x="157.5" y="40.7" class="st3" width="13.1" height="5.2"/>
				<rect id="Rectangle_9728-2" x="157.5" y="31.5" class="st3" width="10.4" height="9.2"/>
				<rect id="Rectangle_9729-2" x="79.5" y="51.2" class="st3" width="19.8" height="106.6"/>
				<rect id="Rectangle_9730-2" x="35.5" y="69.2" class="st3" width="44" height="88.6"/>
				<rect id="Rectangle_9731-2" x="103.9" y="54.4" class="st3" width="39.3" height="103.4"/>
				<rect id="Rectangle_9732-2" x="0" y="135.7" class="st3" width="190.8" height="22.1"/>
				<rect id="Rectangle_9733-2" x="79.5" y="45.9" class="st3" width="16.1" height="5.2"/>
				<rect id="Rectangle_9734-2" x="79.5" y="40.7" class="st3" width="13.1" height="5.2"/>
				<rect id="Rectangle_9735-2" x="79.5" y="35.5" class="st3" width="10.4" height="5.2"/>
				<g id="Group_12393-2" transform="translate(79.479 89.361)">
					<rect id="Rectangle_8929-2" x="0" y="0" class="st3" width="17.7" height="4.4"/>
					<rect id="Rectangle_8930-2" x="0" y="15.9" class="st3" width="17.7" height="4.4"/>
					<rect id="Rectangle_8931-2" x="0" y="31.9" class="st3" width="17.7" height="4.4"/>
					<rect id="Rectangle_8932-2" x="0.3" y="47.8" class="st3" width="17.7" height="4.4"/>
					<rect id="Rectangle_8933-2" x="0.3" y="63.7" class="st3" width="17.7" height="4.4"/>
				</g>
			</g>
		</g>
		<path id="Path_9419" class="st2" d="M415.6,29.4c0.2-1-1.2-3.1-2.6-3c-0.6,0-1.2,0.2-1.7,0.1c-1.6-0.1-2.4-1.3-3-2.3
			c-0.6-1.2-1.9-2-3.3-1.9c-2.2,0.4-3.3,3.2-5.8,1.1c-1.6-1.4-1.7-3.4-3.6-4.8c-1.4-1.1-3.3-1.4-5-1c-2.2,0.7-3,2.9-5.4,3.3
			c-2.6,0.4-4.5-1.6-5.3-3c-1-1.7-1.4-3.6-2.2-5.4c-0.8-1.6-2.4-3.8-5.3-3.8c-2.4,0-3.5,1.6-4.7,2.8c-1.6,1.6-4.8,7.3-8.4,6.6
			c-1.4-0.3-2.1-1.4-3.4-1.9c-2.1-0.8-4.7,0.3-5.9,1.7s-1.7,3.1-3.1,4.4c-0.4,0.4-0.9,0.7-1.4,0.8c-2,0.5-3.8-1.1-5.9-1.2
			c-1.3,0-2.7,0.5-3.6,1.4c-0.7,0.8-1.4,1.7-1.9,2.7c-0.2,0.3-0.4,0.5-0.7,0.7c-0.9,0.5-2.2,0.1-3.3-0.1c-2.8-0.5-5.9,0.8-6.7,2.7
			L415.6,29.4z"/>
		<path id="Path_9420" class="st2" d="M450.3,61.4c0-0.8-0.6-1.4-1.4-1.6c-0.3,0-0.6,0.1-0.9,0.1c-0.7-0.1-1.3-0.5-1.5-1.2
			c-0.3-0.6-1-1-1.7-1c-1.1,0.2-1.7,1.7-3,0.6c-0.8-0.7-0.9-1.7-1.8-2.5c-0.7-0.5-1.7-0.7-2.6-0.5c-1.1,0.3-1.6,1.5-2.8,1.7
			c-1.1,0.1-2.2-0.5-2.7-1.5c-0.5-0.9-0.7-1.9-1.2-2.8c-0.4-1.1-1.5-1.9-2.7-1.9c-1,0.1-1.9,0.6-2.4,1.4c-0.8,0.8-2.5,3.8-4.3,3.4
			c-0.7-0.1-1.1-0.7-1.7-1c-1.1-0.3-2.3,0-3,0.9c-0.6,0.7-0.9,1.6-1.6,2.3c-0.2,0.2-0.4,0.3-0.7,0.4c-1,0.3-1.9-0.6-3-0.6
			c-0.7,0-1.4,0.2-1.9,0.7c-0.4,0.4-0.7,0.9-1,1.4c-0.1,0.1-0.2,0.3-0.4,0.3c-0.6,0.2-1.2,0.1-1.7-0.1c-1.4-0.2-3,0.4-3.4,1.4
			L450.3,61.4z"/>
		<path id="Path_9421" class="st2" d="M79.5,52.8c0-0.8-0.6-1.4-1.4-1.6c-0.3,0-0.6,0.1-0.9,0.1c-0.7-0.1-1.3-0.5-1.5-1.2
			c-0.3-0.6-1-1-1.7-1c-1.1,0.2-1.7,1.7-3,0.6c-0.8-0.7-0.9-1.7-1.8-2.5c-0.7-0.5-1.7-0.7-2.6-0.5c-1.1,0.3-1.6,1.5-2.8,1.7
			c-1.1,0.1-2.2-0.5-2.7-1.5C60.7,46,60.5,45,60,44.1c-0.4-1.1-1.5-1.9-2.7-1.9c-1,0.1-1.9,0.6-2.4,1.4c-0.8,0.8-2.5,3.8-4.3,3.4
			c-0.7-0.1-1.1-0.7-1.7-1c-1.1-0.3-2.3,0-3,0.9c-0.6,0.7-0.9,1.6-1.6,2.3c-0.2,0.2-0.4,0.3-0.7,0.4c-1,0.3-1.9-0.6-3-0.6
			c-0.7,0-1.4,0.2-1.9,0.7c-0.4,0.4-0.7,0.9-1,1.4c-0.1,0.1-0.2,0.3-0.4,0.3c-0.6,0.2-1.2,0.1-1.7-0.1c-1.4-0.2-3,0.4-3.4,1.4
			L79.5,52.8z"/>
		<rect id="Rectangle_8919" x="161.7" y="53.9" class="st2" width="13.7" height="7.2"/>
		<g id="Group_12398" transform="translate(183.036 87.098)">
			<path id="Rectangle_9649" class="st4" d="M15.7,0h160.6c1.7,0,3,1.3,3,3v94.1c0,1.7-1.3,3-3,3H15.7c-1.7,0-3-1.3-3-3V3
				C12.7,1.3,14,0,15.7,0z"/>
			
				<pattern  id="SDE-82_Activity_Stream_german_fake__1_" xlink:href="#pattern" patternTransform="matrix(1 0 0 -1 45.238 -16694.8223)">
			</pattern>
			<path id="SDE-82_Activity_Stream_german_fake_" class="st5" d="M20.2,4.6h151.6c1.7,0,3,1.3,3,3v84.9c0,1.7-1.3,3-3,3H20.2
				c-1.7,0-3-1.3-3-3V7.6C17.2,6,18.5,4.6,20.2,4.6z"/>
			<path id="Path_9183" class="st6" d="M0,129.9h95.9h95.9c0,0.8-0.1,1.6-0.1,2.4c-0.2,1.4-1.4,2.5-2.9,2.4h-93h-93
				c-1.4,0.1-2.7-1-2.8-2.4C0.1,131.5,0,130.7,0,129.9z"/>
			<path id="Path_9141" class="st7" d="M17.7,99.9h155.8c2.4,0,4.7,0.6,5,1.2c1,2.1,1.9,4.2,2.9,6.3c1,2.2,2.1,4.4,3.2,6.7
				c1.1,2.4,2.3,4.8,3.4,7.3c1.2,2.5,2.4,5.1,3.7,7.8c0.4,0.9-1.6,1.6-4.4,1.6c-15.2,0-30.3,0-45.5,0.1c-15.2,0-30.4,0-45.6,0.1
				c-15.2,0-30.5,0-45.8,0.1c-15.3,0-30.6,0-45.9,0c-2.9,0-4.8-0.7-4.5-1.6c0.5-1.3,1.2-2.7,1.7-4s1.2-2.6,1.8-3.9
				c1.1-2.5,2.2-5,3.3-7.3c1-2.3,2-4.6,3.1-6.8c1-2.2,1.9-4.3,2.8-6.4C13,100.4,15.3,99.9,17.7,99.9z"/>
			<g id="Group_12391" transform="translate(9.404 103.757)">
				<g transform="matrix(1, 0, 0, 1, -192.44, -190.85)" class="st8">
					<path id="Path_9142-2_1_" class="st9" d="M201.9,190.9c3.9,0,7.9,0,11.9,0c-0.4,1.1-0.8,2.2-1.2,3.2c-4,0-8,0-12.1,0
						C201,193,201.5,192,201.9,190.9z"/>
				</g>
				<g transform="matrix(1, 0, 0, 1, -192.44, -190.85)" class="st10">
					<path id="Path_9143-2_1_" class="st9" d="M200.1,195.3c4.1,0,8.1,0,12.2,0c-0.4,1.1-0.8,2.3-1.2,3.4c-4.1,0-8.2,0-12.4,0
						C199.2,197.6,199.6,196.5,200.1,195.3z"/>
				</g>
				<g transform="matrix(1, 0, 0, 1, -192.44, -190.85)" class="st11">
					<path id="Path_9144-2_1_" class="st9" d="M198.2,200c4.2,0,8.3,0,12.4,0c-0.4,1.2-0.8,2.4-1.2,3.6c-4.2,0-8.4,0-12.7,0
						C197.2,202.4,197.7,201.2,198.2,200z"/>
				</g>
				<g transform="matrix(1, 0, 0, 1, -192.44, -190.85)" class="st12">
					<path id="Path_9145-2_1_" class="st9" d="M196.2,204.9c4.3,0,8.5,0,12.8,0c-0.4,1.2-0.9,2.5-1.3,3.8c-4.3,0-8.7,0-13,0
						C195.1,207.4,195.7,206.1,196.2,204.9z"/>
				</g>
				<g transform="matrix(1, 0, 0, 1, -192.44, -190.85)" class="st13">
					<path id="Path_9146-2_1_" class="st9" d="M194.1,210.1c4.4,0,8.8,0,13.1,0c-0.4,1.3-0.9,2.6-1.3,4c-4.5,0-8.9,0-13.4,0
						C193,212.7,193.5,211.4,194.1,210.1z"/>
				</g>
				<g transform="matrix(1, 0, 0, 1, -192.44, -190.85)" class="st14">
					<path id="Path_9147-2_1_" class="st9" d="M219.9,190.9c4,0,7.9,0,11.9,0c-0.3,1.1-0.6,2.1-0.8,3.2c-4,0-8.1,0-12.1,0
						C219.3,193,219.6,191.9,219.9,190.9z"/>
				</g>
				<g transform="matrix(1, 0, 0, 1, -192.44, -190.85)" class="st15">
					<path id="Path_9148-2_1_" class="st9" d="M238,190.9c3.9,0,7.9,0,11.8,0c-0.2,1.1-0.3,2.2-0.5,3.2c-4,0-8,0-12,0
						C237.5,193,237.7,191.9,238,190.9z"/>
				</g>
				<g transform="matrix(1, 0, 0, 1, -192.44, -190.85)" class="st16">
					<path id="Path_9149-2_1_" class="st9" d="M255.9,190.9c4,0,7.9,0,11.8,0c0,1.1-0.1,2.1-0.1,3.2c-4,0-8,0-12,0
						C255.6,193,255.8,191.9,255.9,190.9z"/>
				</g>
				<g transform="matrix(1, 0, 0, 1, -192.44, -190.85)" class="st17">
					<path id="Path_9150-2_1_" class="st9" d="M273.8,190.9c3.9,0,7.9,0,11.8,0c0,1.1,0.1,2.1,0.1,3.2c-4,0-8,0-12,0
						C273.8,193,273.8,191.9,273.8,190.9z"/>
				</g>
				<g transform="matrix(1, 0, 0, 1, -192.44, -190.85)" class="st18">
					<path id="Path_9151-2_1_" class="st9" d="M291.7,190.9c3.9,0,7.9,0,11.8,0c0.2,1.1,0.3,2.1,0.4,3.2c-4,0-8,0-12,0
						C291.9,193,291.8,191.9,291.7,190.9z"/>
				</g>
				<g transform="matrix(1, 0, 0, 1, -192.44, -190.85)" class="st19">
					<path id="Path_9152-2_1_" class="st9" d="M309.6,190.9h11.8c0.3,1.1,0.5,2.1,0.8,3.2c-4,0-8,0-12,0
						C310,193,309.8,191.9,309.6,190.9z"/>
				</g>
				<g transform="matrix(1, 0, 0, 1, -192.44, -190.85)" class="st20">
					<path id="Path_9153-2_1_" class="st9" d="M327.5,190.9c3.9,0,7.8,0,11.7,0c0.3,1.1,0.7,2.1,1.1,3.2c-4,0-8,0-11.9,0
						C328.1,193,327.8,191.9,327.5,190.9z"/>
				</g>
				<g transform="matrix(1, 0, 0, 1, -192.44, -190.85)" class="st21">
					<path id="Path_9154-2_1_" class="st9" d="M345.3,190.9c3.9,0,7.9,0,11.8,0c0.5,1.1,0.9,2.1,1.4,3.2c-4,0-8,0-11.9,0
						C346.2,193,345.7,191.9,345.3,190.9z"/>
				</g>
				<g transform="matrix(1, 0, 0, 1, -192.44, -190.85)" class="st22">
					<path id="Path_9155-2_1_" class="st9" d="M218.6,195.3c4,0,8.1,0,12.1,0c-0.3,1.1-0.6,2.3-0.8,3.4c-4.1,0-8.3,0-12.4,0
						C217.8,197.6,218.2,196.4,218.6,195.3z"/>
				</g>
				<g transform="matrix(1, 0, 0, 1, -192.44, -190.85)" class="st23">
					<path id="Path_9156-2_1_" class="st9" d="M237,195.3c4,0,8.1,0,12.1,0c-0.2,1.1-0.3,2.2-0.5,3.4c-4.1,0-8.2,0-12.3,0
						C236.5,197.6,236.7,196.4,237,195.3z"/>
				</g>
				<g transform="matrix(1, 0, 0, 1, -192.44, -190.85)" class="st24">
					<path id="Path_9157-2_1_" class="st9" d="M255.4,195.3c4,0,8.1,0,12.1,0c0,1.1-0.1,2.2-0.2,3.4c-4.1,0-8.2,0-12.3,0
						C255.1,197.6,255.2,196.4,255.4,195.3z"/>
				</g>
				<g transform="matrix(1, 0, 0, 1, -192.44, -190.85)" class="st25">
					<path id="Path_9158-2_1_" class="st9" d="M273.8,195.3c4,0,8.1,0,12.1,0c0.1,1.1,0.1,2.3,0.2,3.4c-4.1,0-8.2,0-12.3,0
						C273.7,197.6,273.7,196.4,273.8,195.3z"/>
				</g>
				<g transform="matrix(1, 0, 0, 1, -192.44, -190.85)" class="st26">
					<path id="Path_9159-2_1_" class="st9" d="M292.1,195.3c4,0,8.1,0,12.1,0c0.2,1.1,0.3,2.2,0.5,3.4c-4.1,0-8.2,0-12.3,0
						C292.3,197.5,292.2,196.4,292.1,195.3z"/>
				</g>
				<g transform="matrix(1, 0, 0, 1, -192.44, -190.85)" class="st27">
					<path id="Path_9160-2_1_" class="st9" d="M310.4,195.3c4,0,8,0,12,0c0.3,1.1,0.5,2.3,0.8,3.4c-4.1,0-8.2,0-12.2,0
						C310.8,197.5,310.6,196.4,310.4,195.3z"/>
				</g>
				<g transform="matrix(1, 0, 0, 1, -192.44, -190.85)" class="st28">
					<path id="Path_9161-2_1_" class="st9" d="M328.8,195.3c4,0,8,0,12,0c0.4,1.1,0.8,2.3,1.2,3.4c-4.1,0-8.2,0-12.2,0
						C329.4,197.5,329.1,196.4,328.8,195.3z"/>
				</g>
				<g transform="matrix(1, 0, 0, 1, -192.44, -190.85)" class="st29">
					<path id="Path_9162-2_1_" class="st9" d="M347,195.3c4,0,8,0,12,0c0.5,1.1,1,2.2,1.5,3.4c-4.1,0-8.2,0-12.3,0
						C347.9,197.5,347.4,196.4,347,195.3z"/>
				</g>
				<g transform="matrix(1, 0, 0, 1, -192.44, -190.85)" class="st30">
					<path id="Path_9163-2_1_" class="st9" d="M217.1,200c4.2,0,8.3,0,12.4,0c-0.3,1.2-0.6,2.4-0.9,3.6c-4.2,0-8.5,0-12.7,0
						C216.4,202.3,216.7,201.2,217.1,200z"/>
				</g>
				<g transform="matrix(1, 0, 0, 1, -192.44, -190.85)" class="st31">
					<path id="Path_9164-2_1_" class="st9" d="M236,200c4.1,0,8.3,0,12.4,0c-0.2,1.2-0.3,2.4-0.5,3.6c-4.2,0-8.4,0-12.6,0
						C235.5,202.3,235.7,201.2,236,200z"/>
				</g>
				<g transform="matrix(1, 0, 0, 1, -192.44, -190.85)" class="st32">
					<path id="Path_9165-2_1_" class="st9" d="M254.8,200c4.2,0,8.3,0,12.4,0c-0.1,1.2-0.1,2.4-0.2,3.6c-4.2,0-8.4,0-12.6,0
						C254.6,202.3,254.7,201.1,254.8,200z"/>
				</g>
				<g transform="matrix(1, 0, 0, 1, -192.44, -190.85)" class="st33">
					<path id="Path_9166-2_1_" class="st9" d="M273.7,200c4.1,0,8.3,0,12.4,0c0.1,1.2,0.1,2.4,0.2,3.6c-4.2,0-8.4,0-12.6,0
						C273.7,202.3,273.7,201.1,273.7,200z"/>
				</g>
				<g transform="matrix(1, 0, 0, 1, -192.44, -190.85)" class="st34">
					<path id="Path_9167-2_1_" class="st9" d="M292.5,199.9c4.1,0,8.3,0,12.4,0c0.2,1.2,0.4,2.4,0.5,3.6c-4.2,0-8.4,0-12.6,0
						C292.7,202.3,292.6,201.1,292.5,199.9z"/>
				</g>
				<g transform="matrix(1, 0, 0, 1, -192.44, -190.85)" class="st35">
					<path id="Path_9168-2_1_" class="st9" d="M311.2,199.9c4.1,0,8.2,0,12.4,0c0.3,1.2,0.6,2.4,0.9,3.6c-4.2,0-8.4,0-12.6,0
						C311.7,202.3,311.5,201.1,311.2,199.9z"/>
				</g>
				<g transform="matrix(1, 0, 0, 1, -192.44, -190.85)" class="st36">
					<path id="Path_9169-2_1_" class="st9" d="M330,199.9c4.1,0,8.2,0,12.3,0c0.4,1.2,0.8,2.4,1.2,3.6c-4.2,0-8.3,0-12.6,0
						C330.7,202.3,330.4,201.1,330,199.9z"/>
				</g>
				<g transform="matrix(1, 0, 0, 1, -192.44, -190.85)" class="st37">
					<path id="Path_9170-2_1_" class="st9" d="M348.8,199.9c4.1,0,8.2,0,12.3,0c0.5,1.2,1,2.4,1.6,3.6l-12.5,0
						C349.6,202.3,349.2,201.1,348.8,199.9z"/>
				</g>
				<g transform="matrix(1, 0, 0, 1, -192.44, -190.85)" class="st38">
					<path id="Path_9171-2_1_" class="st9" d="M215.6,204.9l12.8,0c-0.3,1.2-0.6,2.5-1,3.8c-4.3,0-8.7,0-13,0
						C214.8,207.4,215.2,206.1,215.6,204.9z"/>
				</g>
				<g transform="matrix(1, 0, 0, 1, -192.44, -190.85)" class="st39">
					<path id="Path_9172-2_1_" class="st9" d="M234.9,204.9c4.2,0,8.5,0,12.7,0c-0.2,1.2-0.4,2.5-0.6,3.8c-4.3,0-8.7,0-12.9,0
						C234.4,207.4,234.7,206.1,234.9,204.9z"/>
				</g>
				<g transform="matrix(1, 0, 0, 1, -192.44, -190.85)" class="st40">
					<path id="Path_9173-2_1_" class="st9" d="M254.3,204.9c4.2,0,8.5,0,12.7,0c-0.1,1.2-0.1,2.5-0.2,3.8c-4.3,0-8.6,0-12.9,0
						C254,207.3,254.1,206.1,254.3,204.9z"/>
				</g>
				<g transform="matrix(1, 0, 0, 1, -192.44, -190.85)" class="st41">
					<path id="Path_9174-2_1_" class="st9" d="M273.6,204.8c4.2,0,8.4,0,12.6,0c0.1,1.2,0.2,2.5,0.2,3.8c-4.3,0-8.6,0-12.9,0
						C273.6,207.3,273.6,206.1,273.6,204.8z"/>
				</g>
				<g transform="matrix(1, 0, 0, 1, -192.44, -190.85)" class="st42">
					<path id="Path_9175-2_1_" class="st9" d="M292.9,204.8c4.2,0,8.5,0,12.7,0c0.2,1.2,0.4,2.5,0.5,3.8c-4.3,0-8.6,0-12.9,0
						C293.1,207.3,293,206.1,292.9,204.8z"/>
				</g>
				<g transform="matrix(1, 0, 0, 1, -192.44, -190.85)" class="st43">
					<path id="Path_9176-2_1_" class="st9" d="M312.1,204.8l12.6,0c0.3,1.2,0.6,2.5,1,3.8c-4.3,0-8.6,0-12.9,0
						C312.6,207.3,312.4,206,312.1,204.8z"/>
				</g>
				<g transform="matrix(1, 0, 0, 1, -192.44, -190.85)" class="st44">
					<path id="Path_9177-2_1_" class="st9" d="M331.4,204.8c4.2,0,8.4,0,12.6,0c0.4,1.2,0.9,2.5,1.3,3.8c-4.3,0-8.6,0-12.8,0
						C332.1,207.3,331.7,206,331.4,204.8z"/>
				</g>
				<g transform="matrix(1, 0, 0, 1, -192.44, -190.85)" class="st45">
					<path id="Path_9178-2_1_" class="st9" d="M350.6,204.8c4.2,0,8.4,0,12.6,0c0.6,1.2,1.1,2.5,1.7,3.8c-4.3,0-8.6,0-12.9,0
						C351.5,207.3,351,206,350.6,204.8z"/>
				</g>
				<g transform="matrix(1, 0, 0, 1, -192.44, -190.85)" class="st46">
					<path id="Path_9179-2_1_" class="st9" d="M214,210c4.3,0,8.7,0,13.1,0c-0.3,1.3-0.7,2.6-1,4c-4.4,0-8.9,0-13.3,0
						C213.2,212.7,213.6,211.3,214,210z"/>
				</g>
				<g transform="matrix(1, 0, 0, 1, -192.44, -190.85)" class="st47">
					<path id="Path_9180-2_1_" class="st9" d="M332.8,209.9c4.3,0,8.6,0,13,0c0.4,1.3,0.9,2.6,1.3,4l-13.2,0
						C333.5,212.5,333.2,211.2,332.8,209.9z"/>
				</g>
				<g transform="matrix(1, 0, 0, 1, -192.44, -190.85)" class="st48">
					<path id="Path_9181-2_1_" class="st9" d="M352.5,209.9c4.3,0,8.6,0,12.9,0c0.6,1.3,1.1,2.6,1.7,3.9c-4.4,0-8.8,0-13.2,0
						C353.5,212.5,353,211.2,352.5,209.9z"/>
				</g>
				<g transform="matrix(1, 0, 0, 1, -192.44, -190.85)" class="st49">
					<path id="Path_9182-2_1_" class="st9" d="M232.5,210l47.1,0c15.6,0,31.3,0,46.9,0c0.3,1.3,0.7,2.7,1,4c-15.9,0-31.9,0-47.9,0
						c-16,0-32,0-48,0C231.8,212.7,232.1,211.4,232.5,210z"/>
				</g>
			</g>
		</g>
		<g id="Group_12389" transform="translate(102.662)">
			<g id="Group_12380" transform="translate(0 0.471)">
				<g id="Group_12378" transform="translate(40.389 0)">
					<path id="Path_9185" class="st50" d="M0.4,188.3h24.5v9.2h-0.8v-8.3H0.8v8.3H0v-9.2H0.4z"/>
					<path id="Path_9186" class="st50" d="M0.6,188.4l10.2,9.2H9.5l-9.3-8.4L0.6,188.4z"/>
					<path id="Path_9187" class="st50" d="M0.4,167.4h24.5V190H0v-22.6H0.4z M24.1,168.3H0.8v20.7h23.4V168.3z"/>
					<path id="Path_9188" class="st50" d="M0.4,146.5h24.5v22.6H0v-22.6H0.4z M24.1,147.4H0.8v20.7h23.4V147.4z"/>
					<path id="Path_9189" class="st50" d="M0.4,125.5h24.5v22.6H0v-22.6H0.4z M24.1,126.5H0.8v20.7h23.4V126.5z"/>
					<path id="Path_9190" class="st50" d="M0.4,104.6h24.5v22.6H0v-22.6H0.4z M24.1,105.6H0.8v20.7h23.4V105.6z"/>
					<path id="Path_9191" class="st50" d="M0.4,83.7h24.5v22.6H0V83.7H0.4z M24.1,84.6H0.8v20.7h23.4V84.6z"/>
					<path id="Path_9192" class="st50" d="M0.4,62.8h24.5v22.6H0V62.8H0.4z M24.1,63.7H0.8v20.7h23.4V63.7z"/>
					<path id="Path_9193" class="st50" d="M24.9,57.7v6.7H0v-6.7h0.8v5.8h23.4v-5.8H24.9z"/>
					<path id="Path_9194" class="st50" d="M0.4,0h24.5v19.9h-0.8V1H0.8v19H0V0H0.4z"/>
					<path id="Path_9195" class="st50" d="M0.6,167.5l24.1,21.7l-0.4,0.8L0.2,168.2L0.6,167.5z"/>
					<path id="Path_9196" class="st50" d="M0.6,146.5l24.1,21.7l-0.4,0.8L0.2,147.3L0.6,146.5z"/>
					<path id="Path_9197" class="st50" d="M0.6,125.6l24.1,21.7l-0.4,0.8L0.2,126.4L0.6,125.6z"/>
					<path id="Path_9198" class="st50" d="M0.6,104.7l24.1,21.7l-0.4,0.8L0.2,105.5L0.6,104.7z"/>
					<path id="Path_9199" class="st50" d="M0.6,83.8l24.1,21.7l-0.4,0.8L0.2,84.6L0.6,83.8z"/>
					<path id="Path_9200" class="st50" d="M0.6,62.9l24.1,21.7l-0.4,0.8L0.2,63.6L0.6,62.9z"/>
					<path id="Path_9201" class="st50" d="M18.2,57.7l6.5,5.9l-0.4,0.8l-7.4-6.7H18.2z"/>
					<path id="Path_9202" class="st50" d="M0.6,0.1l22.1,19.8h-1.3L0.2,0.9L0.6,0.1z"/>
				</g>
				<g id="Group_12379" transform="translate(0 28.711)">
					<path id="Path_9203" class="st50" d="M188.3,20V0h22.6v20.3h-22.6V20L188.3,20z M189.3,0.6v19H210v-19H189.3z"/>
					<path id="Path_9204" class="st50" d="M188.4,19.8l21.7-19.6l0.8,0.4l-21.7,19.6L188.4,19.8z"/>
					<path id="Path_9205" class="st50" d="M167.4,20V0H190v20.3h-22.6V20L167.4,20z M168.3,0.6v19h20.7v-19H168.3z"/>
					<path id="Path_9206" class="st50" d="M146.5,20V0h22.6v20.3h-22.6V20L146.5,20z M147.4,0.6v19h20.7v-19H147.4z"/>
					<path id="Path_9207" class="st50" d="M125.5,20V0h22.6v20.3h-22.6V20L125.5,20z M126.5,0.6v19h20.7v-19H126.5z"/>
					<path id="Path_9208" class="st50" d="M104.6,20V0h22.6v20.3h-22.6V20L104.6,20z M105.6,0.6v19h20.7v-19H105.6z"/>
					<path id="Path_9209" class="st50" d="M83.7,20V0h22.6v20.3H83.7V20L83.7,20z M84.6,0.6v19h20.7v-19H84.6z"/>
					<path id="Path_9210" class="st50" d="M80.5,0h4.9v20.3h-4.9v-0.6h3.9v-19h-3.9V0z"/>
					<path id="Path_9211" class="st50" d="M20.9,20V0H27v0.6h-5.1v19H27v0.6h-6.1L20.9,20z"/>
					<path id="Path_9212" class="st50" d="M0,20V0h22.6v20.3H0V20L0,20z M1,0.6v19h20.7v-19H1z"/>
					<path id="Path_9213" class="st50" d="M167.5,19.8l21.7-19.6l0.8,0.4l-21.7,19.6L167.5,19.8z"/>
					<path id="Path_9214" class="st50" d="M146.5,19.8l21.7-19.6l0.8,0.4l-21.7,19.6L146.5,19.8z"/>
					<path id="Path_9215" class="st50" d="M125.6,19.8l21.7-19.6l0.8,0.4l-21.7,19.6L125.6,19.8z"/>
					<path id="Path_9216" class="st50" d="M104.7,19.8l21.7-19.6l0.8,0.4l-21.7,19.6L104.7,19.8z"/>
					<path id="Path_9217" class="st50" d="M83.8,19.8l21.7-19.6l0.8,0.4L84.6,20.1L83.8,19.8z"/>
					<path id="Path_9218" class="st50" d="M80.5,3.7l4-3.6l0.8,0.4l-4.8,4.3L80.5,3.7z"/>
					<path id="Path_9219" class="st50" d="M21,19.8l6-5.5v1.1l-5.2,4.7L21,19.8z"/>
					<path id="Path_9220" class="st50" d="M0.1,19.8L21.8,0.1l0.8,0.4L0.9,20.1L0.1,19.8z"/>
				</g>
			</g>
			<path id="Rectangle_9651" class="st51" d="M31,20.4h45.5c2.2,0,4,1.8,4,4v29.8c0,2.2-1.8,4-4,4H31c-2.2,0-4-1.8-4-4V24.4
				C27,22.2,28.8,20.4,31,20.4z"/>
			<path id="Path_9221" class="st50" d="M19.2,202.1h8.3v-12h48.4v12h8.3v24h-65V202.1z"/>
			<path id="Path_9222" class="st50" d="M0.7,29.4L52.6,0.1L52.9,0l158,29.2l-0.2,0.9L52.9,1L1.2,30.2L0.7,29.4z"/>
			<path id="Path_9269" class="st50" d="M192,48.3h11.3v5.6h-2v4.7H194v-4.7h-2L192,48.3z"/>
			<path id="Path_9270" class="st50" d="M178,74l19.4-16.1l0.2-0.2l0.2,0.2l20,16.3l-0.4,1l-19.8-16.1L178.4,75L178,74z"/>
		</g>
		<g id="Group_12388" transform="translate(320.86 134.723)">
			<g id="Group_12387" transform="translate(0 0)">
				<rect id="Rectangle_9659" x="0" y="0" class="st52" width="2.7" height="2"/>
				<path id="Path_9271" class="st53" d="M2.7,2H0c0.5,1,0.8,2,0.9,3.1h0.7C1.7,4,2.1,2.9,2.7,2z"/>
			</g>
			<path id="Path_9272" class="st54" d="M16.2,17.3c-1.6-0.2-3.3-0.3-4.9-0.3c-4.2-1.8-7.1-5-8.8-9.8c-1.3,0.1-2,0.6-2.1,1.6
				c0.6,4.4,2.8,8.4,6.2,11.4C7,28.4,7.9,35.4,7.9,35.4c4.4,1,7.4,0,11.1,0.3v-9.8c0.6,4.2,2.4,8.2,5.2,11.4
				c0.6,0.3,1.2,0.4,1.8,0.3c-1.6-6.5-3.9-12.9-7-18.9L16.2,17.3z"/>
			<path id="Path_9273" class="st55" d="M18.8,35.7c-6.9-0.2-10.3-0.1-10.3-0.1C6.5,45.6,5.9,55.9,6.6,66.1c-0.2,0-0.4,0-0.6,0
				c0,0.6,0.5,1.1,1.1,1.2c1.1,0.2,1.5-0.1,1.1-1l0.2,0l4.9-24c1.4,8.6,4.1,16.8,5.1,23.7l0.2,0.1c-0.3,0.8,0.2,1.1,1.3,0.9
				c0.7-0.1,1.2-0.7,1.2-1.4c-0.4,0-0.8,0-1.1,0.1C20.3,55.7,19.9,45.6,18.8,35.7z"/>
			<path id="Path_9274" class="st53" d="M12,7.4c1.3-0.7,3.2,0,4.4,1.7s1.1,4-0.3,5s-3.5,0.4-4.8-1.4c-0.5-0.7-0.8-1.6-0.8-2.5
				c-0.1,0-0.2,0-0.2,0c-1,0-1.8-0.9-1.8-1.9c0-1.1,1.1-2.1,1.8-1.9C10.9,6.5,11.5,6.9,12,7.4z"/>
			<path id="Path_9275" class="st56" d="M15.6,14.3l-0.4,0.1c-1.5,0.2-3.1-0.5-3.9-1.8c-0.3-0.5-0.6-1-0.7-1.5l-0.1-0.6
				c-0.7,3.2-0.6,5.1,0.8,5c-0.1,1.2-0.1,1.7,0.1,1.5c1.2,0,2.5,0,3.7,0.1C15.1,16.2,15.3,15.3,15.6,14.3z"/>
			<path id="Path_9276" class="st56" d="M2.5,7.3C1.6,7.5,1.4,8,0.6,8.3C0,6.4-0.1,5.5,0.8,4.7C1.9,4.2,2.2,4.6,2.5,7.3z"/>
			<path id="Path_9277" class="st56" d="M25.9,36.8c-1,0.7-1.4,0.7-1.4,0.7c0.3,1.4,0.8,2.6,2,2.9C27.6,39.7,27.4,38.5,25.9,36.8z"
				/>
		</g>
		<g id="Group_12392" transform="translate(275.058 72.695)">
			<path id="Rectangle_9675" class="st57" d="M5.9,1.4h35.9c3.2,0,5.9,2.6,5.9,5.9c0,0,0,0,0,0v30.5c0,3.2-2.6,5.9-5.9,5.9l0,0H5.9
				C2.6,43.6,0,41,0,37.8c0,0,0,0,0,0V7.3C0,4,2.6,1.4,5.9,1.4C5.9,1.4,5.9,1.4,5.9,1.4z"/>
			<path id="Rectangle_9652" class="st52" d="M7.3,0h35.9C46.4,0,49,2.6,49,5.9c0,0,0,0,0,0v30.5c0,3.2-2.6,5.9-5.9,5.9l0,0H7.3
				c-3.2,0-5.9-2.6-5.9-5.9c0,0,0,0,0,0V5.9C1.4,2.6,4,0,7.3,0C7.3,0,7.3,0,7.3,0z"/>
			<g id="sellwerk-icon_desktop_44px" transform="translate(11.29 5.062)">
				<path id="Path_301" class="st58" d="M22.5,18.5c-1,1.1-3.4,2.3-6,3.3c-3,1.1-6.2,1.8-9.4,2c3.2-0.2,6.4-0.9,9.4-2
					C19,20.8,21.5,19.5,22.5,18.5z"/>
				<path id="Path_302" class="st58" d="M17.3,4.5l4.7,3.7l0,0L17.3,4.5z"/>
				<path id="Path_303" class="st58" d="M7.1,23.8c-0.2,0-0.4,0-0.5,0C6.7,23.8,6.9,23.8,7.1,23.8z"/>
				<path id="Path_304" class="st58" d="M7.1,12c-1.5,0.9-2.5,1.7-2.4,2.4C4.6,13.7,5.6,12.9,7.1,12z"/>
				<path id="Path_305" class="st58" d="M17.3,4.5c0,0-0.1,0-0.3,0.1C17.2,4.5,17.3,4.5,17.3,4.5z"/>
				<path id="Path_306" class="st58" d="M15.6,4.9L15.6,4.9L15.6,4.9z"/>
				<path id="Path_307" class="st58" d="M13.8,5.4l-0.1,0L13.8,5.4z"/>
				<path id="Path_308" class="st58" d="M11.5,6.2C10.4,6.5,9.2,7,8,7.5c-2.9,1.1-5.6,2.7-8,4.7c2.4-2,5.1-3.6,8-4.7
					C9.2,7,10.4,6.5,11.5,6.2z"/>
				<path id="Path_309" class="st58" d="M2.3,20.6c-0.7,0-1.4-0.2-2-0.4C1,20.4,1.7,20.6,2.3,20.6z"/>
				<path id="Path_310" class="st58" d="M11.5,6.2c0.8-0.3,1.5-0.5,2.2-0.7c0,0,0.1,0,0.1,0c0.7-0.2,1.3-0.4,1.8-0.5l0.1,0
					c0.6-0.2,1.1-0.3,1.4-0.3c0.2,0,0.3-0.1,0.3-0.1l4.7,3.7l0,0c-1.8-0.4-7.1,0.6-10.8,1.9c-1.4,0.5-2.8,1.1-4.1,1.9
					c-1.5,0.9-2.5,1.7-2.4,2.4c0,0.1,0,0.1,0.1,0.2c0.6,1,2.8,1,5.2,0.2s8.5-3,12.5-3.4c0.5,0,0.9-0.1,1.4-0.1
					c1.3-0.1,2.5,0.1,3.7,0.5V8L13.8,0L0,8v4.2c2.4-2,5.1-3.6,8-4.7C9.2,7,10.4,6.5,11.5,6.2z"/>
				<path id="Path_311" class="st58" d="M19.6,24.5c-2.8,1.2-5.8,2.2-8.8,2.9c-0.2,0-0.3,0.1-0.4,0.1l-0.1,0l-4.7-3.7
					c0.1,0,0.3,0,0.4,0.1c0.1,0,0.3,0,0.5,0s0.3,0,0.5,0c3.2-0.2,6.4-0.9,9.4-2c2.6-1,5-2.3,6-3.3c0.4-0.4,0.6-0.8,0.4-1.2
					c-0.6-1-2.8-1-5.2-0.2s-8.5,3-12.5,3.4c-0.9,0.1-1.8,0.1-2.7,0.1c-0.7,0-1.4-0.2-2-0.4c-0.1,0-0.2-0.1-0.3-0.1l0,0v3.8l13.8,8
					l13.8-8v-4.2C25.2,21.7,22.5,23.3,19.6,24.5z"/>
				<path id="Path_312" class="st58" d="M10.8,27.3l-0.4,0.1L10.8,27.3z"/>
				<path id="Path_313" class="st58" d="M19.6,24.5c-2.8,1.2-5.8,2.2-8.8,2.9C13.8,26.6,16.7,25.6,19.6,24.5c2.9-1.1,5.6-2.7,8-4.7
					l0,0C25.2,21.7,22.5,23.3,19.6,24.5z"/>
				<path id="Path_314" class="st58" d="M22.9,17.3c-0.6-1-2.8-1-5.2-0.2s-8.5,3-12.5,3.4c-0.9,0.1-1.8,0.1-2.7,0.1
					c0.9,0.1,1.8,0,2.7-0.1c4-0.4,10.1-2.6,12.5-3.4S22.3,16.3,22.9,17.3c0.2,0.3,0,0.7-0.4,1.2C22.9,18,23,17.6,22.9,17.3z"/>
				<path id="Path_315" class="st58" d="M6.5,23.8c-0.2,0-0.3,0-0.5,0C6.2,23.8,6.4,23.8,6.5,23.8z"/>
				<path id="Path_316" class="st58" d="M21.9,8.2L21.9,8.2c-1.8-0.4-7.1,0.6-10.8,1.9c-1.4,0.5-2.8,1.1-4.1,1.9
					c1.3-0.7,2.7-1.4,4.1-1.9C14.8,8.8,20.1,7.8,21.9,8.2z"/>
				<path id="Path_317" class="st58" d="M22.5,11.4c-4,0.4-10.1,2.6-12.5,3.4s-4.6,0.8-5.2-0.2c0-0.1-0.1-0.1-0.1-0.2
					c0,0.1,0,0.1,0.1,0.2c0.6,1,2.8,1,5.2,0.2S18.5,11.8,22.5,11.4c0.5,0,0.9-0.1,1.4-0.1C23.5,11.3,23,11.3,22.5,11.4z"/>
				<path id="Path_318" class="st58" d="M0.3,20.2c-0.1,0-0.2-0.1-0.3-0.1l0,0C0.1,20.1,0.2,20.2,0.3,20.2z"/>
				<path id="Path_319" class="st58" d="M17,4.6c-0.3,0.1-0.7,0.2-1.4,0.3C16.3,4.7,16.7,4.6,17,4.6z"/>
				<path id="Path_320" class="st58" d="M15.6,4.9c-0.5,0.1-1.1,0.3-1.8,0.5C14.5,5.2,15.1,5.1,15.6,4.9z"/>
				<path id="Path_321" class="st58" d="M13.7,5.4c-0.7,0.2-1.4,0.4-2.2,0.7C12.3,5.9,13,5.6,13.7,5.4z"/>
			</g>
		</g>
		<g id="Group_12381" transform="translate(180.158 166.576)">
			<path id="Path_9223" class="st56" d="M16.2,26.1c-0.3,0.3-0.6,0.5-1,0.5c0.2,0.1,3.1,2.7,2.9,1.9c-0.2-0.7-0.7-1.3,0.6-0.4
				c1.2,0.9,0.3-0.6,0-1c-0.5-0.8-1.4-1.2-2.3-1.1L16.2,26.1z"/>
			<path id="Path_9224" class="st59" d="M5.2,32.5c2.5,0.2,5,0.1,7.4-0.3c0,10.7-4.1,25.8-4.8,31.2c-1.6,0.1-1.2,0-1.2,0
				C5.4,46.8,5.2,32.5,5.2,32.5z"/>
			<path id="Path_9225" class="st60" d="M13.3,32.1C9,32.9,2.5,30.8,2.5,30.8c0.1,3.1,0.1,7.9,0.3,11.6C3.2,50.5,4,59.1,5.3,64
				c1.8-0.3,1.3-0.4,1.3-0.4C8.3,51.5,14.8,37.7,13.3,32.1z"/>
			<path id="Path_9226" class="st59" d="M5.8,4.5c0.4,1.7,2.3,1.3,3.6,0.4c0.6-0.4,1.1-1,1.6-1.5L5.8,4.5z"/>
			<path id="Path_9227" class="st61" d="M15.9,27.3c-0.9-0.4-1.9-0.8-2.8-1.3v-4.4h0.5l2.7,4.2L15.9,27.3z"/>
			<path id="Path_9228" class="st53" d="M10.6,9.5C8.8,8.7,7.2,8.1,5.9,7.6c-5.2,4.8-5.3,5.6-3.7,24.7c3.3,0.5,9.3,1.1,11.8,0.8
				C13.9,17.5,14,10.9,10.6,9.5z"/>
			<path id="Path_9229" class="st61" d="M10.1,13.4c1,1.2,0.9,0.2,1-0.8c0-0.8,0.2-3.4-0.2-3.9C9.5,7.8,8.1,7.2,6.5,6.7
				C6,6.7,5.6,7.2,5.6,7.7c0,0.2,0.1,0.4,0.2,0.5C6,8.5,7,9.6,7.4,10C8.3,11.1,9.2,12.3,10.1,13.4z"/>
			<path id="Path_9230" class="st56" d="M10.1,8.1C11,7,11.3,5.4,10.9,3.3L10,3.5C8.7,3.9,8,4.7,7.8,5.7C7.1,4.3,6.7,4.2,6.5,5.5
				L6.4,6.5C7.6,7.8,8.8,8.4,10.1,8.1z"/>
			<path id="Path_9231" class="st56" d="M7.1,27.4c0-0.5,0-0.9-0.2-1.3c0.2,0,4.8,0.9,3.9,1.2c-0.8,0.3-1.7,0.3,0.1,0.8
				c1.7,0.5-0.3,0.7-0.9,0.7c-1.1,0.1-2.1-0.4-2.7-1.3L7.1,27.4z"/>
			<path id="Path_9232" class="st61" d="M8,28.6c-5.8-4-9.2-7.8-7.6-15.3c0.4-1.8,1.1-2.8,3-3.1c4.2-0.7,1.8,8.7,1.3,10.7l3.8,5.9
				L8,28.6z"/>
			<path id="Path_9233" class="st62" d="M7.8,63.2l-1,0.4c0,0.4,0,0.6,0,0.6h0.4c0-0.1,0-0.2,0-0.2c0.5,0.6,1.3,0.7,1.9,0.3
				C8.6,64.1,8.2,63.7,7.8,63.2z"/>
			<path id="Path_9234" class="st62" d="M6.5,63.9c-0.4-0.1-0.8-0.1-1.2,0.1c0,0.4,0,1.1,0,1.1c0.2,0,0.4,0,0.6-0.1
				c0-0.1,0-0.2,0-0.2c0.6,0.5,1.3,0.6,2,0.2C7.3,64.7,6.9,64.3,6.5,63.9z"/>
			<path id="Path_9235" class="st53" d="M8.1,0.1c1.5-0.3,2.9,0.8,3.4,2.5l0.9-0.2l0.2,0.6l-0.9,0.2l0,0l-0.1,0l-0.9,0.2l0,0l-5,1.1
				C5.4,2.4,6.4,0.4,8.1,0.1z"/>
		</g>
		<g id="Group_12382" transform="translate(197.957 166.786)">
			<path id="Path_9236" class="st56" d="M17.8,4.5c0-0.3-0.1-0.6-0.2-0.8l-1.9-0.4l0,0l-0.4-0.1c-0.7,1.9-0.6,3.3,0.2,4.2
				c0.3,0.3,0.7,0.5,1.2,0.4l0.3,0.7c0.9-0.5,1.8-0.9,2.8-1.2C19.4,6,19.1,5,19.1,5l-0.5,0.5C19,4.5,18.8,4.1,17.8,4.5z"/>
			<path id="Path_9237" class="st63" d="M17.4,3.6c0,0.1,0,0.1,0.1,0.2c0.4,1.5,0.2,0.8,1,0.7c0.4,0,0.1,0.4,0.2,0.8
				c0.2,0.5,0.4,1,0.7,1.4c0.2,0,0.4-0.6,0.5-0.7c0.2-0.6,0.4-1.1,0.5-1.7L17.4,3.6z"/>
			<path id="Path_9238" class="st64" d="M15.5,63.1c0.6-0.3,1.2-0.3,1.8-0.1l-0.7,2.5l-0.6,0.3C16,65.4,16,65.2,16,65.2
				c-1.1,0.3-2.3,0.2-3.4-0.1C12.6,64.2,13.3,64,15.5,63.1z"/>
			<path id="Path_9239" class="st64" d="M16.7,63.9c0.6-0.3,1.2-0.3,1.8-0.1c-0.3,0.9-0.3,1.8-0.1,2.7c-0.4,0.1-0.8,0.1-1.2,0.1
				l-0.1-0.6c-1.5,0.2-2.5,0.4-3.3,0C13.8,65.2,14.5,64.9,16.7,63.9z"/>
			<path id="Path_9240" class="st65" d="M24,38.2c-4.8-0.2-18.2-3-18.2-3c2.5,18.3,10.7,28.8,10.7,28.8h1.9
				C19.6,50.2,24.2,42.6,24,38.2z"/>
			<path id="Path_9241" class="st66" d="M11.4,19.5l-0.9-2.6l-5.6-0.5c0.1,1,0.1,1.4-0.2,1.2L11.4,19.5z"/>
			<path id="Path_9242" class="st53" d="M24.3,38.2C25.4,18.3,23.8,8,19.3,7.3C11.5,10.2,7,19.5,5.8,35.2
				C13.1,39.2,19.3,40.3,24.3,38.2z"/>
			<path id="Path_9243" class="st67" d="M8.3,20.9l7,3.3l-8,1.1C8,22.3,8.3,20.9,8.3,20.9z"/>
			<path id="Path_9244" class="st68" d="M13.7,18.3l3.3-6.6c2.6-3.1,4.6-2.4,5.9,2.1c0.3,3.9-2.1,7.3-7,10.3
				c-5.7-1.2-9.7-2.9-11.9-4.9c0.3-1.1,0.5-1.6,0.5-1.6C7.4,18.2,10.6,18.5,13.7,18.3z"/>
			<path id="Path_9245" class="st56" d="M4.9,18l0.2-1.5l-1.9-0.7c-1.6,0.2-2.6,0.7-3,1.4C0.1,18.4,1.7,18.7,4.9,18z"/>
			<path id="Path_9246" class="st56" d="M4,19.3l0.8-1.3l-1.4-1.4c-1.5-0.5-2.6-0.5-3.3,0C-0.5,17.7,0.8,18.6,4,19.3z"/>
			<path id="Path_9247" class="st53" d="M18.2,0.1c-1.4-0.3-2.8,0.7-3.3,2.4l-0.9-0.2l-0.1,0.6L14.8,3l0,0l0.1,0l0.9,0.2l0,0
				l4.8,1.1C20.9,2.3,19.8,0.4,18.2,0.1z"/>
		</g>
	</g>
	<g id="Group_12412" transform="translate(345.125 259.975)" class="st69">
		<g id="Group_12411" transform="translate(0 0)">
			<path id="Path_9424" class="st70" d="M8.7,53.3L4.9,58l3.7,3.7l4.6-3.9l0.9-0.8l0.8,0.8l3.8,1.6h0.9l0.1,1.2l0.6,5.9h5.2l0.5-5.9
				l0.1-1.2h1.4l4-1.6l0.7-0.3l0.6,0.5l4.5,3.7l3.7-3.7l-3.7-4.4l-0.8-0.9l0.8-0.8l0.2-0.2l1.6-3.8v-1l1.2-0.1l5.5-0.5V41l-5.5-0.5
				l-1.2-0.1V39l-1.6-3.8l0,0l-0.8-0.8l0.8-0.9l3.4-4.2l-3.7-3.7L33.3,29l-0.9,0.8l-0.8-0.8l0,0l-3.8-1.6h-1.4l-0.1-1.2l-0.5-5.5
				h-5.2l-0.5,5.5l-0.1,1.2h-1l-3.9,1.6l-0.2,0.2l-0.8,0.8L13,29.1l-4.4-3.6l-3.7,3.7l3.7,4.4l0.5,0.6l-0.3,0.7l-1.7,4v1.4l-1.2,0.1
				L0,41v5.2l5.9,0.5l0.8,0.1L7,47.5l1.7,4.1l0.8,0.8L8.7,53.3L8.7,53.3z M15.9,51.3c-4.3-4.3-4.3-11.3,0-15.6
				c4.3-4.3,11.3-4.3,15.6,0c4.3,4.3,4.3,11.3,0,15.6c-2.1,2.1-4.9,3.2-7.8,3.2C20.8,54.5,18,53.3,15.9,51.3L15.9,51.3z"/>
			<path id="Path_9425" class="st70" d="M38.3,19.3l-3.7,2.2l1.6,3.4l4.1-1.5l0.8-0.3l0.4,0.8l2.2,2l0.6,0.2L44,26.8L43,31l3.5,1.2
				l1.8-3.9l0.4-0.8l0.8,0.3l0.1,0.1l3.1-0.1l0.5,0l0.3,0.5l2.1,3.5l3.4-1.6l-1.4-3.8l-0.3-0.8l0.8-0.4l0.2-0.1l2-2.2l0.2-0.7
				l0.8,0.2l3.8,1l1.2-3.5l-3.6-1.6L62,17.9l0.3-0.8l0.1-0.2l-0.1-3l0,0l-0.4-0.8l0.7-0.4l3.3-2l-1.6-3.4l-3.6,1.3L59.9,9l-0.4-0.8
				l0,0l-2.2-2l-0.2-0.1l-0.8-0.3l0.2-0.8l1-3.8L54,0l-1.6,3.6L52,4.3l-0.7-0.2l-3,0.1l-0.2,0.1l-0.8,0.4L47,4l-2.1-3.5l-3.4,1.6
				l1.4,3.9l0.2,0.5l-0.4,0.4l-2.1,2.3l-0.1,0.2l-0.3,0.8l-0.8-0.2l-4.1-1l-1.2,3.5l3.9,1.8l0.5,0.2l0,0.6l0.1,3.1l0.4,0.7
				L38.3,19.3L38.3,19.3z M43.6,19.6c-1.9-3.9-0.2-8.6,3.7-10.5c3.9-1.9,8.6-0.2,10.5,3.7s0.2,8.6-3.7,10.5c-1.9,0.9-4,1-6,0.3
				C46.1,22.9,44.5,21.5,43.6,19.6z"/>
			<path id="Path_9426" class="st70" d="M47.2,47.1l-4.1,0.1l-0.2,3.5l4,0.6l0.8,0.1l0,0.8l0.9,2.6l0.4,0.5l-0.5,0.6l-2.7,2.9
				l2.3,2.6l3.2-2.4l0.6-0.5l0.5,0.6l0.1,0.1l2.6,1.3l0.5,0.2l0,0.5l0.1,3.9l3.5,0.2l0.6-3.8l0.1-0.8l0.8,0l0.2,0l2.6-0.9l0.5-0.4
				l0.6,0.5l2.7,2.5l2.6-2.3l-2.2-3l-0.5-0.6l0.6-0.5l0.1-0.1l1.2-2.5v0l0-0.8l0.8,0l3.6-0.1l0.2-3.5l-3.6-0.5l-0.8-0.1l0-0.8v0
				l-0.9-2.6l-0.1-0.1l-0.5-0.6l0.5-0.6l2.5-2.7l-2.3-2.6l-3,2.2l-0.6,0.5l-0.4-0.5l-2.5-1.3l-0.2,0l-0.8,0l0-0.8l-0.1-3.8l-3.5-0.2
				L57,38.3L57,38.8L56.5,39l-2.7,0.9L53.6,40L53,40.5L52.5,40l-2.9-2.7l-2.6,2.3l2.4,3.2l0.3,0.4l-0.2,0.5l-1.3,2.6l0,0.8
				L47.2,47.1L47.2,47.1z M51.4,49.8c0.3-4.1,3.7-7.1,7.8-6.9c4.1,0.3,7.1,3.7,6.9,7.8s-3.7,7.1-7.8,6.9c-2-0.1-3.8-1-5.1-2.5
				C52,53.6,51.3,51.7,51.4,49.8L51.4,49.8z"/>
		</g>
	</g>
	<g id="Group_12413" transform="translate(370.151 293.221)">
		<g id="Group_12383" transform="translate(0 4.021)">
			<path id="Path_9248" class="st71" d="M19.7,29.8c-4.6-0.1-7.8-0.2-7.8-0.2c0.5,10.6,1.8,21.2,4,31.7c1.5,0,0.9,0.1,0.9,0.1
				C17.4,51.3,19.5,36.7,19.7,29.8z"/>
			<path id="Path_9249" class="st71" d="M6,29.8h7c-0.2,7.8-1.9,23-4,31.7c-1.5,0-1,0.1-1,0.1C7.5,51.9,6.2,36.5,6,29.8z"/>
			<path id="Path_9250" class="st72" d="M10,3.7c2-0.2,3.9-0.2,5.9,0c6.5,0.8,3.7,6.9,3.8,26.3L6,30C6,10.9,2.5,4.3,10,3.7z"/>
			<path id="Path_9251" class="st73" d="M11.1,4.3c0,1,0.1,2.8,1.1,3.3c1.1,0.7,2.3-2.1,2.4-2.9c0.2-1,0-0.3-1.2,0
				c-0.7,0.3-1.5,0.1-2.1-0.4l-0.1-0.2l-0.1-0.1L11.1,4.3z"/>
			<path id="Path_9252" class="st74" d="M10.4,0c-0.4,0-0.6,0.8,0.3,1.3c-0.2,2.4,0.4,3.8,1.9,4.2C14,5.6,15,4.5,15.4,2.2
				c0.7-1,0.8-1.6,0.5-1.6c-1,1.4-2.9,1.8-4.3,0.8C11.1,1,10.7,0.6,10.4,0L10.4,0z"/>
			<path id="Path_9253" class="st74" d="M5.5,19.8c0-0.9,0.1-1.3,0.1-1.3c0.4-0.6,1.2-0.8,1.8-0.5C7.2,20.2,6.6,20.8,5.5,19.8z"/>
			<path id="Path_9254" class="st75" d="M6.2,20.7C7.1,18.2,7.6,17,7.6,17l9.2-0.1l-0.7,3.9L6.2,20.7z"/>
			<path id="Path_9255" class="st74" d="M16.7,18.8v-1.1c-1.8-0.9-3.2-0.7-4.2,0.4C14,19.7,15.4,19.9,16.7,18.8z"/>
			<path id="Path_9256" class="st76" d="M5.9,11.5c0.5-2,0.6-4.2,0.2-6.2c-9.2,8.9-6.7,17.8-0.3,15.3c0.3-1.8,0.4-2.7,0.4-2.7
				C3.5,18.6,2,15.8,5.9,11.5z"/>
			<path id="Path_9257" class="st77" d="M9.2,61.5c-0.7,0-1.2,0-1.2,0C7.6,61.7,7.3,62,7,62.4c0.2,0.3,0.9,0.4,2.1,0
				C9.3,62.3,9.5,62,9.2,61.5z"/>
			<path id="Path_9258" class="st78" d="M11,0.9c-0.1,0.4-0.2,0.7-0.5-0.6l0-0.1C10.7,0.4,10.8,0.7,11,0.9L11,0.9z M15.7,0.8
				c0,0.3-0.1,0.6-0.3,0.8c-0.2-0.1-0.3-0.1-0.5-0.1C15.2,1.3,15.5,1.1,15.7,0.8L15.7,0.8z"/>
			<path id="Path_9259" class="st77" d="M15.9,61.3c0.3,0,0.6,0,0.9,0.1c0.4,0.2,0.8,0.5,1.1,0.9c-0.2,0.3-1,0.3-2.1,0
				C15.6,62.1,15.6,61.8,15.9,61.3z"/>
			<path id="Path_9260" class="st76" d="M19.9,10.3c-0.6-2.5-0.6-5.5-0.7-4.9c8.7,5.9,8.1,17.7-3,14.3c0.2-1.1-0.1-1.9,0.5-2
				C20.6,17.7,24.5,16.4,19.9,10.3z"/>
		</g>
		<path id="Path_9261" class="st53" d="M13.3,6.3c1.7,0,3.2-1.4,3.2-3.1c0-1.7-1.4-3.2-3.1-3.2c-1.7,0-3.2,1.4-3.2,3.1c0,0,0,0,0,0
			C10.2,4.9,11.6,6.3,13.3,6.3z"/>
	</g>
</g>
</svg>
