<svg width="120" height="120" viewBox="0 0 120 120" fill="none" xmlns="http://www.w3.org/2000/svg">
  <path d="M101.015 60.4505C101.015 56.914 99.0539 53.6903 96.0115 52.0318C96.1699 51.1373 96.2497 50.2308 96.2497 49.3225C96.2497 43.0867 92.6242 37.5736 86.9558 35.0929C83.9377 28.7687 77.5559 24.719 70.5113 24.719C66.8727 24.719 63.4164 25.7675 60.4288 27.7649C58.4906 25.9853 55.961 24.9891 53.287 24.9891C49.0324 24.9891 45.2362 27.543 43.5825 31.3582C42.6285 31.2058 41.6643 31.1286 40.7015 31.1286C36.8682 31.1286 33.2004 32.3056 30.0953 34.5327C29.359 35.0608 29.1901 36.0858 29.7182 36.8222C30.2464 37.5585 31.2715 37.7276 32.0074 37.1993C34.5519 35.3745 37.5581 34.41 40.7015 34.41C41.8979 34.41 43.0973 34.5553 44.2669 34.8416C45.1341 35.0538 46.0108 34.5343 46.2418 33.6724C47.0938 30.4918 49.9909 28.2706 53.2873 28.2706C55.4946 28.2706 57.5603 29.2558 58.9542 30.9737C59.5201 31.6713 60.5425 31.7835 61.2469 31.2259C63.9101 29.1158 67.1137 28.0004 70.5115 28.0004C76.4735 28.0004 81.8565 31.5385 84.2256 37.0138C84.3999 37.4169 84.7287 37.733 85.1382 37.892C89.8951 39.7363 92.9687 44.2229 92.9687 49.3228C92.9687 50.4091 92.8237 51.4934 92.5378 52.5456C92.3134 53.3707 92.7609 54.2302 93.5657 54.5196C96.0592 55.4165 97.7344 57.7999 97.7344 60.4505C97.7344 62.5787 96.6697 64.5488 94.8863 65.7208C94.5181 65.9626 94.2628 66.3423 94.1775 66.7743C94.0922 67.2064 94.1845 67.6548 94.4333 68.0184C95.9433 70.2253 96.7415 72.809 96.7415 75.4908C96.7415 76.0893 96.7012 76.6915 96.6218 77.2808C96.5009 78.1788 97.1306 79.005 98.0286 79.126C98.103 79.1361 98.1767 79.1409 98.2498 79.1409C99.0585 79.1409 99.7626 78.5428 99.8735 77.7192C99.9726 76.9853 100.023 76.2354 100.023 75.4908C100.023 72.662 99.3103 69.9195 97.951 67.4745C99.8926 65.676 101.015 63.147 101.015 60.4505Z" fill="#00AFA5"/>
  <path d="M96.3259 83.2209C95.6062 82.6708 94.5766 82.8084 94.0262 83.5283C91.4944 86.8417 87.6539 88.7422 83.4895 88.7422C82.0346 88.7422 80.5972 88.5039 79.2178 88.0345C78.6642 87.8457 78.0521 87.9665 77.6113 88.3506C75.3799 90.2951 72.5221 91.3658 69.5648 91.3658C66.7789 91.3658 64.1515 90.4519 61.9666 88.7229C61.6044 88.4361 61.1384 88.3163 60.6819 88.3904C60.226 88.4657 59.8229 88.7295 59.5715 89.1171C58.4023 90.9218 56.424 91.9993 54.2796 91.9993C51.7845 91.9993 49.5207 90.5228 48.5122 88.2375C48.1528 87.4227 47.2089 87.0438 46.3862 87.3829C44.5778 88.1279 42.6653 88.5057 40.7012 88.5057C32.4648 88.5057 25.7639 81.8048 25.7639 73.5684C25.7639 71.9042 26.0397 70.2625 26.5835 68.6888C26.8386 67.951 26.5383 67.1355 25.8656 66.7393C23.6451 65.4314 22.2657 63.0215 22.2657 60.4503C22.2657 58.0314 23.4624 55.7743 25.4668 54.4119C26.026 54.0322 26.2948 53.3484 26.1441 52.6895C25.8919 51.5857 25.7639 50.4611 25.7639 49.3468C25.7639 46.8981 26.3368 44.5654 27.4666 42.4136C27.8879 41.6114 27.5791 40.6196 26.7769 40.1983C25.9745 39.7772 24.983 40.0859 24.5616 40.8882C23.2017 43.4782 22.4829 46.4031 22.4829 49.3468C22.4829 50.3539 22.5682 51.3667 22.7373 52.3701C20.3698 54.3699 18.9849 57.316 18.9849 60.4501C18.9849 63.7363 20.5382 66.8406 23.1102 68.8281C22.6935 70.3725 22.4829 71.9617 22.4829 73.5682C22.4829 83.614 30.6556 91.7867 40.7014 91.7867C42.5999 91.7867 44.4595 91.4971 46.248 90.9242C47.9977 93.6113 51.0079 95.2806 54.2798 95.2806C56.9643 95.2806 59.477 94.1713 61.2727 92.2498C63.7499 93.8228 66.5859 94.6471 69.5651 94.6471C73.004 94.6471 76.336 93.5054 79.047 91.4151C80.4935 91.8191 81.9841 92.0234 83.49 92.0234C88.6853 92.0234 93.4761 89.6533 96.6339 85.5204C97.1836 84.8007 97.0461 83.7711 96.3259 83.2209Z" fill="#00AFA5"/>
  <path d="M42.9434 47.1476C43.1407 47.1476 43.3413 47.167 43.5395 47.2053C44.3626 47.3648 45.1742 46.877 45.4198 46.0746C45.8212 44.7623 47.0145 43.8807 48.3885 43.8807C49.0931 43.8807 49.7566 44.1104 50.3078 44.5449C51.0192 45.1057 52.051 44.9839 52.6119 44.2723C53.1728 43.5607 53.0507 42.5291 52.3391 41.9682C51.2196 41.0856 49.8165 40.5995 48.3883 40.5995C46.0232 40.5995 43.9188 41.8702 42.8108 43.8676C39.3506 43.9385 36.5576 46.7752 36.5576 50.2521C36.5576 51.3823 36.8575 52.4938 37.4245 53.4662C37.7295 53.989 38.2787 54.2803 38.8431 54.2803C39.1238 54.2803 39.4084 54.2084 39.6682 54.0568C40.4509 53.6002 40.7154 52.5955 40.2589 51.8128C39.9841 51.3419 39.8389 50.802 39.8389 50.2521C39.8389 48.5401 41.2317 47.1476 42.9434 47.1476Z" fill="#00AFA5"/>
  <path d="M79.2359 77.9864C78.2585 77.9864 77.3059 77.7112 76.4809 77.1908C75.9463 76.8533 75.2647 76.8533 74.7301 77.1908C73.9052 77.7112 72.9525 77.9864 71.9751 77.9864C69.7314 77.9864 67.7552 76.5551 67.0576 74.4249C66.7754 73.5639 65.849 73.0945 64.9878 73.3767C64.1266 73.6587 63.6574 74.5853 63.9394 75.4465C65.0799 78.9283 68.3093 81.2677 71.9751 81.2677C73.2378 81.2677 74.4757 80.9866 75.6055 80.4484C76.7354 80.9866 77.973 81.2677 79.2359 81.2677C83.8977 81.2677 87.6904 77.475 87.6904 72.8132C87.6904 71.2828 87.2894 69.8192 86.5229 68.5248C86.9967 67.4532 87.2437 66.289 87.2437 65.1055C87.2437 62.684 86.2024 60.3746 84.3868 58.7694C83.7078 58.1692 82.6714 58.2335 82.0709 58.9118C81.4709 59.5908 81.5345 60.6275 82.2133 61.2277C83.3248 62.2102 83.9622 63.6237 83.9622 65.1055C83.9622 66.0536 83.7039 66.9802 83.2152 67.7854C82.8621 68.3671 82.9048 69.1063 83.3224 69.6435C84.0333 70.5583 84.4091 71.654 84.4091 72.813C84.4091 75.6655 82.0886 77.9864 79.2359 77.9864Z" fill="#00AFA5"/>
  <path d="M35.6903 70.7849C34.8978 70.3454 33.8992 70.6322 33.4602 71.4245C31.6719 74.6509 32.8418 78.7303 36.0677 80.5184C37.0846 81.0821 38.2016 81.3599 39.3135 81.3599C40.7778 81.3599 42.2331 80.8782 43.4389 79.9335C44.1522 79.3745 44.2774 78.3434 43.7187 77.6302C43.1598 76.9167 42.1286 76.7915 41.4155 77.3505C40.3342 78.1975 38.8598 78.3145 37.6584 77.6486C36.8622 77.2072 36.2855 76.4822 36.0346 75.607C35.7837 74.732 35.8885 73.8115 36.33 73.015C36.7692 72.2225 36.4829 71.2241 35.6903 70.7849Z" fill="#00AFA5"/>
  <path d="M14.2297 23.1485C14.6178 23.217 15.0036 23.25 15.3847 23.25C17.9854 23.2498 20.3479 21.7104 21.4161 19.3713C23.0952 19.6163 24.7778 19.2184 26.1741 18.2406C27.6255 17.2243 28.5942 15.7038 28.9017 13.9592C29.2093 12.2143 28.8192 10.4544 27.8029 9.00302C26.7866 7.55162 25.2663 6.58299 23.5216 6.27521C22.8832 6.16234 22.2456 6.14309 21.6158 6.21593C20.631 5.11387 19.2975 4.36202 17.8218 4.10193C14.2201 3.46493 10.7732 5.88037 10.138 9.48231C9.96539 10.4608 10.0129 11.4471 10.2725 12.3877C9.5443 13.2678 9.04992 14.3285 8.84955 15.4647C8.54199 17.2097 8.93202 18.9695 9.94833 20.4209C10.9646 21.8723 12.485 22.8409 14.2297 23.1485ZM12.0809 16.0347C12.2174 15.2606 12.6239 14.5562 13.2254 14.0516C13.8001 13.5694 13.9744 12.759 13.6491 12.0832C13.3438 11.4489 13.2471 10.7465 13.3694 10.0521C13.6557 8.42815 15.0734 7.28212 16.6683 7.28212C16.8608 7.28212 17.0557 7.29896 17.2517 7.3333C18.1961 7.49999 19.0256 8.06568 19.5278 8.88556C19.9176 9.52212 20.6874 9.81502 21.4025 9.5989C21.9081 9.44599 22.4293 9.41515 22.9515 9.50681C23.8331 9.66234 24.6013 10.1517 25.1149 10.8851C25.6286 11.6186 25.8257 12.5078 25.6701 13.3894C25.5148 14.271 25.0252 15.0394 24.292 15.5531C23.5587 16.0662 22.6695 16.2633 21.788 16.1082C21.5121 16.0595 21.2435 15.9768 20.9895 15.8626C20.5221 15.6522 19.9822 15.6723 19.5316 15.9177C19.0809 16.1634 18.771 16.6057 18.6944 17.113L18.6819 17.1985C18.3612 19.0187 16.6202 20.238 14.7993 19.9173C13.9178 19.7618 13.1495 19.2725 12.6359 18.539C12.1223 17.8055 11.9254 16.9163 12.0809 16.0347Z" fill="#00AFA5"/>
  <path d="M40.2366 110.122C39.4668 109.644 38.4553 109.88 37.9769 110.649C37.1712 111.945 35.7808 112.718 34.2579 112.718C32.7188 112.718 31.321 111.932 30.5186 110.616C30.138 109.991 29.3892 109.695 28.6839 109.887C28.4492 109.952 28.2162 109.984 27.9914 109.984C26.5446 109.984 25.3675 108.807 25.3675 107.361C25.3675 105.914 26.5446 104.737 27.9914 104.737C28.5015 104.737 28.9974 104.885 29.4255 105.166C30.0386 105.568 30.8443 105.514 31.3988 105.034C32.1931 104.347 33.2086 103.968 34.2581 103.968C35.498 103.968 36.6847 104.498 37.514 105.421C38.1195 106.096 39.1566 106.151 39.8308 105.545C40.505 104.94 40.5605 103.902 39.955 103.228C38.5045 101.613 36.4279 100.687 34.2581 100.687C32.8034 100.687 31.3864 101.102 30.169 101.872C29.4797 101.598 28.7426 101.455 27.9916 101.455C24.7355 101.455 22.0864 104.105 22.0864 107.361C22.0864 110.617 24.7355 113.266 27.9916 113.266C28.1206 113.266 28.2501 113.261 28.3799 113.252C29.8238 114.99 31.9499 116 34.2581 116C36.9229 116 39.355 114.647 40.7635 112.382C41.2417 111.612 41.0059 110.601 40.2366 110.122Z" fill="#00AFA5"/>
  <path d="M102.181 23.164C102.307 23.164 102.434 23.1597 102.56 23.1511C103.994 24.8742 106.104 25.875 108.395 25.875C112.588 25.875 116 22.4632 116 18.2695C116 14.4838 113.22 11.3356 109.595 10.7587C108.687 8.81403 106.705 7.5 104.491 7.5C101.626 7.5 99.254 9.65185 98.9067 12.4243C97.303 13.5012 96.3125 15.3155 96.3125 17.2952C96.3123 20.5314 98.9452 23.164 102.181 23.164ZM101.164 14.9158C101.806 14.6409 102.203 13.9897 102.154 13.2932L102.151 13.2531C102.148 13.2116 102.144 13.1702 102.144 13.128C102.144 11.8341 103.196 10.7813 104.49 10.7813C105.594 10.7813 106.56 11.5639 106.786 12.6422C106.945 13.4021 107.615 13.9459 108.391 13.9459C108.399 13.9459 108.407 13.9459 108.414 13.9457C110.789 13.9566 112.718 15.8919 112.718 18.2697C112.718 20.6539 110.778 22.594 108.394 22.594C106.873 22.594 105.491 21.817 104.698 20.5159C104.395 20.0186 103.859 19.7288 103.297 19.7288C103.154 19.7288 103.008 19.7478 102.865 19.7872C102.632 19.8506 102.402 19.883 102.181 19.883C100.754 19.883 99.5929 18.7221 99.5929 17.2954C99.5935 16.2588 100.21 15.3249 101.164 14.9158Z" fill="#00AFA5"/>
  <path d="M49.1225 15.6736C49.3478 16.367 49.9909 16.8078 50.6824 16.8078C50.8504 16.8078 51.0212 16.7818 51.1896 16.7271C52.0513 16.4471 52.5231 15.5216 52.2429 14.6599L50.0123 7.79443C49.7323 6.93255 48.8064 6.46071 47.9451 6.74114C47.0835 7.02114 46.6116 7.94668 46.8919 8.80833L49.1225 15.6736Z" fill="#00AFA5"/>
  <path d="M81.3776 104.326C81.0976 103.464 80.1714 102.993 79.3104 103.273C78.4487 103.553 77.9769 104.479 78.2571 105.34L80.4877 112.206C80.713 112.899 81.3561 113.34 82.0476 113.34C82.2156 113.34 82.3864 113.314 82.5549 113.259C83.4165 112.979 83.8884 112.054 83.6082 111.192L81.3776 104.326Z" fill="#00AFA5"/>
  <path d="M62.2832 14.4866C62.4493 14.5398 62.6175 14.5649 62.7831 14.5649C63.4776 14.5649 64.1227 14.1204 64.3454 13.4233L65.3195 10.3752C65.5953 9.51223 65.1191 8.58889 64.2562 8.31305C63.3934 8.03633 62.4698 8.51298 62.194 9.37617L61.2199 12.4242C60.9441 13.2876 61.4203 14.211 62.2832 14.4866Z" fill="#00AFA5"/>
  <path d="M68.2166 105.513C67.3538 105.237 66.4303 105.713 66.1544 106.576L65.1804 109.624C64.9045 110.487 65.3807 111.411 66.2437 111.687C66.4097 111.74 66.5779 111.765 66.7435 111.765C67.4381 111.765 68.0832 111.32 68.3059 110.623L69.2799 107.575C69.5558 106.712 69.0796 105.789 68.2166 105.513Z" fill="#00AFA5"/>
  <path d="M36.025 19.8939L38.6048 21.7871C38.8972 22.0017 39.2372 22.1054 39.5743 22.1054C40.0789 22.1054 40.5768 21.8731 40.8981 21.4354C41.4343 20.705 41.2766 19.6782 40.5462 19.1422L37.9664 17.2489C37.236 16.7128 36.2092 16.8705 35.6731 17.6007C35.1369 18.3309 35.2946 19.3579 36.025 19.8939Z" fill="#00AFA5"/>
  <path d="M94.4749 100.106L91.8951 98.2127C91.1647 97.6765 90.1379 97.834 89.6018 98.5644C89.0656 99.2948 89.2233 100.322 89.9537 100.858L92.5335 102.751C92.8259 102.965 93.1659 103.069 93.503 103.069C94.0076 103.069 94.5055 102.837 94.8268 102.399C95.3628 101.669 95.2053 100.642 94.4749 100.106Z" fill="#00AFA5"/>
  <path d="M114.074 46.5477L107.025 47.7909C106.132 47.9482 105.536 48.7991 105.694 49.6914C105.834 50.4874 106.526 51.0472 107.307 51.0472C107.402 51.0472 107.498 51.0391 107.594 51.0221L114.644 49.7789C115.536 49.6216 116.132 48.7707 115.974 47.8784C115.817 46.9861 114.966 46.3889 114.074 46.5477Z" fill="#00AFA5"/>
  <path d="M14.306 65.496C14.1487 64.6039 13.2984 64.0068 12.4055 64.1654L5.35606 65.4085C4.46356 65.5658 3.86791 66.4167 4.02519 67.309C4.16562 68.105 4.85775 68.6648 5.63891 68.6648C5.73341 68.6648 5.82944 68.6567 5.92569 68.6397L12.9751 67.3965C13.8676 67.2394 14.4633 66.3883 14.306 65.496Z" fill="#00AFA5"/>
  <path d="M107.001 34.3221C106.352 33.6894 105.313 33.7028 104.681 34.3514L102.466 36.6231C101.833 37.2719 101.847 38.3108 102.495 38.9432C102.814 39.2542 103.228 39.4091 103.64 39.4091C104.067 39.4091 104.494 39.2435 104.815 38.9139L107.03 36.6421C107.663 35.9935 107.65 34.9547 107.001 34.3221Z" fill="#00AFA5"/>
  <path d="M15.185 76.2735L12.9699 78.545C12.3373 79.1939 12.3504 80.2327 12.9992 80.8651C13.3182 81.1762 13.7316 81.331 14.1444 81.331C14.5712 81.331 14.9975 81.1654 15.3191 80.8358L17.5341 78.5641C18.1668 77.9153 18.1536 76.8764 17.5048 76.244C16.8558 75.6116 15.8174 75.6249 15.185 76.2735Z" fill="#00AFA5"/>
  <path d="M111.413 61.4966L108.554 60.1194C107.738 59.7261 106.757 60.0691 106.364 60.8855C105.971 61.7016 106.314 62.6823 107.13 63.0756L109.989 64.4528C110.218 64.5635 110.461 64.6158 110.7 64.6158C111.31 64.6158 111.896 64.2737 112.179 63.6868C112.572 62.8704 112.229 61.89 111.413 61.4966Z" fill="#00AFA5"/>
  <path d="M8.58716 53.6908L11.4458 55.068C11.6755 55.1787 11.9179 55.231 12.1567 55.231C12.7673 55.231 13.3533 54.8889 13.6359 54.302C14.0292 53.4858 13.6862 52.5052 12.8701 52.1119L10.0114 50.7346C9.19485 50.3411 8.21463 50.6843 7.82132 51.5007C7.42779 52.317 7.77079 53.2975 8.58716 53.6908Z" fill="#00AFA5"/>
</svg>
