<svg xmlns="http://www.w3.org/2000/svg" width="554" height="180" viewBox="0 0 554 180">
  <g id="Group_10552" data-name="Group 10552" transform="translate(-683 -260)">
    <g id="Group_9051" data-name="Group 9051" transform="translate(556.601 -68.68)">
      <path id="Path_6940" data-name="Path 6940" d="M441.478,371.875c2.23-.892,4.424-1.764,6.614-2.647,9.023-3.635,18.03-7.312,27.076-10.888,2.957-1.17,6.007-2.108,9.031-3.106,4.458-1.473,8.854-3.24,13.415-4.28,9.46-2.156,19.005-3.445,28.756-1.605,6.582,1.243,12.858,3.147,18.468,6.872,5.881,3.905,9.306,9.184,9.476,16.485.164,7.014-2.342,13.018-6.1,18.718-2.555,3.868-5.063,7.789-7.278,11.857-2.578,4.739-2.641,9.8-1.493,15.051,1.378,6.3,5.517,10.3,10.673,13.347a49.283,49.283,0,0,0,16.766,5.725c1.872.329,3.726.767,5.6,1.09,1.036.179,1.307.746,1.17,1.7-.136.926-.327,1.752-1.561,1.5-2.766-.57-5.543-1.094-8.293-1.735-6.3-1.469-12.411-3.453-17.806-7.188a25.7,25.7,0,0,1-9.093-10.9c-2.008-4.651-1.869-9.7-.65-14.719,1.506-6.193,5.08-11.226,8.593-16.323,2.556-3.709,4.938-7.528,5.777-12.024,1.858-9.965-.454-16.388-10.1-21.545-10.535-5.631-21.895-6.594-33.55-4.961a118.751,118.751,0,0,0-27.06,7.563Q462.061,366.9,444.275,374.1a14.871,14.871,0,0,0-6.014,3.7c-1.165,1.306-3.243,1.869-4.992,2.562A61.626,61.626,0,0,1,426.3,382.7c-1.366.36-1.744.779-1.213,2.15a49.467,49.467,0,0,1,1.63,5.259,8.815,8.815,0,0,1-6.057,10.536c-4.2,1.32-8.317,2.925-12.509,4.283a1.494,1.494,0,0,0-1.223,1.692c-.131,4.333-2.985,6.721-7.282,6.168-.122-.015-.284.022-.363-.043-2.482-2.065-4.791-.29-7.034.454-10.457,3.471-20.873,7.074-31.307,10.616-1.326.449-2.68.821-4.181,1.278-.894-2.433-1.769-4.819-2.709-7.377-3.627,1.2-7.167,2.345-10.694,3.533-2.436.823-4.839,1.746-7.284,2.542-1.8.588-4.438-.923-5.055-2.8-.813-2.47.232-5.094,2.4-5.847,5.379-1.866,10.745-3.777,16.176-5.472,1.456-.454,1.593-1.036,1.192-2.223-1.807-5.33-3.576-10.672-5.461-15.974a1.829,1.829,0,0,0-1.645-.662c-4.956,1.6-9.88,3.3-14.805,5-2.159.744-4.257,1.324-6.115-.69a4.37,4.37,0,0,1,1.324-7.1c3.816-1.5,7.752-2.7,11.635-4.029,2.081-.712,4.16-1.426,6.383-2.187l-2.345-6.923c1.82-.665,3.559-1.343,5.325-1.942q9.645-3.267,19.308-6.489c4.762-1.59,9.55-3.11,14.287-4.773a4.4,4.4,0,0,0,2.172-1.75,5.962,5.962,0,0,1,9.909-.854,1.851,1.851,0,0,0,2.582.695c4.43-1.619,8.919-3.086,13.416-4.512,3.4-1.079,8.181,1.21,9.713,4.668.866,1.953,1.468,4.022,2.207,6.034.162.441.4.855.617,1.317,3.678-1.229,7.188-2.488,10.757-3.549a6.953,6.953,0,0,1,3.976-.282c2.91,1.045,5.456.1,8.006-.9,6.833-2.68,13.582-5.58,20.446-8.176,7.608-2.879,15.247-5.7,22.985-8.2a111.88,111.88,0,0,1,16.4-4.164,94.327,94.327,0,0,1,15.492-.9,60.339,60.339,0,0,1,22.023,3.975c9.476,3.734,17.065,9.622,21.25,19.16a27.942,27.942,0,0,1,1.695,15.766c-1.033,6.721-4.24,12.425-8.059,17.9a57.337,57.337,0,0,0-5.287,8.58c-3.257,7.072-1.523,13.111,6.017,17.412a59.005,59.005,0,0,0,17.561,6.33c.659.134,1.306.338,2.169.565l-.63,3.1c-4.232-1.221-8.423-2.15-12.4-3.657a53.123,53.123,0,0,1-10.476-5.175c-6.521-4.316-9.085-12.711-4.894-19.774,2.7-4.549,5.617-8.968,8.337-13.506,7.892-13.168,7.02-27.54-5.875-37.852-6.646-5.316-14.383-7.861-22.741-9.047a65.224,65.224,0,0,0-18.8-.428,125.737,125.737,0,0,0-17.314,3.521c-8.091,2.4-16.026,5.353-23.945,8.293-5.845,2.17-11.544,4.732-17.334,7.054-2.551,1.022-5.171,1.875-7.752,2.823a7.1,7.1,0,0,0-.951.5Zm-46.438,36.44c-.536-1.639-.979-3.036-1.448-4.425-1.959-5.8-3.945-11.584-5.885-17.386-2.288-6.842-4.521-13.7-6.856-20.527a1.671,1.671,0,0,0-1.466-.707c-1.655.431-3.251,1.082-4.879,1.625-4.81,1.608-9.627,3.19-14.433,4.808s-9.621,3.281-14.44,4.9c-.915.307-1.312.718-.952,1.757,1.777,5.135,3.5,10.288,5.3,15.6l21.046-7.048c1.1,3.116,2.152,5.974,3.078,8.872a1.582,1.582,0,0,1-.71,1.367c-4.621,1.6-9.28,3.078-13.915,4.634-2.042.685-4.052,1.472-6.143,2.24,1.838,5.325,3.607,10.289,5.237,15.3.384,1.179.974,1.062,1.792.786,3.485-1.173,6.964-2.368,10.453-3.538,5.927-1.987,11.863-3.95,17.788-5.949C390.735,409.9,392.84,409.1,395.04,408.315Zm-2.2-44.261c4.251,12.567,8.422,24.9,12.6,37.273a6.852,6.852,0,0,0,1.253-.137c4.132-1.366,8.276-2.7,12.381-4.147,3.677-1.3,4.765-3.84,3.427-7.435-.917-2.465-1.736-4.967-2.575-7.46-2.246-6.673-4.45-13.361-6.733-20.021a4.555,4.555,0,0,0-5.663-2.834C402.745,360.782,397.99,362.378,392.84,364.054Zm-6.018-4.325c-2.82-.018-4.308,2.1-3.57,4.31,2.366,7.089,4.807,14.154,7.2,21.236,1.293,3.825,2.527,7.67,3.822,11.493,1.26,3.715,2.507,7.437,3.873,11.113A2.818,2.818,0,0,0,402,409.67a2.856,2.856,0,0,0,1.769-3.873c-1.547-4.717-3.161-9.411-4.736-14.119-1.96-5.864-3.885-11.74-5.865-17.6-1.412-4.174-2.811-8.355-4.407-12.458C388.407,360.716,387.243,360.123,386.822,359.729Zm50.986,11.97a4.888,4.888,0,0,0-6.231-5.047c-3.4.966-6.731,2.2-10.093,3.308-.891.295-1.295.661-.855,1.752a60.5,60.5,0,0,1,2.38,6.93c.324,1.213.809,1.312,1.8.968,3.24-1.121,6.5-2.179,9.729-3.331A4.637,4.637,0,0,0,437.808,371.7Zm-87.046,24.6a37.613,37.613,0,0,0,1.607,4.055,1.774,1.774,0,0,0,1.608.437c4.5-1.446,8.954-3.035,13.452-4.484,3.7-1.192,3.629-1.105,2.575-4.749-.367-1.27-.82-1.394-1.9-1.029C362.376,392.455,356.637,394.347,350.762,396.3Zm.989,15.475c-1.082.364-2.054.695-3.027,1.019-4.694,1.565-9.4,3.1-14.074,4.712a1.613,1.613,0,0,0-1.155,2.317,1.673,1.673,0,0,0,2.442,1.111q6.742-2.382,13.54-4.607C352.892,415.207,352.908,415.253,351.752,411.774Zm-9.193-27.239c-3.348,1.111-6.524,2.145-9.686,3.223-2.536.864-5.047,1.8-7.585,2.664a1.518,1.518,0,0,0-.979,2.21,1.691,1.691,0,0,0,2.317,1.176c5.371-1.828,10.763-3.6,16.128-5.447.357-.122.847-.738.787-1.023A20.452,20.452,0,0,0,342.558,384.535Z" transform="translate(105.679 6.76)" fill="#00af9c"/>
      <path id="Path_6941" data-name="Path 6941" d="M306.888,444.326c-3.047,1.068-5.722,2.2-8.506,2.909a28.127,28.127,0,0,1-5.458.332,8.857,8.857,0,0,0-2.908.2c-11.053,4.76-22.637,6.2-34.509,5.3-8.263-.628-16.051-2.828-22.364-8.71-6.441-6-8.792-13.35-7.563-21.971,1.047-7.343,4.215-13.909,7.418-20.47,2.017-4.135,3.958-8.327,4.356-12.989.5-5.8-2.07-10.229-6.677-13.492a35.754,35.754,0,0,0-14.4-5.725,38.131,38.131,0,0,0-13.237-.533,104.137,104.137,0,0,0-12.986,2.616,146.705,146.705,0,0,0-23.534,9.767c-9.862,4.936-19.732,9.857-29.651,14.68a66.635,66.635,0,0,1-6.881,2.518c-.974.347-2.017.62-2.456-.684-.448-1.338.517-1.82,1.564-2.246,3.788-1.539,7.633-2.964,11.322-4.714,6.392-3.031,12.671-6.3,19.016-9.425,7.324-3.61,14.654-7.16,22.234-10.272a75.9,75.9,0,0,1,15.854-4.594,71.846,71.846,0,0,1,16.388-.577,37.055,37.055,0,0,1,17.27,5.74c4.333,2.664,7.707,6.322,8.772,11.3a19.325,19.325,0,0,1-.235,9.466c-1.741,5.515-4.359,10.754-6.629,16.1-2.673,6.3-5.237,12.632-4.666,19.678.54,6.688,4.016,11.7,9.315,15.54a31.956,31.956,0,0,0,18.692,5.791,105.528,105.528,0,0,0,16.585-.613c5.047-.719,9.934-2.575,14.886-3.953.272-.076.488-.357.7-.522.015-.173.074-.315.028-.4-1.581-3-1.567-2.945-4.907-2a66.7,66.7,0,0,1-22.983,2.859c-6.545-.468-13.086-1.354-18.853-4.967-7.741-4.85-10.761-12.875-7.623-21.464,1.823-4.989,4.274-9.749,6.48-14.6,2.454-5.388,4.53-10.911,4.882-16.871.471-7.977-2.987-14.123-9.465-18.578a49.29,49.29,0,0,0-19.387-7.988c-7.883-1.432-15.533-.678-23.244,1.08-11.535,2.63-22.091,7.657-32.508,13-8.38,4.3-16.571,8.962-24.908,13.345a47.826,47.826,0,0,1-7.292,2.93,2.462,2.462,0,0,1-2.224-.759c-.559-.928.116-1.707,1.172-2.051,7.941-2.587,14.824-7.276,22.106-11.17,10.175-5.443,20.4-10.8,31.229-14.838,10.342-3.857,21-6.31,32.141-5.141,11.263,1.181,21.453,5.015,29.5,13.3,5.589,5.751,6.722,12.89,5.532,20.555-1.116,7.188-4.342,13.588-7.384,20.083a74.606,74.606,0,0,0-4.425,11.6c-1.514,5.463,1.6,11.587,6.907,14.843,5.148,3.156,10.911,4.109,16.744,4.529a68.271,68.271,0,0,0,25.465-3.451c.712-.224,1.7-.7,1.889-1.272,1.27-3.948,4.567-5.188,8-6.316,1.571-.516,3.126-1.091,4.712-1.559,1.289-.38,1.286-1.025.968-2.224a20.321,20.321,0,0,1-1.042-6.43c.244-3.417,2.675-5.354,5.79-6.429q5.726-1.973,11.47-3.9a2.691,2.691,0,0,0,1.9-2.166,10.153,10.153,0,0,1,6.208-7.262c7.457-2.766,15.014-5.262,22.512-7.915,1.76-.624,3.451-1.082,4.313-3.326,1.062-2.766,3.786-3.424,6.6-3.248,1.982.125,3.831,2.071,4.64,4.482,2.064,6.151,4.206,12.276,6.322,18.41q3.559,10.324,7.126,20.646c.778,2.257,1.6,4.5,2.308,6.779a4.708,4.708,0,0,1-1.621,5.472c-1.855,1.374-4.087,2.811-6.43,1.314-2.149-1.374-3.979-.7-5.994,0-7.165,2.507-14.321,5.041-21.528,7.42a11.407,11.407,0,0,1-10.36-1.65,3.473,3.473,0,0,0-2.639-.3c-4.144,1.306-8.207,2.868-12.354,4.164a8.086,8.086,0,0,1-10.264-5.654C307.774,446.561,307.32,445.5,306.888,444.326Zm34.007,3.842c.918-.259,2.414-.6,3.857-1.1,6.835-2.36,13.637-4.814,20.492-7.111,1.5-.5,1.94-.917,1.331-2.562-2.172-5.856-4.169-11.777-6.2-17.684-2.647-7.687-5.245-15.392-7.948-23.059-.145-.407-1.051-.681-1.636-.755-.42-.052-.886.354-1.346.514-7.444,2.6-14.921,5.12-22.312,7.872a8.276,8.276,0,0,0-3.508,3.011c-1.953,2.784-1.331,5.71-.23,8.763,3.189,8.861,6.137,17.808,9.235,26.7C333.736,445.936,336.953,448.121,340.9,448.168Zm-24.877,1.949a1.99,1.99,0,0,0,.482-.048c4.186-1.38,8.378-2.746,12.535-4.209.258-.09.463-1.031.32-1.451-3.254-9.544-6.65-19.041-9.786-28.623-.656-2.007-1.508-1.9-2.985-1.36-2.931,1.068-5.845,2.192-8.823,3.112-3.951,1.219-5.141,3.521-3.768,7.406q3.76,10.629,7.4,21.3C312.241,448.722,313.76,450.072,316.018,450.117Zm56.561-9.068c3.061-.037,4.472-1.635,3.782-3.681-2.206-6.56-4.482-13.1-6.739-19.64q-2.422-7.025-4.865-14.04c-1.473-4.214-2.945-8.429-4.478-12.623-.514-1.4-2.187-1.9-3.947-1.207a2.243,2.243,0,0,0-1.534,3.064c.917,2.663,1.875,5.31,2.811,7.966q2.957,8.4,5.909,16.8c2.576,7.341,5.118,14.694,7.759,22.012C371.52,440.375,372.363,440.834,372.579,441.049Zm-70.107-9.621c-3.084,1.036-5.793,1.979-8.522,2.856a5.632,5.632,0,0,0-3.728,7.44c.847,2.7,4.171,4.146,7.134,3.1,2.542-.894,5.1-1.76,7.607-2.735.381-.148.883-.929.781-1.241C304.73,437.718,303.6,434.622,302.472,431.428Z" transform="translate(0 20.386)" fill="#00af9c"/>
      <path id="Path_6942" data-name="Path 6942" d="M307.7,334.317q-.887,13.461-1.775,26.922c-.071,1.048-.494,1.789-1.715,1.665-1.408-.142-1.394-1.2-1.331-2.2.414-6.579.861-13.155,1.29-19.732.221-3.379.406-6.761.644-10.138.076-1.079.313-2.309,1.707-2.139,1.34.162,1.341,1.375,1.26,2.476-.077,1.045-.114,2.093-.168,3.139Z" transform="translate(95.733 0)" fill="#00af9c"/>
      <path id="Path_6943" data-name="Path 6943" d="M324.42,416.825c.295.29,1,.688,1.258,1.28,3.072,6.924,6.075,13.878,9.1,20.819.806,1.845,1.747,3.638,2.4,5.534.208.613-.324,1.477-.517,2.227-.742-.34-1.891-.485-2.161-1.051-2.187-4.575-4.222-9.224-6.279-13.861-1.783-4.022-3.524-8.062-5.3-12.086C322.185,418.033,322.653,416.778,324.42,416.825Z" transform="translate(106.429 56.576)" fill="#00af9c"/>
      <path id="Path_6944" data-name="Path 6944" d="M297.155,362.559c-.321.44-.61,1.233-1.014,1.3a2.353,2.353,0,0,1-1.883-.563c-2.5-2.93-4.9-5.941-7.309-8.943-3.292-4.1-6.558-8.218-9.854-12.313-.695-.863-1.4-1.781-.34-2.709,1.156-1.011,2.045-.113,2.763.773q8.434,10.4,16.827,20.825A8.988,8.988,0,0,1,297.155,362.559Z" transform="translate(81.271 5.545)" fill="#00af9c"/>
      <path id="Path_6945" data-name="Path 6945" d="M285.477,371.291c-1.823-.6-3.346-1.039-4.831-1.587-6.873-2.542-13.75-5.078-20.577-7.738a2.479,2.479,0,0,1-1.113-2.061c.136-1.091,1.107-1.272,2.158-.883,7.955,2.95,15.932,5.845,23.858,8.874.716.273,1.238,1.309,1.6,2.1C286.669,370.223,285.862,370.854,285.477,371.291Z" transform="translate(71.904 18.929)" fill="#00af9c"/>
      <path id="Path_6946" data-name="Path 6946" d="M305.992,438.216c.258-5.115.525-10.229.766-15.344.054-1.165.071-2.431,1.655-2.309,1.386.107,1.437,1.286,1.389,2.394q-.535,12.116-1.063,24.23a3.7,3.7,0,0,1-.195,1.633c-.329.543-1.088,1.349-1.428,1.249-.582-.171-1.383-.951-1.392-1.488-.048-2.65.13-5.3.238-7.955.034-.8.1-1.6.156-2.4Z" transform="translate(97.281 58.603)" fill="#00af9c"/>
      <path id="Path_6947" data-name="Path 6947" d="M359.4,420.738c-1.533-.745-2.812-1.332-4.059-1.983-6.336-3.3-12.682-6.594-18.962-10a2.43,2.43,0,0,1-.841-2.113c.207-.934,1.077-1.142,2.065-.627,7.36,3.842,14.75,7.625,22.085,11.513a2.836,2.836,0,0,1,1.185,1.962C360.917,419.846,359.918,420.324,359.4,420.738Z" transform="translate(113.437 48.478)" fill="#00af9c"/>
      <path id="Path_6948" data-name="Path 6948" d="M299.072,419.948a12.791,12.791,0,0,1-.738,1.655q-6.4,10.041-12.844,20.06c-1,1.548-2.241,1.7-2.939.3a2.174,2.174,0,0,1,.253-1.77c3.249-5.175,6.555-10.315,9.852-15.461,1.182-1.844,2.329-3.715,3.623-5.481a2.02,2.02,0,0,1,1.7-.57C298.4,418.76,298.706,419.491,299.072,419.948Z" transform="translate(84.656 57.571)" fill="#00af9c"/>
      <path id="Path_6949" data-name="Path 6949" d="M342.023,343.019a10.458,10.458,0,0,1-.923,1.494q-7.981,8.833-16,17.632c-.783.86-1.721,1.267-2.726.361-.972-.875-.378-1.585.3-2.332,5.387-5.918,10.735-11.87,16.155-17.757a2.914,2.914,0,0,1,2.019-.727C341.223,341.7,341.581,342.491,342.023,343.019Z" transform="translate(106.034 7.071)" fill="#00af9c"/>
      <path id="Path_6950" data-name="Path 6950" d="M358.983,361.226l.858.574c-.255.375-.434.971-.776,1.088-4.5,1.55-9.031,3.033-13.554,4.529-1.159.383-2.306.829-3.493,1.1a4.443,4.443,0,0,1-1.605-.272c.374-.406.671-1.008,1.131-1.184,2.516-.957,5.064-1.829,7.616-2.689,2.894-.977,5.805-1.911,8.71-2.857C358.162,361.417,358.465,361.359,358.983,361.226Z" transform="translate(116.098 20.344)" fill="#00af9c"/>
      <path id="Path_6951" data-name="Path 6951" d="M353.994,361.134c1.578-.486,2.752-.88,3.947-1.192a.878.878,0,0,1,.761.341,1.01,1.01,0,0,1-.031.866C358.186,361.976,355.278,362.232,353.994,361.134Z" transform="translate(123.472 19.454)" fill="#00af9c"/>
      <path id="Path_6952" data-name="Path 6952" d="M381.959,377.38c-.585-1.417-1.244-2.809-1.743-4.257-1.346-3.924-2.661-7.86-3.888-11.82a5.157,5.157,0,0,1,.269-2.03c.426.472,1.048.874,1.249,1.428q2.672,7.409,5.179,14.877c.167.5-.2,1.167-.316,1.757Z" transform="translate(135.559 19.299)" fill="#00af9c"/>
      <path id="Path_6953" data-name="Path 6953" d="M373.594,360.161c.492.5,1.233.912,1.442,1.51,1.684,4.857,3.269,9.747,4.885,14.628.039.117.131.244.111.349-.094.492-.219.979-.332,1.466-.423-.3-1.085-.523-1.232-.928-1.493-4.143-2.913-8.313-4.328-12.484-.457-1.349-.841-2.723-1.258-4.086Z" transform="translate(133.718 19.856)" fill="#00af9c"/>
      <path id="Path_6954" data-name="Path 6954" d="M279.964,385.19c-.391.536-.671,1.38-1.185,1.56-5.643,1.977-11.328,3.84-16.993,5.76-1.948.659-3.887,1.346-3.828,4,.006.309-.585.631-.9.946-.338-.366-.878-.684-.977-1.105-.428-1.824.977-4.121,3.061-4.918,3.022-1.155,6.08-2.22,9.138-3.28q4.5-1.563,9.042-3.028a18.4,18.4,0,0,1,2.246-.446Z" transform="translate(70.307 35.163)" fill="#00af9c"/>
      <path id="Path_6955" data-name="Path 6955" d="M246.356,400.494a6.464,6.464,0,0,1,.795,1.236c1.321,3.672,2.612,7.356,3.9,11.041.462,1.324.949,2.646,1.3,4a4.16,4.16,0,0,1-.245,1.568c-.463-.367-1.176-.644-1.349-1.116-1.406-3.834-2.714-7.705-4.042-11.567-.437-1.27-.9-2.534-1.238-3.831-.1-.37.211-.846.332-1.272Z" transform="translate(64.587 45.292)" fill="#00af9c"/>
      <path id="Path_6956" data-name="Path 6956" d="M249.446,399.458a5.108,5.108,0,0,1,.938,1.236c1.723,4.949,3.422,9.9,5.044,14.886.154.471-.253,1.125-.4,1.693-.386-.36-.966-.647-1.128-1.088q-2.741-7.464-5.339-14.983c-.167-.483.13-1.127.211-1.695Z" transform="translate(66.247 44.637)" fill="#00af9c"/>
    </g>
  </g>
</svg>
