<svg width="64" height="64" viewBox="0 0 64 64" fill="none" xmlns="http://www.w3.org/2000/svg">
  <path d="M32 59.4286C16.8733 59.4286 4.57141 47.1266 4.57141 31.9999C4.57141 16.8733 16.8733 4.57144 32 4.57144C47.1267 4.57144 59.4286 16.8733 59.4286 31.9999C59.4286 47.1266 47.1267 59.4286 32 59.4286ZM32 7.62857C18.5608 7.62857 7.62854 18.5608 7.62854 31.9999C7.62854 45.4391 18.5608 56.3714 32 56.3714C45.4391 56.3714 56.3714 45.4391 56.3714 31.9999C56.3714 18.5608 45.4391 7.62857 32 7.62857Z" fill="#00AFA5"/>
  <path d="M29.4442 41.5015C28.9795 41.5015 28.5026 41.3182 28.1479 40.9635L21.7524 34.5801C21.0309 33.8586 21.0309 32.6969 21.7524 31.9877C22.4739 31.2784 23.6356 31.2662 24.3449 31.9877L29.4442 37.087L42.2107 24.3205C42.9322 23.599 44.0939 23.599 44.8032 24.3205C45.5247 25.042 45.5247 26.2037 44.8032 26.913L30.7282 40.9758C30.3735 41.3182 29.9088 41.5015 29.4442 41.5015Z" fill="#00AFA5"/>
</svg>
