<svg width="24" height="24" viewBox="0 0 24 24" fill="none" xmlns="http://www.w3.org/2000/svg">
  <path fill-rule="evenodd" clip-rule="evenodd" d="M11.9241 5.41139C11.4847 5.5374 11.0018 5.68336 10.4884 5.85138C9.77968 6.0844 9.01002 6.36041 8.22736 6.68045C6.34211 7.38956 4.57903 8.38171 3 9.62182V7.00055L12 2L21 7.00055V9.40072C20.2282 9.13949 19.4134 9.02552 18.5985 9.06475C18.3039 9.07175 17.998 9.09076 17.6871 9.12176C14.9059 9.60048 12.1719 10.3158 9.51548 11.2599C7.91371 11.747 6.49098 11.76 6.10522 11.1409C6.08003 11.0999 6.06365 11.0544 6.05677 11.007C6.0021 10.6089 6.65309 10.0649 7.63015 9.52183C8.48104 9.06128 9.36728 8.66768 10.2808 8.3447C12.6662 7.4846 16.0946 6.91751 17.2934 7.13753L14.2559 4.82832C14.2559 4.82832 14.191 4.84023 14.0898 4.86323C13.9136 4.90024 13.6059 4.97223 13.1897 5.07224L13.1443 5.08433C12.8162 5.16634 12.4272 5.26833 11.9918 5.39234L11.9241 5.41139ZM10.0388 19.1087C11.9971 18.6679 13.9158 18.0699 15.7756 17.3205C17.6601 16.6113 19.4222 15.6188 21 14.3782V16.9995L12 22L3 16.9995V14.5992C3.0692 14.6248 3.14196 14.6468 3.21412 14.6687L3.22569 14.6722C3.65009 14.8024 4.08846 14.8834 4.53185 14.9133C5.12672 14.9536 5.72396 14.9421 6.31682 14.8792C9.098 14.4002 11.8322 13.6848 14.4887 12.7411C16.0905 12.254 17.512 12.241 17.8987 12.8601C18.0223 13.0601 17.9151 13.309 17.6488 13.5831C16.4818 14.508 15.1512 15.211 13.7244 15.6563C11.7502 16.3472 9.68947 16.7678 7.59974 16.9064H7.25961C7.15228 16.9044 7.05287 16.8994 6.96174 16.8914C6.87789 16.8849 6.79459 16.8743 6.71183 16.8594L9.74932 19.1698L9.78269 19.1638L10.0388 19.1087Z" fill="#00AFA5"/>
</svg>
