<svg xmlns="http://www.w3.org/2000/svg" width="205.332" height="44" viewBox="0 0 205.332 44"><g transform="translate(48.118 13.33)"><path d="M-2534.606,1905.356a9.257,9.257,0,0,0,2.457,1.368,7.723,7.723,0,0,0,2.763.525,4.752,4.752,0,0,0,2.609-.589,1.793,1.793,0,0,0,.891-1.56,1.578,1.578,0,0,0-.23-.869,2.125,2.125,0,0,0-.646-.628,5.805,5.805,0,0,0-.981-.5q-.568-.231-1.243-.46l-2.763-1a10.2,10.2,0,0,1-1.458-.64,6.093,6.093,0,0,1-1.3-.922,4.18,4.18,0,0,1-.936-1.253,3.666,3.666,0,0,1-.353-1.637,3.6,3.6,0,0,1,.506-1.855,4.936,4.936,0,0,1,1.4-1.5,6.913,6.913,0,0,1,2.133-1,9.783,9.783,0,0,1,2.717-.357,10.037,10.037,0,0,1,3.378.576,9.024,9.024,0,0,1,2.794,1.548l-1.811,1.893a9.411,9.411,0,0,0-2.026-1.049,6.716,6.716,0,0,0-2.334-.384,4.387,4.387,0,0,0-2.3.525,1.615,1.615,0,0,0-.859,1.444,1.335,1.335,0,0,0,.26.831,2.46,2.46,0,0,0,.707.615,6.141,6.141,0,0,0,1.028.485q.584.217,1.2.422l2.734.947a10.188,10.188,0,0,1,1.626.716,5.7,5.7,0,0,1,1.274.946,4.025,4.025,0,0,1,.844,1.241,4.025,4.025,0,0,1,.306,1.625,3.912,3.912,0,0,1-.49,1.918,4.809,4.809,0,0,1-1.429,1.574,7.462,7.462,0,0,1-2.271,1.073,10.575,10.575,0,0,1-3.023.4,12.144,12.144,0,0,1-3.915-.639,10.608,10.608,0,0,1-3.331-1.817l2.086-2.019Z" transform="translate(2536.692 -1892.49)" fill="#00af9c"/><path d="M-2515.5,1906.973h8.841v2.507h-12.4v-16.728h12.095v2.507h-8.535v4.272h7.214v2.506h-7.214Z" transform="translate(2539.785 -1892.444)" fill="#00af9c"/><path d="M-2499.233,1892.752v14.221h8.35v2.507h-11.911v-16.728h3.562Z" transform="translate(2542.642 -1892.444)" fill="#00af9c"/><path d="M-2483.9,1892.752v14.221h8.35v2.507h-11.91v-16.728h3.561Z" transform="translate(2545.333 -1892.444)" fill="#00af9c"/><path d="M-2475.343,1892.752h3.653l1.751,8.44q.243,1.356.489,2.685t.492,2.661h.124q.337-1.331.66-2.673c.215-.894.432-1.785.659-2.673l2.456-8.441h3.1l2.456,8.441c.226.869.45,1.752.677,2.646s.45,1.8.674,2.7h.123q.247-1.354.475-2.685t.476-2.66l1.75-8.441h3.407l-3.838,16.727h-4.42l-2.487-8.8q-.245-.973-.474-1.932t-.416-1.932h-.123q-.215.971-.445,1.932t-.475,1.932l-2.427,8.8h-4.327l-3.991-16.726Z" transform="translate(2547.46 -1892.444)" fill="#00af9c"/><path d="M-2446.973,1906.973h8.842v2.507h-12.4v-16.728h12.094v2.507h-8.533v4.272h7.214v2.506h-7.214Z" transform="translate(2551.814 -1892.444)" fill="#00af9c"/><path d="M-2430.7,1900.579h2.855a5.747,5.747,0,0,0,3.148-.717,2.4,2.4,0,0,0,1.089-2.148,2.073,2.073,0,0,0-1.089-2.02,7.033,7.033,0,0,0-3.148-.563h-2.855v5.449Zm7.4,8.9-4.328-6.547h-3.071v6.547h-3.562v-16.728h6.786a15.708,15.708,0,0,1,2.917.255,7.289,7.289,0,0,1,2.333.831,4.351,4.351,0,0,1,1.55,1.521,4.511,4.511,0,0,1,.569,2.355,4.367,4.367,0,0,1-1.091,3.094,6.118,6.118,0,0,1-2.9,1.688l4.788,6.983Z" transform="translate(2554.671 -1892.444)" fill="#00af9c"/><path d="M-2404.52,1909.48l-5.435-7.878-2.886,2.992v4.886h-3.561v-16.728h3.561v7.6h.093l7.153-7.6h3.96l-6.171,6.522,7.214,10.205Z" transform="translate(2557.806 -1892.444)" fill="#00af9c"/></g><path d="M-2549.533,1902.825c-1.362,1.453-4.74,3.225-8.31,4.561a47.465,47.465,0,0,1-12.968,2.751,47.465,47.465,0,0,0,12.968-2.751C-2554.273,1906.051-2550.9,1904.278-2549.533,1902.825Z" transform="translate(2580.546 -1877.349)" fill="#00af9c"/><path d="M-2558.825,1886.447l6.429,5.08h0Z" transform="translate(2582.65 -1880.219)" fill="#00af9c"/><path d="M-2570.7,1909.047c-.254.008-.5.01-.721.006C-2571.2,1909.057-2570.956,1909.055-2570.7,1909.047Z" transform="translate(2580.439 -1876.258)" fill="#00af9c"/><path d="M-2570.261,1895.232c-2.072,1.194-3.449,2.391-3.332,3.266C-2573.708,1897.623-2572.332,1896.426-2570.261,1895.232Z" transform="translate(2580.057 -1878.68)" fill="#00af9c"/><path d="M-2558.772,1886.447s-.13.026-.352.077C-2558.9,1886.473-2558.772,1886.447-2558.772,1886.447Z" transform="translate(2582.598 -1880.219)" fill="#00af9c"/><path d="M-2560.73,1886.9l-.1.024Z" transform="translate(2582.3 -1880.139)" fill="#00af9c"/><path d="M-2562.882,1887.5l-.144.042Z" transform="translate(2581.913 -1880.035)" fill="#00af9c"/><path d="M-2563.245,1888.36c-1.506.513-3.13,1.119-4.781,1.822a41.211,41.211,0,0,0-11.068,6.469,41.227,41.227,0,0,1,11.068-6.469C-2566.375,1889.479-2564.751,1888.873-2563.245,1888.36Z" transform="translate(2579.093 -1879.884)" fill="#00af9c"/><path d="M-2575.921,1905.395a11.936,11.936,0,0,1-2.765-.53A11.936,11.936,0,0,0-2575.921,1905.395Z" transform="translate(2579.164 -1876.991)" fill="#00af9c"/><path d="M-2563.245,1889.623c1.086-.37,2.109-.69,3.039-.967.047-.012.1-.028.144-.042.922-.272,1.744-.5,2.439-.677l.1-.025c.879-.227,1.533-.379,1.906-.46.223-.051.352-.077.352-.077l6.43,5.079h0c-2.54-.484-9.8.765-14.848,2.655a38.671,38.671,0,0,0-5.611,2.59c-2.071,1.194-3.447,2.392-3.332,3.266a.765.765,0,0,0,.1.294c.818,1.364,3.829,1.334,7.22.264s11.725-4.126,17.3-4.7c.658-.068,1.306-.111,1.938-.125a13.333,13.333,0,0,1,5.085.741v-5.288l-19.056-11-19.056,11v5.767a41.192,41.192,0,0,1,11.068-6.47C-2566.375,1890.743-2564.751,1890.136-2563.245,1889.623Z" transform="translate(2579.093 -1881.148)" fill="#00af9c"/><path d="M-2552.049,1911.445a76.626,76.626,0,0,1-12.147,3.935c-.263.06-.446.1-.54.12l-.071.014-6.429-5.081a5.093,5.093,0,0,0,.53.071q.29.026.629.033c.225,0,.466,0,.72-.006a47.518,47.518,0,0,0,12.967-2.751c3.571-1.337,6.947-3.11,8.31-4.562.564-.6.792-1.152.53-1.59-.818-1.362-3.829-1.333-7.22-.262s-11.725,4.125-17.3,4.7a20.928,20.928,0,0,1-3.779.076,11.919,11.919,0,0,1-2.766-.53c-.161-.052-.324-.1-.478-.162h0v5.29l19.056,11,19.056-11v-5.766A41.222,41.222,0,0,1-2552.049,1911.445Z" transform="translate(2579.093 -1877.742)" fill="#00af9c"/><path d="M-2566.339,1913.173c-.265.06-.447.1-.541.12C-2566.786,1913.273-2566.6,1913.233-2566.339,1913.173Z" transform="translate(2581.237 -1875.535)" fill="#00af9c"/><path d="M-2554.273,1910.788a76.525,76.525,0,0,1-12.146,3.936,76.637,76.637,0,0,0,12.146-3.935,41.259,41.259,0,0,0,11.068-6.469h0A41.207,41.207,0,0,1-2554.273,1910.788Z" transform="translate(2581.318 -1877.087)" fill="#00af9c"/><path d="M-2548.033,1901.629c-.818-1.364-3.829-1.334-7.22-.263s-11.726,4.125-17.3,4.7a20.919,20.919,0,0,1-3.778.076,20.938,20.938,0,0,0,3.78-.076c5.576-.578,13.911-3.632,17.3-4.7s6.4-1.1,7.22.263c.263.438.034.986-.53,1.589C-2548,1902.615-2547.771,1902.067-2548.033,1901.629Z" transform="translate(2579.577 -1877.742)" fill="#00af9c"/><path d="M-2571.329,1909.057c-.226,0-.436-.015-.63-.033C-2571.765,1909.042-2571.555,1909.052-2571.329,1909.057Z" transform="translate(2580.346 -1876.262)" fill="#00af9c"/><path d="M-2550.3,1890.784h0c-2.539-.485-9.8.766-14.849,2.655a38.66,38.66,0,0,0-5.611,2.59,38.66,38.66,0,0,1,5.611-2.59C-2560.1,1891.55-2552.84,1890.3-2550.3,1890.784Z" transform="translate(2580.556 -1879.477)" fill="#00af9c"/><path d="M-2548.969,1894.5c-5.576.578-13.912,3.633-17.3,4.7s-6.4,1.1-7.221-.263a.819.819,0,0,1-.1-.295.819.819,0,0,0,.1.295c.818,1.363,3.83,1.334,7.221.263s11.725-4.126,17.3-4.7c.657-.068,1.3-.111,1.935-.125C-2547.663,1894.391-2548.311,1894.433-2548.969,1894.5Z" transform="translate(2580.059 -1878.829)" fill="#00af9c"/><path d="M-2578.615,1904.889c-.161-.052-.324-.1-.478-.162h0C-2578.939,1904.786-2578.776,1904.837-2578.615,1904.889Z" transform="translate(2579.093 -1877.016)" fill="#00af9c"/><path d="M-2558.839,1886.512c-.373.082-1.026.233-1.906.461C-2559.866,1886.746-2559.212,1886.594-2558.839,1886.512Z" transform="translate(2582.313 -1880.208)" fill="#00af9c"/><path d="M-2560.463,1886.926c-.7.18-1.519.4-2.44.676C-2561.982,1887.33-2561.159,1887.106-2560.463,1886.926Z" transform="translate(2581.935 -1880.136)" fill="#00af9c"/><path d="M-2562.571,1887.537c-.931.276-1.954.6-3.04.968C-2564.525,1888.134-2563.5,1887.813-2562.571,1887.537Z" transform="translate(2581.459 -1880.028)" fill="#00af9c"/></svg>