<?xml version="1.0" encoding="utf-8"?>
<!-- Generator: Adobe Illustrator 23.0.3, SVG Export Plug-In . SVG Version: 6.00 Build 0)  -->
<svg version="1.1" id="Ebene_1" xmlns="http://www.w3.org/2000/svg" xmlns:xlink="http://www.w3.org/1999/xlink" x="0px" y="0px"
	 viewBox="0 0 149.7 19.1" style="enable-background:new 0 0 149.7 19.1;" xml:space="preserve">
<path d="M42.5,0l3.1,6.3l7,1l-5.1,4.9l1.2,6.9l-6.3-3.3l-6.3,3.3l1.2-6.9l-5.1-4.9l7-1L42.5,0z"/>
<path d="M10.2,0l3.1,6.3l7,1l-5.1,4.9l1.2,6.9l-6.3-3.3l-6.3,3.3l1.2-6.9L0,7.3l7-1L10.2,0z"/>
<path d="M74.8,0L78,6.3l7,1l-5.1,4.9l1.2,6.9l-6.3-3.3l-6.3,3.3l1.2-6.9l-5.1-4.9l7-1L74.8,0z"/>
<path d="M107.2,0l3.1,6.3l7,1l-5.1,4.9l1.2,6.9l-6.3-3.3l-6.3,3.3l1.2-6.9L97,7.3l7-1L107.2,0z"/>
<path d="M139.5,0l3.1,6.3l7,1l-5.1,4.9l1.2,6.9l-6.3-3.3l-6.3,3.3l1.2-6.9l-5.1-4.9l7-1L139.5,0z"/>
</svg>
