<svg width="56" height="56" viewBox="0 0 56 56" fill="none" xmlns="http://www.w3.org/2000/svg">
    <path
        d="M46.4894 28.868L45.8984 16.447C45.8984 16.4343 45.8984 16.4213 45.8984 16.408C45.8502 15.8982 45.6534 15.4137 45.3323 15.0148C45.0113 14.6159 44.5801 14.32 44.0924 14.164L39.1114 12.589V12.25C39.1122 12.0835 39.0575 11.9215 38.9559 11.7897C38.8543 11.6578 38.7116 11.5636 38.5504 11.522L35.5874 10.772C35.4164 10.7293 35.2359 10.7492 35.0783 10.8281C34.9208 10.907 34.7967 11.0396 34.7284 11.202L33.8164 10.913L32.4274 4.587C32.3918 4.42157 32.3009 4.27322 32.1696 4.16648C32.0384 4.05974 31.8746 4.00101 31.7054 4H24.2974C24.128 4.00078 23.964 4.05941 23.8325 4.16617C23.701 4.27293 23.6099 4.4214 23.5744 4.587L22.1854 10.914L21.2734 11.203C21.2051 11.0406 21.081 10.908 20.9234 10.8291C20.7659 10.7502 20.5853 10.7303 20.4144 10.773L17.4514 11.523C17.2902 11.5646 17.1475 11.6588 17.0459 11.7907C16.9443 11.9225 16.8895 12.0845 16.8904 12.251V12.59L11.9124 14.165C11.4244 14.3209 10.9931 14.6166 10.6718 15.0156C10.3506 15.4145 10.1536 15.8991 10.1054 16.409C10.1054 16.4217 10.1054 16.4347 10.1054 16.448L9.91437 20.465L11.3944 20.537L11.5844 16.542C11.6079 16.3267 11.6934 16.1229 11.8304 15.9551C11.9674 15.7874 12.1501 15.663 12.3564 15.597L16.8924 14.162V20.9C16.5113 21.1254 16.1845 21.4318 15.935 21.7975C15.6856 22.1632 15.5196 22.5794 15.4489 23.0164C15.3782 23.4534 15.4045 23.9007 15.5259 24.3264C15.6473 24.7521 15.8608 25.146 16.1514 25.48V31.75H10.2234C10.0245 31.75 9.83369 31.671 9.69304 31.5303C9.55239 31.3897 9.47337 31.1989 9.47337 31C9.47337 30.8011 9.55239 30.6103 9.69304 30.4697C9.83369 30.329 10.0245 30.25 10.2234 30.25C10.4148 30.2489 10.5985 30.1741 10.7363 30.0411C10.8741 29.9082 10.9554 29.7273 10.9634 29.536L11.3914 20.536L9.91137 20.464L9.51137 28.864C9.07211 29.0181 8.69117 29.3041 8.42065 29.6829C8.15012 30.0617 8.00323 30.5148 8.00005 30.9803C7.99688 31.4458 8.13758 31.9009 8.40291 32.2833C8.66824 32.6658 9.04525 32.957 9.48237 33.117V51.25C9.48171 51.3479 9.50036 51.445 9.53726 51.5357C9.57415 51.6264 9.62857 51.709 9.69739 51.7786C9.76621 51.8483 9.84809 51.9037 9.93834 51.9417C10.0286 51.9797 10.1254 51.9995 10.2234 52H45.7784C45.8763 51.9995 45.9731 51.9797 46.0634 51.9417C46.1537 51.9037 46.2355 51.8483 46.3044 51.7786C46.3732 51.709 46.4276 51.6264 46.4645 51.5357C46.5014 51.445 46.52 51.3479 46.5194 51.25V40H45.0374V50.5H42.8154V43.75C42.8147 43.6194 42.7803 43.4913 42.7154 43.378L42.3154 42.667C40.6996 39.7976 39.8509 36.5601 39.8514 33.267V33.25H45.0364V40.886H46.5174V33.121C46.9545 32.961 47.3315 32.6698 47.5968 32.2873C47.8622 31.9049 48.0029 31.4498 47.9997 30.9843C47.9965 30.5188 47.8496 30.0657 47.5791 29.6869C47.3086 29.3081 46.9276 29.0221 46.4884 28.868H46.4894ZM36.1484 12.461L37.6294 12.836V20.5C37.1089 20.4988 36.5975 20.6369 36.1484 20.9V12.461ZM37.6304 22C37.9278 21.9962 38.2197 22.081 38.4688 22.2435C38.718 22.406 38.9132 22.639 39.0297 22.9127C39.1461 23.1864 39.1785 23.4886 39.1228 23.7808C39.0671 24.073 38.9258 24.3421 38.7168 24.5538C38.5078 24.7654 38.2405 24.9102 37.9491 24.9696C37.6576 25.0291 37.355 25.0005 37.0798 24.8875C36.8046 24.7746 36.5692 24.5824 36.4035 24.3353C36.2379 24.0882 36.1494 23.7975 36.1494 23.5C36.147 23.1047 36.3016 22.7247 36.5793 22.4434C36.8571 22.1621 37.2351 22.0026 37.6304 22ZM24.8914 5.5H31.1054L32.3844 11.329C31.8661 11.9996 31.201 12.5426 30.4401 12.9162C29.6793 13.2897 28.843 13.484 27.9954 13.484C27.1478 13.484 26.3115 13.2897 25.5506 12.9162C24.7898 12.5426 24.1247 11.9996 23.6064 11.329L24.8914 5.5ZM18.3714 12.836L19.8524 12.461V20.9C19.4033 20.6369 18.8919 20.4988 18.3714 20.5V12.836ZM18.3714 22C18.6688 21.9962 18.9607 22.081 19.2098 22.2435C19.459 22.406 19.6542 22.639 19.7707 22.9127C19.8871 23.1864 19.9195 23.4886 19.8638 23.7808C19.8081 24.073 19.6668 24.3421 19.4578 24.5538C19.2488 24.7654 18.9815 24.9102 18.6901 24.9696C18.3986 25.0291 18.096 25.0005 17.8208 24.8875C17.5456 24.7746 17.3102 24.5824 17.1445 24.3353C16.9789 24.0882 16.8904 23.7975 16.8904 23.5C16.888 23.1047 17.0426 22.7247 17.3203 22.4434C17.5981 22.1621 17.9761 22.0026 18.3714 22ZM13.2834 43.378C13.2185 43.4913 13.1841 43.6195 13.1834 43.75V50.5H10.9644V33.25H16.1494V33.272C16.1498 36.5651 15.3012 39.8026 13.6854 42.672L13.2834 43.378ZM37.6304 50.5H28.7414V46.75H37.6304V50.5ZM37.6304 45.25H20.5934V46.75H27.2604V50.5H18.3714V46.75H21.3344V45.25H18.3714V43.75H37.6304V45.25ZM30.4404 36.03L31.9214 37.53C31.9897 37.5997 32.0712 37.655 32.1612 37.6928C32.2512 37.7306 32.3478 37.75 32.4454 37.75C32.543 37.75 32.6396 37.7306 32.7295 37.6928C32.8195 37.655 32.901 37.5997 32.9694 37.53L34.4504 36.03C34.5895 35.8887 34.6675 35.6983 34.6674 35.5V34.265C34.9763 34.6204 35.1978 35.0432 35.3143 35.4995C35.4308 35.9558 35.4389 36.433 35.3382 36.893C35.2375 37.353 35.0306 37.7831 34.734 38.1489C34.4375 38.5148 34.0596 38.8062 33.6304 39C33.4976 39.0591 33.3849 39.1555 33.3059 39.2774C33.2269 39.3994 33.185 39.5417 33.1854 39.687V42.25H31.7054V39.687C31.7057 39.5417 31.6639 39.3994 31.5849 39.2774C31.5059 39.1555 31.3931 39.0591 31.2604 39C30.8313 38.8062 30.4536 38.5147 30.1572 38.149C29.8608 37.7832 29.6539 37.3533 29.5532 36.8934C29.4525 36.4335 29.4606 35.9565 29.577 35.5003C29.6933 35.0441 29.9147 34.6214 30.2234 34.266V35.5C30.2233 35.6983 30.3012 35.8887 30.4404 36.03ZM41.0314 43.411L41.3314 43.949V50.5H39.1114V43C39.112 42.9021 39.0934 42.805 39.0565 42.7143C39.0196 42.6236 38.9652 42.541 38.8964 42.4714C38.8275 42.4017 38.7457 42.3463 38.6554 42.3083C38.5652 42.2703 38.4683 42.2505 38.3704 42.25H34.6704V40.15C35.3092 39.7725 35.8455 39.2439 36.2321 38.6105C36.6187 37.9772 36.8438 37.2586 36.8875 36.5179C36.9313 35.7772 36.7924 35.037 36.483 34.3626C36.1736 33.6882 35.7033 33.1 35.1134 32.65C34.9857 32.5529 34.8298 32.5002 34.6694 32.5H33.9304C33.8325 32.5005 33.7356 32.5203 33.6453 32.5583C33.5551 32.5963 33.4732 32.6517 33.4044 32.7214C33.3356 32.791 33.2812 32.8736 33.2443 32.9643C33.2074 33.055 33.1887 33.1521 33.1894 33.25V35.189L32.4484 35.939L31.7074 35.189V33.25C31.708 33.1521 31.6894 33.055 31.6525 32.9643C31.6156 32.8736 31.5612 32.791 31.4924 32.7214C31.4235 32.6517 31.3417 32.5963 31.2514 32.5583C31.1611 32.5203 31.0643 32.5005 30.9664 32.5H30.2274C30.067 32.5002 29.911 32.5529 29.7834 32.65C29.1934 33.1 28.7231 33.6882 28.4137 34.3626C28.1044 35.037 27.9655 35.7772 28.0092 36.5179C28.053 37.2586 28.2781 37.9772 28.6647 38.6105C29.0513 39.2439 29.5876 39.7725 30.2264 40.15V42.25H23.5564V40.75H25.0374C25.1353 40.7495 25.2321 40.7297 25.3224 40.6917C25.4127 40.6537 25.4945 40.5983 25.5634 40.5286C25.6322 40.459 25.6866 40.3764 25.7235 40.2857C25.7604 40.195 25.779 40.0979 25.7784 40V37.75C25.7793 37.5673 25.7133 37.3907 25.5928 37.2534C25.4723 37.1161 25.3056 37.0277 25.1244 37.005L25.5244 33.319C25.5821 32.804 25.4944 32.2831 25.2714 31.8153C25.0484 31.3475 24.6988 30.9514 24.2624 30.672C23.8291 30.3961 23.326 30.2496 22.8124 30.2496C22.2987 30.2496 21.7957 30.3961 21.3624 30.672C20.9268 30.9521 20.5783 31.3484 20.3562 31.8161C20.134 32.2839 20.0472 32.8045 20.1054 33.319L20.5054 37.005C20.3239 37.0275 20.1571 37.1158 20.0364 37.2531C19.9156 37.3904 19.8495 37.5672 19.8504 37.75V40C19.8497 40.0979 19.8684 40.195 19.9053 40.2857C19.9422 40.3764 19.9966 40.459 20.0654 40.5286C20.1342 40.5983 20.2161 40.6537 20.3063 40.6917C20.3966 40.7297 20.4934 40.7495 20.5914 40.75H22.0754V42.25H17.6304C17.5325 42.2505 17.4356 42.2703 17.3453 42.3083C17.2551 42.3463 17.1732 42.4017 17.1044 42.4714C17.0356 42.541 16.9812 42.6236 16.9443 42.7143C16.9074 42.805 16.8887 42.9021 16.8894 43V50.5H14.6674V43.949L14.9674 43.411C16.7103 40.3157 17.6261 36.8233 17.6264 33.271V26.405C18.0049 26.502 18.399 26.5232 18.7858 26.4672C19.1726 26.4113 19.5444 26.2794 19.88 26.0791C20.2156 25.8787 20.5082 25.614 20.741 25.3001C20.9738 24.9862 21.1421 24.6293 21.2364 24.25H32.4364V22.75H21.3344V12.75L22.5404 12.369C23.1981 13.1841 24.0299 13.8417 24.9749 14.2934C25.9199 14.7452 26.954 14.9797 28.0014 14.9797C29.0488 14.9797 30.0829 14.7452 31.0278 14.2934C31.9728 13.8417 32.8047 13.1841 33.4624 12.369L34.6684 12.75V22.75H31.7054V24.25H34.7624C34.8566 24.6293 35.025 24.9862 35.2578 25.3001C35.4906 25.614 35.7832 25.8787 36.1187 26.0791C36.4543 26.2794 36.8262 26.4113 37.213 26.4672C37.5998 26.5232 37.9938 26.502 38.3724 26.405V33.272C38.3726 36.8243 39.2884 40.3167 41.0314 43.412V43.411ZM22.0714 37.667L21.5714 33.153C21.5453 32.9176 21.5856 32.6796 21.6878 32.466C21.7899 32.2523 21.9498 32.0715 22.1494 31.944C22.3475 31.8179 22.5775 31.7509 22.8124 31.7509C23.0472 31.7509 23.2772 31.8179 23.4754 31.944C23.6749 32.0715 23.8348 32.2523 23.937 32.466C24.0391 32.6796 24.0794 32.9176 24.0534 33.153L23.5534 37.667C23.5418 37.7716 23.5521 37.8775 23.5838 37.9779C23.6155 38.0783 23.6678 38.171 23.7374 38.25C23.8064 38.3284 23.8913 38.3913 23.9865 38.4344C24.0817 38.4775 24.1849 38.4998 24.2894 38.5V39.25H21.3344V38.5C21.4388 38.4998 21.5421 38.4775 21.6373 38.4344C21.7324 38.3913 21.8173 38.3284 21.8864 38.25C21.9559 38.171 22.0082 38.0783 22.0399 37.9779C22.0716 37.8775 22.082 37.7716 22.0704 37.667H22.0714ZM45.7784 31.75H39.8524V25.482C40.1429 25.148 40.3565 24.7541 40.4779 24.3284C40.5993 23.9027 40.6255 23.4554 40.5548 23.0184C40.4841 22.5814 40.3182 22.1653 40.0687 21.7995C39.8193 21.4338 39.4924 21.1274 39.1114 20.902V14.161L43.6484 15.6C43.8546 15.666 44.0374 15.7904 44.1744 15.9581C44.3114 16.1259 44.3968 16.3297 44.4204 16.545L45.0384 29.54C45.0463 29.7313 45.1276 29.9122 45.2654 30.0451C45.4032 30.1781 45.5869 30.2529 45.7784 30.254C45.9773 30.254 46.168 30.333 46.3087 30.4737C46.4494 30.6143 46.5284 30.8051 46.5284 31.004C46.5284 31.2029 46.4494 31.3937 46.3087 31.5343C46.168 31.675 45.9773 31.754 45.7784 31.754V31.75Z"
        fill="#00AFA5" />
</svg>