<svg width="56" height="56" viewBox="0 0 56 56" fill="none" xmlns="http://www.w3.org/2000/svg">
    <path
        d="M22.167 26.4H21.334C21.1175 26.3957 20.9081 26.4776 20.7519 26.6276C20.5957 26.7776 20.5054 26.9835 20.501 27.2V29.6C20.5014 29.7058 20.5233 29.8104 20.5652 29.9075C20.6072 30.0046 20.6683 30.0922 20.745 30.165L22.168 31.531V33.6C22.168 33.7247 22.1982 33.8475 22.256 33.958L23.835 36.989V40C23.8394 40.2165 23.9297 40.4224 24.0859 40.5724C24.2421 40.7225 24.4515 40.8043 24.668 40.8H25.5V51.2C25.5044 51.4165 25.5947 51.6224 25.7509 51.7724C25.9071 51.9225 26.1165 52.0043 26.333 52H29.666C29.7733 52.0023 29.88 51.9834 29.9799 51.9444C30.0799 51.9054 30.1713 51.8471 30.2487 51.7728C30.3262 51.6985 30.3882 51.6097 30.4313 51.5114C30.4744 51.4131 30.4978 51.3073 30.5 51.2V40.8H31.333C31.5495 40.8043 31.7589 40.7225 31.9151 40.5724C32.0713 40.4224 32.1615 40.2165 32.166 40V36.989L33.749 33.958C33.805 33.8471 33.8335 33.7243 33.832 33.6V31.531L35.255 30.165C35.3318 30.0923 35.3932 30.0047 35.4353 29.9076C35.4774 29.8105 35.4994 29.7059 35.5 29.6V27.2C35.4955 26.9835 35.4053 26.7776 35.2491 26.6276C35.0929 26.4776 34.8835 26.3957 34.667 26.4H33.834V19.2C33.8318 19.0927 33.8084 18.9869 33.7653 18.8886C33.7222 18.7904 33.6602 18.7015 33.5827 18.6272C33.5053 18.553 33.4139 18.4946 33.3139 18.4557C33.214 18.4167 33.1073 18.3978 33 18.4H29.667C29.4505 18.3957 29.2411 18.4776 29.0849 18.6276C28.9287 18.7776 28.8384 18.9835 28.834 19.2V26.4H27.167V19.2C27.1625 18.9835 27.0723 18.7776 26.9161 18.6276C26.7599 18.4776 26.5505 18.3957 26.334 18.4H23C22.7835 18.3957 22.5741 18.4776 22.4179 18.6276C22.2617 18.7776 22.1714 18.9835 22.167 19.2V26.4ZM28.834 50.4H27.167V44H28.834V50.4ZM28.834 42.4H27.167V40.8H28.834V42.4ZM30.5 39.2H25.5V37.6H30.5V39.2ZM30.5 20H32.167V26.4H30.5V20ZM23.833 20H25.5V26.4H23.833V20ZM33.833 28V29.269L32.41 30.635C32.3332 30.708 32.272 30.7958 32.23 30.893C32.1881 30.9903 32.1663 31.0951 32.166 31.201V33.412L30.818 36H25.182L23.834 33.411V31.2C23.8335 31.0943 23.8117 30.9897 23.7697 30.8926C23.7278 30.7955 23.6667 30.7079 23.59 30.635L22.167 29.269V28H33.833Z"
        fill="#00AFA5" />
    <path d="M25.5 29.6H30.5V31.2H25.5V29.6Z" fill="#00AFA5" />
    <path d="M25.5 32.8H30.5V34.4H25.5V32.8Z" fill="#00AFA5" />
    <path
        d="M32.059 4.40602C31.9837 4.28129 31.8773 4.17827 31.7502 4.10709C31.6231 4.03592 31.4796 3.99902 31.334 4.00002H27.167C27.0203 3.99901 26.8759 4.03642 26.7482 4.10852C26.6205 4.18063 26.5139 4.28492 26.439 4.41102L22.267 11.611C22.1965 11.7319 22.1603 11.8696 22.162 12.0094C22.1638 12.1493 22.2035 12.286 22.277 12.405C22.3531 12.5264 22.4591 12.6264 22.5848 12.6953C22.7104 12.7643 22.8516 12.8 22.995 12.799H26.328V16C26.3295 16.1696 26.3848 16.3343 26.486 16.4703C26.5872 16.6064 26.729 16.7068 26.891 16.757C26.9801 16.7861 27.0732 16.8006 27.167 16.8C27.2925 16.8005 27.4167 16.773 27.5303 16.7196C27.6439 16.6661 27.7442 16.5881 27.824 16.491L33.657 9.29102C33.7525 9.1746 33.812 9.03283 33.8282 8.88309C33.8443 8.73335 33.8165 8.58215 33.748 8.44802C33.6765 8.31183 33.5689 8.19796 33.4369 8.11893C33.3049 8.0399 33.1538 7.99876 33 8.00002H30.306L32.048 5.21202C32.1239 5.09173 32.1651 4.9528 32.167 4.81057C32.169 4.66834 32.1316 4.52834 32.059 4.40602ZM31.296 9.60002L27.996 13.668V12C27.9915 11.7842 27.9018 11.5789 27.7465 11.429C27.5911 11.2791 27.3828 11.1968 27.167 11.2H24.417L27.659 5.60002H29.859L28.12 8.38802C28.0441 8.50831 28.0029 8.64724 28.0009 8.78947C27.999 8.9317 28.0364 9.0717 28.109 9.19402C28.1842 9.31875 28.2906 9.42177 28.4177 9.49295C28.5448 9.56413 28.6883 9.60102 28.834 9.60002H31.296Z"
        fill="#00AFA5" />
    <path d="M13 21.6H17.167V23.2H13V21.6Z" fill="#00AFA5" />
    <path d="M14.1672 17.4444L15.1672 16.1644L18.5008 18.5646L17.5008 19.8446L14.1672 17.4444Z" fill="#00AFA5" />
    <path d="M14.1663 27.3596L17.4999 24.9594L18.4993 26.2386L15.1663 28.6396L14.1663 27.3596Z" fill="#00AFA5" />
    <path d="M38.833 21.6H43V23.2H38.833V21.6Z" fill="#00AFA5" />
    <path d="M37.4982 18.5526L40.8318 16.1524L41.8312 17.4316L38.4982 19.8326L37.4982 18.5526Z" fill="#00AFA5" />
    <path d="M37.5032 26.2484L38.5032 24.9684L41.8368 27.3686L40.8368 28.6486L37.5032 26.2484Z" fill="#00AFA5" />
</svg>