<svg width="56" height="56" viewBox="0 0 56 56" fill="none" xmlns="http://www.w3.org/2000/svg">
    <path
        d="M29.5429 27.272C29.7014 27.3717 29.8917 27.4079 30.0756 27.3732C30.2596 27.3385 30.4237 27.2356 30.5349 27.085L39.1169 14.608C39.1694 14.5315 39.2061 14.4453 39.225 14.3544C39.2439 14.2635 39.2445 14.1698 39.2268 14.0787C39.2091 13.9876 39.1735 13.901 39.122 13.8238C39.0706 13.7466 39.0042 13.6803 38.9269 13.629C38.7701 13.5239 38.5782 13.4846 38.3927 13.5195C38.2071 13.5545 38.0427 13.661 37.9349 13.816L29.3529 26.293C29.3005 26.3695 29.2637 26.4557 29.2448 26.5466C29.226 26.6375 29.2254 26.7312 29.243 26.8223C29.2607 26.9134 29.2963 27 29.3478 27.0773C29.3993 27.1545 29.4656 27.2207 29.5429 27.272Z"
        fill="#00AFA5" />
    <path
        d="M38.8831 27.3929C39.6716 27.3099 40.3962 26.9209 40.9011 26.3095C41.4059 25.6981 41.6508 24.913 41.5831 24.123C41.4311 19.784 36.3431 19.785 36.1921 24.123C36.1242 24.9116 36.3679 25.6954 36.8708 26.3066C37.3738 26.9178 38.0961 27.3078 38.8831 27.3929ZM38.8831 22.263C39.5701 22.263 40.1501 23.115 40.1501 24.123C40.1501 25.131 39.5701 25.983 38.8831 25.983C38.1961 25.983 37.6161 25.131 37.6161 24.123C37.6161 23.115 38.1961 22.263 38.8831 22.263Z"
        fill="#00AFA5" />
    <path
        d="M32.1741 16.777C32.2418 15.9869 31.997 15.2018 31.4921 14.5904C30.9872 13.979 30.2627 13.59 29.4741 13.507C25.8991 13.681 25.9001 19.873 29.4741 20.046C30.2625 19.963 30.9869 19.5741 31.4917 18.9629C31.9965 18.3516 32.2415 17.5668 32.1741 16.777ZM28.2111 16.777C28.2111 15.769 28.7911 14.917 29.4781 14.917C30.1651 14.917 30.7451 15.769 30.7451 16.777C30.7451 17.785 30.1651 18.637 29.4781 18.637C28.7911 18.637 28.2111 17.785 28.2111 16.777Z"
        fill="#00AFA5" />
    <path
        d="M29.109 36.302C46.64 41.459 58.776 19.802 45.125 7.83598C44.9809 7.71401 44.7947 7.65344 44.6064 7.66728C44.4181 7.68111 44.2427 7.76826 44.118 7.90998C44.057 7.97989 44.0106 8.06121 43.9813 8.14922C43.9521 8.23723 43.9406 8.33018 43.9476 8.42267C43.9546 8.51515 43.9799 8.60533 44.022 8.68795C44.0641 8.77058 44.1222 8.84401 44.193 8.90398C56.865 20.043 45.241 40.059 29.109 34.816V30.026C29.109 29.426 28.739 28.571 26.974 27.95C24.895 27.2908 22.6907 27.1268 20.537 27.471C13.802 14.497 28.838 -1.61802 44.193 8.90398C44.547 9.07498 45.48 8.00398 45.125 7.83598C28.143 -3.85702 12.153 13.607 19.087 27.761C18.873 27.819 18.668 27.881 18.474 27.95C16.709 28.572 16.339 29.422 16.339 30.026V34.718C14.7771 34.054 13.0893 33.738 11.393 33.792C11.206 33.792 11.0267 33.8663 10.8945 33.9985C10.7623 34.1307 10.688 34.31 10.688 34.497C10.688 34.684 10.7623 34.8633 10.8945 34.9955C11.0267 35.1277 11.206 35.202 11.393 35.202C12.6689 35.1788 13.9401 35.3628 15.157 35.747C16.135 36.092 16.341 36.44 16.341 36.495C16.341 36.55 16.135 36.895 15.154 37.244C12.7048 38.0449 10.0642 38.0449 7.615 37.244C6.635 36.899 6.428 36.55 6.428 36.495C7.91091 35.5643 9.64448 35.1128 11.393 35.202C12.286 34.893 12.304 33.545 11.393 33.792C6.593 33.785 5 35.844 5 36.492V49.241C5 49.841 5.37 50.696 7.135 51.317C9.89531 52.2267 12.8747 52.2267 15.635 51.317C16.1481 51.152 16.6288 50.8996 17.056 50.571C17.4832 50.8996 17.9639 51.152 18.477 51.317C21.2373 52.2267 24.2167 52.2267 26.977 51.317C27.4901 51.152 27.9708 50.8996 28.398 50.571C28.8252 50.8996 29.3059 51.152 29.819 51.317C32.5793 52.2267 35.5587 52.2267 38.319 51.317C40.084 50.695 40.454 49.845 40.454 49.241V42.87C40.454 42.27 40.084 41.415 38.319 40.794C35.5587 39.8843 32.5793 39.8843 29.819 40.794C29.5777 40.8794 29.342 40.9796 29.113 41.094C29.113 40.175 29.113 37.448 29.113 36.494C29.113 36.469 29.113 36.338 29.113 36.311L29.109 36.302ZM39.021 46.056C39.021 46.11 38.815 46.456 37.834 46.805C35.3848 47.6059 32.7442 47.6059 30.295 46.805C29.315 46.46 29.108 46.111 29.108 46.056V44.656C29.337 44.7703 29.5728 44.8705 29.814 44.956C32.5743 45.8657 35.5537 45.8657 38.314 44.956C38.5553 44.8706 38.791 44.7704 39.02 44.656L39.021 46.056ZM27.681 33.212C27.681 33.266 27.475 33.612 26.494 33.961C24.0448 34.7619 21.4042 34.7619 18.955 33.961C17.975 33.616 17.768 33.267 17.768 33.212V31.812C17.997 31.9263 18.2328 32.0265 18.474 32.112C21.2343 33.0217 24.2137 33.0217 26.974 32.112C27.2153 32.0266 27.451 31.9264 27.68 31.812L27.681 33.212ZM18.475 35.292C21.48 36.3019 24.7482 36.1954 27.681 34.992V36.447C27.681 36.501 27.475 36.847 26.494 37.196C24.0448 37.9968 21.4042 37.9968 18.955 37.196C17.975 36.851 17.768 36.502 17.768 36.447V34.992C17.9973 35.1064 18.2334 35.2066 18.475 35.292ZM16.34 42.874C16.34 42.928 16.134 43.274 15.153 43.623C12.7038 44.4239 10.0632 44.4239 7.614 43.623C6.634 43.278 6.427 42.929 6.427 42.874V41.474C6.65598 41.5883 6.89176 41.6885 7.133 41.774C9.89331 42.6837 12.8727 42.6837 15.633 41.774C15.8743 41.6885 16.11 41.5884 16.339 41.474L16.34 42.874ZM6.428 44.655C6.65698 44.7693 6.89275 44.8695 7.134 44.955C9.89431 45.8647 12.8737 45.8647 15.634 44.955C15.8753 44.8696 16.111 44.7694 16.34 44.655V46.055C16.34 46.109 16.134 46.455 15.153 46.804C12.7038 47.6049 10.0632 47.6049 7.614 46.804C6.634 46.459 6.427 46.11 6.427 46.055L6.428 44.655ZM17.769 44.655C17.998 44.7693 18.2338 44.8695 18.475 44.955C21.2353 45.8647 24.2147 45.8647 26.975 44.955C27.2163 44.8695 27.452 44.7694 27.681 44.655V46.055C27.681 46.109 27.475 46.455 26.494 46.804C24.0448 47.6049 21.4042 47.6049 18.955 46.804C17.975 46.459 17.768 46.11 17.768 46.055L17.769 44.655ZM26.495 43.623C24.0458 44.4238 21.4052 44.4238 18.956 43.623C17.976 43.278 17.769 42.929 17.769 42.874V41.474C17.998 41.5883 18.2338 41.6885 18.475 41.774C21.2353 42.6837 24.2147 42.6837 26.975 41.774C27.2163 41.6885 27.452 41.5884 27.681 41.474V42.874C27.681 42.924 27.474 43.273 26.494 43.619L26.495 43.623ZM27.682 39.689C27.682 39.743 27.476 40.089 26.495 40.438C24.0458 41.2388 21.4052 41.2388 18.956 40.438C17.976 40.093 17.769 39.744 17.769 39.689V38.229C17.998 38.3433 18.2338 38.4435 18.475 38.529C21.2353 39.4387 24.2147 39.4387 26.975 38.529C27.2163 38.4436 27.452 38.3434 27.681 38.229L27.682 39.689ZM18.955 29.278C21.4042 28.4774 24.0448 28.4774 26.494 29.278C27.474 29.623 27.681 29.972 27.681 30.027C27.681 30.082 27.475 30.427 26.494 30.776C24.0448 31.5768 21.4042 31.5768 18.955 30.776C17.975 30.431 17.768 30.082 17.768 30.027C17.768 29.972 17.975 29.623 18.955 29.278ZM7.134 38.578C10.139 39.5879 13.4072 39.4814 16.34 38.278V39.678C16.34 39.732 16.134 40.078 15.153 40.427C12.7038 41.2279 10.0632 41.2279 7.614 40.427C6.634 40.082 6.427 39.733 6.427 39.678V38.278C6.65636 38.3914 6.89247 38.4906 7.134 38.575V38.578ZM15.153 49.992C12.7038 50.7929 10.0632 50.7929 7.614 49.992C6.634 49.647 6.427 49.298 6.427 49.243V47.843C7.9979 48.4952 9.68209 48.8309 11.383 48.8309C13.0839 48.8309 14.7681 48.4952 16.339 47.843V49.243C16.34 49.292 16.133 49.645 15.153 49.992ZM26.494 49.992C24.0448 50.7928 21.4042 50.7928 18.955 49.992C17.975 49.647 17.768 49.298 17.768 49.243V47.843C19.3389 48.4952 21.0231 48.8309 22.724 48.8309C24.4249 48.8309 26.1091 48.4952 27.68 47.843V49.243C27.681 49.292 27.474 49.645 26.494 49.992ZM37.835 49.992C35.3858 50.7929 32.7452 50.7929 30.296 49.992C29.316 49.647 29.109 49.298 29.109 49.243V47.843C30.6799 48.4952 32.3641 48.8309 34.065 48.8309C35.7659 48.8309 37.4501 48.4952 39.021 47.843V49.243C39.021 49.292 38.816 49.645 37.835 49.992ZM30.296 42.121C32.7452 41.3201 35.3858 41.3201 37.835 42.121C38.815 42.466 39.022 42.815 39.022 42.87C39.022 42.925 38.816 43.27 37.835 43.619C35.3858 44.4199 32.7452 44.4199 30.296 43.619C29.316 43.274 29.109 42.925 29.109 42.87C29.109 42.815 29.316 42.467 30.296 42.121Z"
        fill="#00AFA5" />
</svg>