<svg width="56" height="56" viewBox="0 0 56 56" fill="none" xmlns="http://www.w3.org/2000/svg">
    <path
        d="M21.846 44.0459C21.206 44.0467 20.5925 44.3013 20.1399 44.7538C19.6874 45.2064 19.4328 45.8199 19.432 46.4599C19.432 46.6482 19.5068 46.8288 19.64 46.9619C19.7731 47.0951 19.9537 47.1699 20.142 47.1699C20.3303 47.1699 20.5109 47.0951 20.6441 46.9619C20.7772 46.8288 20.852 46.6482 20.852 46.4599C20.852 46.1963 20.9567 45.9435 21.1431 45.757C21.3296 45.5706 21.5824 45.4659 21.846 45.4659C22.1096 45.4659 22.3625 45.5706 22.5489 45.757C22.7353 45.9435 22.84 46.1963 22.84 46.4599C22.84 46.6482 22.9148 46.8288 23.048 46.9619C23.1811 47.0951 23.3617 47.1699 23.55 47.1699C23.7383 47.1699 23.9189 47.0951 24.0521 46.9619C24.1852 46.8288 24.26 46.6482 24.26 46.4599C24.259 45.82 24.0043 45.2066 23.5518 44.7541C23.0993 44.3016 22.4859 44.047 21.846 44.0459Z"
        fill="#00AFA5" />
    <path
        d="M32.8279 45.8449C32.188 45.8457 31.5744 46.1003 31.1219 46.5528C30.6693 47.0054 30.4147 47.6189 30.4139 48.2589C30.4139 48.4472 30.4887 48.6278 30.6219 48.761C30.755 48.8941 30.9356 48.9689 31.1239 48.9689C31.3122 48.9689 31.4928 48.8941 31.626 48.761C31.7591 48.6278 31.834 48.4472 31.834 48.2589C31.834 47.9953 31.9386 47.7424 32.1251 47.556C32.3115 47.3696 32.5643 47.2649 32.8279 47.2649C33.0916 47.2649 33.3444 47.3696 33.5308 47.556C33.7172 47.7424 33.8219 47.9953 33.8219 48.2589C33.8219 48.4472 33.8968 48.6278 34.0299 48.761C34.1631 48.8941 34.3436 48.9689 34.532 48.9689C34.7203 48.9689 34.9008 48.8941 35.034 48.761C35.1671 48.6278 35.2419 48.4472 35.2419 48.2589C35.2411 47.6189 34.9866 47.0054 34.534 46.5528C34.0815 46.1003 33.4679 45.8457 32.8279 45.8449Z"
        fill="#00AFA5" />
    <path
        d="M43.2381 48.8269C43.2381 48.9392 43.2047 49.049 43.1423 49.1425C43.0799 49.2359 42.9912 49.3087 42.8874 49.3517C42.7836 49.3946 42.6694 49.4059 42.5593 49.384C42.4491 49.3621 42.3479 49.308 42.2684 49.2285C42.189 49.1491 42.1349 49.0479 42.113 48.9377C42.091 48.8275 42.1023 48.7133 42.1453 48.6095C42.1883 48.5057 42.2611 48.417 42.3545 48.3546C42.4479 48.2922 42.5577 48.2589 42.6701 48.2589C42.8207 48.2589 42.9652 48.3187 43.0717 48.4253C43.1782 48.5318 43.2381 48.6763 43.2381 48.8269Z"
        fill="#00AFA5" />
    <path
        d="M15.598 47.3119C15.598 47.4242 15.5647 47.5341 15.5023 47.6275C15.4399 47.7209 15.3512 47.7937 15.2474 47.8367C15.1436 47.8797 15.0294 47.8909 14.9192 47.869C14.809 47.8471 14.7078 47.793 14.6284 47.7135C14.549 47.6341 14.4949 47.5329 14.4729 47.4227C14.451 47.3125 14.4623 47.1983 14.5053 47.0945C14.5483 46.9908 14.6211 46.902 14.7145 46.8396C14.8079 46.7772 14.9177 46.7439 15.03 46.7439C15.1807 46.7439 15.3252 46.8037 15.4317 46.9102C15.5382 47.0168 15.598 47.1612 15.598 47.3119Z"
        fill="#00AFA5" />
    <path
        d="M47.314 46.5979C46.9538 46.5978 46.5948 46.6391 46.244 46.7209C45.4981 45.7 44.512 44.8788 43.373 44.3299L46.903 42.1299C47.7444 41.6036 48.4659 40.9066 49.0209 40.0839C49.5759 39.2612 49.9521 38.3311 50.125 37.3539L51.637 28.7769C51.6533 28.685 51.6513 28.5909 51.6311 28.4998C51.611 28.4087 51.5731 28.3225 51.5196 28.246C51.4661 28.1696 51.398 28.1045 51.3194 28.0543C51.2407 28.0042 51.1529 27.9701 51.061 27.9539L49.777 27.7279C49.5914 27.6953 49.4003 27.7377 49.246 27.8459C49.0917 27.9542 48.9866 28.1192 48.954 28.3049C48.9214 28.4905 48.9638 28.6816 49.0721 28.8359C49.1803 28.9902 49.3453 29.0953 49.531 29.1279L50.115 29.2279L48.726 37.1059C48.5877 37.8871 48.2869 38.6306 47.8432 39.2883C47.3995 39.946 46.8226 40.5032 46.15 40.9239L42.323 43.3139C42.0071 43.5107 41.651 43.6341 41.281 43.6749C40.8651 43.6076 40.4443 43.5741 40.023 43.5749C39.835 43.5749 39.6463 43.5819 39.457 43.5959C39.1659 42.6594 38.6131 41.8257 37.8639 41.193C37.1146 40.5603 36.2 40.155 35.228 40.0249L34.3 38.8359C33.6555 38.0146 33.2522 37.0303 33.135 35.9929C33.9205 36.4673 34.8175 36.7253 35.735 36.7409C36.3816 36.7392 37.0205 36.5998 37.609 36.3319C40.832 34.8849 42.521 29.8539 42.592 29.6409C42.649 29.4673 42.6369 29.2784 42.5584 29.1134C42.4798 28.9484 42.3407 28.8201 42.17 28.7549C40.4952 28.1475 38.7338 27.8126 36.953 27.7629C36.0387 27.7452 35.1292 27.8981 34.271 28.2139L34.571 26.4899L40.223 27.4899L44.458 28.2369L49.526 29.1309C49.913 29.1989 49.458 28.6949 49.526 28.3079C49.594 27.9209 50.158 27.7999 49.772 27.7319L45.403 26.9609L46.303 21.8609L48.217 11.0249L50.417 11.4129C50.4579 11.4201 50.4994 11.4238 50.541 11.4239C50.7081 11.4241 50.8699 11.3653 50.9979 11.2579C51.126 11.1506 51.2121 11.0015 51.241 10.8369L51.989 6.59789C52.0053 6.50603 52.0033 6.41186 51.9831 6.32077C51.963 6.22968 51.925 6.14346 51.8716 6.06702C51.8181 5.99059 51.75 5.92545 51.6713 5.87532C51.5927 5.8252 51.5049 5.79107 51.413 5.77489L41.376 4.00989C41.2841 3.99363 41.19 3.99563 41.0989 4.01578C41.0078 4.03594 40.9216 4.07384 40.8451 4.12734C40.7687 4.18083 40.7036 4.24886 40.6534 4.32754C40.6033 4.40622 40.5692 4.49401 40.553 4.58589L39.807 8.82089C39.7906 8.91277 39.7925 9.00698 39.8126 9.09812C39.8327 9.18926 39.8706 9.27554 39.9241 9.352C39.9776 9.42846 40.0457 9.49361 40.1245 9.5437C40.2032 9.59379 40.2911 9.62784 40.383 9.64389L42.583 10.0329L42.208 12.1609C42.1754 12.3465 42.2178 12.5375 42.326 12.6919C42.4343 12.8462 42.5993 12.9513 42.785 12.9839C42.9706 13.0165 43.1617 12.974 43.316 12.8658C43.4703 12.7576 43.5754 12.5925 43.608 12.4069L43.983 10.2789L46.819 10.7789L45.033 20.9069L42.197 20.4069L43.608 12.4069C43.676 12.0209 43.244 12.2279 42.858 12.1609C42.472 12.0939 42.278 11.7749 42.21 12.1609L40.676 20.8609L39.776 25.9609L34.123 24.9609C34.0311 24.9446 33.937 24.9466 33.8459 24.9668C33.7548 24.9869 33.6686 25.0248 33.5921 25.0783C33.5157 25.1318 33.4506 25.1999 33.4004 25.2785C33.3503 25.3572 33.3162 25.445 33.3 25.5369L32.646 29.2439C32.1057 29.8428 31.6984 30.5494 31.4509 31.3171C31.2034 32.0848 31.1213 32.8962 31.21 33.6979C30.2794 34.1368 29.4332 34.7359 28.71 35.4679V27.3889C29.7137 27.0915 30.5999 26.4886 31.2451 25.6642C31.8903 24.8397 32.2625 23.8347 32.31 22.7889C32.31 19.3439 28.678 15.3739 28.524 15.2069C28.4575 15.1349 28.3769 15.0775 28.2871 15.0382C28.1974 14.999 28.1005 14.9787 28.0025 14.9787C27.9045 14.9787 27.8076 14.999 27.7179 15.0382C27.6281 15.0775 27.5475 15.1349 27.481 15.2069C27.326 15.3739 23.695 19.3439 23.695 22.7889C23.7425 23.8347 24.1147 24.8397 24.7599 25.6642C25.4051 26.4886 26.2913 27.0915 27.295 27.3889V34.0529C26.5717 33.3211 25.7255 32.722 24.795 32.2829C24.882 31.0719 24.771 28.2959 22.17 26.9829C21.1949 26.5287 20.1272 26.3085 19.052 26.3399C17.2712 26.3896 15.5098 26.7245 13.835 27.3319C13.6643 27.3971 13.5252 27.5254 13.4466 27.6904C13.3681 27.8554 13.356 28.0443 13.413 28.2179C13.483 28.4319 15.173 33.4629 18.396 34.9089C18.9845 35.1771 19.6233 35.3169 20.27 35.3189C21.7512 35.2444 23.1519 34.6222 24.2 33.5729C25.4418 34.1903 26.5053 35.1145 27.29 36.2579V40.9799C26.6025 41.0931 25.9515 41.3673 25.39 41.7799C24.7903 41.0799 24.0141 40.5532 23.142 40.2546C22.2699 39.956 21.3337 39.8963 20.4308 40.0819C19.5278 40.2674 18.6911 40.6914 18.0074 41.3097C17.3237 41.928 16.8181 42.7181 16.543 43.5979C16.354 43.5839 16.165 43.5769 15.977 43.5769C14.765 43.5739 13.5695 43.858 12.4884 44.4058C11.4073 44.9537 10.4713 45.7498 9.757 46.7289C9.06952 46.5685 8.35469 46.5653 7.6658 46.7196C6.97691 46.8738 6.33173 47.1816 5.77834 47.6199C5.22495 48.0583 4.77763 48.6158 4.46972 49.2511C4.16181 49.8864 4.00124 50.5829 4 51.2889C4.00026 51.477 4.07519 51.6574 4.20831 51.7903C4.34143 51.9232 4.52187 51.9979 4.71 51.9979H51.29C51.4783 51.9979 51.6589 51.9231 51.792 51.7899C51.9252 51.6568 52 51.4762 52 51.2879C51.9995 50.0449 51.5057 48.8529 50.6272 47.9736C49.7486 47.0942 48.557 46.5995 47.314 46.5979ZM41.828 5.53189L50.468 7.05489L49.968 9.89089L47.768 9.50189L43.53 8.75589L41.33 8.36789L41.828 5.53189ZM41.95 21.8059L44.786 22.3059L44.009 26.7059L41.173 26.2059L41.95 21.8059ZM18.973 33.6149C16.934 32.6999 15.547 29.7639 15.008 28.4369C16.3163 28.0235 17.6763 27.7963 19.048 27.7619C19.9012 27.7317 20.7497 27.8998 21.527 28.2529C22.123 28.5876 22.6134 29.0824 22.9428 29.6813C23.2722 30.2802 23.4274 30.9593 23.391 31.6419L19.975 30.0089C19.8909 29.9686 19.7997 29.9454 19.7066 29.9404C19.6134 29.9354 19.5203 29.9487 19.4323 29.9798C19.3444 30.0108 19.2634 30.0588 19.194 30.1211C19.1247 30.1834 19.0682 30.2588 19.028 30.3429C18.9878 30.427 18.9645 30.5182 18.9595 30.6113C18.9545 30.7044 18.9679 30.7976 18.9989 30.8856C19.0299 30.9735 19.0779 31.0545 19.1402 31.1238C19.2025 31.1932 19.2779 31.2496 19.362 31.2899L22.778 32.9229C22.07 33.515 21.1871 33.8583 20.265 33.8999C19.819 33.8978 19.3785 33.8006 18.973 33.6149ZM36.953 29.1819C38.3246 29.2174 39.6845 29.4449 40.993 29.8579C40.455 31.1849 39.071 34.1179 37.027 35.0349C36.6214 35.2204 36.181 35.3176 35.735 35.3199C34.814 35.2758 33.9326 34.932 33.225 34.3409L36.637 32.7099C36.8028 32.6263 36.9294 32.4811 36.9894 32.3054C37.0494 32.1296 37.0382 31.9373 36.9581 31.7698C36.8781 31.6022 36.7356 31.4727 36.5611 31.4089C36.3867 31.3452 36.1942 31.3524 36.025 31.4289L32.614 33.0589C32.5794 32.3774 32.7351 31.6997 33.0635 31.1015C33.392 30.5034 33.8804 30.0084 34.474 29.6719C35.2511 29.3194 36.0992 29.1517 36.952 29.1819H36.953ZM31.688 35.0479C31.6114 36.7307 32.1415 38.3851 33.182 39.7099L33.475 40.0839C32.357 40.3141 31.3485 40.9127 30.611 41.7839C30.0496 41.3712 29.3985 41.0971 28.711 40.9839V37.6839C29.4723 36.5746 30.4947 35.6693 31.688 35.0479ZM25.112 22.7919C25.112 20.6059 27.045 17.9589 28 16.7849C28.955 17.9579 30.887 20.6009 30.887 22.7919C30.8623 23.4581 30.6429 24.1025 30.256 24.6454C29.8691 25.1884 29.3316 25.606 28.71 25.8469V23.0759C28.71 22.8876 28.6352 22.707 28.502 22.5738C28.3689 22.4407 28.1883 22.3659 28 22.3659C27.8117 22.3659 27.6311 22.4407 27.498 22.5738C27.3648 22.707 27.29 22.8876 27.29 23.0759V25.8419C26.6701 25.5998 26.134 25.1825 25.7473 24.6409C25.3605 24.0993 25.1398 23.4568 25.112 22.7919ZM5.5 50.5789C5.60148 50.1251 5.79858 49.6982 6.07814 49.3266C6.35769 48.955 6.71329 48.6473 7.12118 48.4241C7.52908 48.2008 7.9799 48.0671 8.44356 48.0319C8.90723 47.9967 9.37307 48.0608 9.81 48.2199C9.96241 48.2756 10.1293 48.2773 10.2829 48.2249C10.4364 48.1725 10.5674 48.0691 10.654 47.9319C11.2193 47.0304 12.0047 46.2876 12.9363 45.7735C13.8678 45.2593 14.915 44.9907 15.979 44.9929C16.3139 44.9928 16.6483 45.0193 16.979 45.0719C17.1633 45.1012 17.3517 45.0567 17.5034 44.9482C17.6552 44.8397 17.7581 44.6757 17.79 44.4919C17.9219 43.7431 18.2789 43.0523 18.8135 42.5115C19.348 41.9708 20.0346 41.6058 20.7819 41.4653C21.5291 41.3247 22.3014 41.4152 22.9959 41.7248C23.6904 42.0343 24.274 42.5482 24.669 43.1979C24.7261 43.2923 24.8044 43.372 24.8977 43.4309C24.991 43.4897 25.0967 43.526 25.2065 43.5369C25.3162 43.5477 25.427 43.5329 25.53 43.4935C25.6331 43.4541 25.7255 43.3912 25.8 43.3099C26.0794 43.0046 26.4193 42.7607 26.798 42.5939C27.1768 42.4271 27.5861 42.3409 28 42.3409C28.4139 42.3409 28.8232 42.4271 29.202 42.5939C29.5807 42.7607 29.9206 43.0046 30.2 43.3099C30.2745 43.3912 30.3669 43.4541 30.47 43.4935C30.573 43.5329 30.6838 43.5477 30.7935 43.5369C30.9033 43.526 31.009 43.4897 31.1023 43.4309C31.1956 43.372 31.2739 43.2923 31.331 43.1979C31.7252 42.5464 32.3088 42.0308 33.0039 41.7199C33.699 41.409 34.4724 41.3177 35.2208 41.4581C35.9691 41.5986 36.6568 41.9641 37.1919 42.5059C37.7269 43.0477 38.0839 43.7398 38.215 44.4899C38.2469 44.6737 38.3498 44.8377 38.5016 44.9462C38.6533 45.0547 38.8417 45.0992 39.026 45.0699C39.3567 45.0173 39.6911 44.9908 40.026 44.9909C41.09 44.9887 42.1372 45.2573 43.0687 45.7715C44.0003 46.2856 44.7857 47.0284 45.351 47.9299C45.4376 48.0671 45.5686 48.1705 45.7221 48.2229C45.8757 48.2753 46.0426 48.2736 46.195 48.2179C46.6319 48.0588 47.0978 47.9947 47.5614 48.0299C48.0251 48.0651 48.4759 48.1988 48.8838 48.4221C49.2917 48.6453 49.6473 48.953 49.9269 49.3246C50.2064 49.6962 50.4035 50.1231 50.505 50.5769L5.5 50.5789Z"
        fill="#00AFA5" />
</svg>