<svg width="56" height="56" viewBox="0 0 56 56" fill="none" xmlns="http://www.w3.org/2000/svg">
<g clip-path="url(#clip0)">
<path d="M9.09428 52.8072L9.06946 52.7968C7.79328 52.2547 7.34001 51.5624 7.3374 50.153V49.6814C7.3374 48.9316 7.3374 48.1675 7.3374 47.4177C7.3374 46.7738 7.46802 46.314 7.75278 45.9691C7.82585 45.8938 7.88222 45.8039 7.91823 45.7053C7.95424 45.6067 7.96908 45.5017 7.96178 45.397C7.91998 45.1357 7.68355 44.9842 7.5268 44.8836C7.06179 44.5845 6.59285 44.2697 6.14089 43.9693C5.6184 43.6218 5.08807 43.2626 4.5486 42.9243C4.14759 42.6631 3.90594 42.33 4.02611 41.5057C4.21891 40.306 4.21891 39.0833 4.02611 37.8836C3.89549 37.1077 4.16849 36.7733 4.48329 36.5277C6.04293 35.3064 7.87949 34.5592 10.0792 34.2431C10.5886 34.1699 11.0993 34.1281 11.712 34.0863C12.126 34.0589 12.339 33.8669 12.4043 33.4646C12.8484 30.6862 14.5922 28.4212 17.0701 27.405C19.0647 26.5873 21.1586 25.7631 22.841 25.1008C23.0788 25.0081 23.2643 24.9192 23.3021 24.7089C23.3452 24.4699 23.1349 24.2818 23.0213 24.1799C22.0814 23.3345 21.3965 22.2432 21.0437 21.0293C20.9013 20.5577 20.6165 20.3474 20.1293 20.3474H19.9908C19.2711 20.3474 18.793 20.2233 18.3907 19.9347C17.7271 19.4566 17.3993 18.8479 17.3875 18.0759C17.3875 17.8878 17.3875 17.6997 17.3875 17.5129C17.3875 17.1955 17.3954 16.8768 17.3771 16.5581C17.3617 16.2302 17.4115 15.9025 17.5236 15.5939C17.6357 15.2854 17.8079 15.0022 18.0302 14.7607C18.1248 14.6499 18.1942 14.5198 18.2337 14.3795C18.2732 14.2393 18.2817 14.0921 18.2588 13.9482C17.9688 10.2059 19.4723 7.20284 22.7274 5.02143C24.5299 3.82046 26.6498 3.18463 28.8157 3.19532C31.8932 3.19532 34.8244 4.43624 36.8621 6.59152C38.8345 8.68149 39.6966 11.1372 39.4236 13.8829C39.3982 14.0554 39.4127 14.2315 39.4662 14.3975C39.5196 14.5636 39.6105 14.7151 39.7319 14.8404C39.9402 15.0636 40.098 15.329 40.1947 15.6186C40.2914 15.9083 40.3247 16.2153 40.2923 16.5189C40.2542 16.936 40.2542 17.3557 40.2923 17.7728C40.331 18.0688 40.3088 18.3696 40.227 18.6567C40.1453 18.9437 40.0057 19.2111 39.8168 19.4422C39.6391 19.6643 39.4811 19.9647 39.8285 20.3174C40.4044 20.9302 40.946 21.5742 41.4509 22.2467L41.4731 22.2767C41.6037 22.4426 41.7343 22.6085 41.865 22.7744C42.5037 23.5777 43.243 23.9853 44.062 23.9853C44.6414 23.9672 45.2057 23.796 45.6974 23.4889C45.8636 23.3851 46.0541 23.3265 46.25 23.3191C46.6327 23.3191 46.89 23.6156 46.937 24.1146C47.0855 25.4372 46.9592 26.7762 46.5661 28.0477C46.2851 29.0049 45.7258 29.8569 44.9594 30.4955C44.6524 30.7476 44.5858 31.018 44.7478 31.3825C45.1567 32.3033 45.3474 33.3418 45.3487 34.6624C45.3487 36.4728 45.3487 38.2841 45.3487 40.0963V43.9497C45.3487 44.7883 45.4675 44.9045 46.3231 44.9072H46.4276H46.5125C46.5377 44.9052 46.5631 44.9052 46.5883 44.9072C46.6405 44.9072 46.6902 44.915 46.7346 44.915C46.8229 44.9199 46.9112 44.9067 46.9943 44.8764C47.0774 44.8461 47.1535 44.7992 47.2179 44.7386C47.3628 44.5654 47.4333 44.3419 47.4138 44.1169C47.4021 42.1092 47.4034 40.0832 47.406 38.1239V36.6871C47.406 35.0033 48.336 34.0746 50.0184 34.0576H50.2927H50.6324C50.8936 34.0576 51.0843 34.0641 51.2672 34.0785C51.727 34.1151 52.0183 34.3855 51.9908 34.7525C51.9726 34.9475 51.882 35.1285 51.737 35.26C51.5919 35.3915 51.4029 35.464 51.2071 35.4631C51.1091 35.4631 51.0099 35.4631 50.9119 35.4631H50.2954C50.0942 35.4631 49.9322 35.4631 49.7846 35.471H49.3627C49.2287 35.4674 49.0987 35.5169 49.0009 35.6086C48.903 35.7003 48.8453 35.8268 48.8402 35.9608C48.847 36.0962 48.9061 36.2236 49.005 36.3162C49.104 36.4088 49.235 36.4594 49.3705 36.4572C49.6226 36.4715 50.2653 36.482 50.4155 36.4833H50.4312C50.6279 36.4816 50.8246 36.4908 51.0203 36.5107C51.4814 36.5656 51.744 36.8098 51.7244 37.1638C51.7048 37.5178 51.4057 37.7425 50.9628 37.7477H50.729C50.4678 37.7477 50.2065 37.7477 49.9453 37.7477C49.6527 37.7477 49.3967 37.7477 49.1615 37.736H49.1328C49.0619 37.7322 48.9911 37.7453 48.9261 37.7741C48.8612 37.8029 48.804 37.8467 48.7592 37.9018C48.7121 37.9605 48.6829 38.0315 48.675 38.1063C48.6671 38.1811 48.6809 38.2566 48.7148 38.3238C48.7497 38.3954 48.8038 38.4559 48.8712 38.4983C48.9386 38.5408 49.0166 38.5636 49.0962 38.5641C49.684 38.5641 50.3032 38.5641 50.5409 38.5641H50.5579C50.7542 38.5618 50.9505 38.571 51.1457 38.5915C51.6068 38.6464 51.8694 38.8907 51.8498 39.2447C51.8302 39.5986 51.531 39.8233 51.0882 39.8285H50.588C50.1961 39.8285 49.7441 39.8285 49.4607 39.8285H49.1642C49.0746 39.8325 48.9878 39.8608 48.9132 39.9105C48.8386 39.9603 48.779 40.0295 48.7409 40.1107C48.7041 40.1869 48.6893 40.2719 48.698 40.3561C48.7068 40.4403 48.7389 40.5204 48.7906 40.5875C48.9395 40.7808 49.1903 40.7808 49.3549 40.7808H49.5443C49.6318 40.7808 49.7311 40.7808 49.8447 40.7808H50.0263C50.1282 40.7808 50.2287 40.7808 50.3306 40.7808H50.908C51.053 40.7808 51.198 40.7808 51.3416 40.7808C51.5049 40.7785 51.6627 40.8393 51.7822 40.9505C51.9016 41.0617 51.9736 41.2148 51.983 41.3777C51.9837 41.4577 51.9686 41.537 51.9385 41.6112C51.9085 41.6853 51.8641 41.7528 51.8079 41.8097C51.7517 41.8666 51.6848 41.9119 51.6111 41.9429C51.5373 41.9739 51.4582 41.99 51.3782 41.9903C51.0491 42.0008 50.7068 42.0047 50.3332 42.0047C50.018 42.0047 49.7028 42.0017 49.3875 41.9956H49.3614C49.266 41.9882 49.17 42.0011 49.08 42.0335C48.9899 42.066 48.9077 42.1171 48.8389 42.1837C48.7757 42.2601 48.7295 42.3492 48.7034 42.4449C48.6772 42.5406 48.6718 42.6408 48.6874 42.7388C48.7097 43.0153 48.7097 43.2931 48.6874 43.5696C48.6208 44.2776 48.6325 45.013 49.5456 45.5511C50.1987 45.9339 50.3398 46.7267 50.3476 47.3315C50.3554 48.0304 50.3476 48.7409 50.3476 49.4293V50.1634C50.3476 51.5768 49.893 52.2678 48.6129 52.8033L48.5894 52.8138L9.09428 52.8072ZM16.2785 43.887C16.1997 43.8907 16.1219 43.9056 16.0473 43.9314C15.536 44.0914 15.0403 44.2973 14.5661 44.5466C14.4354 44.6146 14.1964 44.7386 14.1742 44.9855C14.152 45.2324 14.3662 45.4127 14.459 45.4897C15.0259 45.9521 15.2897 46.5595 15.2688 47.3433C15.2571 47.7351 15.261 48.127 15.2688 48.5045C15.2688 48.6756 15.2688 48.8415 15.2688 49.0087C15.2688 49.1093 15.2688 49.2099 15.261 49.3105C15.2432 49.5644 15.2502 49.8194 15.2819 50.072C15.2905 50.2159 15.2777 50.3603 15.244 50.5004C15.1865 50.8178 15.1003 51.2972 15.5353 51.5454C15.7288 51.6462 15.9456 51.6939 16.1636 51.6839C16.319 51.6839 16.4784 51.6682 16.6325 51.6538C16.7867 51.6395 16.9199 51.6264 17.0505 51.6264H17.0701C17.5168 51.6264 17.5848 51.4017 17.607 51.3286C17.6608 51.1621 17.7245 50.999 17.7977 50.84C18.0093 50.3554 18.2274 49.8538 18.0067 49.2256C17.8277 48.7122 17.6553 48.1806 17.4842 47.6777C17.3418 47.2466 17.2047 46.826 17.061 46.408C16.818 45.6961 16.6195 45.0521 16.656 44.3703C16.6646 44.3044 16.6595 44.2375 16.641 44.1737C16.6226 44.1099 16.5913 44.0505 16.5489 43.9993C16.5145 43.9638 16.4733 43.9356 16.4277 43.9163C16.3822 43.897 16.3332 43.887 16.2838 43.887H16.2785ZM41.4417 41.9903C41.0812 41.9903 40.8709 42.0008 40.7416 42.1745C40.6123 42.3482 40.6632 42.5664 40.7625 42.8982C41.1393 44.1276 41.0722 45.4503 40.5731 46.6353C40.4229 47.0102 40.304 47.3994 40.1878 47.7743C40.0702 48.1848 39.9316 48.589 39.7724 48.9852C39.3805 49.8996 39.8011 50.7081 40.1042 51.2959C40.1684 51.4185 40.2673 51.5194 40.3886 51.5861C40.5099 51.6528 40.6481 51.6823 40.786 51.6708C40.908 51.6683 41.0298 51.6578 41.1504 51.6395C41.252 51.6233 41.3546 51.6137 41.4574 51.6107C41.4929 51.61 41.5284 51.6131 41.5632 51.6199C41.609 51.6269 41.6553 51.6304 41.7017 51.6303H41.7983H41.8715H41.9355C42.0048 51.6351 42.0743 51.626 42.14 51.6035C42.2057 51.5811 42.2663 51.5458 42.3182 51.4997C42.3687 51.4382 42.4063 51.3672 42.4288 51.2909C42.4512 51.2146 42.458 51.1346 42.4488 51.0556C42.4214 49.8695 42.4175 48.6626 42.4136 47.4948V47.2074C42.4136 46.3976 42.7493 45.7706 43.3919 45.3787C43.9523 45.0391 44.1561 44.6198 44.0738 43.9745C44.0711 43.9345 44.0711 43.8943 44.0738 43.8543C44.0738 43.8047 44.0738 43.7538 44.0738 43.6963C44.0693 43.5522 44.0772 43.408 44.0973 43.2652C44.1365 42.9086 44.1809 42.505 43.9144 42.2124C43.8308 42.1244 43.7292 42.0554 43.6164 42.0104C43.5037 41.9653 43.3826 41.9451 43.2613 41.9512C43.1336 41.9535 43.0062 41.964 42.8799 41.9825C42.7826 41.9975 42.6844 42.0063 42.586 42.0086C42.5545 42.0089 42.5231 42.0067 42.4919 42.0021H42.4697H41.443L41.4417 41.9903ZM11.3162 46.1833C10.7858 46.1833 10.262 46.1833 9.75915 46.1912C9.05117 46.199 8.63449 46.6131 8.6175 47.3276C8.60836 47.6829 8.6175 48.0434 8.6175 48.3922C8.6175 48.5594 8.6175 48.7279 8.6175 48.8964C8.6175 49.0649 8.6175 49.206 8.6175 49.3601C8.6175 49.7049 8.6175 50.0615 8.6175 50.4155C8.62926 51.1771 9.02113 51.5911 9.75262 51.612C10.2568 51.6277 10.7806 51.6342 11.3123 51.6342C11.8217 51.6342 12.3572 51.6277 12.8928 51.6146C13.5995 51.5977 14.0162 51.1967 14.0371 50.5161C14.0697 49.428 14.0684 48.3373 14.0371 47.2767C14.0148 46.5843 13.6086 46.1977 12.8954 46.1912C12.3677 46.1859 11.8413 46.1833 11.3162 46.1833ZM45.4401 46.1833C45.2376 46.1833 45.0365 46.1833 44.834 46.1833C44.0842 46.1964 43.6989 46.5752 43.6885 47.2923C43.6741 48.3073 43.6741 49.347 43.6885 50.4717C43.6989 51.3756 44.254 51.5833 44.7178 51.599C45.2546 51.6159 45.8006 51.6251 46.3388 51.6251C46.877 51.6251 47.4517 51.6159 48.0042 51.5977C48.6835 51.5741 49.0623 51.1627 49.0688 50.439C49.078 49.347 49.078 48.3386 49.0688 47.3589C49.0597 46.5922 48.6573 46.1964 47.8697 46.1833H47.308H45.4401ZM22.6307 42.8394C21.2926 42.8442 19.9586 42.9861 18.6493 43.2626C18.2784 43.3384 18.072 43.5448 17.9792 43.9327C17.8591 44.4317 17.8983 44.9346 18.1099 45.5629C18.2013 45.8385 18.2888 46.1167 18.3711 46.3936V46.4067C18.6102 47.1565 18.857 47.9311 19.1549 48.6769C19.4527 49.4228 19.4605 50.0772 19.1731 50.7342C19.0621 50.989 18.9563 51.2306 19.0869 51.4292C19.2176 51.6277 19.437 51.6277 19.7975 51.6277H37.8823C38.2741 51.6277 38.4897 51.6186 38.6164 51.4265C38.7431 51.2345 38.6412 50.9707 38.5262 50.7016C38.2545 50.0707 38.2585 49.4633 38.538 48.7331C38.7992 48.0512 39.0213 47.3446 39.2368 46.6614C39.3426 46.3218 39.4641 45.9378 39.5869 45.5707C39.7775 45.0322 39.8115 44.4506 39.6849 43.8935C39.0749 41.2732 38.4204 38.4256 37.685 35.1862C37.5831 34.7408 37.3167 34.5239 36.8686 34.5239C35.4309 34.5239 33.9941 34.5261 32.5581 34.5305H29.3356H28.1796C27.9523 34.5305 27.7394 34.5461 27.6323 34.7421C27.5252 34.938 27.6323 35.1496 27.7263 35.292C27.7755 35.4026 27.7936 35.5246 27.7786 35.6447V37.6798C27.7786 39.6827 27.7786 41.6856 27.7786 43.6884C27.7786 44.3638 27.4768 44.5048 27.226 44.5048C27.0433 44.4957 26.8649 44.4461 26.7036 44.3598C25.9499 43.9928 25.1674 43.5983 24.483 43.2496L24.1342 43.0732C23.9006 42.9491 23.6432 42.8761 23.3792 42.859C23.1284 42.8446 22.8802 42.8394 22.6307 42.8394ZM10.9805 44.9072C11.3018 44.9072 11.6223 44.9072 11.9419 44.9072C12.0815 44.9172 12.2215 44.891 12.348 44.831C12.4746 44.771 12.5835 44.6794 12.6642 44.5649C13.1867 43.8047 13.9704 43.4024 14.7359 43.081C16.4771 42.3522 18.3541 42.0099 19.9608 41.7748C20.5199 41.6925 20.7537 41.413 20.7171 40.8696C20.7001 40.624 20.704 40.3785 20.708 40.1185C20.708 39.9983 20.708 39.8808 20.708 39.7645C20.708 39.6483 20.708 39.5111 20.708 39.3844C20.708 39.0931 20.708 38.794 20.708 38.5027C20.7236 38.0521 20.5251 37.8156 20.0862 37.7595C19.0684 37.6189 18.0886 37.2779 17.2033 36.7563C16.2002 36.1868 15.099 35.6355 13.8529 35.4605C13.285 35.3813 12.7124 35.3416 12.1391 35.3416C11.6499 35.3421 11.161 35.3696 10.6748 35.4239C8.94479 35.6009 7.27886 36.1744 5.8065 37.0998C5.6337 37.1975 5.49177 37.3417 5.39686 37.5161C5.30196 37.6904 5.25788 37.8879 5.26964 38.086C5.28662 39.0565 5.28662 40.1094 5.26964 41.302C5.25468 41.4831 5.29081 41.6648 5.37394 41.8264C5.45706 41.988 5.58384 42.1231 5.73988 42.2163C6.82666 42.9269 7.9252 43.661 8.98717 44.3729L9.44043 44.676C9.65347 44.8278 9.90771 44.9112 10.1693 44.915L10.9805 44.9072ZM23.2329 41.5541C23.8619 41.5646 24.4749 41.754 25.0002 42.1001C25.1212 42.1715 25.2464 42.2356 25.3751 42.2921C25.4844 42.3398 25.5909 42.3938 25.6938 42.4541C25.8274 42.5524 25.9857 42.6117 26.151 42.6252C26.2043 42.6258 26.2571 42.6156 26.3063 42.5952C26.3555 42.5748 26.4 42.5445 26.4371 42.5063C26.5755 42.3626 26.5847 42.1301 26.5782 41.9433C26.5586 41.4208 26.5625 40.8983 26.5664 40.3837C26.5664 40.1577 26.5664 39.9343 26.5664 39.7123C26.5664 39.4902 26.5664 39.2695 26.5664 39.0487C26.5664 38.5262 26.5586 38.0037 26.5768 37.4812C26.5834 37.2905 26.5768 37.0776 26.4397 36.9405C26.4027 36.903 26.3585 36.8735 26.3098 36.8535C26.2611 36.8335 26.2089 36.8236 26.1562 36.8242C26.0046 36.8371 25.8582 36.8859 25.7291 36.9666L25.6416 37.0149C24.7965 37.476 23.9984 37.911 23.0748 37.911C22.9288 37.9108 22.7829 37.8994 22.6386 37.877C22.6009 37.8716 22.563 37.8685 22.5249 37.8679C22.4574 37.8659 22.3902 37.8776 22.3274 37.9023C22.2645 37.927 22.2073 37.9642 22.1592 38.0116C22.005 38.1644 21.9841 38.3799 21.9855 38.5902C21.9868 38.8005 21.9855 38.9821 21.9855 39.1702C21.9855 39.6809 21.9946 40.2152 21.975 40.7246C21.9685 40.9232 21.975 41.2092 22.167 41.4025C22.2339 41.4677 22.3136 41.5182 22.4011 41.5508C22.4886 41.5834 22.5819 41.5974 22.6751 41.5919C22.7332 41.5917 22.7913 41.5877 22.8489 41.5802C22.9762 41.5636 23.1045 41.5548 23.2329 41.5541V41.5541ZM42.1837 40.7703C42.5847 40.7703 42.957 40.7769 43.3227 40.7886H43.3776C43.4738 40.7961 43.5705 40.7837 43.6617 40.7523C43.753 40.7208 43.8368 40.6709 43.9079 40.6057C43.976 40.5227 44.0267 40.4268 44.0572 40.3239C44.0877 40.2209 44.0974 40.1129 44.0855 40.0062C44.0725 39.2969 44.0751 38.5811 44.0777 37.8888C44.0777 37.6032 44.0777 37.318 44.0777 37.0332C44.0777 36.7628 44.0777 36.4937 44.0777 36.2233V36.1776C44.0777 35.5624 44.0882 34.9249 44.0686 34.2914C43.9902 31.6698 42.7819 29.7954 40.4777 28.7191C39.8521 28.4278 39.2016 28.1744 38.5733 27.9353C38.329 27.84 38.086 27.7459 37.8444 27.6492L37.8026 27.6283C37.7118 27.5741 37.6091 27.5427 37.5035 27.5369C37.4474 27.5378 37.3921 27.5498 37.3408 27.5722C37.2894 27.5947 37.2431 27.627 37.2043 27.6675C37.0175 27.8517 37.0659 28.0672 37.1299 28.2344C37.139 28.2606 37.1455 28.2762 37.1495 28.2919C38.2049 32.0303 39.1976 36.0222 40.1029 40.1564C40.1982 40.5875 40.4581 40.7978 40.8983 40.7978H40.9415C41.3908 40.7742 41.7957 40.769 42.1837 40.769V40.7703ZM20.7367 34.5305C20.3448 34.5305 20.0914 34.7316 20.0326 35.0961C20.0157 35.1912 19.9939 35.2854 19.9673 35.3782C19.9517 35.4383 19.936 35.4945 19.9229 35.5519C19.8472 35.8707 19.7832 36.145 19.9373 36.3461C20.0914 36.5473 20.3853 36.5577 20.6962 36.5669C21.0789 36.5786 21.493 36.5839 22.0024 36.5839C22.3003 36.5839 22.5981 36.5839 22.8959 36.5839H23.4445C23.598 36.5847 23.7497 36.5512 23.8886 36.4859C24.5853 36.1428 25.2819 35.7966 25.9786 35.4474L26.7793 35.049L26.6487 34.5383H20.738L20.7367 34.5305ZM20.192 27.5369C20.103 27.541 20.0161 27.5647 19.9373 27.6061L19.9072 27.6192C19.5755 27.7577 19.2332 27.8805 18.9028 28.0111C18.1552 28.2699 17.4285 28.5856 16.7292 28.9555C14.988 29.9325 13.96 31.4569 13.6739 33.4855C13.6486 33.5709 13.6413 33.6607 13.6525 33.749C13.6637 33.8374 13.6933 33.9225 13.7392 33.9988C13.797 34.0738 13.8699 34.1357 13.9532 34.1807C14.0364 34.2257 14.1282 34.2528 14.2225 34.2601C15.2216 34.4374 16.1852 34.7762 17.0753 35.2633C17.1783 35.3211 17.2774 35.3857 17.3719 35.4566C17.6017 35.6199 17.8604 35.804 18.1347 35.804C18.2151 35.8039 18.2946 35.7875 18.3685 35.7557C18.7525 35.5872 18.7969 35.1535 18.8322 34.8035C18.8404 34.6807 18.8587 34.5588 18.8871 34.439C19.3221 32.848 19.7479 31.2531 20.1593 29.7092L20.5316 28.3154C20.5316 28.2971 20.5434 28.2775 20.5499 28.2593C20.6218 28.0581 20.6636 27.836 20.4559 27.6466C20.3854 27.5773 20.2908 27.5379 20.192 27.5369V27.5369ZM33.2856 26.2568C33.3026 26.3339 33.3157 26.3992 33.3261 26.4567C33.3483 26.5651 33.3653 26.6513 33.3888 26.7388L33.5639 27.3841C33.9906 28.9516 34.4194 30.5225 34.8505 32.097C35.1118 33.044 35.2058 33.2726 36.1045 33.2726H36.384H36.4402C36.5368 33.2824 36.6344 33.2694 36.7252 33.2347C36.8159 33.2 36.8973 33.1445 36.9627 33.0727C37.1077 32.8794 37.0397 32.6312 37.0032 32.498C36.6548 31.2544 36.3139 30.0092 35.9804 28.7622L35.5376 27.1424C35.5141 27.0056 35.4561 26.877 35.369 26.7689C35.2819 26.6607 35.1686 26.5767 35.0399 26.5246C34.7343 26.4123 34.4417 26.2934 34.1033 26.1562L33.6396 25.9694L33.1864 25.7892L33.2856 26.2568ZM24.078 25.9551L23.6587 26.1249C23.3975 26.2333 23.1676 26.326 22.939 26.3966C22.4857 26.5363 22.2271 26.8211 22.0978 27.3227C21.8261 28.3794 21.5322 29.4466 21.2474 30.4799L21.2357 30.5256C21.1007 31.0124 20.967 31.5 20.8347 31.9885C20.6766 32.575 20.6178 32.8219 20.7746 33.0335C20.9313 33.2451 21.1664 33.2543 21.7386 33.2647H21.8379C22.4661 33.2647 22.6425 32.8729 22.7248 32.5424C22.8724 31.9441 23.0409 31.3394 23.2042 30.7542L23.3348 30.7751L23.2042 30.7398C23.2812 30.4629 23.3596 30.1859 23.4354 29.9077C23.6535 29.1044 23.8716 28.3011 24.0989 27.4585L24.5574 25.7604L24.078 25.9551ZM31.1134 33.2517C31.8488 33.2517 32.4457 33.2517 32.9917 33.2608H33.0153C33.1393 33.2608 33.4319 33.2608 33.5926 33.0492C33.7363 32.8598 33.6958 32.6181 33.637 32.4065C33.0688 30.3714 32.5137 28.3011 32.0382 26.5207C31.9402 26.1549 31.7312 25.976 31.3994 25.976C31.3276 25.9768 31.256 25.9834 31.1852 25.9956C30.4162 26.1174 29.6388 26.1786 28.8601 26.1784C28.0871 26.1773 27.3152 26.1193 26.5507 26.0047C26.473 25.9916 26.3944 25.9846 26.3156 25.9838C25.8558 25.9838 25.7134 26.2973 25.6403 26.5703C25.1857 28.2815 24.641 30.314 24.0493 32.4052C23.997 32.5868 23.9461 32.852 24.095 33.0479C24.2439 33.2438 24.5496 33.2608 24.7076 33.2608H24.7429C25.2654 33.2608 25.8467 33.253 26.5638 33.253H29.96L31.1134 33.2517ZM34.3581 24.7612C34.4042 24.837 34.4649 24.9029 34.5366 24.9551C34.6084 25.0073 34.6897 25.0449 34.776 25.0655C34.8022 25.0734 34.8205 25.0786 34.8361 25.0851C36.7519 25.8558 38.6699 26.6234 40.5901 27.388C41.6226 27.7848 42.5561 28.4022 43.3253 29.1971C43.5487 29.4283 43.7093 29.5968 43.9327 29.5968C44.1561 29.5968 44.305 29.4388 44.561 29.137C45.4571 28.0842 45.6334 26.8237 45.7366 25.6233C45.7489 25.547 45.7453 25.4691 45.7262 25.3943C45.7071 25.3195 45.6729 25.2494 45.6256 25.1883C45.5878 25.146 45.5412 25.1124 45.4891 25.0898C45.437 25.0673 45.3806 25.0563 45.3238 25.0577C45.2352 25.0613 45.1474 25.0763 45.0626 25.1021C45.0429 25.1085 45.0228 25.1138 45.0025 25.1178C44.6816 25.1978 44.3523 25.239 44.0215 25.2406C43.0066 25.2406 42.1144 24.8356 41.2915 24.001C41.033 23.7279 40.7905 23.44 40.5653 23.1388C40.4725 23.0187 40.3785 22.8985 40.2831 22.7809L40.1747 22.6503C39.6473 21.9631 39.0716 21.3144 38.4518 20.7092C38.2221 20.4693 37.9096 20.3259 37.5779 20.3082C37.1377 20.3082 36.7824 20.6152 36.6009 21.1521C36.4508 21.5989 36.2579 22.0303 36.0248 22.44C35.5929 23.1857 35.0458 23.8585 34.4038 24.4333L34.247 24.5757L34.3581 24.7612ZM27.277 11.2848C27.0092 11.2848 26.8407 11.5356 26.7689 11.6427C25.7561 13.1534 24.2904 14.3041 22.5824 14.9292C22.0416 15.133 21.9776 15.5196 21.9815 15.8344C21.9881 16.3295 21.9815 16.8297 21.9815 17.3131C21.9815 17.9009 21.9815 18.5083 21.992 19.1104C22.0429 21.5309 23.6391 23.7162 25.9655 24.5483C26.8368 24.8618 27.7159 24.9009 28.3834 24.9009C28.7125 24.9009 29.0456 24.8905 29.3683 24.88H29.3852C29.5838 24.8735 29.7771 24.867 29.9796 24.8631C32.3308 24.816 34.4782 23.2616 35.3351 20.9953C35.7113 19.996 35.7061 18.9707 35.7009 17.9792V16.3491C35.7009 15.4216 35.6081 15.3145 34.7094 15.2022H34.6898C31.8971 14.8495 29.5733 13.6347 27.7864 11.6022C27.6858 11.482 27.5134 11.2848 27.277 11.2848ZM37.6628 15.2884C37.5657 15.2824 37.4684 15.2957 37.3765 15.3276C37.2846 15.3594 37.1999 15.4091 37.1273 15.4739C37.0641 15.5498 37.0174 15.638 36.9899 15.7328C36.9625 15.8277 36.955 15.9272 36.9679 16.0251C36.981 16.2864 36.9783 16.5411 36.9757 16.8088V16.8363C36.9757 16.9512 36.9757 17.0675 36.9757 17.1837V17.5495C36.9757 17.8512 36.9757 18.1517 36.9757 18.4534C36.9757 18.6846 37.0202 18.9367 37.3415 19.049C37.4888 19.1007 37.6438 19.1272 37.8 19.1274C38.123 19.1285 38.4343 19.0067 38.6708 18.7867C38.9074 18.5667 39.0513 18.2649 39.0735 17.9427C39.1023 17.5691 39.0957 17.1942 39.0879 16.8324V16.6495C39.0709 15.7116 38.636 15.2923 37.6772 15.2871L37.6693 15.1565L37.6628 15.2884ZM19.9373 15.2414C19.2737 15.2414 18.6885 15.7573 18.6585 16.3687C18.6389 16.7527 18.6428 17.138 18.6467 17.5116V17.7454C18.6546 18.7081 19.0216 19.083 19.953 19.083H20.03C20.2221 19.0923 20.4099 19.0252 20.5525 18.8962C20.6117 18.8237 20.6559 18.7402 20.6825 18.6505C20.7092 18.5608 20.7179 18.4668 20.708 18.3737C20.6975 18.1125 20.7001 17.8434 20.708 17.5834C20.708 17.4528 20.708 17.3366 20.708 17.2164V16.8611C20.708 16.5563 20.708 16.2515 20.708 15.9467V15.9115C20.708 15.6986 20.6727 15.4634 20.3997 15.338C20.2551 15.2733 20.0983 15.2404 19.9399 15.2414H19.9373ZM27.1829 9.07336C27.4442 9.07336 27.6271 9.21182 27.8361 9.56711C28.4087 10.5197 29.159 11.3533 30.0462 12.0228C31.8423 13.4309 33.9923 14.088 36.8164 14.088H37.2958C38.0886 14.088 38.2101 13.9678 38.2219 13.1971C38.2585 10.9857 37.4786 9.03417 35.9033 7.39747C34.1164 5.54001 31.5418 4.47412 28.8405 4.47412C26.3785 4.4528 23.9991 5.36207 22.1788 7.01996C20.32 8.73896 19.4109 10.8694 19.4749 13.3539V13.3709C19.4919 14.0096 19.825 14.0841 20.0731 14.0841H20.465C20.8816 14.0994 21.298 14.0474 21.6981 13.9299C23.869 13.2167 25.4861 11.7629 26.5128 9.61022C26.6892 9.23925 26.876 9.08772 27.1568 9.07205H27.1856L27.1829 9.07336Z" fill="#00AFA5"/>
</g>
<defs>
<clipPath id="clip0">
<rect width="48" height="49.6119" fill="white" transform="translate(4 3.19403)"/>
</clipPath>
</defs>
</svg>
