<svg width="56" height="56" viewBox="0 0 56 56" fill="none" xmlns="http://www.w3.org/2000/svg">
<g clip-path="url(#clip0)">
<path d="M10.3985 52.0289L10.3733 52.0163C9.73046 51.7119 9.43104 51.2917 9.42979 50.6941V49.8273C9.42979 48.378 9.42979 46.886 9.42979 45.4241C9.42979 44.7951 9.73424 44.3548 10.2576 44.1975C10.8866 44.0075 10.9923 43.644 10.9558 43.1181C10.9005 42.3243 11.1735 41.7845 11.7886 41.4713C11.8538 41.4399 11.9113 41.3946 11.957 41.3385C12.0026 41.2824 12.0354 41.2169 12.0528 41.1467C12.3598 40.0031 11.8817 38.6054 10.9407 37.8946C10.5356 37.5893 10.1314 37.2828 9.72794 36.975C8.53908 36.073 7.31121 35.1407 6.07957 34.2551C4.92216 33.4222 4.28181 32.5995 4.00126 31.5905V31.5741V18.9797L4.02642 18.9457C4.25664 18.6425 4.48184 18.6425 4.55606 18.6425C4.61293 18.6426 4.66956 18.6498 4.72464 18.6639C5.12093 18.7583 5.19893 19.0414 5.19767 19.4905C5.19767 20.7662 5.19767 22.0418 5.19767 23.3175C5.19767 25.6046 5.19767 27.966 5.18635 30.2897C5.1788 31.471 5.60654 32.334 6.53247 33.002C7.79053 33.9078 9.04104 34.8589 10.2538 35.7786C10.7713 36.1711 11.2888 36.5623 11.8063 36.9523C12.5705 37.4987 13.0888 38.3239 13.2493 39.2496C13.3235 39.723 13.3546 40.2022 13.3423 40.6812C13.3264 40.8571 13.3797 41.0322 13.4908 41.1694C13.629 41.2817 13.8052 41.3363 13.9827 41.3216H13.9991C14.9552 41.314 15.895 41.3103 16.7894 41.3103C17.7292 41.3103 18.6577 41.3103 19.5484 41.3228H19.5647C19.7333 41.3366 19.9007 41.2843 20.0315 41.1769C20.1635 41.0511 20.1786 40.8372 20.1786 40.6737C20.1698 38.4004 20.1698 36.0969 20.1711 33.8688V31.8559C20.1711 31.0835 19.8968 30.4608 19.3546 30.0053C16.8637 27.9094 14.9514 26.3092 13.1323 24.8171C12.7396 24.4875 12.2434 24.3066 11.7308 24.3063C11.5384 24.3069 11.3468 24.3297 11.1596 24.3743C10.2274 24.5932 9.61094 25.1769 9.37569 26.0638C9.11653 27.0376 9.37569 27.917 10.1154 28.541C10.9734 29.2669 11.8515 29.994 12.702 30.6973L12.8052 30.7828C13.1767 31.0898 13.5474 31.3972 13.9173 31.705L14.4117 32.1138L14.4394 32.1365C14.9212 32.534 15.4207 32.9442 15.8987 33.3669C15.9623 33.4195 16.0144 33.4846 16.0521 33.558C16.0898 33.6314 16.1122 33.7117 16.118 33.794C16.1237 33.8763 16.1128 33.959 16.0857 34.0369C16.0586 34.1149 16.0159 34.1865 15.9604 34.2475C15.9071 34.3138 15.8397 34.3674 15.7631 34.4044C15.6865 34.4414 15.6026 34.4609 15.5175 34.4614C15.3692 34.4578 15.2252 34.4105 15.1036 34.3255C14.9961 34.2516 14.8928 34.1718 14.7942 34.0865L9.4864 29.6833C8.4963 28.863 7.96918 27.7786 7.99937 26.6312C8.02956 25.4839 8.61205 24.4397 9.63485 23.6786C9.75508 23.6004 9.85303 23.4925 9.91917 23.3653C9.98531 23.2381 10.0174 23.0959 10.0123 22.9527C10.0123 21.6569 10.0123 20.3606 10.0123 19.064C10.0123 17.3392 10.0123 15.5565 10.0047 13.804C9.99843 12.5913 9.07753 11.571 7.90627 11.4817C7.8245 11.4741 7.74147 11.4716 7.66095 11.4716C6.42554 11.4716 5.48577 12.2378 5.27064 13.4229C5.1784 14.0453 5.151 14.6756 5.18887 15.3037C5.19767 15.5905 5.20522 15.8849 5.19893 16.1717C5.19138 16.5491 5.15867 16.8498 4.81145 17.0008C4.73573 17.036 4.65342 17.0549 4.5699 17.0561C4.35603 17.0561 4.18116 16.9089 4.03648 16.7643L4 16.7278V13.1096V13.092C4.38622 11.7408 5.1398 10.869 6.30225 10.4287C6.72878 10.2649 7.18143 10.1797 7.63831 10.1771C9.59459 10.1771 11.1609 11.6704 11.2867 13.6493C11.3156 14.1047 11.4729 14.3173 11.888 14.4582C12.6057 14.7011 13.228 15.1649 13.6658 15.7833C14.1036 16.4016 14.3343 17.1427 14.3249 17.9003C14.3324 20.1069 14.3312 21.9198 14.3249 23.6043C14.3147 23.7693 14.3454 23.9342 14.414 24.0845C14.4827 24.2347 14.5873 24.3658 14.7187 24.4661C15.3477 24.9794 15.9692 25.5078 16.5768 26.0198L16.5881 26.0286C17.5946 26.8778 18.6363 27.7547 19.6855 28.5875C20.9259 29.5713 21.4946 30.7702 21.4732 32.3617C21.4493 34.1532 21.4531 35.9761 21.4568 37.7374C21.4568 38.7589 21.4568 39.7805 21.4568 40.8033C21.4568 41.1039 21.5034 41.4172 21.8506 41.6701C22.3714 42.0475 22.4192 42.6388 22.3928 43.2187C22.3714 43.6716 22.4696 43.9874 23.0219 44.156C23.6006 44.3334 23.9226 44.785 23.9264 45.4367C23.9365 46.9615 23.9365 48.5819 23.9264 50.669C23.9264 51.2552 23.6257 51.6754 22.9891 52.0113L22.9627 52.0252L10.3985 52.0289ZM19.493 50.8287C20.4906 50.8287 21.2543 50.8287 21.9877 50.8401H22.0079C22.1867 50.8551 22.3645 50.8001 22.5035 50.6866C22.6194 50.5401 22.6728 50.3538 22.652 50.1683C22.6356 48.8951 22.6344 47.5263 22.652 45.9777C22.6701 45.7968 22.6164 45.616 22.5023 45.4744C22.3653 45.3607 22.1891 45.3051 22.0116 45.3197C20.2353 45.3247 18.4622 45.3272 16.6926 45.3272C14.8902 45.3272 13.087 45.3247 11.2829 45.3197C11.1959 45.3113 11.1081 45.3202 11.0245 45.3459C10.941 45.3716 10.8633 45.4136 10.796 45.4694C10.7399 45.5396 10.698 45.6202 10.673 45.7065C10.648 45.7928 10.6402 45.8833 10.6501 45.9726C10.669 47.4559 10.669 48.8272 10.6501 50.1632C10.6501 50.3331 10.6627 50.5406 10.7986 50.6815C10.938 50.7953 11.1162 50.8503 11.2955 50.835H11.3156C12.0302 50.8275 12.7926 50.8237 13.7827 50.8237H15.203H16.6259H18.0601L19.493 50.8287ZM18.8036 44.0352C19.4603 44.0352 19.9925 44.0352 20.4806 44.0491H20.512C20.5971 44.0573 20.6829 44.0478 20.7641 44.0212C20.8454 43.9945 20.9201 43.9513 20.9838 43.8943C21.1172 43.7534 21.1247 43.5421 21.1096 43.3534V43.2502C21.1008 42.9017 21.048 42.5973 20.5145 42.5973H20.5007C19.2338 42.6073 17.9456 42.6136 16.6749 42.6136C15.4043 42.6136 14.1223 42.6136 12.8479 42.5973H12.8379C12.3019 42.5973 12.2491 42.9067 12.239 43.2502C12.239 43.2904 12.239 43.3219 12.239 43.3546C12.2302 43.5421 12.239 43.7534 12.3724 43.8931C12.4365 43.9499 12.5115 43.9931 12.5928 44.0199C12.6741 44.0467 12.7601 44.0566 12.8454 44.0491H12.8794C13.3499 44.039 13.8682 44.0352 14.5149 44.0352H15.5767H16.6385H17.7242H18.8036ZM11.5798 15.7314C11.5471 15.7305 11.5145 15.7364 11.4842 15.7488C11.4539 15.7611 11.4265 15.7796 11.4037 15.8031C11.3194 15.9212 11.2826 16.0667 11.3005 16.2107C11.3118 16.953 11.3106 17.7028 11.3081 18.4274C11.3081 18.7243 11.3081 19.0225 11.3081 19.3194V20.0277C11.3081 20.5779 11.3081 21.1276 11.3081 21.677C11.3081 21.7726 11.3018 21.872 11.2955 21.9764C11.2779 22.2658 11.259 22.5639 11.3873 22.8004C11.5345 23.0697 11.849 23.0785 12.1032 23.086C12.2216 23.0842 12.3399 23.0965 12.4554 23.1225L12.5057 23.1363L12.5837 23.159C12.6495 23.1851 12.7193 23.1996 12.7901 23.2018C12.8281 23.203 12.866 23.1966 12.9015 23.1827C12.937 23.1689 12.9693 23.148 12.9964 23.1212C13.0777 23.0132 13.1146 22.8782 13.0995 22.7438C13.0995 22.0678 13.0995 21.3918 13.0995 20.7158V20.6869C13.0995 19.849 13.0995 18.981 13.0933 18.1255C13.0844 17.0976 12.6907 16.3365 11.9245 15.861C11.8237 15.787 11.7044 15.7422 11.5798 15.7314V15.7314Z" fill="#00AFA5"/>
<path d="M33.0008 52.029L32.9744 52.0164C32.3051 51.6855 32.0019 51.1358 32.0233 50.2979C32.0497 49.2449 32.0447 48.1743 32.0384 47.1389C32.0384 46.6457 32.0384 46.1601 32.0384 45.6733C32.0384 44.7775 32.3466 44.3422 33.1706 44.0705C33.296 44.0437 33.4066 43.9708 33.4805 43.8661C33.5544 43.7614 33.5862 43.6327 33.5694 43.5056C33.5694 43.3295 33.5694 43.1358 33.5694 42.8992C33.5858 42.3054 33.7808 41.8928 34.1846 41.6097C34.2927 41.5375 34.3796 41.4378 34.4362 41.3208C34.4928 41.2038 34.5171 41.0738 34.5067 40.9442C34.4979 40.3743 34.4928 39.8598 34.5067 39.3465C34.5243 38.8546 34.7583 38.5728 35.1496 38.5728H35.1848C35.4049 38.5828 35.7748 38.6986 35.7849 39.3779V39.4043C35.7912 39.8484 35.7974 40.2988 35.7849 40.7392C35.7758 40.8174 35.7822 40.8967 35.8038 40.9725C35.8254 41.0482 35.8617 41.119 35.9107 41.1807C35.9684 41.2316 36.0358 41.2702 36.1089 41.2943C36.182 41.3183 36.2593 41.3271 36.3359 41.3204C37.2903 41.3145 38.2414 41.312 39.1892 41.3128C40.1369 41.3137 41.0863 41.3137 42.0374 41.3128C42.4299 41.3128 42.6086 41.138 42.6161 40.748V40.5769C42.6113 40.1221 42.6432 39.6677 42.7117 39.2182C42.8766 38.3023 43.3685 37.5336 44.1724 36.931C44.7293 36.5116 45.2853 36.0923 45.8405 35.6729C47.0042 34.7923 48.2082 33.8777 49.4122 33.0109C50.3457 32.3403 50.7772 31.4647 50.7734 30.257C50.7596 26.6401 50.7608 22.9766 50.7633 19.4377V14.1299C50.7633 12.8178 50.1255 11.878 49.0159 11.5496C48.7897 11.4821 48.5549 11.4478 48.3189 11.4477C47.6992 11.4453 47.1034 11.6872 46.6607 12.121C46.218 12.5547 45.964 13.1454 45.9538 13.7651C45.9399 15.7365 45.9412 17.7984 45.9424 19.6176C45.9424 20.7322 45.9424 21.8473 45.9424 22.9628C45.9362 23.0986 45.9653 23.2337 46.0268 23.3549C46.0883 23.4762 46.1802 23.5795 46.2934 23.6547C47.3401 24.4397 47.9289 25.5003 47.9616 26.6413C47.9943 27.7824 47.4584 28.8605 46.452 29.6909L42.8803 32.6549L41.2423 34.0211C41.1706 34.0802 41.0977 34.1381 41.0247 34.1947C40.8557 34.344 40.643 34.4349 40.4183 34.4539C40.3354 34.4524 40.254 34.4317 40.1805 34.3935C40.1069 34.3553 40.0432 34.3006 39.9943 34.2337C39.7427 33.923 39.8207 33.5556 40.2145 33.2273C40.6498 32.8608 41.0876 32.4968 41.5279 32.1353L42.0991 31.6635L43.1986 30.7539C44.0289 30.0695 44.8869 29.3613 45.7261 28.6567C46.8269 27.7333 46.998 26.2337 46.1236 25.1681C45.9067 24.9006 45.6329 24.6847 45.3222 24.5361C45.0114 24.3874 44.6715 24.3098 44.3271 24.3089C43.7315 24.3149 43.1568 24.5295 42.7029 24.9153C41.3317 26.0475 39.9478 27.1999 38.6092 28.3196L38.5941 28.3334L36.7309 29.8909C36.4229 30.1411 36.1773 30.4597 36.0137 30.8213C35.8502 31.1829 35.7731 31.5777 35.7886 31.9742C35.7987 32.8926 35.7962 33.8274 35.7886 34.7307C35.7886 35.1232 35.7886 35.5056 35.7886 35.8881V35.9912C35.7886 36.0881 35.7886 36.1736 35.7886 36.2592C35.7685 36.6932 35.5484 36.9499 35.186 36.9625H35.1571C35.0732 36.9676 34.9891 36.9549 34.9104 36.9251C34.8318 36.8953 34.7603 36.8491 34.7009 36.7896C34.6414 36.7302 34.5952 36.6587 34.5655 36.5801C34.5357 36.5014 34.5229 36.4174 34.5281 36.3334C34.5281 35.9032 34.513 35.4528 34.5042 35.064C34.4727 33.7682 34.44 32.4284 34.6023 31.1213C34.7121 30.315 35.1262 29.5813 35.7597 29.0706C37.4807 27.6176 39.3313 26.0588 41.2121 24.5051C41.3562 24.3962 41.4709 24.2531 41.546 24.0889C41.6211 23.9246 41.6542 23.7443 41.6424 23.5641C41.6286 21.823 41.6323 20.0529 41.6361 18.3419V17.9997C41.6361 16.3013 42.5469 15.0068 44.1233 14.447C44.5007 14.3123 44.6504 14.1098 44.6705 13.6921C44.7636 11.8415 46.1991 10.3306 48.0094 10.1784C48.1151 10.1695 48.2208 10.1658 48.3265 10.1658C49.1785 10.1656 50.0041 10.4615 50.6621 11.0029C51.32 11.5442 51.7694 12.2974 51.9333 13.1335C51.9788 13.3876 51.9986 13.6455 51.9925 13.9035C51.9925 16.1252 51.9925 18.3478 51.9925 20.5712V20.8228C51.9925 24.1181 51.9925 27.4125 51.9925 30.7061C51.9925 32.0044 51.4892 33.0184 50.4476 33.8072C50.0425 34.1125 49.6378 34.4199 49.2335 34.7294L49.1643 34.7822C47.8295 35.7987 46.4494 36.8492 45.0593 37.8431C43.8717 38.691 43.8314 39.8711 43.8968 41.1078C43.9077 41.1913 43.9407 41.2703 43.9925 41.3367C44.0442 41.4031 44.1129 41.4544 44.1912 41.4852C44.7485 41.7783 45.014 42.2803 45.0039 43.0188C45.0039 43.103 45.0039 43.1873 45.0039 43.2704V43.2842C45.0039 43.3836 45.0039 43.483 45.0039 43.5824C44.9976 43.8931 45.1876 44.0013 45.3738 44.0642C46.267 44.3699 46.5249 44.736 46.5262 45.6997C46.5262 46.1895 46.5262 46.6789 46.5262 47.1678C46.5262 48.241 46.5174 49.3393 46.5388 50.4187C46.5551 51.2175 46.2519 51.7283 45.5852 52.0265L45.5612 52.0378L33.0008 52.029ZM34.0072 45.3235C33.8136 45.3053 33.6206 45.3641 33.47 45.4871C33.3254 45.633 33.3128 45.8645 33.314 46.0192C33.3367 47.4899 33.3354 48.8448 33.314 50.1633C33.2947 50.3489 33.3484 50.5348 33.4638 50.6816C33.6021 50.8225 33.821 50.8401 33.9959 50.8401H34.0223C34.7445 50.8326 35.5094 50.8288 36.5007 50.8288H37.9185H39.3351H40.7542H42.1733C43.1571 50.8288 43.9207 50.8288 44.6492 50.8401H44.6668C44.7566 50.8489 44.8473 50.8398 44.9337 50.8135C45.02 50.7871 45.1003 50.744 45.17 50.6866C45.2853 50.5419 45.3387 50.3573 45.3184 50.1733C45.2971 48.7492 45.2971 47.3389 45.3184 45.984C45.337 45.8035 45.2842 45.6228 45.1713 45.4808C45.0366 45.3424 44.8215 45.3248 44.6492 45.3248C42.8438 45.3248 41.0511 45.3336 39.3137 45.3336C37.5298 45.3336 35.7471 45.3336 34.0123 45.3248L34.006 45.199L34.0072 45.3235ZM35.4515 42.6011C34.8703 42.6011 34.8615 42.9634 34.8526 43.254C34.8526 43.2892 34.8526 43.3219 34.8526 43.3547C34.8438 43.5459 34.8526 43.761 34.9847 43.8994C35.0478 43.9557 35.1218 43.9985 35.2021 44.0249C35.2824 44.0513 35.3673 44.0608 35.4515 44.0529H35.4829C35.956 44.0428 36.473 44.0378 37.1109 44.0378H38.1727H38.2507H39.2345H40.2271H40.3189H41.4021C42.0601 44.0378 42.5947 44.0378 43.0829 44.0516H43.1156C43.2019 44.0601 43.2891 44.0506 43.3716 44.0237C43.454 43.9969 43.5301 43.9533 43.5949 43.8956C43.7295 43.7535 43.7345 43.5346 43.7207 43.3609C43.7207 43.3219 43.7207 43.2842 43.7207 43.2465C43.7119 42.9068 43.6578 42.6011 43.1256 42.6011C41.8361 42.6124 40.5479 42.6174 39.2873 42.6174C37.9978 42.6174 36.7095 42.6111 35.4603 42.6011H35.4515ZM44.3837 15.7289C44.2585 15.741 44.1393 15.7886 44.0403 15.866C43.3835 16.2938 43.0149 16.8461 42.9457 17.5078C42.8544 18.5683 42.8276 19.6333 42.8652 20.697C42.8728 21.2606 42.8816 21.8418 42.8652 22.4155C42.8577 22.7841 42.8589 22.9527 42.9659 23.0609C43.0348 23.1224 43.1253 23.1541 43.2175 23.149C43.3543 23.1431 43.4905 23.1275 43.6251 23.1024L43.7647 23.0785C43.879 23.0543 43.9952 23.0399 44.112 23.0357C44.1846 23.0426 44.258 23.0343 44.3273 23.0113C44.3966 22.9884 44.4603 22.9513 44.5145 22.9024C44.622 22.7689 44.6722 22.5984 44.6542 22.4281C44.6454 21.6556 44.6479 20.8568 44.6542 20.1523V19.3182C44.6542 19.0221 44.6542 18.7264 44.6542 18.4312C44.6542 17.6978 44.6542 16.9467 44.6617 16.2095C44.6799 16.0649 44.6426 15.9188 44.5573 15.8006C44.5348 15.7774 44.5078 15.7591 44.4779 15.7468C44.4481 15.7345 44.416 15.7284 44.3837 15.7289V15.7289Z" fill="#00AFA5"/>
<path d="M27.981 30.1551C27.6181 30.1549 27.2573 30.0985 26.9117 29.9878C22.4707 28.5926 19.4174 26.0702 17.5769 22.2784C16.8306 20.7309 16.4374 19.0371 16.4257 17.3191C16.3968 15.0181 16.4043 12.6769 16.4119 10.4136V8.92534C16.4119 7.76541 17.0107 6.98038 18.1367 6.66083L23.1689 5.21658L26.9142 4.1422C27.04 4.10697 27.1658 4.06672 27.2853 4.0252L27.4363 3.97614H28.5283L31.1941 4.74355C33.3286 5.35832 35.4635 5.97184 37.5989 6.5841C38.9827 6.97913 39.5489 7.72767 39.5489 9.16815C39.5489 9.97834 39.5489 10.789 39.5489 11.6L39.4231 11.6176H39.5489C39.5489 13.2116 39.5426 14.8596 39.5489 16.48C39.5828 21.8217 37.2038 25.8035 32.2735 28.6505C31.2281 29.2543 30.1235 29.6569 29.1825 29.9576C28.7951 30.0873 28.3895 30.154 27.981 30.1551V30.1551ZM27.9886 5.21281C27.8254 5.2133 27.6632 5.23703 27.5067 5.28326C25.6423 5.8192 23.7774 6.35303 21.9121 6.88477L18.5997 7.83209C17.8989 8.03212 17.7064 8.29128 17.7064 9.0348C17.7064 11.7866 17.7064 14.5375 17.7064 17.2877C17.7072 18.8055 18.0513 20.3035 18.7129 21.6695C20.4503 25.2764 23.447 27.6969 27.6225 28.8606C27.7306 28.8907 27.8423 28.906 27.9546 28.9059C28.1463 28.9001 28.3363 28.8683 28.5195 28.8115C31.3161 28.0365 33.6398 26.5847 35.4275 24.4989C37.3271 22.2809 38.2795 19.7421 38.2568 16.9505C38.2505 16.1554 38.2568 15.3528 38.2568 14.5778C38.2568 14.1903 38.2568 13.8028 38.2568 13.4154V12.0516C38.2568 11.0137 38.2568 9.97582 38.2568 8.93667C38.2568 8.30764 38.0518 8.03464 37.4504 7.86103L32.5893 6.4671L28.4528 5.28074C28.3021 5.23611 28.1457 5.21324 27.9886 5.21281V5.21281Z" fill="#00AFA5"/>
<path d="M27.9861 40.8775C27.6053 40.8685 27.2435 40.7094 26.9796 40.4347C25.8285 39.3163 24.6887 38.1702 23.5904 37.0379C23.0633 36.4919 22.8142 35.8101 22.8066 34.893C22.8708 33.7607 23.4357 32.8989 24.4308 32.3919C24.8518 32.1688 25.3194 32.0482 25.7958 32.0397C26.4104 32.0506 27.0061 32.2538 27.4992 32.6209C27.6371 32.7394 27.8087 32.8115 27.9898 32.8272C28.1471 32.8195 28.2974 32.7603 28.4176 32.6586C28.9359 32.2688 29.5668 32.0577 30.2154 32.0573C30.625 32.0568 31.0301 32.1427 31.4043 32.3094C31.7784 32.4761 32.1132 32.7198 32.3868 33.0247C32.8871 33.5703 33.1646 34.2836 33.1646 35.0238C33.1646 35.764 32.8871 36.4773 32.3868 37.0228C31.2709 38.2255 30.0858 39.3792 28.9686 40.4573C28.7095 40.7218 28.3563 40.8729 27.9861 40.8775V40.8775ZM25.7329 33.3543C25.4142 33.3423 25.0995 33.429 24.832 33.6026C24.5645 33.7763 24.3571 34.0283 24.2383 34.3243C23.9376 35.0137 24.0395 35.6692 24.5252 36.1699C25.1039 36.7649 25.7002 37.3613 26.2764 37.9387C26.7217 38.3841 27.1658 38.8282 27.6061 39.276C27.6527 39.3322 27.7101 39.3783 27.775 39.4116C27.8398 39.4449 27.9108 39.4647 27.9836 39.4698C28.1359 39.4549 28.2761 39.3802 28.3736 39.2622C28.9531 38.6751 29.536 38.088 30.1223 37.5009L30.1738 37.4493L31.3916 36.2265C31.8861 35.7233 32.0207 35.0779 31.7577 34.3948C31.6518 34.0972 31.4581 33.8387 31.2023 33.6535C30.9465 33.4682 30.6406 33.3648 30.3248 33.3569H30.1814C29.8659 33.3486 29.5549 33.4328 29.2866 33.5991C29.0184 33.7655 28.8046 34.0066 28.6717 34.2929C28.5056 34.6187 28.3497 34.8678 28.0037 34.8741C27.6338 34.8741 27.4778 34.6225 27.2979 34.279C26.9859 33.6764 26.4802 33.3581 25.8348 33.3581H25.743L25.7329 33.3543Z" fill="#00AFA5"/>
<path d="M19.7684 48.9454C19.3558 48.9454 19.0664 48.8648 18.9117 48.7051C18.8632 48.6525 18.8261 48.5905 18.8025 48.523C18.7789 48.4555 18.7694 48.3839 18.7746 48.3125C18.7809 48.0169 18.9633 47.6634 19.7886 47.6634H19.8137C19.8502 47.6634 19.8867 47.6634 19.9232 47.6634C20.4931 47.6886 20.8227 47.9427 20.8038 48.3453C20.7849 48.7478 20.4855 48.9391 19.9068 48.9428H19.7672L19.7684 48.9454Z" fill="#00AFA5"/>
<path d="M36.1988 48.9442H35.9862C35.4301 48.9228 35.1508 48.7102 35.1521 48.3152C35.1534 47.9201 35.4805 47.6861 36.0327 47.671C36.0755 47.671 36.117 47.671 36.1586 47.671C36.2954 47.6706 36.432 47.6802 36.5674 47.7C36.9524 47.7604 37.2027 48.0208 37.1889 48.3491C37.1751 48.6775 36.8958 48.9278 36.4768 48.948C36.4441 48.948 36.4114 48.948 36.3775 48.948L36.1988 48.9442Z" fill="#00AFA5"/>
<path d="M27.9661 26.9721C27.845 26.9729 27.7245 26.955 27.6088 26.9193C24.3076 25.8726 21.9953 24.0132 20.5397 21.2329C19.8767 19.9446 19.5316 18.5163 19.5333 17.0674C19.5157 15.369 19.5207 13.6417 19.5257 11.971V10.8891C19.5257 9.85623 19.8604 9.41214 20.8454 9.12781L24.1038 8.19433L24.1592 8.17798C25.2562 7.8643 26.3532 7.54979 27.4503 7.23443C27.6234 7.18314 27.8031 7.15687 27.9837 7.15643C28.154 7.15716 28.3234 7.18172 28.4869 7.2294L30.9125 7.92134H30.9389C32.3592 8.32643 33.8324 8.74411 35.2729 9.1643C36.0453 9.38949 36.4051 9.90152 36.4215 10.7759C36.4303 11.5232 36.4215 12.2453 36.4215 13.0819V13.17C36.4215 13.5235 36.4215 13.8933 36.4215 14.2859C36.4215 14.6784 36.4215 15.0822 36.4215 15.5175C36.4379 16.4686 36.4542 17.4461 36.2957 18.4362C35.8654 21.1435 34.4665 23.3275 32.0183 25.114C30.9553 25.8765 29.7783 26.4659 28.5309 26.8602C28.3496 26.9267 28.159 26.9644 27.9661 26.9721V26.9721ZM28.0013 8.47865C27.8052 8.47925 27.6102 8.50849 27.4226 8.56546C25.299 9.17939 23.3792 9.73294 21.4053 10.2789C20.9738 10.3985 20.8064 10.6287 20.8102 11.103C20.8253 12.9121 20.8215 14.7513 20.819 16.5202V17.2813C20.8175 17.7473 20.8716 18.2119 20.9801 18.6652C21.7701 21.994 23.9642 24.2711 27.683 25.6097C27.7737 25.6425 27.8696 25.6591 27.9661 25.6587C28.1337 25.6519 28.2991 25.6175 28.4555 25.5568C29.4661 25.2167 30.4195 24.726 31.2836 24.1012C33.5317 22.4658 34.7734 20.4856 35.0817 18.0512C35.1586 17.299 35.1809 16.5422 35.1483 15.7867C35.1383 15.3477 35.1295 14.9338 35.1483 14.5538C35.1672 14.1739 35.1483 13.7927 35.1483 13.4392C35.1483 12.5749 35.1483 11.8289 35.1597 11.0627C35.1697 10.6249 34.9999 10.3972 34.5734 10.2777C32.7064 9.75558 30.7388 9.19323 28.5586 8.55665C28.3777 8.5027 28.19 8.47516 28.0013 8.47488V8.47865Z" fill="#00AFA5"/>
<path d="M28.4957 21.5851H28.0906H27.9648H27.6943H27.4062C27.2804 21.5851 27.176 21.5851 27.0804 21.5763C26.7478 21.5548 26.435 21.4106 26.2026 21.1716C25.9702 20.9327 25.8347 20.6161 25.8223 20.283C25.8003 19.911 25.8003 19.5379 25.8223 19.1659C25.8349 18.9998 25.8349 18.7595 25.6965 18.6048C25.6409 18.5517 25.5747 18.5108 25.5024 18.4848C25.43 18.4588 25.353 18.4483 25.2763 18.4538C25.2313 18.454 25.1864 18.4565 25.1417 18.4614C25.0163 18.4741 24.8903 18.48 24.7643 18.479C24.6473 18.479 24.529 18.479 24.412 18.4714H24.173C23.3427 18.4576 22.8042 17.9833 22.6973 17.1706C22.623 16.588 22.623 15.9983 22.6973 15.4156C22.8017 14.6004 23.32 14.1223 24.1566 14.0707C24.3441 14.0582 24.534 14.0531 24.7077 14.0531C24.8662 14.0531 25.0247 14.0531 25.1757 14.067H25.2662C25.3465 14.0742 25.4274 14.0643 25.5036 14.0378C25.5797 14.0114 25.6493 13.969 25.7078 13.9135C25.7624 13.8453 25.8019 13.7663 25.8236 13.6817C25.8452 13.5971 25.8487 13.5089 25.8336 13.4228C25.8172 13.146 25.8147 12.8684 25.8261 12.5913V12.3975C25.8424 11.5773 26.362 11.0137 27.1508 10.9545C27.4238 10.9357 27.7044 10.9256 27.9874 10.9256C28.2705 10.9256 28.546 10.9344 28.8265 10.9533C29.6204 11.0049 30.1462 11.5672 30.1639 12.3837C30.1714 12.7259 30.179 13.1222 30.1639 13.5084C30.1545 13.5835 30.1608 13.6598 30.1824 13.7323C30.2041 13.8049 30.2406 13.8722 30.2897 13.9298C30.3402 13.9765 30.3998 14.0123 30.4647 14.035C30.5296 14.0577 30.5985 14.0669 30.6671 14.0619H30.7036C30.8784 14.0556 31.0508 14.0531 31.2181 14.0531C31.4093 14.0531 31.5955 14.0531 31.7767 14.0645C32.6775 14.1035 33.2197 14.6092 33.3027 15.4886C33.374 16.0872 33.3642 16.6928 33.2738 17.2889C33.228 17.6148 33.0661 17.9132 32.8179 18.1294C32.5697 18.3455 32.2518 18.4647 31.9226 18.4651C31.7226 18.4727 31.515 18.4752 31.286 18.4752C31.0772 18.4752 30.8671 18.4752 30.657 18.4689H30.6356C30.5708 18.4642 30.5057 18.4729 30.4444 18.4945C30.3832 18.5162 30.327 18.5503 30.2796 18.5947C30.2358 18.6448 30.2028 18.7034 30.1827 18.7668C30.1626 18.8303 30.1557 18.8972 30.1626 18.9633C30.1714 19.4238 30.1701 19.844 30.1626 20.2302C30.1643 20.5878 30.024 20.9314 29.7726 21.1857C29.5211 21.4399 29.1791 21.5841 28.8215 21.5864C28.7032 21.5851 28.6001 21.5851 28.4957 21.5851ZM28.1359 20.3472H28.2038C28.2605 20.3555 28.3176 20.3597 28.3749 20.3598C28.4507 20.3647 28.5267 20.3538 28.598 20.3275C28.6693 20.3013 28.7343 20.2604 28.7888 20.2076C28.902 20.0818 28.9486 19.8956 28.9297 19.6276C28.9008 19.1923 28.9133 18.747 28.9297 18.3129V18.2324C28.9448 17.7002 29.2467 17.3518 29.7789 17.236C30.0314 17.1923 30.2877 17.1746 30.5438 17.1832C30.6306 17.1832 30.7086 17.1832 30.7866 17.1832H30.9967H31.2747H31.4659C31.6509 17.1832 31.8132 17.1744 31.9163 17.07C32.0421 16.9442 32.0421 16.7466 32.0421 16.3151C32.0421 16.1818 32.0421 16.0258 32.0421 15.8421C32.0492 15.7743 32.0423 15.7059 32.0217 15.6409C32.0011 15.576 31.9674 15.516 31.9226 15.4647C31.8751 15.4207 31.8192 15.3869 31.7582 15.3653C31.6972 15.3437 31.6324 15.3347 31.5679 15.3389H31.5515C31.3313 15.3389 31.1112 15.3389 30.8898 15.3389C30.6256 15.3389 30.3626 15.3389 30.0984 15.3326C29.3184 15.3389 28.941 14.9615 28.9247 14.1953C28.9247 14.1022 28.9247 14.0091 28.9247 13.9173V13.9022C28.9247 13.7764 28.9247 13.6568 28.9247 13.5336C28.9184 13.292 28.9247 13.1008 28.9247 12.9486C28.9322 12.6139 28.9322 12.4617 28.824 12.351C28.7158 12.2403 28.5724 12.2252 28.2579 12.2252H27.5383C27.4701 12.2194 27.4015 12.2276 27.3366 12.2492C27.2717 12.2708 27.2119 12.3055 27.1609 12.351C27.1143 12.4039 27.0791 12.4658 27.0575 12.5329C27.0358 12.6 27.0282 12.6708 27.0351 12.741C27.0476 13.2882 27.0464 13.7952 27.0351 14.2896C27.0175 14.9187 26.63 15.3087 25.9997 15.3389C25.9016 15.3389 25.8047 15.3452 25.7078 15.3452H25.3203H25.1555C25.08 15.3452 25.0083 15.3452 24.9417 15.3452H24.6586H24.4812C23.9277 15.3452 23.9277 15.5452 23.9277 16.1403C23.9277 16.2661 23.9277 16.4183 23.9277 16.5994C23.9189 16.6776 23.926 16.7567 23.9487 16.8319C23.9714 16.9072 24.0092 16.977 24.0598 17.0372C24.192 17.1465 24.362 17.1989 24.5328 17.1832C24.6737 17.1832 24.8121 17.1832 24.9505 17.1756C25.0888 17.1681 25.2323 17.1693 25.3681 17.1693C25.6161 17.1659 25.864 17.1831 26.1091 17.2209C26.7231 17.3241 27.0275 17.6726 27.0401 18.284C27.0464 18.5708 27.0401 18.8602 27.0401 19.1407V19.186C27.0401 19.3244 27.0401 19.4628 27.0401 19.6012C27.0401 20.2906 27.0992 20.3459 27.7949 20.3485H27.9836H28.0629L28.1359 20.3472Z" fill="#00AFA5"/>
</g>
<defs>
<clipPath id="clip0">
<rect width="48" height="48.0579" fill="white" transform="translate(4 3.97107)"/>
</clipPath>
</defs>
</svg>
