<svg width="56" height="56" viewBox="0 0 56 56" fill="none" xmlns="http://www.w3.org/2000/svg">
    <path
        d="M49.5632 43.1822H48.6823V42.3012C48.6815 41.6554 48.4245 41.0363 47.9679 40.5796C47.5112 40.1229 46.8921 39.866 46.2462 39.8652H37.9522C37.3064 39.866 36.6873 40.1229 36.2306 40.5796C35.774 41.0363 35.517 41.6554 35.5162 42.3012V43.1822H34.6353C33.9891 43.1828 33.3695 43.4397 32.9126 43.8966C32.4557 44.3535 32.1988 44.9731 32.1982 45.6192V47.2782C32.1982 47.3804 32.2184 47.4816 32.2575 47.576C32.2966 47.6703 32.3539 47.7561 32.4261 47.8283C32.4984 47.9006 32.5841 47.9579 32.6785 47.997C32.7729 48.0361 32.8741 48.0562 32.9763 48.0562H51.2222C51.3244 48.0562 51.4256 48.0361 51.52 47.997C51.6143 47.9579 51.7001 47.9006 51.7724 47.8283C51.8446 47.7561 51.9019 47.6703 51.941 47.576C51.9801 47.4816 52.0002 47.3804 52.0002 47.2782V45.6192C51.9997 44.9731 51.7428 44.3535 51.2859 43.8966C50.829 43.4397 50.2094 43.1828 49.5632 43.1822ZM37.0712 42.3012C37.0715 42.0677 37.1644 41.8437 37.3296 41.6786C37.4947 41.5134 37.7187 41.4205 37.9522 41.4202H46.2462C46.4798 41.4205 46.7037 41.5134 46.8689 41.6786C47.0341 41.8437 47.127 42.0677 47.1272 42.3012V43.1822H37.0712V42.3012ZM50.4453 46.5012H33.7532V45.6202C33.7535 45.3867 33.8464 45.1627 34.0116 44.9976C34.1767 44.8324 34.4007 44.7395 34.6342 44.7392H49.5632C49.7968 44.7395 50.0208 44.8324 50.1859 44.9976C50.3511 45.1627 50.444 45.3867 50.4442 45.6202L50.4453 46.5012Z"
        fill="#00AFA5" />
    <path
        d="M33.7539 26.4434L33.7169 26.4804C33.2629 26.9378 33.0086 27.5565 33.0098 28.201C33.011 28.8455 33.2676 29.4632 33.7233 29.9189C34.179 30.3747 34.7968 30.6312 35.4413 30.6324C36.0858 30.6336 36.7044 30.3794 37.1619 29.9254L41.8539 25.2334C42.3079 24.776 42.5621 24.1573 42.5609 23.5128C42.5597 22.8683 42.3031 22.2506 41.8474 21.7948C41.3917 21.3391 40.774 21.0826 40.1295 21.0813C39.485 21.0801 38.8663 21.3344 38.4089 21.7884L38.3719 21.8254L36.5719 20.0254C36.6511 19.7497 36.6552 19.4578 36.5837 19.1799C36.5121 18.9021 36.3675 18.6485 36.1649 18.4454L31.1259 13.4094C30.9228 13.2067 30.6692 13.062 30.3914 12.9904C30.1135 12.9189 29.8216 12.923 29.5459 13.0024L27.7459 11.2024L27.7829 11.1654C28.0098 10.9389 28.1899 10.67 28.3129 10.3739C28.4359 10.0778 28.4993 9.76045 28.4997 9.43985C28.5 9.11926 28.4372 8.80174 28.3148 8.50543C28.1924 8.20911 28.0128 7.9398 27.7864 7.71288C27.5599 7.48596 27.291 7.30586 26.9949 7.18287C26.6988 7.05989 26.3814 6.99642 26.0608 6.9961C25.7403 6.99577 25.4227 7.0586 25.1264 7.18098C24.8301 7.30337 24.5608 7.48292 24.3339 7.70938L19.6419 12.4094C19.1879 12.8668 18.9336 13.4855 18.9348 14.13C18.936 14.7745 19.1926 15.3922 19.6483 15.8479C20.104 16.3037 20.7218 16.5602 21.3663 16.5614C22.0107 16.5626 22.6294 16.3084 23.0869 15.8544L23.1239 15.8174L24.9239 17.6174C24.8823 17.7617 24.8611 17.9112 24.8609 18.0614C24.8606 18.2724 24.902 18.4815 24.9829 18.6764C25.0637 18.8714 25.1823 19.0485 25.3319 19.1974L25.5399 19.4054L23.9279 21.0174C23.6834 21.2622 23.494 21.5563 23.3725 21.8802C23.2509 22.2041 23.1999 22.5502 23.2229 22.8954L4.71387 41.4094C4.25987 41.8668 4.00563 42.4855 4.00684 43.13C4.00805 43.7745 4.2646 44.3922 4.72032 44.8479C5.17604 45.3037 5.79378 45.5602 6.43827 45.5614C7.08275 45.5626 7.70145 45.3084 8.15887 44.8544L26.6719 26.3414C26.7239 26.3414 26.7719 26.3484 26.8269 26.3484C27.1468 26.349 27.4637 26.2865 27.7594 26.1643C28.0551 26.0421 28.3237 25.8627 28.5499 25.6364L30.1619 24.0244L30.3699 24.2324C30.5188 24.3819 30.6959 24.5005 30.8908 24.5814C31.0858 24.6622 31.2948 24.7037 31.5059 24.7034C31.6561 24.7032 31.8055 24.682 31.9499 24.6404L33.7539 26.4434ZM40.1319 22.6304C40.3053 22.6311 40.4747 22.6831 40.6187 22.7797C40.7628 22.8763 40.8751 23.0133 40.9416 23.1735C41.0081 23.3336 41.0259 23.5099 40.9927 23.6801C40.9595 23.8503 40.8767 24.007 40.7549 24.1304L36.0629 28.8224C35.9811 28.9042 35.8839 28.9691 35.777 29.0134C35.6701 29.0576 35.5556 29.0804 35.4399 29.0804C35.3242 29.0804 35.2096 29.0576 35.1027 29.0134C34.9958 28.9691 34.8987 28.9042 34.8169 28.8224C34.7351 28.7406 34.6702 28.6434 34.6259 28.5365C34.5816 28.4297 34.5588 28.3151 34.5588 28.1994C34.5588 28.0837 34.5816 27.9691 34.6259 27.8622C34.6702 27.7553 34.7351 27.6582 34.8169 27.5764L39.5089 22.8844C39.5909 22.8032 39.6882 22.7389 39.7951 22.6953C39.902 22.6518 40.0164 22.6297 40.1319 22.6304ZM34.8539 25.3444L33.1929 23.6834L35.6119 21.2644L37.2729 22.9254L34.8539 25.3444ZM20.7419 14.7514C20.5769 14.586 20.4842 14.362 20.4842 14.1284C20.4842 13.8948 20.5769 13.6707 20.7419 13.5054L25.4339 8.80938C25.516 8.72757 25.6133 8.66272 25.7205 8.61855C25.8276 8.57437 25.9424 8.55173 26.0583 8.55191C26.1742 8.5521 26.2889 8.57511 26.3959 8.61963C26.5029 8.66415 26.6001 8.7293 26.6819 8.81138C26.7637 8.89346 26.8285 8.99084 26.8727 9.09798C26.9169 9.20512 26.9395 9.31991 26.9393 9.4358C26.9392 9.55168 26.9161 9.6664 26.8716 9.77339C26.8271 9.88039 26.762 9.97757 26.6799 10.0594L21.9879 14.7514C21.8225 14.9164 21.5985 15.009 21.3649 15.009C21.1313 15.009 20.9072 14.9164 20.7419 14.7514ZM26.6419 12.2954L28.2999 13.9564L25.8809 16.3754L24.2199 14.7144L26.6419 12.2954ZM7.05887 43.7554C6.97706 43.8372 6.87993 43.9021 6.77304 43.9464C6.66615 43.9906 6.55158 44.0134 6.43587 44.0134C6.32017 44.0134 6.2056 43.9906 6.09871 43.9464C5.99181 43.9021 5.89469 43.8372 5.81287 43.7554C5.73106 43.6736 5.66616 43.5764 5.62189 43.4695C5.57761 43.3627 5.55482 43.2481 5.55482 43.1324C5.55482 43.0167 5.57761 42.9021 5.62189 42.7952C5.66616 42.6883 5.73106 42.5912 5.81287 42.5094L23.8999 24.4254C23.9119 24.4384 23.9219 24.4514 23.9349 24.4644L25.0999 25.6364C25.1119 25.6484 25.1259 25.6594 25.1389 25.6714L7.05887 43.7554ZM27.4499 24.5374C27.2845 24.7024 27.0605 24.795 26.8269 24.795C26.5933 24.795 26.3692 24.7024 26.2039 24.5374L25.0309 23.3644C24.8659 23.199 24.7732 22.975 24.7732 22.7414C24.7732 22.5078 24.8659 22.2837 25.0309 22.1184L26.6429 20.5094L29.0619 22.9284L27.4499 24.5374ZM26.4339 18.0984C26.4243 18.0887 26.4189 18.0755 26.4189 18.0619C26.4189 18.0482 26.4243 18.0351 26.4339 18.0254L29.9529 14.5094C29.9626 14.4998 29.9757 14.4944 29.9894 14.4944C30.003 14.4944 30.0161 14.4998 30.0259 14.5094L35.0609 19.5444C35.0705 19.5541 35.0758 19.5672 35.0758 19.5809C35.0758 19.5945 35.0705 19.6077 35.0609 19.6174L31.5419 23.1364C31.5321 23.146 31.519 23.1513 31.5054 23.1513C31.4917 23.1513 31.4786 23.146 31.4689 23.1364L26.4339 18.0984Z"
        fill="#00AFA5" />
</svg>