<svg width="56" height="56" viewBox="0 0 56 56" fill="none" xmlns="http://www.w3.org/2000/svg">
    <path
        d="M15.2 40.2003V38.8223C14.04 38.8223 12.8 37.9753 12.8 35.6003V33.5753C10.3465 33.0016 8.15229 31.6312 6.56016 29.6783C4.96803 27.7254 4.06775 25.3001 4 22.7813L4 21.1063H5.6V10.6383C5.60023 9.69258 5.93397 8.77722 6.54251 8.05327C7.15104 7.32932 7.99539 6.84316 8.927 6.68032C9.05425 6.29364 9.27714 5.94538 9.57498 5.66788C9.87281 5.39038 10.2359 5.19263 10.6306 5.093C11.0253 4.99338 11.4388 4.99509 11.8327 5.098C12.2265 5.20091 12.588 5.40166 12.8835 5.68163C13.179 5.9616 13.399 6.3117 13.5231 6.69942C13.6471 7.08715 13.6711 7.49992 13.593 7.89943C13.5148 8.29893 13.337 8.67221 13.076 8.9846C12.815 9.297 12.4792 9.53837 12.1 9.68632C11.805 9.80312 11.4898 9.86027 11.1726 9.85448C10.8554 9.84868 10.5425 9.78005 10.252 9.65255C9.96147 9.52506 9.69911 9.34123 9.4801 9.1117C9.26108 8.88217 9.08974 8.61149 8.976 8.31532C8.46669 8.45506 8.01722 8.75791 7.69645 9.17747C7.37569 9.59704 7.2013 10.1102 7.2 10.6383V21.1063H9.6V22.8063C9.62742 24.167 10.0883 25.4834 10.9157 26.564C11.743 27.6445 12.8936 28.4329 14.2 28.8143C15.631 29.2718 17.169 29.2718 18.6 28.8143C19.9058 28.4319 21.0558 27.6433 21.883 26.5629C22.7102 25.4826 23.1715 24.1667 23.2 22.8063V21.1063H24.8L24.764 10.6303C24.7601 10.1103 24.5883 9.60549 24.2742 9.19104C23.9601 8.77659 23.5206 8.47469 23.021 8.33032C22.8682 8.70172 22.6245 9.02871 22.3122 9.28115C21.9999 9.5336 21.629 9.70339 21.2339 9.77487C20.8387 9.84636 20.4319 9.81725 20.0509 9.69021C19.6699 9.56318 19.3271 9.34232 19.0539 9.04797C18.7807 8.75362 18.586 8.39525 18.4877 8.00589C18.3894 7.61652 18.3906 7.20867 18.4914 6.81992C18.5921 6.43117 18.789 6.07402 19.064 5.78137C19.339 5.48872 19.6833 5.26999 20.065 5.14532C20.3637 5.04785 20.6786 5.01037 20.9918 5.03503C21.305 5.05969 21.6102 5.14602 21.89 5.28903C22.1697 5.43205 22.4184 5.62895 22.6217 5.8684C22.8251 6.10785 22.9792 6.38514 23.075 6.68432C23.997 6.85474 24.8306 7.34195 25.4315 8.06174C26.0324 8.78154 26.363 9.68866 26.366 10.6263L26.399 21.1063H28V22.7863C27.9316 25.3045 27.031 27.7292 25.4389 29.6815C23.8469 31.6337 21.653 33.0037 19.2 33.5773V35.6003C19.2 37.9743 17.96 38.8223 16.8 38.8223V40.2003C16.8 45.2683 20.568 49.3933 25.2 49.3933C29.832 49.3933 33.6 45.2743 33.6 40.2003V24.3273L33.647 24.3193H33.6C33.5995 22.4866 34.3063 20.7244 35.5732 19.4C36.84 18.0756 38.5691 17.2912 40.4 17.2103C42.2718 17.285 44.038 18.0979 45.3122 19.4711C46.5865 20.8443 47.2652 22.6661 47.2 24.5383V26.0003C48.6013 26.2026 49.8739 26.9281 50.7618 28.0308C51.6497 29.1336 52.087 30.5318 51.9856 31.9439C51.8842 33.3561 51.2517 34.6774 50.2154 35.642C49.179 36.6066 47.8158 37.1429 46.4 37.1429C44.9842 37.1429 43.621 36.6066 42.5846 35.642C41.5483 34.6774 40.9158 33.3561 40.8144 31.9439C40.713 30.5318 41.1502 29.1336 42.0382 28.0308C42.9261 26.9281 44.1987 26.2026 45.6 26.0003V24.5403C45.6639 23.0938 45.153 21.6808 44.1787 20.6097C43.2045 19.5386 41.8461 18.8964 40.4 18.8233C38.9865 18.9005 37.6571 19.5197 36.6885 20.5521C35.72 21.5846 35.1868 22.9507 35.2 24.3663V40.2003C35.2 46.1533 30.714 51.0003 25.2 51.0003C19.686 51.0003 15.2 46.1563 15.2 40.2003ZM14.4 35.6003C14.4 36.0833 14.48 37.2113 15.2 37.2113H16.8C17.52 37.2113 17.6 36.0833 17.6 35.6003V33.8923C17.537 33.9003 17.471 33.9023 17.408 33.9093C17.325 33.9183 17.241 33.9243 17.161 33.9323C16.785 33.9663 16.404 33.9893 16.02 33.9893H15.98C15.595 33.9893 15.213 33.9663 14.835 33.9323C14.755 33.9253 14.675 33.9183 14.595 33.9093C14.53 33.9033 14.464 33.9003 14.401 33.8923L14.4 35.6003ZM42.4 31.5743C42.4053 32.3643 42.6445 33.135 43.0872 33.7892C43.53 34.4434 44.1565 34.9519 44.8879 35.2505C45.6192 35.5491 46.4226 35.6245 47.1968 35.4671C47.9709 35.3098 48.6811 34.9267 49.2378 34.3662C49.7945 33.8057 50.1728 33.093 50.325 32.3178C50.4772 31.5426 50.3964 30.7397 50.0929 30.0104C49.7893 29.2811 49.2766 28.658 48.6194 28.2196C47.9622 27.7813 47.19 27.5473 46.4 27.5473C45.8728 27.549 45.3512 27.6546 44.8648 27.858C44.3785 28.0613 43.9369 28.3585 43.5655 28.7326C43.194 29.1067 42.8999 29.5502 42.6999 30.038C42.4999 30.5258 42.398 31.0482 42.4 31.5753V31.5743ZM5.6 22.7813C5.67567 25.0436 6.52836 27.2108 8.01455 28.9181C9.50075 30.6254 11.5297 31.7686 13.76 32.1553C14.1251 32.2307 14.494 32.2868 14.865 32.3233C15.992 32.4374 17.1298 32.3811 18.24 32.1563C20.4703 31.7692 22.4992 30.6257 23.9853 28.9183C25.4715 27.2109 26.3242 25.0437 26.4 22.7813V22.7173H24.8V22.8093C24.773 24.5105 24.2043 26.1588 23.1766 27.5147C22.1488 28.8706 20.7156 29.8636 19.085 30.3493C17.3367 30.9065 15.4583 30.9065 13.71 30.3493C12.0797 29.8635 10.6469 28.8702 9.61997 27.514C8.59305 26.1577 8.02554 24.5093 8 22.8083V22.7163H5.6V22.7813ZM20 7.41632C20 7.57455 20.0469 7.72922 20.1348 7.86078C20.2227 7.99234 20.3477 8.09487 20.4939 8.15542C20.64 8.21597 20.8009 8.23182 20.9561 8.20095C21.1113 8.17008 21.2538 8.09389 21.3657 7.98201C21.4776 7.87012 21.5538 7.72758 21.5846 7.57239C21.6155 7.41721 21.5997 7.25635 21.5391 7.11017C21.4786 6.96399 21.376 6.83905 21.2445 6.75114C21.1129 6.66324 20.9582 6.61632 20.8 6.61632C20.5878 6.61632 20.3843 6.70061 20.2343 6.85064C20.0843 7.00066 20 7.20415 20 7.41632ZM10.4 7.41632C10.4 7.57455 10.4469 7.72922 10.5348 7.86078C10.6227 7.99234 10.7477 8.09487 10.8939 8.15542C11.04 8.21597 11.2009 8.23182 11.3561 8.20095C11.5113 8.17008 11.6538 8.09389 11.7657 7.98201C11.8776 7.87012 11.9538 7.72758 11.9846 7.57239C12.0155 7.41721 11.9997 7.25635 11.9391 7.11017C11.8786 6.96399 11.776 6.83905 11.6445 6.75114C11.5129 6.66324 11.3582 6.61632 11.2 6.61632C10.9878 6.61632 10.7843 6.70061 10.6343 6.85064C10.4843 7.00066 10.4 7.20415 10.4 7.41632ZM44 31.5763C44.003 31.1023 44.1462 30.6398 44.4117 30.2471C44.6773 29.8544 45.0531 29.5491 45.4919 29.3697C45.9307 29.1904 46.4128 29.145 46.8773 29.2393C47.3419 29.3336 47.7681 29.5633 48.1023 29.8996C48.4364 30.2358 48.6635 30.6635 48.7549 31.1286C48.8463 31.5937 48.7979 32.0755 48.6158 32.5132C48.4338 32.9509 48.1261 33.3248 47.7318 33.5879C47.3374 33.8509 46.874 33.9913 46.4 33.9913C45.7615 33.9892 45.15 33.7336 44.7 33.2807C44.2499 32.8279 43.9981 32.2148 44 31.5763ZM45.6 31.5763C45.601 31.7343 45.6487 31.8885 45.7372 32.0194C45.8258 32.1503 45.951 32.2521 46.0973 32.3118C46.2436 32.3716 46.4043 32.3868 46.5591 32.3553C46.714 32.3239 46.856 32.2473 46.9674 32.1352C47.0788 32.0232 47.1545 31.8806 47.185 31.7256C47.2154 31.5705 47.1993 31.4099 47.1386 31.264C47.0779 31.1181 46.9754 30.9935 46.8439 30.9058C46.7125 30.8181 46.558 30.7713 46.4 30.7713C46.2945 30.7713 46.1901 30.7922 46.0927 30.8327C45.9953 30.8732 45.9069 30.9326 45.8325 31.0074C45.7582 31.0822 45.6994 31.171 45.6595 31.2686C45.6195 31.3663 45.5993 31.4708 45.6 31.5763Z"
        fill="#00AFA5" />
</svg>