<svg width="56" height="56" viewBox="0 0 56 56" fill="none" xmlns="http://www.w3.org/2000/svg">
<g clip-path="url(#clip0)">
<path d="M8.54285 51.9987C8.37886 52.0067 8.21448 51.999 8.05193 51.9759L7.97548 51.9557L7.9567 51.8793C7.93285 51.7191 7.92476 51.5569 7.93256 51.3951C7.93256 50.2603 7.93256 49.1265 7.93256 47.9935C7.93256 45.221 7.93256 42.36 7.93256 39.5433C7.94195 35.8909 9.61992 33.1761 12.9182 31.474C14.3842 30.7175 15.8878 29.9717 17.3445 29.2501L17.374 29.2367C18.0581 28.896 18.7426 28.5553 19.4276 28.2146C19.7535 28.051 19.8997 27.9718 19.9305 27.8203C19.9614 27.6687 19.8608 27.5413 19.6475 27.2837C18.5603 26.0092 17.8698 24.4445 17.6611 22.7823C17.5994 22.2874 17.3606 22.0298 16.9099 21.9775C16.7416 21.9521 16.5756 21.9131 16.4136 21.8608L16.2473 21.8139C14.9959 21.4745 14.3936 20.6926 14.3494 19.3539C14.3118 18.183 14.5975 17.4587 15.3057 16.9315C15.7497 16.6002 16.2849 16.4795 16.8388 16.3749C17.3928 16.2703 17.5994 16.0087 17.5859 15.436C17.5564 14.2194 17.5631 12.9868 17.5698 11.7943V11.0217C17.581 9.16817 18.321 7.3934 19.6298 6.08083C20.9386 4.76825 22.7112 4.02323 24.5648 4.00671C25.4527 4.00671 26.3402 4.00447 27.2273 4C28.0633 4 28.8985 4.00224 29.7328 4.00671C33.4509 4.03085 36.6164 7.18963 36.6446 10.9037C36.6566 12.4516 36.666 13.9699 36.6446 15.5178C36.6352 16.0396 36.8471 16.2958 37.3327 16.3521C37.3653 16.3562 37.3976 16.3629 37.4292 16.3722L37.5164 16.3937C39.7323 16.8645 40.0434 18.0448 39.8315 19.924C39.7229 20.8938 39.0938 21.5725 38.1495 21.7415C37.0201 21.944 36.5399 22.4483 36.3951 23.6045C36.2301 24.8734 35.6198 26.098 34.5253 27.3454C34.4006 27.489 34.2892 27.6446 34.3241 27.8176C34.359 27.9906 34.5401 28.0993 34.693 28.173C35.6319 28.6264 36.5708 29.0999 37.4842 29.5573L37.4963 29.564L38.8269 30.2346L38.8859 30.2641C38.9981 30.3335 39.1248 30.3762 39.2561 30.3889C40.0314 30.4036 40.584 30.8074 41.2224 31.4525C42.5141 32.7603 43.8353 34.0801 45.1122 35.3557L45.1511 35.396C45.828 36.0711 46.5036 36.7462 47.1778 37.4213C48.2965 38.5413 48.3475 39.7203 47.3281 40.9235C47.1229 41.1663 47.1229 41.3554 47.3281 41.5941C48.3703 42.8188 48.3139 44.0219 47.1658 45.0815C46.4951 45.6972 46.2269 46.3571 46.2711 47.2853C46.3194 48.2631 46.3087 49.2637 46.2979 50.2295C46.2979 50.6319 46.2899 51.0343 46.2886 51.4434C46.2941 51.5902 46.2882 51.7373 46.2711 51.8833L46.2537 51.9705L46.1665 51.9879C46.0245 52.0049 45.8815 52.0107 45.7386 52.0054H8.54285V51.9987ZM44.3383 50.589L44.3571 50.7231V50.589H44.4241C44.7125 50.589 44.8614 50.4548 44.8654 50.2027C44.8762 49.6353 44.8748 49.0813 44.8721 48.4938C44.8721 48.2631 44.8721 48.0311 44.8721 47.7963V47.6153L44.6991 47.6676L44.5985 47.6971C44.5523 47.7067 44.5073 47.7216 44.4644 47.7414C43.9279 48.0177 43.4839 48.1438 43.0775 48.1438C42.49 48.1438 41.9494 47.8648 41.3244 47.2424L40.0944 46.0124C39.5713 45.4893 39.0477 44.9662 38.5237 44.4431L38.4754 44.3948C38.3479 44.2577 38.2057 44.135 38.0516 44.0286C37.8944 43.9272 37.7115 43.8728 37.5245 43.8717C37.0389 43.8717 36.662 44.2741 36.6499 44.7918V44.9112C36.6392 45.1096 36.6392 45.3084 36.6499 45.5067C36.721 46.3558 36.43 47.0559 35.7325 47.7118C35.1249 48.2819 34.5401 48.8721 33.9204 49.4985L33.907 49.5119C33.6387 49.7801 33.3543 50.0699 33.0619 50.3609L32.8326 50.5903H44.3383V50.589ZM12.1738 33.781C12.0021 33.781 11.8438 33.9085 11.7124 34.0319C10.1685 35.4791 9.37178 37.3342 9.34361 39.5446C9.32886 40.7049 9.33288 41.8865 9.33556 43.032V43.0454C9.33556 43.5694 9.33556 44.093 9.33556 44.6161C9.33556 45.0869 9.33556 45.555 9.33556 46.0272V46.0406C9.33556 47.3001 9.33556 48.6011 9.32618 49.8821C9.32618 50.0819 9.33959 50.3059 9.48043 50.4468C9.62208 50.5641 9.80421 50.6209 9.98744 50.605H10.0143C10.8807 50.5916 11.766 50.5863 12.6446 50.5863C13.5231 50.5863 14.403 50.5863 15.2762 50.6037H15.3044C15.4864 50.6184 15.6671 50.5622 15.8087 50.4468C15.9428 50.3126 15.9656 50.1249 15.9643 49.8821C15.9643 48.5636 15.9643 47.2303 15.9643 45.9413C15.9643 44.5718 15.9643 43.1568 15.9576 41.7551C15.971 40.2825 15.5613 38.837 14.7772 37.5903C13.9979 36.3724 13.3018 35.2457 12.6312 34.1445C12.5762 34.0399 12.4206 33.781 12.1738 33.781ZM15.0053 32.1513C14.7705 32.1513 14.509 32.2855 14.0342 32.5309L14.0047 32.5457C13.9304 32.5734 13.8629 32.6164 13.8063 32.6718C13.7497 32.7273 13.7053 32.794 13.676 32.8676C13.6654 32.9452 13.6707 33.0241 13.6917 33.0995C13.7127 33.175 13.7489 33.2453 13.7981 33.3062C14.2193 33.9594 14.631 34.6207 15.0294 35.2605C15.3299 35.742 15.6303 36.2249 15.9335 36.7037C16.8962 38.1758 17.399 39.9011 17.378 41.6599C17.3633 43.2265 17.366 44.8106 17.3673 46.341C17.3673 47.5174 17.3673 48.7326 17.3673 49.9411C17.3482 50.1239 17.4017 50.307 17.5162 50.4508C17.6504 50.5597 17.8215 50.6125 17.9937 50.5983H18.0178C18.6402 50.5903 19.3243 50.5876 20.1639 50.5876H22.7272H25.23C26.1113 50.5876 26.794 50.5876 27.4445 50.597H27.4754C27.6524 50.597 27.8349 50.5863 27.9489 50.4548C28.0629 50.3234 28.0481 50.1195 28.028 49.9787C27.9006 49.1082 28.1742 48.3691 28.8636 47.7065C30.1969 46.4363 31.2458 45.3847 32.1673 44.3988C32.8379 43.6772 33.5327 43.3419 34.3456 43.3419C34.4553 43.3418 34.565 43.3476 34.6742 43.3593C34.7829 43.371 34.8921 43.3773 35.0015 43.3781C35.2274 43.3892 35.4529 43.3479 35.6602 43.2574C35.8676 43.1669 36.0511 43.0296 36.1966 42.8563C36.3386 42.7254 36.5117 42.633 36.6996 42.5881C36.9923 42.4914 37.2981 42.4403 37.6063 42.4365C37.9142 42.4362 38.2188 42.4993 38.5012 42.6219C38.7837 42.7444 39.0379 42.9237 39.248 43.1487C39.6558 43.5538 40.0622 43.9598 40.4673 44.3666L40.4901 44.3894C41.1071 45.0064 41.7442 45.6449 42.376 46.2673C42.663 46.5516 42.9286 46.6898 43.1808 46.6898C43.4129 46.6803 43.632 46.5801 43.791 46.4108C44.5516 45.6865 45.3403 44.8964 46.3476 43.8502C46.6695 43.5149 46.6735 43.0857 46.3596 42.6712C46.3206 42.6046 46.2663 42.5481 46.2013 42.5064C46.1362 42.4647 46.0623 42.4389 45.9854 42.4311C45.8558 42.4431 45.7342 42.4989 45.6407 42.5894C45.0599 43.083 44.4845 43.3325 43.9332 43.3325C43.3323 43.3325 42.726 43.0347 42.1426 42.4486L41.7228 42.0301C40.0045 40.3145 38.2354 38.5427 36.5051 36.799C36.4072 36.6707 36.2625 36.5863 36.1027 36.5642C35.9364 36.5642 35.8116 36.6984 35.7003 36.8325C34.8955 37.8492 33.8681 38.3442 32.5563 38.3442H32.5388C30.7562 38.3442 28.8301 38.3334 26.8235 38.3334C24.9926 38.3334 23.3361 38.3334 21.7467 38.3468H21.7145C20.2042 38.3468 19.0533 37.7204 18.1962 36.4315C17.4898 35.3665 16.7812 34.3028 16.0703 33.2405L15.9428 33.0487C15.5445 32.4303 15.3553 32.1513 15.008 32.1513H15.0053ZM34.6152 44.7596H34.5159C34.2995 44.7605 34.0855 44.8044 33.8862 44.889C33.687 44.9735 33.5067 45.0969 33.3557 45.2519C32.9774 45.6436 32.5858 46.0312 32.2075 46.4068L31.6965 46.9165L31.1761 47.4355C30.7147 47.8956 30.2439 48.3651 29.7878 48.8318C29.4444 49.1846 29.3505 49.5709 29.5075 49.9773C29.5686 50.144 29.6776 50.2889 29.8207 50.3939C29.9639 50.4989 30.1349 50.5593 30.3123 50.5675C30.3426 50.5694 30.3731 50.5694 30.4035 50.5675V50.5675C30.7924 50.5675 31.0835 50.3247 31.2928 50.1141L31.3035 50.1047C32.3698 49.0317 33.5837 47.8245 34.7627 46.6468C34.9247 46.4991 35.0518 46.3171 35.1346 46.1141C35.2174 45.911 35.254 45.6921 35.2416 45.4732V45.4571V45.441C35.2662 45.3573 35.2718 45.2692 35.2578 45.1831C35.2439 45.0969 35.2108 45.015 35.1611 44.9434C35.0565 44.8213 34.8794 44.7583 34.6179 44.7583L34.6152 44.7596ZM39.1635 31.7946C38.9342 31.7946 38.7008 31.9086 38.454 32.142C37.9389 32.6302 37.4118 33.156 36.8887 33.7046C36.3951 34.2223 36.3978 34.6569 36.8954 35.1586C39.0308 37.3046 41.1648 39.444 43.2411 41.5029C43.4879 41.7484 43.7267 41.8678 43.9708 41.8678C44.2149 41.8678 44.451 41.7524 44.7018 41.5137C45.1525 41.0871 45.5924 40.6378 46.0176 40.2045L46.2658 39.9524C46.3673 39.8639 46.4485 39.7546 46.5041 39.632C46.5596 39.5093 46.5881 39.3761 46.5877 39.2415C46.5835 39.1061 46.5516 38.9731 46.494 38.8506C46.4363 38.728 46.354 38.6187 46.2523 38.5293L45.3443 37.6199C43.5536 35.8252 41.6999 33.9688 39.8704 32.1513C39.6303 31.9099 39.4023 31.7932 39.1662 31.7932L39.1635 31.7946ZM18.2096 30.527C18.0554 30.527 17.9146 30.5995 17.6584 30.7309C17.5041 30.8114 17.311 30.9106 17.0387 31.034C16.9652 31.0586 16.8976 31.0985 16.8406 31.1509C16.7835 31.2034 16.7381 31.2673 16.7074 31.3385C16.6631 31.4954 16.7476 31.6484 16.8415 31.7905L17.0897 32.154C17.8341 33.2459 18.6013 34.3712 19.3122 35.5073C19.9185 36.4744 20.7876 36.9452 21.9774 36.9452H22.0324C22.6413 36.9371 23.2919 36.9344 24.0792 36.9344H25.4205H25.5546H27.0301H30.0909C30.8331 36.9344 31.5744 36.9344 32.3148 36.9344C32.9251 36.9344 33.6964 36.8553 34.2637 36.2745L34.3898 36.1498L34.4019 36.1377C34.7641 35.7796 35.1732 35.3732 35.1155 34.7441C35.0699 34.3812 35.1087 34.0127 35.2287 33.6673C35.3487 33.3218 35.5468 33.0087 35.8076 32.7523C35.99 32.5672 36.1751 32.3834 36.3602 32.1983L36.375 32.1835C36.5882 31.9703 36.8002 31.7583 37.0107 31.5437C37.0204 31.5332 37.0307 31.5234 37.0416 31.5142C37.224 31.3452 37.2428 31.1977 37.1033 31.0314C36.8672 30.7497 36.3937 30.6209 36.0531 30.6209C35.8553 30.6138 35.6596 30.6626 35.4884 30.7618C35.1115 30.9992 34.7359 31.2406 34.3617 31.482C33.7339 31.8844 33.0861 32.3002 32.4409 32.6986C30.6784 33.7837 28.8878 34.3337 27.1186 34.3337C25.4245 34.3337 23.705 33.8293 22.0069 32.8354C21.4704 32.5229 20.9446 32.1795 20.4349 31.8482C20.0781 31.6162 19.7079 31.3774 19.339 31.148C19.1284 31.0139 18.9661 30.912 18.836 30.8248C18.5383 30.6263 18.3894 30.527 18.2096 30.527ZM21.2947 28.9939C21.0821 28.998 20.8767 29.0714 20.7098 29.2032C20.6164 29.2655 20.516 29.3168 20.4107 29.3561L20.3785 29.3695C20.2444 29.4245 20.0687 29.5184 20.0553 29.6874C20.0419 29.8564 20.2042 29.9811 20.3477 30.0696C20.675 30.2735 21.0009 30.4814 21.3268 30.6907C21.9063 31.0622 22.5059 31.4458 23.1161 31.8013C24.2623 32.48 25.5693 32.8394 26.9013 32.8421H27.1173C27.591 32.8439 28.0641 32.809 28.5323 32.7375C30.1889 32.4759 31.5382 31.5853 32.8433 30.7255C33.2202 30.4774 33.6105 30.2199 34.0009 29.9825C34.0411 29.962 34.0766 29.9332 34.105 29.8981C34.1335 29.863 34.1542 29.8222 34.1658 29.7786C34.1729 29.7382 34.1714 29.6968 34.1615 29.6571C34.1516 29.6174 34.1334 29.5801 34.1082 29.5479C33.8788 29.2206 33.2055 29.069 32.8218 29.069C32.6627 29.0619 32.5042 29.0942 32.3604 29.1629L31.8239 29.4634L31.7864 29.4848C31.1425 29.8443 30.4786 30.2145 29.8106 30.5445C28.9876 30.9543 28.0809 31.1678 27.1615 31.1682C26.7191 31.1672 26.2779 31.1222 25.8444 31.034C24.7083 30.8033 23.7519 30.2453 22.7392 29.6538C22.4911 29.509 22.2443 29.3641 21.9948 29.226C21.7846 29.091 21.5438 29.0112 21.2947 28.9939V28.9939ZM18.9849 16.5265C18.9849 17.071 18.9849 17.6143 18.9742 18.1548C18.9621 19.3392 18.9501 20.5692 18.9997 21.7656C19.111 24.4777 20.341 26.5568 22.6507 27.9437C23.3321 28.3528 24.0537 28.7484 24.8572 29.1508C25.5538 29.5155 26.327 29.7099 27.1132 29.7182C27.8806 29.7112 28.6355 29.5237 29.317 29.171C30.1908 28.742 31.0415 28.2674 31.8655 27.7492C33.5877 26.6493 34.6541 25.1081 35.0337 23.1686C35.3355 21.6234 35.267 20.0353 35.2013 18.4995C35.1732 17.8436 35.1436 17.1663 35.1436 16.4956V16.0664L34.8982 16.4286C34.8083 16.5627 34.7198 16.6968 34.6299 16.8309C34.4354 17.122 34.2383 17.4184 34.0344 17.7001C33.3637 18.6256 32.512 19.0749 31.4296 19.0749C29.989 19.0749 28.5605 19.0682 27.1307 19.0682C25.7008 19.0682 24.2375 19.0682 22.7916 19.0749C22.3244 19.0884 21.8605 18.9917 21.4376 18.7927C21.0147 18.5937 20.6446 18.298 20.3571 17.9295C20.1609 17.6819 19.9783 17.424 19.8098 17.1569C19.7106 17.008 19.6086 16.8537 19.5027 16.7049C19.4919 16.6901 19.4839 16.6727 19.4745 16.6566C19.4468 16.5836 19.3984 16.5203 19.3353 16.4743C19.2722 16.4283 19.197 16.4017 19.1191 16.3977H18.9849V16.5265ZM17.2707 17.7846C17.2358 17.7845 17.201 17.7895 17.1675 17.7994C17.071 17.8231 16.9734 17.8419 16.875 17.8557C16.533 17.912 16.1454 17.9764 15.9361 18.3721C15.8099 18.6137 15.7428 18.8819 15.7405 19.1545C15.7381 19.4271 15.8006 19.6964 15.9227 19.9401C16.0461 20.2084 16.8013 20.5571 17.1688 20.5571C17.2313 20.5603 17.2934 20.5464 17.3485 20.5169C17.6168 20.3639 17.6074 20.1145 17.5766 19.8811C17.5614 19.8047 17.5577 19.7265 17.5658 19.649C17.5826 19.5367 17.5862 19.4228 17.5766 19.3097C17.5766 19.2641 17.5766 19.2185 17.5766 19.1755V18.9073C17.5766 18.6699 17.5766 18.4459 17.5766 18.2219C17.5658 17.7846 17.3445 17.7846 17.2707 17.7846ZM37.1221 17.7645C37.0529 17.7642 36.984 17.7723 36.9169 17.7886C36.6821 17.849 36.6486 18.026 36.6486 18.2071V18.2339C36.6486 18.4888 36.6486 18.7423 36.6486 18.9958V19.1903C36.6486 19.1903 36.6486 19.92 36.6486 20.1426C36.6486 20.325 36.713 20.545 37.0161 20.545C37.048 20.5447 37.0798 20.5424 37.1113 20.5383C37.6479 20.4753 38.0234 20.2996 38.2447 20.0018C38.4661 19.704 38.5278 19.3016 38.4352 18.7718C38.3521 18.2621 37.7015 17.7645 37.1221 17.7645ZM20.1867 14.2369C20.1318 14.2332 20.0769 14.2435 20.0271 14.267C19.9774 14.2905 19.9344 14.3263 19.9024 14.371C19.787 14.5386 19.8715 14.6808 19.9788 14.8109C20.0003 14.8364 20.0137 14.8539 20.0258 14.8699C20.2216 15.1691 20.4201 15.4641 20.62 15.7606C20.8493 16.1026 21.0787 16.4446 21.304 16.7894C21.4703 17.059 21.7039 17.2806 21.982 17.4323C22.26 17.584 22.5728 17.6606 22.8895 17.6545C24.3005 17.6545 25.7111 17.6567 27.1213 17.6612C28.5315 17.6657 29.9295 17.6657 31.3156 17.6612C31.6321 17.6673 31.9449 17.5911 32.2232 17.4402C32.5016 17.2892 32.736 17.0687 32.9037 16.8001C33.1156 16.4755 33.3329 16.1536 33.5488 15.8317C33.7648 15.5098 33.9512 15.2241 34.1551 14.9223C34.1704 14.8995 34.1875 14.878 34.2061 14.8579C34.3214 14.7237 34.426 14.5722 34.3147 14.3898C34.2832 14.3399 34.2387 14.2996 34.186 14.2731C34.1333 14.2467 34.0744 14.235 34.0156 14.2395C33.9708 14.2401 33.926 14.2433 33.8815 14.2489C33.849 14.254 33.8164 14.2571 33.7836 14.2583C32.4154 14.2583 31.0477 14.2583 29.6805 14.2583H24.7043H20.392C20.3674 14.2596 20.3428 14.2596 20.3182 14.2583C20.2766 14.2489 20.2345 14.2418 20.1921 14.2369H20.1867ZM27.4298 5.38423C26.5968 5.38423 25.7532 5.40569 24.9363 5.42715H24.7244C22.2805 5.49019 20.5167 6.63433 19.4839 8.84346C19.0024 9.87224 18.9836 10.9828 18.9661 12.0626V12.1444C18.9438 12.2403 18.946 12.3403 18.9726 12.4351C18.9993 12.5298 19.0495 12.6163 19.1186 12.6865C19.1877 12.7566 19.2734 12.8082 19.3677 12.8363C19.4621 12.8644 19.562 12.8682 19.6583 12.8473H19.6851C20.742 12.8392 21.866 12.8352 23.3308 12.8352H27.1106H34.4395C35.1812 12.8352 35.2442 12.7748 35.2509 12.0224V12.0049C35.2508 11.4826 35.224 10.9606 35.1705 10.441C34.9411 7.93674 32.7199 5.71553 30.217 5.49019C29.376 5.4191 28.4948 5.38423 27.4352 5.38423H27.4298Z" fill="#00AFA5"/>
<path d="M19.6248 41.566C19.4236 41.566 19.307 41.5378 19.2466 41.4761C19.1757 41.3686 19.1484 41.2382 19.1701 41.1113C19.1701 40.9503 19.1701 40.8122 19.1782 40.6941C19.1754 40.5494 19.1826 40.4046 19.1996 40.2609L19.2171 40.1683L19.311 40.1536C19.376 40.1459 19.4414 40.1428 19.5068 40.1442H19.7228C19.8368 40.1442 19.9642 40.1442 20.1144 40.1442H20.1345C22.3128 40.1442 24.4911 40.1442 26.6694 40.1442H34.4329C34.5978 40.1362 34.763 40.1438 34.9265 40.167L35.0043 40.1871L35.023 40.2636C35.0451 40.4222 35.0519 40.5825 35.0432 40.7424C35.0432 40.8444 35.0432 40.9356 35.0432 41.0174C35.0471 41.1552 35.0431 41.2932 35.0311 41.4305L35.015 41.5271L34.9184 41.5418C34.8379 41.5517 34.7568 41.5558 34.6756 41.5539H34.2384H31.2781H25.2328H23.296C21.8206 41.5539 20.6939 41.5539 19.6396 41.5647H19.6248V41.566Z" fill="#00AFA5"/>
</g>
<defs>
<clipPath id="clip0">
<rect width="40.1399" height="48" fill="white" transform="translate(7.92993 4)"/>
</clipPath>
</defs>
</svg>
