<svg width="56" height="56" viewBox="0 0 56 56" fill="none" xmlns="http://www.w3.org/2000/svg">
<g clip-path="url(#clip0)">
<path d="M31.1125 52.0136L31.0769 51.9793C31.0532 51.9556 31.0295 51.9319 31.0034 51.9094C30.6408 51.5823 30.6692 51.3062 30.7332 51.1012C30.7729 50.9461 30.863 50.8086 30.9894 50.7104C31.1157 50.6121 31.2712 50.5587 31.4312 50.5584C31.614 50.5401 31.7953 50.5096 31.974 50.4672C32.9564 50.2515 33.6093 49.4125 33.5987 48.3803C33.5991 47.9056 33.435 47.4453 33.1342 47.078C32.8334 46.7107 32.4146 46.4589 31.9491 46.3658C31.6985 46.3182 31.4445 46.2905 31.1895 46.2828L30.9762 46.2709H30.8814C30.4654 46.2709 30.2201 46.4949 30.1324 46.9559C29.8362 48.4575 29.3924 49.9262 28.8076 51.3405C28.7184 51.603 28.5534 51.8331 28.3335 52.0018L28.3027 52.0231H27.6829L27.651 51.9982C27.4373 51.8209 27.2763 51.5886 27.1852 51.3263C26.6032 49.9282 26.1598 48.4762 25.8615 46.9914C25.7667 46.4961 25.506 46.2804 25.0178 46.2804H24.9538C24.5675 46.2935 24.1883 46.2994 23.828 46.2994C23.4097 46.2994 22.9985 46.2911 22.6062 46.2745C20.728 46.1939 18.9196 44.5645 18.6565 42.7194C18.3531 40.5863 19.5334 38.5563 21.4627 37.8998C22.1844 37.6557 22.9333 37.6225 23.5709 37.6225C23.7889 37.6225 24.007 37.6225 24.2262 37.6308L24.6007 37.6368C24.8104 37.6535 25.0183 37.5866 25.179 37.4507C25.3461 37.2824 25.365 37.0288 25.3638 36.8274C25.3496 35.1932 25.352 33.5306 25.3532 31.9237V31.8052C25.3532 31.2727 25.3532 30.741 25.3532 30.2101C25.3532 29.2206 25.3224 28.8189 24.5639 28.8189C24.3814 28.8189 24.1468 28.8414 23.8529 28.8698C22.9453 28.9548 22.0873 29.3226 21.3999 29.9214C20.7125 30.5201 20.2304 31.3195 20.0217 32.2069C19.7847 33.2083 19.9198 34.2357 20.4163 35.3461C20.4648 35.4434 20.4932 35.5495 20.4997 35.658C20.5063 35.7666 20.4908 35.8753 20.4542 35.9777C20.4166 36.0683 20.3612 36.1505 20.2914 36.2195C20.2216 36.2885 20.1388 36.3428 20.0477 36.3794C19.9562 36.4196 19.8574 36.4406 19.7574 36.4411C19.4766 36.4411 19.217 36.2609 19.0464 35.9469C17.7891 33.6408 18.3662 30.4957 20.3606 28.7738C21.5255 27.7713 22.8077 27.2831 24.2795 27.2831H24.5426C25.0818 27.2831 25.352 27.2831 25.352 26.271V25.7899C25.352 25.2815 25.352 24.7566 25.352 24.2375C25.352 24.2221 25.352 24.2126 25.352 24.2008C25.3828 23.9472 25.3093 23.7884 25.1209 23.69L24.9905 23.6225L24.7535 23.7943C24.6658 23.8571 24.577 23.9211 24.4905 23.9875C22.7686 25.291 20.8571 25.9937 18.8082 26.085C18.6127 26.0933 18.4159 26.098 18.2252 26.098C14.9462 26.098 12.1815 24.8182 9.9998 22.2941C9.76279 22.0227 9.53882 21.7406 9.3184 21.4645C8.8964 20.9199 8.44253 20.4007 7.95916 19.9098C6.8713 18.8432 6.22308 17.4686 6.03111 15.8166C6.03111 15.7562 6.02044 15.6981 6.01807 15.6318C6.00148 15.3545 5.98489 15.0523 5.75736 14.7868C4.86147 13.7393 4.28791 12.495 4.00232 10.984V10.9722V9.65206L4.02484 9.62006C4.29621 9.24678 4.46093 9.17805 4.6849 9.17805C4.84108 9.18322 4.99615 9.20628 5.14707 9.24678C5.73011 9.38543 6.32025 9.54304 6.89144 9.69472C7.97101 9.9815 9.08732 10.2778 10.2096 10.4709C10.8286 10.5711 11.4548 10.6214 12.0819 10.6214C12.8095 10.6285 13.5822 10.6309 14.5847 10.6309H18.0438C20.3167 10.6309 21.7874 11.7934 22.2946 13.981C22.5885 15.2526 23.2734 15.9956 24.385 16.2563C24.527 16.2948 24.6729 16.3171 24.8199 16.3226C25.3046 16.3226 25.3484 15.9043 25.3496 15.5121V15.4801C25.4598 14.6375 25.192 14.0071 24.4549 13.3719C22.7402 11.8953 22.1879 9.96965 22.8598 7.80222C23.5318 5.63478 25.0237 4.37982 27.3049 4.0409C27.5525 4.00444 27.8024 3.98622 28.0527 3.98639C30.2095 3.98639 32.2003 5.39422 33.018 7.48937C33.8819 9.71605 33.082 12.3362 31.1148 13.7215C30.8577 13.9016 30.5697 14.1777 30.6147 14.7169C30.6267 14.9015 30.629 15.0866 30.6218 15.2715C30.6218 15.3805 30.6218 15.4896 30.6218 15.5986C30.6218 15.9541 30.6918 16.325 31.1492 16.325C31.2593 16.3221 31.3689 16.3082 31.4763 16.2835C32.6068 16.0525 33.3332 15.3711 33.5773 14.3128C33.7741 13.4631 34.0774 12.4985 34.8489 11.7768C35.65 11.0267 36.5304 10.6546 37.5401 10.6404L38.1504 10.6297H38.1919C38.6718 10.6214 39.1672 10.6119 39.6554 10.6119C40.1661 10.6119 40.6141 10.6226 41.0253 10.6428C41.4365 10.6629 41.875 10.6736 42.2945 10.6736C44.7861 10.6746 47.2633 10.2974 49.6417 9.55489C50.0612 9.42335 50.4831 9.32618 50.9453 9.22071C51.0448 9.19787 51.1465 9.18595 51.2486 9.18516C51.7226 9.18516 51.9952 9.49919 51.9964 10.0467C52.0014 11.6329 51.4692 13.1742 50.4867 14.4195C50.1667 14.8212 49.971 15.3076 49.9238 15.819C49.7602 17.4508 49.1167 18.8266 48.0087 19.9109C47.4527 20.4761 46.9315 21.0744 46.448 21.7027C46.2679 21.9255 46.0925 22.1495 45.9065 22.3699C43.9452 24.74 40.9874 26.0909 37.7913 26.0921C35.5267 26.1117 33.3189 25.3831 31.5106 24.0195C31.4846 23.9993 31.4609 23.9792 31.436 23.9579L31.4265 23.9484C31.2798 23.8019 31.0908 23.7053 30.8861 23.6723L30.6159 23.6343C30.6159 23.9081 30.6159 24.5148 30.6159 24.7222C30.6159 25.4 30.6159 26.1004 30.6159 26.7925C30.6159 26.9418 30.6716 27.2902 31.1409 27.2902C31.18 27.2902 31.2191 27.2902 31.2594 27.2902H31.321C31.3779 27.2902 31.4395 27.2902 31.4905 27.2902C32.5616 27.289 33.6119 27.5857 34.5242 28.147C35.5886 28.7921 36.4226 29.7564 36.9074 30.9028C37.3922 32.0491 37.5033 33.3192 37.2248 34.5323C36.9463 35.7454 36.2924 36.8398 35.3561 37.6599C34.4198 38.48 33.2488 38.984 32.0095 39.1003C31.942 39.1003 31.8756 39.1157 31.8093 39.1252L31.6753 39.1441C30.7131 39.2555 30.6242 39.3551 30.6088 40.3292V40.3647C30.6017 40.7641 30.6088 41.1658 30.6088 41.5498C30.6207 42.3935 30.6325 43.2657 30.5199 44.1106C30.5013 44.1992 30.5023 44.2909 30.5228 44.3791C30.5432 44.4673 30.5827 44.55 30.6384 44.6214C30.7002 44.6831 30.7745 44.7308 30.8562 44.7615C30.938 44.7922 31.0253 44.805 31.1125 44.7991H31.2096C31.2997 44.7932 31.3921 44.7908 31.481 44.7908C32.3018 44.7787 33.1 45.0594 33.7326 45.5824C34.8643 46.5127 35.3063 47.6942 35.0468 49.0949C34.8027 50.4174 34.0039 51.3465 32.6767 51.862L32.3769 51.9805L32.2797 52.0208L31.1125 52.0136ZM27.6059 39.1477C27.4163 39.1477 27.1769 39.169 27.0134 39.3325C26.8499 39.4961 26.8297 39.7485 26.8297 39.9251C26.8297 41.481 26.8522 43.1365 27.0335 44.76C27.1565 45.9336 27.3946 47.0922 27.7446 48.2192L27.8571 48.5747L28.1309 48.3223L28.1582 48.2985C28.2139 48.2594 28.2555 48.2033 28.2767 48.1386C28.3122 48.0201 28.3442 47.9099 28.375 47.7937L28.3821 47.7665C29.0434 45.317 29.1334 42.8118 29.1346 40.6847C29.1346 39.2555 29.0386 39.156 27.651 39.1512L27.6059 39.1477ZM24.3352 44.7825C24.526 44.7825 24.6836 44.7825 24.8282 44.792H24.8756C24.96 44.7981 25.0447 44.7851 25.1234 44.7542C25.2022 44.7232 25.273 44.675 25.3306 44.6131C25.4918 44.4223 25.4492 44.1557 25.4314 44.0691C25.3615 43.5675 25.3362 43.0607 25.3555 42.5547C25.3555 42.2975 25.3555 42.0534 25.3496 41.8176C25.3496 41.6078 25.3496 41.4123 25.3496 41.2251V41.1717C25.3496 40.6977 25.3496 40.2545 25.3555 39.8172C25.3646 39.7276 25.3551 39.6371 25.3278 39.5513C25.3005 39.4655 25.2559 39.3862 25.1967 39.3183C25.1334 39.2596 25.0586 39.2146 24.977 39.1863C24.8954 39.1579 24.8088 39.1468 24.7227 39.1536H24.6955C24.5165 39.1536 24.34 39.1536 24.1551 39.1536H23.5412C23.3125 39.1536 23.04 39.1536 22.7567 39.1643C22.0692 39.1979 21.4186 39.4855 20.9308 39.9712C20.4431 40.457 20.1529 41.1065 20.1165 41.7939C20.0838 42.4866 20.3074 43.1671 20.7445 43.7055C21.1817 44.2439 21.8018 44.6024 22.4866 44.7126C22.8793 44.7653 23.2754 44.789 23.6716 44.7837H24.0034H24.0401L24.3352 44.7825ZM31.2475 28.7667C31.1617 28.7599 31.0754 28.7707 30.9939 28.7985C30.9124 28.8262 30.8374 28.8702 30.7735 28.9279C30.6528 29.0745 30.5945 29.2626 30.6112 29.4517C30.6207 30.3713 30.6195 31.2992 30.6171 32.1974C30.6171 32.5269 30.6171 32.8551 30.6171 33.1846V36.1164C30.6171 37.1663 30.6467 37.6308 31.353 37.6308C31.6715 37.6148 31.9884 37.5752 32.301 37.5123C34.5455 37.1331 36.1489 34.8851 35.8028 32.6051C35.4568 30.3251 33.6875 28.8367 31.2867 28.7715L31.2475 28.7667ZM27.3772 14.7264C26.8605 14.7264 26.8356 15.0227 26.8356 15.5464V36.1661C26.8356 37.4851 26.9387 37.5941 28.2269 37.6213H28.3454C28.5385 37.6213 28.7838 37.6 28.9521 37.4294C29.1204 37.2587 29.1477 36.9874 29.1465 36.774C29.1323 34.0876 29.1334 31.356 29.1346 28.7158C29.1346 28.7158 29.1346 26.8446 29.1346 26.1395V23.7576C29.1346 21.0225 29.1346 18.195 29.1405 15.4019C29.1405 15.1945 29.1287 14.9788 28.9806 14.8295C28.9333 14.7845 28.8775 14.7495 28.8164 14.7265C28.7553 14.7034 28.6903 14.693 28.6251 14.6956C28.542 14.697 28.4593 14.7078 28.3786 14.7276C28.2762 14.7497 28.1716 14.76 28.0669 14.7584C27.9626 14.7584 27.8571 14.7513 27.7458 14.7442H27.6747C27.5526 14.7323 27.4578 14.7264 27.3772 14.7264ZM12.4943 22.5477C13.6793 23.7244 16.1205 24.5788 18.2915 24.5788C18.6257 24.5803 18.9596 24.5573 19.2905 24.5101C21.4508 24.1949 23.2983 23.2338 24.9372 21.5736C25.0751 21.4476 25.1839 21.293 25.2559 21.1207C25.3279 20.9484 25.3615 20.7624 25.3543 20.5758C25.3206 19.9549 25.3206 19.3326 25.3543 18.7117C25.4077 17.9722 24.9408 17.8336 24.5248 17.7956C22.6868 17.6238 21.2944 16.4068 20.8915 14.6162C20.4933 12.8446 19.588 12.1217 17.782 12.1193H11.7845C11.137 12.1285 10.4901 12.079 9.85167 11.9712C9.15842 11.8432 8.46281 11.6643 7.7897 11.4972C7.35598 11.3858 6.90685 11.2708 6.46009 11.1689C6.44587 11.1689 6.40558 11.1511 6.37714 11.1405C6.29343 11.1027 6.20339 11.081 6.11169 11.0765C6.01239 11.0759 5.91661 11.1132 5.84387 11.1808C5.64241 11.3668 5.70166 11.5896 5.78699 11.7828V11.7958C5.79758 11.8173 5.80669 11.8394 5.81424 11.8622C6.51934 14.0841 8.74958 15.7597 11.1185 15.8451C11.3875 15.8557 11.6482 15.8569 11.8686 15.8569H12.441C12.6946 15.8569 12.9944 15.8569 13.2907 15.8723C13.7647 15.8948 14.1202 16.2278 14.1202 16.6402C14.1128 16.8445 14.0256 17.0376 13.8774 17.1783C13.7292 17.319 13.5317 17.396 13.3274 17.3927C12.9719 17.4046 12.5488 17.4176 12.1424 17.4176C11.4822 17.4249 10.8224 17.3801 10.1693 17.2837C9.71514 17.195 9.26951 17.0673 8.83728 16.9021C8.65004 16.8393 8.46044 16.7741 8.26846 16.7161L8.02079 16.6402L7.96746 16.895C7.96746 16.914 7.95916 16.9294 7.95561 16.9424C7.93177 17.0091 7.92929 17.0816 7.9485 17.1498C7.98076 17.2505 8.02037 17.3488 8.067 17.4437C8.81121 18.9297 9.9761 19.9204 11.5297 20.3897C12.4185 20.6575 13.3309 20.6587 14.215 20.6599H14.5966C14.8443 20.6514 15.0855 20.7403 15.2685 20.9076C15.3322 20.9734 15.3819 21.0514 15.4147 21.137C15.4474 21.2225 15.4626 21.3137 15.4593 21.4053C15.4593 21.8283 15.1132 22.1305 14.6297 22.1388C14.3844 22.1388 14.1391 22.1388 13.8891 22.1388H12.0819L12.4943 22.5477ZM41.51 12.0956C40.8724 12.0956 40.2266 12.0956 39.6009 12.1063L38.0603 12.1169C37.3588 12.1169 36.816 12.2485 36.3491 12.5234C35.4793 13.0365 35.2091 13.8992 35.0717 14.5937C34.9211 15.358 34.5451 16.0596 33.9921 16.6082C33.3303 17.3066 32.4283 17.728 31.468 17.7874C31.2606 17.7992 30.9631 17.8395 30.7783 18.0516C30.6408 18.208 30.5851 18.4296 30.6076 18.7295C30.6467 19.258 30.6337 19.8055 30.6218 20.334L30.6147 20.6457C30.608 20.8013 30.6342 20.9565 30.6916 21.1013C30.749 21.2461 30.8362 21.3771 30.9477 21.4859C32.9161 23.5301 35.2269 24.567 37.821 24.567C38.058 24.567 38.3056 24.5575 38.5509 24.5397C40.3395 24.4251 42.0416 23.7289 43.3978 22.5571L43.8872 22.14H43.2484H42.6488H42.0563C41.7577 22.14 41.5124 22.14 41.2836 22.1305C41.1847 22.1351 41.0858 22.1197 40.9929 22.0852C40.9 22.0507 40.8151 21.9978 40.7431 21.9296C40.6712 21.8615 40.6138 21.7795 40.5743 21.6886C40.5348 21.5978 40.5141 21.4998 40.5134 21.4008C40.5127 21.3017 40.532 21.2035 40.5701 21.112C40.6083 21.0206 40.6645 20.9378 40.7354 20.8686C40.8064 20.7994 40.8905 20.7453 40.9829 20.7094C41.0753 20.6735 41.1739 20.6567 41.273 20.6599C41.4128 20.654 41.5621 20.6516 41.7577 20.6516H42.3028H42.5398C44.2391 20.6267 45.5806 20.1349 46.6412 19.1478C47.2826 18.5718 47.7712 17.8459 48.0632 17.0349L48.1818 16.6959L47.8262 16.7196H47.7303C47.663 16.7159 47.5958 16.7273 47.5335 16.7528C46.2762 17.3181 44.9691 17.3963 43.7414 17.3963C43.4452 17.3963 43.1489 17.3963 42.8064 17.3844C42.4639 17.3726 42.208 17.2873 42.0492 17.0953C41.8513 16.8583 41.8062 16.6213 41.9093 16.3641C42.0433 16.0299 42.3016 15.8617 42.6986 15.8486C42.8372 15.8486 42.9842 15.8415 43.1631 15.8415H43.5838H43.5992H44.0092C44.341 15.8415 44.6018 15.8332 44.8388 15.8154C47.2859 15.6377 49.0373 14.4029 50.0458 12.1489C50.0624 12.1122 50.0826 12.0731 50.1027 12.0304C50.2473 11.7472 50.3681 11.451 50.156 11.2009C50.1142 11.1521 50.0622 11.1131 50.0036 11.0867C49.945 11.0602 49.8814 11.047 49.8171 11.048C49.6806 11.0568 49.547 11.0919 49.4237 11.1511C49.3704 11.1738 49.3158 11.1932 49.2601 11.2092L48.5491 11.3858C47.0429 11.7626 45.6209 12.1169 44.1005 12.1169C43.9997 12.1169 43.9002 12.1169 43.7995 12.1169C43.1086 12.1098 42.3845 12.0992 41.51 12.0992V12.0956ZM27.9745 5.51746C26.9618 5.52123 25.992 5.92664 25.2779 6.6447C24.5639 7.36276 24.1639 8.33481 24.1658 9.34748C24.1676 10.3602 24.5712 11.3307 25.288 12.0461C26.0047 12.7615 26.976 13.1633 27.9887 13.1633C29.0014 13.1633 29.9727 12.7615 30.6894 12.0461C31.4061 11.3307 31.8097 10.3602 31.8116 9.34748C31.8135 8.33481 31.4135 7.36276 30.6994 6.6447C29.9854 5.92664 29.0156 5.52123 28.0029 5.51746H27.9745Z" fill="#00AFA5"/>
<path d="M23.9003 52.0136L23.8683 51.9887C23.6787 51.843 23.5412 51.7055 23.4879 51.5147C23.4405 51.3467 23.4532 51.1675 23.5237 51.0079C23.5942 50.8483 23.7182 50.7182 23.8742 50.6401C24.0304 50.5631 24.2087 50.5437 24.3778 50.5852C24.5469 50.6268 24.6959 50.7266 24.7986 50.8673C24.9013 51.0079 24.951 51.1802 24.9391 51.354C24.9272 51.5277 24.8543 51.6916 24.7334 51.8169C24.6732 51.8762 24.6087 51.9309 24.5402 51.9804L24.4964 52.0136H23.9003Z" fill="#00AFA5"/>
</g>
<defs>
<clipPath id="clip0">
<rect width="48" height="48.0273" fill="white" transform="translate(4 3.98639)"/>
</clipPath>
</defs>
</svg>
