<svg width="56" height="56" viewBox="0 0 56 56" fill="none" xmlns="http://www.w3.org/2000/svg">
<g clip-path="url(#clip0)">
<path d="M28.3523 51.2508H9.67548C8.29154 51.2508 7.21458 50.433 6.93276 49.1686C6.8682 48.8032 6.8517 48.431 6.8837 48.0614V48.0476C6.8837 47.962 6.88999 47.8765 6.89251 47.796C6.9016 47.7149 6.89462 47.6328 6.87195 47.5544C6.84928 47.4761 6.81137 47.403 6.7604 47.3393C6.70782 47.2929 6.64631 47.2579 6.57967 47.2363C6.51302 47.2146 6.44266 47.2069 6.3729 47.2134C6.34648 47.2134 6.32006 47.2134 6.29112 47.2134C6.21563 47.2134 6.13763 47.2197 6.06088 47.2197H5.84826H5.8319H5.59915C5.50479 47.2197 5.42553 47.2197 5.34753 47.2273H5.20787C4.96683 47.2393 4.72726 47.1833 4.51641 47.0659C4.30556 46.9485 4.1319 46.7742 4.01517 46.563L3.99756 46.5328V40.1793L4.01517 40.1491C4.13509 39.9368 4.31196 39.7622 4.52581 39.645C4.73967 39.5279 4.98201 39.4728 5.22549 39.486H5.3513C5.46956 39.486 5.59412 39.4961 5.74635 39.4961H6.0634H6.37667C6.45971 39.4961 6.54275 39.4961 6.6283 39.4961H6.67359C6.74488 39.5035 6.81692 39.495 6.88456 39.4713C6.95219 39.4476 7.01376 39.4092 7.06487 39.359C7.17307 39.2332 7.15294 39.0344 7.12777 38.8985C6.89754 37.6567 6.67862 36.391 6.46726 35.1669C6.46726 35.1669 6.33012 34.378 6.26344 33.9918C6.25086 33.9176 6.2408 33.8446 6.23199 33.7704C6.22318 33.6961 6.21941 33.6685 6.21312 33.6219C6.16028 33.2445 6.23199 32.9249 6.42322 32.706C6.52965 32.5951 6.65895 32.5088 6.80213 32.4529C6.94531 32.3971 7.09894 32.3731 7.25233 32.3827H7.34291C7.94052 32.4128 8.47523 32.6544 8.9898 33.1212C9.59709 33.6939 10.0947 34.3726 10.458 35.1241C10.5264 35.2881 10.6445 35.4265 10.7958 35.5197C10.947 35.613 11.1237 35.6563 11.301 35.6437C12.0848 35.6437 12.8585 35.6374 13.6335 35.6374C14.6967 35.6374 15.7724 35.6374 16.8166 35.6488H16.8304C16.9155 35.6575 17.0015 35.649 17.0832 35.6237C17.165 35.5984 17.2407 35.5568 17.306 35.5015C17.4105 35.3726 17.4598 35.2075 17.4431 35.0423C17.4255 34.2409 17.4243 33.3602 17.4431 32.2745C17.4554 32.1208 17.4227 31.9669 17.349 31.8315C17.2753 31.6961 17.1637 31.5851 17.028 31.512C15.556 30.6175 14.1104 30.1822 12.6094 30.1822C12.3054 30.182 12.0017 30.2001 11.6998 30.2363C11.608 30.2464 11.5161 30.2501 11.418 30.2539H11.3802H11.1701C10.2706 30.2539 10.0076 30.0023 9.83023 28.9958C9.72454 28.3868 9.62138 27.7666 9.52199 27.1665C9.3144 25.9083 9.09926 24.6112 8.83505 23.343C8.73314 22.8536 8.79102 22.4623 9.00238 22.1969C9.23262 21.9125 9.59496 21.8534 9.85791 21.8534C10.102 21.8573 10.3441 21.8976 10.5763 21.9729C11.2318 22.1755 11.7086 22.6812 12.1188 23.1983C12.3425 23.4749 12.5492 23.7648 12.7378 24.0664C12.8636 24.2753 12.9768 24.3646 13.1076 24.3646C13.2385 24.3646 13.3492 24.2753 13.4738 24.0652C13.7568 23.5896 14.0538 23.1128 14.3393 22.6511C14.4702 22.4422 14.6006 22.2325 14.7306 22.022L15.1622 21.3212L17.0267 18.2942C18.0898 16.563 18.4849 16.2925 20.5419 15.8848L20.7457 15.8446L20.6199 15.6823C20.258 15.2593 19.9374 14.8026 19.6625 14.3185C19.2446 13.5655 19.0279 12.7175 19.0334 11.8563V11.5066C19.0447 10.4145 19.0561 9.38285 19.4171 8.36125C20.1821 6.19853 22.185 4.74414 24.4018 4.74414H24.5541C25.6912 4.77995 26.786 5.18382 27.674 5.89506C28.5619 6.6063 29.1951 7.58649 29.4784 8.68837C29.9728 10.6561 29.9426 12.3369 29.3878 13.8467C29.1978 14.36 28.8908 14.8532 28.3914 15.437C28.3033 15.5414 28.2202 15.6534 28.2655 15.7741C28.3108 15.8949 28.4907 15.9402 28.5851 15.9578C30.9164 16.3717 32.0085 17.6726 32.021 20.048C32.038 21.0003 32.0036 21.9528 31.9179 22.9014C31.7782 24.2388 31.1315 25.4177 29.9955 26.4053C29.8476 26.5209 29.7305 26.6712 29.6543 26.8427C29.5782 27.0143 29.5454 27.2019 29.5589 27.3892C29.5803 28.3139 29.5727 29.2235 29.5589 30.069C29.5408 30.218 29.5824 30.3682 29.6746 30.4867C29.7156 30.5243 29.7639 30.553 29.8165 30.571C29.8692 30.589 29.925 30.5958 29.9804 30.5911C30.0342 30.5906 30.088 30.5868 30.1414 30.5798C30.6728 30.5102 31.2083 30.4769 31.7443 30.4804H31.8122C31.9244 30.4731 32.037 30.4885 32.1431 30.5256C32.2492 30.5628 32.3468 30.621 32.4299 30.6968C32.4875 30.7575 32.5315 30.8297 32.5593 30.9086C32.587 30.9875 32.5978 31.0714 32.591 31.1547C32.5834 31.3762 32.4652 31.7498 31.7933 31.7586C29.7803 31.7838 28.1825 32.1361 26.7721 32.8469C26.3884 33.0419 26.2324 33.2961 26.2525 33.6961C26.2803 34.1931 26.2803 34.6913 26.2525 35.1883C26.2412 35.3682 26.2462 35.5934 26.3897 35.7456C26.5331 35.8979 26.7734 35.918 26.9407 35.918H26.9596C27.9447 35.9092 28.9877 35.9042 30.3427 35.9042H34.0202H34.258C34.3473 35.9042 34.4153 35.9042 34.4782 35.913C34.5571 35.9139 34.635 35.9311 34.7071 35.9635C34.7791 35.9958 34.8437 36.0427 34.8968 36.1011C34.9499 36.1595 34.9904 36.2283 35.0158 36.3031C35.0412 36.3778 35.0509 36.457 35.0443 36.5357C35.0482 36.6109 35.0369 36.6861 35.0109 36.7567C34.985 36.8274 34.945 36.8921 34.8934 36.9469C34.8418 37.0016 34.7796 37.0454 34.7106 37.0755C34.6416 37.1056 34.5673 37.1214 34.492 37.122C34.2567 37.1346 34.0076 37.1409 33.7308 37.1409C33.5232 37.1409 33.3043 37.1409 33.0439 37.1296H33.0062C32.9354 37.1225 32.8639 37.13 32.7962 37.1516C32.7285 37.1733 32.6659 37.2086 32.6124 37.2554C32.5649 37.3105 32.5292 37.3748 32.5076 37.4443C32.486 37.5137 32.4788 37.5869 32.4866 37.6592C32.5004 38.0644 32.4966 38.4745 32.4866 38.8708V39.018C32.4779 39.0813 32.4839 39.1457 32.5042 39.2063C32.5245 39.2668 32.5585 39.3219 32.6035 39.3672C32.6486 39.4125 32.7034 39.4468 32.7639 39.4674C32.8243 39.488 32.8887 39.4944 32.9521 39.486H39.5472L39.3987 39.286L39.2565 39.0935C39.1697 38.979 39.1018 38.8872 39.0351 38.7941C37.9493 37.2352 37.6361 35.6978 38.0789 34.0924C38.1909 33.6873 38.0865 33.437 37.7178 33.2269C36.9577 32.7948 36.1478 32.4568 35.306 32.2204C35.0028 32.1335 34.8028 32.0304 34.7071 31.7813C34.6602 31.678 34.6448 31.5633 34.663 31.4513C34.6811 31.3394 34.7319 31.2353 34.8091 31.1522C34.8657 31.0828 34.9368 31.0266 35.0175 30.9875C35.0981 30.9484 35.1862 30.9273 35.2758 30.9257C35.3344 30.9261 35.3927 30.9337 35.4494 30.9484C36.4601 31.196 37.4288 31.5911 38.3243 32.121C38.4363 32.1975 38.5664 32.2435 38.7017 32.2543C38.7901 32.2465 38.8757 32.2187 38.9519 32.1732C39.0282 32.1277 39.0932 32.0655 39.142 31.9914C40.2743 30.6213 41.6394 29.9268 43.1856 29.9268C43.7344 29.9317 44.2801 30.0091 44.8086 30.157C44.882 30.1775 44.9577 30.188 45.0338 30.1885C45.2213 30.1804 45.4021 30.1169 45.5534 30.0061C46.3586 29.5028 47.1072 29.2587 47.842 29.2587C48.0172 29.259 48.1921 29.2725 48.3654 29.299C49.1441 29.4248 49.6071 29.9784 49.6348 30.8251C49.6342 31.1164 49.6013 31.4067 49.5367 31.6907C49.4916 31.908 49.4589 32.1277 49.4385 32.3487C49.3849 33.2502 49.4229 34.1548 49.5518 35.0486C49.7518 36.5584 49.3555 37.8643 48.3389 39.0482C48.3067 39.0872 48.2784 39.1294 48.2546 39.174C48.2383 39.203 48.2169 39.2394 48.1892 39.2847L48.0722 39.476H50.5507C51.6377 39.476 51.9875 39.8232 51.9875 40.9002V41.9067C51.9875 43.2487 51.9875 44.5907 51.9875 45.9327C51.9875 46.7706 51.5937 47.1669 50.7533 47.1795C50.5331 47.1795 50.3117 47.187 50.0915 47.187C49.9238 47.187 49.7539 47.1845 49.582 47.1795H49.548C49.4816 47.1741 49.4148 47.1825 49.3518 47.2041C49.2888 47.2258 49.2309 47.2602 49.1819 47.3053C49.136 47.3594 49.1022 47.4225 49.0824 47.4906C49.0627 47.5587 49.0576 47.6301 49.0674 47.7003C49.0774 47.913 49.0674 48.1294 49.0674 48.3382V48.5408C49.0778 49.2394 48.8111 49.9137 48.3257 50.4161C47.8402 50.9186 47.1754 51.2083 46.4769 51.2218H28.3523V51.2508ZM46.1901 49.9599C46.2995 49.9599 46.4278 49.9599 46.5574 49.9486C46.8438 49.9306 47.1166 49.8208 47.3356 49.6354C47.5545 49.45 47.7078 49.1989 47.7728 48.9195C47.8385 48.6176 47.8656 48.3085 47.8533 47.9998C47.8533 47.265 47.7916 47.2059 47.0582 47.2059H30.2005H29.93C29.8368 47.2069 29.7435 47.2027 29.6507 47.1933C29.2934 47.1518 29.0896 46.9568 29.0468 46.6121C29.0091 46.3089 29.2494 46.0195 29.5941 45.9541C29.7818 45.9251 29.9717 45.9133 30.1615 45.9188H30.227H44.1481H50.0022C50.7067 45.9188 50.7709 45.8534 50.7721 45.1388V41.606C50.7721 40.8511 50.7105 40.7844 49.9506 40.7844H19.8562C15.6704 40.7844 10.7436 40.7844 5.92501 40.7756C5.70483 40.7756 5.48089 40.7957 5.3362 40.9442C5.19152 41.0927 5.17768 41.3216 5.18271 41.5116C5.20662 42.3445 5.20284 43.1925 5.19781 44.0128V44.0467C5.19781 44.378 5.19781 44.7089 5.19781 45.0394C5.19781 45.861 5.25443 45.9201 6.05837 45.9201H26.1129C26.825 45.9201 27.1773 46.1289 27.1898 46.5567C27.1963 46.6298 27.1877 46.7035 27.1645 46.7732C27.1413 46.8429 27.1042 46.9071 27.0552 46.9618C26.898 47.1241 26.5784 47.2072 26.1079 47.2072H9.34585C8.70546 47.2072 8.38464 47.2072 8.21354 47.3984C8.04243 47.5896 8.06634 47.9167 8.12421 48.5622C8.18837 49.2755 8.60859 49.8077 9.19362 49.9197C9.37563 49.9504 9.56013 49.9639 9.74468 49.9599H46.1901V49.9599ZM13.4423 36.9295C13.3479 36.9211 13.2528 36.9318 13.1627 36.961C13.0725 36.9902 12.9892 37.0372 12.9177 37.0994C12.7768 37.2503 12.7755 37.4768 12.7919 37.6378C12.8203 38.0068 12.8203 38.3773 12.7919 38.7463C12.7768 38.9186 12.7742 39.1652 12.9177 39.3275C13.0611 39.4898 13.3052 39.5062 13.4738 39.5074H13.5178C14.0613 39.4961 14.6602 39.4911 15.405 39.4911H16.6241H17.8432H20.1695C20.8841 39.4911 21.5971 39.4911 22.3083 39.4911H22.3297C22.4555 39.4911 22.6329 39.4911 22.7298 39.3653C22.8267 39.2394 22.7952 39.0784 22.7625 38.9413C22.4379 37.5573 23.1047 36.4011 24.4622 35.9822C24.7843 35.8828 24.9944 35.7305 24.9781 35.3053C24.9592 34.8096 24.963 34.3051 24.968 33.8169C24.968 33.6383 24.968 33.4634 24.968 33.2885C24.9834 33.0722 24.9219 32.8574 24.7944 32.6821C24.2232 31.9461 23.4444 30.9975 22.4731 30.1885C22.3428 30.0574 22.1683 29.9798 21.9837 29.9708H21.9183C21.8456 29.9783 21.7725 29.9821 21.6994 29.9821C20.5432 29.9821 19.6864 29.0209 19.5606 28.1302C19.5462 28.0012 19.4988 27.8781 19.423 27.7727C19.3472 27.6674 19.2455 27.5834 19.1278 27.5288C18.1477 27.0256 17.1148 26.8041 16.3171 26.6645C16.2665 26.6548 16.2151 26.6497 16.1636 26.6494C15.8919 26.6494 15.7145 26.8104 15.6365 27.1262C15.5044 27.6685 15.3496 28.2057 15.1898 28.753C15.0917 29.0889 15.1898 29.2864 15.522 29.3946C16.8204 29.8249 18.047 30.542 19.2737 31.5875C20.396 32.5437 21.1169 33.4747 21.5446 34.529C21.7849 35.1216 21.8038 35.6123 21.5987 35.9884C21.3937 36.3646 20.9697 36.6175 20.3406 36.7345C19.609 36.8686 18.8664 36.9338 18.1225 36.9295C17.6587 36.9295 17.1949 36.9295 16.731 36.9295H16.6329H15.3232C14.601 36.9295 14.0122 36.9295 13.4662 36.9182L13.4423 36.9295ZM29.4205 39.4923C29.8822 39.4923 30.2609 39.4923 30.6119 39.5011H30.6396C30.7188 39.5083 30.7986 39.4991 30.8741 39.4742C30.9496 39.4493 31.0193 39.4093 31.0787 39.3564C31.1295 39.2936 31.1669 39.2209 31.1886 39.143C31.2102 39.0651 31.2156 38.9836 31.2045 38.9035C31.1882 38.5399 31.1932 38.1663 31.1982 37.8064V37.6404C31.204 37.5722 31.1958 37.5036 31.1742 37.4387C31.1526 37.3738 31.1179 37.314 31.0724 37.2629C31.025 37.2189 30.9691 37.185 30.908 37.1633C30.847 37.1417 30.7822 37.1328 30.7176 37.1371H27.7258C27.0225 37.1371 26.0965 37.1371 25.1718 37.1497C24.9987 37.149 24.8273 37.1834 24.668 37.2509C24.5086 37.3184 24.3645 37.4175 24.2446 37.5422C24.1395 37.6537 24.0581 37.7853 24.0053 37.9291C23.9525 38.0729 23.9295 38.2259 23.9376 38.3789C23.9716 39.0532 24.4886 39.4923 25.2536 39.4974H26.2878H27.8416H28.6266H29.423L29.4205 39.4923ZM10.0592 39.4923C10.3863 39.4923 10.6883 39.4923 10.9726 39.5011H10.9978C11.0671 39.5073 11.137 39.4993 11.2032 39.4777C11.2693 39.4561 11.3304 39.4212 11.3828 39.3753C11.4308 39.3167 11.4666 39.2492 11.4882 39.1766C11.5098 39.104 11.5167 39.0279 11.5086 38.9526C11.4947 38.4632 11.4947 37.975 11.5086 37.502C11.5186 37.1245 11.3677 36.9547 11.0053 36.9257C10.2265 36.8641 9.68932 36.4854 9.36975 35.767C9.19502 35.4073 8.98425 35.0663 8.74069 34.7492C8.49913 34.4196 8.22738 34.0446 7.73419 33.798L7.51024 33.6873L7.78703 35.2461C8.01853 36.5471 8.24247 37.814 8.4639 39.0809C8.51423 39.3703 8.68533 39.5037 9.00364 39.5037H9.01999C9.35717 39.4923 9.70945 39.4886 10.0617 39.4886L10.0592 39.4923ZM43.2448 31.1925C41.1173 31.1925 39.1798 33.2055 39.1773 35.4097C39.1757 36.1897 39.3847 36.9557 39.7822 37.6269C40.1796 38.298 40.7509 38.8495 41.4356 39.2231C41.5747 39.3093 41.7328 39.3602 41.8961 39.3715C42.0104 39.3701 42.1222 39.3374 42.2194 39.2772C42.9244 38.8746 43.5737 38.3814 44.1506 37.8102C44.8615 37.0704 45.0099 36.2677 44.6036 35.3594C44.0512 34.1252 43.9468 32.935 44.2941 31.824C44.3189 31.7669 44.3318 31.7052 44.3318 31.6429C44.3318 31.5805 44.3189 31.5189 44.2941 31.4617C44.2299 31.3523 44.1129 31.307 43.9317 31.268C43.7061 31.2185 43.4758 31.1932 43.2448 31.1925V31.1925ZM47.9716 30.5395C47.9519 30.5383 47.9321 30.5383 47.9124 30.5395C46.5675 30.6477 45.7296 31.2466 45.4868 32.2719C45.2741 33.1765 45.3937 34.1025 45.8529 35.099C46.3448 36.1684 46.2152 37.1811 45.4566 38.1939C45.3144 38.3827 45.1571 38.5651 44.9898 38.7588C44.9055 38.8557 44.8187 38.9564 44.7294 39.062L44.5432 39.2822L44.8275 39.2709C45.9485 39.2281 46.9147 38.7865 47.5488 38.0266C48.1829 37.2667 48.4585 36.1998 48.2949 35.0587C48.1917 34.3315 48.086 33.4873 48.1502 32.6481C48.1792 32.2606 48.2395 31.8693 48.2974 31.4906C48.3188 31.351 48.3402 31.2126 48.3603 31.0742C48.3773 31.0036 48.3787 30.9301 48.3646 30.8589C48.3505 30.7877 48.3211 30.7203 48.2785 30.6615C48.2393 30.6202 48.1915 30.5878 48.1385 30.5668C48.0855 30.5457 48.0285 30.5364 47.9716 30.5395V30.5395ZM18.7176 34.4749C18.7176 34.5781 18.7176 34.6699 18.7176 34.7542C18.7176 35.1958 18.7176 35.3959 18.8434 35.5204C18.8871 35.5586 18.938 35.5875 18.9932 35.6055C19.0483 35.6234 19.1065 35.63 19.1643 35.6248C19.3425 35.6173 19.5202 35.5997 19.6964 35.572L20.0122 35.5305L20.0676 35.5242C20.1311 35.5178 20.1923 35.497 20.2466 35.4635C20.3009 35.4299 20.3468 35.3844 20.3809 35.3304C20.4059 35.2763 20.418 35.2171 20.4163 35.1575C20.4145 35.0979 20.399 35.0395 20.3708 34.987C20.0519 34.2589 19.5558 33.6222 18.9277 33.135L18.7227 32.9689L18.7176 34.4749ZM28.0013 27.6898C27.9257 27.6927 27.8514 27.7102 27.7824 27.7414C26.5859 28.2321 25.3656 28.7265 24.1854 29.2046L24.0835 29.2461C24.008 29.2763 23.8319 29.3481 23.8017 29.5053C23.7968 29.5661 23.8076 29.6271 23.8331 29.6824C23.8587 29.7377 23.8982 29.7855 23.9477 29.8211C24.5337 30.3781 25.074 30.9814 25.5631 31.6253C25.6019 31.6833 25.6539 31.7313 25.715 31.7652C25.776 31.7992 25.8443 31.818 25.9141 31.8203C26.0057 31.8174 26.0949 31.791 26.1733 31.7435C26.7157 31.4467 27.2885 31.2092 27.8818 31.0352C28.0002 31.0118 28.1057 30.9456 28.1784 30.8493C28.251 30.753 28.2856 30.6333 28.2756 30.5131C28.2756 30.2162 28.2756 29.918 28.2756 29.6211V28.9631C28.2756 28.6661 28.2756 28.368 28.2756 28.0711C28.2873 27.9617 28.2552 27.8523 28.1863 27.7666C28.1623 27.7418 28.1336 27.7222 28.1018 27.709C28.07 27.6958 28.0358 27.6893 28.0013 27.6898ZM12.6107 28.948C12.8707 28.948 13.1315 28.9505 13.3932 28.9555H13.4134C13.7166 28.9555 13.8952 28.8083 13.9707 28.4938C14.0462 28.1793 14.1267 27.8962 14.2085 27.6056C14.2488 27.4659 14.2878 27.325 14.3268 27.1841C14.3985 26.9224 14.4526 26.6934 14.3356 26.5449C14.2823 26.4916 14.2175 26.4513 14.1462 26.4271C14.0748 26.4029 13.9989 26.3954 13.9242 26.4053C13.8726 26.4053 13.816 26.4053 13.7518 26.4116C13.6876 26.4179 13.626 26.4179 13.5706 26.4179C12.8359 26.4179 12.3377 26.0706 12.0018 25.3246C11.6418 24.5365 11.1049 23.842 10.4329 23.2952L10.258 23.1493L10.2278 23.3745C10.219 23.4336 10.2114 23.4789 10.2039 23.5154C10.1884 23.5753 10.1842 23.6376 10.1913 23.6991C10.3649 24.7005 10.5398 25.7012 10.7159 26.701L11.0393 28.5491C11.0858 28.8184 11.2595 28.9543 11.5551 28.9543H11.5903C11.93 28.9467 12.2697 28.9429 12.6107 28.9429V28.948ZM24.8447 25.4705C24.7596 25.4731 24.676 25.4937 24.5994 25.5309C24.3704 25.6341 24.1326 25.7347 23.9049 25.8316L23.8898 25.8379L23.3941 26.0505L22.9185 26.2581C22.4153 26.4795 21.8843 26.7072 21.3748 26.9463C21.1699 27.0286 21.0026 27.1836 20.9048 27.3816C20.8071 27.5797 20.7858 27.8068 20.8451 28.0195C20.9407 28.4472 21.2465 28.6888 21.7786 28.7593H21.8063L21.8327 28.7504L21.946 28.7165C22.0554 28.685 22.1737 28.6498 22.2907 28.6032C22.8057 28.3969 23.3203 28.1872 23.8344 27.9742L24.6409 27.6471C25.3165 27.3741 25.6562 27.2369 25.7455 26.9689C25.8348 26.701 25.6436 26.3864 25.2649 25.7611L25.2561 25.7473C25.2187 25.6681 25.1608 25.6002 25.0885 25.5507C25.0162 25.5012 24.9321 25.4718 24.8447 25.4655V25.4705ZM27.5321 21.6345C27.6508 21.636 27.7663 21.6737 27.8629 21.7427C28.0781 21.8874 28.2932 22.1415 28.0944 22.5227C27.7961 23.1189 27.4445 23.687 27.0439 24.2199C26.9666 24.3039 26.8755 24.3741 26.7747 24.4275C26.5293 24.5785 26.3293 24.727 26.3607 25.0239C26.4071 25.276 26.5066 25.5153 26.6526 25.7259C26.708 25.8203 26.7596 25.9083 26.8036 25.9989L26.8665 26.1247C26.8992 26.1851 26.9269 26.238 26.9521 26.2921C26.9751 26.3634 27.0196 26.4258 27.0795 26.4709C27.1394 26.5159 27.2118 26.5414 27.2867 26.5437C27.3585 26.542 27.429 26.5244 27.4931 26.4921C29.4457 25.6064 30.4522 24.3923 30.666 22.6838C30.7055 22.3077 30.7223 21.9296 30.7164 21.5514C30.7164 21.3741 30.7164 21.2092 30.7239 21.0683C30.7239 20.8507 30.7239 20.6594 30.7239 20.4808C30.7239 20.1436 30.7239 19.824 30.7239 19.5145C30.7103 18.9206 30.4692 18.3545 30.0504 17.9331C29.6316 17.5117 29.067 17.2672 28.4731 17.2499C28.3297 17.2499 28.2114 17.2398 28.1108 17.2398C27.5069 17.2398 27.4641 17.4424 27.3245 18.1205L27.3131 18.1746C27.0414 19.4806 26.3066 20.3135 25.119 20.6406C24.8678 20.7127 24.6078 20.75 24.3465 20.7513C23.5614 20.7513 22.843 20.3877 22.2077 19.6718C21.7735 19.1832 21.5161 18.5629 21.4767 17.9104C21.439 17.3531 21.0993 17.2587 20.7331 17.2398H20.562C19.6197 17.2398 18.9101 17.655 18.3918 18.508C18.0521 19.0679 17.7011 19.6328 17.3614 20.1801L16.8103 21.0708L16.1812 22.1038C15.6868 22.9102 15.1747 23.7393 14.6627 24.5521C14.5193 24.7773 14.4828 24.9295 14.5444 25.0553C14.6325 25.2289 14.8954 25.2466 15.0087 25.2554C15.2741 25.273 15.5673 25.3107 15.9284 25.3711C15.9894 25.3822 16.0513 25.3881 16.1133 25.3887C16.2476 25.3902 16.3795 25.3532 16.4934 25.2821C16.6074 25.2109 16.6986 25.1087 16.7562 24.9874C17.2041 24.2212 17.6847 23.46 18.1087 22.7882C18.2924 22.4963 18.5214 22.3365 18.7541 22.3365C18.8691 22.3384 18.981 22.3739 19.0762 22.4384C19.397 22.6448 19.4385 23.0058 19.1894 23.4273C18.885 23.9419 18.5214 24.5483 18.1326 25.1472C18.0131 25.3296 17.9464 25.4806 18.0068 25.6278C18.0672 25.775 18.2584 25.858 18.3943 25.897C18.7777 26.0132 19.1503 26.1627 19.5077 26.3436C19.6081 26.3982 19.7195 26.4296 19.8336 26.4355C19.9101 26.4328 19.9851 26.4133 20.0531 26.3783C20.1212 26.3432 20.1807 26.2936 20.2274 26.2329C20.4614 26.0024 20.7419 25.8244 21.0502 25.7108C21.7011 25.4315 22.3507 25.1501 22.999 24.8666L23.0129 24.8603C23.7677 24.5319 24.5528 24.191 25.3253 23.8614C25.8106 23.6787 26.213 23.3259 26.4576 22.8687C26.6284 22.5403 26.8244 22.2257 27.0439 21.9276C27.0953 21.8423 27.1665 21.7707 27.2515 21.7188C27.3364 21.6669 27.4327 21.6362 27.5321 21.6295V21.6345ZM22.9839 17.3443C22.9009 17.3443 22.7084 17.3795 22.7071 17.7066C22.7071 18.6137 23.5161 19.4441 24.4106 19.4491C24.6327 19.4429 24.8513 19.3928 25.0538 19.3017C25.2564 19.2106 25.4388 19.0802 25.5908 18.9182C25.7526 18.7597 25.8814 18.5707 25.9698 18.362C26.0581 18.1534 26.1042 17.9294 26.1053 17.7028C26.0978 17.3808 25.9078 17.3468 25.8273 17.3468C25.7642 17.3487 25.702 17.362 25.6436 17.3858C25.2526 17.5311 24.8391 17.6065 24.422 17.6085C23.9926 17.6054 23.567 17.5283 23.1638 17.3808C23.1066 17.357 23.0458 17.343 22.9839 17.3392V17.3443ZM22.8279 10.1465C22.6031 10.1483 22.3839 10.2175 22.1989 10.3453C22.1007 10.4095 22.0039 10.4787 21.907 10.5466C21.6424 10.7588 21.3449 10.9263 21.0263 11.0423C20.4501 11.2122 20.2173 11.5456 20.3331 12.0312V12.0476V12.0652C20.3073 12.4646 20.374 12.8646 20.5281 13.234C21.0438 14.4767 22.008 15.48 23.2293 16.0446C23.5939 16.2295 23.9956 16.3297 24.4044 16.3378C24.5249 16.3379 24.6453 16.3278 24.7642 16.3076C26.9659 15.9301 28.6581 13.4957 28.4983 11.7708C28.4643 11.3933 28.2983 11.2122 27.9258 11.1417C26.4576 10.8561 24.7516 10.5227 23.0934 10.173C23.0062 10.1536 22.9172 10.143 22.8279 10.1415V10.1465ZM22.8518 8.89596C23.1375 8.89833 23.422 8.93337 23.6998 9.00038C24.5478 9.19413 25.4134 9.36398 26.2513 9.52754C26.791 9.63322 27.3458 9.74142 27.8868 9.85591C27.9632 9.87442 28.0411 9.88537 28.1196 9.88862C28.159 9.89123 28.1985 9.88489 28.2351 9.87008C28.2717 9.85526 28.3045 9.83235 28.331 9.80307C28.3648 9.74555 28.3863 9.68157 28.3939 9.61525C28.4014 9.54893 28.395 9.48176 28.375 9.41808C28.0353 7.50069 26.3381 6.05133 24.4257 6.0463C22.6241 6.0463 21.1043 7.21007 20.5557 9.01296C20.5444 9.04855 20.531 9.08342 20.5155 9.11739V9.13123C20.4274 9.34259 20.3595 9.56276 20.5708 9.71374C20.6189 9.7482 20.6765 9.76669 20.7357 9.76658C20.8879 9.76658 21.015 9.65209 21.1282 9.55144C21.1559 9.52628 21.1785 9.50615 21.2012 9.48854C21.6624 9.09871 22.2479 8.88674 22.8518 8.89093V8.89596Z" fill="#00AFA5"/>
</g>
<defs>
<clipPath id="clip0">
<rect width="48" height="46.5016" fill="white" transform="translate(4 4.74921)"/>
</clipPath>
</defs>
</svg>
