<svg width="56" height="56" viewBox="0 0 56 56" fill="none" xmlns="http://www.w3.org/2000/svg">
    <path
        d="M37.989 20.178L37.475 18.488C37.2283 17.7616 36.7604 17.1306 36.1367 16.6838C35.5131 16.237 34.7652 15.9967 33.998 15.9967C33.2309 15.9967 32.4829 16.237 31.8593 16.6838C31.2357 17.1306 30.7677 17.7616 30.521 18.488L30.007 20.178C29.575 21.6036 29.4842 23.1108 29.742 24.578C29.8582 25.1878 30.11 25.7636 30.4789 26.2628C30.8478 26.762 31.3243 27.1719 31.873 27.462L31.298 40.32C31.2599 40.6749 31.2972 41.0339 31.4075 41.3734C31.5178 41.7129 31.6986 42.0253 31.938 42.29C32.1856 42.5609 32.4841 42.7804 32.8165 42.9359C33.149 43.0914 33.5088 43.1799 33.8754 43.1964C34.242 43.2128 34.6083 43.1568 34.9533 43.0317C35.2983 42.9065 35.6152 42.7147 35.886 42.467C35.9474 42.411 36.0064 42.352 36.063 42.29C36.2971 42.0327 36.475 41.7294 36.5852 41.3995C36.6954 41.0696 36.7355 40.7203 36.703 40.374L36.125 27.46C36.673 27.1698 37.1487 26.7601 37.5171 26.2612C37.8854 25.7624 38.1369 25.1871 38.253 24.578C38.5114 23.1109 38.421 21.6037 37.989 20.178ZM36.678 24.3C36.5929 24.736 36.3947 25.142 36.1034 25.4773C35.8121 25.8127 35.4378 26.0657 35.018 26.211C34.8598 26.2704 34.7245 26.3783 34.6315 26.5193C34.5384 26.6604 34.4924 26.8272 34.5 26.996L35.108 40.496C35.122 40.627 35.1077 40.7594 35.0664 40.8844C35.025 41.0095 34.9573 41.1242 34.868 41.221C34.6366 41.4501 34.3241 41.5786 33.9985 41.5786C33.6729 41.5786 33.3605 41.4501 33.129 41.221C33.0354 41.1164 32.9658 40.9925 32.9252 40.8581C32.8846 40.7237 32.8739 40.582 32.894 40.443L33.494 26.991C33.5016 26.8222 33.4556 26.6554 33.3626 26.5143C33.2695 26.3733 33.1342 26.2654 32.976 26.206C32.5562 26.0607 32.182 25.8077 31.8907 25.4723C31.5994 25.137 31.4012 24.731 31.316 24.295C31.102 23.0769 31.1774 21.8256 31.536 20.642L32.05 18.951C32.1969 18.5533 32.4622 18.2102 32.81 17.9679C33.1579 17.7256 33.5716 17.5957 33.9955 17.5957C34.4195 17.5957 34.8332 17.7256 35.181 17.9679C35.5289 18.2102 35.7941 18.5533 35.941 18.951L36.455 20.642C36.8154 21.8269 36.8921 23.08 36.679 24.3H36.678Z"
        fill="#00AFA5" />
    <path
        d="M25.6001 16C25.3879 16 25.1844 16.0843 25.0344 16.2343C24.8844 16.3843 24.8001 16.5878 24.8001 16.8V23.669L22.6341 25.835C22.5549 25.914 22.4931 26.0088 22.4528 26.1132C22.4125 26.2176 22.3946 26.3292 22.4001 26.441L23.1001 40.441C23.1086 40.5901 23.0864 40.7395 23.0348 40.8797C22.9832 41.0199 22.9033 41.148 22.8001 41.256C22.696 41.3611 22.5722 41.4447 22.4358 41.5019C22.2994 41.5591 22.153 41.5889 22.0051 41.5896C21.8571 41.5903 21.7105 41.5617 21.5736 41.5057C21.4367 41.4497 21.3121 41.3672 21.2071 41.263L21.2001 41.256C21.0969 41.148 21.0169 41.0199 20.9653 40.8797C20.9137 40.7395 20.8915 40.5902 20.9001 40.441L21.6001 26.441C21.6056 26.3292 21.5877 26.2176 21.5474 26.1132C21.5071 26.0088 21.4453 25.914 21.3661 25.835L19.2001 23.669V16.8C19.2001 16.6949 19.1794 16.5909 19.1392 16.4939C19.099 16.3968 19.0401 16.3086 18.9658 16.2343C18.8915 16.16 18.8033 16.1011 18.7062 16.0609C18.6092 16.0207 18.5052 16 18.4001 16C18.295 16 18.191 16.0207 18.0939 16.0609C17.9969 16.1011 17.9087 16.16 17.8344 16.2343C17.7601 16.3086 17.7012 16.3968 17.661 16.4939C17.6208 16.5909 17.6001 16.6949 17.6001 16.8V24C17.6 24.1051 17.6206 24.2092 17.6608 24.3063C17.7009 24.4034 17.7598 24.4916 17.8341 24.566L19.9831 26.716L19.3011 40.363C19.2838 40.7176 19.3366 41.0721 19.4563 41.4062C19.576 41.7404 19.7604 42.0478 19.9989 42.3107C20.2374 42.5736 20.5254 42.787 20.8464 42.9386C21.1673 43.0903 21.515 43.1772 21.8696 43.1945C22.2242 43.2118 22.5787 43.159 22.9129 43.0393C23.247 42.9196 23.5544 42.7352 23.8173 42.4967C24.0802 42.2582 24.2936 41.9702 24.4453 41.6492C24.5969 41.3283 24.6838 40.9806 24.7011 40.626C24.7051 40.5387 24.7051 40.451 24.7011 40.363L24.0191 26.716L26.1681 24.566C26.3173 24.4155 26.4008 24.212 26.4001 24V16.8C26.4001 16.5878 26.3158 16.3843 26.1658 16.2343C26.0158 16.0843 25.8123 16 25.6001 16Z"
        fill="#00AFA5" />
    <path
        d="M20.8 16C20.5878 16 20.3843 16.0843 20.2343 16.2343C20.0843 16.3843 20 16.5878 20 16.8V23.2C20 23.4122 20.0843 23.6157 20.2343 23.7657C20.3843 23.9157 20.5878 24 20.8 24C21.0122 24 21.2157 23.9157 21.3657 23.7657C21.5157 23.6157 21.6 23.4122 21.6 23.2V16.8C21.6 16.5878 21.5157 16.3843 21.3657 16.2343C21.2157 16.0843 21.0122 16 20.8 16Z"
        fill="#00AFA5" />
    <path
        d="M23.2 16C22.9879 16 22.7844 16.0843 22.6343 16.2343C22.4843 16.3843 22.4 16.5878 22.4 16.8V23.2C22.4 23.4122 22.4843 23.6157 22.6343 23.7657C22.7844 23.9157 22.9879 24 23.2 24C23.4122 24 23.6157 23.9157 23.7657 23.7657C23.9157 23.6157 24 23.4122 24 23.2V16.8C24 16.5878 23.9157 16.3843 23.7657 16.2343C23.6157 16.0843 23.4122 16 23.2 16Z"
        fill="#00AFA5" />
    <path
        d="M28 4C23.2533 4 18.6131 5.40758 14.6663 8.04473C10.7195 10.6819 7.64341 14.4302 5.8269 18.8156C4.0104 23.201 3.53512 28.0266 4.46116 32.6822C5.38721 37.3377 7.67299 41.6141 11.0294 44.9706C14.3859 48.327 18.6623 50.6128 23.3178 51.5388C27.9734 52.4649 32.799 51.9896 37.1844 50.1731C41.5698 48.3566 45.3181 45.2805 47.9553 41.3337C50.5924 37.3869 52 32.7468 52 28C52 21.6348 49.4714 15.5303 44.9706 11.0294C40.4697 6.52856 34.3652 4 28 4V4ZM28 50.4C23.5697 50.4 19.2389 49.0863 15.5552 46.6249C11.8716 44.1636 9.00051 40.6652 7.30511 36.5721C5.60971 32.479 5.16611 27.9752 6.03042 23.63C6.89473 19.2848 9.02812 15.2935 12.1608 12.1608C15.2935 9.02811 19.2848 6.89472 23.63 6.03041C27.9752 5.1661 32.4791 5.6097 36.5721 7.3051C40.6652 9.0005 44.1636 11.8716 46.6249 15.5552C49.0863 19.2389 50.4 23.5697 50.4 28C50.4 30.9416 49.8206 33.8544 48.6949 36.5721C47.5692 39.2898 45.9192 41.7592 43.8392 43.8392C41.7592 45.9192 39.2898 47.5692 36.5721 48.6949C33.8544 49.8206 30.9416 50.4 28 50.4Z"
        fill="#00AFA5" />
    <path
        d="M30.598 43.017C30.5878 42.9123 30.5572 42.8108 30.5077 42.718C30.4583 42.6253 30.3911 42.5431 30.3099 42.4764C30.2288 42.4096 30.1353 42.3595 30.0347 42.3289C29.9342 42.2983 29.8286 42.2878 29.724 42.298H29.693C28.5668 42.4287 27.4292 42.4287 26.303 42.298C26.0921 42.2733 25.8801 42.3334 25.7136 42.465C25.547 42.5967 25.4396 42.7891 25.415 43C25.3903 43.2108 25.4504 43.4228 25.5821 43.5893C25.7137 43.7559 25.9061 43.8633 26.117 43.888C27.3661 44.0338 28.6279 44.0338 29.877 43.888C30.088 43.8679 30.2825 43.765 30.4177 43.6017C30.5529 43.4384 30.6177 43.228 30.598 43.017Z"
        fill="#00AFA5" />
    <path
        d="M40.239 17.691C40.1715 17.6104 40.0889 17.5439 39.9957 17.4953C39.9026 17.4466 39.8008 17.4168 39.6962 17.4076C39.5915 17.3983 39.486 17.4097 39.3858 17.4412C39.2856 17.4726 39.1925 17.5235 39.1119 17.591C39.0314 17.6584 38.9649 17.7411 38.9162 17.8342C38.8676 17.9273 38.8378 18.0291 38.8285 18.1338C38.8192 18.2384 38.8307 18.3439 38.8621 18.4441C38.8936 18.5444 38.9445 18.6374 39.0119 18.718C41.3385 21.4797 42.5424 25.0148 42.3852 28.6225C42.2279 32.2302 40.7209 35.6471 38.1629 38.196C38.0126 38.3458 37.9279 38.5493 37.9275 38.7616C37.9271 38.9739 38.0111 39.1776 38.161 39.328C38.3108 39.4784 38.5142 39.563 38.7265 39.5634C38.9388 39.5638 39.1426 39.4798 39.2929 39.33C42.1346 36.4984 43.809 32.7027 43.9842 28.6949C44.1594 24.6871 42.8227 20.7597 40.239 17.691Z"
        fill="#00AFA5" />
    <path
        d="M31.7731 12.447C28.6465 11.6976 25.3674 11.8988 22.356 13.025C22.2576 13.0618 22.1673 13.1177 22.0904 13.1894C22.0135 13.2612 21.9515 13.3473 21.9079 13.443C21.8643 13.5387 21.84 13.642 21.8363 13.7471C21.8326 13.8522 21.8497 13.957 21.8865 14.0555C21.9234 14.154 21.9793 14.2443 22.051 14.3212C22.1227 14.3981 22.2089 14.4601 22.3046 14.5037C22.4003 14.5473 22.5036 14.5716 22.6087 14.5753C22.7138 14.5789 22.8186 14.5618 22.9171 14.525C25.6288 13.5109 28.5817 13.3298 31.397 14.005C31.4998 14.0315 31.6067 14.0373 31.7117 14.0221C31.8167 14.0069 31.9176 13.9709 32.0086 13.9163C32.0996 13.8618 32.1788 13.7896 32.2416 13.7041C32.3044 13.6186 32.3496 13.5215 32.3745 13.4184C32.3995 13.3153 32.4036 13.2082 32.3868 13.1035C32.37 12.9988 32.3325 12.8984 32.2765 12.8083C32.2206 12.7182 32.1472 12.6401 32.0608 12.5786C31.9743 12.5171 31.8765 12.4734 31.7731 12.45V12.447Z"
        fill="#00AFA5" />
    <path
        d="M17.799 38.161C15.382 35.7348 13.9089 32.5267 13.6438 29.1124C13.3788 25.6981 14.3393 22.3011 16.353 19.531C16.418 19.4472 16.4658 19.3513 16.4934 19.2488C16.5211 19.1464 16.5281 19.0394 16.514 18.9342C16.4999 18.8291 16.465 18.7277 16.4114 18.6362C16.3578 18.5446 16.2864 18.4646 16.2016 18.4008C16.1168 18.3371 16.0201 18.2909 15.9172 18.2648C15.8143 18.2388 15.7073 18.2335 15.6024 18.2493C15.4974 18.265 15.3966 18.3015 15.3059 18.3566C15.2152 18.4116 15.1364 18.4842 15.074 18.57L15.06 18.589C12.8209 21.6673 11.7526 25.4429 12.047 29.238C12.3413 33.033 13.979 36.5988 16.666 39.295C16.8162 39.4454 17.02 39.5299 17.2326 39.53C17.4452 39.5301 17.6491 39.4458 17.7995 39.2955C17.9498 39.1453 18.0344 38.9414 18.0345 38.7289C18.0346 38.5163 17.9502 38.3124 17.8 38.162L17.799 38.161Z"
        fill="#00AFA5" />
</svg>