<svg id="illustration_warning_48px" xmlns="http://www.w3.org/2000/svg" width="48" height="48" viewBox="0 0 48 48">
  <rect id="Rectangle_3899" data-name="Rectangle 3899" width="48" height="48" fill="none"/>
  <g id="Group_12592" data-name="Group 12592" transform="translate(-1331 -861)">
    <path id="Subtraction_1" data-name="Subtraction 1" d="M19.854,41.729H3.055A3.06,3.06,0,0,1,0,38.673V5.853a3.063,3.063,0,0,1,3.06-3.06H5.672V1.858A1.861,1.861,0,0,1,7.531,0h.281A1.861,1.861,0,0,1,9.671,1.858v.935H27.878V1.858A1.861,1.861,0,0,1,29.738,0h.281a1.861,1.861,0,0,1,1.858,1.859v.935h2.614a3.064,3.064,0,0,1,3.061,3.06V25.218a12.326,12.326,0,0,0-1.223-.845V12.751H10.282a.612.612,0,0,1,0-1.223H36.328V5.853a1.84,1.84,0,0,0-1.838-1.838H29.1v1.8a.637.637,0,0,0,.636.636.612.612,0,0,1,0,1.223,1.862,1.862,0,0,1-1.859-1.859v-1.8H6.895v1.8a.637.637,0,0,0,.636.636.612.612,0,0,1,0,1.223A1.862,1.862,0,0,1,5.672,5.812v-1.8H3.058A1.84,1.84,0,0,0,1.22,5.853v5.675H7.836a.612.612,0,1,1,0,1.223H1.22V36.224a1.84,1.84,0,0,0,1.838,1.838H18.173a12.2,12.2,0,0,0,.4,1.223H3.058a3.03,3.03,0,0,1-1.838-.616,1.838,1.838,0,0,0,1.834,1.838H19.125a12.285,12.285,0,0,0,.728,1.221ZM29.738,1.221a.637.637,0,0,0-.636.636v.935h1.553V1.858a.637.637,0,0,0-.636-.636Zm-22.207,0a.637.637,0,0,0-.636.636v.935H8.448V1.858a.637.637,0,0,0-.636-.636Zm8.545,34.4H13.166a1.2,1.2,0,0,1-1.193-1.193V31.513a1.2,1.2,0,0,1,1.193-1.193h2.911a1.2,1.2,0,0,1,1.193,1.193v2.911A1.2,1.2,0,0,1,16.077,35.617Zm-2.882-4.075v2.853h2.853V31.541ZM7.77,35.617H4.859a1.2,1.2,0,0,1-1.193-1.193V31.513a1.2,1.2,0,0,1,1.193-1.193H7.77a1.2,1.2,0,0,1,1.193,1.193v2.911A1.2,1.2,0,0,1,7.77,35.617ZM4.888,31.541v2.853H7.741V31.541Zm11.189-3.486H13.166a1.2,1.2,0,0,1-1.193-1.193V23.951a1.2,1.2,0,0,1,1.193-1.193h2.911a1.2,1.2,0,0,1,1.193,1.193v2.912A1.2,1.2,0,0,1,16.077,28.056ZM13.195,23.98v2.852h2.853V23.98ZM7.77,28.056H4.859a1.2,1.2,0,0,1-1.193-1.193V23.951a1.2,1.2,0,0,1,1.193-1.193H7.77a1.2,1.2,0,0,1,1.193,1.193v2.912A1.2,1.2,0,0,1,7.77,28.056ZM4.888,23.98v2.852H7.741V23.98ZM20.363,27.3v0a1.184,1.184,0,0,1-.083-.438V23.951a1.2,1.2,0,0,1,1.193-1.193h2.912a1.2,1.2,0,0,1,1.094.718,12.224,12.224,0,0,0-1.124.514V23.98H21.5v2.061A12.365,12.365,0,0,0,20.364,27.3ZM32.69,20.494H29.779A1.2,1.2,0,0,1,28.586,19.3V16.39A1.2,1.2,0,0,1,29.779,15.2H32.69a1.2,1.2,0,0,1,1.193,1.193V19.3A1.2,1.2,0,0,1,32.69,20.494Zm-2.882-4.075v2.853h2.853V16.419Zm-5.424,4.075H21.472A1.2,1.2,0,0,1,20.279,19.3V16.39A1.2,1.2,0,0,1,21.472,15.2h2.912a1.2,1.2,0,0,1,1.193,1.193V19.3A1.2,1.2,0,0,1,24.384,20.494ZM21.5,16.419v2.853h2.852V16.419Zm-5.425,4.075H13.166A1.2,1.2,0,0,1,11.973,19.3V16.39A1.2,1.2,0,0,1,13.166,15.2h2.911A1.2,1.2,0,0,1,17.27,16.39V19.3A1.2,1.2,0,0,1,16.077,20.494Zm-2.882-4.075v2.853h2.853V16.419ZM7.77,20.494H4.859A1.2,1.2,0,0,1,3.666,19.3V16.39A1.2,1.2,0,0,1,4.859,15.2H7.77A1.2,1.2,0,0,1,8.963,16.39V19.3A1.2,1.2,0,0,1,7.77,20.494ZM4.888,16.419v2.853H7.741V16.419Z" transform="translate(1335.162 863.001)" fill="#00af9c"/>
    <g id="Group_12590" data-name="Group 12590" transform="translate(1355.74 888.442)">
      <g id="mouse-pointer" transform="translate(5.227 5.226)">
        <path id="Path_5302" data-name="Path 5302" d="M3,3l3.5,8.394L7.9,7.9l3.5-1.4Z" transform="translate(-3 -3)" fill="none" stroke="#00af9c" stroke-linecap="round" stroke-linejoin="round" stroke-width="1.5"/>
        <path id="Path_5303" data-name="Path 5303" d="M13,13l3.5,3.5" transform="translate(-8.103 -8.103)" fill="none" stroke="#00af9c" stroke-linecap="round" stroke-linejoin="round" stroke-width="1.5"/>
      </g>
      <circle id="Ellipse_1348" data-name="Ellipse 1348" cx="9.5" cy="9.5" r="9.5" transform="translate(0.26 -0.441)" fill="none" stroke="#00af9c" stroke-linecap="round" stroke-linejoin="round" stroke-width="1.5"/>
    </g>
  </g>
</svg>
