<svg xmlns="http://www.w3.org/2000/svg" xmlns:xlink="http://www.w3.org/1999/xlink" width="789" height="280.5" viewBox="0 0 789 280.5">
  <defs>
    <clipPath id="clip-path">
      <rect id="Rechteck_12403" data-name="Rechteck 12403" width="789" height="280" transform="translate(0 165)" fill="#f8fafe"/>
    </clipPath>
  </defs>
  <g id="Gruppe_23699" data-name="Gruppe 23699" transform="translate(-5923 -7386)">
    <rect id="Rechteck_12404" data-name="Rechteck 12404" width="789" height="280" transform="translate(5923 7386)" fill="#f8fafe"/>
    <g id="activity_card_CTA_mobile" transform="translate(5923 7386)">
      <rect id="Rechteck_12400" data-name="Rechteck 12400" width="789" height="280" fill="#f8fafe"/>
      <line id="Linie_3262" data-name="Linie 3262" x2="789" transform="translate(0 280)" fill="none" stroke="#dae0e7" stroke-width="1"/>
      <g id="Gruppe_maskieren_1627" data-name="Gruppe maskieren 1627" transform="translate(0 -165)" clip-path="url(#clip-path)">
        <g id="Gruppe_23698" data-name="Gruppe 23698" transform="translate(153.507 79.122)">
          <g id="Background_Complete" data-name="Background Complete" transform="translate(53.332 44.081)">
            <g id="Gruppe_17115" data-name="Gruppe 17115" transform="translate(0 157.536)">
              <path id="Pfad_28493" data-name="Pfad 28493" d="M53.332,223.234v45.8a15,15,0,0,0,15,15.006H232.573a15.006,15.006,0,0,0,15.006-15.006v-38.7l20.447-21.482-199.642-.624A15,15,0,0,0,53.332,223.234Z" transform="translate(-53.332 -208.229)" fill="#f5f5f5"/>
              <g id="Gruppe_17112" data-name="Gruppe 17112" transform="translate(21.003 22.481)">
                <path id="Pfad_28494" data-name="Pfad 28494" d="M224.21,236.878,75.176,236.19l.016-4.581,149.034.689Z" transform="translate(-75.176 -231.609)" fill="#e0e0e0"/>
              </g>
              <g id="Gruppe_17113" data-name="Gruppe 17113" transform="translate(21.003 37.551)">
                <path id="Pfad_28495" data-name="Pfad 28495" d="M224.21,252.551l-149.034-.688.016-4.581,149.034.689Z" transform="translate(-75.176 -247.282)" fill="#e0e0e0"/>
              </g>
              <g id="Gruppe_17114" data-name="Gruppe 17114" transform="translate(111.067 52.638)">
                <rect id="Rechteck_12116" data-name="Rechteck 12116" width="4.581" height="58.969" transform="translate(0 4.581) rotate(-89.718)" fill="#e0e0e0"/>
              </g>
            </g>
            <g id="Gruppe_17119" data-name="Gruppe 17119" transform="translate(152.181 315.802)">
              <path id="Pfad_28496" data-name="Pfad 28496" d="M211.6,387.834v45.8a15,15,0,0,0,15,15.006H390.843a15.006,15.006,0,0,0,15.007-15.006v-38.7L426.3,373.452l-199.642-.624A15.005,15.005,0,0,0,211.6,387.834Z" transform="translate(-211.602 -372.828)" fill="#f5f5f5"/>
              <g id="Gruppe_17116" data-name="Gruppe 17116" transform="translate(21.717 21.291)">
                <path id="Pfad_28497" data-name="Pfad 28497" d="M383.222,400.24l-149.034-.688.016-4.581,149.034.689Z" transform="translate(-234.188 -394.971)" fill="#e0e0e0"/>
              </g>
              <g id="Gruppe_17117" data-name="Gruppe 17117" transform="translate(21.717 36.361)">
                <path id="Pfad_28498" data-name="Pfad 28498" d="M383.222,415.913l-149.034-.688.016-4.581,149.034.689Z" transform="translate(-234.188 -410.644)" fill="#e0e0e0"/>
              </g>
              <g id="Gruppe_17118" data-name="Gruppe 17118" transform="translate(111.781 51.449)">
                <rect id="Rechteck_12117" data-name="Rechteck 12117" width="4.581" height="58.969" transform="translate(0 4.581) rotate(-89.718)" fill="#e0e0e0"/>
              </g>
            </g>
            <path id="Pfad_28499" data-name="Pfad 28499" d="M144.63,44.39H241.5a8.682,8.682,0,0,1,8.683,8.682v47.38a8.682,8.682,0,0,1-8.683,8.682H159.3a8.682,8.682,0,0,1-8.683-8.682V50.376Z" transform="translate(-56.844 -44.39)" fill="#f5f5f5"/>
            <g id="Gruppe_17123" data-name="Gruppe 17123" transform="translate(1.546 36.109)">
              <path id="Pfad_28500" data-name="Pfad 28500" d="M197.336,91.9v30.379a9.952,9.952,0,0,1-9.952,9.953H78.454a9.952,9.952,0,0,1-9.953-9.953V96.606L54.94,82.357l132.412-.413A9.952,9.952,0,0,1,197.336,91.9Z" transform="translate(-54.94 -81.944)" fill="#e0e0e0"/>
              <g id="Gruppe_17120" data-name="Gruppe 17120" transform="translate(29.609 14.91)">
                <path id="Pfad_28501" data-name="Pfad 28501" d="M85.743,100.945l98.847-.457-.011-3.038-98.846.457Z" transform="translate(-85.733 -97.451)" fill="#f5f5f5"/>
              </g>
              <g id="Gruppe_17121" data-name="Gruppe 17121" transform="translate(29.609 24.905)">
                <path id="Pfad_28502" data-name="Pfad 28502" d="M85.743,111.34l98.847-.457-.011-3.038-98.846.457Z" transform="translate(-85.733 -107.846)" fill="#f5f5f5"/>
              </g>
              <g id="Gruppe_17122" data-name="Gruppe 17122" transform="translate(29.605 34.912)">
                <rect id="Rechteck_12118" data-name="Rechteck 12118" width="39.111" height="3.038" transform="translate(0 0.192) rotate(-0.282)" fill="#f5f5f5"/>
              </g>
            </g>
            <g id="Gruppe_17127" data-name="Gruppe 17127" transform="translate(207.901 176.983)">
              <path id="Pfad_28503" data-name="Pfad 28503" d="M411.947,238.406v30.379a9.952,9.952,0,0,1-9.953,9.952H293.065a9.952,9.952,0,0,1-9.953-9.952V243.116l-13.561-14.248,132.412-.414A9.952,9.952,0,0,1,411.947,238.406Z" transform="translate(-269.551 -228.454)" fill="#e0e0e0"/>
              <g id="Gruppe_17124" data-name="Gruppe 17124" transform="translate(29.608 14.911)">
                <path id="Pfad_28504" data-name="Pfad 28504" d="M300.354,247.456,399.2,247l-.011-3.038-98.846.457Z" transform="translate(-300.344 -243.961)" fill="#f5f5f5"/>
              </g>
              <g id="Gruppe_17125" data-name="Gruppe 17125" transform="translate(29.608 24.906)">
                <path id="Pfad_28505" data-name="Pfad 28505" d="M300.354,257.851l98.847-.457-.011-3.038-98.846.457Z" transform="translate(-300.344 -254.356)" fill="#f5f5f5"/>
              </g>
              <g id="Gruppe_17126" data-name="Gruppe 17126" transform="translate(29.605 34.912)">
                <rect id="Rechteck_12119" data-name="Rechteck 12119" width="39.111" height="3.038" transform="translate(0 0.192) rotate(-0.282)" fill="#f5f5f5"/>
              </g>
            </g>
          </g>
          <g id="Device" transform="translate(152.242 36.363)">
            <g id="Gruppe_17136" data-name="Gruppe 17136" transform="translate(0 65.766)">
              <g id="Gruppe_17135" data-name="Gruppe 17135">
                <g id="Gruppe_17131" data-name="Gruppe 17131">
                  <g id="Gruppe_17130" data-name="Gruppe 17130">
                    <g id="Gruppe_17128" data-name="Gruppe 17128">
                      <path id="Pfad_28506" data-name="Pfad 28506" d="M291.337,420.638l-111.056-.513a24.191,24.191,0,0,1-24.08-24.294l1.177-278.422a24.192,24.192,0,0,1,24.3-24.089l111.057.512a24.193,24.193,0,0,1,24.08,24.294l-1.177,278.423A24.192,24.192,0,0,1,291.337,420.638Z" transform="translate(-156.2 -93.32)" fill="#0b2d4e"/>
                    </g>
                    <g id="Gruppe_17129" data-name="Gruppe 17129" transform="translate(7.375 9.61)">
                      <path id="Pfad_28507" data-name="Pfad 28507" d="M292.874,103.826l-21.532-.1a5.35,5.35,0,0,0-5.251,5.442l-.017,3.906a5.347,5.347,0,0,1-5.251,5.441l-41.971-.193a5.355,5.355,0,0,1-5.206-5.49l.017-3.906a5.355,5.355,0,0,0-5.207-5.49l-7.572-.035-18.846-.088a16.944,16.944,0,0,0-17.021,16.871l-1.148,271.76a16.942,16.942,0,0,0,16.864,17.015l110.835.512A16.943,16.943,0,0,0,308.59,392.6l1.149-271.761A16.943,16.943,0,0,0,292.874,103.826Z" transform="translate(-163.87 -103.314)" fill="#fafafa"/>
                    </g>
                  </g>
                </g>
                <g id="Gruppe_17132" data-name="Gruppe 17132" transform="translate(69.079 287.774)">
                  <path id="Pfad_28508" data-name="Pfad 28508" d="M232.617,394.584a2.313,2.313,0,1,1-2.279-1.976A2.144,2.144,0,0,1,232.617,394.584Z" transform="translate(-228.043 -392.608)" fill="#455a64"/>
                </g>
                <g id="Gruppe_17133" data-name="Gruppe 17133" transform="translate(76.166 287.807)">
                  <path id="Pfad_28509" data-name="Pfad 28509" d="M239.986,394.618a2.313,2.313,0,1,1-2.278-1.976A2.143,2.143,0,0,1,239.986,394.618Z" transform="translate(-235.413 -392.642)" fill="#455a64"/>
                </g>
                <g id="Gruppe_17134" data-name="Gruppe 17134" transform="translate(83.251 287.839)">
                  <path id="Pfad_28510" data-name="Pfad 28510" d="M247.356,394.651a2.314,2.314,0,1,1-2.279-1.975A2.143,2.143,0,0,1,247.356,394.651Z" transform="translate(-242.782 -392.676)" fill="#455a64"/>
                </g>
              </g>
            </g>
            <path id="Pfad_28511" data-name="Pfad 28511" d="M199.517,240.1c1.806.258,110.754,21.626,110.754,21.626V240.1Z" transform="translate(-157.866 -44.201)" fill="#ebebeb"/>
            <path id="Pfad_28512" data-name="Pfad 28512" d="M163.869,382.244s118.515-16.767,117.482-16.251-117.482,0-117.482,0Z" transform="translate(-156.495 -49.044)" fill="#ebebeb"/>
            <g id="Gruppe_17137" data-name="Gruppe 17137" transform="translate(144.756 15.906)">
              <path id="Pfad_28513" data-name="Pfad 28513" d="M307,52.9c.138,0,.25,5.992.25,13.382s-.112,13.383-.25,13.383-.251-5.99-.251-13.383S306.861,52.9,307,52.9Z" transform="translate(-306.748 -52.905)" fill="#263238"/>
            </g>
            <g id="Gruppe_17139" data-name="Gruppe 17139" transform="translate(160.472)">
              <path id="Pfad_28515" data-name="Pfad 28515" d="M353.853,36.363a2.557,2.557,0,0,1-.258.512l-.822,1.417c-.718,1.23-1.793,2.987-3.137,5.148-2.692,4.319-6.567,10.19-10.956,16.593s-8.307,12.236-11.073,16.5c-1.354,2.093-2.461,3.808-3.269,5.059-.367.557-.666,1.01-.9,1.368a2.441,2.441,0,0,1-.343.459,2.434,2.434,0,0,1,.257-.512l.822-1.418c.718-1.229,1.793-2.986,3.136-5.147,2.692-4.319,6.568-10.19,10.958-16.6s8.3-12.234,11.072-16.5l3.269-5.06c.366-.558.665-1.011.9-1.368A2.448,2.448,0,0,1,353.853,36.363Z" transform="translate(-323.092 -36.363)" fill="#263238"/>
            </g>
          </g>
          <g id="Speech_Bubbles" data-name="Speech Bubbles" transform="translate(87.534 149.563)">
            <g id="Gruppe_17145" data-name="Gruppe 17145" transform="translate(97.175 10)">
              <path id="Pfad_28516" data-name="Pfad 28516" d="M415.214,154.092H198.443a8.478,8.478,0,0,0-8.478,8.478v67.24a8.478,8.478,0,0,0,8.478,8.478h16.149c1.3,7.021,2.823,15.882,2.823,15.882l14.617-15.882H415.214a8.478,8.478,0,0,0,8.477-8.478V162.57A8.477,8.477,0,0,0,415.214,154.092Z" transform="translate(-189.965 -154.092)" fill="#00ccb1"/>
              <g id="Gruppe_17144" data-name="Gruppe 17144" transform="translate(20.57 25.887)">
                <g id="Gruppe_17140" data-name="Gruppe 17140" transform="translate(0 10.336)">
                  <path id="Pfad_28517" data-name="Pfad 28517" d="M326.6,192.015c0,.138-25.8.25-57.619.25s-57.624-.112-57.624-.25,25.795-.25,57.624-.25S326.6,191.877,326.6,192.015Z" transform="translate(-211.358 -191.765)" fill="#f5f5f5"/>
                </g>
                <g id="Gruppe_17141" data-name="Gruppe 17141">
                  <path id="Pfad_28518" data-name="Pfad 28518" d="M326.6,181.266c0,.138-25.8.25-57.619.25s-57.624-.112-57.624-.25,25.795-.251,57.624-.251S326.6,181.128,326.6,181.266Z" transform="translate(-211.358 -181.015)" fill="#f5f5f5"/>
                </g>
                <g id="Gruppe_17142" data-name="Gruppe 17142" transform="translate(0 20.558)">
                  <path id="Pfad_28519" data-name="Pfad 28519" d="M326.6,202.646c0,.138-25.8.251-57.619.251s-57.624-.113-57.624-.251,25.795-.25,57.624-.25S326.6,202.508,326.6,202.646Z" transform="translate(-211.358 -202.396)" fill="#f5f5f5"/>
                </g>
                <g id="Gruppe_17143" data-name="Gruppe 17143" transform="translate(0 31.147)">
                  <path id="Pfad_28520" data-name="Pfad 28520" d="M286.844,213.658c0,.138-16.9.251-37.741.251s-37.745-.113-37.745-.251,16.9-.25,37.745-.25S286.844,213.52,286.844,213.658Z" transform="translate(-211.358 -213.408)" fill="#f5f5f5"/>
                </g>
              </g>
            </g>
            <g id="Gruppe_17151" data-name="Gruppe 17151" transform="translate(0 120.887)">
              <path id="Pfad_28521" data-name="Pfad 28521" d="M313.383,279.816H94.833a5.931,5.931,0,0,0-5.931,5.931v71.14a5.932,5.932,0,0,0,5.931,5.932H253.561l14.449,15.7s1.516-8.824,2.792-15.7h42.581a5.932,5.932,0,0,0,5.931-5.932v-71.14A5.931,5.931,0,0,0,313.383,279.816Z" transform="translate(-88.902 -279.816)" fill="#3d4c5e"/>
              <g id="Gruppe_17150" data-name="Gruppe 17150" transform="translate(100.665 26.098)">
                <g id="Gruppe_17146" data-name="Gruppe 17146" transform="translate(0 10.336)">
                  <path id="Pfad_28522" data-name="Pfad 28522" d="M308.838,317.958c0,.138-25.8.25-57.619.25s-57.624-.112-57.624-.25,25.794-.25,57.624-.25S308.838,317.82,308.838,317.958Z" transform="translate(-193.595 -317.708)" fill="#f5f5f5"/>
                </g>
                <g id="Gruppe_17147" data-name="Gruppe 17147">
                  <path id="Pfad_28523" data-name="Pfad 28523" d="M308.838,307.209c0,.138-25.8.25-57.619.25s-57.624-.112-57.624-.25,25.794-.251,57.624-.251S308.838,307.071,308.838,307.209Z" transform="translate(-193.595 -306.958)" fill="#f5f5f5"/>
                </g>
                <g id="Gruppe_17148" data-name="Gruppe 17148" transform="translate(0 20.558)">
                  <path id="Pfad_28524" data-name="Pfad 28524" d="M308.838,328.589c0,.138-25.8.25-57.619.25s-57.624-.112-57.624-.25,25.794-.25,57.624-.25S308.838,328.451,308.838,328.589Z" transform="translate(-193.595 -328.339)" fill="#f5f5f5"/>
                </g>
                <g id="Gruppe_17149" data-name="Gruppe 17149" transform="translate(0 31.147)">
                  <path id="Pfad_28525" data-name="Pfad 28525" d="M269.081,339.6c0,.139-16.9.251-37.741.251S193.6,339.74,193.6,339.6s16.9-.25,37.745-.25S269.081,339.464,269.081,339.6Z" transform="translate(-193.595 -339.351)" fill="#f5f5f5"/>
                </g>
              </g>
            </g>
          </g>
          <g id="Character_2" data-name="Character 2" transform="translate(324.332 101.128)">
            <g id="Gruppe_17196" data-name="Gruppe 17196" transform="translate(0 0)">
              <g id="Gruppe_17184" data-name="Gruppe 17184">
                <path id="Pfad_28526" data-name="Pfad 28526" d="M367.361,123.234c.129-1.767-1.447-4.2-2.908-5.606a5.751,5.751,0,0,1-1.6-6.125c.588-2.184,1.973-2.021,2.52-3.3a9.709,9.709,0,0,0,.318-3.063,6.383,6.383,0,0,1,7.611-5.423,8.842,8.842,0,0,1,16.309-1.7,6.8,6.8,0,0,1,9.918,5.52,4.951,4.951,0,0,1,6.437.972,6.1,6.1,0,0,1,.463,6.723,8,8,0,0,1-5.779,3.806,11.744,11.744,0,0,1-6.938-1.261,22.461,22.461,0,0,1-5.691-4.3" transform="translate(-336.229 -93.32)" fill="#0b2d4e"/>
                <ellipse id="Ellipse_1305" data-name="Ellipse 1305" cx="41.624" cy="40.649" rx="41.624" ry="40.649" transform="translate(5.229 59.108)" fill="#e0e0e0"/>
                <g id="Gruppe_17180" data-name="Gruppe 17180" transform="translate(0 9.92)">
                  <g id="Gruppe_17174" data-name="Gruppe 17174" transform="translate(6.382)">
                    <path id="Pfad_28527" data-name="Pfad 28527" d="M426.525,196.631l-4.608-11.814L405.4,195.192l14.713,22.688S426.1,210.106,426.525,196.631Z" transform="translate(-344.259 -106.76)" fill="#edbfaa"/>
                    <g id="Gruppe_17165" data-name="Gruppe 17165" transform="translate(20.333)">
                      <g id="Gruppe_17164" data-name="Gruppe 17164">
                        <g id="Gruppe_17163" data-name="Gruppe 17163" transform="translate(0 1.655)">
                          <g id="Gruppe_17160" data-name="Gruppe 17160">
                            <g id="Gruppe_17155" data-name="Gruppe 17155" transform="translate(5.239)">
                              <g id="Gruppe_17154" data-name="Gruppe 17154">
                                <g id="Gruppe_17152" data-name="Gruppe 17152">
                                  <path id="Pfad_28528" data-name="Pfad 28528" d="M379.517,168h0a11.076,11.076,0,0,0,11.123-10.474c.244-4.892.448-9.6.448-9.6s9.084-.658,9.922-9.537.953-29.416.953-29.416h0a31.513,31.513,0,0,0-31.641,1.374l-.864.555-1.049,45.954A11.077,11.077,0,0,0,379.517,168Z" transform="translate(-368.407 -105.359)" fill="#f4d2c3"/>
                                </g>
                                <g id="Gruppe_17153" data-name="Gruppe 17153" transform="translate(11.282 38.196)">
                                  <path id="Pfad_28529" data-name="Pfad 28529" d="M391.564,149.319a21.053,21.053,0,0,1-11.423-4.236s2.24,6.62,11.256,6.541Z" transform="translate(-380.141 -145.083)" fill="#edbfaa"/>
                                </g>
                              </g>
                            </g>
                            <g id="Gruppe_17159" data-name="Gruppe 17159" transform="translate(0 17.2)">
                              <g id="Gruppe_17156" data-name="Gruppe 17156">
                                <path id="Pfad_28530" data-name="Pfad 28530" d="M369.03,124.625a1.348,1.348,0,0,0-1.269-1.372c-1.675-.079-4.428.527-4.775,5.1-.5,6.539,5.89,5.03,5.916,4.843C368.922,133.055,369,127.169,369.03,124.625Z" transform="translate(-362.959 -123.246)" fill="#f4d2c3"/>
                              </g>
                            </g>
                          </g>
                        </g>
                        <path id="Pfad_28534" data-name="Pfad 28534" d="M403.221,111.71s-5.388,2.609-12.4-.891c-4.6-2.3-9.965-3.419-11.148-2.494s-1.432,5.667-5.99,7.051c0,0,.313,9.047-3.294,8.725s-1.353-14.334-1.353-14.334l8.824-4.31,9.63-1.819,9.073,1.279,7.02,1.922Z" transform="translate(-363.166 -103.637)" fill="#263238"/>
                      </g>
                    </g>
                    <g id="Gruppe_17173" data-name="Gruppe 17173" transform="translate(0 45.053)">
                      <g id="Gruppe_17169" data-name="Gruppe 17169" transform="translate(0 6.697)">
                        <path id="Pfad_28535" data-name="Pfad 28535" d="M341.812,166.13c9.429-9.7,26.027-8.638,26.027-8.638L381.6,167.34l7.8-9.083a50.586,50.586,0,0,1,15.882,4.914l.529.163-.007.11c6.035,3.277,14.58,11.136,22.72,18.764l-9.741,9.039L408,200.819a.289.289,0,0,1,.018.191c-.113.58,1.5,13.745,3.149,23.751a40.6,40.6,0,0,1-36.231,10.946c-4.411-.772-6.545-1.847-10.63-2.919a14.79,14.79,0,0,1-10.953-13.034h0c-.735-8.386-1.294-18.769-1.294-18.769" transform="translate(-341.812 -157.458)" fill="#056a68"/>
                        <g id="Gruppe_17166" data-name="Gruppe 17166" transform="translate(56.206 2.491)">
                          <path id="Pfad_28536" data-name="Pfad 28536" d="M400.272,160.048a10.5,10.5,0,0,1,.592,1.548c.353,1.006.833,2.471,1.4,4.29,1.136,3.637,2.582,8.7,3.949,14.357s2.389,10.825,3.039,14.58c.325,1.878.567,3.4.712,4.457a10.608,10.608,0,0,1,.179,1.647,10.282,10.282,0,0,1-.371-1.614c-.221-1.127-.514-2.619-.868-4.424-.738-3.735-1.816-8.881-3.178-14.527s-2.755-10.714-3.8-14.374l-1.246-4.333A10.5,10.5,0,0,1,400.272,160.048Z" transform="translate(-400.267 -160.048)" fill="#00af9c"/>
                        </g>
                        <g id="Gruppe_17167" data-name="Gruppe 17167" transform="translate(65.067 21.927)">
                          <path id="Pfad_28537" data-name="Pfad 28537" d="M409.484,195.492c-.087-.108,4.026-3.6,9.186-7.808s9.415-7.527,9.5-7.419-4.025,3.6-9.186,7.808S409.571,195.6,409.484,195.492Z" transform="translate(-409.483 -180.262)" fill="#263238"/>
                        </g>
                        <path id="Pfad_28538" data-name="Pfad 28538" d="M354.419,180.32l-8.44,27.764,3.14,1.633,3.1-7.852S355.4,185.37,354.419,180.32Z" transform="translate(-341.972 -158.337)" opacity="0.2"/>
                        <g id="Gruppe_17168" data-name="Gruppe 17168" transform="translate(43.294 0.655)" opacity="0.2">
                          <path id="Pfad_28539" data-name="Pfad 28539" d="M398.841,159.992c4.549,2.4-6.853,8.17-12,8.014l3.739-9.867S397.314,159.187,398.841,159.992Z" transform="translate(-386.838 -158.139)" fill="#00af9c"/>
                        </g>
                      </g>
                      <path id="Pfad_28540" data-name="Pfad 28540" d="M367.468,157.845v-7.352s14.36,3.7,14.882,12.287c0,0,1.826-9.5,9.225-9.953l1.044,13.359-8.609,7.49h-8.727l-6.912-5.962-.9-9.277" transform="translate(-342.799 -150.493)" fill="#056a68"/>
                      <g id="Gruppe_17170" data-name="Gruppe 17170" transform="translate(39.459 13.586)">
                        <path id="Pfad_28541" data-name="Pfad 28541" d="M386.173,204.535a9.447,9.447,0,0,1-.025-1.581c.021-1.016.039-2.487.044-4.3.013-3.63-.1-8.647-.557-14.165s-1.177-10.487-1.788-14.066c-.307-1.723-.561-3.15-.754-4.235a9.53,9.53,0,0,1-.237-1.563,9.571,9.571,0,0,1,.427,1.523c.247.987.562,2.426.911,4.212a131.911,131.911,0,0,1,2.351,28.3c-.05,1.819-.123,3.289-.2,4.3A9.757,9.757,0,0,1,386.173,204.535Z" transform="translate(-382.85 -164.623)" fill="#00ccb1"/>
                      </g>
                      <g id="Gruppe_17171" data-name="Gruppe 17171" transform="translate(24.141 5.963)">
                        <path id="Pfad_28542" data-name="Pfad 28542" d="M381.668,160.546a1.737,1.737,0,0,0-.852.079c-.549.177-1.039.861-1.442,1.836a41.594,41.594,0,0,0-2.731,7.944l-.076.328-.29-.174c-.858-.518-1.738-1.08-2.624-1.68A52.583,52.583,0,0,1,369,165.341a5.882,5.882,0,0,1-1.586-2.076,6.545,6.545,0,0,1-.484-2.217,12.847,12.847,0,0,1,.319-3.215,4.761,4.761,0,0,1,.314-1.137,6.116,6.116,0,0,1-.123,1.17,15.191,15.191,0,0,0-.158,3.16,6.361,6.361,0,0,0,.51,2.071,5.524,5.524,0,0,0,1.511,1.9c1.358,1.135,2.935,2.315,4.633,3.47.878.6,1.749,1.155,2.6,1.675l-.365.153a36.334,36.334,0,0,1,2.922-7.97,6.033,6.033,0,0,1,.756-1.237,1.921,1.921,0,0,1,.916-.621C381.37,160.293,381.691,160.538,381.668,160.546Z" transform="translate(-366.919 -156.695)" fill="#00af9c"/>
                      </g>
                      <g id="Gruppe_17172" data-name="Gruppe 17172" transform="translate(40.65 2.335)">
                        <path id="Pfad_28543" data-name="Pfad 28543" d="M392.214,152.921a5.262,5.262,0,0,1,.135,1.148l.23,3.129c.108,1.318.267,2.885.537,4.61a7.71,7.71,0,0,1,.173,2.822,4.85,4.85,0,0,1-1.889,2.412,21.261,21.261,0,0,0-3.16,2.4l-.383.429-.038-.572a17.2,17.2,0,0,0-2.121-7.16c-.912-1.637-1.665-2.48-1.606-2.528a2.717,2.717,0,0,1,.566.567,14.136,14.136,0,0,1,1.3,1.808,16.4,16.4,0,0,1,2.338,7.281l-.42-.143a20.174,20.174,0,0,1,3.218-2.48,4.449,4.449,0,0,0,1.715-2.136,7.6,7.6,0,0,0-.153-2.633c-.247-1.743-.371-3.326-.435-4.654s-.074-2.4-.071-3.145A5.021,5.021,0,0,1,392.214,152.921Z" transform="translate(-384.089 -152.921)" fill="#00af9c"/>
                      </g>
                    </g>
                  </g>
                  <g id="Gruppe_17179" data-name="Gruppe 17179" transform="translate(0 49.233)">
                    <g id="Gruppe_17176" data-name="Gruppe 17176" transform="translate(5.143)">
                      <path id="Pfad_28544" data-name="Pfad 28544" d="M439.738,154.84c-.584.688-21.724,28.954-21.724,28.954l2.976,1.687,21.694-27.908Z" transform="translate(-343.505 -154.84)" fill="#0b2d4e"/>
                      <path id="Pfad_28545" data-name="Pfad 28545" d="M351.832,177.722s22.239,32.013,23.58,32.642c2.639,1.239,33.065-25.054,35.966-27.569.4-.534,1.225-1.662,2.846-3.9,0,0,2.4-10.985,4.961-10.14s-1.4,5.582.265,9.755,9.309-5.781,9.614-6.674l1.97-2.575s2.066,5.859,1.927,8.3c-.449,7.836-7.863,17.157-7.863,17.157s-33.3,41.248-56.105,42.527c-6.569.368-18.243-18.271-26.048-32.249a19.125,19.125,0,0,1,5.45-24.769Z" transform="translate(-340.524 -155.373)" fill="#f4d2c3"/>
                      <g id="Gruppe_17175" data-name="Gruppe 17175" transform="translate(88.689 17.788)">
                        <path id="Pfad_28546" data-name="Pfad 28546" d="M432.767,179.133c-.074-.046.639-1.3,1.425-2.9s1.361-2.924,1.441-2.893a18.069,18.069,0,0,1-2.866,5.793Z" transform="translate(-432.761 -173.339)" fill="#edbfaa"/>
                      </g>
                    </g>
                    <g id="Gruppe_17178" data-name="Gruppe 17178" transform="translate(0 6.726)">
                      <path id="Pfad_28547" data-name="Pfad 28547" d="M347.86,161.835s-23.87,8.486-6.123,48.628l27.556-16.632-3.92-9.386Z" transform="translate(-335.175 -161.835)" fill="#056a68"/>
                      <g id="Gruppe_17177" data-name="Gruppe 17177" transform="translate(6.562 0.659)">
                        <path id="Pfad_28548" data-name="Pfad 28548" d="M346.294,162.556a8.288,8.288,0,0,1,2.874.241,11.7,11.7,0,0,1,3.131,1.321,16.924,16.924,0,0,1,3.478,2.854,41.687,41.687,0,0,1,6.484,9.687c2.02,3.9,3.9,8.348,5.836,13.019l1.689,4.084.086.208-.2.107c-7.973,4.346-14.915,8.416-19.822,11.462-2.456,1.519-4.411,2.769-5.753,3.637l-1.546.992a3.34,3.34,0,0,1-.555.321,3.272,3.272,0,0,1,.5-.4c.339-.246.838-.612,1.5-1.066,1.312-.915,3.241-2.21,5.676-3.769,4.866-3.125,11.788-7.252,19.761-11.616l-.11.313c-.542-1.306-1.113-2.685-1.693-4.084-1.932-4.669-3.8-9.108-5.785-13a42.436,42.436,0,0,0-6.331-9.655,17.041,17.041,0,0,0-3.367-2.859,11.922,11.922,0,0,0-3.033-1.371A17.224,17.224,0,0,0,346.294,162.556Z" transform="translate(-342 -162.52)" fill="#00ccb1"/>
                      </g>
                    </g>
                  </g>
                </g>
                <g id="Gruppe_17181" data-name="Gruppe 17181" transform="translate(42.917 7.059)">
                  <path id="Pfad_28549" data-name="Pfad 28549" d="M399.1,100.661a1.43,1.43,0,0,1,.118.419,5.447,5.447,0,0,1,.069,1.246,6.373,6.373,0,0,1-8.245,5.786,5.675,5.675,0,0,1-3.289-2.385,3.357,3.357,0,0,1-.492-2.171,2.81,2.81,0,0,1,1.18-1.985,2.439,2.439,0,0,1,2.309-.148,2.933,2.933,0,0,1,1.578,1.586,4.21,4.21,0,0,1-.631,4,5.014,5.014,0,0,1-6.306,1.37,10.765,10.765,0,0,0-2.375-.912,2.985,2.985,0,0,0-1.838.193,9.945,9.945,0,0,0-1.367.9c-.013-.012.084-.124.281-.331a2.384,2.384,0,0,1,.392-.353,2.948,2.948,0,0,1,.612-.393,3.129,3.129,0,0,1,1.967-.293,10.548,10.548,0,0,1,2.469.863,6.988,6.988,0,0,0,1.387.459,4.387,4.387,0,0,0,1.549-.028,4.544,4.544,0,0,0,2.856-1.749,3.76,3.76,0,0,0,.55-3.535,2.267,2.267,0,0,0-3.159-1.208,2.32,2.32,0,0,0-.961,1.632,2.875,2.875,0,0,0,.42,1.853,5.239,5.239,0,0,0,3,2.193,6.151,6.151,0,0,0,6.043-1.429,6.533,6.533,0,0,0,1.878-3.929A13.153,13.153,0,0,0,399.1,100.661Z" transform="translate(-379.809 -100.661)" fill="#0d416c"/>
                </g>
                <g id="Gruppe_17183" data-name="Gruppe 17183" transform="translate(57.093 10.298)">
                  <path id="Pfad_28551" data-name="Pfad 28551" d="M401.249,104.03a3.166,3.166,0,0,1,.462,1.765,5.871,5.871,0,0,1-5.345,6.164,3.171,3.171,0,0,1-1.813-.208c.011-.086.7.041,1.766-.143a5.936,5.936,0,0,0,5.038-5.81C401.388,104.717,401.166,104.053,401.249,104.03Z" transform="translate(-394.553 -104.029)" fill="#0d416c"/>
                </g>
              </g>
              <g id="Gruppe_17185" data-name="Gruppe 17185" transform="translate(2.73 90.745)">
                <path id="Pfad_28552" data-name="Pfad 28552" d="M366.558,187.7c.062.124-6.279,3.384-14.159,7.281s-14.322,6.956-14.383,6.832,6.278-3.383,14.161-7.281S366.5,187.575,366.558,187.7Z" transform="translate(-338.015 -187.695)" fill="#00ccb1"/>
              </g>
              <g id="Gruppe_17186" data-name="Gruppe 17186" transform="translate(0.048 79.839)">
                <path id="Pfad_28553" data-name="Pfad 28553" d="M360.672,176.357c.065.122-5.579,3.279-12.6,7.049s-12.777,6.731-12.842,6.609,5.578-3.278,12.606-7.05S360.606,176.236,360.672,176.357Z" transform="translate(-335.224 -176.353)" fill="#00ccb1"/>
              </g>
              <g id="Gruppe_17187" data-name="Gruppe 17187" transform="translate(0.428 71.02)">
                <path id="Pfad_28554" data-name="Pfad 28554" d="M355.105,167.186a22.916,22.916,0,0,1-2.824,1.67l-6.9,3.851-6.867,3.916a22.627,22.627,0,0,1-2.89,1.552,20,20,0,0,1,2.708-1.855c1.712-1.084,4.11-2.53,6.8-4.049s5.171-2.823,6.984-3.728A19.976,19.976,0,0,1,355.105,167.186Z" transform="translate(-335.62 -167.181)" fill="#00ccb1"/>
              </g>
              <g id="Gruppe_17188" data-name="Gruppe 17188" transform="translate(31.058 60.935)">
                <path id="Pfad_28555" data-name="Pfad 28555" d="M377.446,164.7a4.509,4.509,0,0,1-1.857-.5,14.23,14.23,0,0,1-3.888-2.531,26.65,26.65,0,0,1-3.136-3.4,6.974,6.974,0,0,1-1.086-1.576,7.614,7.614,0,0,1,1.355,1.346,45.313,45.313,0,0,0,3.2,3.251,17.813,17.813,0,0,0,3.7,2.584C376.772,164.4,377.468,164.621,377.446,164.7Z" transform="translate(-367.475 -156.692)" fill="#00ccb1"/>
              </g>
              <g id="Gruppe_17189" data-name="Gruppe 17189" transform="translate(49.876 63.729)">
                <path id="Pfad_28556" data-name="Pfad 28556" d="M392.226,159.6a6.693,6.693,0,0,1-5.178,4.359,33.536,33.536,0,0,0,2.858-1.86A34.1,34.1,0,0,0,392.226,159.6Z" transform="translate(-387.047 -159.598)" fill="#00ccb1"/>
              </g>
              <g id="Gruppe_17190" data-name="Gruppe 17190" transform="translate(26.674 78.188)">
                <path id="Pfad_28557" data-name="Pfad 28557" d="M416.3,174.65a2.314,2.314,0,0,1-.537.1l-1.546.19c-1.345.149-3.294.337-5.706.524-4.823.385-11.5.761-18.871,1.03s-14.061.358-18.9.318c-2.418-.015-4.376-.063-5.728-.116l-1.556-.08a2.186,2.186,0,0,1-.541-.062,2.246,2.246,0,0,1,.543-.038l1.557-.014,5.724-.044c4.834-.051,11.51-.207,18.882-.464s14.04-.588,18.865-.883l5.712-.364,1.554-.1A2.222,2.222,0,0,1,416.3,174.65Z" transform="translate(-362.916 -174.636)" fill="#00ccb1"/>
              </g>
              <g id="Gruppe_17191" data-name="Gruppe 17191" transform="translate(31.892 89.587)">
                <path id="Pfad_28558" data-name="Pfad 28558" d="M408.916,186.506a9.786,9.786,0,0,1-1.581.249c-1.02.128-2.5.288-4.333.452-3.663.338-8.733.686-14.34.914s-10.692.286-14.37.245c-1.839-.016-3.327-.057-4.355-.1a9.694,9.694,0,0,1-1.594-.12,9.694,9.694,0,0,1,1.6-.074l4.351-.059c3.674-.05,8.748-.167,14.351-.392s10.667-.52,14.333-.766l4.341-.293A9.98,9.98,0,0,1,408.916,186.506Z" transform="translate(-368.343 -186.491)" fill="#00ccb1"/>
              </g>
              <g id="Gruppe_17192" data-name="Gruppe 17192" transform="translate(33.327 103.635)">
                <path id="Pfad_28559" data-name="Pfad 28559" d="M391.738,201.133a19.265,19.265,0,0,1-3.187.449c-1.976.2-4.712.423-7.739.574s-5.774.2-7.76.2a19.143,19.143,0,0,1-3.215-.131,21.93,21.93,0,0,1,3.209-.223l7.742-.343,7.736-.427A21.836,21.836,0,0,1,391.738,201.133Z" transform="translate(-369.835 -201.101)" fill="#00ccb1"/>
              </g>
              <g id="Gruppe_17193" data-name="Gruppe 17193" transform="translate(20.024 70.066)">
                <path id="Pfad_28560" data-name="Pfad 28560" d="M369.171,166.418c0,.143-2.953.175-6.583.328s-6.573.356-6.588.213a49.132,49.132,0,0,1,13.171-.541Z" transform="translate(-356 -166.189)" fill="#00ccb1"/>
              </g>
              <g id="Gruppe_17194" data-name="Gruppe 17194" transform="translate(56.672 69.491)">
                <path id="Pfad_28561" data-name="Pfad 28561" d="M411.2,165.876a73.163,73.163,0,0,1-8.544.218,73.43,73.43,0,0,1-8.543-.283,72.915,72.915,0,0,1,8.545-.218A72.931,72.931,0,0,1,411.2,165.876Z" transform="translate(-394.114 -165.591)" fill="#00ccb1"/>
              </g>
              <g id="Gruppe_17195" data-name="Gruppe 17195" transform="translate(50.49 128.278)">
                <path id="Pfad_28562" data-name="Pfad 28562" d="M412.43,226.737a3.9,3.9,0,0,1-.876.5c-.576.3-1.43.691-2.5,1.139a54.667,54.667,0,0,1-17.613,4.06c-1.159.065-2.1.087-2.747.07a3.942,3.942,0,0,1-1.008-.068c0-.081,1.43-.136,3.728-.355a67.436,67.436,0,0,0,17.51-4.036C411.086,227.241,412.4,226.664,412.43,226.737Z" transform="translate(-387.685 -226.73)" fill="#00ccb1"/>
              </g>
            </g>
          </g>
          <g id="Character_1" data-name="Character 1" transform="translate(81.141 211.326)">
            <g id="Gruppe_17252" data-name="Gruppe 17252" transform="translate(0)">
              <ellipse id="Ellipse_1306" data-name="Ellipse 1306" cx="41.624" cy="39.707" rx="41.624" ry="39.707" transform="translate(17.067 59.545)" fill="#e0e0e0"/>
              <g id="Gruppe_17229" data-name="Gruppe 17229" transform="translate(31.271)">
                <path id="Pfad_28563" data-name="Pfad 28563" d="M133.716,221.982c-6.6.343-9.2,7.228-9.985,8.764a13.316,13.316,0,0,0-1.059,5.037,10.955,10.955,0,0,1-1.266,4.973c-1.454,2.319-4.508,3.518-5.339,6.126-.941,2.949,1.474,6.1.83,9.132-.345,1.625-1.532,2.963-1.951,4.571a6.729,6.729,0,0,0,.891,4.992c2.168,3.725,6.664,5.6,10.972,5.749s8.522-1.135,12.64-2.41" transform="translate(-114.776 -218.467)" fill="#0b2d4e"/>
                <path id="Pfad_28564" data-name="Pfad 28564" d="M164.456,230.88a4.114,4.114,0,0,0,.978,4.255,26.506,26.506,0,0,0,3.574,2.912,5.836,5.836,0,0,1,2.44,3.773c.128,1.409-.579,2.806-.387,4.207.493,3.6,6.234,4.679,6.539,8.3.2,2.411-2.27,4.625-1.585,6.945a11.015,11.015,0,0,0,1.43,2.372c1.628,2.7.524,6.435-1.837,8.533s-5.641,2.837-8.8,2.979c-2.652.119-5.666-.314-7.228-2.462-1.43-1.964-1.137-4.644-.851-7.057,1.334-11.268,1.107-22.655.879-34" transform="translate(-116.458 -218.809)" fill="#0b2d4e"/>
                <g id="Gruppe_17220" data-name="Gruppe 17220" transform="translate(11.043 2.708)">
                  <g id="Gruppe_17219" data-name="Gruppe 17219">
                    <g id="Gruppe_17218" data-name="Gruppe 17218">
                      <g id="Gruppe_17212" data-name="Gruppe 17212" transform="translate(0.11 5.781)">
                        <g id="Gruppe_17197" data-name="Gruppe 17197">
                          <path id="Pfad_28565" data-name="Pfad 28565" d="M135.9,282.881c.05-5.919,0-12.153,0-12.153s-7.611-1.354-9.077-11.322c-1.4-9.506.973-29.952.973-29.952h0c11.027-4.349,23.442-2.667,31.167,6.209h0l-1.2,48.073c-.139,5.581-5.049,9.906-11.023,9.71h0C140.7,293.249,135.849,288.522,135.9,282.881Z" transform="translate(-126.375 -227.155)" fill="#f4d2c3"/>
                        </g>
                        <g id="Gruppe_17208" data-name="Gruppe 17208" transform="translate(9.517 40.174)">
                          <path id="Pfad_28571" data-name="Pfad 28571" d="M136.273,272.336a25.305,25.305,0,0,0,13.365-3.4s-3.311,6.8-13.259,5.751Z" transform="translate(-136.273 -268.936)" fill="#edbfaa"/>
                        </g>
                      </g>
                      <g id="Gruppe_17213" data-name="Gruppe 17213">
                        <path id="Pfad_28574" data-name="Pfad 28574" d="M154.63,228.331c-3.64,5.192-13.279,10.531-20.181,11.77.806-1.061,5.045-3.675,5.851-4.736-3.129,2.336-7.606,5.461-11.757,5.673a2.52,2.52,0,0,1-1.426-.222,1.925,1.925,0,0,1-.726-1.563,41.468,41.468,0,0,1,.287-9.016,9.978,9.978,0,0,1,3.59-6.434c2.659-2.054,6.464-2.561,10.051-2.647a22.74,22.74,0,0,1,8.856,1.191c2.749,1.085,5.1,3.23,5.5,5.809" transform="translate(-126.261 -221.142)" fill="#0b2d4e"/>
                      </g>
                      <g id="Gruppe_17214" data-name="Gruppe 17214" transform="translate(19.908 1.151)">
                        <path id="Pfad_28575" data-name="Pfad 28575" d="M165.864,251.638a56.325,56.325,0,0,0,.994-6.651c.293-5.136-1.189-24.085-18.892-22.56l-.714,5.391s-2.736,18.456,8.715,18.592a20.589,20.589,0,0,0,5.818,10.848s3-.091,4.079-5.62" transform="translate(-146.965 -222.339)" fill="#0b2d4e"/>
                      </g>
                      <g id="Gruppe_17215" data-name="Gruppe 17215" transform="translate(28.418 25.109)">
                        <path id="Pfad_28576" data-name="Pfad 28576" d="M156.307,247.369a5.937,5.937,0,0,1,3.2.242,4.142,4.142,0,0,1,2.32,2.154,4.332,4.332,0,0,1-.01,3.181,7.33,7.33,0,0,1-1.843,2.655,4.971,4.971,0,0,1-1.946,1.26,2.373,2.373,0,0,1-2.213-.369" transform="translate(-155.816 -247.257)" fill="#f4d2c3"/>
                      </g>
                    </g>
                  </g>
                </g>
                <path id="Pfad_28578" data-name="Pfad 28578" d="M158.275,226.283a6.035,6.035,0,0,0,8.17-2.147,3.864,3.864,0,0,0,.559-2.887,3.972,3.972,0,0,0-2.973-2.578,6.074,6.074,0,0,0-5.582,1.34,5.33,5.33,0,0,0-1.441,5.479,4.753,4.753,0,0,0,4.591,3.168" transform="translate(-116.391 -218.332)" fill="#0b2d4e"/>
                <path id="Pfad_28579" data-name="Pfad 28579" d="M159.782,256.445a14.018,14.018,0,0,0-2.752,2.373,4.738,4.738,0,0,0-1.187,3.348,8.715,8.715,0,0,1,.223,2.018,6.742,6.742,0,0,1-1.4,2.4,5.7,5.7,0,0,0,.9,6.682,9.25,9.25,0,0,0,6.541,2.659,6.594,6.594,0,0,0,4.02-.954c1.656-1.16,2.292-3.332,2.335-5.352" transform="translate(-116.284 -219.793)" fill="#0b2d4e"/>
                <g id="Gruppe_17221" data-name="Gruppe 17221" transform="translate(34.092 11.92)">
                  <path id="Pfad_28580" data-name="Pfad 28580" d="M160.841,230.725a6.539,6.539,0,0,1-1.043,1.815,21.023,21.023,0,0,1-7.612,6.542,6.556,6.556,0,0,1-1.951.759,45.468,45.468,0,0,0,5.828-3.949A45.486,45.486,0,0,0,160.841,230.725Z" transform="translate(-150.233 -230.723)" fill="#0d416c"/>
                </g>
                <g id="Gruppe_17222" data-name="Gruppe 17222" transform="translate(38.186 11.824)">
                  <path id="Pfad_28581" data-name="Pfad 28581" d="M162.841,230.624a7.887,7.887,0,0,1-.326,2.426,19.6,19.6,0,0,1-6.03,10.021,7.871,7.871,0,0,1-1.991,1.425,24.709,24.709,0,0,0,8.347-13.872Z" transform="translate(-154.491 -230.624)" fill="#0d416c"/>
                </g>
                <g id="Gruppe_17223" data-name="Gruppe 17223" transform="translate(8.023 19.838)">
                  <path id="Pfad_28582" data-name="Pfad 28582" d="M123.2,238.958c.147-.011.337,1.656.912,3.622s1.289,3.482,1.159,3.551a11.389,11.389,0,0,1-2.07-7.173Z" transform="translate(-123.121 -238.958)" fill="#0d416c"/>
                </g>
                <g id="Gruppe_17224" data-name="Gruppe 17224" transform="translate(46.552 21.917)">
                  <path id="Pfad_28583" data-name="Pfad 28583" d="M167.147,273.059a2.781,2.781,0,0,0,1.464.47,2.994,2.994,0,0,0,1.694-.534,3.418,3.418,0,0,0,1.283-1.943,6.266,6.266,0,0,0,.018-2.9c-.208-1.043-.612-2.122-.969-3.3a8.7,8.7,0,0,1-.427-3.875c.221-1.41,1.135-2.552,1.58-3.817a5,5,0,0,0-2.92-6.2c-.55-.235-1.12-.434-1.649-.721a3.361,3.361,0,0,1-1.316-1.18,5.537,5.537,0,0,1-.6-3.025,10.332,10.332,0,0,0-.1-2.445,4,4,0,0,0-.721-1.656,2.382,2.382,0,0,0-1.3-.8.879.879,0,0,1,.419.033,2.006,2.006,0,0,1,1.026.642,4.066,4.066,0,0,1,.846,1.72,10.088,10.088,0,0,1,.18,2.508,5.265,5.265,0,0,0,.591,2.8c.538.883,1.658,1.248,2.794,1.7a5.452,5.452,0,0,1,3.214,6.793c-.5,1.379-1.378,2.478-1.569,3.735a8.331,8.331,0,0,0,.387,3.662c.337,1.159.735,2.262.934,3.351a6.531,6.531,0,0,1-.086,3.075,3.669,3.669,0,0,1-1.468,2.078,3.126,3.126,0,0,1-1.856.5,2.264,2.264,0,0,1-1.151-.377A1.051,1.051,0,0,1,167.147,273.059Z" transform="translate(-163.191 -241.12)" fill="#0d416c"/>
                </g>
                <g id="Gruppe_17225" data-name="Gruppe 17225" transform="translate(43.562 36.721)">
                  <path id="Pfad_28584" data-name="Pfad 28584" d="M160.086,272.975c.044-.028.126.309.592.52a1.578,1.578,0,0,0,1.865-.5,2.944,2.944,0,0,0-.156-3.01c-.548-1.087-1.637-2.152-1.915-3.739a2.706,2.706,0,0,1,.535-2.217c.47-.581,1.023-.967,1.384-1.442a4.191,4.191,0,0,0,.669-3.07,11.917,11.917,0,0,0-.551-2.182,2.861,2.861,0,0,1-.222-.813,2.67,2.67,0,0,1,.4.742,9.364,9.364,0,0,1,.719,2.2,4.45,4.45,0,0,1-.652,3.4c-.409.552-.968.958-1.364,1.466a2.227,2.227,0,0,0-.428,1.835c.227,1.382,1.249,2.431,1.832,3.608a3.267,3.267,0,0,1,.033,3.43,1.723,1.723,0,0,1-1.22.667,1.686,1.686,0,0,1-1.021-.2C160.074,273.355,160.068,272.961,160.086,272.975Z" transform="translate(-160.081 -256.517)" fill="#0d416c"/>
                </g>
                <g id="Gruppe_17226" data-name="Gruppe 17226" transform="translate(3.01 26.34)">
                  <path id="Pfad_28585" data-name="Pfad 28585" d="M120.772,270.048a4.285,4.285,0,0,1-.783-.781,9.493,9.493,0,0,1-1.678-2.528,5.045,5.045,0,0,1-.4-2.1,3.656,3.656,0,0,1,.847-2.329c.6-.692,1.461-1.049,1.982-1.7a2.833,2.833,0,0,0,.4-2.474,10.551,10.551,0,0,0-1.055-2.541,8.722,8.722,0,0,1-.935-2.523,3.3,3.3,0,0,1,.5-2.428,8.466,8.466,0,0,1,1.464-1.527,4.391,4.391,0,0,0,1.642-2.342,2.89,2.89,0,0,0-.041-1.06c.012-.007.076.074.145.254a1.715,1.715,0,0,1,.088.836,4.373,4.373,0,0,1-1.594,2.573,8.525,8.525,0,0,0-1.357,1.493A2.887,2.887,0,0,0,119.6,253a8.545,8.545,0,0,0,.916,2.374,10.7,10.7,0,0,1,1.107,2.655,3.3,3.3,0,0,1-.506,2.894c-.654.768-1.513,1.1-2.016,1.691a3.266,3.266,0,0,0-.779,2.04,4.8,4.8,0,0,0,.318,1.952,10.749,10.749,0,0,0,1.5,2.536A5.136,5.136,0,0,1,120.772,270.048Z" transform="translate(-117.907 -245.72)" fill="#0d416c"/>
                </g>
                <g id="Gruppe_17227" data-name="Gruppe 17227" transform="translate(40.541 5.048)">
                  <path id="Pfad_28586" data-name="Pfad 28586" d="M162.373,227.736a15.823,15.823,0,0,0-2.344-2.546,15.9,15.9,0,0,0-3.088-1.563,5.749,5.749,0,0,1,5.433,4.11Z" transform="translate(-156.94 -223.576)" fill="#ae1af7"/>
                </g>
                <g id="Gruppe_17228" data-name="Gruppe 17228" transform="translate(45.336)">
                  <path id="Pfad_28587" data-name="Pfad 28587" d="M163.953,218.328c.051-.032.373.344.633,1.09a5.209,5.209,0,0,1-1.555,5.626c-.606.507-1.075.664-1.1.611s.353-.33.859-.868a5.72,5.72,0,0,0,1.457-5.274A7.269,7.269,0,0,1,163.953,218.328Z" transform="translate(-161.926 -218.326)" fill="#0d416c"/>
                </g>
              </g>
              <path id="Pfad_28588" data-name="Pfad 28588" d="M113.254,341.129s23.889,22.684,38.09,18.578,18.4-14.761,18.4-14.761l.344-3.816-1.423-.931L114,335.771Z" transform="translate(-83.447 -222.844)" opacity="0.3"/>
              <g id="Gruppe_17251" data-name="Gruppe 17251" transform="translate(0 56.396)">
                <g id="Gruppe_17232" data-name="Gruppe 17232" transform="translate(14.863 2.251)">
                  <path id="Pfad_28589" data-name="Pfad 28589" d="M98.555,318.77l4.608-11.813,16.512,10.374L104.962,340.02S98.976,332.246,98.555,318.77Z" transform="translate(-97.744 -280.384)" fill="#edbfaa"/>
                  <g id="Gruppe_17231" data-name="Gruppe 17231">
                    <g id="Gruppe_17230" data-name="Gruppe 17230">
                      <path id="Pfad_28590" data-name="Pfad 28590" d="M117.157,285.066c7.682-4.014,17.632-5.17,17.632-5.17h0c2.887,5.781,11.989,6.514,17.5,2.569l4.647-3.141a16.855,16.855,0,0,1,1.947.08,24.819,24.819,0,0,1,21.982,19.764,49.563,49.563,0,0,1,1.162,12.492c-.6,10.5-11.484,11.454-11.484,11.454s-.56,10.384-1.294,18.769h0a15.657,15.657,0,0,1-9.514,13.569,38.64,38.64,0,0,1-12.128,3.739,40.729,40.729,0,0,1-36.137-12.513c1.65-10,3.227-22.959,3.114-23.539a.289.289,0,0,1,.018-.191l-10.782-9.571-6.111-5.132s13.41-19.9,19.445-23.18" transform="translate(-97.712 -279.32)" fill="#fff"/>
                    </g>
                  </g>
                </g>
                <g id="Gruppe_17233" data-name="Gruppe 17233" transform="translate(30.82 13.374)">
                  <path id="Pfad_28591" data-name="Pfad 28591" d="M131.155,291.984a5.729,5.729,0,0,0-2.665-.737,4.386,4.386,0,0,0-2.75.953,11.767,11.767,0,0,0-1.224,1.315,3.186,3.186,0,0,1-1.744,1.158,2.841,2.841,0,0,1-2.032-.544c-.554-.354-1.027-.742-1.513-1.021a3.3,3.3,0,0,0-2.821-.246,3.726,3.726,0,0,0-1.638,1.131c-.3.374-.413.629-.455.611a1.471,1.471,0,0,1,.3-.726,3.721,3.721,0,0,1,4.844-1.171c.537.294,1.023.682,1.547,1.007a2.385,2.385,0,0,0,1.682.467,2.764,2.764,0,0,0,1.47-.993,11.025,11.025,0,0,1,1.3-1.346,4.608,4.608,0,0,1,3.043-.948,4.383,4.383,0,0,1,2.06.589C130.989,291.749,131.17,291.967,131.155,291.984Z" transform="translate(-114.307 -290.888)" fill="#3d4c5e"/>
                </g>
                <g id="Gruppe_17234" data-name="Gruppe 17234" transform="translate(41.825 24.58)">
                  <path id="Pfad_28592" data-name="Pfad 28592" d="M142.551,306.787a5.728,5.728,0,0,0-2.29-1.55,4.381,4.381,0,0,0-2.91.025,11.615,11.615,0,0,0-1.58.855,3.186,3.186,0,0,1-2.024.539,2.837,2.837,0,0,1-1.75-1.164c-.412-.512-.737-1.032-1.109-1.452a3.3,3.3,0,0,0-2.594-1.134,3.726,3.726,0,0,0-1.914.547c-.407.259-.592.464-.626.435-.019-.013.117-.267.513-.593a3.719,3.719,0,0,1,4.964.438c.414.45.752.973,1.144,1.449a2.393,2.393,0,0,0,1.445.98,2.759,2.759,0,0,0,1.71-.472,11.048,11.048,0,0,1,1.662-.861,4.611,4.611,0,0,1,3.187.074,4.4,4.4,0,0,1,1.764,1.215A1.632,1.632,0,0,1,142.551,306.787Z" transform="translate(-125.752 -302.542)" fill="#3d4c5e"/>
                </g>
                <g id="Gruppe_17235" data-name="Gruppe 17235" transform="translate(67.038 7.232)">
                  <path id="Pfad_28593" data-name="Pfad 28593" d="M167.894,285.074a5.714,5.714,0,0,0-2.761-.157,4.387,4.387,0,0,0-2.485,1.514,11.492,11.492,0,0,0-.918,1.544,3.179,3.179,0,0,1-1.461,1.5,2.835,2.835,0,0,1-2.1-.1c-.616-.229-1.162-.509-1.7-.678a3.3,3.3,0,0,0-2.809.357,3.728,3.728,0,0,0-1.362,1.452c-.216.43-.27.7-.314.693a1.465,1.465,0,0,1,.137-.772,3.72,3.72,0,0,1,4.486-2.17c.586.173,1.144.45,1.725.657a2.386,2.386,0,0,0,1.743.1,2.767,2.767,0,0,0,1.226-1.282,10.958,10.958,0,0,1,.985-1.591,4.61,4.61,0,0,1,2.774-1.57,4.391,4.391,0,0,1,2.137.139A1.624,1.624,0,0,1,167.894,285.074Z" transform="translate(-151.974 -284.501)" fill="#3d4c5e"/>
                </g>
                <g id="Gruppe_17236" data-name="Gruppe 17236" transform="translate(58.881 19.779)">
                  <path id="Pfad_28594" data-name="Pfad 28594" d="M156.339,301.352a4.927,4.927,0,0,0-1.727-1.237,3.354,3.354,0,0,0-2.212-.068,9.009,9.009,0,0,0-1.238.6,2.507,2.507,0,0,1-1.614.351,2.239,2.239,0,0,1-1.342-.981c-.3-.413-.533-.825-.8-1.158a2.509,2.509,0,0,0-1.919-.958,3.5,3.5,0,0,0-1.992.628c-.019-.016.088-.213.4-.459a2.771,2.771,0,0,1,1.59-.523,2.823,2.823,0,0,1,2.274,1.019c.308.364.551.781.836,1.157a1.793,1.793,0,0,0,1.045.783c.884.155,1.7-.64,2.618-.9a3.582,3.582,0,0,1,2.485.181C156.082,300.4,156.389,301.362,156.339,301.352Z" transform="translate(-143.491 -297.549)" fill="#3d4c5e"/>
                </g>
                <g id="Gruppe_17237" data-name="Gruppe 17237" transform="translate(34.117 33.067)">
                  <path id="Pfad_28595" data-name="Pfad 28595" d="M130.583,315.173a4.877,4.877,0,0,0-1.726-1.238,3.36,3.36,0,0,0-2.212-.069,9.008,9.008,0,0,0-1.238.6,2.5,2.5,0,0,1-1.614.351,2.241,2.241,0,0,1-1.343-.981c-.3-.413-.532-.824-.8-1.158a2.515,2.515,0,0,0-1.92-.958,3.493,3.493,0,0,0-1.991.629c-.02-.016.088-.213.4-.459a2.769,2.769,0,0,1,1.59-.524,2.824,2.824,0,0,1,2.274,1.019c.309.365.552.781.836,1.157a1.788,1.788,0,0,0,1.046.783c.884.156,1.7-.639,2.618-.9a3.587,3.587,0,0,1,2.485.182C130.326,314.223,130.634,315.183,130.583,315.173Z" transform="translate(-117.736 -311.369)" fill="#3d4c5e"/>
                </g>
                <g id="Gruppe_17238" data-name="Gruppe 17238" transform="translate(57.041 36.189)">
                  <path id="Pfad_28596" data-name="Pfad 28596" d="M154.651,315.6a4.919,4.919,0,0,0-2.035-.612,3.35,3.35,0,0,0-2.115.651,8.914,8.914,0,0,0-.976.972,2.509,2.509,0,0,1-1.414.855,2.238,2.238,0,0,1-1.587-.494c-.42-.293-.771-.608-1.132-.836a2.51,2.51,0,0,0-2.126-.285,3.5,3.5,0,0,0-1.682,1.238c-.024-.009.014-.23.235-.564a2.77,2.77,0,0,1,1.335-1.01,2.823,2.823,0,0,1,2.482.228c.41.246.775.561,1.165.824a1.792,1.792,0,0,0,1.242.4c.887-.139,1.4-1.155,2.186-1.7a3.582,3.582,0,0,1,2.409-.633A2.6,2.6,0,0,1,154.651,315.6Z" transform="translate(-141.577 -314.616)" fill="#3d4c5e"/>
                </g>
                <g id="Gruppe_17239" data-name="Gruppe 17239" transform="translate(49.394 46.749)">
                  <path id="Pfad_28597" data-name="Pfad 28597" d="M146.7,326.58a4.892,4.892,0,0,0-2.035-.612,3.362,3.362,0,0,0-2.115.651,8.91,8.91,0,0,0-.976.972,2.509,2.509,0,0,1-1.414.855,2.242,2.242,0,0,1-1.587-.493c-.42-.294-.771-.609-1.132-.837a2.511,2.511,0,0,0-2.126-.286,3.5,3.5,0,0,0-1.682,1.239c-.024-.01.014-.231.235-.564a2.765,2.765,0,0,1,1.335-1.011,2.824,2.824,0,0,1,2.482.229c.41.245.775.56,1.165.823a1.787,1.787,0,0,0,1.242.4c.887-.139,1.4-1.155,2.186-1.7a3.576,3.576,0,0,1,2.409-.633A2.593,2.593,0,0,1,146.7,326.58Z" transform="translate(-133.624 -325.598)" fill="#3d4c5e"/>
                </g>
                <g id="Gruppe_17240" data-name="Gruppe 17240" transform="translate(33.432 70.292)">
                  <path id="Pfad_28598" data-name="Pfad 28598" d="M129.91,353.734a4.887,4.887,0,0,0-1.744-1.214,3.357,3.357,0,0,0-2.213-.037,9.118,9.118,0,0,0-1.23.621,2.5,2.5,0,0,1-1.61.374,2.235,2.235,0,0,1-1.357-.962c-.308-.409-.543-.816-.815-1.146a2.513,2.513,0,0,0-1.934-.93,3.5,3.5,0,0,0-1.983.656c-.02-.015.086-.214.4-.464a2.766,2.766,0,0,1,1.583-.546,2.823,2.823,0,0,1,2.288.987c.313.361.562.773.852,1.144a1.784,1.784,0,0,0,1.056.768c.887.142,1.687-.664,2.606-.94a3.581,3.581,0,0,1,2.487.145C129.64,352.788,129.961,353.744,129.91,353.734Z" transform="translate(-117.024 -350.083)" fill="#3d4c5e"/>
                </g>
                <g id="Gruppe_17241" data-name="Gruppe 17241" transform="translate(52.122 78.503)">
                  <path id="Pfad_28599" data-name="Pfad 28599" d="M149.554,359.637a4.9,4.9,0,0,0-2.026-.64,3.359,3.359,0,0,0-2.124.621,9.1,9.1,0,0,0-.989.959,2.505,2.505,0,0,1-1.426.836,2.242,2.242,0,0,1-1.581-.515c-.415-.3-.762-.619-1.119-.853a2.516,2.516,0,0,0-2.122-.314,3.5,3.5,0,0,0-1.7,1.216c-.024-.01.018-.231.242-.562a2.769,2.769,0,0,1,1.349-.991,2.821,2.821,0,0,1,2.478.262c.407.251.767.571,1.154.839a1.788,1.788,0,0,0,1.237.42c.888-.127,1.413-1.135,2.209-1.672a3.579,3.579,0,0,1,2.418-.6A2.593,2.593,0,0,1,149.554,359.637Z" transform="translate(-136.462 -358.623)" fill="#3d4c5e"/>
                </g>
                <g id="Gruppe_17246" data-name="Gruppe 17246">
                  <g id="Gruppe_17244" data-name="Gruppe 17244">
                    <g id="Gruppe_17243" data-name="Gruppe 17243">
                      <path id="Pfad_28600" data-name="Pfad 28600" d="M85.2,276.979c.584.687,21.724,28.955,21.724,28.955l-2.976,1.686L82.254,279.713Z" transform="translate(-82.254 -276.979)" fill="#0b2d4e"/>
                      <path id="Pfad_28601" data-name="Pfad 28601" d="M167.984,297.68s-19.829,34.195-21.169,34.824c-2.639,1.238-33.065-25.054-35.966-27.569-.4-.535-1.225-1.662-2.846-3.9,0,0-2.4-10.984-4.961-10.141s1.4,5.582-.265,9.756-9.309-5.782-9.614-6.675l-1.97-2.574s-2.066,5.859-1.927,8.3c.449,7.837,7.863,17.158,7.863,17.158s30.128,37.753,52.937,39.033c6.569.368,19.117-18.544,26.922-32.521,4.713-8.44,2.526-17.015-5.286-22.71Z" transform="translate(-82.523 -277.512)" fill="#f4d2c3"/>
                      <g id="Gruppe_17242" data-name="Gruppe 17242" transform="translate(7.61 17.789)">
                        <path id="Pfad_28602" data-name="Pfad 28602" d="M93.043,301.272a18.054,18.054,0,0,1-2.866-5.792,32.277,32.277,0,0,1,1.441,2.892C92.4,299.968,93.117,301.227,93.043,301.272Z" transform="translate(-90.169 -295.48)" fill="#eb996e"/>
                      </g>
                    </g>
                  </g>
                  <path id="Pfad_28603" data-name="Pfad 28603" d="M169.395,288.061c-.784.47-19.222,34.7-19.222,34.7l23.734,18.591a274.893,274.893,0,0,0,9.431-27.575c.884-3.356.428-12.324-.819-15.783-1.773-4.916-4.447-3.692-8.451-6.572Z" transform="translate(-84.867 -277.405)" fill="#fff"/>
                  <g id="Gruppe_17245" data-name="Gruppe 17245" transform="translate(64.991 9.666)" opacity="0.7">
                    <path id="Pfad_28604" data-name="Pfad 28604" d="M177.179,288.021c-.014.021-.233-.131-.677-.354a3.986,3.986,0,0,0-2.087-.438,5.692,5.692,0,0,0-3.1,1.293,15.374,15.374,0,0,0-3.089,3.328c-1,1.366-1.831,3.034-2.843,4.772-1,1.746-2.056,3.609-3.171,5.568l-7.294,12.742-4.55,7.91-.062-.312,16.058,12.69,4.66,3.74,1.235,1.019a2.624,2.624,0,0,1,.41.376,2.737,2.737,0,0,1-.463-.308c-.327-.244-.753-.561-1.286-.956l-4.747-3.628L150.01,322.913l-.165-.129.1-.184,4.536-7.914,7.327-12.719,3.21-5.544a54.9,54.9,0,0,1,2.921-4.781,15.387,15.387,0,0,1,3.21-3.345,5.823,5.823,0,0,1,3.256-1.263,3.927,3.927,0,0,1,2.141.544,3.481,3.481,0,0,1,.481.316C177.134,287.972,177.184,288.015,177.179,288.021Z" transform="translate(-149.845 -287.032)" fill="#647c99"/>
                  </g>
                </g>
                <g id="Gruppe_17247" data-name="Gruppe 17247" transform="translate(72.39 38.949)">
                  <path id="Pfad_28605" data-name="Pfad 28605" d="M170.389,321.29a4.915,4.915,0,0,0-1.727-1.238,3.36,3.36,0,0,0-2.212-.069,9.22,9.22,0,0,0-1.238.6,2.509,2.509,0,0,1-1.614.352,2.241,2.241,0,0,1-1.342-.982c-.3-.413-.533-.824-.8-1.158a2.516,2.516,0,0,0-1.919-.958,3.5,3.5,0,0,0-1.992.629c-.019-.016.088-.213.4-.459a2.77,2.77,0,0,1,1.59-.524,2.823,2.823,0,0,1,2.273,1.019c.309.365.552.781.837,1.157a1.788,1.788,0,0,0,1.045.783c.884.156,1.7-.639,2.618-.9a3.581,3.581,0,0,1,2.485.181C170.131,320.34,170.439,321.3,170.389,321.29Z" transform="translate(-157.541 -317.486)" fill="#3d4c5e"/>
                </g>
                <g id="Gruppe_17248" data-name="Gruppe 17248" transform="translate(84.476 31.645)">
                  <path id="Pfad_28606" data-name="Pfad 28606" d="M181.72,316.57a4.908,4.908,0,0,0-1.329-1.657,3.355,3.355,0,0,0-2.112-.663,9.058,9.058,0,0,0-1.355.248,2.508,2.508,0,0,1-1.649-.1,2.238,2.238,0,0,1-1.029-1.307c-.179-.48-.29-.937-.458-1.33a2.516,2.516,0,0,0-1.59-1.44,3.5,3.5,0,0,0-2.087.068c-.014-.021.143-.182.513-.333a2.77,2.77,0,0,1,1.672-.075,2.824,2.824,0,0,1,1.915,1.594c.2.435.32.9.492,1.339a1.792,1.792,0,0,0,.8,1.036c.809.388,1.8-.159,2.764-.163a3.582,3.582,0,0,1,2.344.844A2.6,2.6,0,0,1,181.72,316.57Z" transform="translate(-170.11 -309.89)" fill="#3d4c5e"/>
                </g>
                <g id="Gruppe_17249" data-name="Gruppe 17249" transform="translate(85.034 17.495)">
                  <path id="Pfad_28607" data-name="Pfad 28607" d="M182.3,301.855a4.89,4.89,0,0,0-1.329-1.658,3.358,3.358,0,0,0-2.112-.663,8.9,8.9,0,0,0-1.355.247,2.5,2.5,0,0,1-1.65-.1,2.239,2.239,0,0,1-1.028-1.307c-.18-.48-.29-.937-.458-1.331a2.512,2.512,0,0,0-1.59-1.439,3.49,3.49,0,0,0-2.087.067c-.014-.021.142-.182.512-.333a2.774,2.774,0,0,1,1.673-.075,2.822,2.822,0,0,1,1.914,1.6c.2.434.321.9.493,1.339a1.787,1.787,0,0,0,.8,1.036c.81.388,1.806-.159,2.765-.163a3.583,3.583,0,0,1,2.343.844A2.588,2.588,0,0,1,182.3,301.855Z" transform="translate(-170.69 -295.174)" fill="#3d4c5e"/>
                </g>
                <g id="Gruppe_17250" data-name="Gruppe 17250" transform="translate(79.783 50.024)">
                  <path id="Pfad_28608" data-name="Pfad 28608" d="M176.838,335.685a4.905,4.905,0,0,0-1.329-1.658,3.359,3.359,0,0,0-2.112-.663,9.061,9.061,0,0,0-1.355.247,2.5,2.5,0,0,1-1.649-.1,2.241,2.241,0,0,1-1.029-1.307c-.179-.48-.29-.937-.458-1.331a2.512,2.512,0,0,0-1.59-1.439,3.5,3.5,0,0,0-2.087.067c-.015-.021.142-.181.513-.332a2.761,2.761,0,0,1,1.672-.076,2.825,2.825,0,0,1,1.915,1.6c.2.435.32.9.492,1.338a1.792,1.792,0,0,0,.8,1.037c.809.387,1.8-.16,2.764-.164a3.588,3.588,0,0,1,2.344.845A2.6,2.6,0,0,1,176.838,335.685Z" transform="translate(-165.229 -329.004)" fill="#3d4c5e"/>
                </g>
              </g>
            </g>
          </g>
        </g>
      </g>
    </g>
  </g>
</svg>
