<svg id="Ebene_1" data-name="Ebene 1" xmlns="http://www.w3.org/2000/svg" xmlns:xlink="http://www.w3.org/1999/xlink" viewBox="0 0 320 192"><defs><style>.cls-1,.cls-12,.cls-16,.cls-18{fill:none;}.cls-2{fill:#263238;}.cls-3{fill:#0b2d4e;}.cls-4{fill:#184876;}.cls-5{fill:#1b5a96;}.cls-6{fill:#ebebeb;}.cls-7{fill:#fff;}.cls-8{fill:#ff725e;}.cls-9{clip-path:url(#clip-path);}.cls-10{fill:#ffdac9;}.cls-11{fill:#ffbea0;}.cls-12{stroke:#0b2d4e;stroke-width:0.5px;}.cls-13{fill:#00af9c;}.cls-14{fill:#009b8a;}.cls-15{fill:#3d4c5e;opacity:0.7;}.cls-15,.cls-19,.cls-20{isolation:isolate;}.cls-16,.cls-18{stroke:#ff5a5f;}.cls-16{stroke-miterlimit:10;}.cls-17,.cls-20{fill:#ff5a5f;}.cls-20{font-size:10.38px;font-family:Arial-BoldMT, Arial;font-weight:700;letter-spacing:0.02em;}.cls-21{fill:#879ab2;}</style><clipPath id="clip-path"><polygon class="cls-1" points="66.13 39.64 51.3 39.64 43.88 52.49 51.3 65.34 66.13 65.34 73.55 52.49 66.13 39.64"/></clipPath></defs><g id="Gruppe_24182" data-name="Gruppe 24182"><g id="Gruppe_24181" data-name="Gruppe 24181"><g id="Gruppe_24174" data-name="Gruppe 24174"><g id="Gruppe_24171" data-name="Gruppe 24171"><g id="Table"><g id="Gruppe_22891" data-name="Gruppe 22891"><path id="Pfad_28632" data-name="Pfad 28632" class="cls-2" d="M350.35,191.58c0,.08-67.23,0-178.75,0s-201.95-.07-201.95-.15,90.4-.15,202-.15S350.35,191.5,350.35,191.58Z"/></g></g><g id="Device"><g id="Gruppe_23086" data-name="Gruppe 23086"><g id="Gruppe_22951" data-name="Gruppe 22951"><g id="Gruppe_22912" data-name="Gruppe 22912"><g id="Gruppe_22911" data-name="Gruppe 22911"><g id="Gruppe_22910" data-name="Gruppe 22910"><g id="Gruppe_22909" data-name="Gruppe 22909"><g id="Gruppe_22904" data-name="Gruppe 22904"><g id="Gruppe_22895" data-name="Gruppe 22895"><g id="Gruppe_22894" data-name="Gruppe 22894"><g id="Gruppe_22893" data-name="Gruppe 22893"><g id="Gruppe_22892" data-name="Gruppe 22892"><rect id="Rechteck_12398" data-name="Rechteck 12398" class="cls-3" x="24.2" y="10.06" width="268.12" height="177.31" rx="8.4"/></g></g></g></g><g id="Gruppe_22899" data-name="Gruppe 22899"><g id="Gruppe_22898" data-name="Gruppe 22898"><g id="Gruppe_22897" data-name="Gruppe 22897"><g id="Gruppe_22896" data-name="Gruppe 22896"><path id="Rechteck_12399" data-name="Rechteck 12399" class="cls-4" d="M15.43,175.92H305.92v5.25a10.26,10.26,0,0,1-10.26,10.26h-270a10.26,10.26,0,0,1-10.26-10.26h0v-5.25Z"/></g></g></g></g><g id="Gruppe_22903" data-name="Gruppe 22903"><g id="Gruppe_22902" data-name="Gruppe 22902"><g id="Gruppe_22901" data-name="Gruppe 22901"><g id="Gruppe_22900" data-name="Gruppe 22900"><path id="Pfad_28633" data-name="Pfad 28633" class="cls-5" d="M131.83,174.25l3.61,5.74h50.72l3.35-5.74Z"/></g></g></g></g></g><g id="Gruppe_22908" data-name="Gruppe 22908"><g id="Gruppe_22907" data-name="Gruppe 22907"><g id="Gruppe_22906" data-name="Gruppe 22906"><g id="Gruppe_22905" data-name="Gruppe 22905"><path id="Pfad_28634" data-name="Pfad 28634" class="cls-2" d="M290,174.25c0,.1-59.51.18-132.9.18s-132.92-.08-132.92-.18,59.5-.17,132.92-.17S290,174.16,290,174.25Z"/></g></g></g></g></g></g></g></g><g id="Gruppe_22940" data-name="Gruppe 22940"><g id="Gruppe_22939" data-name="Gruppe 22939"><g id="Gruppe_22938" data-name="Gruppe 22938"><g id="Gruppe_22917" data-name="Gruppe 22917"><g id="Gruppe_22916" data-name="Gruppe 22916"><g id="Gruppe_22915" data-name="Gruppe 22915"><g id="Gruppe_22914" data-name="Gruppe 22914"><g id="Gruppe_22913" data-name="Gruppe 22913"><path id="Rechteck_12400" data-name="Rechteck 12400" class="cls-6" d="M33.77,20.26H281.71a1.88,1.88,0,0,1,1.89,1.88h0V167.68a1.89,1.89,0,0,1-1.89,1.89H33.77a1.89,1.89,0,0,1-1.89-1.89h0V22.14A1.89,1.89,0,0,1,33.77,20.26Z"/></g></g></g></g></g><g id="Gruppe_22922" data-name="Gruppe 22922"><g id="Gruppe_22921" data-name="Gruppe 22921"><g id="Gruppe_22920" data-name="Gruppe 22920"><g id="Gruppe_22919" data-name="Gruppe 22919"><g id="Gruppe_22918" data-name="Gruppe 22918"><path id="Pfad_28635" data-name="Pfad 28635" class="cls-7" d="M283.33,169.79H31.61l.27-138.37H283.33Z"/></g></g></g></g></g><g id="Gruppe_22927" data-name="Gruppe 22927"><g id="Gruppe_22926" data-name="Gruppe 22926"><g id="Gruppe_22925" data-name="Gruppe 22925"><g id="Gruppe_22924" data-name="Gruppe 22924"><g id="Gruppe_22923" data-name="Gruppe 22923"><path id="Pfad_28636" data-name="Pfad 28636" class="cls-2" d="M52.53,26a2,2,0,1,1-2-2A2,2,0,0,1,52.53,26Z"/></g></g></g></g></g><g id="Gruppe_22932" data-name="Gruppe 22932"><g id="Gruppe_22931" data-name="Gruppe 22931"><g id="Gruppe_22930" data-name="Gruppe 22930"><g id="Gruppe_22929" data-name="Gruppe 22929"><g id="Gruppe_22928" data-name="Gruppe 22928"><path id="Pfad_28637" data-name="Pfad 28637" class="cls-2" d="M40.34,26a2,2,0,1,1-2-2h0A2,2,0,0,1,40.34,26Z"/></g></g></g></g></g><g id="Gruppe_22937" data-name="Gruppe 22937"><g id="Gruppe_22936" data-name="Gruppe 22936"><g id="Gruppe_22935" data-name="Gruppe 22935"><g id="Gruppe_22934" data-name="Gruppe 22934"><g id="Gruppe_22933" data-name="Gruppe 22933"><path id="Pfad_28638" data-name="Pfad 28638" class="cls-2" d="M46.19,26a2,2,0,1,1-2-2h0A2,2,0,0,1,46.19,26Z"/></g></g></g></g></g></g></g></g><rect id="Rechteck_12401" data-name="Rechteck 12401" class="cls-2" x="31.61" y="156.42" width="251.99" height="13.36"/><g id="Gruppe_22950" data-name="Gruppe 22950"><g id="Gruppe_22941" data-name="Gruppe 22941"><path id="Pfad_28639" data-name="Pfad 28639" class="cls-7" d="M41.13,164.65v.43h-2v-.34l1.08-1c.26-.25.31-.41.31-.56s-.17-.39-.51-.39a.77.77,0,0,0-.64.28l-.35-.27a1.23,1.23,0,0,1,1-.45c.59,0,1,.3,1,.78a1.12,1.12,0,0,1-.45.86l-.73.69Z"/><path id="Pfad_28640" data-name="Pfad 28640" class="cls-7" d="M41.41,163.3a.32.32,0,1,1,.63,0,.32.32,0,1,1-.63,0Zm0,1.48a.32.32,0,1,1,.63,0,.32.32,0,1,1-.63,0Z"/><path id="Pfad_28641" data-name="Pfad 28641" class="cls-7" d="M43.31,162.36v2.72H42.8v-2.3h-.57v-.42Z"/><path id="Pfad_28642" data-name="Pfad 28642" class="cls-7" d="M46.28,164.46h-.49v.62H45.3v-.62H43.81v-.35l1.34-1.75h.54L44.43,164h.89v-.55h.47V164h.49Z"/></g><g id="Gruppe_22942" data-name="Gruppe 22942"><rect id="Rechteck_12402" data-name="Rechteck 12402" class="cls-7" x="50.72" y="163.37" width="206.54" height="0.94"/></g><g id="Gruppe_22943" data-name="Gruppe 22943"><rect id="Rechteck_12403" data-name="Rechteck 12403" class="cls-8" x="50.57" y="162.36" width="64.54" height="2.51"/></g><g id="Gruppe_22944" data-name="Gruppe 22944"><path id="Pfad_28643" data-name="Pfad 28643" class="cls-8" d="M117.2,163.84a3.15,3.15,0,1,1-3.15-3.14h0a3.15,3.15,0,0,1,3.15,3.14Z"/></g><g id="Gruppe_22945" data-name="Gruppe 22945"><path id="Pfad_28644" data-name="Pfad 28644" class="cls-7" d="M262.46,163.81a.9.9,0,0,1-.92.89h-.07c-.74,0-1.18-.48-1.18-1.36a1.31,1.31,0,0,1,1.12-1.44,1.62,1.62,0,0,1,.22,0,1.36,1.36,0,0,1,.71.17l-.18.38a1,1,0,0,0-.52-.13c-.52,0-.84.32-.84.94h0a.91.91,0,0,1,.73-.28.84.84,0,0,1,.93.76Zm-.49,0c0-.29-.21-.47-.54-.47a.5.5,0,0,0-.55.44v0c0,.26.2.46.56.46a.47.47,0,0,0,.53-.41v0Z"/><path id="Pfad_28645" data-name="Pfad 28645" class="cls-7" d="M262.71,162.88a.32.32,0,0,1,.28-.35.31.31,0,0,1,.35.28.08.08,0,0,1,0,.07.31.31,0,0,1-.28.35.32.32,0,0,1-.35-.28Zm0,1.48A.32.32,0,0,1,263,164a.31.31,0,0,1,.35.29.06.06,0,0,1,0,.06.31.31,0,0,1-.28.35.32.32,0,0,1-.35-.28Z"/><path id="Pfad_28646" data-name="Pfad 28646" class="cls-7" d="M263.67,163.3c0-.9.49-1.4,1.14-1.4s1.14.5,1.14,1.4-.49,1.4-1.14,1.4S263.67,164.19,263.67,163.3Zm1.77,0c0-.66-.26-1-.63-1s-.63.3-.63,1,.26,1,.63,1S265.44,164,265.44,163.3Z"/><path id="Pfad_28647" data-name="Pfad 28647" class="cls-7" d="M266.29,163.3c0-.9.49-1.4,1.13-1.4s1.14.5,1.14,1.4-.49,1.4-1.14,1.4S266.29,164.19,266.29,163.3Zm1.76,0c0-.66-.25-1-.63-1s-.62.3-.62,1,.25,1,.62,1S268.05,164,268.05,163.3Z"/></g><g id="Gruppe_22946" data-name="Gruppe 22946"><path id="Pfad_28648" data-name="Pfad 28648" class="cls-7" d="M273,163.13H272v-2.72h2.71v.94H273Z"/></g><g id="Gruppe_22947" data-name="Gruppe 22947"><path id="Pfad_28649" data-name="Pfad 28649" class="cls-7" d="M274.73,166.67H272V164H273v1.77h1.77Z"/></g><g id="Gruppe_22948" data-name="Gruppe 22948"><path id="Pfad_28650" data-name="Pfad 28650" class="cls-7" d="M279.06,166.67h-2.71v-.94h1.76V164h.95Z"/></g><g id="Gruppe_22949" data-name="Gruppe 22949"><path id="Pfad_28651" data-name="Pfad 28651" class="cls-7" d="M279.06,163.12h-.95v-1.77h-1.77v-.94h2.72Z"/></g></g></g><g id="Gruppe_23083" data-name="Gruppe 23083"><path id="Pfad_28672" data-name="Pfad 28672" class="cls-2" d="M108.68,52.36c0,.08-6.67.15-14.9.15s-14.89-.07-14.89-.15,6.67-.15,14.89-.15S108.68,52.28,108.68,52.36Z"/></g><g id="Gruppe_23084" data-name="Gruppe 23084"><path id="Pfad_28673" data-name="Pfad 28673" class="cls-2" d="M94.9,55.48c0,.08-3.54.15-7.91.15s-7.91-.07-7.91-.15,3.54-.15,7.91-.15S94.9,55.4,94.9,55.48Z"/></g><g class="cls-9"><g id="Gruppe_maskieren_1627" data-name="Gruppe maskieren 1627"><g id="Gruppe_23082" data-name="Gruppe 23082"><path id="Pfad_28652" data-name="Pfad 28652" class="cls-6" d="M66.13,39.64H51.29L43.88,52.49l7.41,12.85H66.13l7.42-12.85Z"/><g id="Gruppe_23348" data-name="Gruppe 23348"><g id="Gruppe_22579" data-name="Gruppe 22579"><g id="Gruppe_22526" data-name="Gruppe 22526"><path id="Pfad_28541" data-name="Pfad 28541" class="cls-3" d="M52.62,55.31A13.44,13.44,0,0,1,50.85,53a4.34,4.34,0,0,1-.59-2.77,15.48,15.48,0,0,0,.36-1.64c.06-.78-.27-1.58,0-2.31.43-1.13,2-1.3,2.88-2.08.72-.61,1.07-1.6,1.86-2.11a3.48,3.48,0,0,1,2.39-.32A9.17,9.17,0,0,0,60.2,42a14.74,14.74,0,0,0,1.7-.46,2.31,2.31,0,0,1,1.71.12,1.12,1.12,0,0,1,.46,1.5,1.85,1.85,0,0,1,2.4,1.31,2.81,2.81,0,0,1-1.06,2.76,6.17,6.17,0,0,1-2.85,1.16A12,12,0,0,1,54,47.09"/></g><g id="Gruppe_22578" data-name="Gruppe 22578"><g id="Gruppe_22552" data-name="Gruppe 22552"><g id="Gruppe_22551" data-name="Gruppe 22551"><g id="Gruppe_22550" data-name="Gruppe 22550"><g id="Gruppe_22549" data-name="Gruppe 22549"><g id="Gruppe_22548" data-name="Gruppe 22548"><g id="Gruppe_22547" data-name="Gruppe 22547"><g id="Gruppe_22536" data-name="Gruppe 22536"><g id="Gruppe_22535" data-name="Gruppe 22535"><g id="Gruppe_22534" data-name="Gruppe 22534"><g id="Gruppe_22533" data-name="Gruppe 22533"><g id="Gruppe_22532" data-name="Gruppe 22532"><g id="Gruppe_22531" data-name="Gruppe 22531"><g id="Gruppe_22530" data-name="Gruppe 22530"><g id="Gruppe_22529" data-name="Gruppe 22529"><g id="Gruppe_22528" data-name="Gruppe 22528"><g id="Gruppe_22527" data-name="Gruppe 22527"><path id="Pfad_28542" data-name="Pfad 28542" class="cls-10" d="M62.8,65c-.14-1.09-.26-2-.27-2.12A4.45,4.45,0,0,0,66,58.39c-.1-1.78-.6-5.45-1.09-8.77a6.9,6.9,0,0,0-7.29-5.87l-.36,0c-3.83.48-5.57,4-5,7.83l2.07,12.81s.88,2.83,2.77,3.32l2.39,3.4.39-1.46,1.78-1.55a7.56,7.56,0,0,0,.87-1.3A3,3,0,0,0,62.8,65Z"/></g></g></g></g></g></g></g></g></g></g><g id="Gruppe_22546" data-name="Gruppe 22546"><g id="Gruppe_22545" data-name="Gruppe 22545"><g id="Gruppe_22544" data-name="Gruppe 22544"><g id="Gruppe_22543" data-name="Gruppe 22543"><g id="Gruppe_22542" data-name="Gruppe 22542"><g id="Gruppe_22541" data-name="Gruppe 22541"><g id="Gruppe_22540" data-name="Gruppe 22540"><g id="Gruppe_22539" data-name="Gruppe 22539"><g id="Gruppe_22538" data-name="Gruppe 22538"><g id="Gruppe_22537" data-name="Gruppe 22537"><path id="Pfad_28543" data-name="Pfad 28543" class="cls-11" d="M62.53,62.87a8.67,8.67,0,0,1-4.91-1s1.32,2.58,5,2Z"/></g></g></g></g></g></g></g></g></g></g></g></g></g></g></g></g><g id="Gruppe_22574" data-name="Gruppe 22574"><g id="Gruppe_22562" data-name="Gruppe 22562"><g id="Gruppe_22561" data-name="Gruppe 22561"><g id="Gruppe_22560" data-name="Gruppe 22560"><g id="Gruppe_22559" data-name="Gruppe 22559"><g id="Gruppe_22558" data-name="Gruppe 22558"><g id="Gruppe_22557" data-name="Gruppe 22557"><g id="Gruppe_22556" data-name="Gruppe 22556"><g id="Gruppe_22555" data-name="Gruppe 22555"><g id="Gruppe_22554" data-name="Gruppe 22554"><g id="Gruppe_22553" data-name="Gruppe 22553"><path id="Pfad_28544" data-name="Pfad 28544" class="cls-10" d="M52.76,54.32c-.07,0-2.6-.58-2.35,1.94s3,1.7,3,1.63S52.76,54.32,52.76,54.32Z"/></g></g></g></g></g></g></g></g></g></g></g><g id="Gruppe_22577" data-name="Gruppe 22577"><g id="Gruppe_22576" data-name="Gruppe 22576"><g id="Gruppe_22575" data-name="Gruppe 22575"><path id="Pfad_28546" data-name="Pfad 28546" class="cls-3" d="M64.72,46.17c-.18,1-2.21,1.93-3.9,1.88s-2.33-.82-3.46-1.37a1.89,1.89,0,0,0-1.69-.19c-.79.13-1.2,1.06-1.64,1.72.84,1.83.5,4,.15,5.95a1.05,1.05,0,0,1-.26.6.8.8,0,0,1-1-.16,3.12,3.12,0,0,1-.8-1.6,10.5,10.5,0,0,1-.25-4.1,7.14,7.14,0,0,1,1.71-3.71,6.67,6.67,0,0,1,4.59-2.09A8.18,8.18,0,0,1,63,44.49a4.72,4.72,0,0,1,1.67,1.68"/></g></g></g></g><g id="Gruppe_22718" data-name="Gruppe 22718"><path id="Pfad_28541-2" data-name="Pfad 28541-2" class="cls-12" d="M50.85,52.74A4.34,4.34,0,0,1,50.26,50a15.66,15.66,0,0,0,.36-1.65c.06-.77-.27-1.57,0-2.3.43-1.13,2-1.3,2.88-2.08.72-.61,1.07-1.6,1.86-2.11a3.48,3.48,0,0,1,2.39-.32,9.17,9.17,0,0,0,2.45.21,17.09,17.09,0,0,0,1.7-.46,2.31,2.31,0,0,1,1.71.12,1.12,1.12,0,0,1,.46,1.5,1.86,1.86,0,0,1,2.4,1.31A2.81,2.81,0,0,1,65.41,47"/></g></g></g></g></g></g></g></g><g id="Gruppe_23347" data-name="Gruppe 23347"><g id="Character"><g id="Gruppe_22594" data-name="Gruppe 22594"><path id="Pfad_28518" data-name="Pfad 28518" class="cls-13" d="M198.33,75.64A22.74,22.74,0,0,1,209,89.44c2.77,10,11.28,35.85,11.28,35.85s4.85,5.72,5.38,10-.52,14.47-2.09,16.38a4.4,4.4,0,0,1-3.79,1.59l-20.45-1.94-8.05-53.92Z"/><path id="Pfad_28519" data-name="Pfad 28519" class="cls-13" d="M130.7,74.7s-14.62,4.59-18.27,8.58l12,55.7-.19,17.57h69.33c0-.86.62-58.35.62-58.35L195.3,92l3-16.38-24.64-4.33-4.86-3.82-27.42,1.39L137.25,73Z"/><path id="Pfad_28521" data-name="Pfad 28521" class="cls-13" d="M112.43,83.28a86.35,86.35,0,0,0-6.82,10.86c-2,4.28-18.57,40.3-19.58,44s-3.57,15.44,4,18.15h15.57l15.64-31.61.8-36.7Z"/><g id="Gruppe_22520" data-name="Gruppe 22520"><path id="Pfad_28527" data-name="Pfad 28527" class="cls-10" d="M175.07,113.73s-2.52.7-.63,5.86,2.52,4.85,3.78,9.67,2.73,9.23,4.93,12,10.39,8.29,10.39,8.29l7.34-6.93a35.17,35.17,0,0,1-.92-8.66c.29-3.51,1-12.11.92-13.58a24.47,24.47,0,0,0-1.68-5v-2.44l-3.77-11.61s-2.1-1-2.83,2.41l-1.26-3.57s-2-.31-2.52,3.78a40.87,40.87,0,0,0,.42,9.76l-1.05,7.13-1.58,4.83-1.36.21s-2.05-.56-3.18-4.43S177.91,112.89,175.07,113.73Z"/><g id="Gruppe_22515" data-name="Gruppe 22515"><path id="Pfad_28528" data-name="Pfad 28528" class="cls-11" d="M198.42,132a1.15,1.15,0,0,1,0-.26c0-.2,0-.46,0-.77,0-.71-.09-1.68-.16-2.89-.11-2.51-.27-6-.45-10.06l0,.08a1.47,1.47,0,0,0-1.49-.39,2.2,2.2,0,0,0-1.36,1,9.8,9.8,0,0,0-.87,3.68c-.4,2.94-.78,5.74-1.13,8.29-.17,1.27-.36,2.49-.61,3.61a21.92,21.92,0,0,1-.91,3.06c-.3.82-.56,1.65-.79,2.49a7.54,7.54,0,0,0-.23,2,5.71,5.71,0,0,0,.29,1.64,2,2,0,0,1-.18-.4,4.76,4.76,0,0,1-.23-1.24,7.39,7.39,0,0,1,.19-2,25.07,25.07,0,0,1,.75-2.52,22.92,22.92,0,0,0,.87-3c.24-1.12.41-2.32.58-3.6.34-2.55.71-5.35,1.1-8.29.09-.66.16-1.31.28-2a4.93,4.93,0,0,1,.65-1.85,2.47,2.47,0,0,1,1.54-1.12,1.77,1.77,0,0,1,1.77.49l0,0v0c.14,4.08.26,7.56.34,10.07,0,1.21.06,2.19.08,2.89,0,.32,0,.57,0,.77A1.23,1.23,0,0,1,198.42,132Z"/></g><g id="Gruppe_22516" data-name="Gruppe 22516"><path id="Pfad_28529" data-name="Pfad 28529" class="cls-11" d="M194.41,118.76a3.31,3.31,0,0,1-.31-.66,15.27,15.27,0,0,1-.61-1.88,18.84,18.84,0,0,1-.53-2.89,8.53,8.53,0,0,1,0-1.75,3.71,3.71,0,0,1,.63-1.8,2.59,2.59,0,0,1,1.34-1l.12,0,.06.1c1.06,1.88,2,3.53,2.63,4.72l.75,1.41a1.93,1.93,0,0,1,.24.53,2.39,2.39,0,0,1-.33-.48l-.83-1.36c-.69-1.16-1.65-2.8-2.72-4.67l.17.06a2.3,2.3,0,0,0-1.18.9,3.47,3.47,0,0,0-.59,1.66,8,8,0,0,0,0,1.69,21.16,21.16,0,0,0,.45,2.87c.19.81.39,1.45.52,1.89A3.49,3.49,0,0,1,194.41,118.76Z"/></g><g id="Gruppe_22517" data-name="Gruppe 22517"><path id="Pfad_28530" data-name="Pfad 28530" class="cls-11" d="M192.65,119.7a2.5,2.5,0,0,1-.06-.67c0-.49-.05-1.1-.08-1.82,0-1.55-.1-3.68-.13-6a50.73,50.73,0,0,1,.09-6,9.35,9.35,0,0,1,.4-1.8,2.07,2.07,0,0,1,.27-.61,16.79,16.79,0,0,0-.46,2.43c-.14,1.53,0,3.66,0,6s0,4.48,0,6c0,.73,0,1.34,0,1.83A2.5,2.5,0,0,1,192.65,119.7Z"/></g><g id="Gruppe_22518" data-name="Gruppe 22518"><path id="Pfad_28531" data-name="Pfad 28531" class="cls-11" d="M186.44,139.05s.42-.58,1-1.56a11.73,11.73,0,0,0,.85-1.79,13.71,13.71,0,0,0,.66-2.33,14,14,0,0,0,.2-2.42,13.23,13.23,0,0,0-.17-2c-.19-1.12-.43-1.79-.38-1.8a1.85,1.85,0,0,1,.21.45,8.87,8.87,0,0,1,.38,1.31,11.37,11.37,0,0,1,.24,2,12.14,12.14,0,0,1-.19,2.48,12.34,12.34,0,0,1-.69,2.39,10.59,10.59,0,0,1-.93,1.8,8.55,8.55,0,0,1-.81,1.09C186.58,138.94,186.46,139.06,186.44,139.05Z"/></g><path id="Pfad_28532" data-name="Pfad 28532" class="cls-10" d="M199.34,135.44l6.37,2.21s6.09-3.14,10.28,0,7.84,11.45,6.69,14.8c0,0-2.9,3.58-5.1,4.1s-10.77-1.55-14.33-2.3-9.71-4.74-9.71-4.74Z"/><g id="Gruppe_22519" data-name="Gruppe 22519"><path id="Pfad_28533" data-name="Pfad 28533" class="cls-11" d="M200.12,144.83a2.1,2.1,0,0,1-.07-.56c0-.43-.06-1-.09-1.54-.07-1.3-.16-3.1-.18-5.09a48.26,48.26,0,0,1,.15-5.1,14,14,0,0,1,.19-1.53,2.17,2.17,0,0,1,.13-.56c.05,0-.05.81-.11,2.11s-.09,3.09-.06,5.07.07,3.71.09,5.09c0,.65,0,1.18,0,1.54A2.16,2.16,0,0,1,200.12,144.83Z"/></g></g><g id="Gruppe_22580" data-name="Gruppe 22580"><g id="Gruppe_22579-2" data-name="Gruppe 22579-2"><g id="Gruppe_22526-2" data-name="Gruppe 22526-2"><path id="Pfad_28541-3" data-name="Pfad 28541-3" class="cls-3" d="M136.15,45.12A40,40,0,0,1,130.62,38a13.58,13.58,0,0,1-1.86-8.66c.29-1.74,1-3.39,1.14-5.15.16-2.42-.85-4.94,0-7.21,1.34-3.54,6.11-4.09,9-6.53,2.24-1.91,3.34-5,5.82-6.6,2.16-1.4,4.94-1.37,7.49-1s5.12,1,7.67.66a49.69,49.69,0,0,0,5.32-1.42,7.28,7.28,0,0,1,5.36.36c1.59.92,2.48,3.18,1.44,4.69,3-1.36,6.72.94,7.53,4.1s-.81,6.57-3.32,8.65-5.75,3.05-9,3.65c-9.07,1.71-18.9.75-26.71-4.16"/></g><g id="Gruppe_22578-2" data-name="Gruppe 22578-2"><g id="Gruppe_22552-2" data-name="Gruppe 22552-2"><g id="Gruppe_22551-2" data-name="Gruppe 22551-2"><g id="Gruppe_22550-2" data-name="Gruppe 22550-2"><g id="Gruppe_22549-2" data-name="Gruppe 22549-2"><g id="Gruppe_22548-2" data-name="Gruppe 22548-2"><g id="Gruppe_22547-2" data-name="Gruppe 22547-2"><g id="Gruppe_22536-2" data-name="Gruppe 22536-2"><g id="Gruppe_22535-2" data-name="Gruppe 22535-2"><g id="Gruppe_22534-2" data-name="Gruppe 22534-2"><g id="Gruppe_22533-2" data-name="Gruppe 22533-2"><g id="Gruppe_22532-2" data-name="Gruppe 22532-2"><g id="Gruppe_22531-2" data-name="Gruppe 22531-2"><g id="Gruppe_22530-2" data-name="Gruppe 22530-2"><g id="Gruppe_22529-2" data-name="Gruppe 22529-2"><g id="Gruppe_22528-2" data-name="Gruppe 22528-2"><g id="Gruppe_22527-2" data-name="Gruppe 22527-2"><path id="Pfad_28542-2" data-name="Pfad 28542-2" class="cls-10" d="M168,75.6c-.44-3.43-.8-6.3-.82-6.65,0,0,11.46-2.58,10.83-14.17-.3-5.61-1.87-17.1-3.41-27.48A21.63,21.63,0,0,0,151.77,8.91L150.65,9c-12,1.51-17.43,12.55-15.59,24.51l6.48,40.1s2.76,8.87,8.67,10.41l7.47,10.66,1.23-4.59,5.56-4.84a21.49,21.49,0,0,0,2.74-4.09A8.87,8.87,0,0,0,168,75.6Z"/></g></g></g></g></g></g></g></g></g></g><g id="Gruppe_22546-2" data-name="Gruppe 22546-2"><g id="Gruppe_22545-2" data-name="Gruppe 22545-2"><g id="Gruppe_22544-2" data-name="Gruppe 22544-2"><g id="Gruppe_22543-2" data-name="Gruppe 22543-2"><g id="Gruppe_22542-2" data-name="Gruppe 22542-2"><g id="Gruppe_22541-2" data-name="Gruppe 22541-2"><g id="Gruppe_22540-2" data-name="Gruppe 22540-2"><g id="Gruppe_22539-2" data-name="Gruppe 22539-2"><g id="Gruppe_22538-2" data-name="Gruppe 22538-2"><g id="Gruppe_22537-2" data-name="Gruppe 22537-2"><path id="Pfad_28543-2" data-name="Pfad 28543-2" class="cls-11" d="M167.2,68.78a27.05,27.05,0,0,1-15.39-3.28s4.12,8.1,15.61,6.28Z"/></g></g></g></g></g></g></g></g></g></g></g></g></g></g></g></g><g id="Gruppe_22574-2" data-name="Gruppe 22574-2"><g id="Gruppe_22562-2" data-name="Gruppe 22562-2"><g id="Gruppe_22561-2" data-name="Gruppe 22561-2"><g id="Gruppe_22560-2" data-name="Gruppe 22560-2"><g id="Gruppe_22559-2" data-name="Gruppe 22559-2"><g id="Gruppe_22558-2" data-name="Gruppe 22558-2"><g id="Gruppe_22557-2" data-name="Gruppe 22557-2"><g id="Gruppe_22556-2" data-name="Gruppe 22556-2"><g id="Gruppe_22555-2" data-name="Gruppe 22555-2"><g id="Gruppe_22554-2" data-name="Gruppe 22554-2"><g id="Gruppe_22553-2" data-name="Gruppe 22553-2"><path id="Pfad_28544-2" data-name="Pfad 28544-2" class="cls-10" d="M136.58,42c-.2-.07-8.12-1.82-7.34,6.08s9.35,5.33,9.34,5.1S136.58,42,136.58,42Z"/></g></g></g></g></g></g></g></g></g></g></g><g id="Gruppe_22577-2" data-name="Gruppe 22577-2"><g id="Gruppe_22576-2" data-name="Gruppe 22576-2"><g id="Gruppe_22575-2" data-name="Gruppe 22575-2"><path id="Pfad_28546-2" data-name="Pfad 28546-2" class="cls-3" d="M174,16.51c-.55,3.14-6.93,6-12.22,5.87-4.87-.14-7.28-2.56-10.83-4.28-2.24-1.09-2.24-1.09-5.28-.6-2.47.4-3.74,3.31-5.12,5.38,2.63,5.74,1.56,12.41.45,18.63a3.13,3.13,0,0,1-.8,1.88c-.89.79-2.33.32-3.2-.48a9.81,9.81,0,0,1-2.5-5A32.57,32.57,0,0,1,133.75,25a22.25,22.25,0,0,1,5.35-11.61,21.06,21.06,0,0,1,14.36-6.56,25.93,25.93,0,0,1,15.33,4.36A15.28,15.28,0,0,1,174,16.5"/></g></g></g></g><g id="Gruppe_22718-2" data-name="Gruppe 22718-2"><path id="Pfad_28541-4" data-name="Pfad 28541-4" class="cls-12" d="M130.62,37.06a13.53,13.53,0,0,1-1.86-8.66c.29-1.74,1-3.39,1.14-5.15.16-2.42-.85-4.94,0-7.21,1.34-3.54,6.11-4.09,9-6.53,2.24-1.91,3.34-5,5.82-6.6,2.16-1.4,4.94-1.37,7.49-1s5.12,1,7.67.66a52.16,52.16,0,0,0,5.32-1.42,7.23,7.23,0,0,1,5.36.36c1.59.92,2.48,3.18,1.44,4.69,3-1.36,6.72.94,7.53,4.1s-.82,6.56-3.32,8.65"/></g></g></g><g id="Gruppe_22592" data-name="Gruppe 22592"><g id="Gruppe_22590" data-name="Gruppe 22590"><path id="Pfad_28553" data-name="Pfad 28553" class="cls-10" d="M116.73,135.11c.18.1-2.11-17.93-2.11-17.93s1.44-13.69,2.26-14.32l0-4.83s2.24-1.35,2.84.84c0,0,2-1.73,2.33,2.38s.42,8.29.42,8.29l4.41,11,.73.37s1-8.65,1.5-9.93.93-4.36,3-3.9,2.27,2.2,1.89,5a42.24,42.24,0,0,0-.67,7.55c.18,1.83,1,5.84.75,9a18,18,0,0,1-3.83,8.91c-1.83,2.36-5.33,7.24-7.23,8.71C122.39,146.86,116.73,135.11,116.73,135.11Z"/><g id="Gruppe_22586" data-name="Gruppe 22586"><path id="Pfad_28554" data-name="Pfad 28554" class="cls-11" d="M119,120.44a3.31,3.31,0,0,1,0-.77c0-.55.08-1.26.14-2.09.14-1.77.34-4.21.59-6.9.13-1.35.25-2.63.36-3.8a6.84,6.84,0,0,0,0-1.63,2.3,2.3,0,0,0-.55-1.24,2.48,2.48,0,0,0-1.8-.79,4.52,4.52,0,0,0-.75.09s0,0,.18-.09a1.81,1.81,0,0,1,.57-.12,2.43,2.43,0,0,1,2.6,2.11,7.35,7.35,0,0,1,0,1.69c-.11,1.18-.22,2.46-.34,3.8-.25,2.69-.49,5.13-.68,6.89l-.23,2.09A4.83,4.83,0,0,1,119,120.44Z"/></g><g id="Gruppe_22587" data-name="Gruppe 22587"><path id="Pfad_28555" data-name="Pfad 28555" class="cls-11" d="M121.33,113.07a6.55,6.55,0,0,0-.78,1.42,24.7,24.7,0,0,0-.74,3.89c-.23,1.55-.47,2.94-.65,3.94a9,9,0,0,1-.36,1.62,9.21,9.21,0,0,1,.15-1.65c.13-1,.33-2.41.57-4a18,18,0,0,1,.83-3.92,3.52,3.52,0,0,1,.64-1C121.18,113.14,121.32,113.06,121.33,113.07Z"/></g><g id="Gruppe_22588" data-name="Gruppe 22588"><path id="Pfad_28556" data-name="Pfad 28556" class="cls-11" d="M119.71,98.63a2.18,2.18,0,0,1,.15.57c.08.37.18.9.29,1.57.22,1.33.46,3.18.61,5.23s.19,3.92.16,5.26c0,.68,0,1.22,0,1.6a2.25,2.25,0,0,1-.07.58,19.69,19.69,0,0,1-.09-2.17c0-1.35-.1-3.2-.25-5.25s-.36-3.89-.52-5.22A17.55,17.55,0,0,1,119.71,98.63Z"/></g><g id="Gruppe_22589" data-name="Gruppe 22589"><path id="Pfad_28557" data-name="Pfad 28557" class="cls-11" d="M132.45,115.53a1.61,1.61,0,0,1-1.49.13c-.85-.25-1.24-.9-1.17-.93a8.28,8.28,0,0,0,1.26.64A7.33,7.33,0,0,0,132.45,115.53Z"/></g><path id="Pfad_28558" data-name="Pfad 28558" class="cls-10" d="M117,132.87l-11.67,4.9h-7s-6.88,2.15-7.94,8.59-1.21,9.76,1.82,10.56,11.56.89,15.79-.52,15.31-10.35,15.31-10.35l1.07-6.47Z"/></g><g id="Gruppe_22591" data-name="Gruppe 22591"><path id="Pfad_28559" data-name="Pfad 28559" class="cls-11" d="M119.71,140s-.13-.09-.33-.3a7,7,0,0,1-.76-1A13.24,13.24,0,0,1,117,135a22.35,22.35,0,0,1-.72-4,7.76,7.76,0,0,1,0-1.67,11.56,11.56,0,0,1,.26,1.65,28.69,28.69,0,0,0,.8,3.9,15.22,15.22,0,0,0,1.52,3.66C119.32,139.48,119.75,140,119.71,140Z"/></g></g><g id="Gruppe_22593" data-name="Gruppe 22593"><path id="Pfad_28560" data-name="Pfad 28560" class="cls-11" d="M126.2,141.1a12.08,12.08,0,0,0,.67-2.51,8.08,8.08,0,0,0-1.57-5.85c-.71-1-1.51-1.86-2.18-2.69a13.55,13.55,0,0,1-1.58-2.39,6.58,6.58,0,0,1-.58-1.84,2.11,2.11,0,0,1,0-.71,8.14,8.14,0,0,0,.79,2.46,13.57,13.57,0,0,0,1.61,2.3c.67.82,1.48,1.68,2.2,2.7a8.42,8.42,0,0,1,1.46,3.19,8.33,8.33,0,0,1,.08,2.86,7.49,7.49,0,0,1-.54,1.86,4.09,4.09,0,0,1-.23.47A.5.5,0,0,1,126.2,141.1Z"/></g><path id="Pfad_28587" data-name="Pfad 28587" class="cls-14" d="M164.29,87.65,158.85,91v-.85s4.33-4.05,5-4.57,4.24-5.81,4.29-6.92-.86-9.78-.86-9.78l2.29-.75,2,1.39a20.76,20.76,0,0,1-.6,13.32,32.71,32.71,0,0,1-7.16,11.32Z"/></g></g><path id="Pfad_28586" data-name="Pfad 28586" class="cls-14" d="M140.86,69.47l-3.62,3.59s1.44,12.49,10,19l.23.17c0-.36,2.75-8.13,2.75-8.13A14.52,14.52,0,0,1,143,77C140.77,72,140.86,69.47,140.86,69.47Z"/></g></g><path id="Vereinigungsmenge_30" data-name="Vereinigungsmenge 30" class="cls-15" d="M34.24,170c-1.59,0-2.88-1.86-2.88-3.46h0l.57-144.14c0-1.59.71-2.3,2.3-2.3h0l108,.05s1.77-4.21,7.28-2.81c2.08.52,5.76,3.81,10.54,4.76,6.19,1.14,11.7-2.71,11.7-2.71l.48.83L281,20.14c1.59,0,2.88.71,2.88,2.31V166.58c0,1.59-1.29,3.46-2.88,3.46Z"/><g id="Ellipse_1902" data-name="Ellipse 1902"><circle class="cls-16" cx="229.66" cy="44.73" r="6.34"/><circle class="cls-16" cx="229.66" cy="44.73" r="5.48"/></g><g id="Ellipse_1903" data-name="Ellipse 1903"><circle class="cls-17" cx="229.66" cy="44.73" r="3.46"/><circle class="cls-18" cx="229.66" cy="44.73" r="3.17"/></g><g id="REC" class="cls-19"><text class="cls-20" transform="translate(237.83 48.19)">REC</text></g><g id="Differenzmenge_7" data-name="Differenzmenge 7"><path class="cls-1" d="M38.83,45.39a4.11,4.11,0,0,1-4.11-4.11V28.08A6.41,6.41,0,0,1,41,21.69H54.23a4.12,4.12,0,1,1,0,8.24H47.28A4.36,4.36,0,0,0,43,34.26v7A4.12,4.12,0,0,1,38.83,45.39Z"/><path class="cls-17" d="M38.83,42.51a1.23,1.23,0,0,0,1.23-1.24v-7h0v0A7.27,7.27,0,0,1,47.25,27h7a1.24,1.24,0,0,0,0-2.47H41.07a3.53,3.53,0,0,0-3.47,3.51v13.2a1.23,1.23,0,0,0,1.23,1.23m0,2.88a4.11,4.11,0,0,1-4.11-4.11V28.08A6.42,6.42,0,0,1,41,21.69H54.23a4.12,4.12,0,1,1,0,8.24H47.28A4.37,4.37,0,0,0,43,34.26v7A4.12,4.12,0,0,1,38.83,45.39Z"/></g><g id="Differenzmenge_6" data-name="Differenzmenge 6"><path class="cls-1" d="M58.38,162.46a4.13,4.13,0,0,1-4.12,4.12H41.07a6.42,6.42,0,0,1-6.39-6.33V147.07a4.12,4.12,0,0,1,8.24,0v7a4.37,4.37,0,0,0,4.33,4.33h7A4.11,4.11,0,0,1,58.38,162.46Z"/><path class="cls-17" d="M55.5,162.46a1.23,1.23,0,0,0-1.24-1.23h-7A7.26,7.26,0,0,1,40,154h0v-7a1.24,1.24,0,1,0-2.47,0v13.16a3.52,3.52,0,0,0,1,2.44,3.47,3.47,0,0,0,2.46,1H54.26a1.23,1.23,0,0,0,1.24-1.23m2.88,0a4.13,4.13,0,0,1-4.12,4.12H41.07a6.42,6.42,0,0,1-6.39-6.33V147.07a4.12,4.12,0,0,1,8.24,0v7a4.37,4.37,0,0,0,4.33,4.33h7A4.12,4.12,0,0,1,58.38,162.46Z"/></g><g id="Differenzmenge_8" data-name="Differenzmenge 8"><path class="cls-1" d="M260.8,21.69H274a6.41,6.41,0,0,1,6.32,6.39v13.2a4.12,4.12,0,0,1-8.23,0v-7a4.36,4.36,0,0,0-4.33-4.33H260.8a4.12,4.12,0,0,1,0-8.24Z"/><path class="cls-17" d="M260.8,24.57a1.24,1.24,0,0,0,0,2.47h7A7.27,7.27,0,0,1,275,34.23v0h0v7a1.23,1.23,0,1,0,2.46,0V28.09A3.53,3.53,0,0,0,274,24.57H260.8m0-2.88H274a6.42,6.42,0,0,1,6.32,6.39v13.2a4.12,4.12,0,0,1-8.23,0v-7a4.37,4.37,0,0,0-4.33-4.33H260.8a4.12,4.12,0,0,1,0-8.24Z"/></g><g id="Differenzmenge_5" data-name="Differenzmenge 5"><path class="cls-1" d="M280.35,147.07v13.18a6.42,6.42,0,0,1-6.39,6.33h-13.2a4.12,4.12,0,0,1,0-8.23h7a4.37,4.37,0,0,0,4.33-4.33v-7a4.12,4.12,0,0,1,8.24,0Z"/><path class="cls-17" d="M277.47,147.07a1.24,1.24,0,1,0-2.47,0V154h0v0h0a7.26,7.26,0,0,1-7.19,7.19h-7.05a1.23,1.23,0,0,0,0,2.46H274a3.45,3.45,0,0,0,2.47-1,3.52,3.52,0,0,0,1.05-2.44V147.07m2.88,0v13.18a6.42,6.42,0,0,1-6.39,6.33h-13.2a4.12,4.12,0,0,1,0-8.23h7a4.37,4.37,0,0,0,4.33-4.33v-7a4.12,4.12,0,0,1,8.24,0Z"/></g><g id="button_play_desktop_48px" data-name="button play desktop 48px"><g id="Pfad_5424" data-name="Pfad 5424"><path class="cls-1" d="M157.62,78.58a13.84,13.84,0,1,1-13.84,13.84A13.84,13.84,0,0,1,157.62,78.58Z"/><path class="cls-21" d="M157.62,78.87a13.55,13.55,0,0,0-13.55,13.55,13.38,13.38,0,0,0,1.07,5.27A13.64,13.64,0,0,0,148,102a13.56,13.56,0,1,0,9.58-23.13m0-.29a13.84,13.84,0,1,1-13.84,13.84A13.84,13.84,0,0,1,157.62,78.58Z"/></g><path id="Pfad_5423" data-name="Pfad 5423" class="cls-13" d="M157.62,80.38a12,12,0,1,1-12,12h0A12,12,0,0,1,157.62,80.38Z"/><g id="icon_play_24px" data-name="icon play 24px"><path id="play" class="cls-7" d="M154.85,87.23l8.07,5.19-8.07,5.19Z"/></g></g></g></g></g></svg>