<svg id="amazonpay_icon_payment_32px" xmlns="http://www.w3.org/2000/svg" xmlns:xlink="http://www.w3.org/1999/xlink" width="48" height="32" viewBox="0 0 48 32">
  <defs>
    <clipPath id="clip-path">
      <path id="Path_16360" data-name="Path 16360" d="M0,0H38V7.29H0Z"/>
    </clipPath>
  </defs>
  <g id="Group_20742" data-name="Group 20742" transform="translate(22104 20303)">
    <g id="Group_20880" data-name="Group 20880" transform="translate(0 40)">
      <g id="Group_20374" data-name="Group 20374" transform="translate(-22104 -20343)">
        <g id="Group_17640" data-name="Group 17640">
          <g id="Rectangle_11747" data-name="Rectangle 11747" fill="#fff" stroke="#dae0e7" stroke-width="1">
            <rect width="48" height="32" rx="4" stroke="none"/>
            <rect x="0.5" y="0.5" width="47" height="31" rx="3.5" fill="none"/>
          </g>
          <g id="Amazon_Pay-Logo.wine" transform="translate(5 13)" clip-path="url(#clip-path)">
            <path id="Path_16357" data-name="Path 16357" d="M27.39,22.666A9.2,9.2,0,0,1,22.2,24.254a9.4,9.4,0,0,1-6.344-2.42c-.131-.119-.014-.281.144-.189a12.769,12.769,0,0,0,6.348,1.684,12.629,12.629,0,0,0,4.842-.991c.237-.1.437.157.2.328Z" transform="translate(-12.395 -16.964)" fill="#f79c34" fill-rule="evenodd"/>
            <path id="Path_16358" data-name="Path 16358" d="M65.965,21.078c-.18-.23-1.187-.109-1.64-.055-.137.017-.158-.1-.035-.19a2.524,2.524,0,0,1,2.274-.212,2.5,2.5,0,0,1-.794,2.141c-.116.1-.226.045-.175-.083C65.765,22.256,66.145,21.308,65.965,21.078Z" transform="translate(-50.386 -16.043)" fill="#f79c34" fill-rule="evenodd"/>
            <path id="Path_16359" data-name="Path 16359" d="M13.971.8V.253A.135.135,0,0,1,14.11.114h2.459a.137.137,0,0,1,.142.138v.47a.774.774,0,0,1-.185.345L15.252,2.887a2.73,2.73,0,0,1,1.4.3.251.251,0,0,1,.13.214v.585c0,.081-.088.174-.181.126a2.832,2.832,0,0,0-2.6,0c-.085.046-.175-.047-.175-.127V3.434a.662.662,0,0,1,.091-.377L15.4.94H14.113A.137.137,0,0,1,13.971.8ZM5,4.228H4.253A.141.141,0,0,1,4.12,4.1V.262A.141.141,0,0,1,4.265.124h.7A.141.141,0,0,1,5.1.253v.5h.014a1.028,1.028,0,0,1,1.955,0,1.1,1.1,0,0,1,1.9-.291,2.038,2.038,0,0,1,.189,1.2V4.09a.141.141,0,0,1-.144.138H8.262a.14.14,0,0,1-.134-.138V2.055a4.888,4.888,0,0,0-.021-.719A.39.39,0,0,0,7.667,1a.5.5,0,0,0-.447.315,2.323,2.323,0,0,0-.07.735V4.09a.141.141,0,0,1-.144.138H6.259a.14.14,0,0,1-.134-.138V2.055c0-.428.07-1.058-.461-1.058s-.517.614-.517,1.058V4.09A.141.141,0,0,1,5,4.228ZM18.834.827c-.552,0-.586.751-.586,1.22s-.007,1.471.58,1.471.608-.808.608-1.3A3.553,3.553,0,0,0,19.323,1.2a.468.468,0,0,0-.489-.372ZM18.828.043c1.11,0,1.711.954,1.711,2.165,0,1.171-.663,2.1-1.711,2.1-1.09,0-1.683-.953-1.683-2.141s.6-2.125,1.683-2.125Zm3.151,4.185h-.746a.14.14,0,0,1-.134-.138V.25a.142.142,0,0,1,.144-.125h.694a.142.142,0,0,1,.133.107V.819h.014A1.018,1.018,0,0,1,23.1.043.981.981,0,0,1,23.974.5a2.443,2.443,0,0,1,.2,1.2V4.108a.142.142,0,0,1-.143.121h-.75a.141.141,0,0,1-.133-.121V2.023c0-.42.049-1.034-.468-1.034a.49.49,0,0,0-.433.307,1.706,1.706,0,0,0-.119.727V4.09a.143.143,0,0,1-.146.138Zm-9.214-.009a.155.155,0,0,1-.177.017,1.823,1.823,0,0,1-.429-.5,1.482,1.482,0,0,1-1.233.544,1.062,1.062,0,0,1-1.12-1.166,1.271,1.271,0,0,1,.8-1.223,5.169,5.169,0,0,1,1.407-.259v-.1A.957.957,0,0,0,11.92.994.5.5,0,0,0,11.5.8a.57.57,0,0,0-.6.449.159.159,0,0,1-.13.138l-.725-.079a.132.132,0,0,1-.112-.157A1.509,1.509,0,0,1,11.575.006h.056a1.682,1.682,0,0,1,1.1.372c.364.34.329.794.329,1.288V2.832a1.021,1.021,0,0,0,.282.693.141.141,0,0,1,0,.2c-.153.128-.424.364-.574.5Zm-.754-1.824a1.469,1.469,0,0,1-.14.794.608.608,0,0,1-.518.34c-.287,0-.455-.219-.455-.543,0-.637.571-.753,1.113-.753ZM2.959,4.219a.155.155,0,0,1-.177.017,1.816,1.816,0,0,1-.429-.5,1.483,1.483,0,0,1-1.233.544A1.062,1.062,0,0,1,0,3.116,1.27,1.27,0,0,1,.8,1.893,5.169,5.169,0,0,1,2.2,1.634v-.1A.957.957,0,0,0,2.113.994.5.5,0,0,0,1.694.8a.569.569,0,0,0-.6.449.158.158,0,0,1-.13.138L.237,1.308a.132.132,0,0,1-.112-.157A1.508,1.508,0,0,1,1.769.006h.056a1.682,1.682,0,0,1,1.1.372c.364.34.329.794.329,1.288V2.832a1.021,1.021,0,0,0,.282.693.141.141,0,0,1,0,.2c-.153.128-.425.364-.574.5ZM2.2,2.395a1.467,1.467,0,0,1-.14.794.608.608,0,0,1-.518.34c-.287,0-.455-.219-.455-.543,0-.637.572-.753,1.113-.753ZM34.4,5.606V5.324c0-.08.039-.136.123-.131a1.758,1.758,0,0,0,.534.012.621.621,0,0,0,.439-.387c.122-.28.2-.506.255-.655L34.191.308c-.026-.065-.034-.187.1-.187h.544A.17.17,0,0,1,35,.252l1.128,3.131L37.206.252a.169.169,0,0,1,.169-.13h.513c.13,0,.122.121.1.187L36.441,4.284c-.2.529-.466,1.372-1.065,1.518a1.579,1.579,0,0,1-.9-.043.176.176,0,0,1-.078-.153ZM33.67,3.993a.131.131,0,0,1-.131.13h-.384a.15.15,0,0,1-.15-.13l-.039-.261a2.241,2.241,0,0,1-.627.372,1.577,1.577,0,0,1-1.412-.067,1.125,1.125,0,0,1-.488-.973,1.192,1.192,0,0,1,.3-.828,1.534,1.534,0,0,1,1.169-.448,3.642,3.642,0,0,1,1.022.135V1.4c0-.534-.225-.766-.818-.766a3.97,3.97,0,0,0-1.283.219.118.118,0,0,1-.122-.128v-.3a.186.186,0,0,1,.128-.163A3.867,3.867,0,0,1,32.189,0c.677,0,1.481.153,1.481,1.193Zm-.737-.767V2.433a4.094,4.094,0,0,0-.848-.1.981.981,0,0,0-.695.222.655.655,0,0,0-.162.45.6.6,0,0,0,.243.527.991.991,0,0,0,.794.036,1.735,1.735,0,0,0,.667-.342ZM28.014.645c.851,0,1.083.669,1.083,1.436a1.724,1.724,0,0,1-.358,1.241.969.969,0,0,1-.761.251A1.846,1.846,0,0,1,26.99,3.2V1.007A1.761,1.761,0,0,1,28.014.645Zm-1.154,5.1h-.514a.131.131,0,0,1-.131-.13V.259a.131.131,0,0,1,.131-.13h.393a.15.15,0,0,1,.15.13l.041.281A2.021,2.021,0,0,1,28.225,0c1.266,0,1.682,1.043,1.682,2.127,0,1.16-.637,2.092-1.713,2.092a1.8,1.8,0,0,1-1.2-.458V5.613a.131.131,0,0,1-.13.13Z" fill="#333e47" fill-rule="evenodd"/>
          </g>
        </g>
      </g>
    </g>
  </g>
</svg>
