<svg id="american_express_icon_payment_32px" xmlns="http://www.w3.org/2000/svg" width="48" height="32" viewBox="0 0 48 32">
  <g id="Group_20742" data-name="Group 20742" transform="translate(22104 20303)">
    <g id="Group_20373" data-name="Group 20373">
      <rect id="Rectangle_11721" data-name="Rectangle 11721" width="48" height="32" rx="4" transform="translate(-22104 -20303)" fill="#016fd0"/>
      <path id="Path_16326" data-name="Path 16326" d="M0,0H32V17.275l-1.584,2.475L32,21.952V32H0V15.715l.99-1.138L0,13.488Z" transform="translate(-22096.035 -20303)" fill="#016fd0"/>
      <path id="Path_16327" data-name="Path 16327" d="M6.212,20.962V15.938h5.319l.571.744.59-.744H32v4.678a2.23,2.23,0,0,1-1.089.346H20.22l-.643-.792v.792H17.468V19.61a1.769,1.769,0,0,1-.911.189h-.718v1.163H12.647l-.57-.76-.579.76ZM0,12.152l1.2-2.8H3.274l.681,1.567V9.355H6.534l.405,1.132.393-1.132H18.908v.569a2.5,2.5,0,0,1,1.609-.569l3.756.013.669,1.546V9.355H27.1l.594.888V9.355h2.178v5.024H27.694l-.569-.891v.891H23.954l-.319-.792h-.852l-.314.792h-2.15a2.126,2.126,0,0,1-1.411-.558v.558H15.666l-.643-.792v.792H2.967l-.319-.792H1.8l-.316.792H0Z" transform="translate(-22096.035 -20301.664)" fill="#fff"/>
      <path id="Path_16328" data-name="Path 16328" d="M1.623,9.9.005,13.659H1.059l.3-.753H3.093l.3.753H4.466L2.85,9.9Zm.6.875.529,1.316H1.691Zm2.356,2.886V9.9l1.5.006.871,2.425L7.8,9.9H9.28v3.762H8.34V10.886l-1,2.772H6.518l-1-2.772v2.772Zm5.346,0V9.9h3.069v.841H10.874v.643h2.069v.792H10.874v.668h2.118v.817ZM13.537,9.9v3.762h.94V12.322h.4L16,13.659H17.15l-1.237-1.386a1.146,1.146,0,0,0,1.032-1.155A1.217,1.217,0,0,0,15.63,9.9Zm.94.841h1.075a.432.432,0,0,1,.445.4.425.425,0,0,1-.432.4H14.477Zm3.811,2.92h-.96V9.9h.96Zm2.277,0h-.207a1.658,1.658,0,0,1-1.612-1.865,1.723,1.723,0,0,1,1.869-1.9h1.039v.891H20.577A.9.9,0,0,0,19.7,11.8a.921.921,0,0,0,1.015,1.035h.247ZM22.612,9.9l-1.618,3.762h1.053l.3-.753h1.736l.3.753h1.077L23.838,9.9Zm.6.875.529,1.316H22.68Zm2.354,2.886V9.9h1.2l1.527,2.364V9.9h.94v3.762H28.07l-1.565-2.425v2.425ZM6.855,20.241V16.479H9.923v.841H7.8v.643H9.874v.792H7.8v.668H9.923v.817Zm15.037,0V16.479h3.069v.841H22.842v.643H24.9v.792H22.842v.668h2.118v.817Zm-11.849,0,1.494-1.858-1.53-1.9h1.185l.911,1.177.914-1.177h1.138l-1.51,1.881,1.5,1.881H12.958l-.885-1.159-.863,1.159Zm4.212-3.761v3.762h.965V19.054h.99a1.3,1.3,0,0,0,1.473-1.309,1.238,1.238,0,0,0-1.35-1.265Zm.965.851h1.043a.425.425,0,0,1,.464.433.434.434,0,0,1-.467.433H15.22Zm2.871-.851v3.762h.94V18.9h.4l1.128,1.336H21.7l-1.237-1.386A1.146,1.146,0,0,0,21.5,17.7a1.217,1.217,0,0,0-1.315-1.22Zm.94.841h1.075a.432.432,0,0,1,.445.4.425.425,0,0,1-.432.4H19.031Zm6.365,2.92v-.817h1.882c.278,0,.4-.151.4-.316s-.12-.318-.4-.318h-.851a1.052,1.052,0,0,1-1.151-1.127c0-.6.377-1.185,1.476-1.185h1.831l-.4.846H26.6c-.3,0-.4.159-.4.311a.328.328,0,0,0,.346.328h.891a1.032,1.032,0,0,1,1.182,1.08,1.128,1.128,0,0,1-1.227,1.2Zm3.452,0v-.817H30.73c.279,0,.4-.151.4-.316s-.12-.318-.4-.318h-.85a1.052,1.052,0,0,1-1.151-1.127c0-.6.377-1.185,1.476-1.185h1.831l-.4.846H30.056c-.3,0-.4.159-.4.311a.328.328,0,0,0,.346.328H30.9a1.032,1.032,0,0,1,1.182,1.08,1.128,1.128,0,0,1-1.227,1.2Z" transform="translate(-22096.035 -20301.586)" fill="#016fd0"/>
    </g>
  </g>
</svg>
