<svg id="apple_pay_icon_payment_32px" xmlns="http://www.w3.org/2000/svg" width="48" height="32" viewBox="0 0 48 32">
  <g id="Group_20742" data-name="Group 20742" transform="translate(22104 20303)">
    <g id="Group_20879" data-name="Group 20879" transform="translate(-22104 -20303)">
      <g id="Group_17642" data-name="Group 17642">
        <g id="Path_16391" data-name="Path 16391" fill="#fff">
          <path d="M 44 31.5 L 4 31.5 C 2.070090055465698 31.5 0.5 29.92991065979004 0.5 28 L 0.5 4 C 0.5 2.070090055465698 2.070090055465698 0.5 4 0.5 L 44 0.5 C 45.92990875244141 0.5 47.5 2.070090055465698 47.5 4 L 47.5 28 C 47.5 29.92991065979004 45.92990875244141 31.5 44 31.5 Z" stroke="none"/>
          <path d="M 4 1 C 2.345790863037109 1 1 2.345790863037109 1 4 L 1 28 C 1 29.65420913696289 2.345790863037109 31 4 31 L 44 31 C 45.65420913696289 31 47 29.65420913696289 47 28 L 47 4 C 47 2.345790863037109 45.65420913696289 1 44 1 L 4 1 M 4 0 L 44 0 C 46.20914077758789 0 48 1.790859222412109 48 4 L 48 28 C 48 30.20914077758789 46.20914077758789 32 44 32 L 4 32 C 1.790859222412109 32 0 30.20914077758789 0 28 L 0 4 C 0 1.790859222412109 1.790859222412109 0 4 0 Z" stroke="none" fill="#dae0e7"/>
        </g>
        <g id="Group_17116" data-name="Group 17116" transform="translate(7 9)">
          <g id="apple-pay">
            <path id="Path_16245" data-name="Path 16245" d="M6.25,1.8A2.509,2.509,0,0,0,6.827,0,2.619,2.619,0,0,0,5.15.847a2.368,2.368,0,0,0-.6,1.722A1.979,1.979,0,0,0,6.25,1.8m.577.929c-.935-.055-1.732.519-2.172.519s-1.127-.492-1.87-.492A2.76,2.76,0,0,0,.448,4.182C-.541,5.9.173,8.447,1.163,9.841c.467.683,1.045,1.449,1.787,1.421.715-.027.99-.465,1.842-.465s1.1.465,1.87.437,1.265-.683,1.732-1.394a5.491,5.491,0,0,0,.77-1.586,2.47,2.47,0,0,1-.3-4.4A2.564,2.564,0,0,0,6.827,2.734" transform="translate(0.026)"/>
            <g id="Group_16873" data-name="Group 16873" transform="translate(11.041 0.793)">
              <path id="Path_16246" data-name="Path 16246" d="M44,2.9a3.26,3.26,0,0,1,3.437,3.391,3.3,3.3,0,0,1-3.492,3.418H41.722v3.527H40.1V2.9ZM41.722,8.369h1.842a1.944,1.944,0,0,0,2.2-2.051,1.931,1.931,0,0,0-2.2-2.051h-1.87v4.1Zm6.131,2.762c0-1.313,1.017-2.133,2.832-2.242l2.09-.109V8.2c0-.848-.577-1.34-1.512-1.34a1.449,1.449,0,0,0-1.595,1.094H48.183c.082-1.367,1.265-2.379,3.134-2.379,1.842,0,3.024.957,3.024,2.488v5.2H52.857v-1.23H52.83A2.7,2.7,0,0,1,50.438,13.4,2.324,2.324,0,0,1,47.853,11.131Zm4.921-.684v-.6l-1.87.109c-.935.055-1.457.465-1.457,1.121S50,12.17,50.823,12.17A1.814,1.814,0,0,0,52.775,10.447Zm2.942,5.606V14.795a3,3,0,0,0,.495.027,1.27,1.27,0,0,0,1.347-1.066c0-.027.137-.465.137-.465L54.947,5.744h1.677L58.548,11.9h.027L60.5,5.744h1.65L59.318,13.7c-.66,1.832-1.4,2.406-2.969,2.406-.11-.027-.495-.027-.632-.055Z" transform="translate(-40.1 -2.9)"/>
            </g>
          </g>
        </g>
      </g>
    </g>
  </g>
</svg>
