<svg id="clickandbuy_icon_payment_32px" xmlns="http://www.w3.org/2000/svg" width="48" height="32" viewBox="0 0 48 32">
  <g id="Group_20876" data-name="Group 20876">
    <g id="Group_17639" data-name="Group 17639">
      <g id="Group_16987" data-name="Group 16987">
        <g id="Path_16390" data-name="Path 16390" fill="#fff">
          <path d="M 44 31.5 L 4 31.5 C 2.070090055465698 31.5 0.5 29.92991065979004 0.5 28 L 0.5 4 C 0.5 2.070090055465698 2.070090055465698 0.5 4 0.5 L 44 0.5 C 45.92990875244141 0.5 47.5 2.070090055465698 47.5 4 L 47.5 28 C 47.5 29.92991065979004 45.92990875244141 31.5 44 31.5 Z" stroke="none"/>
          <path d="M 4 1 C 2.345790863037109 1 1 2.345790863037109 1 4 L 1 28 C 1 29.65420913696289 2.345790863037109 31 4 31 L 44 31 C 45.65420913696289 31 47 29.65420913696289 47 28 L 47 4 C 47 2.345790863037109 45.65420913696289 1 44 1 L 4 1 M 4 0 L 44 0 C 46.20914077758789 0 48 1.790859222412109 48 4 L 48 28 C 48 30.20914077758789 46.20914077758789 32 44 32 L 4 32 C 1.790859222412109 32 0 30.20914077758789 0 28 L 0 4 C 0 1.790859222412109 1.790859222412109 0 4 0 Z" stroke="none" fill="#dae0e7"/>
        </g>
        <path id="Path_16340" data-name="Path 16340" d="M.1.891A2.462,2.462,0,0,1,1.7.238H6.406L5.178-.983a2.445,2.445,0,0,1-.655-1.577A2.236,2.236,0,0,1,6.756-4.8a2.452,2.452,0,0,1,1.577.656L13.385.906a2.237,2.237,0,0,1,0,3.157L8.339,9.107A2.232,2.232,0,0,1,5.18,5.953s0,0,0,0l1.224-1.23H1.7A2.244,2.244,0,0,1-.555,2.485V2.477A2.447,2.447,0,0,1,.1.891" transform="translate(20.293 7.692)" fill="#ff8000"/>
        <path id="Path_16341" data-name="Path 16341" d="M.8.8a3.273,3.273,0,0,1-2.107.87A3.267,3.267,0,0,1-3.417.8,3.269,3.269,0,0,1-4.29-1.31a3.272,3.272,0,0,1,.878-2.107,3.265,3.265,0,0,1,2.107-.872,3.268,3.268,0,0,1,2.1.872,3.277,3.277,0,0,1,.872,2.109A3.271,3.271,0,0,1,.8.8" transform="translate(16.805 11.347)" fill="#ff8000"/>
        <path id="Path_16342" data-name="Path 16342" d="M.418.129c0,.1-.063.154-.171.145A6.394,6.394,0,0,0-.473.218c-.587,0-.776.343-.776.83V2.266c0,.5.208.837.784.837a5.883,5.883,0,0,0,.721-.055c.1-.009.162.034.162.134v.55c0,.1-.045.162-.171.189A4.828,4.828,0,0,1-.536,4a1.542,1.542,0,0,1-1.7-1.361,1.579,1.579,0,0,1,0-.351V1.029A1.534,1.534,0,0,1-.906-.682a1.678,1.678,0,0,1,.37,0A4.248,4.248,0,0,1,.248-.6c.119.018.171.079.171.178Z" transform="translate(7.252 22.051)" fill="#ff8000"/>
        <path id="Path_16343" data-name="Path 16343" d="M.155.976A.165.165,0,0,1,0,1.147H-.663A.165.165,0,0,1-.834.988V-5.079A.166.166,0,0,1-.673-5.25h.658a.165.165,0,0,1,.171.161V.976Z" transform="translate(9.135 24.818)" fill="#ff8000"/>
        <path id="Path_16344" data-name="Path 16344" d="M.155.68A.165.165,0,0,1,0,.85H-.664A.165.165,0,0,1-.835.691V-3.484a.165.165,0,0,1,.159-.171h.661A.164.164,0,0,1,.156-3.5V.68Z" transform="translate(10.893 25.115)" fill="#ff8000"/>
        <path id="Path_16345" data-name="Path 16345" d="M.155.128A.166.166,0,0,1,0,.3H-.664A.166.166,0,0,1-.835.141V-.52A.166.166,0,0,1-.674-.69h.658a.164.164,0,0,1,.172.159V.128Z" transform="translate(10.893 20.258)" fill="#ff8000"/>
        <path id="Path_16346" data-name="Path 16346" d="M.419.129c0,.1-.063.154-.171.145A6.394,6.394,0,0,0-.473.218c-.586,0-.776.343-.776.83V2.266c0,.5.208.837.784.837a5.865,5.865,0,0,0,.721-.055c.1-.009.162.034.162.134v.55c0,.1-.045.162-.171.189A4.828,4.828,0,0,1-.536,4,1.542,1.542,0,0,1-2.241,2.644a1.6,1.6,0,0,1,0-.353V1.028A1.534,1.534,0,0,1-.907-.683a1.619,1.619,0,0,1,.371,0A4.248,4.248,0,0,1,.248-.6c.119.018.171.079.171.178Z" transform="translate(14.053 22.051)" fill="#ff8000"/>
        <path id="Path_16347" data-name="Path 16347" d="M.155.976A.166.166,0,0,1,0,1.147H-.664A.165.165,0,0,1-.835.988V-5.079A.166.166,0,0,1-.674-5.25h.658a.166.166,0,0,1,.171.161V.976Z" transform="translate(15.939 24.818)" fill="#ff8000"/>
        <path id="Path_16348" data-name="Path 16348" d="M.342.706H-.384A.273.273,0,0,1-.609.536L-1.838-1.816-.721-3.627A.324.324,0,0,1-.484-3.8H.247a.107.107,0,0,1,.12.093.107.107,0,0,1-.021.079L-.772-1.835.463.537A.119.119,0,0,1,.406.695.114.114,0,0,1,.343.705Z" transform="translate(17.988 25.258)" fill="#ff8000"/>
        <path id="Path_16349" data-name="Path 16349" d="M.535.694A.165.165,0,0,1,.376.865H-.284A.165.165,0,0,1-.454.707V-2.108c0-.422-.128-.694-.6-.694a1.919,1.919,0,0,0-.837.261V.695a.165.165,0,0,1-.159.171h-.652A.165.165,0,0,1-2.878.707V-3.47a.165.165,0,0,1,.159-.171H-2.1a.165.165,0,0,1,.171.159v.146a1.893,1.893,0,0,1,1.161-.4C.211-3.732.543-3.139.543-2.2V.694Z" transform="translate(25.648 25.1)" fill="gray"/>
        <path id="Path_16350" data-name="Path 16350" d="M.537.679A.166.166,0,0,1,.378.85H-.238A.164.164,0,0,1-.409.694V.545a1.892,1.892,0,0,1-1.162.4C-2.553.941-2.886.348-2.886-.59V-3.483a.165.165,0,0,1,.159-.171h.661A.165.165,0,0,1-1.9-3.5V-.68c0,.422.127.693.6.693A1.919,1.919,0,0,0-.455-.248V-3.483A.164.164,0,0,1-.3-3.654H.365A.164.164,0,0,1,.535-3.5V.678Z" transform="translate(38.039 25.115)" fill="#ff8000"/>
        <path id="Path_16351" data-name="Path 16351" d="M.311.949c-.036.09-.091.162-.19.162H-.61A.128.128,0,0,1-.751,1,.146.146,0,0,1-.744.941l.513-1.5-1.433-4.37A.129.129,0,0,1-1.586-5.1.139.139,0,0,1-1.528-5.1h.712a.2.2,0,0,1,.2.162L.3-2.086l.965-2.856a.217.217,0,0,1,.2-.162h.712a.133.133,0,0,1,.145.117.143.143,0,0,1-.009.063Z" transform="translate(40.678 26.567)" fill="#ff8000"/>
        <path id="Path_16352" data-name="Path 16352" d="M.382.564A1.931,1.931,0,0,1-.465.809c-.4,0-.593-.2-.593-.541,0-.384.2-.593.689-.593l-.006,0H.382Zm-.6-3.6a4.85,4.85,0,0,0-1.342.19.192.192,0,0,0-.171.189v.549a.132.132,0,0,0,.171.145A6.583,6.583,0,0,1-.355-2.117c.531,0,.739.254.739.721v.363a8.1,8.1,0,0,0-.865-.055c-1,0-1.568.459-1.568,1.386a1.22,1.22,0,0,0,0,.3A1.228,1.228,0,0,0-.661,1.651a2.075,2.075,0,0,0,1.09-.343V1.4A.163.163,0,0,0,.6,1.559h.615a.165.165,0,0,0,.159-.171h0V-1.4c0-1.079-.4-1.639-1.6-1.639" transform="translate(20.619 24.405)" fill="gray"/>
        <path id="Path_16353" data-name="Path 16353" d="M.381.846a1.831,1.831,0,0,1-.755.208c-.5,0-.685-.315-.685-.766V-1.106c.006-.449.2-.765.691-.765l-.006,0A2.1,2.1,0,0,1,.381-1.7Zm.991.828V-4.392A.165.165,0,0,0,1.2-4.553H.544a.167.167,0,0,0-.161.171v1.874a2.169,2.169,0,0,0-.965-.237c-1,0-1.469.612-1.469,1.577V.364c0,.965.47,1.577,1.469,1.577A1.946,1.946,0,0,0,.427,1.627v.066A.165.165,0,0,0,.6,1.851h.617a.165.165,0,0,0,.159-.171Z" transform="translate(28.818 24.114)" fill="gray"/>
        <path id="Path_16354" data-name="Path 16354" d="M.38.538V1.892a.662.662,0,0,1-.564.747.681.681,0,0,1-.184,0h-.69V-.015A1.9,1.9,0,0,1-.292-.223c.5,0,.677.317.677.766ZM-.082-1.093a1.892,1.892,0,0,0-.974.278v-1.92a.165.165,0,0,0-.171-.16h-.658a.165.165,0,0,0-.161.17V3.341a.165.165,0,0,0,.171.159h1.6a1.4,1.4,0,0,0,.352.008,1.447,1.447,0,0,0,1.3-1.584h.006V.483c0-.964-.46-1.576-1.46-1.576" transform="translate(33.012 22.464)" fill="#ff8000"/>
      </g>
    </g>
  </g>
</svg>
