<svg id="diners_club_icon_payment_32px" xmlns="http://www.w3.org/2000/svg" width="48" height="32" viewBox="0 0 48 32">
  <g id="Group_20742" data-name="Group 20742" transform="translate(22104 20303)">
    <g id="Group_20877" data-name="Group 20877" transform="translate(0 -160)">
      <g id="Group_20345" data-name="Group 20345" transform="translate(-22104 -20143)">
        <g id="Path_16389" data-name="Path 16389" fill="#fff">
          <path d="M 44 31.5 L 4 31.5 C 2.070090055465698 31.5 0.5 29.92991065979004 0.5 28 L 0.5 4 C 0.5 2.070090055465698 2.070090055465698 0.5 4 0.5 L 44 0.5 C 45.92990875244141 0.5 47.5 2.070090055465698 47.5 4 L 47.5 28 C 47.5 29.92991065979004 45.92990875244141 31.5 44 31.5 Z" stroke="none"/>
          <path d="M 4 1 C 2.345790863037109 1 1 2.345790863037109 1 4 L 1 28 C 1 29.65420913696289 2.345790863037109 31 4 31 L 44 31 C 45.65420913696289 31 47 29.65420913696289 47 28 L 47 4 C 47 2.345790863037109 45.65420913696289 1 44 1 L 4 1 M 4 0 L 44 0 C 46.20914077758789 0 48 1.790859222412109 48 4 L 48 28 C 48 30.20914077758789 46.20914077758789 32 44 32 L 4 32 C 1.790859222412109 32 0 30.20914077758789 0 28 L 0 4 C 0 1.790859222412109 1.790859222412109 0 4 0 Z" stroke="none" fill="#dae0e7"/>
        </g>
        <g id="Group_20342" data-name="Group 20342" transform="translate(10.999 6.001)">
          <path id="Path_16336" data-name="Path 16336" d="M14.874,20.065c5.477.027,10.476-4.458,10.476-9.913A10.224,10.224,0,0,0,14.874.065H10.16A9.874,9.874,0,0,0,.056,10.152a10.029,10.029,0,0,0,10.1,9.913h4.713" transform="translate(-0.056 -0.065)" fill="#006095"/>
          <path id="Path_16337" data-name="Path 16337" d="M11.829,15.089V4.257a5.8,5.8,0,0,1,0,10.832M3.936,9.673A5.813,5.813,0,0,1,7.668,4.257v10.83A5.81,5.81,0,0,1,3.936,9.673M9.749.517A9.155,9.155,0,1,0,18.92,9.673,9.164,9.164,0,0,0,9.749.517" transform="translate(0.376 0.31)" fill="#fff"/>
        </g>
      </g>
    </g>
  </g>
</svg>
