<svg id="eletronic_cash_icon_payment_32px" xmlns="http://www.w3.org/2000/svg" width="48" height="32" viewBox="0 0 48 32">
  <g id="Group_20878" data-name="Group 20878">
    <g id="Rectangle_11721" data-name="Rectangle 11721" fill="#fff" stroke="#dae0e7" stroke-width="1">
      <rect width="48" height="32" rx="4" stroke="none"/>
      <rect x="0.5" y="0.5" width="47" height="31" rx="3.5" fill="none"/>
    </g>
    <g id="Group_17125" data-name="Group 17125" transform="translate(16.371 6.206)">
      <g id="Group_16891" data-name="Group 16891">
        <path id="Path_16282" data-name="Path 16282" d="M220.8,495.294h-.681v.4a.271.271,0,0,0,.073.212.141.141,0,0,0,.08.029.135.135,0,0,0,.073-.029.222.222,0,0,0,.073-.227v-.168h.373a1.368,1.368,0,0,1-.051.52c-.058.124-.19.227-.483.227a.5.5,0,0,1-.432-.183,1.2,1.2,0,0,1-.1-.607v-.585a1.676,1.676,0,0,1,.029-.329.482.482,0,0,1,.512-.359c.066,0,.11.007.132.007a.479.479,0,0,1,.3.168,1.024,1.024,0,0,1,.1.534v.4Zm-.381-.3V494.7a.26.26,0,0,0-.058-.168.121.121,0,0,0-.088-.037.177.177,0,0,0-.08.029c-.059.037-.059.1-.073.168v.3Z" transform="translate(-219.73 -477.346)" fill="#0058a7" fill-rule="evenodd"/>
        <path id="Path_16283" data-name="Path 16283" d="M232.672,488.131V490.8h-.4v-2.671Z" transform="translate(-230.989 -471.909)" fill="#161615" fill-rule="evenodd"/>
        <path id="Path_16284" data-name="Path 16284" d="M239.616,495.294h-.681v.4a.3.3,0,0,0,.073.212.141.141,0,0,0,.08.029.177.177,0,0,0,.081-.029.233.233,0,0,0,.066-.227v-.168h.381a1.535,1.535,0,0,1-.059.52c-.059.124-.19.227-.483.227a.5.5,0,0,1-.432-.183,1.2,1.2,0,0,1-.1-.607v-.585a1.676,1.676,0,0,1,.029-.329.482.482,0,0,1,.512-.359c.066,0,.11.007.139.007a.48.48,0,0,1,.293.168,1.024,1.024,0,0,1,.1.534v.4Zm-.381-.3V494.7a.26.26,0,0,0-.059-.168.121.121,0,0,0-.088-.037.211.211,0,0,0-.08.029c-.058.037-.058.1-.073.168v.3Z" transform="translate(-236.616 -477.346)" fill="#161615" fill-rule="evenodd"/>
        <path id="Path_16285" data-name="Path 16285" d="M251.471,494.984a.92.92,0,0,0-.037-.366c-.015-.022-.037-.044-.1-.044a.26.26,0,0,0-.073.015.276.276,0,0,0-.073.154c-.007.183-.007.366-.007.549s.007.351.015.527c0,.022.007.044.007.059a.121.121,0,0,0,.139.117c.132,0,.139-.117.139-.241v-.271l.388.007v.285a.6.6,0,0,1-.11.388.386.386,0,0,1-.124.11.911.911,0,0,1-.293.051.559.559,0,0,1-.439-.176.723.723,0,0,1-.11-.461c-.007-.212-.015-.417-.007-.629.007-.1.015-.2.022-.315a.637.637,0,0,1,.029-.168.427.427,0,0,1,.329-.293.811.811,0,0,1,.2-.022.493.493,0,0,1,.432.212,1.074,1.074,0,0,1,.066.512Z" transform="translate(-247.592 -477.409)" fill="#161615" fill-rule="evenodd"/>
        <path id="Path_16286" data-name="Path 16286" d="M262.44,489.869v-.527h.4v.527h.154v.344h-.154v1.149c0,.088,0,.146.029.176a.258.258,0,0,0,.08.022c.015,0,.029.007.051.007l-.007.322h-.249a.249.249,0,0,1-.227-.058.305.305,0,0,1-.051-.081.461.461,0,0,1-.015-.132v-1.4h-.161v-.344Z" transform="translate(-257.918 -472.996)" fill="#161615" fill-rule="evenodd"/>
        <path id="Path_16287" data-name="Path 16287" d="M271.078,494.155l-.015.388a.665.665,0,0,1,.1-.242c.1-.154.212-.168.38-.183l-.007.483c-.139-.007-.271-.015-.359.1a.354.354,0,0,0-.073.256v1.222h-.4v-2.02Z" transform="translate(-265.465 -477.282)" fill="#161615" fill-rule="evenodd"/>
        <path id="Path_16288" data-name="Path 16288" d="M279.819,494.976a.819.819,0,0,1,.08-.417.472.472,0,0,1,.454-.227c.278,0,.388.1.446.227a1.792,1.792,0,0,1,.066.739c0,.117.007.234.007.351a1.509,1.509,0,0,1-.059.476.544.544,0,0,1-.937.007,2.307,2.307,0,0,1-.059-.673v-.483Zm.666.2c0-.1,0-.2-.007-.3a.482.482,0,0,0-.029-.168.1.1,0,0,0-.1-.066c-.051,0-.117.044-.132.154a2.813,2.813,0,0,0-.015.41v.454a.916.916,0,0,0,.036.337.118.118,0,0,0,.1.073.085.085,0,0,0,.073-.029c.066-.059.059-.161.066-.337v-.527Z" transform="translate(-273.65 -477.474)" fill="#161615" fill-rule="evenodd"/>
        <path id="Path_16289" data-name="Path 16289" d="M292.818,494.282l.007.175c.022-.015.037-.044.059-.058a.427.427,0,0,1,.307-.139.283.283,0,0,1,.176.051.378.378,0,0,1,.154.329V496.3h-.4v-1.463a.192.192,0,0,0-.066-.176.1.1,0,0,0-.066-.022.192.192,0,0,0-.1.044.408.408,0,0,0-.073.315v1.3h-.38v-2.019Z" transform="translate(-284.974 -477.409)" fill="#161615" fill-rule="evenodd"/>
        <path id="Path_16290" data-name="Path 16290" d="M306.012,488.782V490.8h-.388v-2.019Zm.007-.651v.388h-.388v-.388Z" transform="translate(-296.807 -471.909)" fill="#161615" fill-rule="evenodd"/>
        <path id="Path_16291" data-name="Path 16291" d="M312.385,494.984a.917.917,0,0,0-.037-.366.113.113,0,0,0-.1-.044.262.262,0,0,0-.08.015.228.228,0,0,0-.066.154c-.007.183-.015.366-.015.549s.007.351.015.527c0,.022.007.044.007.059a.126.126,0,0,0,.139.117c.139,0,.139-.117.139-.241v-.271l.388.007v.285a.645.645,0,0,1-.1.388.481.481,0,0,1-.132.11.9.9,0,0,1-.285.051.552.552,0,0,1-.439-.176.777.777,0,0,1-.117-.461c0-.212-.015-.417,0-.629,0-.1.007-.2.015-.315a.648.648,0,0,1,.029-.168.427.427,0,0,1,.329-.293.861.861,0,0,1,.2-.022.478.478,0,0,1,.424.212.987.987,0,0,1,.066.512Z" transform="translate(-302.251 -477.409)" fill="#161615" fill-rule="evenodd"/>
        <path id="Path_16292" data-name="Path 16292" d="M329.452,494.984a.919.919,0,0,0-.037-.366c-.015-.022-.037-.044-.1-.044a.259.259,0,0,0-.073.015.276.276,0,0,0-.073.154c-.007.183-.007.366-.007.549s.007.351.015.527c0,.022.007.044.007.059a.121.121,0,0,0,.139.117c.132,0,.139-.117.139-.241v-.271l.388.007v.285a.6.6,0,0,1-.11.388.386.386,0,0,1-.124.11.909.909,0,0,1-.293.051.56.56,0,0,1-.439-.176.723.723,0,0,1-.11-.461c-.007-.212-.015-.417-.007-.629.007-.1.015-.2.022-.315a.638.638,0,0,1,.029-.168.426.426,0,0,1,.329-.293.811.811,0,0,1,.2-.022.493.493,0,0,1,.432.212,1.075,1.075,0,0,1,.066.512Z" transform="translate(-317.569 -477.409)" fill="#dd190a" fill-rule="evenodd"/>
        <path id="Path_16293" data-name="Path 16293" d="M340.8,494.848a.922.922,0,0,1,.066-.483.574.574,0,0,1,.432-.176.662.662,0,0,1,.366.11c.081.073.1.19.11.424v1.522H341.4v-.161a.659.659,0,0,1-.058.1.377.377,0,0,1-.249.08.291.291,0,0,1-.285-.19,1.163,1.163,0,0,1-.044-.417v-.124a.439.439,0,0,1,.176-.373c.044-.044.227-.154.263-.183.11-.058.168-.073.183-.2a.3.3,0,0,0,.007-.073.168.168,0,0,0-.051-.132.641.641,0,0,0-.073-.015c-.037,0-.051.007-.066.037a.371.371,0,0,0-.044.263Zm.49.446c0,.007-.051.044-.081.08a.379.379,0,0,0-.058.256.905.905,0,0,0,.015.139c0,.058,0,.1.044.139a.11.11,0,0,0,.059.022.135.135,0,0,0,.058-.015.133.133,0,0,0,.059-.117,4.541,4.541,0,0,0,.007-.593,1.3,1.3,0,0,1-.1.088Z" transform="translate(-328.338 -477.346)" fill="#161615" fill-rule="evenodd"/>
        <path id="Path_16294" data-name="Path 16294" d="M352.815,495.533a.886.886,0,0,0,.037.417.152.152,0,0,0,.139.066c.146,0,.161-.183.161-.22a.271.271,0,0,0-.015-.1c-.029-.088-.073-.124-.19-.249a2.864,2.864,0,0,1-.212-.212.552.552,0,0,1-.066-.066.545.545,0,0,1-.2-.425.61.61,0,0,1,.051-.234c.051-.132.161-.256.454-.256.263,0,.366.081.432.183a.9.9,0,0,1,.081.483l-.351-.007c.007-.125.015-.359-.161-.359a.154.154,0,0,0-.139.161c0,.1.1.19.183.263l.124.146c.044.036.088.073.132.117a.66.66,0,0,1,.234.5.833.833,0,0,1-.1.417.564.564,0,0,1-.454.154.452.452,0,0,1-.49-.337.8.8,0,0,1-.015-.176v-.278Z" transform="translate(-338.831 -477.409)" fill="#161615" fill-rule="evenodd"/>
        <path id="Path_16295" data-name="Path 16295" d="M365.175,488.131v.8a.542.542,0,0,1,.351-.176.321.321,0,0,1,.2.066.484.484,0,0,1,.139.432v1.559h-.388v-1.471c0-.007.015-.212-.132-.212a.121.121,0,0,0-.1.037.393.393,0,0,0-.073.263V490.8h-.388v-2.671Z" transform="translate(-349.897 -471.909)" fill="#161615" fill-rule="evenodd"/>
        <path id="Path_16296" data-name="Path 16296" d="M292.928,345.288h-8.312a1.228,1.228,0,0,1-1.143-1.166c0-.45.012-12.376,0-12.838s.8-1.178,1.339-1.178,8.1,0,8.1,0v6.015h-4.41v-2.852s-.289-.012-.658,0a.551.551,0,0,0-.5.5c-.012.623,0,7.828,0,8.012s.115.4.5.416a5.291,5.291,0,0,0,.67,0v-3.083h4.41v6.177Z" transform="translate(-276.929 -330.106)" fill="#dd190a" fill-rule="evenodd"/>
        <path id="Path_16297" data-name="Path 16297" d="M222,330.106c.912.011,7.562,0,7.562,0v9.005l-5.034-.011v2.644a.607.607,0,0,0,.577.462h.623v-2.228h3.845l-.011,5.311h-7.6a1.51,1.51,0,0,1-1.247-1.293c.012-.416,0-12.526,0-12.734A1.477,1.477,0,0,1,222,330.106Zm3.741,3.14s-.335-.023-.635-.012a.633.633,0,0,0-.577.5v2.39h1.212v-2.875Z" transform="translate(-220.616 -330.106)" fill="#0058a7" fill-rule="evenodd"/>
        <path id="Path_16298" data-name="Path 16298" d="M285.887,426.266h-2.413v4.145a1.244,1.244,0,0,0,1.131,1.166h1.27l.012-5.311Z" transform="translate(-276.93 -416.395)" fill="#161615" fill-rule="evenodd"/>
        <path id="Path_16299" data-name="Path 16299" d="M285.874,339.111v-9.005h-1.062c-.543,0-1.351.716-1.339,1.178v7.828Z" transform="translate(-276.929 -330.106)" fill="#161615" fill-rule="evenodd"/>
      </g>
    </g>
  </g>
</svg>
