<svg id="geldkarte_icon_payment_32px" xmlns="http://www.w3.org/2000/svg" xmlns:xlink="http://www.w3.org/1999/xlink" width="48" height="32" viewBox="0 0 48 32">
  <defs>
    <clipPath id="clip-path">
      <path id="path2533" d="M32.363-247.657H68.209v31.291H32.363Z" transform="translate(-32.363 247.657)"/>
    </clipPath>
    <clipPath id="clip-path-2">
      <path id="path2541" d="M53.061-247.991h13.4a2.425,2.425,0,0,1,2.425,2.427v26.333a2.425,2.425,0,0,1-2.425,2.428H39.656a2.428,2.428,0,0,1-2.427-2.428v-26.333a2.428,2.428,0,0,1,2.427-2.427h13.4" transform="translate(-37.229 247.991)"/>
    </clipPath>
    <clipPath id="clip-path-3">
      <path id="path2549" d="M37.776-247.447v30.422h30.49v-30.422" transform="translate(-37.776 247.447)"/>
    </clipPath>
    <clipPath id="clip-path-4">
      <path id="path2557" d="M40.4-232.209a12.647,12.647,0,0,1,12.648-12.648A12.647,12.647,0,0,1,65.7-232.209a12.645,12.645,0,0,1-12.648,12.648A12.646,12.646,0,0,1,40.4-232.209" transform="translate(-40.403 244.857)"/>
    </clipPath>
  </defs>
  <g id="Group_20881" data-name="Group 20881" transform="translate(22104 20063)">
    <g id="Group_20425" data-name="Group 20425" transform="translate(-22104 -20063)">
      <g id="Rectangle_11976" data-name="Rectangle 11976" fill="#fff" stroke="#dae0e7" stroke-width="1">
        <rect width="48" height="32" rx="4" stroke="none"/>
        <rect x="0.5" y="0.5" width="47" height="31" rx="3.5" fill="none"/>
      </g>
      <g id="Group_20424" data-name="Group 20424" transform="translate(3.385 0)">
        <g id="g2529" transform="translate(0 0.331)" clip-path="url(#clip-path)">
          <g id="g2535" transform="translate(4.815 -0.331)">
            <g id="g2537" clip-path="url(#clip-path-2)">
              <g id="g2543" transform="translate(0.542 0.538)">
                <g id="g2545" clip-path="url(#clip-path-3)">
                  <g id="g2551" transform="translate(2.599 2.563)">
                    <g id="g2553" clip-path="url(#clip-path-4)">
                      <path id="path2559" d="M40.346-237.43H65.738v-1.351H40.346Z" transform="translate(-40.402 244.793)" fill="#007cc1"/>
                    </g>
                  </g>
                </g>
              </g>
            </g>
          </g>
        </g>
        <g id="g2563" transform="translate(0 0.331)" clip-path="url(#clip-path)">
          <g id="g2569" transform="translate(4.815 -0.331)">
            <g id="g2571" clip-path="url(#clip-path-2)">
              <g id="g2577" transform="translate(0.542 0.538)">
                <g id="g2579" clip-path="url(#clip-path-3)">
                  <g id="g2585" transform="translate(2.599 2.563)">
                    <g id="g2587" clip-path="url(#clip-path-4)">
                      <path id="path2593" d="M40.346-239.477H65.738v-1.349H40.346Z" transform="translate(-40.402 244.815)" fill="#007cc1"/>
                    </g>
                  </g>
                </g>
              </g>
            </g>
          </g>
        </g>
        <g id="g2597" transform="translate(0 0.331)" clip-path="url(#clip-path)">
          <g id="g2603" transform="translate(4.815 -0.331)">
            <g id="g2605" clip-path="url(#clip-path-2)">
              <g id="g2611" transform="translate(0.542 0.538)">
                <g id="g2613" clip-path="url(#clip-path-3)">
                  <g id="g2619" transform="translate(2.599 2.563)">
                    <g id="g2621" clip-path="url(#clip-path-4)">
                      <path id="path2627" d="M40.346-241.521H65.738v-1.349H40.346Z" transform="translate(-40.402 244.836)" fill="#007cc1"/>
                    </g>
                  </g>
                </g>
              </g>
            </g>
          </g>
        </g>
        <g id="g2631" transform="translate(0 0.331)" clip-path="url(#clip-path)">
          <g id="g2637" transform="translate(4.815 -0.331)">
            <g id="g2639" clip-path="url(#clip-path-2)">
              <g id="g2645" transform="translate(0.542 0.538)">
                <g id="g2647" clip-path="url(#clip-path-3)">
                  <g id="g2653" transform="translate(2.599 2.563)">
                    <g id="g2655" clip-path="url(#clip-path-4)">
                      <path id="path2661" d="M40.346-243.566H65.738v-1.349H40.346Z" transform="translate(-40.402 244.857)" fill="#007cc1"/>
                    </g>
                  </g>
                </g>
              </g>
            </g>
          </g>
        </g>
        <g id="g2665" transform="translate(0 0.331)" clip-path="url(#clip-path)">
          <g id="g2671" transform="translate(4.815 -0.331)">
            <g id="g2673" clip-path="url(#clip-path-2)">
              <g id="g2679" transform="translate(0.542 0.538)">
                <g id="g2681" clip-path="url(#clip-path-3)">
                  <g id="g2687" transform="translate(2.599 2.563)">
                    <g id="g2689" clip-path="url(#clip-path-4)">
                      <path id="path2695" d="M40.346-219.3H65.738v-1.347H40.346Z" transform="translate(-40.402 244.603)" fill="#ed1e51"/>
                    </g>
                  </g>
                </g>
              </g>
            </g>
          </g>
        </g>
        <g id="g2699" transform="translate(0 0.331)" clip-path="url(#clip-path)">
          <g id="g2705" transform="translate(4.815 -0.331)">
            <g id="g2707" clip-path="url(#clip-path-2)">
              <g id="g2713" transform="translate(0.542 0.538)">
                <g id="g2715" clip-path="url(#clip-path-3)">
                  <g id="g2721" transform="translate(2.599 2.563)">
                    <g id="g2723" clip-path="url(#clip-path-4)">
                      <path id="path2729" d="M40.346-221.344H65.738v-1.349H40.346Z" transform="translate(-40.402 244.625)" fill="#ed1e51"/>
                    </g>
                  </g>
                </g>
              </g>
            </g>
          </g>
        </g>
        <g id="g2733" transform="translate(0 0.331)" clip-path="url(#clip-path)">
          <g id="g2739" transform="translate(4.815 -0.331)">
            <g id="g2741" clip-path="url(#clip-path-2)">
              <g id="g2747" transform="translate(0.542 0.538)">
                <g id="g2749" clip-path="url(#clip-path-3)">
                  <g id="g2755" transform="translate(2.599 2.563)">
                    <g id="g2757" clip-path="url(#clip-path-4)">
                      <path id="path2763" d="M40.346-223.387H65.738v-1.349H40.346Z" transform="translate(-40.402 244.646)" fill="#ed1e51"/>
                    </g>
                  </g>
                </g>
              </g>
            </g>
          </g>
        </g>
        <g id="g2767" transform="translate(0 0.331)" clip-path="url(#clip-path)">
          <g id="g2773" transform="translate(4.815 -0.331)">
            <g id="g2775" clip-path="url(#clip-path-2)">
              <g id="g2781" transform="translate(0.542 0.538)">
                <g id="g2783" clip-path="url(#clip-path-3)">
                  <g id="g2789" transform="translate(2.599 2.563)">
                    <g id="g2791" clip-path="url(#clip-path-4)">
                      <path id="path2797" d="M40.346-225.432H65.738v-1.351H40.346Z" transform="translate(-40.402 244.668)" fill="#ed1e51"/>
                    </g>
                  </g>
                </g>
              </g>
            </g>
          </g>
        </g>
        <g id="Group_20422" data-name="Group 20422" transform="translate(4.816)">
          <g id="g2807">
            <g id="g2809" clip-path="url(#clip-path-2)">
              <g id="g2815" transform="translate(0.542 0.538)">
                <g id="g2817" clip-path="url(#clip-path-3)">
                  <g id="g2823" transform="translate(2.599 2.563)">
                    <g id="g2825" clip-path="url(#clip-path-4)">
                      <path id="path2831" d="M40.346-235.385H65.738v-1.351H40.346Z" transform="translate(-40.402 244.772)" fill="#007cc1"/>
                    </g>
                  </g>
                </g>
              </g>
            </g>
          </g>
        </g>
        <g id="g2835" transform="translate(0 0.331)" clip-path="url(#clip-path)">
          <g id="g2841" transform="translate(4.815 -0.331)">
            <g id="g2843" clip-path="url(#clip-path-2)">
              <g id="g2849" transform="translate(0.542 0.538)">
                <g id="g2851" clip-path="url(#clip-path-3)">
                  <g id="g2857" transform="translate(2.599 2.563)">
                    <g id="g2859" clip-path="url(#clip-path-4)">
                      <path id="path2865" d="M40.346-227.48H65.738v-1.347H40.346Z" transform="translate(-40.402 244.689)" fill="#ed1e51"/>
                    </g>
                  </g>
                </g>
              </g>
            </g>
          </g>
        </g>
        <g id="g2867" transform="translate(8.153 13.297)">
          <path id="path2869" d="M-.033-.04a3.645,3.645,0,0,1-.68.077c-.919,0-1.243-.6-1.046-1.5.16-.744.63-1.5,1.491-1.5.421,0,.742.135.708.581H1.714c.271-1.338-.865-1.5-1.99-1.472A2.882,2.882,0,0,0-3.1-1.468,1.76,1.76,0,0,0-1.305.93,12.342,12.342,0,0,0,1.086.681l.529-2.46H-.6l-.191.895H.148L-.033-.04" transform="translate(3.172 3.866)" fill="#007cc1"/>
        </g>
        <g id="g2871" transform="translate(15.413 14.587)">
          <path id="path2873" d="M-.009-.036l.734-3.41h-.9L-.907-.036h.9" transform="translate(0.907 3.446)" fill="#212124"/>
        </g>
        <g id="g2875" transform="translate(19.716 13.397)">
          <path id="path2877" d="M-.019-.021H-.031l.436-2.02H-.869l-.992,4.6H-.587L-.059.111h.013L.943,2.561H2.522L1.365-.014,3.387-2.041H1.876l-1.9,2.02" transform="translate(1.861 2.041)" fill="#ed1e51"/>
        </g>
        <g id="g2879" transform="translate(26.612 15.678)">
          <path id="path2881" d="M-.014,0H-.879a5.623,5.623,0,0,1-.1.581l-.361,1.672h.852l.194-.9c.079-.432.288-.7.734-.7C.5.652.56.652.62.654L.776-.066A.841.841,0,0,0-.083.422H-.091L-.014,0" transform="translate(1.337 0.066)" fill="#212124"/>
        </g>
        <g id="g2883" transform="translate(28.75 15.081)">
          <path id="path2885" d="M0-.007-.119.535H.322L.1,1.541c-.193.691.14.773.717.773a2.444,2.444,0,0,0,.467-.047L1.4,1.761a2.379,2.379,0,0,1-.331.015c-.2,0-.1-.292-.086-.351L1.174.535h.494l.114-.542H1.29L1.432-.67.511-.345.436-.007H0" transform="translate(0.119 0.67)" fill="#212124"/>
        </g>
        <g id="g2887" transform="translate(12.825 15.556)">
          <path id="path2889" d="M-.01-.01C.072-.277.2-.5.509-.515A.276.276,0,0,1,.79-.363.538.538,0,0,1,.821-.01ZM1.569.474c.189-.886,0-1.436-.96-1.436A1.506,1.506,0,0,0-.922.213c-.2.93.091,1.336,1.038,1.336a1.6,1.6,0,0,0,.79-.184A1.148,1.148,0,0,0,1.5.7H.668a.506.506,0,0,1-.512.342C-.18,1.046-.2.778-.131.474h1.7" transform="translate(0.981 0.961)" fill="#212124" fill-rule="evenodd"/>
        </g>
        <g id="g2891" transform="translate(16.828 14.587)">
          <path id="path2893" d="M-.016-.016C.375-.016.334.4.265.721s-.23.736-.6.736S-.68,1.032-.613.721-.405-.016-.016-.016Zm.05,1.923H.906L1.641-1.5h-.9L.459-.186H.45A.73.73,0,0,0-.243-.533,1.45,1.45,0,0,0-1.536.732c-.125.591.049,1.245.723,1.245a1.031,1.031,0,0,0,.878-.421H.086l-.053.351" transform="translate(1.574 1.503)" fill="#212124" fill-rule="evenodd"/>
        </g>
        <g id="g2895" transform="translate(24.091 15.678)">
          <path id="path2897" d="M-.024-.025A4.353,4.353,0,0,1,.028-.489L.277-1.644c.116-.507-.393-.7-.852-.7a2.042,2.042,0,0,0-.8.136.8.8,0,0,0-.52.6h.8A.405.405,0,0,1-.752-1.95c.344-.012.237.275.192.475H-.827c-.734,0-1.286.222-1.413.77-.108.462.109.749.641.749A.986.986,0,0,0-.8-.331h.009A1.417,1.417,0,0,0-.84-.025ZM-1.407-.749a.442.442,0,0,1,.29-.3A1.224,1.224,0,0,1-.64-1.1c-.064.3-.172.645-.538.645a.231.231,0,0,1-.228-.3" transform="translate(2.267 2.343)" fill="#212124" fill-rule="evenodd"/>
        </g>
        <g id="g2899" transform="translate(30.55 15.678)">
          <path id="path2901" d="M-.01-.01C.068-.263.184-.473.483-.488a.259.259,0,0,1,.266.146A.511.511,0,0,1,.781-.01Zm1.5.46c.184-.837,0-1.362-.912-1.362A1.425,1.425,0,0,0-.875.205c-.193.882.084,1.269.984,1.269A1.567,1.567,0,0,0,.863,1.3,1.1,1.1,0,0,0,1.423.671H.635A.481.481,0,0,1,.147.994c-.32,0-.342-.25-.273-.544H1.486" transform="translate(0.933 0.912)" fill="#212124" fill-rule="evenodd"/>
        </g>
      </g>
    </g>
  </g>
</svg>
