<svg id="giro_pay_icon_payment_32px" xmlns="http://www.w3.org/2000/svg" width="48" height="32" viewBox="0 0 48 32">
  <g id="Group_20883" data-name="Group 20883" transform="translate(22104 19983)">
    <g id="Group_17638" data-name="Group 17638" transform="translate(-22104 -19983)">
      <g id="Rectangle_11748" data-name="Rectangle 11748" fill="#fff" stroke="#dae0e7" stroke-width="1">
        <rect width="48" height="32" rx="4" stroke="none"/>
        <rect x="0.5" y="0.5" width="47" height="31" rx="3.5" fill="none"/>
      </g>
      <g id="layer1" transform="translate(4.999 8)">
        <path id="_92653320" d="M.96,4.07A2.878,2.878,0,0,1,3.845,1.2H35.283A2.878,2.878,0,0,1,38.168,4.07V14.329a2.878,2.878,0,0,1-2.885,2.87H3.845A2.878,2.878,0,0,1,.96,14.329V4.07Z" transform="translate(-0.96 -1.2)" fill="#000268" fill-rule="evenodd"/>
        <path id="_92186184" d="M2.487,4.509V14.573a1.8,1.8,0,0,0,1.8,1.794H20.762V2.716H4.291a1.8,1.8,0,0,0-1.8,1.794Zm22.53,4.982c0,.641-.317,1.081-.842,1.081a.943.943,0,0,1-.85-1.027c0-.6.34-1.05.85-1.05A.89.89,0,0,1,25.018,9.491Zm-3.081,3.675h1.389V10.981h.016a1.4,1.4,0,0,0,1.275.656c1.2,0,1.837-.988,1.837-2.177a1.877,1.877,0,0,0-1.722-2.031,1.586,1.586,0,0,0-1.5.819h-.016V7.522H21.937Zm6.414-2.9c0-.386.37-.532.842-.532.208,0,.409.015.587.023a.906.906,0,0,1-.857.95C28.6,10.711,28.351,10.549,28.351,10.27Zm2.8,1.274a4.955,4.955,0,0,1-.077-.95V9.1c0-1.227-.887-1.668-1.915-1.668a4.153,4.153,0,0,0-1.606.286l.024.942a2.606,2.606,0,0,1,1.281-.3c.5,0,.91.147.919.7A4.054,4.054,0,0,0,29.131,9c-.741,0-2.076.147-2.076,1.374,0,.873.71,1.266,1.505,1.266a1.378,1.378,0,0,0,1.274-.726h.016c0,.209.023.417.031.633Zm.625,1.621a4.042,4.042,0,0,0,.864.093c1.274,0,1.575-.981,1.969-1.992l1.475-3.744H34.7l-.826,2.625h-.016L32.99,7.522h-1.5l1.629,4.114a.707.707,0,0,1-.7.556,1.67,1.67,0,0,1-.548-.085Z" transform="translate(-1.303 -1.54)" fill="#fff" fill-rule="evenodd"/>
        <path id="_47303032" d="M6.449,10.407c0-.548.271-1,.788-1a.88.88,0,0,1,.887.95.939.939,0,0,1-.887,1.035C6.82,11.387,6.449,11.033,6.449,10.407ZM9.468,8.431H8.209v.726H8.195a1.573,1.573,0,0,0-1.367-.819c-1.25,0-1.814.9-1.814,2.093A1.807,1.807,0,0,0,6.8,12.453a1.567,1.567,0,0,0,1.352-.687h.016v.217c0,.787-.432,1.165-1.235,1.165a2.765,2.765,0,0,1-1.359-.332l-.069,1.1a4.67,4.67,0,0,0,1.537.255c1.621,0,2.424-.533,2.424-2.185Zm2.349-1.675h-1.39V7.775h1.39Zm-1.389,5.7h1.389V8.431H10.427Zm5.259-4.069a3,3,0,0,0-.471-.047,1.241,1.241,0,0,0-1.189.834h-.016V8.431H12.745v4.022h1.389v-1.7c0-.788.363-1.259,1.012-1.259a1.622,1.622,0,0,1,.471.046Zm2.393,3.189c-.641,0-.9-.533-.9-1.127s.262-1.135.9-1.135.9.533.9,1.135S18.72,11.573,18.079,11.573Zm0,.972a2.116,2.116,0,1,0,0-4.208,2.116,2.116,0,1,0,0,4.208Z" transform="translate(-1.871 -2.449)" fill="#ff0007" fill-rule="evenodd"/>
      </g>
    </g>
  </g>
</svg>
