<svg id="girocard_icon_payment_32px" xmlns="http://www.w3.org/2000/svg" width="48" height="32" viewBox="0 0 48 32">
  <g id="Group_20882" data-name="Group 20882">
    <g id="Path_16392" data-name="Path 16392" fill="#fff">
      <path d="M 44 31.5 L 4 31.5 C 2.070090055465698 31.5 0.5 29.92991065979004 0.5 28 L 0.5 4 C 0.5 2.070090055465698 2.070090055465698 0.5 4 0.5 L 44 0.5 C 45.92990875244141 0.5 47.5 2.070090055465698 47.5 4 L 47.5 28 C 47.5 29.92991065979004 45.92990875244141 31.5 44 31.5 Z" stroke="none"/>
      <path d="M 4 1 C 2.345790863037109 1 1 2.345790863037109 1 4 L 1 28 C 1 29.65420913696289 2.345790863037109 31 4 31 L 44 31 C 45.65420913696289 31 47 29.65420913696289 47 28 L 47 4 C 47 2.345790863037109 45.65420913696289 1 44 1 L 4 1 M 4 0 L 44 0 C 46.20914077758789 0 48 1.790859222412109 48 4 L 48 28 C 48 30.20914077758789 46.20914077758789 32 44 32 L 4 32 C 1.790859222412109 32 0 30.20914077758789 0 28 L 0 4 C 0 1.790859222412109 1.790859222412109 0 4 0 Z" stroke="none" fill="#dae0e7"/>
    </g>
    <g id="Group_17123" data-name="Group 17123" transform="translate(16 5)">
      <g id="text2396" transform="translate(1.573)">
        <path id="Path_16277" data-name="Path 16277" d="M100.368,28.425v1.6a1.869,1.869,0,0,1-.162.844q-.163.319-.781.319-.1,0-.188-.008t-.18-.024q-.087-.016-.178-.039t-.19-.059l.036-.343q.119.051.226.089a1.472,1.472,0,0,0,.21.057q.063.012.127.018t.131.006a.713.713,0,0,0,.339-.075.446.446,0,0,0,.2-.217.524.524,0,0,0,.052-.164q.012-.085.016-.176V30.1a.412.412,0,0,1,0-.059.679.679,0,0,1-.271.237.856.856,0,0,1-.375.079.788.788,0,0,1-.618-.262,1,1,0,0,1-.234-.692,1.088,1.088,0,0,1,.236-.726.759.759,0,0,1,.608-.28.813.813,0,0,1,.4.1.566.566,0,0,1,.254.268v-.016a.034.034,0,0,1,0-.016v-.016l0-.051v-.241Zm-.908.276a.476.476,0,0,0-.394.2.8.8,0,0,0-.153.5.733.733,0,0,0,.149.473.472.472,0,0,0,.386.185.508.508,0,0,0,.408-.189.73.73,0,0,0,.158-.485.741.741,0,0,0-.161-.487.492.492,0,0,0-.394-.2Zm1.8-.272v1.928H100.9V28.429Zm.008-.856v.394h-.392v-.394Zm.4.856H102l.016.343a.654.654,0,0,1,.23-.274.584.584,0,0,1,.325-.093h.042a.194.194,0,0,1,.038,0,.252.252,0,0,1,.052.006l.063.014v.327l-.053-.018-.046-.01-.034,0-.038,0a.435.435,0,0,0-.385.185.91.91,0,0,0-.155.406q0,.036-.006.073t0,.073v.9h-.356V29.182q0-.095,0-.189t-.006-.189q0-.091-.008-.185t-.008-.189Zm3.144.97a.985.985,0,0,1-.279.724.969.969,0,0,1-.719.282.951.951,0,0,1-.707-.284.986.986,0,0,1-.279-.722,1.01,1.01,0,0,1,.279-.734,1.028,1.028,0,0,1,1.425,0,1.026,1.026,0,0,1,.281.735Zm-.381.008a.845.845,0,0,0-.172-.536.536.536,0,0,0-.438-.209.551.551,0,0,0-.44.207.886.886,0,0,0,0,1.053.578.578,0,0,0,.88,0,.767.767,0,0,0,.172-.515Zm1.953-.923-.024.316a.569.569,0,0,0-.165-.067.837.837,0,0,0-.188-.02.629.629,0,0,0-.472.187.659.659,0,0,0-.182.479.714.714,0,0,0,.178.5.607.607,0,0,0,.468.193.7.7,0,0,0,.214-.032.5.5,0,0,0,.091-.035q.048-.024.1-.055l.028.327a.9.9,0,0,1-.22.073,1.362,1.362,0,0,1-.256.022,1,1,0,0,1-.708-1.692.935.935,0,0,1,.7-.28h.038a.193.193,0,0,1,.038,0,1.124,1.124,0,0,1,.188.024,1.2,1.2,0,0,1,.176.051Zm.438.091q.048-.028.093-.049l.093-.041a1.234,1.234,0,0,1,.464-.087.922.922,0,0,1,.454.1.566.566,0,0,1,.26.292.915.915,0,0,1,.046.211,3.062,3.062,0,0,1,.014.325v.538q0,.081,0,.164t0,.164q0,.081.012.164h-.329q0-.032,0-.051a.388.388,0,0,1,0-.039v-.122q0-.028,0-.055t0-.063a.712.712,0,0,1-.268.27.794.794,0,0,1-.382.085.733.733,0,0,1-.49-.156.557.557,0,0,1,.079-.887,1.43,1.43,0,0,1,.751-.164h.04l.1,0,.129.006a.51.51,0,0,0-.121-.363.491.491,0,0,0-.363-.118.99.99,0,0,0-.17.014.8.8,0,0,0-.159.045.779.779,0,0,0-.119.051,1.283,1.283,0,0,0-.123.075l-.02-.312Zm1.082.872-.051-.006-.044,0a.277.277,0,0,0-.046,0h-.053a1.237,1.237,0,0,0-.537.091.293.293,0,0,0-.18.276.265.265,0,0,0,.1.217.418.418,0,0,0,.27.083.449.449,0,0,0,.426-.2.9.9,0,0,0,.113-.459Zm.769-1.018H109l.016.343a.654.654,0,0,1,.23-.274.583.583,0,0,1,.325-.093h.042a.194.194,0,0,1,.038,0,.253.253,0,0,1,.052.006l.063.014v.327l-.053-.018-.046-.01-.034,0-.038,0a.435.435,0,0,0-.384.185.91.91,0,0,0-.155.406q0,.036-.006.073t0,.073v.9h-.356V29.182q0-.095,0-.189t-.006-.189q0-.091-.008-.185t-.008-.189Zm2.925-.911v1.94q0,.225.008.45t.02.45h-.349v-.323a.735.735,0,0,1-.279.262.841.841,0,0,1-.39.085.778.778,0,0,1-.618-.264,1.049,1.049,0,0,1-.23-.714,1.093,1.093,0,0,1,.234-.728.764.764,0,0,1,.614-.278.785.785,0,0,1,.369.085.74.74,0,0,1,.274.251q0-.032,0-.065t0-.069q0-.032-.006-.065t0-.065v-.95Zm-.9,1.183a.489.489,0,0,0-.4.2.779.779,0,0,0-.156.5.769.769,0,0,0,.151.491.476.476,0,0,0,.392.191.5.5,0,0,0,.4-.2.754.754,0,0,0,.158-.491.77.77,0,0,0-.158-.5.484.484,0,0,0-.392-.2Z" transform="translate(-98.533 -27.518)" fill="#0f255e"/>
      </g>
      <g id="rect2404" transform="translate(2.454 10.631)">
        <path id="Path_16278" data-name="Path 16278" d="M126.909,376.27h1.955a.475.475,0,0,1,.482.521l-.161,2.142a.666.666,0,0,1-.63.627h-2.187a.492.492,0,0,1-.468-.627l.392-2.142a.651.651,0,0,1,.617-.521h0m7.1,0h1.955a.649.649,0,0,1,.616.521l.386,2.142a.494.494,0,0,1-.47.627h-2.187a.663.663,0,0,1-.629-.627l-.155-2.142a.476.476,0,0,1,.484-.521h0m-3.552,0a.553.553,0,0,0-.549.52l-.118,2.143a.57.57,0,0,0,.547.631h2.188a.572.572,0,0,0,.549-.631l-.113-2.143a.551.551,0,0,0-.547-.52h-1.956m.975.43a.556.556,0,0,1,.52.26,1.5,1.5,0,0,1,.2.581c.005.049.013.1.016.152s0,.1,0,.15,0,.091,0,.138-.006.1-.009.143a1.537,1.537,0,0,1-.179.625.582.582,0,0,1-.558.294.563.563,0,0,1-.54-.285,1.578,1.578,0,0,1-.186-.617c-.005-.055-.007-.113-.008-.17s-.006-.112,0-.164,0-.089.008-.136.007-.1.012-.143a1.467,1.467,0,0,1,.205-.576.557.557,0,0,1,.517-.251h0m0,.247a.331.331,0,0,0-.3.222,1.554,1.554,0,0,0-.118.647c0,.05,0,.11,0,.178s.006.135.014.207a1.179,1.179,0,0,0,.117.385.306.306,0,0,0,.292.178.347.347,0,0,0,.323-.242,1.739,1.739,0,0,0,.1-.7,1.582,1.582,0,0,0-.117-.656.339.339,0,0,0-.312-.222h0m-3.613-6.216a.473.473,0,0,0-.477.332l-.246,1.343c-.039.212.132.385.385.385h1.711a.464.464,0,0,0,.484-.385l.1-1.343c.014-.186-.16-.332-.392-.332h-1.566m.8.3h.343l-.1.922h.232l-.017.171h-.233l-.036.325h-.254l.04-.325h-.823l.027-.171.825-.922h0m.123.065,0,.008,0,.008a1.212,1.212,0,0,1-.1.145c-.042.055-.108.138-.2.247l-.2.228c0,.006-.011.01-.016.017l-.016.019c-.006.009-.014.015-.02.022s-.011.018-.017.025l-.061.07c-.021.023-.045.046-.068.068h.569l.068-.559c0-.025.007-.05.012-.075s.011-.05.016-.075a.133.133,0,0,0,.006-.019.128.128,0,0,0,.005-.016c0-.019.009-.039.014-.058s.006-.036.01-.055h0m4.765-.361c-.231,0-.409.147-.4.332l.1,1.343a.466.466,0,0,0,.486.385h1.711c.253,0,.424-.173.386-.385l-.242-1.343a.472.472,0,0,0-.476-.332h-1.566m.944.275.062,0c.021,0,.044,0,.066,0s.07.007.107.013.076.014.115.023l0,.174c-.034-.012-.069-.024-.1-.032a.742.742,0,0,0-.091-.019l-.063-.005-.063,0a.358.358,0,0,0-.314.127.509.509,0,0,0-.093.289.319.319,0,0,0,0,.049c0,.016,0,.033,0,.049a.292.292,0,0,1,.145-.112.579.579,0,0,1,.226-.044.613.613,0,0,1,.386.129.493.493,0,0,1,.194.326.389.389,0,0,1-.106.353.535.535,0,0,1-.394.141.623.623,0,0,1-.473-.187.874.874,0,0,1-.209-.525.746.746,0,0,1,.117-.564.6.6,0,0,1,.489-.189h0m-.035.68a.285.285,0,0,0-.213.08.243.243,0,0,0-.064.207.346.346,0,0,0,.115.229.35.35,0,0,0,.242.093.274.274,0,0,0,.216-.087.26.26,0,0,0,.059-.22.33.33,0,0,0-.118-.216.36.36,0,0,0-.237-.086h0m-3.754-.955a.405.405,0,0,0-.435.332l-.074,1.343a.4.4,0,0,0,.434.385H132.3a.4.4,0,0,0,.435-.385l-.071-1.343a.4.4,0,0,0-.434-.332h-1.566m.3.293h.929l0,.16h-.712l-.01.254c0,.018,0,.036,0,.054s0,.038,0,.054l.024-.008.027,0a.447.447,0,0,1,.064-.008c.022,0,.046,0,.074,0a.718.718,0,0,1,.433.12.4.4,0,0,1-.008.671.85.85,0,0,1-.5.132l-.08,0c-.026,0-.052,0-.076-.006a1.027,1.027,0,0,1-.1-.015c-.035-.007-.072-.016-.111-.026l.011-.195a1.223,1.223,0,0,0,.154.046,1.021,1.021,0,0,0,.134.023c.012,0,.023,0,.035,0h.035a.509.509,0,0,0,.3-.084.251.251,0,0,0,.115-.214.242.242,0,0,0-.12-.21.562.562,0,0,0-.314-.078h-.044l-.044,0a1.072,1.072,0,0,0-.115.017,1.194,1.194,0,0,0-.122.028l.026-.712h0m-3.553,2.17a.546.546,0,0,0-.538.411l-.306,1.673a.4.4,0,0,0,.422.483h1.92a.545.545,0,0,0,.547-.483l.126-1.673a.4.4,0,0,0-.432-.411h-1.739m.227.372h1.19l-.021.2-.912,1.558h-.316l.747-1.229a.267.267,0,0,0,.015-.03.174.174,0,0,1,.018-.027.071.071,0,0,1,.009-.013.072.072,0,0,0,.009-.013c.026-.043.054-.085.082-.126s.055-.082.084-.122h-.081c-.013,0-.024,0-.037,0h-.818l.03-.2h0m6.093-.372a.4.4,0,0,0-.436.411l.121,1.673a.547.547,0,0,0,.55.483h1.92a.4.4,0,0,0,.424-.483l-.3-1.673a.544.544,0,0,0-.537-.41h-1.739m.889.339a.665.665,0,0,1,.505.2,1.108,1.108,0,0,1,.257.609,1.084,1.084,0,0,1-.1.751.632.632,0,0,1-.574.268c-.024,0-.049,0-.071,0l-.063,0c-.038,0-.08-.01-.123-.018s-.093-.022-.148-.037l.01-.237c.035.015.071.029.1.04a.731.731,0,0,0,.1.026c.028.006.055.008.083.011a.852.852,0,0,0,.086,0,.373.373,0,0,0,.356-.17.775.775,0,0,0,.1-.369c0-.023,0-.044,0-.066s0-.046,0-.069a.432.432,0,0,1-.17.143.552.552,0,0,1-.24.049.636.636,0,0,1-.439-.161.612.612,0,0,1-.2-.41.477.477,0,0,1,.127-.4.543.543,0,0,1,.409-.152h0m.039.195a.292.292,0,0,0-.234.1.323.323,0,0,0-.067.256.416.416,0,0,0,.131.265.375.375,0,0,0,.265.1.286.286,0,0,0,.231-.1.307.307,0,0,0,.063-.251.435.435,0,0,0-.133-.266.358.358,0,0,0-.256-.1h0m-4.088-.534a.466.466,0,0,0-.485.41L130,375.277a.465.465,0,0,0,.484.483h1.92a.467.467,0,0,0,.485-.483L132.8,373.6a.465.465,0,0,0-.484-.41h-1.739m.86.339c.022,0,.042,0,.065,0s.047.006.069.01a.805.805,0,0,1,.315.12.311.311,0,0,1,.148.269.333.333,0,0,1-.1.251.708.708,0,0,1-.249.16.718.718,0,0,1,.3.176.467.467,0,0,1-.064.7.8.8,0,0,1-.458.136c-.022,0-.046,0-.07,0l-.066,0a.89.89,0,0,1-.4-.155.389.389,0,0,1-.169-.35.425.425,0,0,1,.133-.31.767.767,0,0,1,.3-.176.459.459,0,0,1-.267-.15.377.377,0,0,1-.1-.269.326.326,0,0,1,.161-.286.823.823,0,0,1,.337-.116l.055,0c.017,0,.034,0,.051,0h0m-.033.182-.033,0a.418.418,0,0,0-.18.075.18.18,0,0,0-.083.152.2.2,0,0,0,.076.157.776.776,0,0,0,.174.108c.025.012.05.024.075.034l.067.027.019-.01.019-.01a.751.751,0,0,0,.152-.132.248.248,0,0,0,.069-.174.182.182,0,0,0-.086-.159.4.4,0,0,0-.191-.069l-.026,0H131.4m-.006.746c-.008,0-.018.01-.026.014a.1.1,0,0,0-.023.01.889.889,0,0,0-.19.136.266.266,0,0,0-.09.2.27.27,0,0,0,.124.237.466.466,0,0,0,.274.087h.008a.462.462,0,0,0,.251-.08.232.232,0,0,0,.109-.208.27.27,0,0,0-.105-.223.956.956,0,0,0-.228-.133l-.053-.021-.049-.017h0m-3.244-5.749a.421.421,0,0,0-.429.276l-.2,1.1c-.032.173.125.313.353.313h1.543a.406.406,0,0,0,.434-.313l.083-1.1c.012-.153-.148-.276-.358-.276h-1.424m.664.246h.2l-.14,1.163h-.229l.094-.722.009-.067c0-.022.007-.046.012-.069l.009-.066.009-.066a.547.547,0,0,1-.076.053l-.085.051-.055.029-.049.029-.108-.108.408-.226h0m4.51-.246c-.21,0-.373.123-.362.276l.08,1.1a.408.408,0,0,0,.436.313h1.543c.228,0,.385-.14.354-.313l-.2-1.1a.42.42,0,0,0-.429-.276h-1.424m.683.231h.021a.992.992,0,0,1,.348.069.279.279,0,0,1,.192.227.179.179,0,0,1-.077.176.457.457,0,0,1-.259.086.556.556,0,0,1,.3.089.3.3,0,0,1,.139.21.233.233,0,0,1-.123.245.784.784,0,0,1-.417.093c-.029,0-.058,0-.088,0l-.092-.007c-.041,0-.08-.01-.121-.017s-.081-.013-.118-.022l-.008-.164c.061.019.119.036.17.047a.951.951,0,0,0,.152.019l.038,0,.038,0a.449.449,0,0,0,.248-.062.147.147,0,0,0,.079-.15.183.183,0,0,0-.119-.15.78.78,0,0,0-.228-.057l-.074,0-.068,0h-.043l-.03,0-.016-.143c.03,0,.064,0,.1,0s.073,0,.112-.007a.733.733,0,0,0,.209-.052.113.113,0,0,0,.076-.131.161.161,0,0,0-.1-.121.508.508,0,0,0-.231-.048l-.054,0-.05,0a.874.874,0,0,0-.115.017c-.038.008-.079.019-.122.033l-.032-.137c.028-.008.059-.016.087-.021s.055-.009.082-.013.064-.008.1-.011.069,0,.1,0h0m-3.27-.231c-.21,0-.386.123-.394.276l-.061,1.1c-.01.173.165.313.393.313h1.543c.228,0,.4-.14.394-.313l-.058-1.1c-.008-.153-.183-.276-.393-.276h-1.424m.666.24a.693.693,0,0,1,.364.084.259.259,0,0,1,.142.221.235.235,0,0,1,0,.024.215.215,0,0,1,0,.022.388.388,0,0,1-.1.2,2.063,2.063,0,0,1-.292.257c-.062.047-.119.087-.171.121s-.1.067-.153.094l-.009.007-.013.007a.511.511,0,0,1,.081-.007h.715l0,.143h-1.027l0-.183.148-.094c.057-.037.114-.077.175-.121.044-.032.089-.066.133-.1a1.416,1.416,0,0,0,.12-.107.83.83,0,0,0,.115-.135.216.216,0,0,0,.041-.122.153.153,0,0,0-.085-.132.413.413,0,0,0-.216-.05.744.744,0,0,0-.171.02,1.145,1.145,0,0,0-.181.061l-.021-.144c.051-.016.1-.029.138-.039a1.084,1.084,0,0,1,.116-.019c.024,0,.049-.005.074-.006l.077,0h0" transform="translate(-125.889 -368.711)" fill="#0f255e"/>
      </g>
      <g id="rect3266" transform="translate(0 9.055)">
        <path id="Path_16279" data-name="Path 16279" d="M63.468,331.532h-16L51,317.587h1.316a.169.169,0,1,1,0,.338H51.267L47.9,331.2H63.036l-3.265-13.271H58.584a.169.169,0,1,1,0-.338h1.453l.032.129Z" transform="translate(-47.468 -317.587)" fill="#0f255e"/>
      </g>
      <g id="rect3583" transform="translate(4.754 4.368)">
        <path id="Path_16280" data-name="Path 16280" d="M201.284,168.293a.7.7,0,0,0-.7.694v5.155h.283v-5.155a.409.409,0,0,1,.406-.411h.8v4.063h-.959l1.493,1.5h2.456l1.493-1.5h-.958v-4.063h.786a.409.409,0,0,1,.415.4s0,.006,0,.009v5.155h.283v-5.155a.7.7,0,0,0-.7-.694Z" transform="translate(-200.586 -168.293)" fill="#25a3c6"/>
      </g>
    </g>
  </g>
</svg>
