<svg id="google_pay_icon_payment_32px" xmlns="http://www.w3.org/2000/svg" width="48" height="32" viewBox="0 0 48 32">
  <g id="Group_20884" data-name="Group 20884" transform="translate(22104 19943)">
    <g id="Group_17650" data-name="Group 17650" transform="translate(-22104 -19943)">
      <g id="Rectangle_11721" data-name="Rectangle 11721" fill="#fff" stroke="#dae0e7" stroke-width="1">
        <rect width="48" height="32" rx="4" stroke="none"/>
        <rect x="0.5" y="0.5" width="47" height="31" rx="3.5" fill="none"/>
      </g>
      <g id="google-pay-primary-logo" transform="translate(9 10)">
        <g id="Group_16874" data-name="Group 16874" transform="translate(13.218 0.693)">
          <path id="Path_16247" data-name="Path 16247" d="M1042.02,59.922v3.516h-1.12V54.753h2.969a2.688,2.688,0,0,1,1.923.752,2.508,2.508,0,0,1,0,3.677,2.678,2.678,0,0,1-1.923.739Zm0-4.1v3.033h1.876a1.512,1.512,0,0,0,1.137-2.543c-.01-.01-.019-.02-.03-.029a1.463,1.463,0,0,0-1.107-.461Zm7.154,1.48a2.78,2.78,0,0,1,1.959.661,2.341,2.341,0,0,1,.718,1.813v3.663h-1.071v-.825h-.048a2.14,2.14,0,0,1-1.85,1.019,2.407,2.407,0,0,1-1.649-.582,1.857,1.857,0,0,1-.663-1.456,1.764,1.764,0,0,1,.7-1.467,2.958,2.958,0,0,1,1.868-.546,3.32,3.32,0,0,1,1.642.363v-.256a1.269,1.269,0,0,0-.462-.987,1.587,1.587,0,0,0-1.081-.406,1.717,1.717,0,0,0-1.485.789l-.985-.619a2.743,2.743,0,0,1,2.406-1.163Zm-1.449,4.318a.891.891,0,0,0,.371.728,1.367,1.367,0,0,0,.87.291,1.791,1.791,0,0,0,1.26-.522,1.628,1.628,0,0,0,.556-1.225,2.293,2.293,0,0,0-1.46-.416,1.9,1.9,0,0,0-1.138.328.981.981,0,0,0-.458.816ZM1058,57.5l-3.737,8.563H1053.1l1.387-3-2.458-5.567h1.216l1.777,4.27h.024l1.728-4.27Z" transform="translate(-1040.9 -54.752)" fill="#5f6368"/>
        </g>
        <path id="Path_16248" data-name="Path 16248" d="M399.008,324.015a5.913,5.913,0,0,0-.086-1.015H394.2v1.922h2.7a2.308,2.308,0,0,1-1,1.516v1.248h1.614a4.869,4.869,0,0,0,1.49-3.671Z" transform="translate(-389.194 -318.911)" fill="#4285f4"/>
        <path id="Path_16249" data-name="Path 16249" d="M46.473,473.735a4.8,4.8,0,0,0,3.318-1.205l-1.614-1.248a3.04,3.04,0,0,1-4.514-1.582H42v1.286A5.006,5.006,0,0,0,46.473,473.735Z" transform="translate(-41.467 -463.754)" fill="#34a853"/>
        <path id="Path_16250" data-name="Path 16250" d="M2.2,220.4a2.981,2.981,0,0,1,0-1.91V217.2H.533a4.975,4.975,0,0,0,0,4.482Z" transform="translate(0 -214.45)" fill="#fbbc04"/>
        <path id="Path_16251" data-name="Path 16251" d="M46.473,1.952a2.724,2.724,0,0,1,1.92.748l1.43-1.424a4.825,4.825,0,0,0-3.35-1.3A5.009,5.009,0,0,0,42,2.726l1.662,1.286A2.993,2.993,0,0,1,46.473,1.952Z" transform="translate(-41.467 0.024)" fill="#ea4335"/>
      </g>
    </g>
  </g>
</svg>
