<svg id="master_card_icon_payment_32px" xmlns="http://www.w3.org/2000/svg" width="48" height="32" viewBox="0 0 48 32">
  <g id="Group_20885" data-name="Group 20885" transform="translate(22104 19899)">
    <g id="Group_17643" data-name="Group 17643" transform="translate(-22104 -19899)">
      <g id="Rectangle_11721" data-name="Rectangle 11721" fill="#fff" stroke="#dae0e7" stroke-width="1">
        <rect width="48" height="32" rx="4" stroke="none"/>
        <rect x="0.5" y="0.5" width="47" height="31" rx="3.5" fill="none"/>
      </g>
      <g id="Group_17118" data-name="Group 17118" transform="translate(11 8)">
        <g id="_Group_" data-name=" Group ">
          <rect id="Rectangle_474" data-name="Rectangle 474" width="6.999" height="12.578" transform="translate(9.442 1.711)" fill="#ff5f00"/>
          <path id="_Path_" data-name=" Path " d="M1937.477,1997.771a7.987,7.987,0,0,1,3.054-6.291,8,8,0,1,0,0,12.579A7.989,7.989,0,0,1,1937.477,1997.771Z" transform="translate(-1927.591 -1989.77)" fill="#dc001b"/>
          <path id="Path_245" data-name="Path 245" d="M1949.066,1997.772a8,8,0,0,1-12.943,6.288,8,8,0,0,0,0-12.579,8,8,0,0,1,12.943,6.288Z" transform="translate(-1923.182 -1989.77)" fill="#e88f1b"/>
          <path id="Path_246" data-name="Path 246" d="M1944.207,1998.419v-.258h.105v-.053h-.265v.053h.113v.258Zm.513,0v-.311h-.078l-.094.221-.094-.221h-.07v.311h.057v-.234l.086.2h.059l.088-.2v.235Z" transform="translate(-1919.089 -1985.463)" fill="#e88f1b"/>
        </g>
      </g>
    </g>
  </g>
</svg>
