<svg id="paydirekt_icon_payment_32px" xmlns="http://www.w3.org/2000/svg" width="48" height="32" viewBox="0 0 48 32">
  <g id="Group_20872" data-name="Group 20872" transform="translate(22104 19779)">
    <rect id="Rectangle_11966" data-name="Rectangle 11966" width="48" height="32" rx="4" transform="translate(-22104 -19779)" fill="#00933a"/>
    <g id="Group_20344" data-name="Group 20344" transform="translate(-22089.996 -19770)">
      <path id="Path_16258" data-name="Path 16258" d="M68.3,378.495a2.04,2.04,0,1,1,2.564,1.323A2.037,2.037,0,0,1,68.3,378.495Zm-4.377.109a1.47,1.47,0,1,1,1.849.951A1.464,1.464,0,0,1,63.921,378.6Zm-3.389-1.794a1.178,1.178,0,1,1,1.477.77A1.171,1.171,0,0,1,60.532,376.809Z" transform="translate(-57.35 -363.924)" fill="#fff"/>
      <path id="Path_16260" data-name="Path 16260" d="M45.972,250.254,44.341,254.4l-1.414-4.15H39.1v.888a3.438,3.438,0,0,0-.806-.734,2.786,2.786,0,0,0-1.468-.4,3.4,3.4,0,0,0-3.009,1.767,3.867,3.867,0,0,0-.263.6,3.334,3.334,0,0,0-1.386-1.776,3.459,3.459,0,0,0-1.939-.58,3.125,3.125,0,0,0-1.559.381,2.8,2.8,0,0,0-.752.725v-.861H26V260h1.921v-3.525a2.956,2.956,0,0,0,2.338,1,3.447,3.447,0,0,0,2.1-.643,3.141,3.141,0,0,0,1.16-1.577,3.455,3.455,0,0,0,.58,1.042,3.186,3.186,0,0,0,2.574,1.187,2.946,2.946,0,0,0,2.419-1.205v.961h1.921v-6.57l2.3,6.407-.671,1.93a1.927,1.927,0,0,1,1.84.607L48,250.263l-2.03-.009Zm-14.644,4.884a1.755,1.755,0,0,1-1.54.788,1.72,1.72,0,0,1-1.332-.562,2.184,2.184,0,0,1-.517-1.541,2.512,2.512,0,0,1,.372-1.386,1.759,1.759,0,0,1,1.541-.816,1.705,1.705,0,0,1,1.332.6,2.319,2.319,0,0,1,.526,1.595,2.168,2.168,0,0,1-.381,1.323Zm7.322.063a1.745,1.745,0,0,1-1.441.725,1.7,1.7,0,0,1-1.241-.517,2.172,2.172,0,0,1-.616-1.6,2.381,2.381,0,0,1,.453-1.45,1.627,1.627,0,0,1,1.414-.7,1.741,1.741,0,0,1,1.468.689,2.207,2.207,0,0,1,.444,1.4,2.238,2.238,0,0,1-.48,1.45Zm4.676,7.385a1.48,1.48,0,1,0-1.867-.961A1.475,1.475,0,0,0,43.326,262.587Z" transform="translate(-26 -250)" fill="#fff"/>
    </g>
  </g>
</svg>
