<svg id="paypal_icon_payment_32px" xmlns="http://www.w3.org/2000/svg" width="48" height="32" viewBox="0 0 48 32">
  <g id="Group_20742" data-name="Group 20742" transform="translate(22104 20303)">
    <g id="Group_20874" data-name="Group 20874" transform="translate(-22104 -20303)">
      <g id="Group_20367" data-name="Group 20367">
        <g id="Group_20875" data-name="Group 20875">
          <g id="Rectangle_11721" data-name="Rectangle 11721" fill="#fff" stroke="#dae0e7" stroke-width="1">
            <rect width="48" height="32" rx="4" stroke="none"/>
            <rect x="0.5" y="0.5" width="47" height="31" rx="3.5" fill="none"/>
          </g>
          <g id="Group_17120" data-name="Group 17120" transform="translate(16 7)">
            <g id="Group_16823" data-name="Group 16823">
              <path id="Path_608" data-name="Path 608" d="M-7801.293-616l.326-2.092-.728-.016h-3.48l2.418-15.434a.208.208,0,0,1,.068-.122.2.2,0,0,1,.128-.047h5.869c1.948,0,3.292.408,3.993,1.212a2.768,2.768,0,0,1,.641,1.207,4.374,4.374,0,0,1,0,1.665l-.007.048v.425l.328.188a2.313,2.313,0,0,1,.667.511,2.4,2.4,0,0,1,.541,1.221,5.239,5.239,0,0,1-.078,1.771,6.259,6.259,0,0,1-.721,2,4.1,4.1,0,0,1-1.142,1.259,4.63,4.63,0,0,1-1.536.7,7.655,7.655,0,0,1-1.924.224h-.456a1.379,1.379,0,0,0-.892.33,1.388,1.388,0,0,0-.466.836l-.034.188-.578,3.686-.027.136a.115.115,0,0,1-.035.079.1.1,0,0,1-.062.021Z" transform="translate(7805.838 634.357)" fill="#253b80"/>
              <path id="Path_609" data-name="Path 609" d="M-7791.471-629.621c-.018.112-.037.228-.061.347-.773,4-3.421,5.38-6.8,5.38h-1.722a.837.837,0,0,0-.826.713l-.882,5.626-.249,1.595a.441.441,0,0,0,.435.512h3.054a.736.736,0,0,0,.726-.623l.03-.156.574-3.672.037-.2a.736.736,0,0,1,.726-.625h.457c2.958,0,5.274-1.209,5.951-4.708a4.029,4.029,0,0,0-.612-3.539A2.9,2.9,0,0,0-7791.471-629.621Z" transform="translate(7805.889 634.448)" fill="#178cc8"/>
              <path id="Path_610" data-name="Path 610" d="M-7792.3-629.933c-.117-.035-.241-.065-.366-.094s-.254-.052-.386-.074a9.512,9.512,0,0,0-1.519-.111h-4.6a.718.718,0,0,0-.317.073.741.741,0,0,0-.409.552l-.977,6.237-.028.182a.838.838,0,0,1,.827-.713h1.72c3.382,0,6.028-1.382,6.8-5.38.023-.119.042-.234.06-.347a4.055,4.055,0,0,0-.637-.27C-7792.18-629.9-7792.24-629.915-7792.3-629.933Z" transform="translate(7805.906 634.435)" fill="#222d65"/>
              <path id="Path_611" data-name="Path 611" d="M-7799.815-629.5a.738.738,0,0,1,.409-.552.732.732,0,0,1,.317-.073h4.6a9.642,9.642,0,0,1,1.519.111c.131.022.261.046.386.075s.248.059.365.094l.176.054a4.206,4.206,0,0,1,.636.27,3.8,3.8,0,0,0-.8-3.395c-.876-1-2.456-1.432-4.477-1.432h-5.868a.839.839,0,0,0-.828.714l-2.444,15.593a.506.506,0,0,0,.5.587h3.622l.911-5.808Z" transform="translate(7805.829 634.343)" fill="#253b80"/>
            </g>
          </g>
        </g>
      </g>
    </g>
  </g>
</svg>
