<svg id="sofort_icon_payment_32px" xmlns="http://www.w3.org/2000/svg" width="48" height="32" viewBox="0 0 48 32">
  <g id="Group_20742" data-name="Group 20742" transform="translate(22104 20303)">
    <g id="Group_20874" data-name="Group 20874" transform="translate(-22104 -20303)">
      <g id="Group_20367" data-name="Group 20367">
        <g id="Group_20875" data-name="Group 20875">
          <g id="Group_20876" data-name="Group 20876" transform="translate(22104 19619)">
            <g id="Group_17647" data-name="Group 17647" transform="translate(-22104 -19619)">
              <g id="Group_20877" data-name="Group 20877" transform="translate(22104 19659)">
                <g id="Group_17648" data-name="Group 17648" transform="translate(-22104 -19659)">
                  <g id="Rectangle_11721" data-name="Rectangle 11721" fill="#fff" stroke="#dae0e7" stroke-width="1">
                    <rect width="48" height="32" rx="4" stroke="none"/>
                    <rect x="0.5" y="0.5" width="47" height="31" rx="3.5" fill="none"/>
                  </g>
                  <g id="Group_17122" data-name="Group 17122" transform="translate(4 13)">
                    <path id="Path_16265" data-name="Path 16265" d="M56.239,218.752H52.41a3.749,3.749,0,0,0-1.715.262,2.912,2.912,0,0,0-1.346,1.839,2.085,2.085,0,0,0-.123.589.872.872,0,0,0,.09.439,1.285,1.285,0,0,0,.374.417,1.853,1.853,0,0,0,.568.283l.252.071.388.112a.822.822,0,0,1,.179.074.361.361,0,0,1,.142.141.312.312,0,0,1,.034.136.495.495,0,0,1-.291.449,1.975,1.975,0,0,1-.665.076H46.357l-.623,1.685h4.216a4.666,4.666,0,0,0,1.82-.292,2.763,2.763,0,0,0,1.649-2.041,1.368,1.368,0,0,0-.1-1.076,1.561,1.561,0,0,0-.952-.614l-.225-.064-.331-.094a.445.445,0,0,1-.262-.186.362.362,0,0,1-.039-.3.431.431,0,0,1,.219-.259.9.9,0,0,1,.427-.094H54.6c.017-.024.033-.051.051-.076a5.379,5.379,0,0,1,1.583-1.485" transform="translate(-45.734 -218.651)" fill="#f48120"/>
                    <path id="Path_16266" data-name="Path 16266" d="M56.265,218.669H52.437a3.749,3.749,0,0,0-1.715.262,2.91,2.91,0,0,0-1.346,1.839,2.057,2.057,0,0,0-.124.589.872.872,0,0,0,.09.439,1.275,1.275,0,0,0,.373.418,1.854,1.854,0,0,0,.568.283l.252.071.388.112a.883.883,0,0,1,.179.074.364.364,0,0,1,.142.142.309.309,0,0,1,.034.136.5.5,0,0,1-.291.449,1.975,1.975,0,0,1-.664.076H46.384l-.623,1.685h4.217a4.663,4.663,0,0,0,1.819-.292,2.763,2.763,0,0,0,1.649-2.042,1.366,1.366,0,0,0-.1-1.076,1.557,1.557,0,0,0-.952-.614l-.225-.064-.332-.094a.444.444,0,0,1-.262-.186.363.363,0,0,1-.039-.3.433.433,0,0,1,.219-.259.9.9,0,0,1,.426-.094h2.451c.017-.025.033-.051.051-.076a5.376,5.376,0,0,1,1.583-1.485" transform="translate(-45.759 -218.575)" fill="#f48120"/>
                    <path id="Path_16267" data-name="Path 16267" d="M395,218.8a1.647,1.647,0,0,1,.337.351,1.687,1.687,0,0,1,.277,1.21h1.229l-1.853,5.016h1.851l1.854-5.016h2.379l.577-1.561Z" transform="translate(-363.651 -218.691)" fill="#f48120"/>
                    <path id="Path_16268" data-name="Path 16268" d="M327.369,219.441a2.2,2.2,0,0,0-1.9-.645h-2.248l-2.431,6.575h2.065l.884-2.314c.043.1.564,2.314.564,2.314h2.171a20.25,20.25,0,0,0-.685-2.289,3.529,3.529,0,0,0-.256-.518,3.028,3.028,0,0,0,1.87-1.683,1.5,1.5,0,0,0-.038-1.441m-1.8,1.453a1.189,1.189,0,0,1-1.231.851h-.353l.6-1.59h.341c.623,0,.856.18.645.74" transform="translate(-296.115 -218.691)" fill="#f48120"/>
                    <path id="Path_16269" data-name="Path 16269" d="M142.722,218.4a1.949,1.949,0,0,0-1.7-.71,3.533,3.533,0,0,0-1.5.337,4.657,4.657,0,0,0-1.79,1.539,6.649,6.649,0,0,0-.822,1.566,2.806,2.806,0,0,0,.014,2.6,1.98,1.98,0,0,0,1.74.736h0c1.834,0,3.2-1.184,4.071-3.519a2.919,2.919,0,0,0-.021-2.55m-1.963,2.641c-.572,1.543-.988,1.931-1.613,1.931h0c-.609,0-.822-.38-.253-1.915.426-1.146.977-1.879,1.644-1.879h0c.634,0,.779.362.222,1.863" transform="translate(-128.456 -217.684)" fill="#f48120"/>
                    <path id="Path_16270" data-name="Path 16270" d="M204.844,218.752h-3.9a2.293,2.293,0,0,0-2.286,1.561l-1.853,5.014h2.03l.952-2.578h1.794l.51-1.381H200.3l.288-.8a.429.429,0,0,1,.414-.257h2.116c.017-.025.033-.051.051-.076a5.68,5.68,0,0,1,1.675-1.485" transform="translate(-183.249 -218.651)" fill="#f48120"/>
                    <path id="Path_16271" data-name="Path 16271" d="M266.068,218.4a1.949,1.949,0,0,0-1.7-.71,3.535,3.535,0,0,0-1.5.337,4.657,4.657,0,0,0-1.79,1.539,6.634,6.634,0,0,0-.822,1.566,2.8,2.8,0,0,0,.014,2.6,1.98,1.98,0,0,0,1.74.736h0c1.834,0,3.2-1.184,4.07-3.519a2.917,2.917,0,0,0-.021-2.55m-1.963,2.641c-.572,1.543-.988,1.931-1.612,1.931h0c-.609,0-.822-.38-.252-1.915.425-1.146.976-1.879,1.643-1.879h0c.634,0,.779.362.222,1.863" transform="translate(-240.735 -217.684)" fill="#f48120"/>
                    <path id="Path_16272" data-name="Path 16272" d="M395.025,218.713a1.647,1.647,0,0,1,.337.351,1.689,1.689,0,0,1,.277,1.21h1.229l-1.853,5.016h1.851l1.854-5.016H401.1l.577-1.561Z" transform="translate(-363.677 -218.615)" fill="#f48120"/>
                    <path id="Path_16273" data-name="Path 16273" d="M327.392,219.358a2.2,2.2,0,0,0-1.9-.645h-2.248l-2.431,6.575h2.065l.884-2.314c.043.1.564,2.314.564,2.314H326.5a20.373,20.373,0,0,0-.685-2.289,3.6,3.6,0,0,0-.257-.518,3.028,3.028,0,0,0,1.869-1.682,1.506,1.506,0,0,0-.038-1.441m-1.8,1.453a1.19,1.19,0,0,1-1.231.851h-.353l.6-1.59h.341c.623,0,.856.179.644.74" transform="translate(-296.136 -218.615)" fill="#f48120"/>
                    <path id="Path_16274" data-name="Path 16274" d="M142.747,218.315a1.951,1.951,0,0,0-1.7-.71,3.537,3.537,0,0,0-1.5.337,4.657,4.657,0,0,0-1.79,1.539,6.648,6.648,0,0,0-.821,1.565,2.806,2.806,0,0,0,.014,2.6,1.982,1.982,0,0,0,1.74.736h0c1.834,0,3.2-1.184,4.071-3.519a2.918,2.918,0,0,0-.021-2.549m-1.963,2.641c-.572,1.543-.988,1.93-1.613,1.93h0c-.609,0-.822-.38-.252-1.915.425-1.146.976-1.879,1.643-1.879h0c.634,0,.779.363.222,1.863" transform="translate(-128.478 -217.605)" fill="#f48120"/>
                    <path id="Path_16275" data-name="Path 16275" d="M204.868,218.669h-3.9a2.294,2.294,0,0,0-2.286,1.561l-1.853,5.014h2.03l.952-2.578H201.6l.51-1.38h-1.788l.288-.8a.429.429,0,0,1,.413-.257h2.116c.017-.024.033-.051.05-.076a5.68,5.68,0,0,1,1.675-1.485" transform="translate(-183.27 -218.575)" fill="#f48120"/>
                    <path id="Path_16276" data-name="Path 16276" d="M266.094,218.315a1.95,1.95,0,0,0-1.7-.71,3.537,3.537,0,0,0-1.5.337,4.655,4.655,0,0,0-1.79,1.539,6.644,6.644,0,0,0-.822,1.565,2.8,2.8,0,0,0,.014,2.6,1.98,1.98,0,0,0,1.74.736h0c1.834,0,3.2-1.184,4.07-3.519a2.914,2.914,0,0,0-.021-2.549m-1.963,2.641c-.572,1.543-.987,1.93-1.612,1.93h0c-.609,0-.822-.38-.253-1.915.425-1.146.977-1.879,1.643-1.879h0c.634,0,.779.363.222,1.863" transform="translate(-240.759 -217.605)" fill="#f48120"/>
                  </g>
                </g>
              </g>
            </g>
          </g>
        </g>
      </g>
    </g>
  </g>
</svg>
