<svg id="visa_icon_payment_32px" xmlns="http://www.w3.org/2000/svg" width="48" height="32" viewBox="0 0 48 32">
  <g id="Group_20742" data-name="Group 20742" transform="translate(22104 20303)">
    <g id="Group_20874" data-name="Group 20874" transform="translate(-22104 -20303)">
      <g id="Group_20367" data-name="Group 20367">
        <g id="Group_20875" data-name="Group 20875">
          <g id="Group_20876" data-name="Group 20876" transform="translate(22104 19619)">
            <g id="Group_17647" data-name="Group 17647" transform="translate(-22104 -19619)">
              <g id="Path_16389" data-name="Path 16389" fill="#fff">
                <path d="M 44 31.5 L 4 31.5 C 2.070090055465698 31.5 0.5 29.92991065979004 0.5 28 L 0.5 4 C 0.5 2.070090055465698 2.070090055465698 0.5 4 0.5 L 44 0.5 C 45.92990875244141 0.5 47.5 2.070090055465698 47.5 4 L 47.5 28 C 47.5 29.92991065979004 45.92990875244141 31.5 44 31.5 Z" stroke="none"/>
                <path d="M 4 1 C 2.345790863037109 1 1 2.345790863037109 1 4 L 1 28 C 1 29.65420913696289 2.345790863037109 31 4 31 L 44 31 C 45.65420913696289 31 47 29.65420913696289 47 28 L 47 4 C 47 2.345790863037109 45.65420913696289 1 44 1 L 4 1 M 4 0 L 44 0 C 46.20914077758789 0 48 1.790859222412109 48 4 L 48 28 C 48 30.20914077758789 46.20914077758789 32 44 32 L 4 32 C 1.790859222412109 32 0 30.20914077758789 0 28 L 0 4 C 0 1.790859222412109 1.790859222412109 0 4 0 Z" stroke="none" fill="#dae0e7"/>
              </g>
              <g id="Group_17121" data-name="Group 17121" transform="translate(4 9.999)">
                <g id="Group_16875" data-name="Group 16875">
                  <path id="Path_16253" data-name="Path 16253" d="M27.7,63.476H24.6l1.938-11.747h3.1ZM21.99,51.729l-2.956,8.08-.35-1.74h0l-1.043-5.283a1.321,1.321,0,0,0-1.471-1.058H11.283l-.057.2a11.7,11.7,0,0,1,3.243,1.343l2.694,10.206h3.231l4.933-11.748H21.99ZM46.379,63.476h2.847L46.744,51.729H44.251a1.423,1.423,0,0,0-1.431.875L38.2,63.476h3.232l.646-1.745h3.942l.363,1.745Zm-3.412-4.155,1.629-4.4.917,4.4Zm-4.529-4.767.443-2.523a9.057,9.057,0,0,0-2.789-.512c-1.539,0-5.193.663-5.193,3.889,0,3.035,4.289,3.073,4.289,4.667s-3.847,1.308-5.116.3l-.461,2.638a8.79,8.79,0,0,0,3.5.663c2.116,0,5.308-1.081,5.308-4.022,0-3.054-4.327-3.339-4.327-4.667s3.02-1.158,4.347-.436Z" transform="translate(-11.226 -51.519)" fill="#2566af"/>
                </g>
                <path id="Path_16254" data-name="Path 16254" d="M18.685,58.527l-1.043-5.283a1.321,1.321,0,0,0-1.471-1.058H11.283l-.057.2a12.089,12.089,0,0,1,4.6,2.279A9.156,9.156,0,0,1,18.685,58.527Z" transform="translate(-11.223 -51.977)" fill="#e6a540"/>
              </g>
            </g>
          </g>
        </g>
      </g>
    </g>
  </g>
</svg>
