<svg xmlns="http://www.w3.org/2000/svg" xmlns:xlink="http://www.w3.org/1999/xlink" width="20" height="20" viewBox="0 0 20 20"><defs><clipPath id="b"><rect width="20" height="20"/></clipPath></defs><g id="a" clip-path="url(#b)"><rect width="20" height="20" fill="none"/><rect width="20" height="20" fill="none"/><g transform="translate(1)"><rect width="20" height="20" fill="none"/><g transform="translate(0.667 1.667)"><circle cx="2.432" cy="2.432" r="2.432" transform="translate(5.904 5.9)" fill="#fff"/><path d="M-393.054-271.927a4.935,4.935,0,0,0-1.346-3.491,4.966,4.966,0,0,0-3.491-1.346c-1.376-.078-5.5-.078-6.875,0a4.959,4.959,0,0,0-3.491,1.342,4.949,4.949,0,0,0-1.346,3.491c-.078,1.375-.078,5.5,0,6.875a4.937,4.937,0,0,0,1.346,3.491,4.976,4.976,0,0,0,3.491,1.346c1.375.078,5.5.078,6.875,0a4.937,4.937,0,0,0,3.491-1.346,4.966,4.966,0,0,0,1.346-3.491C-392.976-266.432-392.976-270.551-393.054-271.927Zm-8.273,7.708a4.266,4.266,0,0,1-4.272-4.273,4.265,4.265,0,0,1,4.272-4.272,4.266,4.266,0,0,1,4.273,4.272A4.266,4.266,0,0,1-401.328-264.219Zm4.447-7.723a.994.994,0,0,1-1-1,1,1,0,0,1,1-1,1,1,0,0,1,1,1A.994.994,0,0,1-396.881-271.942Z" transform="translate(409.662 276.823)" fill="#fff"/></g></g></g></svg>