<svg xmlns="http://www.w3.org/2000/svg" xmlns:xlink="http://www.w3.org/1999/xlink" width="20" height="20" viewBox="0 0 20 20"><defs><clipPath id="b"><rect width="20" height="20"/></clipPath></defs><g id="a" clip-path="url(#b)"><rect width="20" height="20" fill="none"/><path d="M2611.851-231.88a.78.78,0,0,1-.658.466h-2.421a.354.354,0,0,1-.316-.536l2.566-4.511q.011,0,0-.011l-1.633-2.812a.331.331,0,0,1,.316-.525h2.422a.771.771,0,0,1,.67.454l1.663,2.882Q2614.357-236.289,2611.851-231.88Zm5.43-1.279v.01l3.408,6.2a.334.334,0,0,1-.316.525h-2.425a.738.738,0,0,1-.669-.454l-3.437-6.267,5.385-9.491a.751.751,0,0,1,.651-.454h2.443a.338.338,0,0,1,.316.525Z" transform="translate(-2605.908 244.761)" fill="#fff"/><rect width="20" height="20" fill="none"/></g></svg>