<svg height="105" viewBox="0 0 144 105" width="144" xmlns="http://www.w3.org/2000/svg"><path d="m0-.001h144v105h-144z" fill="none" opacity=".3"/><g fill="#fcc000" stroke="#fcc02c"><path d="m165.378 394.678a.862.862 0 0 1 -.277-.045.9.9 0 0 1 -.7-1.024l1.137-7.454-5.316-5.376a.866.866 0 0 1 -.251-.472.921.921 0 0 1 .753-1.047l7.374-1.215 3.552-6.771a.8.8 0 0 1 .385-.4.705.705 0 0 1 .481-.027.9.9 0 0 1 .726.5l3.388 6.7 7.452 1.215a.924.924 0 0 1 .5.251l.017.013a.892.892 0 0 1 -.017 1.258l-5.271 5.329 1.138 7.455a1.038 1.038 0 0 1 -.006.487l-.038.092a.993.993 0 0 1 -.507.419.9.9 0 0 1 -.692-.008l-6.757-3.4-6.748 3.454a.881.881 0 0 1 -.321.064zm6.935-23.2c-.021 0-.049.03-.064.068l-3.718 7.091-7.7 1.27a.254.254 0 0 0 -.209.289.209.209 0 0 0 .062.111l5.556 5.616-1.188 7.78a.258.258 0 0 0 .211.291l.115.023a.238.238 0 0 0 .064-.009l7-3.588 7.044 3.543a.245.245 0 0 0 .158-.008.392.392 0 0 0 .166-.109.434.434 0 0 0 -.009-.149l-1.194-7.812 5.509-5.571a.234.234 0 0 0 .021-.317l-.017-.019a.279.279 0 0 0 -.142-.07l-7.785-1.27-3.543-7.006a.231.231 0 0 0 -.208-.138l-.13-.345v.33zm-6.7 21.855 1.138-7.446a.333.333 0 0 0 -.085-.24l-5.282-5.346 7.416-1.201a.292.292 0 0 0 .213-.113l3.43-6.72 3.46 6.769a.276.276 0 0 0 .179.13l7.431 1.2-5.307 5.3a.336.336 0 0 0 -.062.236l1.136 7.431-6.725-3.394a.248.248 0 0 0 -.224 0l-6.723 3.392zm6.835-4.079a.933.933 0 0 1 .409.1l5.584 2.82-.945-6.186a1.006 1.006 0 0 1 .234-.764l4.412-4.414-6.178-1a.948.948 0 0 1 -.638-.468l-2.877-5.629-2.873 5.622a.97.97 0 0 1 -.683.419l-6.144 1 4.4 4.456a1 1 0 0 1 .253.768l-.947 6.2 5.584-2.818a.908.908 0 0 1 .407-.1z" transform="translate(-158.494 -291.35)"/><path d="m180.744 394.678a.848.848 0 0 1 -.274-.045.9.9 0 0 1 -.7-1.026l1.138-7.452-5.318-5.376a.877.877 0 0 1 -.249-.472.918.918 0 0 1 .751-1.047l7.376-1.215 3.552-6.771a.8.8 0 0 1 .385-.4.705.705 0 0 1 .481-.027.837.837 0 0 1 .726.5l3.388 6.7 7.453 1.215a.931.931 0 0 1 .5.251.9.9 0 0 1 0 1.272l-5.273 5.331 1.137 7.455a1.037 1.037 0 0 1 -.006.487l-.038.092a1 1 0 0 1 -.509.419.891.891 0 0 1 -.689-.008l-6.761-3.4-6.748 3.454a.881.881 0 0 1 -.321.064zm6.935-23.2c-.019 0-.049.032-.064.072l-3.718 7.087-7.7 1.27a.255.255 0 0 0 -.209.289.239.239 0 0 0 .064.113l5.554 5.614-1.187 7.78a.257.257 0 0 0 .211.291l.113.023a.252.252 0 0 0 .066-.009l7-3.588 7.046 3.543a.245.245 0 0 0 .159-.008.374.374 0 0 0 .164-.109.394.394 0 0 0 -.008-.149l-1.194-7.812 5.51-5.571a.239.239 0 0 0 .03-.306l-.053-.059a.383.383 0 0 0 -.117-.041l-7.784-1.27-3.545-7.006a.231.231 0 0 0 -.209-.138l-.128-.345v.33zm6.971 21.855-6.725-3.394a.264.264 0 0 0 -.226 0l-6.723 3.394 1.139-7.446a.337.337 0 0 0 -.085-.238l-5.284-5.348 7.425-1.205a.3.3 0 0 0 .211-.111l3.43-6.721 3.462 6.769a.281.281 0 0 0 .179.13l7.433 1.2-5.309 5.3a.353.353 0 0 0 -.064.241l1.138 7.425zm-16.54-12.583 4.4 4.456a.99.99 0 0 1 .255.766l-.947 6.2 5.582-2.818a.921.921 0 0 1 .817 0l5.586 2.82-.947-6.186a1.011 1.011 0 0 1 .236-.764l4.414-4.414-6.18-1a.943.943 0 0 1 -.638-.468l-2.879-5.629-2.873 5.622a.962.962 0 0 1 -.679.419l-6.148 1z" transform="translate(-144.871 -291.35)"/><path d="m211.48 394.678a.851.851 0 0 1 -.275-.045.9.9 0 0 1 -.7-1.026l1.138-7.452-5.316-5.376a.887.887 0 0 1 -.251-.47.919.919 0 0 1 .753-1.049l7.374-1.215 3.554-6.771a.794.794 0 0 1 .385-.4.7.7 0 0 1 .479-.027.852.852 0 0 1 .726.5l3.39 6.7 7.452 1.215a.92.92 0 0 1 .5.253.894.894 0 0 1 0 1.272l-5.271 5.329 1.138 7.455a1 1 0 0 1 -.006.49l-.036.089a1 1 0 0 1 -.509.419.9.9 0 0 1 -.69-.008l-6.759-3.4-6.748 3.454a.881.881 0 0 1 -.321.064zm6.935-23.2c-.021 0-.049.032-.064.07l-3.718 7.089-7.7 1.27a.249.249 0 0 0 -.209.287.207.207 0 0 0 .062.113l5.556 5.616-1.188 7.78a.257.257 0 0 0 .211.291l.115.023a.238.238 0 0 0 .064-.009l7-3.588 7.046 3.543a.239.239 0 0 0 .157-.008.393.393 0 0 0 .166-.109.347.347 0 0 0 -.009-.147l-1.194-7.814 5.508-5.571a.236.236 0 0 0 .015-.326l-.013-.009a.259.259 0 0 0 -.14-.07l-7.782-1.27-3.545-7.006a.233.233 0 0 0 -.209-.138l-.128-.345v.33zm-6.706 21.855 1.141-7.446a.345.345 0 0 0 -.087-.242l-5.284-5.344 7.427-1.205a.282.282 0 0 0 .207-.109l3.433-6.723 3.46 6.769a.281.281 0 0 0 .179.13l7.433 1.2-5.307 5.3a.331.331 0 0 0 -.064.236l1.138 7.431-6.727-3.394a.254.254 0 0 0 -.225 0l-6.725 3.392zm6.838-4.079a.91.91 0 0 1 .409.1l5.584 2.818-.947-6.186a1 1 0 0 1 .238-.766l4.411-4.413-6.18-1a.953.953 0 0 1 -.638-.468l-2.877-5.629-2.875 5.622a.955.955 0 0 1 -.679.419l-6.146 1 4.4 4.456a1 1 0 0 1 .253.768l-.949 6.2 5.584-2.818a.922.922 0 0 1 .409-.1z" transform="translate(-88.416 -291.35)"/><path d="m211.48 394.678a.851.851 0 0 1 -.275-.045.9.9 0 0 1 -.7-1.026l1.138-7.452-5.316-5.376a.887.887 0 0 1 -.251-.47.919.919 0 0 1 .753-1.049l7.374-1.215 3.554-6.771a.794.794 0 0 1 .385-.4.7.7 0 0 1 .479-.027.852.852 0 0 1 .726.5l3.39 6.7 7.452 1.215a.92.92 0 0 1 .5.253.894.894 0 0 1 0 1.272l-5.271 5.329 1.138 7.455a1 1 0 0 1 -.006.49l-.036.089a1 1 0 0 1 -.509.419.9.9 0 0 1 -.69-.008l-6.759-3.4-6.748 3.454a.881.881 0 0 1 -.321.064zm6.935-23.2c-.021 0-.049.032-.064.07l-3.718 7.089-7.7 1.27a.249.249 0 0 0 -.209.287.207.207 0 0 0 .062.113l5.556 5.616-1.188 7.78a.257.257 0 0 0 .211.291l.115.023a.238.238 0 0 0 .064-.009l7-3.588 7.046 3.543a.239.239 0 0 0 .157-.008.393.393 0 0 0 .166-.109.347.347 0 0 0 -.009-.147l-1.194-7.814 5.508-5.571a.236.236 0 0 0 .015-.326l-.013-.009a.259.259 0 0 0 -.14-.07l-7.782-1.27-3.545-7.006a.233.233 0 0 0 -.209-.138l-.128-.345v.33zm-6.706 21.855 1.141-7.446a.345.345 0 0 0 -.087-.242l-5.284-5.344 7.427-1.205a.282.282 0 0 0 .207-.109l3.433-6.723 3.46 6.769a.281.281 0 0 0 .179.13l7.433 1.2-5.307 5.3a.331.331 0 0 0 -.064.236l1.138 7.431-6.727-3.394a.254.254 0 0 0 -.225 0l-6.725 3.392zm6.838-4.079a.91.91 0 0 1 .409.1l5.584 2.818-.947-6.186a1 1 0 0 1 .238-.766l4.411-4.413-6.18-1a.953.953 0 0 1 -.638-.468l-2.877-5.629-2.875 5.622a.955.955 0 0 1 -.679.419l-6.146 1 4.4 4.456a1 1 0 0 1 .253.768l-.949 6.2 5.584-2.818a.922.922 0 0 1 .409-.1z" transform="translate(-117.627 -291.35)"/><path d="m211.48 394.678a.851.851 0 0 1 -.275-.045.9.9 0 0 1 -.7-1.026l1.138-7.452-5.316-5.376a.887.887 0 0 1 -.251-.47.919.919 0 0 1 .753-1.049l7.374-1.215 3.554-6.771a.794.794 0 0 1 .385-.4.7.7 0 0 1 .479-.027.852.852 0 0 1 .726.5l3.39 6.7 7.452 1.215a.92.92 0 0 1 .5.253.894.894 0 0 1 0 1.272l-5.271 5.329 1.138 7.455a1 1 0 0 1 -.006.49l-.036.089a1 1 0 0 1 -.509.419.9.9 0 0 1 -.69-.008l-6.759-3.4-6.748 3.454a.881.881 0 0 1 -.321.064zm6.935-23.2c-.021 0-.049.032-.064.07l-3.718 7.089-7.7 1.27a.249.249 0 0 0 -.209.287.207.207 0 0 0 .062.113l5.556 5.616-1.188 7.78a.257.257 0 0 0 .211.291l.115.023a.238.238 0 0 0 .064-.009l7-3.588 7.046 3.543a.239.239 0 0 0 .157-.008.393.393 0 0 0 .166-.109.347.347 0 0 0 -.009-.147l-1.194-7.814 5.508-5.571a.236.236 0 0 0 .015-.326l-.013-.009a.259.259 0 0 0 -.14-.07l-7.782-1.27-3.545-7.006a.233.233 0 0 0 -.209-.138l-.128-.345v.33zm-6.706 21.855 1.141-7.446a.345.345 0 0 0 -.087-.242l-5.284-5.344 7.427-1.205a.282.282 0 0 0 .207-.109l3.433-6.723 3.46 6.769a.281.281 0 0 0 .179.13l7.433 1.2-5.307 5.3a.331.331 0 0 0 -.064.236l1.138 7.431-6.727-3.394a.254.254 0 0 0 -.225 0l-6.725 3.392zm6.838-4.079a.91.91 0 0 1 .409.1l5.584 2.818-.947-6.186a1 1 0 0 1 .238-.766l4.411-4.413-6.18-1a.953.953 0 0 1 -.638-.468l-2.877-5.629-2.875 5.622a.955.955 0 0 1 -.679.419l-6.146 1 4.4 4.456a1 1 0 0 1 .253.768l-.949 6.2 5.584-2.818a.922.922 0 0 1 .409-.1z" transform="translate(-146.839 -291.35)"/></g></svg>