<svg width="65" height="64" viewBox="0 0 65 64" fill="none" xmlns="http://www.w3.org/2000/svg">
  <path d="M58.4378 43.143H56.0578V41.8125L57.6558 40.0647C58.5738 39.0611 59.0725 37.7644 59.0725 36.4113V32.0702C59.0725 28.8904 56.4658 26.2969 53.2698 26.2856H50.7197C47.5237 26.2856 44.917 28.8791 44.917 32.0702V36.4113C44.917 37.7644 45.4157 39.0611 46.3337 40.0647L47.9317 41.8125V43.143H45.529C42.9563 43.143 40.667 44.902 40.0096 47.3601C39.8056 47.3376 39.5903 47.3264 39.3863 47.3264H36.5416V45.6237L38.3776 43.6166C39.375 42.5116 39.9303 41.0908 39.9303 39.6136V34.7312C39.9303 33.1639 39.2276 31.6304 37.9469 30.4126C36.4849 29.0257 34.5242 28.2702 32.5409 28.3716C32.4956 28.3716 32.4389 28.3716 32.3936 28.3716C30.0929 28.3716 27.6788 29.3301 26.0808 30.8974C24.9135 32.0363 24.2901 33.3669 24.2901 34.7312V39.6136C24.2901 41.102 24.8455 42.5228 25.8542 43.6166L27.6902 45.6237V47.3264H24.8455C24.6528 47.3264 24.4601 47.3375 24.2788 47.3488C23.6101 44.8569 21.3774 43.1317 18.7594 43.1317H16.3681V41.8125L17.9661 40.0647C18.8841 39.0611 19.3828 37.7644 19.3828 36.4113V32.0702C19.3828 28.8904 16.7761 26.2969 13.58 26.2856H11.0413C7.84531 26.2856 5.23862 28.8791 5.23862 32.0702V36.4113C5.23862 37.7644 5.73729 39.0611 6.6553 40.0647L8.25331 41.8125V43.143H5.87329C2.71126 43.143 0.149902 45.7026 0.149902 48.8373V54.9713C0.149902 55.6478 0.705241 56.2005 1.38525 56.2005H18.5894V60.4852C18.5894 61.1617 19.1448 61.7142 19.8248 61.7142H44.441C45.121 61.7142 45.6763 61.1617 45.6763 60.4852V55.7833L62.9145 56.1892C63.2432 56.1892 63.5492 56.0651 63.7872 55.8283C64.0252 55.5915 64.1499 55.287 64.1499 54.9487V48.8147C64.1612 45.6913 61.5885 43.143 58.4378 43.143ZM32.2462 30.7621L32.3482 30.7508C32.3822 30.7508 32.4162 30.7508 32.4616 30.7508C33.8102 30.7057 35.1929 31.2357 36.2016 32.1942C37.0063 32.9496 37.4483 33.8517 37.4483 34.7312V39.6136C37.4483 40.4819 37.1196 41.3164 36.5416 41.9591L34.6036 44.0901C34.2636 44.3156 34.0709 44.699 34.0709 45.1049V48.5667C34.0709 49.2432 34.6262 49.7957 35.3063 49.7957H39.3863C41.483 49.7957 43.1943 51.4984 43.1943 53.5844V59.2675H21.0374V55.0277C21.0374 55.0052 21.0374 54.9938 21.0374 54.9713C21.0374 54.9487 21.0374 54.9375 21.0374 54.915V53.5844C21.0374 52.0058 22.0461 50.5737 23.4855 50.0325C23.5761 50.0099 23.6781 49.9874 23.7235 49.9536C24.0861 49.8408 24.4601 49.7844 24.8455 49.7844H28.9255C29.6055 49.7844 30.1609 49.232 30.1609 48.5554V45.0937C30.1609 44.6877 29.9569 44.3045 29.6282 44.0789L27.6902 41.9478C27.1008 41.3051 26.7722 40.4706 26.7835 39.6023V34.7199C26.7835 33.9306 27.2255 33.0963 28.0188 32.3633C29.1522 31.3147 30.8295 30.6832 32.2349 30.7395L32.2462 30.7621ZM2.59793 48.8373C2.59793 47.9691 2.93793 47.1572 3.54994 46.5483C4.16194 45.9394 4.97795 45.6011 5.85062 45.6011H9.47733C10.1573 45.6011 10.7127 45.0485 10.7127 44.372V41.305C10.7127 40.8878 10.5087 40.5044 10.214 40.324L8.46865 38.4185C7.96998 37.8772 7.69798 37.1668 7.69798 36.4226V32.0814C7.69798 30.2548 9.19399 28.7663 11.03 28.7663H13.5687C15.4047 28.7663 16.9007 30.2548 16.9007 32.0814V36.4226C16.9007 37.1668 16.6287 37.8659 16.1301 38.4185L14.4527 40.279C14.1014 40.5045 13.8974 40.8878 13.8974 41.305V44.372C13.8974 45.0485 14.4527 45.6011 15.1327 45.6011H18.7594C20.2668 45.6011 21.5474 46.6272 21.9101 48.0592C19.8701 49.1417 18.5668 51.2841 18.5668 53.5844V53.7423H2.60926V48.8373H2.59793ZM42.3783 48.0818C42.7297 46.6385 44.0217 45.6011 45.529 45.6011H49.1557C49.8357 45.6011 50.3911 45.0485 50.3911 44.372V41.2937C50.3911 40.8765 50.1871 40.4931 49.8924 40.3127L48.1584 38.4072C47.6597 37.8659 47.3877 37.1555 47.3877 36.4113V32.0702C47.3877 30.2435 48.8837 28.755 50.7197 28.755H53.2584C55.0944 28.755 56.5905 30.2435 56.5905 32.0702V36.4113C56.5905 37.1555 56.3185 37.8546 55.8198 38.4072L54.1424 40.2677C53.8024 40.4932 53.5871 40.8765 53.5871 41.2937V44.3608C53.5871 45.0374 54.1424 45.5899 54.8224 45.5899H58.4491C60.2398 45.5899 61.6905 47.0444 61.6905 48.826V53.7197L45.6763 53.3251C45.5857 51.115 44.339 49.1417 42.3783 48.0818Z" fill="#00AFA5"/>
  <path d="M31.3455 24.8165C31.5537 25.0303 31.8276 25.1428 32.1233 25.1428C32.4191 25.1428 32.693 25.0191 32.9011 24.8165L42.6291 14.8222C43.9765 13.4378 44.7215 11.592 44.7215 9.63367C44.7215 7.69783 43.9984 5.87446 42.6729 4.49011C42.662 4.4676 42.64 4.45643 42.6181 4.43392C39.8356 1.57518 35.3003 1.56393 32.5068 4.43392L32.1124 4.83908L31.718 4.43392C30.3706 3.07208 28.5959 2.32926 26.7116 2.32926C26.6897 2.32926 26.6678 2.32926 26.6459 2.32926C24.7397 2.35177 22.9431 3.12832 21.6066 4.53518C18.9008 7.37141 18.9008 11.9859 21.6176 14.8334L31.3455 24.8165ZM23.1732 6.08836C24.1044 5.12044 25.3423 4.56896 26.6678 4.55771C26.6788 4.55771 26.7007 4.55771 26.7116 4.55771C28.0153 4.55771 29.2532 5.07534 30.1734 6.00949L31.3346 7.21384C31.5427 7.42769 31.8166 7.54028 32.1124 7.54028C32.4082 7.54028 32.682 7.41643 32.8902 7.21384L34.0624 6.00949C35.9795 4.03989 39.1016 4.02873 41.0297 5.96457C41.0406 5.97582 41.0625 5.99824 41.0735 6.00949C42.0047 6.96616 42.5195 8.2493 42.5195 9.61114C42.5195 10.973 42.0047 12.2447 41.0625 13.2126L32.1233 22.4192L23.1732 13.2239C21.2999 11.2656 21.2999 8.05796 23.1732 6.08836Z" fill="#00AFA5"/>
</svg>
