<svg height="64" viewBox="0 0 64 64" width="64" xmlns="http://www.w3.org/2000/svg"><g fill="#00af9c"><path d="m16.816 286.815a5.693 5.693 0 0 0 -2.446-.9 7.386 7.386 0 0 0 2.834-5.386c0-7.053-4.094-8.533-7.527-8.533s-7.527 1.481-7.527 8.533a7.386 7.386 0 0 0 2.835 5.386 5.651 5.651 0 0 0 -4.985 5.603v7.147a1.071 1.071 0 0 0 1.075 1.067h17.2a1.071 1.071 0 0 0 1.075-1.067v-7.147a5.632 5.632 0 0 0 -2.534-4.703zm-12.459-7.415c.291-3.576 1.987-5.271 5.32-5.271 3.052 0 4.731 1.431 5.212 4.418l-3.583-2.133a1.08 1.08 0 0 0 -1.475.366 1.056 1.056 0 0 0 -.1.211c-.542 1.621-3.479 2.234-5.374 2.409zm.094 2.14c1.841-.15 5.161-.7 6.71-2.725l3.839 2.29c-.431 2.612-3.675 4.759-5.326 4.759a6.761 6.761 0 0 1 -5.223-4.321zm6.115 10.464-.888.883-.888-.882.888-2.2zm6.634 5.596h-15.049v-6.08a3.534 3.534 0 0 1 3.549-3.52h2.386l-1.558 3.871a1.061 1.061 0 0 0 .239 1.15l2.151 2.133a1.081 1.081 0 0 0 1.52 0l2.151-2.133a1.061 1.061 0 0 0 .239-1.15l-1.562-3.871h2.39a3.534 3.534 0 0 1 3.548 3.52z" transform="translate(0 -235.731)"/><path d="m184.816 286.815a5.693 5.693 0 0 0 -2.446-.9 7.386 7.386 0 0 0 2.834-5.386c0-7.053-4.094-8.533-7.527-8.533s-7.527 1.481-7.527 8.533a7.386 7.386 0 0 0 2.835 5.386 5.651 5.651 0 0 0 -4.986 5.6v7.147a1.071 1.071 0 0 0 1.075 1.067h17.2a1.071 1.071 0 0 0 1.075-1.067v-7.147a5.632 5.632 0 0 0 -2.533-4.7zm-12.459-7.415c.291-3.576 1.987-5.271 5.32-5.271 3.052 0 4.731 1.431 5.212 4.418l-3.583-2.133a1.08 1.08 0 0 0 -1.475.366 1.056 1.056 0 0 0 -.1.211c-.542 1.621-3.479 2.234-5.374 2.409zm.094 2.14c1.841-.15 5.161-.7 6.71-2.725l3.839 2.29c-.431 2.612-3.675 4.759-5.326 4.759a6.761 6.761 0 0 1 -5.223-4.321zm6.115 10.464-.888.883-.888-.882.888-2.2zm6.634 5.596h-15.05v-6.08a3.534 3.534 0 0 1 3.55-3.52h2.387l-1.561 3.871a1.061 1.061 0 0 0 .239 1.15l2.151 2.133a1.081 1.081 0 0 0 1.52 0l2.151-2.133a1.061 1.061 0 0 0 .239-1.15l-1.56-3.871h2.39a3.534 3.534 0 0 1 3.548 3.52z" transform="translate(-145.677 -235.731)"/><path d="m352.816 286.815a5.693 5.693 0 0 0 -2.446-.9 7.386 7.386 0 0 0 2.834-5.386c0-7.053-4.094-8.533-7.527-8.533s-7.527 1.481-7.527 8.533a7.386 7.386 0 0 0 2.835 5.386 5.651 5.651 0 0 0 -4.986 5.6v7.147a1.071 1.071 0 0 0 1.075 1.067h17.2a1.071 1.071 0 0 0 1.075-1.067v-7.147a5.632 5.632 0 0 0 -2.533-4.7zm-12.459-7.415c.291-3.576 1.987-5.271 5.32-5.271 3.052 0 4.731 1.431 5.212 4.418l-3.583-2.133a1.08 1.08 0 0 0 -1.475.366 1.058 1.058 0 0 0 -.1.211c-.542 1.621-3.479 2.234-5.374 2.409zm.094 2.14c1.841-.15 5.161-.7 6.71-2.725l3.839 2.29c-.431 2.612-3.675 4.759-5.326 4.759a6.761 6.761 0 0 1 -5.224-4.321zm6.115 10.464-.888.883-.888-.882.888-2.2zm6.634 5.596h-15.05v-6.08a3.534 3.534 0 0 1 3.55-3.52h2.387l-1.561 3.871a1.061 1.061 0 0 0 .239 1.15l2.151 2.133a1.081 1.081 0 0 0 1.52 0l2.15-2.133a1.061 1.061 0 0 0 .239-1.15l-1.559-3.871h2.39a3.534 3.534 0 0 1 3.548 3.52z" transform="translate(-291.355 -235.731)"/><path d="m146.405 87.438v-13.867a1.071 1.071 0 0 0 -1.075-1.071h-9.677v-3.2a1.071 1.071 0 0 0 -1.075-1.067h-6.532a8.6 8.6 0 0 0 -7.71-4.267 8.792 8.792 0 0 0 -8.336 8.852 14.528 14.528 0 0 0 2.308 7.861l4.336 6.758h-1.267v2.133h30.103v-2.132zm-22.581 0h-1.267l1.267-1.974zm-3.226-.919-4.48-6.985a12.406 12.406 0 0 1 -1.972-6.716 6.635 6.635 0 0 1 6.254-6.718h.2a6.426 6.426 0 0 1 6.452 6.4v.314a12.407 12.407 0 0 1 -1.972 6.72zm12.9.919h-7.527v-5.328l.918-1.43a14.527 14.527 0 0 0 2.308-7.861v-.319a8.513 8.513 0 0 0 -.28-2.133h4.583zm7.527 0h-2.151v-3.2h2.151zm3.23-11.738h-2.155v2.133h2.151v1.067h-2.151v2.133h2.151v6.4h-1.075v-4.262a1.071 1.071 0 0 0 -1.076-1.071h-4.3a1.071 1.071 0 0 0 -1.075 1.067v4.267h-1.075v-6.4h2.15v-2.134h-2.151v-1.063h2.151v-2.137h-2.151v-1.063h8.6z" transform="translate(-97.211 -55.438)"/><path d="m32.727 15.872h2v2.976h-2z"/><path d="m41.655 19.84h2v1.984h-2z"/><path d="m41.655 22.816h2v2.976h-2z"/><path d="m32.727 19.84h2v.992h-2z"/><path d="m32.727 21.824h2v1.984h-2z"/><path d="m30.748 25.792h1v1.984h-1z"/><path d="m32.727 25.792h2v1.984h-2z"/><path d="m30.748 28.768h1v1.984h-1z"/><path d="m32.727 28.768h2v1.984h-2z"/><path d="m430.365 166.918-2.109.421c.132.652.24 1.318.323 1.981l2.132-.252c-.087-.719-.203-1.442-.346-2.15z" transform="translate(-371.21 -144.662)"/><path d="m33.784 167.3c-.145.713-.259 1.435-.344 2.147l2.135.25c.077-.657.185-1.325.316-1.984z" transform="translate(-28.946 -144.995)"/><path d="m409.249 105.99-1.873 1.047c.33.579.645 1.18.925 1.787l1.949-.9c-.307-.656-.645-1.307-1.001-1.934z" transform="translate(-353.137 -91.858)"/><path d="m392.264 78.934-1.688 1.325c.416.519.818 1.067 1.2 1.622l1.783-1.191c-.413-.602-.848-1.19-1.295-1.756z" transform="translate(-338.595 -68.409)"/><path d="m68.372 79.2c-.453.565-.887 1.157-1.292 1.757l1.787 1.187c.373-.554.774-1.1 1.191-1.623z" transform="translate(-58.064 -68.639)"/><path d="m371.57 55.046-1.458 1.568c.5.457.981.933 1.433 1.418l1.577-1.45c-.49-.525-1.012-1.042-1.552-1.536z" transform="translate(-320.783 -47.707)"/><path d="m52.1 106.254c-.355.626-.691 1.279-1 1.939l1.951.9c.285-.61.6-1.213.922-1.788z" transform="translate(-44.235 -92.087)"/><path d="m40.478 135.894c-.255.683-.483 1.379-.678 2.07l2.069.579c.182-.64.392-1.28.628-1.911z" transform="translate(-34.45 -117.774)"/><path d="m88.839 55.238c-.538.49-1.056 1.007-1.551 1.538l1.58 1.447c.452-.489.938-.964 1.43-1.419z" transform="translate(-75.655 -47.873)"/><path d="m422.064 135.566-2.016.741c.235.628.447 1.27.63 1.909l2.069-.583c-.199-.692-.43-1.386-.683-2.067z" transform="translate(-364.106 -117.491)"/><path d="m170 7.8c-.705.2-1.408.427-2.084.673l.745 2c.625-.228 1.273-.437 1.925-.621z" transform="translate(-145.531 -6.76)"/><path d="m201.47 1.446c-.718.084-1.447.2-2.166.338l.416 2.094c.665-.13 1.338-.237 2-.314z" transform="translate(-172.737 -1.254)"/><path d="m231.68.023.082 2.133c.671-.023 1.355-.026 2.026 0l.086-2.133c-.728-.029-1.466-.023-2.194 0z" transform="translate(-200.797 -.002)"/><path d="m140.265 19.086c-.659.3-1.317.64-1.953.99l1.054 1.86c.587-.327 1.193-.64 1.8-.914z" transform="translate(-119.876 -16.542)"/><path d="m262.646 1.4-.246 2.116c.661.076 1.334.18 2 .309l.412-2.094c-.721-.139-1.444-.251-2.166-.331z" transform="translate(-227.423 -1.212)"/><path d="m347.64 34.862-1.192 1.775c.555.367 1.105.764 1.639 1.18l1.329-1.677c-.578-.45-1.174-.881-1.776-1.278z" transform="translate(-300.272 -30.214)"/><path d="m292.505 7.694-.577 2.054c.645.179 1.29.386 1.925.617l.741-2c-.684-.253-1.386-.477-2.089-.671z" transform="translate(-253.017 -6.669)"/><path d="m113 35.054c-.609.406-1.205.836-1.771 1.28l1.331 1.675c.523-.41 1.075-.807 1.639-1.184z" transform="translate(-96.408 -30.381)"/><path d="m321.059 18.942-.9 1.937c.608.278 1.216.586 1.806.911l1.048-1.862c-.637-.352-1.294-.685-1.954-.986z" transform="translate(-277.488 -16.417)"/><path d="m148.3 96a4.267 4.267 0 1 0 4.3 4.267 4.284 4.284 0 0 0 -4.3-4.267zm0 6.4a2.133 2.133 0 1 1 2.151-2.133 2.142 2.142 0 0 1 -2.151 2.133z" transform="translate(-124.824 -83.199)"/></g></svg>