<svg height="105" viewBox="0 0 144 105" width="144" xmlns="http://www.w3.org/2000/svg"><g transform="translate(2 -48)"><g fill="#00af9c"><path d="m25.475 136.593h37.9v11.556h-15.161a1.926 1.926 0 0 0 0 3.852h49.269a1.926 1.926 0 0 0 0-3.852h-15.16v-11.556h37.9a9.564 9.564 0 0 0 9.475-9.63v-57.778a9.564 9.564 0 0 0 -9.475-9.63h-1.895v-5.777a5.738 5.738 0 0 0 -5.686-5.778h-79.587a5.738 5.738 0 0 0 -5.685 5.778v5.778h-1.895a9.564 9.564 0 0 0 -9.475 9.629v57.778a9.564 9.564 0 0 0 9.475 9.63zm53.059 11.556h-11.37v-11.556h11.37zm39.794-84.741h1.895a5.739 5.739 0 0 1 5.685 5.778v48.148h-7.58zm-87.168-9.63a1.913 1.913 0 0 1 1.895-1.926h79.588a1.913 1.913 0 0 1 1.895 1.926v9.63h-83.378zm0 13.481h83.378v50.074h-83.378zm-11.37 1.926a5.739 5.739 0 0 1 5.685-5.778h1.895v53.926h-7.58zm0 52h106.117v5.778a5.739 5.739 0 0 1 -5.685 5.778h-94.747a5.739 5.739 0 0 1 -5.685-5.778z"/><path d="m233.926 371.852h7.7a1.926 1.926 0 0 0 0-3.852h-7.7a1.926 1.926 0 1 0 0 3.852z" transform="translate(-164.929 -242.963)"/><path d="m297.926 155.556h7.7a1.926 1.926 0 0 0 1.926-1.926v-7.7a1.926 1.926 0 0 0 -1.922-1.93h-7.7a1.926 1.926 0 0 0 -1.93 1.926v7.7a1.926 1.926 0 0 0 1.926 1.93zm1.926-7.7h3.848v3.844h-3.852z" transform="translate(-213.797 -72.889)"/><path d="m233.926 155.556h7.7a1.926 1.926 0 0 0 1.926-1.926v-7.7a1.926 1.926 0 0 0 -1.922-1.93h-7.7a1.926 1.926 0 0 0 -1.93 1.926v7.7a1.926 1.926 0 0 0 1.926 1.93zm1.926-7.7h3.848v3.844h-3.852z" transform="translate(-164.929 -72.889)"/><path d="m177.63 144h-7.7a1.926 1.926 0 0 0 -1.93 1.926v7.7a1.926 1.926 0 0 0 1.926 1.926h7.7a1.926 1.926 0 0 0 1.926-1.926v-7.7a1.926 1.926 0 0 0 -1.922-1.926zm-1.926 7.7h-3.852v-3.852h3.848z" transform="translate(-116.061 -72.889)"/><path d="m361.926 155.556h7.7a1.926 1.926 0 0 0 1.926-1.926v-7.7a1.926 1.926 0 0 0 -1.922-1.93h-7.7a1.926 1.926 0 0 0 -1.93 1.926v7.7a1.926 1.926 0 0 0 1.926 1.93zm1.926-7.7h3.848v3.844h-3.852z" transform="translate(-262.665 -72.889)"/><path d="m177.63 208h-7.7a1.926 1.926 0 0 0 -1.93 1.926v7.7a1.926 1.926 0 0 0 1.926 1.926h7.7a1.926 1.926 0 0 0 1.926-1.926v-7.7a1.926 1.926 0 0 0 -1.922-1.926zm-1.926 7.7h-3.852v-3.852h3.848z" transform="translate(-116.061 -121.481)"/><path d="m177.63 272h-7.7a1.926 1.926 0 0 0 -1.93 1.926v7.7a1.926 1.926 0 0 0 1.926 1.926h7.7a1.926 1.926 0 0 0 1.926-1.926v-7.7a1.926 1.926 0 0 0 -1.922-1.926zm-1.926 7.7h-3.852v-3.852h3.848z" transform="translate(-116.061 -170.074)"/><path d="m305.63 272h-7.7a1.926 1.926 0 0 0 -1.93 1.926v7.7a1.926 1.926 0 0 0 1.926 1.926h7.7a1.926 1.926 0 0 0 1.926-1.926v-7.7a1.926 1.926 0 0 0 -1.922-1.926zm-1.926 7.7h-3.852v-3.852h3.848z" transform="translate(-213.797 -170.074)"/><path d="m113.63 272h-7.7a1.926 1.926 0 0 0 -1.93 1.926v7.7a1.926 1.926 0 0 0 1.926 1.926h7.7a1.926 1.926 0 0 0 1.926-1.926v-7.7a1.926 1.926 0 0 0 -1.922-1.926zm-1.926 7.7h-3.852v-3.852h3.848z" transform="translate(-67.193 -170.074)"/><path d="m113.63 208h-7.7a1.926 1.926 0 0 0 -1.93 1.926v7.7a1.926 1.926 0 0 0 1.926 1.926h7.7a1.926 1.926 0 0 0 1.926-1.926v-7.7a1.926 1.926 0 0 0 -1.922-1.926zm-1.926 7.7h-3.852v-3.852h3.848z" transform="translate(-67.193 -121.481)"/><path d="m241.63 272h-7.7a1.926 1.926 0 0 0 -1.93 1.926v7.7a1.926 1.926 0 0 0 1.926 1.926h7.7a1.926 1.926 0 0 0 1.926-1.926v-7.7a1.926 1.926 0 0 0 -1.922-1.926zm-1.926 7.7h-3.852v-3.852h3.848z" transform="translate(-164.929 -170.074)"/><path d="m109.778 80h-3.852a1.926 1.926 0 1 0 0 3.852h3.852a1.926 1.926 0 1 0 0-3.852z" transform="translate(-67.18 -24.296)"/><path d="m381.778 80h-3.852a1.926 1.926 0 0 0 0 3.852h3.852a1.926 1.926 0 1 0 0-3.852z" transform="translate(-274.827 -24.296)"/><path d="m229.185 80h-19.259a1.926 1.926 0 1 0 0 3.852h19.259a1.926 1.926 0 1 0 0-3.852z" transform="translate(-146.707 -24.296)"/></g><path d="m242.991 208.564a1.926 1.926 0 0 0 -2.724 0l-2.49 2.49-2.49-2.49a1.926 1.926 0 1 0 -2.724 2.724l2.49 2.49-2.49 2.49a1.926 1.926 0 0 0 2.724 2.724l2.49-2.49 2.49 2.49a1.926 1.926 0 0 0 2.724-2.724l-2.49-2.49 2.49-2.49a1.926 1.926 0 0 0 0-2.724z" fill="#fcc000" transform="translate(-164.929 -121.481)"/><path d="m306.991 208.564a1.926 1.926 0 0 0 -2.724 0l-2.49 2.49-2.49-2.49a1.926 1.926 0 1 0 -2.724 2.724l2.49 2.49-2.49 2.49a1.926 1.926 0 0 0 2.724 2.724l2.49-2.49 2.49 2.49a1.926 1.926 0 0 0 2.724-2.724l-2.49-2.49 2.49-2.49a1.926 1.926 0 0 0 0-2.724z" fill="#fcc000" transform="translate(-213.797 -121.481)"/><path d="m370.991 208.564a1.926 1.926 0 0 0 -2.724 0l-2.49 2.49-2.49-2.49a1.926 1.926 0 1 0 -2.724 2.724l2.49 2.49-2.49 2.49a1.926 1.926 0 0 0 2.724 2.724l2.49-2.49 2.49 2.49a1.926 1.926 0 0 0 2.724-2.724l-2.49-2.49 2.49-2.49a1.926 1.926 0 0 0 0-2.724z" fill="#fcc000" transform="translate(-262.665 -121.481)"/></g><path d="m0 0h144v105h-144z" fill="none" opacity=".3"/></svg>