<svg width="65" height="64" viewBox="0 0 65 64" fill="none" xmlns="http://www.w3.org/2000/svg">
  <path d="M55.8499 58.692C55.841 40.8893 55.841 23.0867 55.8499 5.28405C55.8495 4.94959 55.8323 4.61536 55.7982 4.28265C55.6858 3.11213 55.1432 2.02539 54.2758 1.23382C53.4084 0.44225 52.2783 0.00245959 51.1054 0C38.9381 0 26.7691 0.01669 14.6018 0C11.6735 0 10.5082 1.42532 10.0704 3.55497C9.82405 4.75831 9.88232 10.3478 9.86234 12.0168C9.86234 12.0268 9.86234 12.0335 9.86234 12.0435C9.84236 12.2504 9.85235 12.4591 9.85235 12.6677C9.85235 27.9691 9.85235 43.2682 9.85235 58.5651C9.84814 58.9397 9.86649 59.3143 9.90729 59.6867C10.1337 61.5376 10.7879 63.4286 13.7827 63.956H51.9128C52.0543 63.9026 52.011 63.9226 51.9461 63.956C55.4453 63.5487 55.8499 60.9368 55.8499 58.692ZM53.9271 58.959C53.9271 60.8733 52.7252 62.0834 50.8208 62.0834C38.8349 62.0834 26.8523 62.0834 14.8731 62.0834C12.9953 62.0834 11.7684 60.875 11.7668 59.0224C11.7668 47.9458 11.7668 36.8693 11.7668 25.7927C11.7668 25.6508 11.7817 25.5073 11.7851 25.4422L14.9613 26.6656V27.3332C14.9613 35.3911 14.9613 43.4485 14.9613 51.5053C14.9613 53.0975 15.6605 54.1289 16.9889 54.4928C17.2908 54.5652 17.6009 54.5978 17.9112 54.5896C27.8584 54.5896 37.8055 54.5896 47.7527 54.5896C49.6055 54.5896 50.7076 53.5081 50.7276 51.6571C50.7475 49.7161 50.7392 42.9099 50.7276 40.5883C50.7276 40.4999 50.7276 40.4114 50.7276 40.323C50.7276 35.9713 50.7276 31.6203 50.7276 27.2697V26.6656L53.8905 25.4489C53.9087 25.5839 53.9199 25.7199 53.9238 25.8561C53.9282 36.8893 53.9293 47.9236 53.9271 58.959ZM48.8181 51.572C48.8181 52.4533 48.5501 52.7203 47.6645 52.722C37.7817 52.722 27.8972 52.722 18.0111 52.722C17.1554 52.722 16.8757 52.4516 16.8757 51.6204C16.8757 43.3344 16.873 35.0478 16.8674 26.7607C16.8674 26.3785 16.9939 26.2116 17.3319 26.0097C18.1409 25.5307 18.8867 24.9448 19.7307 24.3507C20.7462 25.6191 22.1745 26.4786 24.019 26.4753C25.8635 26.472 27.2835 25.6625 28.4338 24.1921C29.5758 25.6375 31.0124 26.4853 32.8636 26.4753C34.7147 26.4653 36.1231 25.6408 37.2334 24.2155C39.6306 27.2714 43.7358 27.1913 46.083 24.2155C46.7374 25.0737 47.6055 25.7443 48.6001 26.1599C48.7366 26.2149 48.8098 26.5754 48.8098 26.7958C48.8231 31.3165 48.8265 35.8389 48.8198 40.363V40.4415C48.8198 40.5616 48.8198 40.6818 48.8198 40.802C48.8165 43.227 48.8215 49.7144 48.8181 51.572ZM27.4633 20.3801C27.6148 21.8739 27.2219 23.1223 25.965 23.9685C24.7332 24.803 23.4297 24.818 22.1745 24.0202C20.8644 23.1857 20.4532 21.9239 20.608 20.3801H27.4633ZM21.0708 18.4624L21.9781 16.3779C22.3576 15.5033 22.7255 14.6221 23.1267 13.7575L23.3499 13.3503C24.9213 13.3203 26.7092 13.332 28.3622 13.332C28.1092 15.0744 27.8628 16.7617 27.6164 18.4624H21.0708ZM36.2296 20.3751C36.3691 21.0284 36.3177 21.7081 36.0815 22.3327C35.8453 22.9574 35.4343 23.5004 34.8979 23.8967C34.3568 24.3062 33.7058 24.5439 33.0288 24.5793C32.3517 24.6147 31.6796 24.4462 31.099 24.0953C29.7256 23.2608 29.2761 21.9774 29.391 20.3751H36.2296ZM29.5442 18.4374C29.7839 16.7684 30.0219 15.0994 30.2683 13.357H35.4172L36.1564 18.4374H29.5442ZM38.2256 18.4374C38.0591 18.4374 38.0774 18.4591 38.0774 18.4591C37.8311 16.7684 37.578 15.0894 37.3283 13.3286C38.477 13.3286 42.511 13.3286 42.511 13.3286C42.511 13.3286 44.2319 17.219 44.6347 18.4841L38.2256 18.4374ZM45.0792 20.3751C45.2457 21.8138 44.8894 23.0355 43.7042 23.895C42.5189 24.7546 41.2421 24.8414 39.9719 24.1187C38.5519 23.3092 38.0791 22.0107 38.2256 20.3751H45.0792ZM48.6683 24.0569C47.3482 23.2024 46.8804 21.9523 47.0702 20.3851H53.8422C53.9889 21.0478 53.9371 21.7391 53.6934 22.3724C53.4497 23.0057 53.0249 23.5527 52.4723 23.9449C51.9197 24.337 51.2639 24.5569 50.5872 24.5768C49.9105 24.5967 49.2429 24.4159 48.6683 24.0569ZM47.0036 18.4725C46.9196 18.4628 46.8389 18.4339 46.7679 18.3878C46.6968 18.3418 46.6374 18.2799 46.5941 18.2071C45.9049 16.6516 45.2373 15.0877 44.5698 13.5239C44.5548 13.4922 44.5781 13.4454 44.5948 13.3353C46.1113 13.3353 47.6395 13.3353 49.1661 13.3353C49.2843 13.3589 49.3885 13.4285 49.4557 13.5289C50.6293 15.1345 51.7963 16.7451 53.0515 18.4758C50.934 18.4841 48.963 18.4892 46.9986 18.4725H47.0036ZM48.8248 11.3809H16.8941C16.8941 10.1208 16.8558 8.8774 16.929 7.64234C16.9423 7.41369 17.3768 7.17168 17.6615 7.01146C17.8196 6.92133 18.0677 6.98642 18.2741 6.98642H47.4248C48.6334 6.98642 48.8181 7.17335 48.8181 8.39673C48.8198 9.36975 48.8198 10.3478 48.8198 11.3809H48.8248ZM21.1757 13.3303C21.1008 13.5606 21.0608 13.7308 20.9926 13.8894C20.4016 15.2596 19.7906 16.6215 19.2163 18.0001C19.0682 18.3556 18.8934 18.5008 18.4938 18.5008C16.5927 18.4791 14.69 18.4908 12.6474 18.4908C13.8976 16.7684 15.0496 15.1695 16.2199 13.584C16.2758 13.5158 16.3449 13.4597 16.423 13.419C16.5011 13.3783 16.5866 13.3538 16.6743 13.347C18.1443 13.3236 19.6142 13.3303 21.1757 13.3303ZM18.5554 20.3618C18.7133 21.0029 18.6806 21.6764 18.4614 22.2992C18.2422 22.9219 17.8461 23.4668 17.3219 23.8667C16.7853 24.2808 16.1392 24.5278 15.4637 24.5767C14.7883 24.6257 14.1134 24.4745 13.523 24.142C12.2196 23.4027 11.6203 22.1075 11.82 20.3634H18.5554V20.3618ZM53.9271 15.8421C53.9144 16.0251 53.8922 16.2073 53.8605 16.3879C52.8734 15.0243 51.9445 13.7726 51.0572 12.4924C50.8672 12.2056 50.7601 11.8718 50.7475 11.5278C50.7026 10.2176 50.7742 8.90076 50.6843 7.59561C50.5811 6.12522 49.4374 5.12883 47.9758 5.12883C37.8843 5.12883 27.7929 5.12883 17.7014 5.12883C17.0297 5.11012 16.3763 5.34936 15.8747 5.79765C15.3731 6.24593 15.0613 6.86939 15.003 7.54053C14.916 8.20192 14.9054 8.87116 14.9713 9.53498C15.2027 11.3225 14.6966 12.8146 13.4731 14.1347C12.8688 14.7907 12.4043 15.5768 11.8766 16.3044C11.7772 15.9064 11.7358 15.496 11.7534 15.0861C11.7534 14.1448 11.7651 13.2034 11.7534 12.2638C11.7534 12.2488 11.7534 12.2338 11.7534 12.2187C11.7668 11.3642 11.7534 5.73634 11.7534 4.87514C11.7701 3.09098 12.9837 1.87095 14.7799 1.87095C26.8246 1.86427 38.866 1.86427 50.904 1.87095C52.6919 1.87095 53.9005 3.106 53.9005 4.90518C53.9271 8.54805 53.936 12.1909 53.9271 15.8338V15.8421Z" fill="#00AFA5"/>
  <path d="M51.9461 63.9526H51.9128C51.7347 64.0378 51.8612 63.9894 51.9461 63.9526Z" fill="#00AFA5"/>
  <path d="M42.121 33.7221C41.4551 33.7121 40.7893 33.6887 40.1234 33.7221C39.8904 33.7458 39.6552 33.7097 39.44 33.6171C39.2248 33.5245 39.0366 33.3786 38.8932 33.193C37.9176 32.0865 36.8955 31.0233 35.88 29.9501C35.3457 29.3844 34.8063 29.3143 34.3735 29.7332C33.9407 30.1521 33.9906 30.6762 34.5266 31.2586C35.1309 31.9162 35.7452 32.5655 36.3578 33.2231C36.4743 33.3499 36.5709 33.4951 36.7207 33.687H28.9099C29.7289 32.8075 30.4531 32.0364 31.1689 31.2553C31.7 30.6778 31.7432 30.1421 31.3104 29.7282C30.8776 29.3143 30.3349 29.3944 29.8022 29.9552C28.7634 31.06 27.723 32.1649 26.7042 33.2932C26.5921 33.4392 26.4458 33.5553 26.2782 33.631C26.1107 33.7067 25.927 33.7397 25.7436 33.7271C25.0611 33.692 24.3753 33.7121 23.6894 33.7271C22.3376 33.7388 21.3238 34.4898 21.0092 35.7048C20.6946 36.9199 21.199 38.0414 22.3693 38.7625C22.5622 38.8931 22.6993 39.0913 22.7538 39.3182C23.2316 41.8468 23.6844 44.3803 24.1455 46.9138C24.4235 48.4393 25.4923 49.3456 27.0571 49.3489C30.917 49.3556 34.778 49.3556 38.6401 49.3489C40.2266 49.3489 41.277 48.4209 41.5584 46.8454C42.0012 44.3736 42.4706 41.9052 42.9001 39.4317C42.9173 39.2721 42.975 39.1196 43.0676 38.9887C43.1603 38.8578 43.2849 38.7529 43.4295 38.684C43.9381 38.3954 44.337 37.946 44.5638 37.406C44.7906 36.8659 44.8325 36.2658 44.683 35.6994C44.5334 35.133 44.2009 34.6322 43.7374 34.2753C43.2738 33.9185 42.7054 33.7257 42.121 33.7271V33.7221ZM39.9053 45.345C39.8304 45.7539 39.7638 46.1628 39.6856 46.5717C39.5724 47.1625 39.2311 47.473 38.6085 47.473C34.7663 47.473 30.9248 47.473 27.0837 47.473C26.5327 47.473 26.1432 47.2443 26.0416 46.6935C25.5738 44.19 25.1244 41.6698 24.6599 39.1079H41.0306C40.6494 41.2242 40.2765 43.2821 39.9053 45.345ZM42.1976 37.1068C42.0544 37.2053 41.7947 37.1369 41.5867 37.1369H24.0839C23.8958 37.1369 23.7094 37.1369 23.5229 37.1268C23.4285 37.1279 23.3348 37.1095 23.2478 37.0727C23.1607 37.0359 23.0822 36.9815 23.0171 36.9129C22.9519 36.8443 22.9016 36.763 22.8692 36.674C22.8368 36.585 22.823 36.4903 22.8287 36.3958C22.8154 35.9585 23.0668 35.6982 23.4813 35.6097C23.6468 35.5878 23.8142 35.5828 23.9807 35.5947H41.7315C41.9179 35.5947 42.171 35.5363 42.2775 35.6331C42.5122 35.8517 42.8302 36.1555 42.8219 36.4125C42.8135 36.6695 42.4573 36.9299 42.1976 37.1068Z" fill="#00AFA5"/>
  <path d="M34.7763 57.1315C34.1537 57.1131 33.5311 57.1315 32.9085 57.1315C32.2427 57.1315 31.5768 57.1164 30.9109 57.1315C30.245 57.1465 29.8771 57.4903 29.8538 58.036C29.8288 58.6102 30.2134 59.0274 30.8793 59.0374C32.1866 59.0642 33.4934 59.0642 34.7996 59.0374C35.4655 59.0241 35.8517 58.6068 35.8268 58.036C35.8118 57.4936 35.4289 57.1515 34.7763 57.1315Z" fill="#00AFA5"/>
  <path d="M21.0991 8.25653C20.8483 8.26463 20.6102 8.36915 20.4342 8.54843C20.2582 8.72771 20.1577 8.968 20.1536 9.21954C20.1627 9.47042 20.2707 9.70743 20.4539 9.87858C20.6371 10.0497 20.8805 10.141 21.1307 10.1325C21.2551 10.1327 21.3781 10.107 21.492 10.0569C21.6059 10.0069 21.7082 9.93362 21.7923 9.84177C21.8764 9.74992 21.9405 9.64152 21.9805 9.52347C22.0205 9.40542 22.0355 9.28032 22.0247 9.15611C22.0133 8.91633 21.9113 8.68988 21.7394 8.52279C21.5674 8.3557 21.3385 8.26049 21.0991 8.25653Z" fill="#00AFA5"/>
  <path d="M29.6524 8.25653C29.4129 8.25916 29.1834 8.3531 29.0106 8.51927C28.8377 8.68544 28.7345 8.91135 28.7218 9.15111C28.7102 9.27529 28.7246 9.40052 28.764 9.51882C28.8034 9.63712 28.8669 9.7459 28.9505 9.83823C29.0342 9.93056 29.1361 10.0044 29.2497 10.0551C29.3634 10.1057 29.4864 10.1321 29.6108 10.1325C29.7346 10.1376 29.8583 10.1182 29.9747 10.0753C30.0911 10.0324 30.1979 9.96694 30.289 9.88259C30.3801 9.79824 30.4537 9.69669 30.5056 9.58377C30.5574 9.47085 30.5866 9.34877 30.5913 9.22454C30.5885 8.97325 30.4895 8.73265 30.3147 8.55248C30.14 8.37231 29.9028 8.26636 29.6524 8.25653Z" fill="#00AFA5"/>
  <path d="M25.4007 8.25653C25.1501 8.25821 24.9096 8.35537 24.7278 8.52831C24.546 8.70125 24.4366 8.93703 24.4219 9.18783C24.4321 9.43302 24.5365 9.66476 24.7132 9.83462C24.8898 10.0045 25.1251 10.0993 25.3699 10.0993C25.6147 10.0993 25.85 10.0045 26.0267 9.83462C26.2033 9.66476 26.3077 9.43302 26.318 9.18783C26.3019 8.94809 26.2005 8.72212 26.0321 8.55115C25.8637 8.38018 25.6396 8.27561 25.4007 8.25653Z" fill="#00AFA5"/>
  <path d="M32.8619 45.6938C33.3963 45.6821 33.7808 45.2465 33.8041 44.5889C33.8208 44.1133 33.8041 43.6359 33.8041 43.1586C33.8041 42.6813 33.8175 42.1572 33.8041 41.6665C33.7792 40.9756 33.4362 40.595 32.8619 40.5883C32.2876 40.5817 31.908 40.9555 31.8931 41.6365C31.872 42.6312 31.872 43.6259 31.8931 44.6206C31.9064 45.2682 32.3292 45.7038 32.8619 45.6938Z" fill="#00AFA5"/>
  <path d="M27.8645 44.9528C27.8856 45.0711 27.9301 45.184 27.9955 45.2848C28.0608 45.3857 28.1457 45.4723 28.245 45.5397C28.3443 45.607 28.4561 45.6538 28.5737 45.6771C28.6914 45.7004 28.8125 45.6999 28.9299 45.6755C29.1677 45.6295 29.3793 45.495 29.5223 45.299C29.6653 45.1031 29.729 44.8601 29.7006 44.619C29.5442 43.5308 29.366 42.4459 29.1663 41.3644C29.1412 41.1435 29.0334 40.9403 28.8647 40.796C28.696 40.6516 28.4789 40.5768 28.2573 40.5867C27.693 40.5767 27.2319 41.0089 27.3068 41.5764C27.4583 42.7063 27.6547 43.8329 27.8645 44.9528Z" fill="#00AFA5"/>
  <path d="M36.7806 45.6788C37.2667 45.7722 37.7362 45.4535 37.8477 44.8727C38.0558 43.7945 38.2173 42.703 38.3854 41.6932C38.4204 41.0874 38.0924 40.6601 37.603 40.5933C37.0204 40.5149 36.6042 40.8437 36.4893 41.5029C36.3229 42.5043 36.1564 43.5057 36.0016 44.5071C35.9749 44.6354 35.974 44.7678 35.9989 44.8964C36.0238 45.0251 36.0739 45.1475 36.1464 45.2565C36.2189 45.3656 36.3123 45.459 36.4212 45.5315C36.5301 45.604 36.6523 45.6541 36.7806 45.6788Z" fill="#00AFA5"/>
</svg>
