<svg height="64" viewBox="0 0 42.5 64" width="42.5" xmlns="http://www.w3.org/2000/svg"><g fill="#00af9c"><path d="m105.41 59.082a5.938 5.938 0 0 0 -5 2.787 5.938 5.938 0 0 0 -5-2.787c-3.625 0-6.25 3.032-6.25 6.73 0 4.056 3.122 6.716 7.847 10.742.824.7 1.675 1.427 2.58 2.218a1.25 1.25 0 0 0 1.646 0c.9-.791 1.756-1.517 2.58-2.218 4.726-4.026 7.847-6.686 7.847-10.742 0-3.7-2.625-6.73-6.25-6.73zm-3.219 15.569c-.577.491-1.167.994-1.781 1.525-.614-.53-1.2-1.033-1.781-1.525-4.346-3.7-6.969-5.937-6.969-8.839 0-2.412 1.612-4.23 3.75-4.23 2.784 0 3.755 3.318 3.8 3.46a1.25 1.25 0 0 0 2.41 0c.01-.034.98-3.456 3.795-3.456 2.138 0 3.75 1.819 3.75 4.23-.005 2.898-2.628 5.133-6.974 8.835z" transform="translate(-79.16 -45.332)"/><circle cx="35.25" cy="7" r="1.25"/><path d="m61.184 49.547c-4.068.742-9.992 2.825-9.992 6.953 0 4.276 6.986 7.5 16.25 7.5s16.25-3.224 16.25-7.5c0-4.134-5.94-6.214-9.992-6.953 5.041-6.492 14.992-20.122 14.992-28.3a21.261 21.261 0 0 0 -2.723-10.414 1.25 1.25 0 0 0 -2.178 1.227 18.756 18.756 0 0 1 2.4 9.188c0 5.454-5.746 15.811-15.765 28.416-1.239 1.559-2.285 2.823-2.985 3.656-.649-.772-1.6-1.916-2.718-3.32-.083-.21-16.032-19.344-16.032-28.751a18.757 18.757 0 0 1 27.647-16.508 1.25 1.25 0 1 0 1.188-2.2 21.257 21.257 0 0 0 -31.335 18.709c0 8.187 9.981 21.843 14.992 28.3zm6.257 6.953a1.25 1.25 0 0 0 .942-.429c.015-.018 1.463-1.681 3.542-4.276 5.814.789 9.266 2.974 9.266 4.7 0 3.557-9.588 5-13.75 5-5.662 0-13.75-1.9-13.75-5 0-1.734 3.449-3.914 9.267-4.7 2.079 2.595 3.526 4.257 3.541 4.275a1.25 1.25 0 0 0 .942.429z" transform="translate(-46.191)"/></g></svg>