<svg width="65" height="58" viewBox="0 0 65 58" fill="none" xmlns="http://www.w3.org/2000/svg">
  <path d="M61.2699 7.25409C61.2471 7.23292 61.2242 7.21174 61.2128 7.19057C59.8071 5.8883 57.5328 5.8883 56.1385 7.19057C56.1156 7.21174 56.0928 7.23292 56.0699 7.25409L52.7099 10.5257H6.49278C4.46992 10.5257 2.83563 12.0503 2.83563 13.9137V48.3973C2.83563 50.2713 4.46992 51.7853 6.49278 51.7853H54.8813C56.9042 51.7853 58.5385 50.2713 58.5385 48.3973V14.2525L61.1442 11.955C62.5842 10.6845 62.6413 8.57753 61.2699 7.25409ZM4.57278 13.9243C4.57278 12.9397 5.42992 12.1455 6.49278 12.1455H51.0528L45.6242 17.4288H4.57278V13.9243V13.9243ZM56.8014 48.3973C56.8014 49.382 55.9442 50.176 54.8813 50.176H6.49278C5.42992 50.176 4.57278 49.382 4.57278 48.3973V19.038H43.9671L35.0071 27.7728H8.36706C7.88706 27.7728 7.49849 28.1327 7.49849 28.5774V46.0892C7.49849 46.5339 7.88706 46.8939 8.36706 46.8939H13.8642C13.8756 46.8939 13.8756 46.8939 13.8871 46.8939C13.9099 46.8939 13.9328 46.8939 13.9556 46.8939H53.0299C53.5099 46.8939 53.8985 46.5339 53.8985 46.0892V28.5668C53.8985 28.1221 53.5099 27.7622 53.0299 27.7622H43.2128L49.7499 22.0025C49.7499 22.0025 49.7499 22.0025 49.7614 22.0025L53.1213 19.0274H56.8014V48.3973ZM14.5728 45.2846C14.5613 45.2846 14.5613 45.2846 14.5499 45.2846C14.5271 45.2846 14.5042 45.2846 14.4813 45.2846H9.2242V29.3821H33.3385L32.7213 29.975C31.8299 30.0279 30.9956 30.3773 30.3671 30.9596C29.4185 32.0925 28.7328 33.3947 28.3442 34.7817C27.8413 36.1687 27.5213 37.3757 27.4985 37.4286C27.3842 37.8627 27.6699 38.2968 28.1271 38.4027C28.1956 38.4239 28.2642 38.4238 28.3442 38.4238C28.4128 38.4238 28.4813 38.4133 28.5499 38.4027C28.6071 38.3921 29.9099 38.085 31.4071 37.6192C32.9042 37.2592 34.3099 36.624 35.5328 35.7452C36.1613 35.1629 36.5385 34.3794 36.5956 33.5536L41.3499 29.3609H52.1271V45.274H14.5728V45.2846ZM34.8242 33.7865C34.7442 34.1041 34.5613 34.39 34.3213 34.6123C32.8813 35.4911 31.2813 36.1264 29.5899 36.4757C29.9671 34.9194 30.6528 33.4371 31.6013 32.0925C31.8528 31.8702 32.1613 31.7007 32.4928 31.6266L34.8242 33.7865ZM34.1842 30.9067L35.5442 29.5726L37.0413 30.9596L35.6013 32.2195L34.1842 30.9067ZM38.3099 29.8585L36.7442 28.408L41.9556 23.326L43.7842 25.02L38.3099 29.8585ZM56.8014 17.4182H54.9499L56.8014 15.7771V17.4182ZM60.0471 10.7056C60.0128 10.7374 59.9899 10.7692 59.9556 10.7904H59.9442L48.5499 20.8379C48.5156 20.8697 48.5042 20.9015 48.4813 20.9332C48.5042 20.8697 48.5156 20.8379 48.5042 20.8379L45.0413 23.9189L43.1442 22.1614L57.3156 8.36583C58.0128 7.66706 59.1899 7.63528 59.9328 8.28112C60.6985 8.92696 60.7442 10.0069 60.0471 10.7056Z" fill="#00AFA5"/>
  <path d="M6.86294 14.5C6.84483 14.5 6.83577 14.5 6.81766 14.5H6.80861C6.49167 14.5164 6.24718 14.7548 6.26529 15.0424C6.27434 15.3136 6.51884 15.5273 6.81766 15.5355C7.1346 15.5437 7.3972 15.3218 7.40626 15.0424C7.42437 14.7548 7.17987 14.5164 6.86294 14.5Z" fill="#00AFA5"/>
  <path d="M11.4114 14.5C11.0812 14.5164 10.8265 14.7548 10.8359 15.0425C10.8453 15.3138 11.1001 15.5275 11.4114 15.5357C11.7416 15.5275 11.9964 15.2809 11.9775 15.0014C11.9681 14.7301 11.7133 14.5164 11.4114 14.5Z" fill="#00AFA5"/>
  <path d="M9.12577 14.5C8.79555 14.5164 8.54081 14.7548 8.55024 15.0425C8.55968 15.3138 8.81442 15.5275 9.12577 15.5357C9.45599 15.5275 9.71073 15.2809 9.69186 15.0014C9.68243 14.7301 9.43712 14.5164 9.12577 14.5Z" fill="#00AFA5"/>
  <path d="M43.2414 14.5C43.2168 14.5 43.2045 14.5 43.18 14.5H18.4304C18.0008 14.5083 17.6693 14.7568 17.6938 15.0385C17.7061 15.3118 18.0376 15.5272 18.4304 15.5355H43.18C43.6097 15.5438 43.9657 15.3201 43.9779 15.0385C43.9902 14.7568 43.6588 14.5166 43.2414 14.5Z" fill="#00AFA5"/>
  <path d="M29.1212 24.494C29.1333 24.1319 28.8046 23.8319 28.3905 23.8216C28.3662 23.8216 28.354 23.8216 28.3296 23.8216H7.05618C6.62998 23.8112 6.27685 24.0905 6.26467 24.4423C6.25249 24.7941 6.58128 25.1045 6.9953 25.1149C7.01965 25.1149 7.03183 25.1149 7.05618 25.1149H28.3296C28.7437 25.1355 29.109 24.8562 29.1212 24.494Z" fill="#00AFA5"/>
  <path d="M6.99959 22.0082C7.02409 22.0082 7.03633 22.0082 7.06083 22.0082H31.7536C32.1823 22.0186 32.5375 21.7391 32.5497 21.3871C32.562 21.0248 32.2313 20.7245 31.8148 20.7141C31.7903 20.7141 31.7781 20.7141 31.7536 20.7141H7.06083C6.63214 20.7038 6.27693 20.9833 6.26468 21.3353C6.25244 21.6873 6.5709 21.9875 6.99959 22.0082Z" fill="#00AFA5"/>
</svg>
