<svg height="105" viewBox="0 0 144 105" width="144" xmlns="http://www.w3.org/2000/svg"><g fill="#00af9c"><path d="m-2520.519 1902.825c-3.22 3.434-11.2 7.622-19.641 10.781-9.7 3.631-22.843 6.259-30.651 6.5 7.808-.244 20.95-2.872 30.651-6.5 8.438-3.156 16.421-7.347 19.641-10.781z" transform="translate(2621.823 -1841.609)"/><path d="m-2558.825 1886.446 15.2 12.007z" transform="translate(2643.14 -1870.727)"/><path d="m-2569.72 1909.047c-.6.019-1.171.023-1.7.014.529.009 1.101.005 1.7-.014z" transform="translate(2620.734 -1830.546)"/><path d="m-2565.709 1895.232c-4.9 2.822-8.153 5.652-7.874 7.719-.273-2.067 2.983-4.897 7.874-7.719z" transform="translate(2616.862 -1855.108)"/><path d="m-2558.292 1886.447s-.307.061-.833.18c.525-.119.833-.18.833-.18z" transform="translate(2642.608 -1870.727)"/><path d="m-2560.6 1886.9-.231.057z" transform="translate(2639.579 -1869.914)"/><path d="m-2562.686 1887.5-.339.1z" transform="translate(2635.67 -1868.853)"/><path d="m-2541.633 1888.36c-3.561 1.212-7.4 2.644-11.3 4.305-11.064 4.7-20.343 10.033-26.161 15.29 5.821-5.257 15.1-10.588 26.161-15.29 3.902-1.665 7.739-3.093 11.3-4.305z" transform="translate(2607.094 -1867.325)"/><path d="m-2572.152 1906.117a28.222 28.222 0 0 1 -6.534-1.252 28.222 28.222 0 0 0 6.534 1.252z" transform="translate(2607.815 -1837.982)"/><path d="m-2541.633 1901.181c2.566-.874 4.985-1.631 7.184-2.286.112-.027.229-.067.34-.1 2.178-.642 4.122-1.172 5.766-1.6l.229-.059c2.079-.537 3.624-.895 4.505-1.089.526-.12.831-.181.831-.181l15.2 12c-6-1.143-23.158 1.809-35.1 6.275a91.443 91.443 0 0 0 -13.263 6.122c-4.9 2.823-8.148 5.655-7.876 7.72a1.8 1.8 0 0 0 .243.7c1.934 3.224 9.051 3.154 17.065.623s27.714-9.753 40.9-11.119c1.556-.162 3.087-.261 4.579-.295a31.513 31.513 0 0 1 12.019 1.75v-12.5l-45.041-26-45.041 26v13.63c5.818-5.258 15.1-10.591 26.161-15.292 3.901-1.653 7.738-3.087 11.299-4.299z" transform="translate(2607.094 -1880.148)"/><path d="m-2515.172 1926.257a181.188 181.188 0 0 1 -28.711 9.3c-.621.141-1.054.236-1.276.283l-.167.033-15.2-12.009a12.041 12.041 0 0 0 1.253.167q.686.061 1.488.078c.531.008 1.1.005 1.7-.015 7.808-.245 20.948-2.873 30.65-6.5 8.44-3.161 16.421-7.35 19.642-10.782 1.333-1.425 1.871-2.722 1.252-3.759-1.935-3.219-9.05-3.152-17.065-.618s-27.714 9.749-40.895 11.117a49.485 49.485 0 0 1 -8.932.18 28.146 28.146 0 0 1 -6.537-1.253c-.38-.122-.767-.241-1.13-.383v12.5l45.041 26 45.041-26v-13.63c-5.814 5.255-15.088 10.591-26.154 15.291z" transform="translate(2607.094 -1845.596)"/><path d="m-2565.6 1913.173c-.625.142-1.057.237-1.28.285.222-.049.653-.143 1.28-.285z" transform="translate(2628.815 -1823.21)"/><path d="m-2537.71 1919.609a181.016 181.016 0 0 1 -28.71 9.3 181.258 181.258 0 0 0 28.71-9.3c11.064-4.7 20.34-10.036 26.16-15.29-5.82 5.257-15.096 10.591-26.16 15.29z" transform="translate(2629.633 -1838.95)"/><path d="m-2509.441 1903.056c-1.935-3.224-9.05-3.154-17.066-.621s-27.714 9.751-40.9 11.118a49.429 49.429 0 0 1 -8.93.18 49.475 49.475 0 0 0 8.934-.18c13.18-1.366 32.881-8.585 40.893-11.118s15.131-2.6 17.066.621c.621 1.035.081 2.332-1.252 3.757 1.338-1.425 1.875-2.723 1.255-3.757z" transform="translate(2612 -1845.596)"/><path d="m-2570.47 1909.1c-.533-.011-1.029-.036-1.489-.078.459.044.959.068 1.489.078z" transform="translate(2619.781 -1830.587)"/><path d="m-2522.4 1890.927c-6-1.147-23.161 1.81-35.1 6.276a91.307 91.307 0 0 0 -13.262 6.123 91.307 91.307 0 0 1 13.262-6.123c11.938-4.466 29.1-7.419 35.1-6.276z" transform="translate(2621.914 -1863.201)"/><path d="m-2515.39 1894.672c-13.18 1.366-32.882 8.586-40.894 11.119s-15.133 2.6-17.067-.622a1.942 1.942 0 0 1 -.244-.7 1.942 1.942 0 0 0 .244.7c1.934 3.222 9.054 3.154 17.067.622s27.714-9.752 40.9-11.119c1.553-.162 3.083-.263 4.573-.3-1.489.037-3.022.138-4.579.3z" transform="translate(2616.875 -1856.628)"/><path d="m-2577.963 1905.11c-.38-.123-.767-.243-1.13-.383.363.14.75.259 1.13.383z" transform="translate(2607.094 -1838.227)"/><path d="m-2556.24 1886.512c-.88.193-2.426.552-4.505 1.089 2.078-.537 3.624-.896 4.505-1.089z" transform="translate(2639.724 -1870.612)"/><path d="m-2557.136 1886.926c-1.644.427-3.59.956-5.767 1.6 2.176-.644 4.122-1.174 5.767-1.6z" transform="translate(2635.887 -1869.877)"/><path d="m-2558.425 1887.537c-2.2.652-4.618 1.411-7.186 2.287 2.568-.876 4.986-1.635 7.186-2.287z" transform="translate(2631.07 -1868.789)"/></g><path d="m0 0h144v105h-144z" fill="none" opacity=".3"/></svg>