<svg height="105" viewBox="0 0 144 105" width="144" xmlns="http://www.w3.org/2000/svg"><path d="m301.049 496.876h34.323v3.27h-34.323z" fill="#00a393" transform="translate(-245.167 -488.213)"/><path d="m353.7 530.786h-3.47v-24.266h-3.467v24.266h-4.344a6.056 6.056 0 0 0 -4.23 10.4 6 6 0 0 0 -.914 7.512 5.974 5.974 0 0 0 -3 7.9l.089.191h-13.615a15.587 15.587 0 0 0 -6.7-12.8 10.4 10.4 0 0 0 6.7-9.73 1.745 1.745 0 0 0 -1.72-1.734h-13.867v-17.34h-3.467v17.334a5.2 5.2 0 0 0 -5.2 5.2v38.135h3.468v-38.134a1.734 1.734 0 0 1 1.733-1.734h15.379a6.931 6.931 0 0 1 -6.714 5.2h-5.2a1.735 1.735 0 1 0 -.116 3.467h.116a12.134 12.134 0 0 1 12.122 12.133v1.734a1.732 1.732 0 0 0 1.734 1.734h10.157a5.946 5.946 0 0 0 -.6 2.6 6.066 6.066 0 0 0 6.056 6.066v6.935h3.47v-6.935h7.811a6.022 6.022 0 0 0 5.479-8.69 6.033 6.033 0 0 0 4.9-9.245 6.04 6.04 0 0 0 2.969-8.008 5.852 5.852 0 0 0 -1.327-1.79 6.057 6.057 0 0 0 -4.23-10.4zm-7.8 34.667h-11.271a2.6 2.6 0 1 1 0-5.2h11.271a2.6 2.6 0 1 1 0 5.2zm5.2-8.666h-11.27a2.6 2.6 0 1 1 0-5.2h11.27a2.6 2.6 0 1 1 0 5.2zm2.6-8.668h-11.281a2.6 2.6 0 1 1 0-5.2h11.281a2.6 2.6 0 1 1 0 5.2zm0-8.666h-11.281a2.6 2.6 0 1 1 0-5.2h11.281a2.6 2.6 0 0 1 0 5.2z" fill="#00a393" transform="translate(-253.268 -471.855)"/><path d="m309.094 504.659-1.8-1.361a4.726 4.726 0 0 0 -9.372.865 10.064 10.064 0 0 1 -3.893-1.572l-.612-.4a1.726 1.726 0 0 0 -2.4.439l-.008.011a1.777 1.777 0 0 0 -.3.984v1.421a9.959 9.959 0 0 0 1.8 5.778l-1.308 1.3a1.746 1.746 0 0 0 1.237 2.936h8.4a6.589 6.589 0 0 0 6.5-5.778l1.941-1.965a1.694 1.694 0 0 0 .485-1.34 1.736 1.736 0 0 0 -.671-1.318zm-4.681 2.6a1.709 1.709 0 0 0 -.507 1.213 3.1 3.1 0 0 1 -3.063 3.12h-4.357a1.729 1.729 0 0 0 -.359-1.906 6.6 6.6 0 0 1 -1.674-2.971 13.428 13.428 0 0 0 5.244 1.065 1.732 1.732 0 0 0 1.734-1.734v-1.815a1.272 1.272 0 1 1 2.523-.315 1.533 1.533 0 0 1 .008.224v.091a1.748 1.748 0 0 0 .612 1.375l.833.623-.995 1.03z" fill="#ee7f00" transform="translate(-259.273 -483.863)"/><path d="m308.962 505.039v5.2h-3.467v3.467h3.467v6.932h3.465v-6.932h3.467v-3.467h-3.467v-3.467h3.467v-3.467h-5.2a1.732 1.732 0 0 0 -1.731 1.734z" fill="#ee7f00" transform="translate(-237.632 -477.303)"/><g fill="#fcc000"><path d="m332.84 526.733v-20.8a5.212 5.212 0 0 0 -5.2-5.2h-20.8a5.212 5.212 0 0 0 -5.2 5.2v20.8a5.216 5.216 0 0 0 5.2 5.2h20.8a5.216 5.216 0 0 0 5.2-5.2zm-26 1.734a1.734 1.734 0 0 1 -1.734-1.734v-20.8a1.734 1.734 0 0 1 1.734-1.733h20.8a1.734 1.734 0 0 1 1.734 1.733v20.8a1.734 1.734 0 0 1 -1.734 1.734z" transform="translate(-244.175 -481.666)"/><path d="m319.339 522.878v-20.8a5.214 5.214 0 0 0 -5.2-5.2h-20.8a5.214 5.214 0 0 0 -5.2 5.2v20.8a5.212 5.212 0 0 0 5.2 5.2h20.8a5.212 5.212 0 0 0 5.2-5.2zm-27.736 0v-20.8a1.734 1.734 0 0 1 1.734-1.734h20.8a1.734 1.734 0 0 1 1.734 1.734v20.8a1.734 1.734 0 0 1 -1.734 1.734h-20.8a1.734 1.734 0 0 1 -1.734-1.734z" transform="translate(-263.636 -488.213)"/><path d="m341.14 493.662h-20.8a5.212 5.212 0 0 0 -5.2 5.2v20.8a5.214 5.214 0 0 0 5.2 5.2h20.8a5.215 5.215 0 0 0 5.2-5.2v-20.8a5.212 5.212 0 0 0 -5.2-5.2zm1.734 17.338v8.666a1.734 1.734 0 0 1 -1.734 1.734h-20.8a1.734 1.734 0 0 1 -1.734-1.734v-20.8a1.734 1.734 0 0 1 1.734-1.734h20.8a1.734 1.734 0 0 1 1.734 1.734z" transform="translate(-224.715 -493.662)"/></g><path d="m306.505 519.913h3.271v3.271h-3.271z" fill="#00a393" transform="translate(-235.857 -449.135)"/><path d="m323.359 504.908a5.188 5.188 0 1 1 0 .021zm-6.935 1.734h3.64a8.668 8.668 0 0 0 16.989 0h3.64v-3.467h-3.64a8.668 8.668 0 0 0 -16.989 0h-3.64z" fill="#ee7f00" transform="translate(-222.529 -489.311)"/><path d="m301.049 496.876h34.323v3.27h-34.323z" fill="#00a393" transform="translate(-245.167 -488.213)"/><path d="m353.7 530.786h-3.47v-24.266h-3.467v24.266h-4.344a6.056 6.056 0 0 0 -4.23 10.4 6 6 0 0 0 -.914 7.512 5.974 5.974 0 0 0 -3 7.9l.089.191h-13.615a15.587 15.587 0 0 0 -6.7-12.8 10.4 10.4 0 0 0 6.7-9.73 1.745 1.745 0 0 0 -1.72-1.734h-13.867v-17.34h-3.467v17.334a5.2 5.2 0 0 0 -5.2 5.2v38.135h3.468v-38.134a1.734 1.734 0 0 1 1.733-1.734h15.379a6.931 6.931 0 0 1 -6.714 5.2h-5.2a1.735 1.735 0 1 0 -.116 3.467h.116a12.134 12.134 0 0 1 12.122 12.133v1.734a1.732 1.732 0 0 0 1.734 1.734h10.157a5.946 5.946 0 0 0 -.6 2.6 6.066 6.066 0 0 0 6.056 6.066v6.935h3.47v-6.935h7.811a6.022 6.022 0 0 0 5.479-8.69 6.033 6.033 0 0 0 4.9-9.245 6.04 6.04 0 0 0 2.969-8.008 5.852 5.852 0 0 0 -1.327-1.79 6.057 6.057 0 0 0 -4.23-10.4zm-7.8 34.667h-11.271a2.6 2.6 0 1 1 0-5.2h11.271a2.6 2.6 0 1 1 0 5.2zm5.2-8.666h-11.27a2.6 2.6 0 1 1 0-5.2h11.27a2.6 2.6 0 1 1 0 5.2zm2.6-8.668h-11.281a2.6 2.6 0 1 1 0-5.2h11.281a2.6 2.6 0 1 1 0 5.2zm0-8.666h-11.281a2.6 2.6 0 1 1 0-5.2h11.281a2.6 2.6 0 0 1 0 5.2z" fill="#00a393" transform="translate(-253.268 -471.855)"/><path d="m309.094 504.659-1.8-1.361a4.726 4.726 0 0 0 -9.372.865 10.064 10.064 0 0 1 -3.893-1.572l-.612-.4a1.726 1.726 0 0 0 -2.4.439l-.008.011a1.777 1.777 0 0 0 -.3.984v1.421a9.959 9.959 0 0 0 1.8 5.778l-1.308 1.3a1.746 1.746 0 0 0 1.237 2.936h8.4a6.589 6.589 0 0 0 6.5-5.778l1.941-1.965a1.694 1.694 0 0 0 .485-1.34 1.736 1.736 0 0 0 -.671-1.318zm-4.681 2.6a1.709 1.709 0 0 0 -.507 1.213 3.1 3.1 0 0 1 -3.063 3.12h-4.357a1.729 1.729 0 0 0 -.359-1.906 6.6 6.6 0 0 1 -1.674-2.971 13.428 13.428 0 0 0 5.244 1.065 1.732 1.732 0 0 0 1.734-1.734v-1.815a1.272 1.272 0 1 1 2.523-.315 1.533 1.533 0 0 1 .008.224v.091a1.748 1.748 0 0 0 .612 1.375l.833.623-.995 1.03z" fill="#ee7f00" transform="translate(-259.273 -483.863)"/><path d="m308.962 505.039v5.2h-3.467v3.467h3.467v6.932h3.465v-6.932h3.467v-3.467h-3.467v-3.467h3.467v-3.467h-5.2a1.732 1.732 0 0 0 -1.731 1.734z" fill="#ee7f00" transform="translate(-237.632 -477.303)"/><path d="m332.84 526.733v-20.8a5.212 5.212 0 0 0 -5.2-5.2h-20.8a5.212 5.212 0 0 0 -5.2 5.2v20.8a5.216 5.216 0 0 0 5.2 5.2h20.8a5.216 5.216 0 0 0 5.2-5.2zm-26 1.734a1.734 1.734 0 0 1 -1.734-1.734v-20.8a1.734 1.734 0 0 1 1.734-1.733h20.8a1.734 1.734 0 0 1 1.734 1.733v20.8a1.734 1.734 0 0 1 -1.734 1.734z" fill="#fcc000" transform="translate(-244.175 -481.666)"/><path d="m319.339 522.878v-20.8a5.214 5.214 0 0 0 -5.2-5.2h-20.8a5.214 5.214 0 0 0 -5.2 5.2v20.8a5.212 5.212 0 0 0 5.2 5.2h20.8a5.212 5.212 0 0 0 5.2-5.2zm-27.736 0v-20.8a1.734 1.734 0 0 1 1.734-1.734h20.8a1.734 1.734 0 0 1 1.734 1.734v20.8a1.734 1.734 0 0 1 -1.734 1.734h-20.8a1.734 1.734 0 0 1 -1.734-1.734z" fill="#fcc000" transform="translate(-263.636 -488.213)"/><path d="m341.14 493.662h-20.8a5.212 5.212 0 0 0 -5.2 5.2v20.8a5.214 5.214 0 0 0 5.2 5.2h20.8a5.215 5.215 0 0 0 5.2-5.2v-20.8a5.212 5.212 0 0 0 -5.2-5.2zm1.734 17.338v8.666a1.734 1.734 0 0 1 -1.734 1.734h-20.8a1.734 1.734 0 0 1 -1.734-1.734v-20.8a1.734 1.734 0 0 1 1.734-1.734h20.8a1.734 1.734 0 0 1 1.734 1.734z" fill="#fcc000" transform="translate(-224.715 -493.662)"/><path d="m306.505 519.913h3.271v3.271h-3.271z" fill="#00a393" transform="translate(-235.857 -449.135)"/><path d="m323.359 504.908a5.188 5.188 0 1 1 0 .021zm-6.935 1.734h3.64a8.668 8.668 0 0 0 16.989 0h3.64v-3.467h-3.64a8.668 8.668 0 0 0 -16.989 0h-3.64z" fill="#ee7f00" transform="translate(-222.529 -489.311)"/><path d="m0 0h144v105h-144z" fill="none" opacity=".3"/></svg>