<svg height="105" viewBox="0 0 144 105" width="144" xmlns="http://www.w3.org/2000/svg"><g fill="#00a393"><path d="m457.716 394.067h-46.34a2.168 2.168 0 1 1 0-4.335h46.341a2.168 2.168 0 1 1 0 4.335z" transform="translate(-361.82 -289.067)"/><path d="m518.751 385.8h-119.425v-4.331h119.425z" transform="translate(-386.113 -309.197)"/><path d="m448.54 403.329a2.156 2.156 0 0 1 -.585-.079c-2-.548-5.378-2.386-5.378-5.814v-9.358a2.192 2.192 0 0 1 4.384 0v9.358c0 .733 1.548 1.469 2.161 1.637a2.164 2.164 0 0 1 1.527 2.667 2.186 2.186 0 0 1 -2.109 1.589zm-35.616 0a2.165 2.165 0 0 1 -.585-4.256c.8-.223 2.226-.962 2.226-1.637v-9.358a2.191 2.191 0 0 1 4.381 0v9.358c0 3.434-3.422 5.27-5.444 5.817a2.26 2.26 0 0 1 -.578.075z" transform="translate(-357.997 -298.333)"/><path d="m508.033 451.156h-93.892c-12.225 0-15.453-10.029-15.453-15.331v-59.8c0-12.1 10.108-15.3 15.453-15.3h93.892c12.224 0 15.453 10.012 15.453 15.3v59.8c0 12.125-10.108 15.331-15.453 15.331zm-93.892-86.092c-1.126.01-11.071.388-11.071 10.957v59.8c.011 1.117.391 10.981 11.071 10.981h93.885c1.143-.01 11.074-.4 11.074-10.981v-59.8c-.007-1.113-.388-10.957-11.067-10.957z" transform="translate(-387.689 -359.717)"/></g><path d="m461.707 374.221h-58.163a1.8 1.8 0 1 1 0-3.609h58.163a1.8 1.8 0 1 1 0 3.609z" fill="#ee7f00" transform="translate(-380.222 -335.624)"/><path d="m469.017 376.455h-65.473a1.8 1.8 0 1 1 0-3.609h65.473a1.8 1.8 0 1 1 0 3.609z" fill="#ee7f00" transform="translate(-380.222 -330.183)"/><path d="m449.708 379.007h-46.164a1.8 1.8 0 1 1 0-3.609h46.164a1.8 1.8 0 1 1 0 3.609z" fill="#ee7f00" transform="translate(-380.222 -323.969)"/><path d="m462.378 381.24h-58.834a1.8 1.8 0 1 1 0-3.609h58.834a1.8 1.8 0 1 1 0 3.609z" fill="#ee7f00" transform="translate(-380.222 -318.536)"/><path d="m474.421 376.837h-70.647a2.134 2.134 0 0 1 -2.14-2.116v-8.656a2.132 2.132 0 0 1 2.14-2.116h70.647a2.133 2.133 0 0 1 2.144 2.116v8.656a2.135 2.135 0 0 1 -2.144 2.116zm-.048-10.772-70.6.048.052 8.608 70.547-.051v-8.6z" fill="#98d2d1" transform="translate(-380.434 -351.878)"/><path d="m446.259 420.126h-19.088a2.129 2.129 0 0 1 -2.14-2.113v-51.948a2.13 2.13 0 0 1 2.14-2.116h19.088a2.129 2.129 0 0 1 2.14 2.116v51.948a2.129 2.129 0 0 1 -2.14 2.113zm-.052-54.061-19.036.048.052 51.9 18.984-.055z" fill="#98d2d1" transform="translate(-322.766 -351.878)"/><path d="m0 0h144v105h-144z" fill="none" opacity=".3"/></svg>