<svg height="105" viewBox="0 0 144 105" width="144" xmlns="http://www.w3.org/2000/svg"><g fill="#00a393"><path d="m436.777 486.143h-47.352a2.205 2.205 0 0 1 0-4.411h47.352a2.205 2.205 0 0 1 0 4.411z" transform="translate(-340.878 -381.143)"/><path d="m495.668 477.872h-118.319v-4.41h118.319z" transform="translate(-364.118 -401.246)"/><path d="m427.364 495.84a2.118 2.118 0 0 1 -.587-.082c-2.03-.562-5.467-2.451-5.467-5.973v-9.669a2.205 2.205 0 1 1 4.41 0v9.669c0 .789 1.577 1.542 2.231 1.726a2.2 2.2 0 0 1 -.587 4.329zm-36.389 0a2.205 2.205 0 0 1 -.59-4.329c.778-.223 2.3-.976 2.3-1.726v-9.669a2.2 2.2 0 1 1 4.41 0v9.669c0 3.526-3.483 5.414-5.542 5.977a2.215 2.215 0 0 1 -.58.078z" transform="translate(-336.951 -390.842)"/><path d="m485.167 542.688h-93.15c-12.1 0-15.3-9.96-15.3-15.229v-59.552c0-12.029 10.005-15.206 15.3-15.206h93.151c12.1 0 15.294 9.947 15.294 15.206v59.551c0 12.046-10 15.229-15.294 15.229zm-93.151-85.723c-1.12.007-11.015.383-11.015 10.942v59.551c.007 1.115.385 10.966 11.015 10.966h93.144c1.14-.006 11.018-.39 11.018-10.966v-59.551c-.007-1.111-.385-10.942-11.011-10.942z" transform="translate(-365.719 -451.7)"/></g><path d="m440.135 465.015h-59.429a1.1 1.1 0 1 1 0-2.207h59.429a1.1 1.1 0 1 1 0 2.207z" fill="#98d2d1" transform="translate(-358.405 -427.115)"/><path d="m453.082 467.246h-72.376a1.1 1.1 0 1 1 0-2.2h72.375a1.1 1.1 0 1 1 0 2.2z" fill="#98d2d1" transform="translate(-358.405 -421.678)"/><path d="m427.875 469.8h-47.169a1.1 1.1 0 1 1 0-2.207h47.168a1.1 1.1 0 1 1 0 2.207z" fill="#98d2d1" transform="translate(-358.405 -415.469)"/><path d="m440.821 472.038h-60.115a1.1 1.1 0 1 1 0-2.207h60.115a1.1 1.1 0 1 1 0 2.207z" fill="#98d2d1" transform="translate(-358.405 -410.032)"/><path d="m454.279 469.844h-72.185a2.54 2.54 0 0 1 -2.536-2.536v-8.947a2.54 2.54 0 0 1 2.536-2.536h72.185a2.541 2.541 0 0 1 2.539 2.536v8.947a2.541 2.541 0 0 1 -2.539 2.536zm-71.779-2.938h71.382v-8.141h-71.382z" fill="#fcc000" transform="translate(-358.517 -443.775)"/><path d="m425.007 514.583h-19.507a2.54 2.54 0 0 1 -2.535-2.536v-53.685a2.54 2.54 0 0 1 2.535-2.536h19.5a2.541 2.541 0 0 1 2.54 2.536v53.686a2.541 2.541 0 0 1 -2.54 2.536zm-19.1-2.939h18.7v-52.88h-18.7z" fill="#fcc000" transform="translate(-302.805 -443.775)"/><path d="m0 0h144v105h-144z" fill="none" opacity=".3"/></svg>