<svg height="105" viewBox="0 0 144 105" width="144" xmlns="http://www.w3.org/2000/svg"><path d="m286.845 491.556h-71.845l68.995-20.371a1.587 1.587 0 0 0 1.063-1.958l-3.43-12.135a10.891 10.891 0 0 0 -10.3-7.9 10.36 10.36 0 0 0 -2.976.433l-61.908 18.275a11 11 0 0 0 -7.323 13.547l3.433 11.986v48.829a10.87 10.87 0 0 0 10.729 10.938h24.117a1.587 1.587 0 0 0 0-3.174h-24.16a7.723 7.723 0 0 1 -7.63-7.764v-28.368h79.665v28.365a7.7 7.7 0 0 1 -7.619 7.764h-24.156a1.587 1.587 0 0 0 0 3.174h24.159a10.873 10.873 0 0 0 10.732-10.937v-49.12a1.571 1.571 0 0 0 -1.544-1.585zm-17.665-38.885a7.564 7.564 0 0 1 9.42 5.23l.018.063 3.011 10.588-8.822 2.612-.182-.281a2.732 2.732 0 0 0 -.205-.245l-14.874-14.574 11.634-3.394zm-14.974 4.421.193.278a1.631 1.631 0 0 0 .2.233l14.871 14.573-11.8 3.5-.193-.28a1.4 1.4 0 0 0 -.2-.245l-14.877-14.576 11.807-3.484zm-15.135 4.463.182.28.217.245 14.874 14.562h-.185l-11.611 3.487-.149-.281a2.326 2.326 0 0 0 -.2-.245l-14.918-14.55 11.8-3.5zm-15.126 4.466.185.28a1.407 1.407 0 0 0 .193.245l14.877 14.562-11.8 3.5-.185-.281a.9.9 0 0 0 -.17-.2l-14.874-14.562 11.772-3.546zm-18.816 25.15v-.1l-2.976-10.5a7.816 7.816 0 0 1 5.144-9.687h.006l1.5-.433.185.269a1.3 1.3 0 0 0 .217.245l14.894 14.609-18.966 5.6zm.48 19.562v-16.007h18.942l-.1.173-8.969 15.833zm13.465 0 .091-.173 8.981-15.833h12.154l-.091.173-8.981 15.833zm15.753 0 .1-.173 8.969-15.833h12.229l-.1.173-9.051 15.833zm15.753 0 .1-.173 8.969-15.833h12.17l-.091.173-8.981 15.833zm34.7 0h-18.936l.079-.209 8.977-15.834h9.862l.009 16.042z" fill="#00a393" transform="translate(-170.703 -449.196)"/><path d="m232.366 484.276a1.5 1.5 0 0 0 -.758-1.345l-17.177-9.882a1.526 1.526 0 0 0 -.755-.2 1.5 1.5 0 0 0 -.39 0 1.517 1.517 0 0 0 -.923.712 1.468 1.468 0 0 0 -.2.746v19.893a1.512 1.512 0 0 0 .447 1.114 1.547 1.547 0 0 0 1.823.234l17.177-9.914a1.528 1.528 0 0 0 .758-1.359zm-4.706.088-12.449 7.21v-14.608l.154.1 12.483 7.21z" fill="#fcc000" transform="translate(-144.419 -400.739)"/><path d="m0 0h144v105h-144z" fill="none" opacity=".3"/></svg>