<svg height="105" viewBox="0 0 144 105" width="144" xmlns="http://www.w3.org/2000/svg"><g fill="#98d2d1"><path d="m364.375 285.668h8.461a1.462 1.462 0 0 0 0-2.924h-8.461a1.462 1.462 0 1 0 0 2.924z" transform="translate(-261.197 -266.482)"/><path d="m364.458 288.084h14.289a1.463 1.463 0 0 0 .254-2.915 1.923 1.923 0 0 0 -.254 0h-14.289a1.463 1.463 0 1 0 -.252 2.915 1.276 1.276 0 0 0 .252 0z" transform="translate(-260.231 -260.812)"/><path d="m364.458 290.508h18.681a1.462 1.462 0 0 0 .251-2.913 1.273 1.273 0 0 0 -.251 0h-18.681a1.462 1.462 0 1 0 -.252 2.913 1.257 1.257 0 0 0 .252 0z" transform="translate(-260.231 -256.048)"/><path d="m341.714 290.26h8.458a1.463 1.463 0 0 0 .254-2.916 1.326 1.326 0 0 0 -.254 0h-8.458a1.463 1.463 0 0 0 0 2.916z" transform="translate(-306.355 -256.539)"/><path d="m341.714 292.68h14.286a1.463 1.463 0 1 0 .252-2.915 1.933 1.933 0 0 0 -.252 0h-14.286a1.463 1.463 0 0 0 0 2.915z" transform="translate(-306.355 -251.783)"/></g><path d="m436.25 277.284h-24.2a5.258 5.258 0 0 0 -5.213 5.269v14.108h-60.085a9.176 9.176 0 0 0 -9.246 9.107v47.84a9.246 9.246 0 0 0 9.246 9.246h19.248l-1.71 7.187h-3.607a7.272 7.272 0 0 0 -7.27 7.258v2.438a1.551 1.551 0 0 0 1.55 1.547h56.876a1.548 1.548 0 0 0 1.539-1.536v-2.462a7.273 7.273 0 0 0 -7.258-7.27h-3.615l-1.71-7.222h19.249a9.243 9.243 0 0 0 9.246-9.243v-22.521h6.932a5.259 5.259 0 0 0 5.281-5.213v-43.264a5.267 5.267 0 0 0 -5.258-5.269zm-26.359 5.269a2.162 2.162 0 0 1 2.163-2.163h24.2a2.161 2.161 0 0 1 2.16 2.163v2.459h-28.523zm-3.767 90.562a4.171 4.171 0 0 1 4.184 4.16v.9h-53.792v-.891a4.16 4.16 0 0 1 4.148-4.172h45.461zm-38.653-3.086 1.71-7.234h28.419l1.722 7.189-31.848.045zm52.588-10.273h-73.307a6.159 6.159 0 0 1 -6.125-5.512h85.513a6.149 6.149 0 0 1 -6.08 5.512zm6.148-8.6h-85.615v-45.341a6.081 6.081 0 0 1 6.08-6.057h60.169v26.058a5.259 5.259 0 0 0 5.246 5.258h14.122v20.084zm12.2-25.342a2.161 2.161 0 0 1 -2.16 2.163h-24.2a2.162 2.162 0 0 1 -2.163-2.163v-2.504h28.526v2.506zm0-5.545h-28.516v-32.169h28.531l-.012 32.173z" fill="#00a393" transform="translate(-311.506 -276.284)"/><path d="m360.392 292.188h-18.678a1.461 1.461 0 0 0 0 2.913h18.678a1.462 1.462 0 1 0 .252-2.913 1.274 1.274 0 0 0 -.252 0z" fill="#98d2d1" transform="translate(-306.355 -247.028)"/><path d="m374.842 302.4-21.552-9.923a1.461 1.461 0 0 0 -2.007 1.767l7.3 23.058a1.453 1.453 0 0 0 2.776 0l3.273-10 9.979-2.186a1.462 1.462 0 0 0 .293-2.751l-.064.034zm-11.726 2.239a1.446 1.446 0 0 0 -1.09.981l-2.1 6.474-4.892-15.578 14.631 6.714-6.552 1.409z" fill="#fcc000" transform="translate(-283.909 -245.904)"/><path d="m0 0h144v105h-144z" fill="none" opacity=".3"/></svg>