<svg id="illustration_about_48px" xmlns="http://www.w3.org/2000/svg" width="48" height="48" viewBox="0 0 48 48">
  <g id="illustration_about" transform="translate(1.714 4.286)">
    <g id="Group_3191" data-name="Group 3191" transform="translate(21.081 28.901)">
      <g id="Group_3190" data-name="Group 3190">
        <path id="Path_3786" data-name="Path 3786" d="M247.205,366a1.2,1.2,0,1,0,1.205,1.2A1.2,1.2,0,0,0,247.205,366Z" transform="translate(-246 -366)" fill="#00af9c"/>
      </g>
    </g>
    <g id="Group_3193" data-name="Group 3193">
      <g id="Group_3192" data-name="Group 3192">
        <path id="Path_3787" data-name="Path 3787" d="M41.96,32.921H37.085V30.758a3,3,0,0,0-.892-2.141,3.06,3.06,0,0,0-3.608-.519,3.053,3.053,0,0,0-5.074-1.187l-.023-.024a3.057,3.057,0,0,0-4.331.025,3.049,3.049,0,0,0-5.223,2.116v3.893H7.831c-.03,0-.059,0-.089.005l-.029,0-.064.011-.031.007-.063.019-.027.01c-.023.009-.045.018-.067.029l-.015.006-.014.007h0L.481,36.473a.863.863,0,0,0,0,1.548l6.948,3.452h0l.014.007.014.006c.022.011.045.02.068.029l.027.009.064.019.03.007.066.012.028,0a.913.913,0,0,0,.093.005h6.143A6.054,6.054,0,0,0,15.365,43.7L18.4,46.72a4.283,4.283,0,0,1,1.275,3.058v2.176H18.8a.868.868,0,0,0-.871.865V64.931a.868.868,0,0,0,.871.865H36.214a.868.868,0,0,0,.871-.865V52.819a.868.868,0,0,0-.871-.865h-.871V49.563a7.344,7.344,0,0,1,.7-3.119,9.608,9.608,0,0,0,1.04-4.133v-.738H41.96a2.606,2.606,0,0,0,2.612-2.6V35.516A2.606,2.606,0,0,0,41.96,32.921Zm-9.228-2.163a1.308,1.308,0,0,1,2.229-.918,1.285,1.285,0,0,1,.382.918v4.326a1.306,1.306,0,0,1-2.612,0Zm-4.353,3.028V29.028a1.306,1.306,0,0,1,2.612,0v6.056a1.306,1.306,0,0,1-2.612,0Zm-4.353-4.758a1.308,1.308,0,0,1,2.229-.918,1.285,1.285,0,0,1,.382.918v3.893H24.027Zm-4.353,0a1.306,1.306,0,0,1,2.612,0v3.893H19.674ZM7.619,39.633l-4.8-2.386,4.8-2.386A4.018,4.018,0,0,1,7.619,39.633Zm5.961-.656v.446c0,.14.005.28.015.42H9.525a5.752,5.752,0,0,0,0-5.191h5.885a6.043,6.043,0,0,0-1.829,4.326ZM35.344,64.066H19.674V53.684h15.67Zm0-21.755a7.945,7.945,0,0,1-.875,3.4,9.078,9.078,0,0,0-.866,3.855v2.391H21.415V49.778A6,6,0,0,0,19.631,45.5L16.6,42.481a4.313,4.313,0,0,1-1.275-3.058v-.446a4.332,4.332,0,0,1,3.637-4.266,4.386,4.386,0,0,1,.716-.059h6.855a3.481,3.481,0,0,1-3.372,2.6H20.545a.865.865,0,0,0-.15,1.717A5.4,5.4,0,0,1,23.919,41.2l.006.008a5.352,5.352,0,0,1,.964,3.041L24.9,45.9a.868.868,0,0,0,.87.861h0a.868.868,0,0,0,.866-.87l-.009-1.652a7.068,7.068,0,0,0-.536-2.669h9.25Zm4-2.468H25.07a7.17,7.17,0,0,0-.922-.958,5.2,5.2,0,0,0,2.7-1.428,5.284,5.284,0,0,0,.443-.5,3.053,3.053,0,0,0,4.57.246,3.049,3.049,0,0,0,5.223-2.116v-.433h2.263Zm3.482-.865a.869.869,0,0,1-.871.865h-.871V34.651h.871a.869.869,0,0,1,.871.865Z" transform="translate(0 -26)" fill="#00af9c"/>
      </g>
    </g>
  </g>
  <rect id="Rectangle_3892" data-name="Rectangle 3892" width="48" height="48" fill="none"/>
</svg>
