<svg id="illustration_directory_accessibility_48px" xmlns="http://www.w3.org/2000/svg" width="48" height="48" viewBox="0 0 48 48">
  <g id="_708954" data-name="708954" transform="translate(-75.02 -61.203)">
    <g id="Group_22232" data-name="Group 22232" transform="translate(77.022 77.565)">
      <g id="Group_22231" data-name="Group 22231" transform="translate(0)">
        <path id="Path_28408" data-name="Path 28408" d="M110.139,215.81h0a2.636,2.636,0,0,0-2.549-1.971,2.646,2.646,0,0,0-2.275,1.3A12.356,12.356,0,1,1,86.6,199.525a2.636,2.636,0,1,0-3.435-4,17.627,17.627,0,1,0,26.693,22.282A2.618,2.618,0,0,0,110.139,215.81Zm-1.817,1.095a15.842,15.842,0,1,1-23.99-20.024.85.85,0,0,1,1.2.091.85.85,0,0,1-.091,1.2,14.141,14.141,0,1,0,21.415,17.873.85.85,0,0,1,1.164-.3.85.85,0,0,1,.3,1.164Z" transform="translate(-77.022 -194.89)" fill="#00af9c"/>
      </g>
    </g>
    <g id="Group_22234" data-name="Group 22234" transform="translate(85.208 61.203)">
      <g id="Group_22233" data-name="Group 22233" transform="translate(0 0)">
        <path id="Path_28409" data-name="Path 28409" d="M148.434,61.2a4.53,4.53,0,1,0,4.53,4.53A4.535,4.535,0,0,0,148.434,61.2Zm0,7.274a2.744,2.744,0,1,1,2.744-2.744A2.747,2.747,0,0,1,148.434,68.477Z" transform="translate(-143.904 -61.203)" fill="#00af9c"/>
      </g>
    </g>
    <g id="Group_22236" data-name="Group 22236" transform="translate(88.055 71.069)">
      <g id="Group_22235" data-name="Group 22235" transform="translate(0 0)">
        <path id="Path_28410" data-name="Path 28410" d="M198.506,165.653h-4.217l-4.747-9.995a2.528,2.528,0,0,0-2.273-1.437H174.661l-.419-2.893h7.428a2.358,2.358,0,0,0,2.369-2.279,2.322,2.322,0,0,0-2.322-2.365h-8.149l-.326-2.253a3.053,3.053,0,1,0-6.042.882l1.7,11.547c.23,1.654,1.9,2.394,3.454,2.394h13.325l4.747,9.995a2.528,2.528,0,0,0,2.273,1.437h5.859a2.529,2.529,0,0,0,1.818-.777,2.5,2.5,0,0,0,.7-1.853A2.538,2.538,0,0,0,198.506,165.653Zm.58,3.023a.725.725,0,0,1-.528.226H192.7a.735.735,0,0,1-.661-.418l-4.99-10.5a.893.893,0,0,0-.806-.51H172.352c-.436,0-1.588-.153-1.686-.861l-1.7-11.554a1.27,1.27,0,0,1,1.067-1.438,1.287,1.287,0,0,1,.189-.014,1.268,1.268,0,0,1,1.252,1.086l.437,3.018a.893.893,0,0,0,.884.765h8.921a.537.537,0,0,1,.536.547.572.572,0,0,1-.584.526h-8.46a.893.893,0,0,0-.884,1.021l.586,4.049a1.637,1.637,0,0,0,1.611,1.395h12.743a.735.735,0,0,1,.661.417l4.99,10.5a.893.893,0,0,0,.806.51h4.781a.766.766,0,0,1,.781.7A.727.727,0,0,1,199.085,168.675Z" transform="translate(-167.168 -141.816)" fill="#00af9c"/>
      </g>
    </g>
  </g>
  <rect id="Rectangle_12080" data-name="Rectangle 12080" width="48" height="48" transform="translate(0 0)" fill="none"/>
</svg>
