<svg width="39" height="39" viewBox="0 0 39 39" fill="none" xmlns="http://www.w3.org/2000/svg">
    <circle cx="19.5" cy="19.5" r="19.5" fill="#00AFA5" />
    <path
        d="M19.3676 28.1666C19.2023 28.0013 19.107 27.7788 19.1007 27.5308L19.1048 12.2705C19.1049 11.7745 19.5056 11.3738 20.0016 11.3737C20.4976 11.3735 20.8981 11.774 20.8979 12.27L20.8938 27.5303C20.8937 28.0263 20.493 28.427 19.997 28.4272C19.749 28.4336 19.5329 28.3319 19.3676 28.1666Z"
        fill="white" />
    <path
        d="M11.7331 19.267C11.8983 19.1017 12.1208 19.0064 12.3688 19.0001L27.6292 19.0042C28.1251 19.0043 28.5258 19.405 28.526 19.901C28.5261 20.3969 28.1256 20.7974 27.6297 20.7973L12.3693 20.7932C11.8733 20.7931 11.4726 20.3923 11.4725 19.8964C11.4661 19.6484 11.5678 19.4322 11.7331 19.267Z"
        fill="white" />
</svg>