<svg xmlns="http://www.w3.org/2000/svg" width="56" height="56" viewBox="0 0 56 56"><g transform="translate(-65.979 2)"><g transform="translate(75.979)"><g transform="translate(0)"><path d="M111.206,5.992h-9.269V2.913a.773.773,0,0,0-.773-.773h-3.8V.773A.773.773,0,0,0,96.59,0H90.249a.773.773,0,0,0-.773.773V2.14H86.252a.773.773,0,0,0-.773.773V5.992H76.752a.773.773,0,0,0-.773.773v3.21a.773.773,0,0,0,1.546,0V7.538h7.954V9.975a.773.773,0,0,0,.773.773h14.911a.773.773,0,0,0,.773-.773V7.538h8.5V49.647H77.525V8.676a.773.773,0,0,0-1.546,0V50.42a.773.773,0,0,0,.773.773h34.454a.773.773,0,0,0,.773-.773V6.765A.773.773,0,0,0,111.206,5.992ZM91.022,1.546h4.795V2.14H91.022ZM100.39,9.2H87.025V3.686H100.39Z" transform="translate(-75.979)" fill="#00af9c"/></g></g><g transform="translate(88.51 16.791)"><g transform="translate(0)"><path d="M218.751,167.931H202.083a.773.773,0,0,0,0,1.546h16.668a.773.773,0,0,0,0-1.546Z" transform="translate(-201.31 -167.931)" fill="#00af9c"/></g></g><g transform="translate(88.51 25.273)"><g transform="translate(0)"><path d="M218.751,252.758H202.083a.773.773,0,0,0,0,1.546h16.668a.773.773,0,0,0,0-1.546Z" transform="translate(-201.31 -252.758)" fill="#00af9c"/></g></g><g transform="translate(88.51 33.754)"><g transform="translate(0)"><path d="M218.751,337.584H202.083a.773.773,0,1,0,0,1.546h16.668a.773.773,0,1,0,0-1.546Z" transform="translate(-201.31 -337.584)" fill="#00af9c"/></g></g><g transform="translate(88.51 42.236)"><g transform="translate(0)"><path d="M218.751,422.411H202.083a.773.773,0,1,0,0,1.546h16.668a.773.773,0,1,0,0-1.546Z" transform="translate(-201.31 -422.411)" fill="#00af9c"/></g></g><g transform="translate(81.03 14.748)"><g transform="translate(0)"><path d="M131.545,147.5h-4.273a.773.773,0,0,0-.773.773v4.38a.773.773,0,0,0,.773.773h4.273a.773.773,0,0,0,.773-.773v-4.38A.773.773,0,0,0,131.545,147.5Zm-.773,4.273h-2.727v-2.62h2.727Z" transform="translate(-126.499 -147.499)" fill="#00af9c"/></g></g><g transform="translate(81.03 23.415)"><g transform="translate(0)"><path d="M131.545,234.179h-4.273a.773.773,0,0,0-.773.773v4.273a.773.773,0,0,0,.773.773h4.273a.773.773,0,0,0,.773-.773v-4.273A.773.773,0,0,0,131.545,234.179Zm-.773,4.273h-2.727v-2.727h2.727Z" transform="translate(-126.499 -234.179)" fill="#00af9c"/></g></g><g transform="translate(81.03 31.868)"><g transform="translate(0)"><path d="M131.545,318.718h-4.273a.773.773,0,0,0-.773.773v4.273a.773.773,0,0,0,.773.773h4.273a.773.773,0,0,0,.773-.773v-4.273A.773.773,0,0,0,131.545,318.718Zm-.773,4.273h-2.727v-2.727h2.727Z" transform="translate(-126.499 -318.718)" fill="#00af9c"/></g></g><g transform="translate(81.03 40.428)"><g transform="translate(0)"><path d="M131.545,404.328h-4.273a.773.773,0,0,0-.773.773v4.273a.773.773,0,0,0,.773.773h4.273a.773.773,0,0,0,.773-.773V405.1A.773.773,0,0,0,131.545,404.328Zm-.773,4.273h-2.727v-2.727h2.727Z" transform="translate(-126.499 -404.328)" fill="#00af9c"/></g></g></g><rect width="56" height="56" fill="none"/></svg>