<svg xmlns="http://www.w3.org/2000/svg" width="48" height="48.001" viewBox="0 0 48 48.001"><defs><style>.a{fill:#f7c01a;}</style></defs><g transform="translate(8.669 13.687)"><path class="a" d="M123.086,179.071l-2.351-6.937a.937.937,0,0,0-.888-.637h-.136V157.9a11.906,11.906,0,1,0-23.813,0v13.6h-.136a.937.937,0,0,0-.888.637l-2.351,6.938a.937.937,0,0,0,.888,1.238H122.2a.937.937,0,0,0,.888-1.238ZM97.773,157.9a10.031,10.031,0,1,1,20.062,0v13.6H97.773Zm-3.055,20.533,1.715-5.062h22.741l1.715,5.062Z" transform="translate(-92.474 -145.995)"/></g><g transform="translate(23.062)"><path class="a" d="M246.938,0A.938.938,0,0,0,246,.938V6.563a.938.938,0,1,0,1.875,0V.938A.938.938,0,0,0,246.938,0Z" transform="translate(-246)"/></g><g transform="translate(23.062 9.278)"><path class="a" d="M247.6,99.238a.938.938,0,1,0,.275.664A.943.943,0,0,0,247.6,99.238Z" transform="translate(-246 -98.964)"/></g><g transform="translate(3.711 25.094)"><path class="a" d="M44.829,267.66h-4.3a.938.938,0,0,0,0,1.875h4.3a.938.938,0,1,0,0-1.875Z" transform="translate(-39.587 -267.66)"/></g><g transform="translate(0 25.094)"><path class="a" d="M1.607,267.935a.937.937,0,0,0-1.326,0,.938.938,0,0,0,.663,1.6.937.937,0,0,0,.663-1.6Z" transform="translate(-0.007 -267.66)"/></g><g transform="translate(14.613 4.696)"><path class="a" d="M158.952,53.74l-1.271-3.068a.938.938,0,0,0-1.732.718l1.271,3.068a.938.938,0,1,0,1.732-.718Z" transform="translate(-155.877 -50.093)"/></g><g transform="translate(2.665 16.645)"><path class="a" d="M32.795,178.882l-3.068-1.271a.938.938,0,1,0-.718,1.732l3.068,1.271a.938.938,0,0,0,.718-1.732Z" transform="translate(-28.43 -177.54)"/></g><g transform="translate(38.5 25.094)"><path class="a" d="M415.9,267.66h-4.3a.938.938,0,1,0,0,1.875h4.3a.938.938,0,1,0,0-1.875Z" transform="translate(-410.662 -267.66)"/></g><g transform="translate(46.125 25.094)"><path class="a" d="M493.593,267.935a.937.937,0,1,0,.275.663A.944.944,0,0,0,493.593,267.935Z" transform="translate(-491.993 -267.66)"/></g><g transform="translate(36.326 7.217)"><path class="a" d="M393.687,77.255a.938.938,0,0,0-1.326,0l-4.613,4.613a.938.938,0,0,0,1.326,1.326l4.613-4.613A.938.938,0,0,0,393.687,77.255Z" transform="translate(-387.473 -76.981)"/></g><g transform="translate(5.186 7.217)"><path class="a" d="M61.535,81.87l-4.613-4.613A.938.938,0,1,0,55.6,78.583L60.209,83.2a.938.938,0,0,0,1.326-1.326Z" transform="translate(-55.321 -76.983)"/></g><g transform="translate(30.24 4.696)"><path class="a" d="M325.129,50.165a.938.938,0,0,0-1.225.507l-1.271,3.068a.938.938,0,1,0,1.732.718l1.271-3.068A.938.938,0,0,0,325.129,50.165Z" transform="translate(-322.561 -50.094)"/></g><g transform="translate(40.392 16.645)"><path class="a" d="M435.714,178.117a.938.938,0,0,0-1.225-.507l-3.068,1.271a.938.938,0,1,0,.718,1.732l3.068-1.271A.938.938,0,0,0,435.714,178.117Z" transform="translate(-430.842 -177.539)"/></g><g transform="translate(21.188 19.595)"><path class="a" d="M228.813,209.008A2.816,2.816,0,0,0,226,211.82v4.5a2.812,2.812,0,1,0,5.625,0v-4.5A2.816,2.816,0,0,0,228.813,209.008Zm.938,7.313a.938.938,0,0,1-1.875,0v-4.5a.938.938,0,0,1,1.875,0Z" transform="translate(-226.001 -209.008)"/></g><g transform="translate(21.188 31.595)"><path class="a" d="M228.813,337.005a2.812,2.812,0,1,0,2.812,2.812A2.816,2.816,0,0,0,228.813,337.005Zm0,3.75a.938.938,0,1,1,.938-.938A.939.939,0,0,1,228.813,340.755Z" transform="translate(-226.001 -337.005)"/></g></svg>