<svg xmlns="http://www.w3.org/2000/svg" width="88.393" height="74.205" viewBox="0 0 88.393 74.205"><defs><style>.a{fill:#00af9c;}</style></defs><g transform="translate(0)"><path class="a" d="M21.169,74.205a5.279,5.279,0,0,1-5.286-5.259V51.182H8.114a1.717,1.717,0,1,1,0-3.435h7.769V28.677a1.712,1.712,0,0,1,.635-1.33l9.511-7.737V5.26A5.279,5.279,0,0,1,31.314,0H72.962a5.279,5.279,0,0,1,5.286,5.26V19.611l9.511,7.737a1.714,1.714,0,0,1,.634,1.33V68.947a5.278,5.278,0,0,1-5.286,5.259Zm.432-3.435H82.675L61.739,49.94l-8.556,6.474a1.739,1.739,0,0,1-2.09,0L42.537,49.94Zm42.911-22.93L84.94,68.165V32.39ZM19.336,68.165,39.763,47.841,19.336,32.39ZM29.481,5.26V20.432h0V35.749L52.138,52.887,74.8,35.749V5.26a1.833,1.833,0,0,0-1.834-1.825H31.314A1.832,1.832,0,0,0,29.481,5.26ZM78.248,33.135l5.789-4.378-5.789-4.709ZM20.239,28.757l5.789,4.378V24.048ZM1.727,62.176a1.717,1.717,0,1,1,0-3.435h9.322a1.717,1.717,0,1,1,0,3.435Zm36.4-37.271A14.007,14.007,0,1,1,52.138,38.843,13.986,13.986,0,0,1,38.131,24.905Zm3.453,0A10.554,10.554,0,1,0,52.138,14.4,10.539,10.539,0,0,0,41.584,24.905Zm8.471,3.876L47.007,25.75a1.712,1.712,0,0,1,0-2.43,1.731,1.731,0,0,1,2.441,0l1.827,1.818L55.4,21.031a1.734,1.734,0,0,1,2.442,0,1.714,1.714,0,0,1,0,2.43L52.5,28.781a1.731,1.731,0,0,1-2.441,0Z" transform="translate(0)"/></g></svg>