<svg id="illustration_empty_64px" xmlns="http://www.w3.org/2000/svg" width="64" height="64" viewBox="0 0 64 64">
  <g id="Group_8613" data-name="Group 8613" transform="translate(1.143 2.287)">
    <path id="Path_3913" data-name="Path 3913" d="M54.854,20.806,61.362,14.3a1.205,1.205,0,0,0-.272-1.909L44.742,3.438a1.205,1.205,0,1,0-1.16,2.113l14.941,8.178-5.586,5.585L32.847,8.282,38.432,2.7l5.646,3.1a1.205,1.205,0,0,0,1.16-2.113L38.8.148a1.2,1.2,0,0,0-1.432.2L30.858,6.862,24.349.353a1.206,1.206,0,0,0-1.432-.2L.626,12.389A1.205,1.205,0,0,0,.354,14.3l6.509,6.509L.354,27.314a1.205,1.205,0,0,0,.272,1.909l6.736,3.7V45.285a1.206,1.206,0,0,0,.625,1.057l22.291,12.24a1.205,1.205,0,0,0,1.16,0l22.291-12.24a1.206,1.206,0,0,0,.625-1.057V32.922l6.736-3.7a1.205,1.205,0,0,0,.272-1.909Zm-24,10.864L11.072,20.805,30.858,9.94,50.644,20.805ZM23.285,2.7l5.585,5.585L8.78,19.314,3.194,13.729ZM8.781,22.3,28.87,33.329l-5.586,5.586L3.194,27.883ZM51.944,44.572,32.063,55.488V34.75a1.205,1.205,0,1,0-2.411,0V55.488L9.773,44.572V34.246l13.144,7.218a1.205,1.205,0,0,0,1.432-.2l6.509-6.509,6.509,6.509a1.205,1.205,0,0,0,1.432.2l13.144-7.218ZM38.432,38.915l-5.586-5.586L52.936,22.3l5.586,5.585Zm0,0" transform="translate(-0.001 0)" fill="#16af9c"/>
  </g>
  <rect id="Rectangle_3899" data-name="Rectangle 3899" width="64" height="64" fill="none"/>
</svg>
