<svg width="64" height="64" viewBox="0 0 64 64" fill="none" xmlns="http://www.w3.org/2000/svg">
<path d="M55.2503 33.6856V8.009C55.2494 7.09754 54.8869 6.22367 54.2424 5.57917C53.5979 4.93467 52.724 4.5722 51.8126 4.57129H3.43771C2.52625 4.5722 1.65239 4.93467 1.00789 5.57917C0.363386 6.22367 0.000907679 7.09754 0 8.009L0 46.8833C0.000907679 47.7948 0.363386 48.6686 1.00789 49.3131C1.65239 49.9576 2.52625 50.3201 3.43771 50.321H8.33371C8.58241 50.321 8.82092 50.2222 8.99678 50.0464C9.17263 49.8705 9.27143 49.632 9.27143 49.3833C9.27143 49.1346 9.17263 48.8961 8.99678 48.7202C8.82092 48.5444 8.58241 48.4456 8.33371 48.4456H3.43771C3.02346 48.4453 2.62627 48.2806 2.33335 47.9877C2.04043 47.6947 1.87573 47.2975 1.87543 46.8833V13.0719H53.3714V33.1301C50.0157 32.399 46.5074 32.9757 43.5623 34.7427C42.8925 35.1036 42.2637 35.5358 41.6869 36.0319C39.1368 38.2513 37.5012 41.3383 37.0971 44.6947H5.62514V16.8216H49.6251V33.1301C49.6251 33.3788 49.7239 33.6174 49.8998 33.7932C50.0756 33.9691 50.3142 34.0679 50.5629 34.0679C50.8116 34.0679 51.0501 33.9691 51.2259 33.7932C51.4018 33.6174 51.5006 33.3788 51.5006 33.1301V16.5084C51.5003 16.095 51.3362 15.6985 51.0443 15.4057C50.7523 15.1129 50.3563 14.9477 49.9429 14.9461H5.312C4.89775 14.9464 4.50055 15.1111 4.20763 15.4041C3.91471 15.697 3.75002 16.0942 3.74971 16.5084V45.009C3.75002 45.4233 3.91471 45.8205 4.20763 46.1134C4.50055 46.4063 4.89775 46.571 5.312 46.5713H37.0034C37.0145 47.1995 37.0695 47.8262 37.168 48.4467H6.79657C6.54787 48.4467 6.30936 48.5455 6.13351 48.7214C5.95765 48.8972 5.85886 49.1357 5.85886 49.3844C5.85886 49.6331 5.95765 49.8716 6.13351 50.0475C6.30936 50.2234 6.54787 50.3222 6.79657 50.3222H37.6C38.2791 52.5105 39.5041 54.4899 41.1594 56.0742C42.8148 57.6584 44.8461 58.7952 47.0621 59.3777C49.2781 59.9601 51.6059 59.9689 53.8263 59.4034C56.0467 58.8378 58.0866 57.7164 59.754 56.1448C61.4213 54.5732 62.6612 52.6031 63.357 50.4201C64.0528 48.237 64.1814 45.9127 63.731 43.6662C63.2805 41.4196 62.2656 39.3247 60.782 37.5786C59.2983 35.8325 57.3947 34.4928 55.2503 33.6856ZM1.87543 11.1999V8.009C1.87573 7.59475 2.04043 7.19755 2.33335 6.90463C2.62627 6.61172 3.02346 6.44702 3.43771 6.44672H51.8126C52.2262 6.44793 52.6225 6.61302 52.9147 6.90584C53.2069 7.19867 53.3711 7.59535 53.3714 8.009V11.1999H1.87543ZM50.5006 57.9427C48.2011 57.9429 45.9533 57.2612 44.0413 55.9838C42.1294 54.7064 40.6392 52.8907 39.7592 50.7663C38.8792 48.6419 38.6491 46.3043 39.0978 44.0491C39.5465 41.7938 40.6539 39.7223 42.28 38.0965C43.9061 36.4708 45.9778 35.3637 48.2332 34.9155C50.4885 34.4672 52.8261 34.6978 54.9503 35.5782C57.0745 36.4586 58.8899 37.9491 60.167 39.8614C61.444 41.7736 62.1253 44.0216 62.1246 46.321C62.1203 49.4024 60.8942 52.3563 58.7152 54.5349C56.5361 56.7136 53.5819 57.9391 50.5006 57.9427Z" fill="#FF5A5F"/>
<path d="M5.4993 7.69629C5.27688 7.69629 5.05946 7.76224 4.87452 7.88581C4.68959 8.00938 4.54545 8.18502 4.46033 8.39051C4.37521 8.59599 4.35294 8.82211 4.39633 9.04025C4.43973 9.2584 4.54683 9.45878 4.70411 9.61605C4.86138 9.77333 5.06176 9.88043 5.27991 9.92382C5.49805 9.96722 5.72417 9.94494 5.92965 9.85983C6.13514 9.77471 6.31078 9.63057 6.43435 9.44564C6.55792 9.2607 6.62387 9.04328 6.62387 8.82086C6.62357 8.5227 6.50499 8.23684 6.29416 8.026C6.08332 7.81517 5.79746 7.69659 5.4993 7.69629Z" fill="#FF5A5F"/>
<path d="M10.249 7.69629C10.0266 7.69629 9.80918 7.76224 9.62424 7.88581C9.43931 8.00938 9.29517 8.18502 9.21006 8.39051C9.12494 8.59599 9.10267 8.82211 9.14606 9.04025C9.18945 9.2584 9.29656 9.45878 9.45383 9.61605C9.61111 9.77333 9.81148 9.88043 10.0296 9.92382C10.2478 9.96722 10.4739 9.94494 10.6794 9.85983C10.8849 9.77471 11.0605 9.63057 11.1841 9.44564C11.3076 9.2607 11.3736 9.04328 11.3736 8.82086C11.3733 8.5227 11.2547 8.23684 11.0439 8.026C10.8331 7.81517 10.5472 7.69659 10.249 7.69629Z" fill="#FF5A5F"/>
<path d="M15.0001 7.69629C14.7777 7.69629 14.5603 7.76224 14.3753 7.88581C14.1904 8.00938 14.0463 8.18502 13.9612 8.39051C13.876 8.59599 13.8538 8.82211 13.8972 9.04025C13.9405 9.2584 14.0477 9.45878 14.2049 9.61605C14.3622 9.77333 14.5626 9.88043 14.7807 9.92382C14.9989 9.96722 15.225 9.94494 15.4305 9.85983C15.636 9.77471 15.8116 9.63057 15.9352 9.44564C16.0587 9.2607 16.1247 9.04328 16.1247 8.82086C16.1244 8.5227 16.0058 8.23684 15.795 8.026C15.5842 7.81517 15.2983 7.69659 15.0001 7.69629Z" fill="#FF5A5F"/>
<path d="M45.0616 42.8438C44.8131 42.8438 44.5747 42.9425 44.3989 43.1182C44.2232 43.294 44.1245 43.5324 44.1245 43.7809V46.6563C44.1245 46.905 44.2233 47.1436 44.3991 47.3194C44.575 47.4953 44.8135 47.594 45.0622 47.594C45.3109 47.594 45.5494 47.4953 45.7252 47.3194C45.9011 47.1436 45.9999 46.905 45.9999 46.6563V43.7855C46.0005 43.6619 45.9767 43.5395 45.9298 43.4252C45.8829 43.3109 45.8138 43.207 45.7266 43.1195C45.6394 43.0319 45.5358 42.9625 45.4216 42.9152C45.3075 42.8679 45.1852 42.8436 45.0616 42.8438Z" fill="#FF5A5F"/>
<path d="M55.9372 42.8438C55.6886 42.8438 55.4502 42.9425 55.2745 43.1182C55.0987 43.294 55 43.5324 55 43.7809V46.6563C55 46.905 55.0988 47.1436 55.2747 47.3194C55.4505 47.4953 55.689 47.594 55.9377 47.594C56.1864 47.594 56.4249 47.4953 56.6008 47.3194C56.7767 47.1436 56.8754 46.905 56.8754 46.6563V43.7855C56.876 43.6619 56.8522 43.5395 56.8053 43.4252C56.7584 43.3109 56.6894 43.207 56.6022 43.1195C56.515 43.0319 56.4113 42.9625 56.2972 42.9152C56.1831 42.8679 56.0607 42.8436 55.9372 42.8438Z" fill="#FF5A5F"/>
<path d="M50.5005 47.9688C49.7812 47.9671 49.0709 48.1296 48.4239 48.4439C47.7769 48.7582 47.2101 49.216 46.7668 49.7825C46.6906 49.8792 46.6343 49.99 46.6009 50.1085C46.5676 50.227 46.5579 50.3509 46.5724 50.4732C46.587 50.5954 46.6254 50.7136 46.6856 50.821C46.7458 50.9284 46.8266 51.0229 46.9234 51.0991C47.0201 51.1752 47.1309 51.2316 47.2494 51.2649C47.3679 51.2983 47.4918 51.308 47.6141 51.2934C47.7363 51.2789 47.8545 51.2404 47.9619 51.1802C48.0693 51.12 48.1638 51.0392 48.2399 50.9425C48.509 50.6002 48.8523 50.3235 49.2439 50.1332C49.6355 49.943 50.0651 49.8441 50.5005 49.8441C50.9359 49.8441 51.3656 49.943 51.7572 50.1332C52.1488 50.3235 52.492 50.6002 52.7611 50.9425C52.8372 51.0392 52.9317 51.12 53.0391 51.1802C53.1465 51.2404 53.2647 51.2789 53.3869 51.2934C53.5092 51.308 53.6331 51.2983 53.7516 51.2649C53.8701 51.2316 53.9809 51.1752 54.0776 51.0991C54.1744 51.0229 54.2552 50.9284 54.3154 50.821C54.3756 50.7136 54.4141 50.5954 54.4286 50.4732C54.4432 50.3509 54.4335 50.227 54.4001 50.1085C54.3668 49.99 54.3104 49.8792 54.2342 49.7825C53.791 49.2159 53.2242 48.758 52.5772 48.4437C51.9301 48.1294 51.2198 47.967 50.5005 47.9688Z" fill="#FF5A5F"/>
<path d="M37.8847 30.9468C37.8847 28.967 37.2976 27.0316 36.1977 25.3854C35.0977 23.7392 33.5343 22.4562 31.7052 21.6985C29.876 20.9409 27.8633 20.7426 25.9215 21.1289C23.9797 21.5151 22.196 22.4685 20.7961 23.8685C19.3961 25.2684 18.4427 27.0521 18.0565 28.9939C17.6702 30.9357 17.8684 32.9485 18.6261 34.7776C19.3838 36.6067 20.6668 38.1701 22.313 39.2701C23.9592 40.37 25.8945 40.9571 27.8744 40.9571C30.5285 40.9544 33.073 39.8989 34.9497 38.0222C36.8264 36.1454 37.882 33.6009 37.8847 30.9468ZM27.8744 39.0817C26.2655 39.0817 24.6927 38.6046 23.3549 37.7107C22.0171 36.8168 20.9745 35.5463 20.3588 34.0599C19.7431 32.5734 19.582 30.9378 19.8959 29.3598C20.2097 27.7818 20.9845 26.3323 22.1222 25.1946C23.2599 24.0569 24.7094 23.2822 26.2874 22.9683C27.8654 22.6544 29.501 22.8155 30.9875 23.4312C32.4739 24.0469 33.7444 25.0896 34.6383 26.4273C35.5322 27.7651 36.0093 29.3379 36.0093 30.9468C36.0065 33.1032 35.1487 35.1704 33.6239 36.6952C32.0992 38.22 30.0319 39.0778 27.8755 39.0805L27.8744 39.0817Z" fill="#FF5A5F"/>
<path d="M31.35 27.471C31.2629 27.3839 31.1596 27.3148 31.0459 27.2677C30.9321 27.2206 30.8102 27.1963 30.6871 27.1963C30.564 27.1963 30.4421 27.2206 30.3283 27.2677C30.2146 27.3148 30.1113 27.3839 30.0243 27.471L27.8745 29.6207L25.7248 27.471C25.549 27.2952 25.3106 27.1964 25.062 27.1964C24.8134 27.1964 24.5749 27.2952 24.3991 27.471C24.2233 27.6468 24.1245 27.8852 24.1245 28.1338C24.1245 28.3824 24.2233 28.6209 24.3991 28.7967L26.5488 30.9464L24.3991 33.0961C24.3121 33.1832 24.243 33.2865 24.1959 33.4002C24.1488 33.514 24.1245 33.6359 24.1245 33.759C24.1245 33.8821 24.1488 34.004 24.1959 34.1177C24.243 34.2314 24.3121 34.3348 24.3991 34.4218C24.4862 34.5089 24.5895 34.5779 24.7032 34.625C24.817 34.6721 24.9389 34.6964 25.062 34.6964C25.1851 34.6964 25.307 34.6721 25.4207 34.625C25.5344 34.5779 25.6378 34.5089 25.7248 34.4218L27.8745 32.2721L30.0243 34.4218C30.2001 34.5976 30.4385 34.6964 30.6871 34.6964C30.9357 34.6964 31.1742 34.5976 31.35 34.4218C31.5258 34.246 31.6245 34.0076 31.6245 33.759C31.6245 33.5103 31.5258 33.2719 31.35 33.0961L29.2002 30.9464L31.35 28.7967C31.4371 28.7097 31.5061 28.6063 31.5533 28.4926C31.6004 28.3789 31.6246 28.2569 31.6246 28.1338C31.6246 28.0107 31.6004 27.8888 31.5533 27.7751C31.5061 27.6613 31.4371 27.558 31.35 27.471Z" fill="#FF5A5F"/>
</svg>
