<svg width="64" height="64" viewBox="0 0 64 64" fill="none" xmlns="http://www.w3.org/2000/svg">
<path d="M58.1 5H34.7C34.203 5 33.8 5.40297 33.8 5.9V26.9779C33.8 27.4749 34.203 27.8779 34.7 27.8779C35.197 27.8779 35.6 27.4749 35.6 26.9779V6.8H57.2V57.2H5.9C5.40297 57.2 5 57.603 5 58.1C5 58.597 5.40297 59 5.9 59H58.1C58.597 59 59 58.597 59 58.1V5.9C59 5.40297 58.597 5 58.1 5Z" fill="#00AFA5"/>
<path d="M29.6976 38.7202L35.6682 35.6899C37.2135 34.894 37.8374 33.0075 37.0713 31.4473C36.7015 30.6916 36.043 30.1168 35.2443 29.8525C34.4555 29.5886 33.5935 29.6536 32.853 30.0325L29.433 31.765L28.2702 29.8039C31.5819 29.0128 33.6251 25.6867 32.834 22.375C32.0429 19.0634 28.7168 17.0201 25.4052 17.8112C22.0935 18.6023 20.0503 21.9284 20.8414 25.2401C20.9065 25.5127 20.9902 25.7806 21.0917 26.0419L13.7298 29.1523C12.773 29.5268 12.0584 30.3437 11.8146 31.342L10.3215 37.39C9.90246 39.0779 10.9192 40.7888 12.6021 41.2276C13.405 41.4345 14.2574 41.3096 14.9673 40.8811C15.6929 40.4478 16.2142 39.7412 16.4136 38.92L17.5098 34.4578L19.6491 33.5704L18.4926 40.0144L13.9341 45.1228L10.2099 41.8234C8.92236 40.6788 6.95057 40.7948 5.80599 42.0823C5.79452 42.0952 5.78316 42.1082 5.77202 42.1213C4.64218 43.4408 4.77369 45.4213 6.06812 46.5799L12.0378 51.8719C13.2931 52.9379 15.1529 52.8751 16.3335 51.727L22.0602 45.9265L26.634 48.7048L29.9577 55.4413C30.4803 56.5176 31.572 57.2007 32.7684 57.1999C33.2577 57.2004 33.7402 57.0848 34.176 56.8624C35.7219 56.0666 36.3456 54.1791 35.5782 52.6189L31.8459 45.0589C31.5809 44.5211 31.1682 44.07 30.6561 43.7584L25.1256 40.3969L25.7169 37.7041C26.602 38.9921 28.3035 39.4264 29.6976 38.7202ZM25.2669 34.159C24.8872 34.2052 24.5782 34.4865 24.4965 34.8601L23.2302 40.6399C23.1481 41.0152 23.3132 41.4013 23.6415 41.6011L29.7219 45.2965C29.9413 45.4314 30.1183 45.6253 30.2322 45.8563L33.9636 53.4163C34.2972 54.0909 34.0306 54.9085 33.3633 55.2568C32.6998 55.5765 31.9025 55.3054 31.5714 54.6475L28.1298 47.6779C28.0546 47.5243 27.9368 47.3957 27.7905 47.3071L22.3851 44.0212C22.0285 43.8048 21.5699 43.8618 21.2772 44.1589L15.0501 50.467C14.5507 50.9558 13.761 50.9827 13.2294 50.5291L7.25972 45.2371C6.69711 44.7326 6.64074 43.8711 7.13282 43.2976C7.60599 42.7434 8.43872 42.6777 8.99289 43.1508C9.00021 43.1571 9.00752 43.1634 9.01472 43.1698L13.4094 47.0641C13.7803 47.3928 14.3472 47.3598 14.6775 46.9903L20.0037 41.0233C20.1144 40.8992 20.1886 40.7469 20.2179 40.5832L21.7101 32.2672C21.7961 31.7776 21.4688 31.311 20.9792 31.2252C20.8109 31.1956 20.6377 31.2146 20.4798 31.2799L16.3992 32.9728C16.1348 33.0824 15.9383 33.3113 15.87 33.5893L14.6613 38.4889C14.5763 38.8437 14.3517 39.1494 14.0385 39.3367C13.7399 39.5186 13.3803 39.5712 13.0422 39.4825C12.3159 39.2904 11.88 38.5492 12.0648 37.8211L13.5579 31.7713C13.6663 31.335 13.9813 30.9794 14.4012 30.8191L21.567 27.7951L22.6659 28.2712C23.1229 28.4667 23.6519 28.2547 23.8474 27.7978C23.9873 27.4707 23.9214 27.0918 23.6793 26.8312C22.9031 26.0108 22.4711 24.9239 22.4724 23.7946C22.5092 21.406 24.4754 19.4995 26.8639 19.5363C29.2523 19.5731 31.1589 21.5393 31.1221 23.9278C31.0858 26.2905 29.1599 28.1868 26.7968 28.1866C26.2998 28.1861 25.8965 28.5887 25.896 29.0858C25.8959 29.2475 25.9393 29.4064 26.0219 29.5456L28.262 33.3256C28.4383 33.6196 28.7652 33.7892 29.1071 33.7639L29.3618 33.7441C29.4788 33.7345 29.5928 33.7024 29.6975 33.6496L33.6656 31.6399C33.978 31.4788 34.3426 31.4518 34.6754 31.5652C35.0164 31.6789 35.2974 31.9246 35.4557 32.2474C35.7914 32.9229 35.524 33.7428 34.8545 34.0906L28.8839 37.1155C28.2191 37.4331 27.4225 37.1591 27.0938 36.4999L26.1821 34.654C26.0166 34.308 25.6471 34.1081 25.2669 34.159Z" fill="#00AFA5"/>
<path d="M52.4365 32.2638L48.8365 28.6638C48.479 28.3185 47.9093 28.3284 47.5639 28.6859C47.2271 29.0346 47.2271 29.5876 47.5639 29.9364L49.6276 32.0001H40.1002C39.6032 32.0001 39.2002 32.4031 39.2002 32.9001C39.2002 33.3972 39.6032 33.8001 40.1002 33.8001H49.6276L47.5639 35.8638C47.2064 36.2092 47.1965 36.7789 47.5418 37.1364C47.8872 37.494 48.4569 37.5039 48.8144 37.1585C48.8219 37.1513 48.8293 37.1439 48.8365 37.1364L52.4365 33.5364C52.7878 33.185 52.7878 32.6153 52.4365 32.2638Z" fill="#00AFA5"/>
<path d="M34.6998 38.2998C34.2028 38.2998 33.7998 38.7028 33.7998 39.1998V45.4998C33.7998 45.9968 34.2028 46.3998 34.6998 46.3998C35.1968 46.3998 35.5998 45.9968 35.5998 45.4998V39.1998C35.5998 38.7028 35.1968 38.2998 34.6998 38.2998Z" fill="#00AFA5"/>
</svg>
