<svg xmlns="http://www.w3.org/2000/svg" width="73.333" height="76.894" viewBox="0 0 73.333 76.894"><defs><style>.a{fill:#00af9c;}</style></defs><g transform="translate(56.433)"><g transform="translate(0)"><path class="a" d="M271.885,1.9a.241.241,0,0,0-.224-.224l-1.679-.112L269.311.112c0-.112-.112-.112-.224-.112a.391.391,0,0,0-.224.112l-.783,1.455-1.567.224a.241.241,0,0,0-.224.224.411.411,0,0,0,.112.336l1.007,1.007-.336,1.567c0,.112,0,.224.112.224s.224.112.336,0l1.455-.783,1.455.783h.224c.112-.112.112-.112.112-.224l-.224-1.567,1.231-1.119A.411.411,0,0,0,271.885,1.9Z" transform="translate(-266.289)"/></g></g><g transform="translate(2.596 10.745)"><path class="a" d="M25.166,51.726l-1.343-.783L23.6,49.376a.241.241,0,0,0-.224-.224.411.411,0,0,0-.336.112L21.92,50.5l-1.567-.224c-.112,0-.224,0-.224.112a.21.21,0,0,0,0,.336L20.8,51.95l-.783,1.455v.336c0,.112.224.112.224.112l1.567-.336,1.119,1.119a.391.391,0,0,0,.224.112h.112a.241.241,0,0,0,.224-.224l.224-1.567,1.455-.783c.112,0,.112-.112.112-.224A.391.391,0,0,0,25.166,51.726Z" transform="translate(-20.017 -49.152)"/></g><g transform="translate(67.541 58.762)"><g transform="translate(0)"><path class="a" d="M322.56,271.6l-1.343-.9-.112-1.679a.391.391,0,0,0-.112-.224h-.336l-1.231,1.007-1.567-.448a.411.411,0,0,0-.336.112.21.21,0,0,0,0,.336l.56,1.455-.9,1.343a.21.21,0,0,0,0,.336c0,.112.112.112.224.112l1.679-.112,1.007,1.231c0,.112.112.112.224.112h.112a.241.241,0,0,0,.224-.224l.448-1.567,1.567-.56a.241.241,0,0,0,.224-.224C322.673,271.71,322.673,271.6,322.56,271.6Z" transform="translate(-317.104 -268.8)"/></g></g><g transform="translate(0.049 46.45)"><g transform="translate(0)"><path class="a" d="M13.937,215.5c0-.112,0-.224-.112-.224l-1.343-.9L12.37,212.7a.391.391,0,0,0-.112-.224h-.336l-1.231,1.007-1.567-.336a.411.411,0,0,0-.336.112.21.21,0,0,0,0,.336l.56,1.455-.9,1.343a.21.21,0,0,0,0,.336c0,.112.112.112.224.112l1.679-.112,1.007,1.231c0,.112.112.112.224.112H11.7a.241.241,0,0,0,.224-.224l.448-1.567,1.567-.56S13.937,215.614,13.937,215.5Z" transform="translate(-8.369 -212.48)"/></g></g><g transform="translate(8.304 70.738)"><g transform="translate(0)"><path class="a" d="M51.837,325.6c-.224,0-.224-.112-.336-.112l-1.679-.336-.672-1.455c0-.112-.112-.112-.224-.112a.391.391,0,0,0-.224.112l-.783,1.455-1.567.224a.241.241,0,0,0-.224.224.411.411,0,0,0,.112.336l1.119,1.119-.336,1.567c0,.112,0,.224.112.224a.21.21,0,0,0,.336,0l1.455-.784,1.455.784h.224c.112-.112.112-.112.112-.224l-.224-1.567,1.231-1.119A.411.411,0,0,0,51.837,325.6Z" transform="translate(-46.129 -323.584)"/></g></g><g transform="translate(35.278)"><g transform="translate(0)"><path class="a" d="M170.64,0a1.057,1.057,0,0,0-1.119,1.119V32.571a1.122,1.122,0,0,0,1.119,1.119,1.057,1.057,0,0,0,1.119-1.119V1.119A1.057,1.057,0,0,0,170.64,0Z" transform="translate(-169.521)"/></g></g><g transform="translate(35.278 49.472)"><g transform="translate(0)"><path class="a" d="M170.64,226.3a1.057,1.057,0,0,0-1.119,1.119v25.184a1.119,1.119,0,0,0,2.239,0V227.423A1.057,1.057,0,0,0,170.64,226.3Z" transform="translate(-169.521 -226.304)"/></g></g><g transform="translate(26.91 14.592)"><path class="a" d="M138.042,80.588l-4.7-13.1a1.164,1.164,0,0,0-1.455-.672,1.111,1.111,0,0,0-.56,1.455l4.7,13.1a1.075,1.075,0,0,0,1.007.783.411.411,0,0,0,.336-.112A1.164,1.164,0,0,0,138.042,80.588Z" transform="translate(-131.241 -66.751)"/></g><g transform="translate(23.568 6.757)"><path class="a" d="M119.828,35.682l-1.679-4.029a1.133,1.133,0,0,0-2.127.783l1.679,4.141a1.076,1.076,0,0,0,1.007.672.846.846,0,0,0,.448-.112A1.164,1.164,0,0,0,119.828,35.682Z" transform="translate(-115.952 -30.911)"/></g><g transform="translate(37.447 44.813)"><path class="a" d="M187.681,222.858l-6.044-17.125a1.133,1.133,0,1,0-2.127.783l6.156,17.125a1.075,1.075,0,0,0,1.007.783.411.411,0,0,0,.336-.112A1.164,1.164,0,0,0,187.681,222.858Z" transform="translate(-179.44 -204.991)"/></g><g transform="translate(12.72 11.02)"><g transform="translate(0)"><path class="a" d="M88.44,75.317,68.293,50.805a1.111,1.111,0,0,0-1.679,1.455l20.147,24.4a1.382,1.382,0,0,0,.9.448,1.591,1.591,0,0,0,.672-.224A1.088,1.088,0,0,0,88.44,75.317Z" transform="translate(-66.329 -50.408)"/></g></g><g transform="translate(42.156 47.732)"><path class="a" d="M218.618,237.993l-15.67-19.251a1.111,1.111,0,1,0-1.679,1.455l15.67,19.14a1.382,1.382,0,0,0,.9.448,1.591,1.591,0,0,0,.672-.224A1.088,1.088,0,0,0,218.618,237.993Z" transform="translate(-200.984 -218.344)"/></g><g transform="translate(9.458 22.783)"><path class="a" d="M68.611,113.672l-15.446-9.29a1.181,1.181,0,0,0-1.231,2.015l15.446,9.29a1.009,1.009,0,0,0,.56.112,1.336,1.336,0,0,0,1.007-.56A1.2,1.2,0,0,0,68.611,113.672Z" transform="translate(-51.409 -104.22)"/></g><g transform="translate(37.131 39.908)"><path class="a" d="M204.91,197.716l-25.184-15a1.133,1.133,0,1,0-1.231,1.9l25.072,15a1.009,1.009,0,0,0,.56.112,1.336,1.336,0,0,0,1.007-.56A.9.9,0,0,0,204.91,197.716Z" transform="translate(-177.997 -182.556)"/></g><g transform="translate(0 31.43)"><g transform="translate(0)"><path class="a" d="M34.468,148.721,9.508,143.8a1.133,1.133,0,0,0-1.343.9,1.083,1.083,0,0,0,.9,1.343l24.96,4.925h.224a1.09,1.09,0,0,0,1.119-.9A1.133,1.133,0,0,0,34.468,148.721Z" transform="translate(-8.144 -143.775)"/></g></g><g transform="translate(46.45 40.944)"><path class="a" d="M243.7,191.569l-21.714-4.253a1.083,1.083,0,0,0-1.343.9,1.133,1.133,0,0,0,.9,1.343l21.714,4.253h.224a1.09,1.09,0,0,0,1.119-.9A1.133,1.133,0,0,0,243.7,191.569Z" transform="translate(-220.623 -187.295)"/></g><g transform="translate(42.2 35.128)"><g transform="translate(0)"><path class="a" d="M217.321,160.706,202.1,162.945a1.109,1.109,0,0,0-.9,1.231,1.19,1.19,0,0,0,1.119,1.007h.112l15.222-2.238a1.454,1.454,0,0,0,.9-1.343A1.109,1.109,0,0,0,217.321,160.706Z" transform="translate(-201.186 -160.689)"/></g></g><g transform="translate(11.868 39.269)"><g transform="translate(0)"><path class="a" d="M82.486,180.546a1.109,1.109,0,0,0-1.231-.9l-17.908,2.574a1.109,1.109,0,0,0-.9,1.231,1.19,1.19,0,0,0,1.119,1.007h.112l17.908-2.686A1.109,1.109,0,0,0,82.486,180.546Z" transform="translate(-62.434 -179.633)"/></g></g><g transform="translate(61.676 34.344)"><g transform="translate(0)"><path class="a" d="M293.761,158.018a1.109,1.109,0,0,0-1.231-.9l-1.343.224a1.109,1.109,0,0,0-.9,1.231,1.19,1.19,0,0,0,1.119,1.007c0-.112,0-.112.112-.112l1.343-.224A1.109,1.109,0,0,0,293.761,158.018Z" transform="translate(-290.274 -157.105)"/></g></g><g transform="translate(6.72 42.515)"><g transform="translate(0)"><path class="a" d="M42.369,195.394a1.109,1.109,0,0,0-1.231-.9l-1.343.112a1.109,1.109,0,0,0-.9,1.231,1.19,1.19,0,0,0,1.119,1.007h.112l1.343-.224A1.109,1.109,0,0,0,42.369,195.394Z" transform="translate(-38.882 -194.481)"/></g></g><g transform="translate(45.642 21.444)"><g transform="translate(0)"><path class="a" d="M240.03,98.7a1.133,1.133,0,0,0-1.567-.448l-20.93,11.3a1.133,1.133,0,0,0-.448,1.567,1.175,1.175,0,0,0,1.007.56,1.009,1.009,0,0,0,.56-.112l20.93-11.3A1.133,1.133,0,0,0,240.03,98.7Z" transform="translate(-216.927 -98.094)"/></g></g><g transform="translate(5.012 43.606)"><g transform="translate(0)"><path class="a" d="M54.173,200.076a1.133,1.133,0,0,0-1.567-.448l-20.931,11.3a1.132,1.132,0,0,0-.448,1.567,1.175,1.175,0,0,0,1.007.56,1.009,1.009,0,0,0,.56-.112l20.93-11.3A1.132,1.132,0,0,0,54.173,200.076Z" transform="translate(-31.07 -199.47)"/></g></g><g transform="translate(37.68 15.497)"><g transform="translate(0)"><path class="a" d="M200.6,71.173a1.088,1.088,0,0,0-1.567.112L180.79,91.544a1.088,1.088,0,0,0,.112,1.567,1.618,1.618,0,0,0,.784.224,1.016,1.016,0,0,0,.783-.336L200.713,72.74A1.088,1.088,0,0,0,200.6,71.173Z" transform="translate(-180.505 -70.888)"/></g></g><g transform="translate(15.294 40.233)"><path class="a" d="M98.313,184.325a1.088,1.088,0,0,0-1.567.112L78.39,204.584a1.088,1.088,0,0,0,.112,1.567,1.082,1.082,0,0,0,1.567,0l18.244-20.259A1.082,1.082,0,0,0,98.313,184.325Z" transform="translate(-78.105 -184.04)"/></g><g transform="translate(11.041 63.196)"><path class="a" d="M62.516,289.462a1,1,0,0,0-1.567,0L58.934,291.7a1.088,1.088,0,0,0,.112,1.567,1.082,1.082,0,0,0,1.567,0l2.015-2.239A1.088,1.088,0,0,0,62.516,289.462Z" transform="translate(-58.649 -289.083)"/></g><g transform="translate(58.946 9.9)"><g transform="translate(0)"><path class="a" d="M281.652,45.573a1.088,1.088,0,0,0-1.567.112l-2.015,2.127a1.088,1.088,0,0,0,.112,1.567,1.082,1.082,0,0,0,1.567,0l2.015-2.239A1.088,1.088,0,0,0,281.652,45.573Z" transform="translate(-277.785 -45.288)"/></g></g><g transform="translate(41.3 5.511)"><g transform="translate(0)"><path class="a" d="M206.156,25.293a1.111,1.111,0,0,0-1.455.56l-7.5,18.356a1,1,0,0,0,.56,1.455.673.673,0,0,0,.448.112.979.979,0,0,0,1.007-.672l7.5-18.356A1.111,1.111,0,0,0,206.156,25.293Z" transform="translate(-197.068 -25.208)"/></g></g><g transform="translate(23.664 45.916)"><path class="a" d="M127.111,210.125a1.111,1.111,0,0,0-1.455.56l-9.178,22.162a1.111,1.111,0,0,0,.56,1.455.673.673,0,0,0,.448.112.979.979,0,0,0,1.007-.672l9.178-22.162C128.007,211.021,127.671,210.461,127.111,210.125Z" transform="translate(-116.393 -210.04)"/></g></svg>