<svg width="56" height="56" viewBox="0 0 56 56" fill="none" xmlns="http://www.w3.org/2000/svg">
<path d="M1.86667 24.2659V53.1992C1.86667 54.7456 3.12027 55.9992 4.66667 55.9992H51.3333C52.8797 55.9992 54.1333 54.7456 54.1333 53.1992V42.9325C55.1643 42.9325 56 42.0968 56 41.0659V38.2659C55.9955 36.8435 54.923 35.6516 53.5089 35.4976C53.7517 35.3173 53.9841 35.1235 54.2052 34.9171C54.8384 34.2988 55.1487 33.4216 55.0452 32.5427C54.7871 30.6416 54.0482 28.8378 52.8985 27.302C52.2377 26.3796 51.0855 25.9472 49.9809 26.2072C49.4893 26.3258 49.0058 26.4757 48.5333 26.6561V24.2659C49.5643 24.2659 50.4 23.4301 50.4 22.3992V17.7325C50.4 16.1861 49.1464 14.9325 47.6 14.9325H45.5177C47.6689 13.4547 49.0978 11.1388 49.4536 8.55321C49.5055 8.24281 49.3975 7.92715 49.1663 7.71364C48.9351 7.50012 48.6118 7.4175 48.3065 7.49387L45.4795 8.20041L44.772 5.37241C44.6903 5.04638 44.4395 4.78948 44.1156 4.69985C43.7916 4.61022 43.4445 4.7017 43.2068 4.93934C42.4476 5.63784 41.6031 6.23745 40.6933 6.72388C40.2129 4.18121 38.7554 1.92796 36.6333 0.447208C36.0658 0.0758282 35.3808 -0.0718307 34.7107 0.0328081C30.4612 0.771683 26.8785 3.61956 25.2 7.59281C23.5232 3.62096 19.9431 0.773238 15.6959 0.0328081C15.0255 -0.0716179 14.3402 0.0760158 13.7723 0.447208C11.6491 1.92582 10.1896 4.17735 9.70667 6.71921C8.79557 6.23172 7.949 5.63223 7.18667 4.93468C6.9488 4.69753 6.60185 4.60649 6.27819 4.69629C5.95453 4.78609 5.70408 5.04287 5.6224 5.36868L4.91493 8.19668L2.09347 7.49387C1.78817 7.4175 1.46493 7.50012 1.23373 7.71364C1.00253 7.92715 0.894506 8.24281 0.9464 8.55321C1.30222 11.1388 2.73108 13.4547 4.88227 14.9325H2.8C1.2536 14.9325 0 16.1861 0 17.7325V22.3992C0 23.4301 0.835735 24.2659 1.86667 24.2659ZM3.73333 53.1992V24.2659H20.5333V54.1325H4.66667C4.1512 54.1325 3.73333 53.7147 3.73333 53.1992ZM22.4 12.1325C22.4 11.6171 22.8179 11.1992 23.3333 11.1992H27.0667C27.5821 11.1992 28 11.6171 28 12.1325V14.9325H22.4V12.1325ZM21.4667 16.7992H28.9333V22.3992H21.4667V16.7992ZM22.4 54.1325V24.2659H28V54.1325H22.4ZM35.4667 53.1992V42.9325H40.1333V54.1325H36.4C35.8845 54.1325 35.4667 53.7147 35.4667 53.1992ZM34.8133 33.5684C34.599 33.3555 34.4956 33.0552 34.5333 32.7555C34.7558 31.1742 35.3762 29.6754 36.3365 28.3996C36.5573 28.0897 36.9425 27.9425 37.3137 28.0263C39.5303 28.4227 41.4484 29.8011 42.5311 31.7755C41.1597 31.9745 40.1402 33.1468 40.1333 34.5325V35.4659H40.1193C38.1724 35.5488 36.2701 34.8679 34.818 33.5684H34.8133ZM46.6667 41.0659H41.0667V37.3325H46.6667V41.0659ZM45.7333 35.4659H42V34.5325C42 34.0171 42.4179 33.5992 42.9333 33.5992H44.8C45.3155 33.5992 45.7333 34.0171 45.7333 34.5325V35.4659ZM39.2 37.3325V41.0659H33.6V38.2659C33.6 37.7504 34.0179 37.3325 34.5333 37.3325H39.2ZM42 54.1325V42.9325H45.7333V54.1325H42ZM52.2667 53.1992C52.2667 53.7147 51.8488 54.1325 51.3333 54.1325H47.6V42.9325H52.2667V53.1992ZM54.1333 38.2659V41.0659H48.5333V37.3325H53.2C53.7155 37.3325 54.1333 37.7504 54.1333 38.2659ZM50.4131 28.0235C50.7845 27.9396 51.1701 28.0867 51.3912 28.3968C52.3519 29.6747 52.9721 31.1758 53.1935 32.7592C53.2315 33.059 53.128 33.3594 52.9135 33.5721C51.4616 34.8704 49.5599 35.55 47.614 35.4659H47.6V34.5325C47.594 33.1436 46.5708 31.969 45.1957 31.7727C46.2784 29.7983 48.1965 28.4199 50.4131 28.0235ZM46.6667 27.5661C45.5341 28.2621 44.5762 29.2085 43.8667 30.3325C42.4751 28.1814 40.2668 26.6903 37.7515 26.2035C36.6468 25.9429 35.4942 26.3749 34.8329 27.2973C33.6833 28.8339 32.9444 30.6383 32.6863 32.5399C32.583 33.4188 32.8933 34.2958 33.5263 34.9143C33.7472 35.1201 33.9793 35.3136 34.2216 35.4939C32.8073 35.6493 31.7358 36.843 31.7333 38.2659V41.0659C31.7333 42.0968 32.5691 42.9325 33.6 42.9325V53.1992C33.6031 53.5179 33.6612 53.8336 33.7717 54.1325H29.8667V24.2659H46.6667V27.5661ZM47.6 16.7992C48.1155 16.7992 48.5333 17.2171 48.5333 17.7325V22.3992H30.8V16.7992H47.6ZM40.6644 11.2412C40.943 10.7855 41.0828 10.2584 41.0667 9.72454C41.0561 9.35743 41.0349 9.00339 41.0032 8.66241C41.8176 8.26974 42.5941 7.80264 43.3225 7.26708L43.8956 9.55934C44.0209 10.0593 44.5277 10.3631 45.0277 10.2379L47.2565 9.67787C45.9527 13.5223 42.3621 14.9325 39.2 14.9325H36.4747C38.1777 14.1011 39.625 12.8259 40.6644 11.2412ZM35.0075 1.87614C35.2209 1.84477 35.4384 1.89366 35.6179 2.01334C36.6445 2.68254 39.0591 4.77694 39.2 9.77681C39.205 9.94899 39.1606 10.119 39.0721 10.2668C38.3581 11.4335 36.0341 14.2092 29.8667 14.9251V12.1325C29.8657 11.5997 29.7115 11.0784 29.4224 10.6308C30.2443 9.22144 31.4804 8.09943 32.9625 7.41734C33.2793 7.31164 33.5156 7.04497 33.5825 6.71778C33.6493 6.39059 33.5365 6.0526 33.2866 5.83111C33.0367 5.60963 32.6876 5.53831 32.3708 5.64401C30.5271 6.42518 28.9772 7.76867 27.9421 9.48281C27.6604 9.38563 27.3647 9.33488 27.0667 9.33254H26.4693C27.2459 7.20454 29.5008 2.76187 35.0075 1.87614ZM14.7877 2.01334C14.9673 1.89309 15.1853 1.84417 15.3991 1.87614C20.9067 2.76187 23.1597 7.20454 23.9372 9.33254H23.3333C23.0351 9.33609 22.7394 9.3881 22.4579 9.48654C21.4228 7.7724 19.8729 6.42892 18.0292 5.64774C17.7124 5.54204 17.3633 5.61336 17.1134 5.83485C16.8635 6.05633 16.7507 6.39433 16.8175 6.72151C16.8844 7.0487 17.1207 7.31537 17.4375 7.42108C18.9196 8.10316 20.1557 9.22518 20.9776 10.6345C20.6892 11.0811 20.535 11.601 20.5333 12.1325V14.9241C14.3733 14.2073 12.0475 11.4325 11.3344 10.2668C11.2451 10.1194 11.2007 9.94909 11.2065 9.77681C11.3465 4.77694 13.7583 2.68254 14.7877 2.01334ZM3.1444 9.68068L5.3732 10.2407C5.8732 10.3659 6.38006 10.0621 6.50533 9.56214L7.0784 7.26894C7.80867 7.80612 8.58695 8.27477 9.40333 8.66894C9.37284 9.0093 9.352 9.36303 9.3408 9.73014C9.32383 10.2643 9.46332 10.7918 9.74213 11.2477C10.7821 12.8303 12.2295 14.1032 13.9319 14.9325H11.2C8.03787 14.9325 4.44733 13.5223 3.1444 9.68068ZM1.86667 17.7325C1.86667 17.2171 2.28453 16.7992 2.8 16.7992H19.6V22.3992H1.86667V17.7325Z" fill="#00AFA5"/>
<path d="M6.53343 48.5325C6.01797 48.5325 5.6001 48.9504 5.6001 49.4659V51.3325C5.6001 51.848 6.01797 52.2659 6.53343 52.2659C7.0489 52.2659 7.46676 51.848 7.46676 51.3325V49.4659C7.46676 48.9504 7.0489 48.5325 6.53343 48.5325Z" fill="#00AFA5"/>
<path d="M6.53343 26.1326C6.01797 26.1326 5.6001 26.5504 5.6001 27.0659V45.7326C5.6001 46.248 6.01797 46.6659 6.53343 46.6659C7.0489 46.6659 7.46676 46.248 7.46676 45.7326V27.0659C7.46676 26.5504 7.0489 26.1326 6.53343 26.1326Z" fill="#00AFA5"/>
</svg>
