<svg id="illustration_highlights_48px" xmlns="http://www.w3.org/2000/svg" width="48" height="48" viewBox="0 0 48 48">
  <rect id="Rectangle_3896" data-name="Rectangle 3896" width="48" height="48" fill="none"/>
  <g id="clean" transform="translate(0.857 1.714)">
    <g id="Group_3219" data-name="Group 3219" transform="translate(0 0)">
      <g id="Group_3218" data-name="Group 3218" transform="translate(0 0)">
        <path id="Path_3826" data-name="Path 3826" d="M153.211,92.21a.941.941,0,0,0-.631-.4c-1.32,0-12.685-.459-12.685-13.661a.746.746,0,1,0-1.492,0c0,13.2-11.365,13.661-12.628,13.661a.652.652,0,0,0-.459.172c-.115.057-.172.172-.23.23a.851.851,0,0,0,0,.746.8.8,0,0,0,.689.4h.057c1.32,0,12.628.459,12.628,13.661a.746.746,0,1,0,1.492,0c0-13.144,11.307-13.661,12.628-13.661a.875.875,0,0,0,.689-.4A.706.706,0,0,0,153.211,92.21Zm-14.063,9.184a13.1,13.1,0,0,0-8.954-8.839,13.1,13.1,0,0,0,8.954-8.839,13.1,13.1,0,0,0,8.954,8.839A13.1,13.1,0,0,0,139.149,101.394Z" transform="translate(-107.063 -67.528)" fill="#00af9c" stroke="#0daf9c" stroke-miterlimit="10" stroke-width="0.4"/>
        <path id="Path_3827" data-name="Path 3827" d="M62.014,18.359a.773.773,0,0,0,.746-.8.76.76,0,0,0-.746-.746c-.689,0-6.888-.23-6.888-7.462a.746.746,0,1,0-1.492,0c0,7.232-6.2,7.462-6.888,7.462h-.057a.749.749,0,0,0-.689.746.76.76,0,0,0,.746.746c.746,0,6.888.23,6.888,7.462a.76.76,0,0,0,.746.746.662.662,0,0,0,.689-.689c0-7.232,6.2-7.462,6.888-7.462ZM54.323,21.63a7.7,7.7,0,0,0-4.133-4.075,7.722,7.722,0,0,0,4.133-4.075,7.7,7.7,0,0,0,4.133,4.075A7.722,7.722,0,0,0,54.323,21.63Z" transform="translate(-39.399 -8.601)" fill="#00af9c" stroke="#0daf9c" stroke-miterlimit="10" stroke-width="0.4"/>
        <path id="Path_3828" data-name="Path 3828" d="M16.014,197.209c-.689,0-6.888-.23-6.888-7.462a.746.746,0,1,0-1.492,0c0,7.232-6.2,7.462-6.888,7.462H.689a.749.749,0,0,0-.689.746.76.76,0,0,0,.746.746c.746,0,6.888.23,6.888,7.462a.76.76,0,0,0,.746.746c.344.115.689-.23.689-.689,0-7.232,6.2-7.462,6.888-7.462h.057a.773.773,0,0,0,.746-.8A.76.76,0,0,0,16.014,197.209Zm-7.691,4.879a7.888,7.888,0,0,0-4.133-4.075,7.722,7.722,0,0,0,4.133-4.075,7.7,7.7,0,0,0,4.133,4.075A7.722,7.722,0,0,0,8.323,202.088Z" transform="translate(0 -163.114)" fill="#00af9c" stroke="#0daf9c" stroke-miterlimit="10" stroke-width="0.4"/>
      </g>
    </g>
  </g>
</svg>
