<svg width="58" height="56" viewBox="0 0 58 56" fill="none" xmlns="http://www.w3.org/2000/svg">
<path d="M55.086 7.00005H42.658C42.4404 7.00005 42.2317 7.08649 42.0778 7.24036C41.9239 7.39424 41.8375 7.60294 41.8375 7.82055C41.8375 8.03816 41.9239 8.24685 42.0778 8.40073C42.2317 8.5546 42.4404 8.64104 42.658 8.64104H55.086C55.1583 8.64131 55.2276 8.67016 55.2787 8.7213C55.3299 8.77244 55.3587 8.84172 55.359 8.91405V13.894H2.641V8.91405C2.64126 8.84172 2.67011 8.77244 2.72125 8.7213C2.77239 8.67016 2.84168 8.64131 2.914 8.64104H43.1C43.3175 8.64104 43.5261 8.55465 43.6798 8.40088C43.8336 8.2471 43.92 8.03852 43.92 7.82104C43.9114 7.60582 43.8267 7.40064 43.681 7.24205C43.6078 7.16159 43.5178 7.09821 43.4174 7.05639C43.317 7.01457 43.2087 6.99534 43.1 7.00005H2.914C2.40654 7.00058 1.92001 7.2024 1.56118 7.56123C1.20235 7.92006 1.00053 8.40659 1 8.91405L1 47.849C1.00053 48.3565 1.20235 48.843 1.56118 49.2019C1.92001 49.5607 2.40654 49.7625 2.914 49.763H50.958C51.1756 49.763 51.3843 49.6766 51.5382 49.5227C51.6921 49.3689 51.7785 49.1602 51.7785 48.9425C51.7785 48.7249 51.6921 48.5162 51.5382 48.3624C51.3843 48.2085 51.1756 48.122 50.958 48.122H2.914C2.84168 48.1218 2.77239 48.0929 2.72125 48.0418C2.67011 47.9907 2.64126 47.9214 2.641 47.849V15.534H55.359V31.012C55.359 31.2297 55.4454 31.4384 55.5993 31.5922C55.7532 31.7461 55.9619 31.8325 56.1795 31.8325C56.3971 31.8325 56.6058 31.7461 56.7597 31.5922C56.9136 31.4384 57 31.2297 57 31.012V8.91204C56.9995 8.40458 56.7976 7.91806 56.4388 7.55923C56.08 7.2004 55.5935 6.99858 55.086 6.99805V7.00005Z" fill="#00AF9C" stroke="#00AF9C" stroke-width="0.5"/>
<path d="M56.1781 29.144C55.9606 29.144 55.752 29.2304 55.5983 29.3842C55.4445 29.538 55.3581 29.7466 55.3581 29.9641V47.8481C55.3578 47.9204 55.329 47.9897 55.2779 48.0408C55.2267 48.0919 55.1574 48.1208 55.0851 48.1211H50.3681C50.1505 48.1211 49.9418 48.2075 49.7879 48.3614C49.6341 48.5153 49.5476 48.7239 49.5476 48.9416C49.5476 49.1592 49.6341 49.3679 49.7879 49.5217C49.9418 49.6756 50.1505 49.7621 50.3681 49.7621H55.0851C55.5926 49.7615 56.0791 49.5597 56.4379 49.2009C56.7968 48.842 56.9986 48.3555 56.9991 47.8481V29.9641C56.9991 29.8563 56.9779 29.7496 56.9366 29.65C56.8953 29.5505 56.8348 29.46 56.7586 29.3839C56.6823 29.3077 56.5918 29.2473 56.4922 29.2062C56.3926 29.165 56.2859 29.1439 56.1781 29.144Z" fill="#00AF9C" stroke="#00AF9C" stroke-width="0.5"/>
<path d="M6.18793 10.4473C5.97032 10.4473 5.76162 10.5337 5.60775 10.6876C5.45388 10.8415 5.36743 11.0502 5.36743 11.2678C5.36743 11.4854 5.45388 11.6941 5.60775 11.8479C5.76162 12.0018 5.97032 12.0883 6.18793 12.0883H6.19993C6.41754 12.0883 6.62624 12.0018 6.78011 11.8479C6.93399 11.6941 7.02043 11.4854 7.02043 11.2678C7.02043 11.0502 6.93399 10.8415 6.78011 10.6876C6.62624 10.5337 6.41754 10.4473 6.19993 10.4473H6.18793Z" fill="#00AF9C" stroke="#00AF9C" stroke-width="0.5"/>
<path d="M8.66792 10.4473C8.45031 10.4473 8.24161 10.5337 8.08773 10.6876C7.93386 10.8415 7.84741 11.0502 7.84741 11.2678C7.84741 11.4854 7.93386 11.6941 8.08773 11.8479C8.24161 12.0018 8.45031 12.0883 8.66792 12.0883H8.67991C8.89752 12.0883 9.10622 12.0018 9.26009 11.8479C9.41397 11.6941 9.50041 11.4854 9.50041 11.2678C9.50041 11.0502 9.41397 10.8415 9.26009 10.6876C9.10622 10.5337 8.89752 10.4473 8.67991 10.4473H8.66792Z" fill="#00AF9C" stroke="#00AF9C" stroke-width="0.5"/>
<path d="M11.1411 10.4473C10.9234 10.4473 10.7147 10.5337 10.5609 10.6876C10.407 10.8415 10.3206 11.0502 10.3206 11.2678C10.3206 11.4854 10.407 11.6941 10.5609 11.8479C10.7147 12.0018 10.9234 12.0883 11.1411 12.0883H11.1531C11.3707 12.0883 11.5794 12.0018 11.7332 11.8479C11.8871 11.6941 11.9736 11.4854 11.9736 11.2678C11.9736 11.0502 11.8871 10.8415 11.7332 10.6876C11.5794 10.5337 11.3707 10.4473 11.1531 10.4473H11.1411Z" fill="#00AF9C" stroke="#00AF9C" stroke-width="0.5"/>
<path d="M51.8121 12.0883C52.0297 12.0883 52.2384 12.0018 52.3922 11.8479C52.5461 11.6941 52.6326 11.4854 52.6326 11.2678C52.6326 11.0502 52.5461 10.8415 52.3922 10.6876C52.2384 10.5337 52.0297 10.4473 51.8121 10.4473H50.2861C50.0685 10.4473 49.8597 10.5337 49.7059 10.6876C49.552 10.8415 49.4656 11.0502 49.4656 11.2678C49.4656 11.4854 49.552 11.6941 49.7059 11.8479C49.8597 12.0018 50.0685 12.0883 50.2861 12.0883H51.8121Z" fill="#00AF9C" stroke="#00AF9C" stroke-width="0.5"/>
<path d="M41.1021 31.6869C41.1021 29.2938 40.3925 26.9543 39.0629 24.9645C37.7333 22.9747 35.8436 21.4238 33.6326 20.508C31.4216 19.5922 28.9887 19.3525 26.6415 19.8194C24.2943 20.2863 22.1383 21.4387 20.4461 23.1309C18.7539 24.8231 17.6015 26.9791 17.1346 29.3263C16.6677 31.6735 16.9073 34.1064 17.8232 36.3174C18.739 38.5284 20.2899 40.4181 22.2797 41.7477C24.2695 43.0773 26.6089 43.7869 29.0021 43.7869C32.2101 43.7832 35.2856 42.5072 37.554 40.2388C39.8224 37.9704 41.0984 34.8949 41.1021 31.6869ZM29.0021 41.5209C27.0571 41.5209 25.1558 40.9442 23.5386 39.8636C21.9214 38.783 20.661 37.2471 19.9167 35.4502C19.1724 33.6533 18.9776 31.676 19.3571 29.7684C19.7365 27.8608 20.6731 26.1085 22.0484 24.7332C23.4237 23.3579 25.176 22.4213 27.0836 22.0419C28.9912 21.6624 30.9685 21.8572 32.7654 22.6015C34.5623 23.3458 36.0982 24.6062 37.1788 26.2234C38.2594 27.8406 38.8361 29.7419 38.8361 31.6869C38.8332 34.2942 37.7962 36.7938 35.9526 38.6374C34.109 40.481 31.6093 41.518 29.0021 41.5209Z" fill="#00AF9C"/>
<path d="M33.201 27.484C32.9886 27.2722 32.7009 27.1533 32.401 27.1533C32.1011 27.1533 31.8134 27.2722 31.601 27.484L29.001 30.084L26.401 27.484C26.1853 27.2903 25.9034 27.1866 25.6136 27.1944C25.3237 27.2022 25.0478 27.3208 24.8428 27.5258C24.6377 27.7309 24.5191 28.0067 24.5113 28.2966C24.5036 28.5865 24.6072 28.8683 24.801 29.084L27.401 31.684L24.801 34.284C24.6865 34.3869 24.5941 34.5119 24.5296 34.6516C24.465 34.7913 24.4296 34.9427 24.4255 35.0966C24.4213 35.2504 24.4486 35.4035 24.5056 35.5465C24.5625 35.6894 24.6481 35.8193 24.7569 35.9281C24.8657 36.0369 24.9956 36.1225 25.1385 36.1794C25.2815 36.2364 25.4346 36.2637 25.5884 36.2596C25.7423 36.2554 25.8937 36.22 26.0334 36.1554C26.1731 36.0909 26.2982 35.9985 26.401 35.884L29.001 33.284L31.601 35.884C31.7038 35.9985 31.8289 36.0909 31.9686 36.1554C32.1083 36.22 32.2597 36.2554 32.4136 36.2596C32.5674 36.2637 32.7205 36.2364 32.8634 36.1794C33.0064 36.1225 33.1363 36.0369 33.2451 35.9281C33.3539 35.8193 33.4394 35.6894 33.4964 35.5465C33.5534 35.4035 33.5807 35.2504 33.5765 35.0966C33.5724 34.9427 33.537 34.7913 33.4724 34.6516C33.4078 34.5119 33.3155 34.3869 33.201 34.284L30.601 31.684L33.201 29.084C33.4128 28.8716 33.5317 28.584 33.5317 28.284C33.5317 27.9841 33.4128 27.6964 33.201 27.484Z" fill="#00AF9C"/>
</svg>
