<svg width="65" height="64" viewBox="0 0 65 64" fill="none" xmlns="http://www.w3.org/2000/svg">
  <path d="M27.583 23.2073C27.6024 23.2791 27.6359 23.3463 27.6815 23.405C27.727 23.4638 27.7838 23.513 27.8484 23.5498C27.913 23.5865 27.9843 23.6102 28.0581 23.6193C28.1319 23.6284 28.2068 23.6228 28.2784 23.6029L28.6234 23.5085C28.6276 23.509 28.6314 23.5109 28.6344 23.5139C28.6374 23.5169 28.6393 23.5207 28.6398 23.5249C28.6631 23.633 28.6891 23.7439 28.7192 23.8576C28.7192 23.8781 28.7192 23.8918 28.7192 23.9L28.685 23.9246L28.6385 23.9589C28.5694 23.9794 28.4989 23.995 28.4276 24.0054H28.4044H28.3879C28.3163 24.0248 28.2493 24.0583 28.1908 24.1039C28.1322 24.1495 28.0834 24.2063 28.0471 24.271C28.0096 24.3351 27.9855 24.4061 27.9763 24.4798C27.9672 24.5534 27.9731 24.6282 27.9937 24.6995L28.0484 24.9021C28.0679 24.9739 28.1014 25.0411 28.1469 25.0998C28.1925 25.1586 28.2492 25.2078 28.3138 25.2446C28.3785 25.2813 28.4497 25.305 28.5235 25.3141C28.5973 25.3232 28.6722 25.3177 28.7439 25.2977L29.1915 25.1759C29.1947 25.1757 29.1979 25.1765 29.2006 25.1782C29.2033 25.1799 29.2054 25.1825 29.2066 25.1855C29.6666 26.1944 30.2936 26.9569 31.067 27.4498C31.7921 27.9346 32.6453 28.192 33.5175 28.189C33.9655 28.1876 34.4112 28.1259 34.8427 28.0056C35.6389 27.7972 36.3669 27.3848 36.955 26.8091C36.9777 26.7863 36.9983 26.7616 37.0166 26.7352C37.0358 26.716 37.0563 26.6941 37.0769 26.6695C37.1869 26.5254 37.2442 26.348 37.2392 26.1668C37.2343 25.9857 37.1674 25.8116 37.0497 25.6738C36.9321 25.536 36.7707 25.4426 36.5925 25.4093C36.4144 25.376 36.2302 25.4047 36.0707 25.4908C36.0293 25.5097 35.9906 25.5341 35.9557 25.5633C35.5448 25.9102 35.0659 26.1671 34.5497 26.3176C34.2783 26.3934 33.9979 26.4325 33.716 26.434C33.2242 26.4369 32.741 26.3043 32.3197 26.0507C31.8107 25.705 31.4041 25.2289 31.1423 24.6721C31.1423 24.6653 31.1423 24.6584 31.1505 24.6434L34.9563 23.5988C35.1005 23.5588 35.2231 23.4634 35.2972 23.3333C35.3713 23.2033 35.391 23.0492 35.352 22.9047L35.2958 22.7021C35.2763 22.6304 35.2429 22.5632 35.1973 22.5044C35.1518 22.4456 35.095 22.3964 35.0304 22.3597C34.9658 22.3229 34.8945 22.2993 34.8207 22.2901C34.7469 22.281 34.672 22.2866 34.6004 22.3065L30.6303 23.4017C30.6266 23.4018 30.6229 23.4006 30.62 23.3984C30.617 23.3962 30.6148 23.393 30.6139 23.3894C30.5838 23.2798 30.5537 23.1553 30.5235 23.0102C30.5229 23.008 30.5228 23.0057 30.5231 23.0035C30.5234 23.0013 30.5241 22.9991 30.5253 22.9972C30.5264 22.9953 30.528 22.9936 30.5298 22.9923C30.5316 22.991 30.5337 22.9901 30.5359 22.9896L34.4881 21.904C34.56 21.8847 34.6272 21.8513 34.686 21.8057C34.7447 21.7601 34.7938 21.7032 34.8304 21.6384C34.8679 21.5744 34.8919 21.5033 34.9011 21.4297C34.9103 21.356 34.9044 21.2813 34.8838 21.2099L34.8249 20.9909C34.8054 20.9191 34.7719 20.8519 34.7264 20.7932C34.6808 20.7344 34.6241 20.6852 34.5595 20.6484C34.4948 20.6117 34.4236 20.588 34.3498 20.5789C34.276 20.5698 34.2011 20.5753 34.1295 20.5953L30.4003 21.6193C30.3955 21.6189 30.391 21.6167 30.3877 21.6132C30.3844 21.6096 30.3825 21.605 30.3825 21.6001C30.3702 20.906 30.4989 20.3105 30.7618 19.867C30.9311 19.5475 31.1661 19.2674 31.4514 19.0451C31.7366 18.8229 32.0656 18.6635 32.4169 18.5774C32.7379 18.4885 33.0694 18.4424 33.4025 18.4405C33.5536 18.4405 33.7045 18.4505 33.8543 18.4706C33.8793 18.4726 33.9045 18.4726 33.9296 18.4706C33.971 18.4708 34.0124 18.4662 34.0528 18.4569C34.0893 18.452 34.1254 18.4447 34.1609 18.435C34.3704 18.3771 34.5483 18.2385 34.6559 18.0497C34.7634 17.8608 34.7917 17.6371 34.7345 17.4274C34.6937 17.2793 34.6121 17.1457 34.4991 17.0416C34.3861 16.9376 34.2462 16.8673 34.0952 16.8388C34.0755 16.8328 34.0554 16.8282 34.035 16.8251C33.7909 16.7865 33.5442 16.7672 33.2971 16.7676C32.8443 16.7684 32.3935 16.8296 31.9569 16.9497C31.3411 17.1057 30.7647 17.3888 30.2649 17.7809C29.7651 18.173 29.3528 18.6653 29.0546 19.2263C28.5797 20.1176 28.3684 21.1257 28.4454 22.1326C28.4456 22.1344 28.4454 22.1363 28.4449 22.138C28.4444 22.1397 28.4436 22.1413 28.4424 22.1427C28.4413 22.1441 28.4399 22.1453 28.4383 22.1461C28.4367 22.147 28.4349 22.1475 28.4331 22.1477L27.9156 22.2846C27.7711 22.3246 27.6483 22.4202 27.5741 22.5506C27.5 22.6809 27.4805 22.8354 27.52 22.98L27.583 23.2073Z" fill="#00AFA5"/>
  <path d="M55.3095 43.136C54.3568 39.9153 53.3799 36.7001 52.4069 33.4849C49.9242 25.2757 47.4437 17.0669 44.9655 8.85865C44.5304 7.40407 43.7291 6.20547 42.1913 6.03076C41.7109 5.97693 41.2251 5.99382 40.7495 6.08087C40.2671 6.16484 39.8172 6.38289 39.3496 6.53052C38.9159 6.64157 35.6877 7.64515 35.4701 7.71151C31.1334 9.02794 26.7977 10.3471 22.4628 11.6689C22.1155 11.7759 21.9304 11.7163 21.7236 11.3981C20.7291 9.89067 19.2913 9.09566 17.5077 9.11462C14.7389 9.14442 12.6093 11.3331 12.5647 14.1122C12.5566 14.5456 12.4147 14.7271 12.0066 14.8517C10.3851 15.3487 9.51355 16.5527 9.5122 18.2511C9.50589 30.331 9.50319 42.4109 9.50409 54.4909C9.4897 54.7946 9.51331 55.099 9.57436 55.3969C9.96758 56.9775 11.2716 57.9986 12.935 58C22.8821 58 32.8279 58 42.7724 58C42.9075 58 43.0426 58 43.1778 57.9932C44.6196 57.9106 46.0046 56.6118 46.1776 55.1965L46.2722 51.0319C46.2722 50.7501 46.2722 50.4684 46.256 50.1881C46.2343 49.7818 46.3978 49.5881 46.7884 49.473C48.8153 48.8771 50.8179 48.2541 52.8367 47.6473C54.9649 47.0175 55.9432 45.2745 55.3095 43.136ZM14.2214 14.0377C14.2286 13.3655 14.441 12.7117 14.8299 12.164C15.2188 11.6164 15.7656 11.2011 16.3969 10.9741C17.0268 10.7459 17.7104 10.7109 18.3602 10.8737C19.01 11.0366 19.5967 11.3898 20.0454 11.8883C20.3264 12.1985 20.3007 12.3204 19.89 12.4572C19.4413 12.6089 19.1062 12.5926 18.686 12.3082C17.3969 11.4238 15.6389 12.208 15.374 13.7452C15.3303 14.0115 15.3081 14.281 15.3078 14.551C15.3006 16.8299 15.2979 19.1093 15.2997 21.3891C15.2939 21.5579 15.3093 21.7267 15.3456 21.8916C15.4537 22.3196 15.7321 22.5688 16.1848 22.5376C16.6375 22.5065 16.8834 22.2342 16.9455 21.7968C16.9618 21.6289 16.9658 21.4601 16.9577 21.2916C16.9577 19.0443 16.9577 16.7983 16.9577 14.5537C16.9487 14.3852 16.9582 14.2163 16.9861 14.0499C17.0054 13.9222 17.0714 13.8062 17.1713 13.7246C17.2712 13.643 17.3979 13.6015 17.5266 13.6084C17.8279 13.6084 17.9847 13.7926 18.0266 14.0783C18.0421 14.1955 18.0489 14.3136 18.0468 14.4318C18.0468 17.2516 18.0563 20.0713 18.0468 22.8911C18.0468 24.1547 17.2185 24.9524 16.0199 24.8969C15.047 24.8522 14.2416 23.9692 14.2308 23.0008C14.2133 21.4839 14.2308 19.9684 14.2308 18.4515C14.2187 16.9753 14.2079 15.5072 14.2214 14.0377ZM12.0945 16.6001C12.3836 16.4647 12.5593 16.4322 12.5566 16.8534C12.5472 18.8253 12.5566 20.7986 12.5566 22.7719L12.4755 22.7841C12.062 21.4094 11.6269 20.0415 11.2405 18.6601C10.9864 17.7649 11.3553 16.9631 12.0945 16.6001V16.6001ZM18.6454 56.3545C16.7537 56.3545 14.87 56.3545 12.9823 56.3545C11.9175 56.3545 11.2918 55.8046 11.131 54.7726C11.108 54.6106 11.0972 54.4472 11.0986 54.2837V23.9935C11.1797 24.2075 11.2121 24.2793 11.2337 24.3552C12.1805 27.4729 13.1246 30.5901 14.066 33.707C14.4281 34.9029 14.7808 36.1015 15.1592 37.2919C15.1727 37.3326 15.1875 37.3705 15.2038 37.4071L16.3564 41.2913L20.1589 53.8719C20.4859 54.9554 21.148 55.7382 22.1993 56.1743C22.2709 56.2028 22.3695 56.2082 22.3844 56.3504L18.6454 56.3545ZM44.6128 50.7231C44.6047 50.8165 44.602 50.9086 44.6007 51.0021H44.5925C44.5925 51.0021 44.6939 54.0575 44.5101 55.0543C44.3128 56.1147 43.6818 56.3531 42.5089 56.3545H24.4964C24.5856 56.1865 24.7153 56.1987 24.8221 56.1662L36.4768 52.6219C39.0077 51.8526 41.5414 51.0914 44.0669 50.3059C44.5142 50.1678 44.6466 50.2761 44.6128 50.7231ZM52.361 46.0722L52.0232 46.1778C48.2829 47.3155 44.5444 48.4527 40.8076 49.5895C35.2764 51.268 29.7452 52.9442 24.214 54.6182C23.9113 54.7103 23.61 54.8227 23.2762 54.7658C22.4331 54.6236 21.9534 54.1171 21.7115 53.3099C20.5034 49.2829 19.2873 45.2591 18.063 41.2385C17.9117 40.7388 17.7766 40.2309 17.5887 39.7487C17.5842 39.7375 17.5787 39.7266 17.5725 39.7162L16.7361 36.8965C16.7361 36.8816 16.7361 36.8653 16.7361 36.8491C16.7099 36.7337 16.6779 36.6198 16.6402 36.5078C15.6555 33.2573 14.6709 30.0105 13.6863 26.7673C13.5295 26.2513 13.3809 25.7325 13.1944 25.096C13.3363 25.2247 13.3755 25.2558 13.4079 25.291C14.5646 26.5099 16.0213 26.8824 17.4469 26.3136C18.8941 25.7352 19.7035 24.4865 19.7048 22.8112C19.7048 20.1594 19.717 17.5062 19.694 14.8544C19.694 14.3803 19.8292 14.1772 20.2872 14.0418C25.4329 12.496 30.5754 10.938 35.7147 9.36789C35.7663 9.35912 35.8174 9.34691 35.8674 9.33132C36.1903 9.23516 40.4495 7.92008 40.7739 7.82663C42.1251 7.44064 42.9521 7.893 43.3588 9.23787C46.3776 19.2303 49.4008 29.2286 52.4286 39.2327C52.8583 40.6548 53.2884 42.0769 53.719 43.4989C54.1136 44.8127 53.669 45.6483 52.361 46.0722V46.0722Z" fill="#00AFA5"/>
  <path d="M42.8741 41.2262L23.8768 46.991C22.9472 47.273 22.0136 47.5386 21.0895 47.8493C20.6076 48.0081 20.405 48.4134 20.5419 48.8528C20.6788 49.2922 21.0484 49.5113 21.544 49.4168C21.6778 49.3882 21.8099 49.352 21.9396 49.3087L38.2935 44.3543C40.0075 43.8341 41.7205 43.3125 43.4327 42.7896C43.8557 42.6623 44.1788 42.4487 44.2089 41.9586C44.2267 41.307 43.6503 40.988 42.8741 41.2262Z" fill="#00AFA5"/>
  <path d="M43.2181 30.1035C44.0272 29.8585 44.3298 29.4875 44.1764 28.9714C44.0108 28.4238 43.544 28.2718 42.7267 28.5196C35.66 30.6607 28.5933 32.8054 21.5266 34.9538C21.2962 35.0147 21.0742 35.1034 20.8654 35.218C20.5108 35.433 20.4341 35.7848 20.5505 36.1599C20.6669 36.535 20.9612 36.6856 21.3609 36.7226C21.4978 36.687 21.6648 36.6486 21.8278 36.5993C28.9565 34.4327 36.0866 32.2674 43.2181 30.1035Z" fill="#00AFA5"/>
  <path d="M40.5417 35.1795C41.5534 34.8728 42.5651 34.5648 43.5726 34.2445C43.9176 34.1336 44.1654 33.9104 44.1955 33.5148C44.2154 33.3613 44.1897 33.2053 44.1215 33.0662C44.0534 32.9272 43.9458 32.8114 43.8122 32.7331C43.5015 32.5332 43.1921 32.6277 42.8772 32.7235L23.784 38.5239C22.8859 38.7977 21.9865 39.0619 21.0953 39.3535C20.675 39.4904 20.4395 39.8094 20.5135 40.257C20.5874 40.7047 20.8749 40.9415 21.4225 40.9415C21.5594 40.9073 21.7729 40.8607 21.9838 40.7978C28.1707 38.9268 34.3566 37.0541 40.5417 35.1795Z" fill="#00AFA5"/>
  <path d="M41.8118 39.0378C42.4306 38.8502 43.0563 38.675 43.6641 38.4491C44.0748 38.2972 44.2897 37.9577 44.1829 37.5114C44.0871 37.1007 43.8024 36.8775 43.2726 36.8789C43.1452 36.9118 42.9289 36.9583 42.7181 37.0158L23.8658 42.7368C22.9513 43.0106 22.0341 43.2844 21.1279 43.5787C20.6364 43.7389 20.4242 44.1263 20.5241 44.563C20.5645 44.7564 20.6742 44.9285 20.8325 45.0467C20.9908 45.1649 21.1869 45.2213 21.3839 45.2051C21.5358 45.1808 21.6851 45.1427 21.8301 45.0914C28.4925 43.0754 35.1531 41.0575 41.8118 39.0378Z" fill="#00AFA5"/>
</svg>
