<svg id="illustration_keywords_48px" xmlns="http://www.w3.org/2000/svg" width="48" height="48" viewBox="0 0 48 48">
  <rect id="Rectangle_3897" data-name="Rectangle 3897" width="48" height="48" fill="none"/>
  <g id="illustration_keywords" transform="translate(3.429 3.429)">
    <path id="Path_3839" data-name="Path 3839" d="M144.109,138.726h-2.44l1-3.628a1.215,1.215,0,0,0-.828-1.5,1.192,1.192,0,0,0-1.472.841l-1.18,4.282h-6.273l1-3.614a1.216,1.216,0,0,0-.828-1.5,1.192,1.192,0,0,0-1.472.841l-1.176,4.268h-3.387a1.213,1.213,0,0,0,0,2.426h2.718l-1.242,4.5h-2.909a1.213,1.213,0,0,0,0,2.426h2.241l-1.021,3.7a1.2,1.2,0,1,0,2.3.654l1.2-4.359h6.273l-1.017,3.69a1.215,1.215,0,0,0,.828,1.5,1.187,1.187,0,0,0,1.472-.841l1.2-4.345h3.586a1.213,1.213,0,0,0,0-2.426h-2.917l1.242-4.5h3.109a1.213,1.213,0,0,0,0-2.426Zm-6.83,6.931h-6.273l1.242-4.5h6.273Zm0,0" transform="translate(-114.326 -122.887)" fill="#00af9c" stroke="#fff" stroke-width="0.6"/>
    <path id="Path_3840" data-name="Path 3840" d="M35.117,6.026A20.544,20.544,0,0,0,20.6,0h-.03A20.885,20.885,0,0,0,5.165,6.939,20.6,20.6,0,0,0,2.72,30.81l-1.51,6.032a2.551,2.551,0,0,0,.635,2.393,2.455,2.455,0,0,0,2.436.695L10.72,38.64A20.6,20.6,0,0,0,34.2,35.978c5.07-4.932,6.939-9.911,6.939-15.407A20.436,20.436,0,0,0,35.117,6.026ZM32.6,34.175a18.19,18.19,0,0,1-20.978,2.211,1.548,1.548,0,0,0-1.067-.172L3.787,37.569l-.047.01a.537.537,0,0,1-.122.018.339.339,0,0,1-.032-.03.149.149,0,0,1-.039-.14l1.6-6.376a1.536,1.536,0,0,0-.174-1.171,18.167,18.167,0,0,1,15.6-27.471H20.6A18.161,18.161,0,0,1,38.732,20.571,17.608,17.608,0,0,1,32.6,34.175Zm0,0" transform="translate(0)" fill="#00af9c" stroke="#fff" stroke-width="0.6"/>
  </g>
</svg>
