<svg xmlns="http://www.w3.org/2000/svg" width="56.5" height="56" viewBox="0 0 56.5 56">
  <g id="illustration_directory_languages_48px" transform="translate(0.25)">
    <g id="_3277559" data-name="3277559" transform="translate(0 5.833)">
      <path id="Path_28370" data-name="Path 28370" d="M125.187,138.894l.818-2.146h5.445l.81,2.143a.82.82,0,0,0,1.535-.579l-4.056-10.734-.009-.022a1.064,1.064,0,0,0-.987-.66h0a1.064,1.064,0,0,0-.987.662l-.007.018-4.094,10.734a.82.82,0,0,0,1.533.583Zm3.553-9.317,2.091,5.533h-4.2Z" transform="translate(-110.081 -118.597)" fill="#00af9c" stroke="#00af9c" stroke-width="0.5"/>
      <path id="Path_28371" data-name="Path 28371" d="M333.85,252.539h1.012a.819.819,0,1,0,0-1.638h-3.836v-.576a.82.82,0,0,0-1.641,0v.576h-3.836a.819.819,0,1,0,0,1.638h6.65a8.9,8.9,0,0,1-2.432,5.562,3.96,3.96,0,0,1-1.05-2.36.82.82,0,0,0-1.625.225,5.676,5.676,0,0,0,1.351,3.127,9.443,9.443,0,0,1-3.044,1.07.819.819,0,0,0,.148,1.625.828.828,0,0,0,.15-.014,10.654,10.654,0,0,0,4.12-1.619,9.029,9.029,0,0,0,3.388.905c.027,0,.054,0,.081,0a.819.819,0,0,0,.079-1.635,8.74,8.74,0,0,1-2.166-.451,8.287,8.287,0,0,0,.564-.665A11.367,11.367,0,0,0,333.85,252.539Z" transform="translate(-289.212 -227.815)" fill="#00af9c" stroke="#00af9c" stroke-width="0.5"/>
      <path id="Path_28372" data-name="Path 28372" d="M55.18,83.517A.82.82,0,0,0,56,82.7V69.1a2.117,2.117,0,0,0-2.116-2.113h-16.6V53.362a2.449,2.449,0,0,0-2.448-2.445H9.162a.819.819,0,1,0,0,1.638H34.838a.808.808,0,0,1,.808.807V66.991H28.1A2.117,2.117,0,0,0,25.988,69.1v9.3H15.066a2.388,2.388,0,0,0-2.135,1.334L10.563,84.6,8.2,79.736A2.387,2.387,0,0,0,6.06,78.4H2.448a.808.808,0,0,1-.808-.806V53.362a.808.808,0,0,1,.808-.807H9.743a.819.819,0,1,0,0-1.638H2.448A2.449,2.449,0,0,0,0,53.362V77.6A2.449,2.449,0,0,0,2.448,80.04H6.06a.737.737,0,0,1,.659.412l2.609,5.364a1.373,1.373,0,0,0,2.468,0l2.609-5.364a.737.737,0,0,1,.659-.412H25.987v8.352A2.117,2.117,0,0,0,28.1,90.505h2.875a.418.418,0,0,1,.374.234l2.077,4.27a1.26,1.26,0,0,0,2.266,0l2.077-4.269a.419.419,0,0,1,.374-.234H53.884A2.117,2.117,0,0,0,56,88.392V81.6a.82.82,0,0,0-1.641,0v6.792a.476.476,0,0,1-.475.475H38.146a2.069,2.069,0,0,0-1.85,1.156l-1.734,3.565-1.734-3.565a2.069,2.069,0,0,0-1.85-1.156H28.1a.476.476,0,0,1-.475-.475V69.1a.476.476,0,0,1,.475-.475h25.78a.476.476,0,0,1,.476.475V82.7a.819.819,0,0,0,.82.819Z" transform="translate(0 -50.917)" fill="#00af9c" stroke="#00af9c" stroke-width="0.5"/>
    </g>
    <rect id="Rectangle_11988" data-name="Rectangle 11988" width="56" height="56" fill="none"/>
  </g>
</svg>
