<svg xmlns="http://www.w3.org/2000/svg" xmlns:xlink="http://www.w3.org/1999/xlink" width="48" height="48" viewBox="0 0 48 48"><defs><clipPath id="b"><rect width="48" height="48"/></clipPath></defs><g id="a" clip-path="url(#b)"><g transform="translate(-1)"><g transform="translate(-1 -2.998)"><path d="M291.485,396.408H310.93a.96.96,0,0,0,0-1.919H291.485a.96.96,0,0,0,0,1.919Z" transform="translate(-281.199 -369.724)" fill="#00af9c"/><path d="M291.485,400.157H310.93a.96.96,0,0,0,0-1.919H291.485a.96.96,0,0,0,0,1.919Z" transform="translate(-281.199 -369.256)" fill="#00af9c"/><path d="M301.748,403.906a.96.96,0,0,0,0-1.919H291.484a.96.96,0,0,0,0,1.919Z" transform="translate(-281.272 -368.787)" fill="#00af9c"/><path d="M322.9,377.315l-.138-.018h0a10.459,10.459,0,0,0-1.323-.084,10.708,10.708,0,0,0-10.578,11.843H286.479a2.412,2.412,0,0,0-2.4,2.417v20.58a2.411,2.411,0,0,0,2.4,2.415h3.713l0,4.66a1.6,1.6,0,0,0,.9,1.663,1.328,1.328,0,0,0,.5.1h.013a1.787,1.787,0,0,0,1.26-.607l5.767-5.813H317.9a2.411,2.411,0,0,0,2.4-2.416V398.567a10.708,10.708,0,0,0,2.6-21.252Zm-1.461,19.358h0a8.611,8.611,0,0,1-6.146-2.56,8.76,8.76,0,0,1,6.146-14.934h0a8.607,8.607,0,0,1,6.145,2.561,8.759,8.759,0,0,1-6.145,14.933Zm-30.267,15.848h-4.689a.458.458,0,0,1-.455-.46V391.483a.458.458,0,0,1,.453-.46h24.769a10.791,10.791,0,0,0,7.1,7.151v13.884a.459.459,0,0,1-.456.457l-19.659.007h0a.978.978,0,0,0-.686.287l-5.4,5.441V413.5A.978.978,0,0,0,291.169,412.521Z" transform="translate(-282.078 -371.889)" fill="#00af9c"/><path d="M321.115,388.59a.989.989,0,0,0-.466.116l-.034-.03-.192.191a3.614,3.614,0,0,1-5.074,0,.952.952,0,0,0-1.349,0,.971.971,0,0,0,.01,1.368,5.53,5.53,0,0,0,7.759,0,.967.967,0,0,0,.019-1.358A.947.947,0,0,0,321.115,388.59Z" transform="translate(357.474 409.967) rotate(180)" fill="#00af9c"/><path d="M321.319,383.684H321.3a2.584,2.584,0,0,0-2.571,2.572.954.954,0,1,0,1.908.008.673.673,0,0,1,.67-.657h.017a.67.67,0,0,1,.652.648.954.954,0,1,0,1.907,0A2.583,2.583,0,0,0,321.319,383.684Z" transform="translate(356.713 399.833) rotate(180)" fill="#00af9c"/><path d="M314.856,386.261h0a.954.954,0,1,0,1.907-.012,2.589,2.589,0,0,0-2.577-2.551h-.043a2.58,2.58,0,0,0-2.536,2.556.954.954,0,1,0,1.908.007.662.662,0,0,1,.209-.471.737.737,0,0,1,.478-.185A.671.671,0,0,1,314.856,386.261Z" transform="translate(357.66 399.834) rotate(180)" fill="#00af9c"/><path d="M287.7,385.176h11.652l2.694,2.716a1.015,1.015,0,0,0,.716.344h.006a.793.793,0,0,0,.3-.064.882.882,0,0,0,.5-.9v-2.1h2.1a1.414,1.414,0,0,0,1.407-1.415v-5.427a1.418,1.418,0,0,0-1.407-1.418H287.7a1.416,1.416,0,0,0-1.407,1.417v5.427A1.413,1.413,0,0,0,287.7,385.176Zm.505-1.922v-4.411h16.976l0,4.416-2.505-.018a.6.6,0,0,0-.6.6v1.921l-2.332-2.349a.6.6,0,0,0-.425-.179h0Z" transform="translate(-281.871 -371.918)" fill="#00af9c"/><path d="M303.06,380.757a.957.957,0,0,0-.954-.96H290.154a.96.96,0,0,0,0,1.92h11.953A.958.958,0,0,0,303.06,380.757Z" transform="translate(-281.599 -371.629)" fill="#00af9c"/></g><rect width="50" height="48" fill="none"/></g></g></svg>