<svg xmlns="http://www.w3.org/2000/svg" width="70.241" height="64" viewBox="0 0 70.241 64">
  <g transform="translate(-1201.535 -592.163)">
    <g transform="translate(1201.535 592.163)">
      <g transform="translate(0 0)">
        <path d="M67.94,57.7H57.6a4.689,4.689,0,0,0-4.074-5.193v-4.8a2.5,2.5,0,0,0-2.5-2.5H46.939a4.287,4.287,0,1,0-8.326,0H18.547a2.5,2.5,0,0,0-2.5,2.5V57.7H13.039a1.029,1.029,0,1,0,0,2.058h3.007v5.205H2.058V60A.244.244,0,0,1,2.3,59.76H13.039a1.029,1.029,0,0,0,0-2.058H2.3A2.3,2.3,0,0,0,0,60V99.243a2.3,2.3,0,0,0,2.3,2.3H30.385a2.3,2.3,0,0,0,2.3-2.3V95.592h4.868v3.651a2.3,2.3,0,0,0,2.3,2.3H53.528a1.029,1.029,0,1,0,0-2.058H39.856a.244.244,0,0,1-.244-.244V95.592H51.027a2.5,2.5,0,0,0,2.5-2.5V67.023H68.184v32.22a.244.244,0,0,1-.244.244H53.312a1.029,1.029,0,1,0,0,2.058H67.94a2.3,2.3,0,0,0,2.3-2.3V60A2.3,2.3,0,0,0,67.94,57.7Zm-12.364-.534a2.64,2.64,0,1,1-2.64-2.64A2.643,2.643,0,0,1,55.576,57.168Zm-12.8-15.213a2.229,2.229,0,1,1-2.229,2.229A2.232,2.232,0,0,1,42.776,41.955ZM18.547,47.266H39.8a4.276,4.276,0,0,0,5.952,0h5.275a.444.444,0,0,1,.443.443v5a4.7,4.7,0,0,0-1.6.9H18.1v-5.9a.444.444,0,0,1,.443-.443Zm32.48,46.268H18.547a.444.444,0,0,1-.443-.443V74.51a1.029,1.029,0,0,0-2.058,0V93.091a2.5,2.5,0,0,0,2.5,2.5H30.629v3.651a.244.244,0,0,1-.244.244H2.3a.244.244,0,0,1-.244-.244V67.023H16.046v9.462a1.029,1.029,0,1,0,2.058,0V55.666H48.485a4.694,4.694,0,0,0,2.985,5.965v31.46A.444.444,0,0,1,51.027,93.534Zm2.5-28.569V61.828a4.7,4.7,0,0,0,3.323-2.068H67.94a.244.244,0,0,1,.244.244v4.961H53.528Z" transform="translate(0 -37.544)" fill="#647c99"/>
        <path d="M233.692,295.879a4.842,4.842,0,0,0-3.137-1.116h-.016a4.839,4.839,0,0,0-3.128,1.1,1.029,1.029,0,0,0,1.327,1.573,2.822,2.822,0,0,1,1.8-.613h.009a2.824,2.824,0,0,1,1.807.623,1.029,1.029,0,0,0,1.336-1.565Z" transform="translate(-195.897 -257.445)" fill="#647c99"/>
        <path d="M287.936,267.014h-.045a1.028,1.028,0,0,0-.093,2.052h.023c.025,0,.05,0,.076,0h.006a1.012,1.012,0,0,0,.1-.005,1.028,1.028,0,0,0-.073-2.051Z" transform="translate(-247.513 -233.501)" fill="#647c99"/>
        <path d="M206.3,267.012h-.018a1.029,1.029,0,0,0,.006,2.058h.006a1.029,1.029,0,0,0,.006-2.058Z" transform="translate(-177.099 -233.501)" fill="#647c99"/>
        <path d="M53.2,113.471a1.029,1.029,0,0,0,1.455,0l.548-.548.548.548a1.029,1.029,0,1,0,1.455-1.455l-.548-.548.548-.548a1.029,1.029,0,0,0-1.455-1.455l-.548.548-.548-.548A1.029,1.029,0,0,0,53.2,110.92l.548.548-.548.548A1.029,1.029,0,0,0,53.2,113.471Z" transform="translate(-45.64 -97.308)" fill="#647c99"/>
        <path d="M428.661,104.172a1.029,1.029,0,0,0,1.455,0l.548-.548.548.548a1.029,1.029,0,1,0,1.455-1.455l-.548-.548.548-.548a1.029,1.029,0,1,0-1.455-1.455l-.548.548-.548-.548a1.029,1.029,0,1,0-1.455,1.455l.548.548-.548.548a1.029,1.029,0,0,0,0,1.455Z" transform="translate(-369.593 -89.285)" fill="#647c99"/>
        <path d="M237.736,27.056a1.029,1.029,0,0,0,1.455,0l.548-.548.548.548a1.029,1.029,0,0,0,1.455-1.455l-.548-.548.548-.548a1.029,1.029,0,1,0-1.455-1.455l-.548.548-.548-.548a1.029,1.029,0,0,0-1.455,1.455l.548.548-.548.548A1.029,1.029,0,0,0,237.736,27.056Z" transform="translate(-204.861 -22.748)" fill="#647c99"/>
      </g>
    </g>
  </g>
</svg>
