<svg id="illustration_opening_hours_48px" xmlns="http://www.w3.org/2000/svg" width="48" height="48" viewBox="0 0 48 48">
  <rect id="Rectangle_3895" data-name="Rectangle 3895" width="48" height="48" fill="none"/>
  <g id="illustration_opening_hours" transform="translate(2.571 5.143)">
    <path id="Path_3829" data-name="Path 3829" d="M42.661,39.112l-.719-.855a.838.838,0,0,0-1.181-.1L38.449,40.1A19.244,19.244,0,1,0,19.238,58.024a19.483,19.483,0,0,0,2.131-.118.838.838,0,0,0,.741-.925l-.123-1.111a.837.837,0,0,0-.925-.741,16.683,16.683,0,0,1-1.823.1,16.455,16.455,0,1,1,16.418-15.26l-2.048-2.437a.838.838,0,0,0-1.181-.1l-.855.719a.838.838,0,0,0-.1,1.181l4.524,5.383a.838.838,0,0,0,1.181.1l5.383-4.524a.838.838,0,0,0,.1-1.181Z" transform="translate(0 -19.532)" fill="#00af9c" stroke="#fff" stroke-miterlimit="10" stroke-width="1"/>
    <path id="Path_3830" data-name="Path 3830" d="M213.41,266.963h-3.138l1.867-2.325c2.418-2.848,2.316-4.794,1.8-5.925a3.532,3.532,0,0,0-3.253-1.965,4.346,4.346,0,0,0-3.972,2.356.594.594,0,0,0,.27.8l1.067.526a.6.6,0,0,0,.8-.27,1.962,1.962,0,0,1,1.761-1.03h.037a1.185,1.185,0,0,1,1.125.566c.243.537-.014,1.717-1.46,3.417l-.011.013-4.218,5.252a.594.594,0,0,0,.464.967h6.859a.6.6,0,0,0,.595-.595v-1.189A.594.594,0,0,0,213.41,266.963Z" transform="translate(-184.673 -232.479)" fill="#00af9c" stroke="#fff" stroke-miterlimit="10" stroke-width="1"/>
    <path id="Path_3831" data-name="Path 3831" d="M279.057,266.79H278.5v-6.8a.6.6,0,0,0-.595-.595h-1.2a.6.6,0,0,0-.486.252l-6.062,8.588a.595.595,0,0,0,.486.938h5.474v1.765a.6.6,0,0,0,.594.595h1.19a.6.6,0,0,0,.595-.595v-1.765h.557a.6.6,0,0,0,.595-.595v-1.189A.594.594,0,0,0,279.057,266.79Zm-2.936,0h-2.031l2.031-2.878Z" transform="translate(-241.351 -234.772)" fill="#00af9c" stroke="#fff" stroke-miterlimit="10" stroke-width="1"/>
    <path id="Path_3832" data-name="Path 3832" d="M129.9,101.785l-.937-.937a.663.663,0,0,0-.938,0l-10.008,10.008-6.222-6.222a.663.663,0,0,0-.937,0l-.937.937a.663.663,0,0,0,0,.937l7.628,7.628a.663.663,0,0,0,.937,0L129.9,102.722A.663.663,0,0,0,129.9,101.785Z" transform="translate(-100.784 -89.633)" fill="#00af9c" stroke="#fff" stroke-miterlimit="10" stroke-width="1"/>
  </g>
</svg>
