<svg xmlns="http://www.w3.org/2000/svg" width="48" height="48.301" viewBox="0 0 48 48.301">
  <g id="illustration_directory_payment_48px" transform="translate(0 0.151)">
    <rect id="Rectangle_3891" data-name="Rectangle 3891" width="48" height="48" fill="none"/>
    <g id="_1198393" data-name="1198393" transform="translate(4)">
      <path id="Path_28380" data-name="Path 28380" d="M249.736,39.138a.694.694,0,0,0-1.005.226c0,.008-.011.016-.016.024a.705.705,0,0,1-.986.175.694.694,0,0,0-.971.172L245.742,41.2a.707.707,0,0,0,.171.979.693.693,0,0,0,.971-.172l.685-.986a2.1,2.1,0,0,0,1.868-.377l1.029.726a.694.694,0,0,0,.971-.172.707.707,0,0,0-.171-.979Zm0,0" transform="translate(-222.775 -35.354)" fill="#00af9c" stroke="#00af9d" stroke-width="0.3"/>
      <path id="Path_28381" data-name="Path 28381" d="M357.123,97.106l-.685.986a.707.707,0,0,0,.171.979.694.694,0,0,0,.971-.173l1.017-1.463a.707.707,0,0,0-.171-.979.718.718,0,0,1-.174-.994.253.253,0,0,1,.017-.022.708.708,0,0,0-.133-1.03l-1.53-1.08a.694.694,0,0,0-.971.173.707.707,0,0,0,.171.979l1.029.726A2.143,2.143,0,0,0,357.123,97.106Zm0,0" transform="translate(-322.449 -84.465)" fill="#00af9c" stroke="#00af9d" stroke-width="0.3"/>
      <path id="Union_111" data-name="Union 111" d="M3180.26,13989.689h-7.821a3.457,3.457,0,0,1-3.438-3.467v-21.171a3.479,3.479,0,0,1,1.879-3.09V13948.3a1.077,1.077,0,0,1,1.071-1.078h16.728a1.077,1.077,0,0,1,1.071,1.078v2.8l3.228-4.646a1.069,1.069,0,0,1,.692-.442,1.051,1.051,0,0,1,.8.18l14.073,9.936a1.082,1.082,0,0,1,.263,1.5l-3.383,5.251a3.468,3.468,0,0,1,.759,2.17v5.634a3.613,3.613,0,0,1,2.757,3.516v2.876a3.611,3.611,0,0,1-2.757,3.512v5.634a3.457,3.457,0,0,1-3.438,3.467h-7.822a8.391,8.391,0,0,1-14.662,0Zm.3-4.186a7.031,7.031,0,1,0,7.031-7.088A7.07,7.07,0,0,0,3180.559,13985.5Zm22.186,2.781a2.054,2.054,0,0,0,2.044-2.062v-5.535h-4.994a5.05,5.05,0,0,1,0-10.1h4.994v-5.535a2.057,2.057,0,0,0-2.044-2.062h-30.305a1.968,1.968,0,0,0-.615.1.371.371,0,0,0-.053.018,2.059,2.059,0,0,0-1.377,1.945v21.171a2.054,2.054,0,0,0,2.044,2.062h7.189a8.427,8.427,0,1,1,15.927,0Zm-6.564-12.646a3.636,3.636,0,0,0,3.614,3.646h5.56a2.2,2.2,0,0,0,2.188-2.206v-2.876a2.2,2.2,0,0,0-2.188-2.206h-5.56A3.633,3.633,0,0,0,3196.181,13975.639Zm1.18-18.5a4.636,4.636,0,0,1,1.682,4.453h3.7a3.393,3.393,0,0,1,1.6.4l3.136-4.89-13.546-9.56-9.76,14.052h4.541a8.481,8.481,0,0,1,1.011-1.936,7.673,7.673,0,0,1,3.652-2.908,5.2,5.2,0,0,1,1.715-.307A3.879,3.879,0,0,1,3197.361,13957.134Zm-25.086-2.167v6.623c.056,0,.109,0,.165,0h1.858v-12.952h-2.023v6.332Zm18.593,5.492a6.988,6.988,0,0,0-.643,1.128h7.41a3.319,3.319,0,0,0-1.075-3.3,2.533,2.533,0,0,0-1.483-.447A5.56,5.56,0,0,0,3190.867,13960.459Zm-11.832,1.128h3.438l5.883-8.472v-4.484h-9.321Zm-3.344,0h1.949v-12.956h-1.949Zm10.554,28.022a3.631,3.631,0,0,1-1.932-1.788,4.893,4.893,0,0,1-.355-.934c-.007-.028-.018-.053-.028-.085h-.832c-.235,0-.337-.105-.337-.34v-.51a.283.283,0,0,1,.305-.309h.709v-.488h-.091c-.211,0-.421,0-.632,0a.275.275,0,0,1-.292-.285c0-.192,0-.383,0-.572a.28.28,0,0,1,.3-.3c.278,0,.552,0,.825,0h.095c.056-.157.105-.309.169-.456a3.884,3.884,0,0,1,1.141-1.584,3.627,3.627,0,0,1,1.6-.762c.242-.053.5-.077.741-.112l.084-.015h.59c.133.018.267.032.4.053a5.045,5.045,0,0,1,1.355.383.784.784,0,0,1,.147.092.315.315,0,0,1,.109.379c-.112.284-.232.565-.358.84a.322.322,0,0,1-.421.165c-.306-.074-.608-.155-.913-.222a3.354,3.354,0,0,0-1.584.021,1.953,1.953,0,0,0-1.338,1.218h1.777c.232,0,.337.105.337.331v.52a.279.279,0,0,1-.309.306h-2.065v.488h2.037c.235,0,.337.1.337.337v.484c0,.231-.1.337-.33.337h-1.861a2.747,2.747,0,0,0,.351.7,1.987,1.987,0,0,0,1.384.79,3.942,3.942,0,0,0,1.619-.13c.183-.046.369-.095.551-.138a.338.338,0,0,1,.457.215c.112.246.218.491.316.737a.354.354,0,0,1-.221.51,5.505,5.505,0,0,1-1.581.418,4.872,4.872,0,0,1-.544.03A4.6,4.6,0,0,1,3186.245,13989.609Zm14.164-11.361h-.007a2.665,2.665,0,0,1-1.925-.829.629.629,0,0,1-.123-.183,2.668,2.668,0,0,1,.049-3.337.8.8,0,0,1,.13-.175,2.63,2.63,0,0,1,1.868-.773h.01a2.538,2.538,0,0,1,.709.1.012.012,0,0,1,.01,0l.035.011c.01,0,.021.007.035.01a.012.012,0,0,1,.01,0,2.645,2.645,0,0,1,.327,4.913,2.57,2.57,0,0,1-1.127.257Zm-1.2-2.648a1.208,1.208,0,1,0,2.416,0,1.226,1.226,0,0,0-.312-.818.039.039,0,0,1-.018-.018c-.028-.024-.053-.053-.077-.073a1.2,1.2,0,0,0-2.009.909Z" transform="translate(-3169 -13946)" fill="#00af9c" stroke="#00af9d" stroke-width="0.3"/>
    </g>
  </g>
</svg>
