<svg id="illustration_photos_48px" xmlns="http://www.w3.org/2000/svg" width="48" height="48" viewBox="0 0 48 48">
  <g id="illustration_photos" transform="translate(3.429 6.857)">
    <g id="Group_3209" data-name="Group 3209">
      <g id="Group_3208" data-name="Group 3208">
        <path id="Path_3821" data-name="Path 3821" d="M38.732,52.429H29.907l-2.548-5.1A2.4,2.4,0,0,0,25.2,46H15.94a2.4,2.4,0,0,0-2.156,1.333l-2.548,5.1H9.643v-.8a2.413,2.413,0,0,0-2.411-2.411H5.625a2.413,2.413,0,0,0-2.411,2.411v.8h-.8A2.413,2.413,0,0,0,0,54.839v22.5A2.413,2.413,0,0,0,2.411,79.75H38.732a2.413,2.413,0,0,0,2.411-2.411v-22.5A2.413,2.413,0,0,0,38.732,52.429ZM15.221,48.052a.8.8,0,0,1,.719-.445H25.2a.8.8,0,0,1,.719.445l2.188,4.377H13.032Zm-10.4,3.573a.8.8,0,0,1,.8-.8H7.232a.8.8,0,0,1,.8.8v.8H4.821ZM1.607,60.456H11.768a10.462,10.462,0,0,0,0,11.258H1.607ZM20.571,57.25a8.839,8.839,0,1,1-8.839,8.839A8.844,8.844,0,0,1,20.571,57.25ZM39.536,77.339a.8.8,0,0,1-.8.8H2.411a.8.8,0,0,1-.8-.8V73.321H13.036a10.44,10.44,0,0,0,15.071,0H39.536Zm0-5.625H29.374a10.448,10.448,0,0,0,0-11.25H39.536Zm0-12.857H28.107a10.44,10.44,0,0,0-15.071,0H1.607V54.839a.8.8,0,0,1,.8-.8H38.732a.8.8,0,0,1,.8.8Z" transform="translate(0 -46)" fill="#00af9c"/>
      </g>
    </g>
    <g id="Group_3213" data-name="Group 3213" transform="translate(13.128 12.612)">
      <g id="Group_3212" data-name="Group 3212" transform="translate(0 0)">
        <path id="Path_3823" data-name="Path 3823" d="M173.352,206a7.352,7.352,0,1,0,7.352,7.352A7.36,7.36,0,0,0,173.352,206Zm0,13.07a5.718,5.718,0,1,1,5.718-5.718A5.725,5.725,0,0,1,173.352,219.07Z" transform="translate(-166 -206)" fill="#00af9c"/>
      </g>
    </g>
    <g id="Group_3215" data-name="Group 3215" transform="translate(16.037 15.442)">
      <g id="Group_3214" data-name="Group 3214">
        <path id="Path_3824" data-name="Path 3824" d="M210.962,246A4.968,4.968,0,0,0,206,250.962a.992.992,0,0,0,1.985,0,2.981,2.981,0,0,1,2.977-2.977.992.992,0,1,0,0-1.985Z" transform="translate(-206 -246)" fill="#00af9c"/>
      </g>
    </g>
    <g id="Group_3217" data-name="Group 3217" transform="translate(33.203 9.53)">
      <g id="Group_3216" data-name="Group 3216">
        <path id="Path_3825" data-name="Path 3825" d="M434.977,166h-1.985a.992.992,0,1,0,0,1.985h1.985a.992.992,0,1,0,0-1.985Z" transform="translate(-432 -166)" fill="#00af9c"/>
      </g>
    </g>
  </g>
  <rect id="Rectangle_3893" data-name="Rectangle 3893" width="48" height="48" fill="none"/>
</svg>
