<svg xmlns="http://www.w3.org/2000/svg" width="52.691" height="48" viewBox="0 0 52.691 48">
  <g transform="translate(-284.078 -376.917)">
    <path d="M291.578,396.582h21.346a1.047,1.047,0,0,0,0-2.093H291.578a1.047,1.047,0,1,0,0,2.093Z" transform="translate(1.595 3.991)" fill="#00af9c"/>
    <path d="M291.578,400.331h21.346a1.047,1.047,0,0,0,0-2.093H291.578a1.047,1.047,0,1,0,0,2.093Z" transform="translate(1.595 4.842)" fill="#00af9c"/>
    <path d="M302.845,404.08a1.047,1.047,0,0,0,0-2.093H291.577a1.047,1.047,0,1,0,0,2.093Z" transform="translate(1.515 5.694)" fill="#00af9c"/>
    <path d="M326.69,377.324l-.152-.02h0a11.555,11.555,0,0,0-1.453-.092A11.693,11.693,0,0,0,313.406,388.9a11.525,11.525,0,0,0,.066,1.237H286.714a2.639,2.639,0,0,0-2.636,2.636v22.45a2.638,2.638,0,0,0,2.636,2.635h4.076l0,5.084a1.74,1.74,0,0,0,.987,1.815,1.466,1.466,0,0,0,.548.1h.015a1.967,1.967,0,0,0,1.383-.662l6.331-6.342H321.2a2.638,2.638,0,0,0,2.636-2.636v-14.71a11.681,11.681,0,0,0,2.854-23.184Zm-1.6,21.118h0a9.542,9.542,0,0,1,0-19.085h0a9.542,9.542,0,0,1,0,19.085ZM291.861,415.73h-5.148a.5.5,0,0,1-.5-.5V392.78a.5.5,0,0,1,.5-.5H313.9a11.809,11.809,0,0,0,7.793,7.8v15.146a.5.5,0,0,1-.5.5l-21.58.007h0a1.077,1.077,0,0,0-.753.313l-5.927,5.936V416.8A1.07,1.07,0,0,0,291.861,415.73Z" transform="translate(0 0.059)" fill="#00af9c"/>
    <path d="M321.838,388.59a1.092,1.092,0,0,0-.511.126l-.037-.032-.211.209a3.985,3.985,0,0,1-5.57,0,1.047,1.047,0,1,0-1.47,1.492,6.1,6.1,0,0,0,8.518,0,1.047,1.047,0,0,0-.718-1.8Z" transform="translate(7.038 2.661)" fill="#00af9c"/>
    <path d="M321.572,383.684h-.016a2.828,2.828,0,0,0-2.822,2.805,1.047,1.047,0,0,0,2.095.008.737.737,0,0,1,.736-.717h.019a.733.733,0,0,1,.715.707,1.047,1.047,0,1,0,2.093,0A2.826,2.826,0,0,0,321.572,383.684Z" transform="translate(8.042 1.544)" fill="#00af9c"/>
    <path d="M315.173,386.494h0a1.047,1.047,0,0,0,2.093-.013,2.833,2.833,0,0,0-2.829-2.782h-.047a2.823,2.823,0,0,0-2.784,2.788,1.047,1.047,0,0,0,2.095.007.72.72,0,0,1,.229-.514.812.812,0,0,1,.525-.2A.734.734,0,0,1,315.173,386.494Z" transform="translate(6.306 1.547)" fill="#00af9c"/>
    <path d="M287.841,385.927h12.791l2.958,2.963a1.117,1.117,0,0,0,.786.376h.006a.875.875,0,0,0,.334-.07.961.961,0,0,0,.55-.978v-2.289h2.308a1.547,1.547,0,0,0,1.545-1.544v-5.92a1.552,1.552,0,0,0-1.545-1.547H287.841a1.549,1.549,0,0,0-1.545,1.546v5.92A1.547,1.547,0,0,0,287.841,385.927Zm.555-2.1v-4.812H307.03l0,4.817-2.75-.019a.66.66,0,0,0-.66.659v2.1l-2.56-2.563a.662.662,0,0,0-.467-.2h0Z" transform="translate(0.444 0)" fill="#00af9c"/>
    <path d="M304.415,380.844a1.048,1.048,0,0,0-1.047-1.047H290.247a1.047,1.047,0,0,0,0,2.095h13.121A1.049,1.049,0,0,0,304.415,380.844Z" transform="translate(1.026 0.577)" fill="#00af9c"/>
  </g>
</svg>
