<svg id="illustration_session_expired_48px" xmlns="http://www.w3.org/2000/svg" width="48" height="48" viewBox="0 0 48 48">
  <path id="Union_110" data-name="Union 110" d="M23.564,39.619A19.972,19.972,0,1,1,19.973,0,19.577,19.577,0,0,1,32.258,4.218l.006,0,.019.015q.024.02.047.043a20.385,20.385,0,0,1,7.617,15.691,20.177,20.177,0,0,1-.128,2.251,12.823,12.823,0,0,1,4.993,20.416c.027-.006.018.005-.042.047A12.6,12.6,0,0,1,35.175,47,12.842,12.842,0,0,1,23.564,39.619Zm.192-5.443A11.428,11.428,0,0,0,35.175,45.595a13.11,13.11,0,0,0,8.543-3.843,11.418,11.418,0,1,0-19.962-7.576ZM1.406,19.972A18.57,18.57,0,0,0,23.024,38.285a12.727,12.727,0,0,1-.627-3.009,15.637,15.637,0,0,1-2.424.19C14.248,35.466,7.364,32.211,5.314,25a15.5,15.5,0,1,1,30.154-5.031c0,.459-.023.922-.064,1.384a12.791,12.791,0,0,1,3.047.422c.059-.6.089-1.206.089-1.805a20.213,20.213,0,0,0-7.1-14.6c.013.014.022.024,0,0A18.378,18.378,0,0,0,19.973,1.407,18.587,18.587,0,0,0,1.406,19.972ZM19.973,34.06a14.21,14.21,0,0,0,2.38-.2A12.843,12.843,0,0,1,33.988,21.408a14.088,14.088,0,1,0-28.1-1.436,14.06,14.06,0,0,0,.76,4.574q.01.028.017.056C8.576,30.963,14.97,34.06,19.973,34.06Zm13.092,7.033v-.9a2.109,2.109,0,0,1,4.219,0v.9a2.109,2.109,0,0,1-4.219,0Zm1.406-.9v.9a.7.7,0,0,0,1.406,0v-.9a.7.7,0,0,0-1.406,0Zm-1.406-4.541v-8.4a2.109,2.109,0,0,1,4.219,0v8.4a2.109,2.109,0,0,1-4.219,0Zm1.406-8.4v8.4a.7.7,0,0,0,1.406,0v-8.4a.7.7,0,0,0-1.406,0ZM19.559,32.173v-.994a.7.7,0,0,1,1.406,0v.994a.7.7,0,0,1-1.406,0Zm-8.507-3.281a.7.7,0,0,1,0-.994l.7-.7a.7.7,0,1,1,.994.994l-.7.7a.7.7,0,0,1-.994,0Zm8.43-8.127-2.473-2.408a.7.7,0,1,1,.981-1.007L19.27,18.6V13.608a.7.7,0,0,1,1.406,0v6.654a.7.7,0,0,1-.709.7A.688.688,0,0,1,19.482,20.765Zm11.409-.09a.7.7,0,1,1,0-1.406h.994a.7.7,0,1,1,0,1.406Zm-22.831,0a.7.7,0,1,1,0-1.406h.994a.7.7,0,1,1,0,1.406ZM27.2,12.749a.7.7,0,0,1,0-.994l.7-.7a.7.7,0,0,1,.994.994l-.7.7a.7.7,0,0,1-.994,0Zm-15.441,0-.7-.7a.7.7,0,0,1,.994-.994l.7.7a.7.7,0,0,1-.994.994ZM19.27,9.054V8.06a.7.7,0,0,1,1.406,0v.994a.7.7,0,0,1-1.406,0Z" transform="translate(0 0.999)" fill="#00af9c"/>
  <rect id="Rectangle_11688" data-name="Rectangle 11688" width="48" height="48" fill="none"/>
</svg>
