<svg id="illustration_social_media_48px" xmlns="http://www.w3.org/2000/svg" width="48" height="48" viewBox="0 0 48 48">
  <g id="illustration_social-media" transform="translate(0.857 0.857)">
    <g id="Group_3160" data-name="Group 3160" transform="translate(15.497 3.859)">
      <g id="Group_3159" data-name="Group 3159" transform="translate(0 0)">
        <rect id="Rectangle_2694" data-name="Rectangle 2694" width="15.275" height="1.455" fill="#00af9c" stroke="#1aaf9c" stroke-width="0.2"/>
      </g>
    </g>
    <g id="Group_3162" data-name="Group 3162" transform="translate(10.029 15.429)">
      <g id="Group_3161" data-name="Group 3161">
        <path id="Path_3780" data-name="Path 3780" d="M132.157,173.5a2.7,2.7,0,0,0-2.7-2.7h-1.543V160h-1.543v10.8h-1.929a2.7,2.7,0,0,0-1.884,4.629,2.668,2.668,0,0,0-.406,3.343,2.7,2.7,0,0,0-1.568,2.443,2.668,2.668,0,0,0,.271,1.157H114.8a6.94,6.94,0,0,0-2.985-5.7,4.636,4.636,0,0,0,2.985-4.327.771.771,0,0,0-.771-.771h-6.171v-7.714h-1.543v7.714A2.317,2.317,0,0,0,104,173.886v16.971h1.543V173.886a.772.772,0,0,1,.771-.771h6.845a3.091,3.091,0,0,1-2.988,2.314h-2.314a.771.771,0,0,0,0,1.543,5.406,5.406,0,0,1,5.4,5.4v.771a.771.771,0,0,0,.771.771h4.514a2.669,2.669,0,0,0-.271,1.157,2.7,2.7,0,0,0,2.7,2.7v3.086h1.543v-3.086h3.471a2.7,2.7,0,0,0,2.7-2.7,2.667,2.667,0,0,0-.277-1.168,2.679,2.679,0,0,0,2.18-4.1,2.687,2.687,0,0,0,.751-4.371A2.689,2.689,0,0,0,132.157,173.5Zm-6.171,12.729h-5.014a1.157,1.157,0,1,1,0-2.314h5.014a1.157,1.157,0,1,1,0,2.314Zm2.314-3.857h-5.014a1.157,1.157,0,1,1,0-2.314H128.3a1.157,1.157,0,1,1,0,2.314Zm1.157-3.857h-5.014a1.157,1.157,0,0,1,0-2.314h5.014a1.157,1.157,0,0,1,0,2.314Zm0-3.857h-5.014a1.157,1.157,0,1,1,0-2.314h5.014a1.157,1.157,0,1,1,0,2.314Z" transform="translate(-104 -160)" fill="#00af9c" stroke="#1aaf9c" stroke-width="0.2"/>
      </g>
    </g>
    <g id="Group_3164" data-name="Group 3164" transform="translate(3.086 6.943)">
      <g id="Group_3163" data-name="Group 3163">
        <path id="Path_3781" data-name="Path 3781" d="M40.483,74.876a.771.771,0,0,0-.3-.56l-.8-.609a2.105,2.105,0,0,0-4.173.385,4.478,4.478,0,0,1-1.733-.7l-.269-.182a.771.771,0,0,0-1.2.639v.633a4.456,4.456,0,0,0,.8,2.561l-.577.584a.771.771,0,0,0,.548,1.314h3.738A2.92,2.92,0,0,0,39.4,76.348l.864-.874A.772.772,0,0,0,40.483,74.876Zm-2.386.593a.77.77,0,0,0-.223.542A1.379,1.379,0,0,1,36.509,77.4H34.547a.773.773,0,0,0-.159-.851,2.95,2.95,0,0,1-.748-1.318,6,6,0,0,0,2.336.472.771.771,0,0,0,.771-.771v-.81a.564.564,0,1,1,1.127,0,.772.772,0,0,0,.305.615l.368.278Z" transform="translate(-32 -72)" fill="#00af9c" stroke="#1aaf9c" stroke-width="0.2"/>
      </g>
    </g>
    <g id="Group_3166" data-name="Group 3166" transform="translate(20.829 11.571)">
      <g id="Group_3165" data-name="Group 3165">
        <path id="Path_3782" data-name="Path 3782" d="M220.629,121.543V120h-2.314a.771.771,0,0,0-.771.771v2.314H216v1.543h1.543v3.086h1.543v-3.086h1.543v-1.543h-1.543v-1.543Z" transform="translate(-216 -120)" fill="#00af9c" stroke="#1aaf9c" stroke-width="0.2"/>
      </g>
    </g>
    <g id="Group_3168" data-name="Group 3168" transform="translate(16.2 8.486)">
      <g id="Group_3167" data-name="Group 3167">
        <path id="Path_3783" data-name="Path 3783" d="M179.571,88h-9.257A2.317,2.317,0,0,0,168,90.314v9.257a2.317,2.317,0,0,0,2.314,2.314h9.257a2.317,2.317,0,0,0,2.314-2.314V90.314A2.317,2.317,0,0,0,179.571,88Zm.771,11.571a.772.772,0,0,1-.771.771h-9.257a.772.772,0,0,1-.771-.771V90.314a.772.772,0,0,1,.771-.771h9.257a.772.772,0,0,1,.771.771Z" transform="translate(-168 -88)" fill="#00af9c" stroke="#1aaf9c" stroke-width="0.2"/>
      </g>
    </g>
    <g id="Group_3170" data-name="Group 3170" transform="translate(0 3.857)">
      <g id="Group_3169" data-name="Group 3169">
        <path id="Path_3784" data-name="Path 3784" d="M11.571,40H2.314A2.317,2.317,0,0,0,0,42.314v9.257a2.317,2.317,0,0,0,2.314,2.314h9.257a2.317,2.317,0,0,0,2.314-2.314V42.314A2.317,2.317,0,0,0,11.571,40Zm.771,11.571a.772.772,0,0,1-.771.771H2.314a.772.772,0,0,1-.771-.771V42.314a.772.772,0,0,1,.771-.771h9.257a.772.772,0,0,1,.771.771Z" transform="translate(0 -40)" fill="#00af9c" stroke="#1aaf9c" stroke-width="0.2"/>
      </g>
    </g>
    <g id="Group_3172" data-name="Group 3172" transform="translate(32.4)">
      <g id="Group_3171" data-name="Group 3171">
        <path id="Path_3785" data-name="Path 3785" d="M347.571,0h-9.257A2.317,2.317,0,0,0,336,2.314v9.257a2.317,2.317,0,0,0,2.314,2.314h9.257a2.317,2.317,0,0,0,2.314-2.314V2.314A2.317,2.317,0,0,0,347.571,0Zm.771,11.571a.772.772,0,0,1-.771.771h-9.257a.772.772,0,0,1-.771-.771V7.714h1.621a3.857,3.857,0,0,0,7.558,0h1.621Zm-7.714-4.629a2.314,2.314,0,1,1,2.314,2.314A2.317,2.317,0,0,1,340.629,6.943Zm7.714-.771h-1.621a3.857,3.857,0,0,0-7.558,0h-1.621V2.314a.772.772,0,0,1,.771-.771h9.257a.772.772,0,0,1,.771.771Z" transform="translate(-336)" fill="#00af9c" stroke="#1aaf9c" stroke-width="0.2"/>
      </g>
    </g>
    <g id="Group_3174" data-name="Group 3174" transform="translate(22.044 31.5)">
      <g id="Group_3173" data-name="Group 3173" transform="translate(0 0)">
        <rect id="Rectangle_2695" data-name="Rectangle 2695" width="1.455" height="1.455" fill="#00af9c" stroke="#1aaf9c" stroke-width="0.2"/>
      </g>
    </g>
  </g>
  <rect id="Rectangle_3890" data-name="Rectangle 3890" width="48" height="48" fill="none"/>
</svg>
