<?xml version="1.0" encoding="utf-8"?>
<!-- Generator: Adobe Illustrator 25.0.1, SVG Export Plug-In . SVG Version: 6.00 Build 0)  -->
<svg version="1.1" id="Ebene_1" xmlns="http://www.w3.org/2000/svg" xmlns:xlink="http://www.w3.org/1999/xlink" x="0px" y="0px"
	 viewBox="0 0 49.2 47" style="enable-background:new 0 0 49.2 47;" xml:space="preserve">
<style type="text/css">
	.st0{fill:#00AF9C;}
</style>
<g>
	<path class="st0" d="M48.3,7.9c-0.8-0.3-1.6,0-2,0.8l-1.3,3.1C40.7,4.5,33,0,24.6,0C11.6,0,1.1,10.5,1.1,23.5
		c0,0.8,0.7,1.5,1.5,1.5s1.5-0.7,1.5-1.5C4.1,12.2,13.3,3,24.6,3c7,0,13.4,3.5,17.2,9.3l-2.2-1c-0.8-0.3-1.6,0-2,0.8
		c-0.3,0.8,0,1.6,0.8,2l6.1,2.6c0.2,0.1,0.4,0.1,0.6,0.1c0.6,0,1.1-0.3,1.4-0.9L49,9.9C49.4,9.1,49,8.2,48.3,7.9z"/>
	<path class="st0" d="M46.6,22c-0.8,0-1.5,0.7-1.5,1.5c0,11.3-9.2,20.5-20.5,20.5c-7,0-13.4-3.5-17.2-9.3l2.2,1c0.8,0.3,1.6,0,2-0.8
		s0-1.6-0.8-2l-6.1-2.6c-0.8-0.3-1.6,0-2,0.8l-2.6,6.1c-0.3,0.8,0,1.6,0.8,2c0.2,0.1,0.4,0.1,0.6,0.1c0.6,0,1.1-0.3,1.4-0.9l1.3-3.1
		C8.4,42.5,16.1,47,24.6,47c13,0,23.5-10.5,23.5-23.5C48.1,22.7,47.4,22,46.6,22z"/>
</g>
</svg>
