<svg id="illustration_thumbs_up_64px" xmlns="http://www.w3.org/2000/svg" width="50" height="64" viewBox="0 0 50 64">
  <path id="Path_6955" data-name="Path 6955" d="M186.136,292.6v-.014h0Z" transform="translate(-172.028 -233.911)" fill="#16af9c"/>
  <path id="Path_6956" data-name="Path 6956" d="M207.363,241.285a3.261,3.261,0,0,0-2.592-2.357c-2.993-.12-5.99-.134-8.986-.188-.411-.008-.822,0-1.313,0,.6-1.192,1.162-2.252,1.683-3.332,2.036-4.22,1.241-8.133-1.367-11.783a6.416,6.416,0,0,0-4.187-2.75c-2.86-.493-4.774,1.359-4.38,4.242.06.436.128.872.226,1.3a6.542,6.542,0,0,1-1.653,6.1q-1.674,1.889-3.333,3.791h0l-3.178,3.45c-.013-1.687-.2-2.052-2.851-1.966-3.21.1-9.118-.033-12.329,0-.379,0-.277.006-.1.006-.9.029-1.186.543-1.128,1.452l-.057,11.142q.013,8.2,0,16.409c0,.975.416,1.45,1.349,1.452q6.747.012,13.494,0a1.2,1.2,0,0,0,1.352-1.353c0-.461,0-.923,0-1.312,1.83.509,3.51,1.294,5.227,1.391,4.231.238,8.479.174,12.72.2a18.359,18.359,0,0,0,2.708-.2c2.534-.363,4.25-1.858,4.572-4.17a14.5,14.5,0,0,0-.232-3.084c2.161-1.914,2.553-3.639,1.42-6.676a5.178,5.178,0,0,0,1.145-6.464C207.452,244.607,207.885,243.561,207.363,241.285Zm-31.4,20.454c0-.09,0-.114.006-.092S175.959,261.709,175.959,261.739Zm-.012.406c-.009.293-.021.627-.027.789.038-1.041,0,2.092,0,3.11H163.911v-1.382q0-7.1,0-14.207c0-.079,0-.156-.007-.232-.009-3.13-.027-10.264-.027-10.264.713-.045,4.517,0,5.083-.04,2.3-.038,4.606-.013,6.965-.013.029.34.077.625.075.91C175.984,243.73,175.938,259.989,175.947,262.145Zm26.8-16.936c-.675.052-1.271.177-1.326.98-.057.853.5,1.125,1.246,1.182,1.031.077,1.434.707,1.431,1.7,0,1.635-.778,2.461-2.549,2.627-.709.066-1.356.221-1.36,1.082,0,.774.532.99,1.24,1.074,1.2.142,1.668.84,1.516,2.071a2.683,2.683,0,0,1-2.615,2.47c-.669.056-1.256.133-1.328.961s.469,1.061,1.126,1.211a1.373,1.373,0,0,1,1.089,1.742,2.515,2.515,0,0,1-1.8,2.268,11.448,11.448,0,0,1-2.882.449c-3.772.051-7.545,0-11.317.032a12.645,12.645,0,0,1-5.855-1.448,2.192,2.192,0,0,1-1.441-1.924c-.009-.068-.021-.131-.034-.191.077-4.3.25-16.383.307-19.083,1.225-1.2,3.159-3.046,3.817-3.772,1.671-1.834,3.4-3.625,4.966-5.544a7.589,7.589,0,0,0,1.632-6.292c-.128-.759-.2-1.528-.354-2.282a1.14,1.14,0,0,1,1.024-1.5,3.494,3.494,0,0,1,3.377,1.342c2.117,2.178,3.518,6.632,1.67,9.988-.846,1.537-1.662,3.092-2.473,4.649-.55,1.055-.081,1.757,1.085,1.742,1.231-.015,2.463.053,3.694.058,2.6.011,4.245,0,6.854,0,0,0,1.138-.049,1.529.63C205.548,243.561,204.944,245.039,202.747,245.209Z" transform="translate(-161.812 -204.258)" fill="#16af9c"/>
  <path id="Path_6957" data-name="Path 6957" d="M226.278,210.371c1.763-1.788,3.536-3.567,5.289-5.366a6.632,6.632,0,0,0,.65-1c-.259-.319-.468-.819-.74-.856a1.771,1.771,0,0,0-1.326.335c-1.835,1.766-3.6,3.6-5.4,5.411-.528.531-.788,1.119-.177,1.707S225.762,210.893,226.278,210.371Z" transform="translate(-188.023 -196.963)" fill="#16af9c"/>
  <path id="Path_6958" data-name="Path 6958" d="M190.354,210.112c.548.559,1.149.886,1.771.227.577-.612.252-1.2-.263-1.717-1.744-1.754-3.473-3.525-5.224-5.273a8.251,8.251,0,0,0-1.046-.746c-.33.286-.818.507-.853.787a1.837,1.837,0,0,0,.347,1.339C186.805,206.559,188.6,208.318,190.354,210.112Z" transform="translate(-171.435 -196.745)" fill="#16af9c"/>
  <path id="Path_6959" data-name="Path 6959" d="M210.413,202.922c.785-.021,1-.581.99-1.3-.015-1.247,0-2.5,0-3.743,0-1.321-.009-2.643,0-3.963.007-.711-.2-1.278-.989-1.3s-1.05.518-1.05,1.24q0,3.908,0,7.817C209.365,202.4,209.628,202.943,210.413,202.922Z" transform="translate(-181.783 -192.622)" fill="#16af9c"/>
  <path id="Path_6960" data-name="Path 6960" d="M175.445,229.824c1.27-.012,2.539,0,3.809,0,1.306,0,2.612-.005,3.917,0,.72,0,1.235-.262,1.225-1.056-.01-.728-.5-1.011-1.168-1.012q-3.918-.006-7.835,0c-.666,0-1.164.285-1.173,1.01C174.212,229.551,174.72,229.831,175.445,229.824Z" transform="translate(-167.023 -207.133)" fill="#16af9c"/>
  <path id="Path_6961" data-name="Path 6961" d="M239.488,227.756q-3.916-.008-7.833,0c-.655,0-1.162.259-1.169,1.005-.007.8.5,1.065,1.22,1.061,1.269-.006,2.538,0,3.807,0,1.306,0,2.611-.011,3.916,0,.726.007,1.228-.271,1.224-1.056C240.649,228.037,240.151,227.757,239.488,227.756Z" transform="translate(-190.654 -207.132)" fill="#16af9c"/>
</svg>
