<svg id="illustration_apprenticeship_48px" xmlns="http://www.w3.org/2000/svg" width="56" height="56" viewBox="0 0 56 56">
  <g id="knowledge" transform="translate(5)">
    <path id="Path_16357" data-name="Path 16357" d="M7.933,59.1h3.733v.933a.933.933,0,0,0,.933.933h3.733a.933.933,0,0,0,.933-.933v-.84l17.64,1.773a.79.79,0,0,0,.093,0,.933.933,0,0,0,.417-.093l16.635-8.318A3.229,3.229,0,0,0,53.6,48.491a3.052,3.052,0,0,0-1.744-1.805,3.962,3.962,0,0,0-3.221.353l-9.25,3.36a2.8,2.8,0,0,0-2.515-1.566h-19.6V47.9a.933.933,0,0,0-.933-.933H12.6a.933.933,0,0,0-.933.933v.933H7.933A.933.933,0,0,0,7,49.766v8.4a.933.933,0,0,0,.933.933Zm9.333-8.4h19.6a.933.933,0,0,1,0,1.867H27.533v1.867h9.333a2.8,2.8,0,0,0,2.707-2.111l9.748-3.547a.915.915,0,0,0,.1-.042,2.349,2.349,0,0,1,1.773-.3,1.225,1.225,0,0,1,.675.747,1.351,1.351,0,0,1-.647,1.7l-16.4,8.2L17.266,57.326Zm-3.733-1.867H15.4V59.1H13.533ZM8.867,50.7h2.8v6.533h-2.8Z" transform="translate(-7 -4.967)" fill="#00af9c"/>
    <path id="Path_16358" data-name="Path 16358" d="M24.6,30.992V39.8a.933.933,0,0,0,.933.933h.933v2.8a.933.933,0,0,0,.933.933h7.466a.933.933,0,0,0,.933-.933v-2.8h.933a.933.933,0,0,0,.933-.933V30.992a11.5,11.5,0,0,0,5.6-9.859,12.133,12.133,0,0,0-24.266,0,11.5,11.5,0,0,0,5.6,9.859ZM33.933,42.6h-5.6V40.733h5.6ZM35.8,38.866H26.466V37H35.8Zm0-3.733H26.466V33.266H35.8ZM30.2,31.4V25.8h1.867v5.6Zm.933-20.533A10.279,10.279,0,0,1,41.4,21.133a9.628,9.628,0,0,1-5.133,8.526.933.933,0,0,0-.467.807V31.4H33.933V25.8H35.8V23.933H26.466V25.8h1.867v5.6H26.466v-.933A.933.933,0,0,0,26,29.659a9.628,9.628,0,0,1-5.133-8.526A10.279,10.279,0,0,1,31.133,10.867Z" transform="translate(-7.8 -2.467)" fill="#00af9c"/>
    <path id="Path_16359" data-name="Path 16359" d="M31.4,14.867V13c-2.905,0-8.4,1.756-8.4,8.4h1.867C24.867,14.976,31.136,14.867,31.4,14.867Z" transform="translate(-8.067 -2.734)" fill="#00af9c"/>
    <path id="Path_16360" data-name="Path 16360" d="M23,24h1.867v1.867H23Z" transform="translate(-8.067 -3.467)" fill="#00af9c"/>
    <path id="Path_16361" data-name="Path 16361" d="M31,2h1.867V6.667H31Z" transform="translate(-8.601 -2)" fill="#00af9c"/>
    <path id="Path_16362" data-name="Path 16362" d="M0,0H1.867V5.28H0Z" transform="translate(8.671 4.395) rotate(-45)" fill="#00af9c"/>
    <path id="Path_16363" data-name="Path 16363" d="M12,20h4.667v1.867H12Z" transform="translate(-7.333 -3.2)" fill="#00af9c"/>
    <path id="Path_16364" data-name="Path 16364" d="M0,0H5.28V1.867H0Z" transform="translate(32.934 6.81) rotate(-45)" fill="#00af9c"/>
    <path id="Path_16365" data-name="Path 16365" d="M47,20h4.667v1.867H47Z" transform="translate(-9.668 -3.2)" fill="#00af9c"/>
  </g>
  <rect id="Rectangle_12079" data-name="Rectangle 12079" width="56" height="56" fill="none"/>
</svg>
