<svg id="illustration_video_48px" xmlns="http://www.w3.org/2000/svg" width="48" height="48" viewBox="0 0 48 48">
  <g id="illustration_video" transform="translate(5.143 2.571)">
    <path id="Path_3807" data-name="Path 3807" d="M36.877,17.3H8.321L35.75,9.353a.837.837,0,0,0,.571-1.037L34.886,3.361A4.686,4.686,0,0,0,30.4,0a4.637,4.637,0,0,0-1.289.183L3.363,7.643a4.669,4.669,0,0,0-3.178,5.77l1.4,4.841V38.2a4.663,4.663,0,0,0,4.658,4.658H21.286c-.018.011.008-.851,0-.837s.006-.833,0-.837H6.245A2.987,2.987,0,0,1,3.261,38.2V26.806H36.04V38.2a2.987,2.987,0,0,1-2.984,2.984H21.286s0,.849,0,.837-.013.844,0,.837,11.77,0,11.77,0A4.663,4.663,0,0,0,37.714,38.2V18.136A.837.837,0,0,0,36.877,17.3ZM22.119,25.132l3.556-6.159H30.3l-3.556,6.159Zm-6.559,0,3.556-6.159h4.625l-3.556,6.159ZM9,25.132l3.556-6.159h4.626l-3.556,6.159ZM12.113,14.3,6.158,8.577,10.62,7.284a.83.83,0,0,0,.11.129l5.955,5.72-4.462,1.292A.833.833,0,0,0,12.113,14.3ZM23.329,3.764l5.955,5.72-4.462,1.292a.815.815,0,0,0-.11-.129l-5.955-5.72,4.462-1.292A.83.83,0,0,0,23.329,3.764Zm-6.3,1.825,5.955,5.719L18.523,12.6a.815.815,0,0,0-.11-.129l-5.955-5.72L16.92,5.459A.884.884,0,0,0,17.029,5.589Zm12.552-3.8a2.959,2.959,0,0,1,.823-.117,3,3,0,0,1,2.873,2.153l1.2,4.151-3.358.973a.851.851,0,0,0-.11-.129L25.057,3.1ZM2.049,10.68a2.962,2.962,0,0,1,1.78-1.429l.492-.143a.851.851,0,0,0,.11.129l5.955,5.72L3,17.1l-1.2-4.151A2.963,2.963,0,0,1,2.049,10.68Zm1.212,8.292h7.363L7.069,25.132H3.261Zm25.416,6.159,3.556-6.159H36.04v6.159Zm0,0" transform="translate(0)" fill="#00af9c" fill-rule="evenodd"/>
    <path id="Path_3808" data-name="Path 3808" d="M205.452,349.675a.87.87,0,0,0-.435-.754l-7.645-4.414a.87.87,0,0,0-1.305.754v8.827a.87.87,0,0,0,1.305.753l7.645-4.413A.87.87,0,0,0,205.452,349.675Zm-7.645,2.907v-5.813l5.034,2.907Zm0,0" transform="translate(-179.86 -316.122)" fill="#00af9c" fill-rule="evenodd"/>
  </g>
  <rect id="Rectangle_3891" data-name="Rectangle 3891" width="48" height="48" fill="none"/>
</svg>
