<svg width="56" height="56" viewBox="0 0 56 56" fill="none" xmlns="http://www.w3.org/2000/svg">
<g clip-path="url(#clip0)">
<path fill-rule="evenodd" clip-rule="evenodd" d="M32.8601 40.1501C32.8616 39.9713 32.8151 39.7952 32.7254 39.6405C32.6357 39.4857 32.5061 39.3578 32.3501 39.2701L23.4201 34.1201C23.3052 34.0508 23.1775 34.0054 23.0446 33.9865C22.9117 33.9676 22.7763 33.9757 22.6466 34.0102C22.5169 34.0447 22.3955 34.105 22.2896 34.1875C22.1837 34.2699 22.0954 34.3729 22.0301 34.4901C21.9385 34.6445 21.8902 34.8207 21.8901 35.0001V45.3001C21.8901 45.5654 21.9955 45.8197 22.183 46.0072C22.3706 46.1948 22.6249 46.3001 22.8901 46.3001C23.0696 46.3001 23.2458 46.2517 23.4001 46.1601L32.3401 41.0001C32.4936 40.9163 32.6223 40.7937 32.7135 40.6445C32.8048 40.4954 32.8553 40.3249 32.8601 40.1501ZM23.9401 43.5401V36.7601L29.8101 40.1501L23.9401 43.5401Z" fill="#00AF9C"/>
<path fill-rule="evenodd" clip-rule="evenodd" d="M34.8302 48.9989H27.8302V49.9989C27.8302 49.9989 27.8302 50.7589 27.8302 50.9389C27.8302 50.7589 27.8302 49.9389 27.8302 49.9989C27.8183 49.8391 27.8183 49.6787 27.8302 49.5189V48.9989H10.2802C9.35636 48.9989 8.47018 48.6326 7.81597 47.9802C7.16175 47.3279 6.79289 46.4428 6.79024 45.5189V32.2689H45.0502V36.9989C45.7249 37.022 46.3952 37.1159 47.0502 37.2789V22.1589C47.0502 21.8937 46.9449 21.6393 46.7573 21.4518C46.5698 21.2643 46.3155 21.1589 46.0502 21.1589H12.7002L44.7002 11.8889C44.9463 11.8124 45.1533 11.6438 45.2782 11.4184C45.403 11.193 45.436 10.9281 45.3702 10.6789L43.7102 4.9189C43.3059 3.54139 42.3743 2.37906 41.118 1.68441C39.8616 0.989748 38.3819 0.818873 37.0002 1.2089L6.92024 9.9089C5.53823 10.3131 4.37232 11.2477 3.67718 12.5087C2.98204 13.7697 2.81418 15.2545 3.21024 16.6389L4.85024 22.2889V45.5589C4.85024 46.9999 5.42201 48.3821 6.44004 49.402C7.45808 50.4219 8.8392 50.9963 10.2802 50.9989H35.4602C35.1866 50.354 34.9757 49.6842 34.8302 48.9989V48.9989ZM45.0002 23.1289V30.3289H36.4502L40.6002 23.1289H45.0002ZM38.3102 23.1289L34.1602 30.3289H28.8002L33.0002 23.1289H38.3102ZM30.6602 23.1289L26.5102 30.3289H21.1402L25.3002 23.1289H30.6602ZM23.0002 23.1289L18.8502 30.3289H13.4502L17.6002 23.1289H23.0002ZM15.3502 23.1289L11.2002 30.3289H6.79024V23.1289H15.3502ZM37.4702 3.1289C37.9088 3.00042 38.3685 2.95985 38.8228 3.00953C39.2772 3.0592 39.7172 3.19814 40.1177 3.41835C40.5182 3.63857 40.8712 3.93573 41.1565 4.29278C41.4418 4.64982 41.6538 5.05971 41.7802 5.4989L43.1802 10.3389L39.3002 11.4289C39.2624 11.3744 39.2188 11.3241 39.1702 11.2789L32.2302 4.6089L37.4702 3.1289ZM30.0902 5.2389L30.2202 5.3889L37.2202 12.0589L32.0002 13.5689C31.9624 13.5144 31.9188 13.4641 31.8702 13.4189L24.8802 6.7489L30.0902 5.2389ZM22.7302 7.3689L22.8602 7.5189L29.8602 14.1889L24.6002 15.6989C24.5686 15.6398 24.5242 15.5886 24.4702 15.5489L17.5202 8.8789L22.7302 7.3689ZM15.3902 9.4989C15.4281 9.55339 15.4717 9.60368 15.5202 9.6489L22.5202 16.3189L17.3102 17.8289C17.2688 17.7742 17.2219 17.724 17.1702 17.6789L10.1802 10.9989L15.3902 9.4989ZM5.09024 16.0989C4.96009 15.6618 4.9187 15.203 4.96851 14.7496C5.01831 14.2962 5.1583 13.8574 5.38024 13.4589C5.59964 13.0571 5.89638 12.7027 6.25336 12.416C6.61034 12.1294 7.02052 11.9163 7.46024 11.7889L8.00024 11.6189C8.0381 11.6734 8.08168 11.7237 8.13024 11.7689L15.1302 18.4389L6.51024 20.9389L5.09024 16.0989Z" fill="#00AF9C"/>
<path d="M42.4599 37.5C44.0422 37.5 45.5889 37.9692 46.9045 38.8482C48.2201 39.7273 49.2455 40.9767 49.851 42.4385C50.4565 43.9003 50.6149 45.5089 50.3062 47.0607C49.9975 48.6126 49.2356 50.038 48.1168 51.1569C46.998 52.2757 45.5725 53.0376 44.0206 53.3463C42.4688 53.655 40.8603 53.4965 39.3985 52.891C37.9366 52.2855 36.6872 51.2602 35.8082 49.9446C34.9291 48.629 34.4599 47.0823 34.4599 45.5C34.4599 43.3783 35.3028 41.3434 36.8031 39.8432C38.3034 38.3429 40.3382 37.5 42.4599 37.5ZM42.4599 36C40.5906 36 38.7632 36.5538 37.2084 37.5916C35.6536 38.6293 34.4411 40.1044 33.7239 41.8306C33.0067 43.5569 32.8171 45.4569 33.1789 47.2909C33.5407 49.1249 34.4377 50.8105 35.7567 52.1351C37.0757 53.4597 38.7575 54.3638 40.59 54.7333C42.4224 55.1029 44.3232 54.9212 46.0525 54.2113C47.7817 53.5015 49.2619 52.2952 50.3062 50.7448C51.3505 49.1943 51.912 47.3693 51.9199 45.5C51.9173 42.9919 50.9197 40.5872 49.1462 38.8137C47.3727 37.0402 44.9681 36.0027 42.4599 36Z" fill="#00AF9C"/>
</g>
<path d="M42.5002 46.7992C43.2182 46.7992 43.8002 46.2172 43.8002 45.4992C43.8002 44.7812 43.2182 44.1992 42.5002 44.1992C41.7822 44.1992 41.2002 44.7812 41.2002 45.4992C41.2002 46.2172 41.7822 46.7992 42.5002 46.7992Z" stroke="#00AF9C" stroke-linecap="round" stroke-linejoin="round"/>
<path d="M45.9985 46.9165C45.9355 47.0591 45.9167 47.2174 45.9445 47.3708C45.9723 47.5242 46.0455 47.6657 46.1545 47.7771L46.1831 47.8057C46.2709 47.8936 46.3406 47.9978 46.3881 48.1126C46.4357 48.2274 46.4601 48.3504 46.4601 48.4746C46.4601 48.5988 46.4357 48.7218 46.3881 48.8366C46.3406 48.9513 46.2709 49.0556 46.1831 49.1434C46.0952 49.2313 45.991 49.3009 45.8762 49.3485C45.7614 49.396 45.6384 49.4205 45.5142 49.4205C45.39 49.4205 45.267 49.396 45.1523 49.3485C45.0375 49.3009 44.9332 49.2313 44.8454 49.1434L44.8168 49.1148C44.7062 49.0079 44.5668 48.9358 44.4157 48.9074C44.2646 48.8789 44.1084 48.8954 43.9666 48.9547C43.8247 49.014 43.7034 49.1137 43.6175 49.2412C43.5317 49.3688 43.4851 49.5188 43.4836 49.6725V49.7531C43.4869 49.8794 43.4649 50.005 43.4189 50.1226C43.3729 50.2402 43.3038 50.3474 43.2157 50.4378C43.1275 50.5283 43.0222 50.6002 42.9058 50.6493C42.7895 50.6984 42.6645 50.7237 42.5382 50.7237C42.4119 50.7237 42.2869 50.6984 42.1706 50.6493C42.0542 50.6002 41.9489 50.5283 41.8608 50.4378C41.7726 50.3474 41.7035 50.2402 41.6575 50.1226C41.6115 50.005 41.5895 49.8794 41.5928 49.7531V49.7102C41.5894 49.5536 41.5389 49.4016 41.4479 49.2741C41.3569 49.1465 41.2296 49.0494 41.0825 48.9952C40.9399 48.9323 40.7817 48.9135 40.6283 48.9413C40.4749 48.9691 40.3334 49.0422 40.2219 49.1512L40.1933 49.1798C40.0159 49.3572 39.7753 49.4569 39.5245 49.4569C39.2736 49.4569 39.033 49.3572 38.8556 49.1798C38.6782 49.0024 38.5786 48.7618 38.5786 48.511C38.5786 48.2601 38.6782 48.0195 38.8556 47.8421L38.8842 47.8135C38.9911 47.703 39.0632 47.5635 39.0917 47.4124C39.1202 47.2613 39.1037 47.1052 39.0444 46.9633C38.985 46.8215 38.8854 46.7001 38.7578 46.6143C38.6302 46.5284 38.4803 46.4819 38.3265 46.4804H38.2459C38.1197 46.4837 37.9941 46.4617 37.8765 46.4157C37.7589 46.3696 37.6517 46.3005 37.5612 46.2124C37.4708 46.1243 37.3989 46.0189 37.3498 45.9026C37.3007 45.7862 37.2754 45.6612 37.2754 45.535C37.2754 45.4087 37.3007 45.2837 37.3498 45.1673C37.3989 45.051 37.4708 44.9456 37.5612 44.8575C37.6517 44.7694 37.7589 44.7003 37.8765 44.6542C37.9941 44.6082 38.1197 44.5862 38.2459 44.5895H38.2882C38.4448 44.5861 38.5968 44.5356 38.7243 44.4446C38.8519 44.3536 38.949 44.2263 39.0032 44.0793C39.0662 43.9367 39.085 43.7785 39.0572 43.6251C39.0293 43.4717 38.9562 43.3301 38.8472 43.2187L38.8186 43.1901C38.7259 43.1034 38.6516 42.999 38.6001 42.883C38.5486 42.767 38.521 42.6419 38.5188 42.515C38.5167 42.3881 38.5402 42.2621 38.5878 42.1445C38.6353 42.0269 38.7061 41.92 38.7959 41.8303C38.8856 41.7406 38.9925 41.6699 39.1102 41.6223C39.2278 41.5748 39.3538 41.5514 39.4807 41.5536C39.6076 41.5558 39.7327 41.5835 39.8487 41.635C39.9646 41.6866 40.069 41.7609 40.1556 41.8537L40.1842 41.8823C40.2957 41.9913 40.4372 42.0644 40.5906 42.0923C40.744 42.1201 40.9022 42.1013 41.0448 42.0383H41.0825C41.2225 41.9782 41.3418 41.8786 41.4258 41.7515C41.5098 41.6244 41.5547 41.4756 41.5551 41.3233V41.244C41.5518 41.1177 41.5738 40.9921 41.6198 40.8745C41.6658 40.7569 41.7349 40.6497 41.8231 40.5593C41.9112 40.4688 42.0165 40.3969 42.1329 40.3478C42.2492 40.2987 42.3742 40.2734 42.5005 40.2734C42.6268 40.2734 42.7518 40.2987 42.8681 40.3478C42.9845 40.3969 43.0898 40.4688 43.178 40.5593C43.2661 40.6497 43.3352 40.7569 43.3812 40.8745C43.4272 40.9921 43.4492 41.1177 43.4459 41.244V41.2862C43.4474 41.44 43.494 41.5899 43.5798 41.7175C43.6657 41.8451 43.787 41.9447 43.9289 42.0041C44.0707 42.0634 44.2269 42.0799 44.378 42.0514C44.5291 42.0229 44.6685 41.9508 44.7791 41.8439L44.8077 41.8153C44.9851 41.6379 45.2257 41.5383 45.4765 41.5383C45.7274 41.5383 45.968 41.6379 46.1454 41.8153C46.3228 41.9927 46.4224 42.2333 46.4224 42.4842C46.4224 42.735 46.3228 42.9756 46.1454 43.153L46.1168 43.1816C46.0078 43.2931 45.9346 43.4346 45.9068 43.588C45.879 43.7414 45.8978 43.8996 45.9608 44.0422V44.0799C46.0208 44.2199 46.1205 44.3392 46.2476 44.4232C46.3746 44.5072 46.5235 44.5521 46.6758 44.5525H46.7564C46.8826 44.5492 47.0082 44.5712 47.1258 44.6172C47.2434 44.6632 47.3506 44.7323 47.4411 44.8204C47.5316 44.9086 47.6035 45.0139 47.6525 45.1303C47.7016 45.2466 47.7269 45.3716 47.7269 45.4979C47.7269 45.6242 47.7016 45.7492 47.6525 45.8655C47.6035 45.9819 47.5316 46.0872 47.4411 46.1754C47.3506 46.2635 47.2434 46.3326 47.1258 46.3786C47.0082 46.4246 46.8826 46.4466 46.7564 46.4433H46.7122C46.56 46.444 46.4114 46.4892 46.2846 46.5732C46.1578 46.6573 46.0583 46.7766 45.9985 46.9165V46.9165Z" stroke="#00AF9C" stroke-linecap="round" stroke-linejoin="round"/>
<defs>
<clipPath id="clip0">
<rect width="49.71" height="54.41" fill="white" transform="translate(3 1)"/>
</clipPath>
</defs>
</svg>
