<svg id="medallion-Snapchat" xmlns="http://www.w3.org/2000/svg" width="40" height="40" viewBox="0 0 40 40">
  <circle id="XMLID_1_" cx="20" cy="20" r="20" fill="#fffc00"/>
  <g id="Gruppe_15866" data-name="Gruppe 15866" transform="translate(8.963 9.64)">
    <g id="Gruppe_15865" data-name="Gruppe 15865">
      <g id="Gruppe_15864" data-name="Gruppe 15864">
        <path id="Pfad_16242" data-name="Pfad 16242" d="M245.047,271.327c-.055,0-.11,0-.165,0h0a.984.984,0,0,1-.11,0,4.769,4.769,0,0,1-2.929-1.156,4.242,4.242,0,0,0-1.695-.865,5.346,5.346,0,0,0-.889-.075,6.112,6.112,0,0,0-1.235.138,2.744,2.744,0,0,1-.46.067.288.288,0,0,1-.318-.228c-.051-.173-.086-.342-.122-.507-.09-.421-.157-.68-.334-.708-2.052-.318-2.642-.751-2.772-1.058a.393.393,0,0,1-.031-.13.231.231,0,0,1,.193-.24c3.157-.519,4.572-3.747,4.631-3.884,0,0,0-.008,0-.012a1.208,1.208,0,0,0,.114-1.01c-.216-.511-.924-.735-1.392-.885-.114-.035-.224-.071-.307-.106-.932-.37-1.01-.747-.975-.94a.881.881,0,0,1,.857-.558.57.57,0,0,1,.256.051,2.72,2.72,0,0,0,1.124.295.908.908,0,0,0,.672-.216c-.012-.212-.028-.436-.039-.668-.094-1.494-.212-3.346.263-4.407a5.712,5.712,0,0,1,5.3-3.42l.389,0h.051a5.721,5.721,0,0,1,5.312,3.42c.472,1.058.354,2.917.259,4.407l0,.063c-.012.208-.028.409-.035.6a.9.9,0,0,0,.613.212h0a2.8,2.8,0,0,0,1.061-.295.785.785,0,0,1,.33-.067,1.058,1.058,0,0,1,.377.071l.008,0a.7.7,0,0,1,.531.566c0,.22-.161.547-.983.873-.086.031-.193.067-.307.106-.468.149-1.176.374-1.392.885a1.208,1.208,0,0,0,.114,1.01s0,.008,0,.012c.059.138,1.474,3.362,4.631,3.884a.228.228,0,0,1,.193.24.412.412,0,0,1-.031.134c-.13.307-.719.735-2.772,1.054-.169.028-.232.244-.334.7-.035.165-.075.33-.126.5a.275.275,0,0,1-.295.22h-.024a2.512,2.512,0,0,1-.46-.059,6.227,6.227,0,0,0-1.234-.13,5.358,5.358,0,0,0-.892.075,4.243,4.243,0,0,0-1.694.865A4.75,4.75,0,0,1,245.047,271.327Z" transform="translate(-233.751 -250.58)" fill="#fff"/>
        <path id="Pfad_16243" data-name="Pfad 16243" d="M239.349,245.664a5.481,5.481,0,0,1,5.1,3.287,11,11,0,0,1,.244,4.3c-.016.232-.028.456-.039.672l0,.094.063.071a1.1,1.1,0,0,0,.778.291h.016a3.029,3.029,0,0,0,1.152-.315.6.6,0,0,1,.232-.043.8.8,0,0,1,.291.055l.012,0c.22.079.377.224.377.354,0,.075-.055.342-.837.653-.075.031-.177.063-.295.1-.507.161-1.274.4-1.533,1.014a1.422,1.422,0,0,0,.118,1.2c.09.216,1.541,3.483,4.808,4.022a.136.136,0,0,1-.012.051c-.055.13-.409.582-2.595.916-.342.051-.425.436-.523.885-.035.161-.071.322-.122.488-.016.051-.016.055-.071.055h-.024a2.291,2.291,0,0,1-.417-.055,6.546,6.546,0,0,0-1.278-.134,5.759,5.759,0,0,0-.928.079,4.427,4.427,0,0,0-1.793.9,4.6,4.6,0,0,1-2.8,1.113c-.051,0-.106,0-.157,0h-.028a.7.7,0,0,1-.09,0,4.594,4.594,0,0,1-2.8-1.113,4.4,4.4,0,0,0-1.793-.9,5.8,5.8,0,0,0-.928-.079,6.452,6.452,0,0,0-1.278.142,2.384,2.384,0,0,1-.417.063c-.079,0-.083,0-.1-.063-.047-.165-.087-.334-.118-.491-.1-.448-.181-.834-.523-.885-2.19-.338-2.54-.79-2.595-.92a.154.154,0,0,1-.012-.055c3.263-.539,4.714-3.806,4.808-4.022a1.422,1.422,0,0,0,.118-1.2c-.259-.609-1.026-.853-1.533-1.014-.118-.035-.216-.067-.295-.1-.661-.26-.861-.523-.833-.68.035-.185.354-.37.629-.37a.435.435,0,0,1,.157.027,2.928,2.928,0,0,0,1.223.319,1.11,1.11,0,0,0,.845-.295l.063-.067,0-.09c-.012-.216-.028-.44-.039-.672-.09-1.466-.208-3.291.244-4.3a5.485,5.485,0,0,1,5.091-3.283l.389,0a.122.122,0,0,1,.043,0m0-.464h-.055l-.385,0a5.934,5.934,0,0,0-5.512,3.558c-.5,1.109-.377,3-.283,4.513.012.177.024.366.031.543a.874.874,0,0,1-.432.094,2.463,2.463,0,0,1-1.026-.275.85.85,0,0,0-.354-.071,1.107,1.107,0,0,0-1.085.747c-.063.322.083.79,1.117,1.2.094.035.2.071.322.11.429.138,1.073.342,1.246.755a1,1,0,0,1-.106.818l-.012.024c-.055.134-1.423,3.247-4.454,3.747a.462.462,0,0,0-.385.484.559.559,0,0,0,.051.208c.228.531,1.187.924,2.937,1.2a2.238,2.238,0,0,1,.157.527c.035.169.075.342.13.523a.514.514,0,0,0,.543.393,2.694,2.694,0,0,0,.5-.071,6.063,6.063,0,0,1,1.191-.134,5.35,5.35,0,0,1,.853.071,4.055,4.055,0,0,1,1.6.826,5.032,5.032,0,0,0,3.063,1.2,1.112,1.112,0,0,0,.114,0c.043,0,.1,0,.165,0a5.032,5.032,0,0,0,3.063-1.2,4.029,4.029,0,0,1,1.6-.826,5.276,5.276,0,0,1,.853-.071,5.887,5.887,0,0,1,1.191.126,3.028,3.028,0,0,0,.5.063h.024a.5.5,0,0,0,.515-.385c.051-.177.09-.346.13-.519a2.063,2.063,0,0,1,.157-.527c1.75-.271,2.709-.661,2.937-1.191a.647.647,0,0,0,.051-.208.466.466,0,0,0-.385-.484c-3.035-.5-4.4-3.613-4.458-3.747l-.012-.024a.994.994,0,0,1-.106-.818c.177-.413.822-.617,1.246-.751.118-.039.232-.075.322-.11.755-.3,1.136-.664,1.128-1.089a.905.905,0,0,0-.68-.778h0a1.206,1.206,0,0,0-.464-.09,1.05,1.05,0,0,0-.429.087,2.591,2.591,0,0,1-.963.271.81.81,0,0,1-.374-.094c.008-.153.02-.311.028-.476l0-.063c.094-1.518.216-3.4-.283-4.513a5.963,5.963,0,0,0-5.532-3.57Z" transform="translate(-227.974 -245.2)" fill="#030303"/>
      </g>
    </g>
  </g>
</svg>
