<?xml version="1.0" encoding="UTF-8"?>
<!-- Generator: Adobe Illustrator 21.0.0, SVG Export Plug-In . SVG Version: 6.00 Build 0)  -->
<svg version="1.1" id="Layer_1" xmlns="http://www.w3.org/2000/svg" xmlns:xlink="http://www.w3.org/1999/xlink" x="0px" y="0px" viewBox="0 0 1024 1024" enable-background="new 0 0 1024 1024" xml:space="preserve">
<circle id="XMLID_1_" fill="#00519E" cx="512" cy="512" r="512"/>
<g>
	<path fill="#F8B100" d="M214.3,504h41.9l-12.8,60.2c-6.1,2.2-12.1,3.8-17.9,4.8c-5.8,1-12.3,1.5-19.5,1.5c-14.2,0-25.3-4-33.1-11.9   c-7.9-8-11.8-19.2-11.8-33.8c0-14.4,2.8-27.6,8.4-39.5c5.6-11.9,13.5-21.2,23.7-27.8c10.2-6.6,21.9-9.9,34.9-9.9   c6.1,0,11.9,0.6,17.4,1.7c5.6,1.1,11.2,3,16.8,5.7l-7.4,16.6c-9.5-4.7-18.6-7-27.3-7c-8.6,0-16.4,2.5-23.5,7.4   c-7,4.9-12.6,12-16.7,21.1c-4.1,9.1-6.1,19.3-6.1,30.5c0,10,2.4,17.5,7.3,22.7c4.9,5.1,11.8,7.7,20.7,7.7c5.9,0,11.8-0.9,17.6-2.7   l6.5-30.4h-22.7L214.3,504z"/>
	<path fill="#F8B100" d="M348.9,512.3c0,11-2,21-6,30.1c-4,9-9.5,16-16.4,20.8c-7,4.8-15,7.2-24,7.2c-10.5,0-18.8-3.1-25-9.4   s-9.2-14.7-9.2-25.5c0-10.9,2-20.8,5.9-29.9c3.9-9.1,9.4-16.1,16.4-21.2c7-5,15.2-7.6,24.4-7.6c10.6,0,19,3.2,25,9.5   C345.9,492.8,348.9,501.4,348.9,512.3z M329.5,511.5c0-5.8-1.3-10.4-4-13.7c-2.7-3.3-6.5-5-11.5-5c-5.1,0-9.6,2-13.6,5.9   c-4,3.9-7.1,9.2-9.3,15.9c-2.2,6.7-3.3,13.8-3.3,21.4c0,6.1,1.4,10.7,4.1,13.9c2.7,3.2,6.7,4.8,12,4.8c4.9,0,9.3-1.9,13.3-5.6   c3.9-3.7,7-8.9,9.2-15.6C328.4,526.8,329.5,519.5,329.5,511.5z"/>
	<path fill="#F8B100" d="M390.4,504l35.3-54.7h21.8l-51,74.7l-9.3,44.9h-19.5l9.7-45.3L358,449.3h19.8L390.4,504z"/>
	<path fill="#F8B100" d="M460.1,570.6c-10.7,0-19.1-3-25.2-9.1c-6-6.1-9-14.5-9-25.4c0-10.8,2.1-20.9,6.3-30.2   c4.2-9.3,10-16.5,17.2-21.6c7.2-5.1,15.3-7.6,24.3-7.6c8.8,0,15.6,2,20.5,5.9c4.9,4,7.3,9.6,7.3,16.8c0,9.9-4.5,17.7-13.6,23.3   c-9.1,5.6-22,8.4-38.8,8.4h-3.5l-0.2,2.5v2.4c0,6.1,1.5,10.8,4.6,14.2c3.1,3.4,7.7,5.2,13.8,5.2c3.9,0,7.8-0.5,11.7-1.6   c3.9-1,8.5-2.8,13.7-5.3v15.3c-5.2,2.4-10.1,4.1-14.4,5.1C470.4,570,465.5,570.6,460.1,570.6z M472.5,491.5c-5.2,0-10.2,2.3-14.8,7   c-4.6,4.7-7.9,10.9-9.9,18.6h2.4c10.3,0,18.3-1.5,24.1-4.4c5.8-2.9,8.7-7,8.7-12.4c0-2.8-0.9-5-2.6-6.5   C478.6,492.3,476,491.5,472.5,491.5z"/>
	<path fill="#F8B100" d="M518.6,568.9h-19.1l27-127.3h19.2L518.6,568.9z"/>
	<path fill="#F8B100" d="M554.1,568.9H535l27-127.3h19.2L554.1,568.9z"/>
	<path fill="#F8B100" d="M658.3,512.3c0,11-2,21-6,30.1c-4,9-9.5,16-16.4,20.8c-7,4.8-15,7.2-24,7.2c-10.5,0-18.8-3.1-25-9.4   c-6.2-6.2-9.2-14.7-9.2-25.5c0-10.9,2-20.8,5.9-29.9c3.9-9.1,9.4-16.1,16.4-21.2c7-5,15.2-7.6,24.4-7.6c10.6,0,19,3.2,25,9.5   C655.3,492.8,658.3,501.4,658.3,512.3z M638.9,511.5c0-5.8-1.3-10.4-4-13.7c-2.7-3.3-6.5-5-11.5-5c-5.1,0-9.6,2-13.6,5.9   c-4,3.9-7.1,9.2-9.3,15.9c-2.2,6.7-3.3,13.8-3.3,21.4c0,6.1,1.4,10.7,4.1,13.9c2.7,3.2,6.7,4.8,12,4.8c4.9,0,9.3-1.9,13.3-5.6   c3.9-3.7,7-8.9,9.2-15.6C637.8,526.8,638.9,519.5,638.9,511.5z"/>
	<path fill="#F8B100" d="M727.9,568.9l-1.6-51.3l-0.1-5.7l0.2-16.4c-1.4,3.4-2.8,6.8-4.2,10.2c-1.4,3.4-10.9,24.5-28.3,63.2h-21.4   l-3.8-90.5h18.1l1.1,52.9c-0.1,4.7-0.4,11.4-0.9,20h0.5c3.6-9.6,6.6-17,8.9-22.3l22.7-50.6h20.8l1.6,49.4l0.1,4.3l-0.2,19.1h0.5   c0.9-2.7,2.5-7.1,4.7-13c2.2-5.9,3.9-10.4,5.2-13.4c1.3-3,8.1-18.5,20.6-46.6h20l-42.4,90.5H727.9z"/>
	<path fill="#F8B100" d="M768.9,565.2c0-2.2,0.6-3.9,1.9-5.3c1.2-1.3,3-2,5.2-2c1.5,0,2.7,0.4,3.6,1.2c0.9,0.8,1.3,2.1,1.3,3.7   c0,2.1-0.6,3.8-1.9,5.1c-1.3,1.4-2.9,2-4.9,2c-1.7,0-3-0.5-3.9-1.4C769.3,567.7,768.9,566.6,768.9,565.2z"/>
	<path fill="#F8B100" d="M815.5,524.2c4.7,0,8.3,2.4,10.6,7.1h0.3c0.3-3.9,0.8-7.2,1.5-9.9l3-14.2h9.2l-13.1,61.7h-7.3l0.8-7h-0.3   c-2.3,2.8-4.6,4.8-6.7,6c-2.2,1.2-4.5,1.8-6.9,1.8c-3.8,0-6.7-1.3-8.9-4c-2.1-2.7-3.2-6.5-3.2-11.4c0-5.4,0.9-10.5,2.8-15.2   c1.9-4.7,4.4-8.4,7.6-10.9S811.7,524.2,815.5,524.2z M810.2,562.2c2.2,0,4.3-1.1,6.4-3.3c2.1-2.2,3.8-5,5.1-8.5   c1.3-3.5,1.9-7,1.9-10.6c0-2.4-0.6-4.3-1.7-5.8c-1.1-1.5-2.9-2.2-5.3-2.2c-2.2,0-4.4,1-6.3,3.1c-2,2-3.5,4.8-4.7,8.4   c-1.2,3.5-1.7,7.2-1.7,10.8C804,559.5,806.1,562.2,810.2,562.2z"/>
	<path fill="#F8B100" d="M853.5,569.7c-5.2,0-9.3-1.5-12.2-4.4c-2.9-2.9-4.4-7-4.4-12.3c0-5.2,1-10.1,3.1-14.6c2-4.5,4.8-8,8.3-10.5   c3.5-2.5,7.4-3.7,11.8-3.7c4.3,0,7.6,1,9.9,2.9c2.4,1.9,3.5,4.6,3.5,8.2c0,4.8-2.2,8.6-6.6,11.3c-4.4,2.7-10.7,4.1-18.8,4.1h-1.7   l-0.1,1.2v1.1c0,2.9,0.7,5.2,2.2,6.9c1.5,1.7,3.7,2.5,6.7,2.5c1.9,0,3.8-0.3,5.7-0.8c1.9-0.5,4.1-1.4,6.7-2.6v7.4   c-2.5,1.2-4.9,2-7,2.5C858.5,569.5,856.2,569.7,853.5,569.7z M859.6,531.4c-2.5,0-4.9,1.1-7.2,3.4c-2.2,2.3-3.8,5.3-4.8,9h1.2   c5,0,8.9-0.7,11.7-2.1c2.8-1.4,4.2-3.4,4.2-6c0-1.3-0.4-2.4-1.3-3.2C862.5,531.8,861.2,531.4,859.6,531.4z"/>
</g>
</svg>