<svg xmlns="http://www.w3.org/2000/svg" xmlns:xlink="http://www.w3.org/1999/xlink" width="1024" height="1024" viewBox="0 0 1024 1024"><defs><clipPath id="b"><rect width="1024" height="1024"/></clipPath></defs><g id="a" clip-path="url(#b)"><circle cx="512" cy="512" r="512" fill="#d9e0e7"/><path d="M512,230.8c-156.4,0-283.1,126.8-283.1,283.1,0,143.6,106.9,262.1,245.4,280.6v-57a37.585,37.585,0,0,0-25.4-35.7,198.222,198.222,0,0,1,65.2-386.1c108.5,1.1,196.1,89.4,196.1,198.2,0,2.5-.1,4.9-.2,7.4a10.287,10.287,0,0,1-.1,1.7c-.1,2.3-.2,4.6-.4,6.8-.1.7-.1,1.4-.2,2.2-.1,1.6-.3,3.1-.5,4.7-.2,1.8-.4,3.5-.7,5.3l-.3,2.4C683.6,704.2,475.4,794,474.3,794.5A292.3,292.3,0,0,0,512,797c156.4,0,283.1-126.8,283.1-283.1S668.4,230.8,512,230.8Z" fill="#fff"/></g></svg>