<svg xmlns="http://www.w3.org/2000/svg" xmlns:xlink="http://www.w3.org/1999/xlink" width="40" height="40" viewBox="0 0 40 40">
  <defs>
    <clipPath id="clip-path">
      <rect id="Rechteck_11388" data-name="Rechteck 11388" width="40" height="40" fill="none"/>
    </clipPath>
  </defs>
  <g id="Gruppe_15849" data-name="Gruppe 15849" transform="translate(15645 20245)">
    <g id="Gruppe_15831" data-name="Gruppe 15831" transform="translate(-15645 -20245)">
      <g id="Gruppe_15829" data-name="Gruppe 15829" clip-path="url(#clip-path)">
        <path id="Pfad_14262" data-name="Pfad 14262" d="M20.391,0h.862a.12.12,0,0,0,.085.028l.479.017a.516.516,0,0,0,.073-.008c.156.011.312.021.467.033.2.016.4.029.6.051.248.028.5.065.743.1.335.042.666.1,1,.166a19.4,19.4,0,0,1,1.961.488A20.039,20.039,0,0,1,40.148,14.829c.128.476.237.957.329,1.441.048.251.084.5.125.757.034.2.058.408.082.612a7.265,7.265,0,0,1,.065.765,1.523,1.523,0,0,0,.012.365.172.172,0,0,0,.023.049v2.4a.151.151,0,0,0-.025.048,1.3,1.3,0,0,0-.009.329c0,.112-.005.225-.016.337-.015.162-.038.322-.056.484-.037.341-.091.68-.148,1.019q-.14.831-.355,1.646a20.019,20.019,0,0,1-14.4,14.307c-.429.11-.862.205-1.3.282-.24.042-.479.087-.72.119s-.47.067-.705.093c-.3.032-.6.056-.9.083a2.253,2.253,0,0,0-.334,0,2.1,2.1,0,0,0-.3,0c-.025,0-.05,0-.075,0H20.193c-.037,0-.074.005-.111.008l-.443-.013c-.037,0-.073,0-.11.006-.205-.016-.411-.028-.616-.049-.267-.028-.533-.065-.8-.1s-.556-.078-.833-.129q-.737-.134-1.462-.32a19.63,19.63,0,0,1-3.885-1.45,20,20,0,0,1-10.54-13.2c-.1-.412-.186-.828-.259-1.246-.044-.252-.084-.5-.117-.759-.035-.272-.067-.545-.092-.819-.032-.361-.063-.722-.071-1.084,0-.062,0-.125-.007-.187a.266.266,0,0,0,.012-.109c0-.345,0-.69,0-1.036a1.091,1.091,0,0,0-.011-.109c.012-.275.018-.549.041-.823s.047-.547.077-.82c.039-.354.091-.705.148-1.057q.113-.693.279-1.376A20.01,20.01,0,0,1,15.547.717c.5-.137,1-.256,1.514-.348.252-.045.5-.092.756-.132.21-.033.42-.059.631-.084.167-.02.336-.033.5-.051.28-.03.56-.048.84-.065a3.378,3.378,0,0,0,.57-.017c.01,0,.02-.013.03-.02M16.847,13.763a3.936,3.936,0,0,0,.079.654,4.7,4.7,0,0,0,.378,1.054,8.382,8.382,0,0,0,.619,1.046c.2.3.415.593.625.888.294.412.58.829.845,1.259a11.528,11.528,0,0,1,.869,1.676,7.415,7.415,0,0,1,.475,1.631c.009.055.024.109.037.163a.013.013,0,0,0,.011.007.026.026,0,0,0,.015-.01.894.894,0,0,0,.049-.237,7.954,7.954,0,0,1,.39-1.365,10.951,10.951,0,0,1,.791-1.611c.314-.533.661-1.044,1.022-1.546.237-.33.474-.658.7-1a8.451,8.451,0,0,0,.541-.94,4.236,4.236,0,0,0,.433-1.5,3.1,3.1,0,0,0,0-.543,3.9,3.9,0,0,0-.063-.407,3.7,3.7,0,0,0-.47-1.215,3.762,3.762,0,0,0-1.408-1.341A4.1,4.1,0,0,0,20.741,9.9a3.888,3.888,0,0,0-.853.1,4.045,4.045,0,0,0-1.812.929,3.729,3.729,0,0,0-1.228,2.826M9.7,28.606v1.086c0,.031,0,.062,0,.094,0,.177-.006.167.158.167h1.049c.062,0,.125,0,.187,0a1.359,1.359,0,0,0,.333-.046.958.958,0,0,0,.325-.141.651.651,0,0,0,.288-.441.739.739,0,0,0-.008-.278.635.635,0,0,0-.319-.44c-.038-.022-.079-.036-.118-.056-.009,0-.013-.019-.017-.03a.017.017,0,0,1,.006-.014c.042-.026.087-.049.128-.078a.6.6,0,0,0,.193-.736.576.576,0,0,0-.206-.238.953.953,0,0,0-.27-.127,1.577,1.577,0,0,0-.443-.064c-.4,0-.8,0-1.2,0a.168.168,0,0,0-.055.008.041.041,0,0,0-.024.025.813.813,0,0,0-.009.111q0,.6,0,1.2m8.536,0c0,.287,0,.574,0,.862a2.416,2.416,0,0,0,.013.466c.005.025.034.025.478.023h.075c.059,0,.077-.019.079-.078,0-.037,0-.075,0-.112q0-.609,0-1.218c0-.056,0-.112.006-.168a.029.029,0,0,1,.007-.014.074.074,0,0,1,.033.013.927.927,0,0,1,.059.073l.852,1.14.248.329a.079.079,0,0,0,.064.033h.506a.057.057,0,0,0,.059-.058q0-.065,0-.131,0-1.152,0-2.3,0-.047,0-.094c0-.077-.009-.1-.093-.1H20.16l-.037,0a.069.069,0,0,0-.034.041c0,.044-.005.087-.005.131q0,.618,0,1.236c0,.056,0,.112,0,.168,0,0-.006.012-.009.012s-.028,0-.034,0a.97.97,0,0,1-.071-.086l-1-1.335q-.05-.067-.1-.133a.081.081,0,0,0-.065-.031h-.506a.031.031,0,0,0-.018.005c-.009.007-.023.015-.024.024a.7.7,0,0,0-.011.111q0,.6,0,1.2m11.152-.019v1.142c0,.044,0,.087,0,.131,0,.019,0,.037,0,.056a.054.054,0,0,0,.038.035l.43.005c.037,0,.075,0,.112,0a.058.058,0,0,0,.055-.061c0-.037,0-.075,0-.112q0-.627,0-1.254c0-.05,0-.1,0-.15,0,0,.006-.011.009-.011s.028,0,.034.008c.029.032.056.066.082.1.277.37.551.741.83,1.109a2.306,2.306,0,0,0,.289.364l.467.007c.025,0,.05,0,.075,0a.052.052,0,0,0,.044-.051c0-.037,0-.075,0-.112q0-1.18,0-2.359c0-.037,0-.075,0-.112a.059.059,0,0,0-.046-.051l-.168,0H31.3c-.043,0-.065.025-.067.072s0,.075,0,.112q0,.6,0,1.2c0,.056,0,.112,0,.169a.111.111,0,0,1-.009.036s-.01,0-.015,0c-.035-.006-.047-.037-.065-.061l-1.008-1.35c-.034-.045-.068-.089-.1-.134a.111.111,0,0,0-.1-.045h-.468l-.019,0a.055.055,0,0,0-.05.046c0,.044,0,.087,0,.131q0,.571,0,1.142M12.41,28.6v1.123c0,.044,0,.087,0,.131,0,.019,0,.037,0,.056a.055.055,0,0,0,.038.035c.025,0,.05,0,.074,0H13c.094,0,.1-.009.1-.11,0-.037,0-.075,0-.112q0-.178,0-.356c0-.037,0-.075,0-.112a.058.058,0,0,1,.057-.06h.43a.067.067,0,0,1,.062.034c.015.027.031.054.046.082.094.176.19.351.279.529a.163.163,0,0,0,.171.109c.174-.007.349,0,.524,0,.025,0,.05,0,.075,0a.035.035,0,0,0,.024-.055c-.018-.032-.037-.065-.057-.1l-.371-.584c-.023-.037-.045-.075-.066-.113a.038.038,0,0,1,.01-.049l.091-.066A.838.838,0,0,0,14.7,28.5a1.214,1.214,0,0,0,.032-.353.824.824,0,0,0-.573-.8l-.071-.023a1.7,1.7,0,0,0-.462-.064c-.368,0-.736,0-1.1,0a.345.345,0,0,0-.074.007.039.039,0,0,0-.026.024.769.769,0,0,0-.009.111q0,.6,0,1.2M24.887,24.67h0q0,.618,0,1.237c0,.1.016.11.1.11.119,0,.237,0,.356,0,.261,0,.222.033.225-.231,0-.156,0-.312,0-.468a.051.051,0,0,1,.046-.049h.449a.065.065,0,0,1,.059.039l.071.132c.085.16.172.319.253.481a.151.151,0,0,0,.158.1c.181-.007.362,0,.543,0,.025,0,.05,0,.074-.005s.027-.029.019-.043c-.028-.048-.056-.1-.086-.145l-.362-.569c-.02-.031-.036-.065-.054-.1a.022.022,0,0,1,.008-.033l.1-.079a.818.818,0,0,0,.3-.422,1.141,1.141,0,0,0,.01-.665.761.761,0,0,0-.312-.431,1,1,0,0,0-.287-.135,1.682,1.682,0,0,0-.462-.064c-.369,0-.737,0-1.106,0a.355.355,0,0,0-.074.007.039.039,0,0,0-.026.024.74.74,0,0,0-.01.111q0,.6,0,1.2m1.471,3.953q0-.581,0-1.161c0-.05,0-.1,0-.149a.052.052,0,0,0-.049-.047h-.58a.029.029,0,0,0-.017,0c-.009.008-.022.017-.024.027a.549.549,0,0,0-.008.093c0,.262,0,.524,0,.786,0,.05,0,.1,0,.149a.053.053,0,0,1-.05.045l-.019,0h-.955a.067.067,0,0,1-.036-.005c-.014-.01-.032-.024-.035-.039a.609.609,0,0,1-.008-.111c0-.25,0-.5,0-.749,0-.05,0-.1,0-.149a.057.057,0,0,0-.062-.055h-.562a.057.057,0,0,0-.06.057c0,.025,0,.05,0,.075q0,1.217,0,2.434c0,.025,0,.05,0,.075a.051.051,0,0,0,.05.045h.58a.032.032,0,0,0,.018-.005c.009-.007.023-.014.025-.023a.64.64,0,0,0,.012-.11c0-.25,0-.5,0-.749a.594.594,0,0,1,.008-.111.058.058,0,0,1,.035-.038.4.4,0,0,1,.093-.007h.843a.619.619,0,0,1,.093.006.039.039,0,0,1,.026.024.318.318,0,0,1,.008.074c0,.15,0,.3,0,.449q0,.187,0,.374c0,.019,0,.037,0,.056a.054.054,0,0,0,.057.059l.449,0c.044,0,.087,0,.131,0a.05.05,0,0,0,.038-.036c0-.037.005-.075.005-.112q0-.59,0-1.18m.488-.013V28.7q0,.553,0,1.106a.838.838,0,0,0,.008.111.038.038,0,0,0,.025.024.527.527,0,0,0,.093.009h1.949l.037,0A.055.055,0,0,0,29,29.911q0-.225,0-.449a.03.03,0,0,0-.006-.018c-.008-.009-.016-.023-.026-.025a.793.793,0,0,0-.112-.008c-.344,0-.687,0-1.031,0a.815.815,0,0,1-.259-.014c-.047-.088-.016-.183-.022-.275,0-.068,0-.137,0-.205a.063.063,0,0,1,.035-.039c.037,0,.075,0,.112,0,.281,0,.562,0,.843,0a.8.8,0,0,0,.259-.014.555.555,0,0,0,.021-.275c0-.288.04-.244-.247-.246-.319,0-.637,0-.956,0-.048,0-.072-.021-.072-.064,0-.137,0-.275,0-.412a.032.032,0,0,1,0-.018c.007-.01.016-.024.026-.025a.907.907,0,0,1,.112-.006h1.068l.15,0a.054.054,0,0,0,.048-.049c0-.15,0-.3,0-.449a.028.028,0,0,0-.006-.017c-.008-.009-.016-.021-.026-.024a.345.345,0,0,0-.074-.008H26.97c-.025,0-.05,0-.075,0a.054.054,0,0,0-.046.05c0,.05,0,.1,0,.15q0,.572,0,1.143m-4.506-3.931q0,.562,0,1.125c0,.05,0,.1,0,.15a.056.056,0,0,0,.054.062l.112,0h1.912c.045,0,.064-.021.065-.071,0-.131,0-.262,0-.394,0-.006,0-.013,0-.019a.057.057,0,0,0-.045-.051l-.15,0H23.259c-.056,0-.112,0-.168,0a.06.06,0,0,1-.058-.061c0-.137,0-.275,0-.412a.028.028,0,0,1,.005-.017c.012-.013.024-.034.038-.036a.589.589,0,0,1,.111-.008c.281,0,.562,0,.843,0a.835.835,0,0,0,.26-.013.642.642,0,0,0,.021-.275c0-.068,0-.137,0-.206a.057.057,0,0,0-.038-.036c-.037,0-.075,0-.112,0-.25,0-.5,0-.75,0a1.26,1.26,0,0,1-.353-.015c-.027-.008-.028-.055-.025-.366,0-.013,0-.025,0-.038s0-.025,0-.037c0-.05.019-.069.067-.07l.319,0h.956c.058,0,.072-.031.072-.065,0-.137,0-.275,0-.412a.076.076,0,0,0-.009-.036.049.049,0,0,0-.026-.024.338.338,0,0,0-.074-.007H22.461c-.025,0-.05,0-.075,0a.05.05,0,0,0-.039.035c0,.037-.006.075-.006.112q0,.6,0,1.2m-2.986-.452q0-.337,0-.674c0-.05,0-.1,0-.15s-.022-.071-.065-.073h-.45c-.182,0-.169,0-.169.178q0,.646,0,1.293a1.454,1.454,0,0,1-.007.206.5.5,0,0,1-.316.43.642.642,0,0,1-.332.027.48.48,0,0,1-.237-.1.532.532,0,0,1-.2-.37,1.667,1.667,0,0,1,0-.187q0-.628,0-1.255c0-.05,0-.1,0-.15s-.026-.065-.073-.065h-.3l-.262,0a.053.053,0,0,0-.046.05c0,.031,0,.062,0,.093q0,.674,0,1.349a2.1,2.1,0,0,0,.012.243,1.029,1.029,0,0,0,.559.834,1.31,1.31,0,0,0,.464.137,1.491,1.491,0,0,0,.754-.089,1.021,1.021,0,0,0,.663-.9c.009-.087.01-.175.01-.262,0-.187,0-.375,0-.562M15.367,29.95v0c.087,0,.175,0,.262,0a.122.122,0,0,0,.135-.1c.029-.082.062-.163.094-.244.014-.035.028-.069.043-.1a.07.07,0,0,1,.056-.044.342.342,0,0,1,.056,0h.993a.24.24,0,0,1,.056.005.053.053,0,0,1,.03.02.38.38,0,0,1,.034.066c.046.116.091.232.137.348a.072.072,0,0,0,.07.051h.618a.039.039,0,0,0,.038-.05c-.015-.041-.031-.082-.048-.122l-.764-1.811-.276-.656a.076.076,0,0,0-.072-.05h-.487c-.184,0-.156-.014-.229.154L15.1,29.771c-.02.046-.038.092-.057.138a.031.031,0,0,0,.026.04h.3m4.44-5.283c0,.35,0,.7,0,1.049a.835.835,0,0,0,.014.278c.008.024.017.024.291.024.112,0,.225,0,.337,0a.052.052,0,0,0,.047-.049c0-.044,0-.087,0-.131q0-.225,0-.45c0-.106,0-.121.111-.12.081,0,.162,0,.243,0s.15,0,.225,0a1.229,1.229,0,0,0,.521-.134.825.825,0,0,0,.41-.489,1.17,1.17,0,0,0,.02-.665.769.769,0,0,0-.361-.482,1.019,1.019,0,0,0-.239-.1A1.545,1.545,0,0,0,21,23.328c-.368,0-.737,0-1.1,0l-.037,0a.055.055,0,0,0-.051.046c0,.043,0,.087,0,.131q0,.581,0,1.161M15.491,23.3c-.059.005-.153.007-.245.022a1.11,1.11,0,0,0-.5.2.711.711,0,0,0-.267.4.878.878,0,0,0-.016.279.578.578,0,0,0,.149.356.83.83,0,0,0,.321.221c.151.06.306.106.462.151.084.024.167.05.249.081a.781.781,0,0,1,.149.077.208.208,0,0,1,.075.217.2.2,0,0,1-.133.146.617.617,0,0,1-.332.027,1.8,1.8,0,0,1-.689-.277c-.042-.027-.082-.057-.123-.085a.039.039,0,0,0-.049.01c-.01.016-.022.031-.03.047q-.092.184-.184.368c-.03.06-.022.083.035.126l.015.011a1.95,1.95,0,0,0,1.457.335,1.015,1.015,0,0,0,.462-.192.739.739,0,0,0,.285-.763.624.624,0,0,0-.209-.367.843.843,0,0,0-.27-.166c-.117-.044-.235-.082-.353-.122s-.214-.068-.32-.105a.989.989,0,0,1-.136-.062.227.227,0,0,1-.091-.091.175.175,0,0,1,.082-.251.411.411,0,0,1,.053-.018.573.573,0,0,1,.223-.013,2.084,2.084,0,0,1,.589.178.561.561,0,0,0,.17.073c.061-.042.073-.113.1-.173.043-.083.083-.168.124-.252a.158.158,0,0,0,.02-.052.069.069,0,0,0-.013-.05.375.375,0,0,0-.078-.051,2.056,2.056,0,0,0-.988-.235m6.863,3.944a1.356,1.356,0,0,0-.7.23,1.288,1.288,0,0,0-.57.762,1.37,1.37,0,0,0-.027.612,1.322,1.322,0,0,0,.631.931,1.432,1.432,0,0,0,.693.2,1.176,1.176,0,0,0,.206-.006,1.594,1.594,0,0,0,.8-.336c.208-.164.187-.128.03-.3-.059-.064-.12-.127-.181-.19-.017-.018-.036-.034-.054-.051a.047.047,0,0,0-.052,0l-.1.082a.972.972,0,0,1-.279.151.747.747,0,0,1-.312.053.7.7,0,0,1-.583-.357.811.811,0,0,1,.028-.9.722.722,0,0,1,.759-.287.969.969,0,0,1,.394.207c.033.028.064.06.1.09a.04.04,0,0,0,.05,0c.117-.138.234-.276.349-.416.007-.009,0-.036-.009-.05a.164.164,0,0,0-.039-.04,1.631,1.631,0,0,0-1.129-.384" transform="translate(-0.784)" fill="#003d7c"/>
        <path id="Pfad_14263" data-name="Pfad 14263" d="M.062,267.17,0,267.162v-1.237l.063-.008c0,.036.011.073.011.109,0,.345,0,.69,0,1.036a.266.266,0,0,1-.012.109" transform="translate(0 -246.543)" fill="#83a0bf"/>
        <path id="Pfad_14264" data-name="Pfad 14264" d="M264.872,548.528c.037,0,.074-.008.111-.008h1.252c.025,0,.05,0,.075,0a.157.157,0,0,0,0,.034h-1.425l-.01-.03" transform="translate(-245.575 -508.557)" fill="#275b90"/>
        <path id="Pfad_14265" data-name="Pfad 14265" d="M281.591,0c0,.013,0,.026,0,.038a.516.516,0,0,1-.073.008l-.479-.017A.12.12,0,0,1,280.954,0Z" transform="translate(-260.485)" fill="#83a0bf"/>
        <path id="Pfad_14266" data-name="Pfad 14266" d="M260.886.038V0h.6c-.01.007-.019.019-.03.02a3.377,3.377,0,0,1-.57.017" transform="translate(-241.879)" fill="#83a0bf"/>
        <path id="Pfad_14267" data-name="Pfad 14267" d="M257.831,548.467l.009.03h-.562c0-.012,0-.025,0-.037.037,0,.073-.007.11-.006l.443.013" transform="translate(-238.534 -508.497)" fill="#93adc7"/>
        <path id="Pfad_14268" data-name="Pfad 14268" d="M548.479,252.626a.044.044,0,0,0,.035,0v.412a.17.17,0,0,1-.023-.049,1.525,1.525,0,0,1-.011-.365" transform="translate(-508.513 -234.221)" fill="#93adc7"/>
        <path id="Pfad_14269" data-name="Pfad 14269" d="M548.515,291.621l-.017,0-.017,0a1.3,1.3,0,0,1,.009-.329.149.149,0,0,1,.025-.048Z" transform="translate(-508.515 -270.028)" fill="#93adc7"/>
        <path id="Pfad_14270" data-name="Pfad 14270" d="M289.01,548.479a.114.114,0,0,0,0,.035h-.337a.118.118,0,0,1,0-.032,2.261,2.261,0,0,1,.334,0" transform="translate(-267.641 -508.514)" fill="#bacadc"/>
        <path id="Pfad_14271" data-name="Pfad 14271" d="M284.86,548.513a.119.119,0,0,0,0,.032h-.3a.16.16,0,0,1,0-.034,2.093,2.093,0,0,1,.3,0" transform="translate(-263.825 -508.545)" fill="#6086ad"/>
        <path id="Pfad_14272" data-name="Pfad 14272" d="M220.461,139.8a3.729,3.729,0,0,1,1.228-2.826,4.047,4.047,0,0,1,1.813-.929,3.888,3.888,0,0,1,.853-.1,4.1,4.1,0,0,1,2.044.523,3.762,3.762,0,0,1,1.408,1.341,3.7,3.7,0,0,1,.47,1.215,3.91,3.91,0,0,1,.063.407,3.088,3.088,0,0,1,0,.542,4.235,4.235,0,0,1-.433,1.5,8.45,8.45,0,0,1-.541.94c-.222.34-.46.669-.7,1-.361.5-.708,1.013-1.022,1.546a10.944,10.944,0,0,0-.791,1.611,7.956,7.956,0,0,0-.39,1.365.892.892,0,0,1-.049.237.026.026,0,0,1-.015.01.013.013,0,0,1-.011-.007c-.013-.054-.029-.108-.037-.163a7.417,7.417,0,0,0-.475-1.631,11.537,11.537,0,0,0-.869-1.676c-.265-.431-.551-.847-.845-1.259-.21-.295-.42-.59-.625-.888a8.378,8.378,0,0,1-.619-1.046,4.7,4.7,0,0,1-.378-1.054,3.925,3.925,0,0,1-.079-.654m.867,0a3,3,0,0,0,.039.386,3.5,3.5,0,0,0,.221.713,5.492,5.492,0,0,0,.45.841c.156.241.317.479.48.715.235.338.478.671.712,1.01a15.441,15.441,0,0,1,1.115,1.862c.011.022.024.044.036.065s.031.014.042-.005.038-.065.054-.1c.136-.274.285-.541.441-.8.312-.527.656-1.033,1.011-1.531q.321-.45.636-.9a7.663,7.663,0,0,0,.449-.734,4.821,4.821,0,0,0,.3-.683,3.03,3.03,0,0,0,.161-.786,2.454,2.454,0,0,0-.061-.706,2.777,2.777,0,0,0-.727-1.371,3.174,3.174,0,0,0-2.227-.965,2.912,2.912,0,0,0-.67.061,3.176,3.176,0,0,0-1.4.64,2.856,2.856,0,0,0-1.069,2.3" transform="translate(-204.399 -126.035)" fill="#fbfcfd"/>
        <path id="Pfad_14273" data-name="Pfad 14273" d="M122.437,375.547q0-.6,0-1.2a.812.812,0,0,1,.009-.111.041.041,0,0,1,.024-.025.169.169,0,0,1,.055-.008c.4,0,.8,0,1.2,0a1.581,1.581,0,0,1,.443.064.956.956,0,0,1,.27.127.576.576,0,0,1,.206.238.6.6,0,0,1-.193.736c-.041.029-.085.052-.127.078a.016.016,0,0,0-.006.014c0,.011.009.025.017.03.038.02.08.035.118.056a.634.634,0,0,1,.319.44.738.738,0,0,1,.008.278.651.651,0,0,1-.288.441.957.957,0,0,1-.325.141,1.357,1.357,0,0,1-.333.046c-.062,0-.125,0-.187,0H122.6c-.164,0-.159.01-.158-.167,0-.031,0-.062,0-.094Zm1.011.225v0h-.28a.051.051,0,0,0-.048.047q0,.2,0,.392c0,.156,0,.154.154.153h.355c.037,0,.075,0,.112,0a.448.448,0,0,0,.242-.088.264.264,0,0,0,.067-.336.283.283,0,0,0-.155-.128.562.562,0,0,0-.2-.039h-.243m-.024-.49h.244a.472.472,0,0,0,.093-.008.268.268,0,0,0,.221-.348.222.222,0,0,0-.143-.161.5.5,0,0,0-.164-.035c-.168,0-.337,0-.506,0a.053.053,0,0,0-.049.046c0,.069-.006.137,0,.206a.9.9,0,0,0,.015.277c.008.023.011.022.292.022" transform="translate(-113.517 -346.941)" fill="#fbfcfd"/>
        <path id="Pfad_14274" data-name="Pfad 14274" d="M239.556,375.546q0-.6,0-1.2a.7.7,0,0,1,.011-.111c0-.009.015-.017.024-.024a.031.031,0,0,1,.018-.005h.506a.081.081,0,0,1,.065.031q.053.066.1.133l1,1.335a.975.975,0,0,0,.071.086c.006.007.022,0,.034,0s.009-.007.009-.012c0-.056,0-.112,0-.168q0-.618,0-1.236c0-.044,0-.087.005-.131a.069.069,0,0,1,.034-.041l.037,0h.468c.084,0,.093.026.093.1,0,.031,0,.062,0,.094q0,1.152,0,2.3,0,.066,0,.131a.057.057,0,0,1-.059.058h-.506a.079.079,0,0,1-.064-.033l-.248-.329-.852-1.14a.915.915,0,0,0-.059-.073.073.073,0,0,0-.033-.014.028.028,0,0,0-.007.014c0,.056-.006.112-.006.168q0,.609,0,1.217c0,.038,0,.075,0,.112,0,.059-.019.076-.079.078h-.075c-.444,0-.473,0-.478-.023a2.418,2.418,0,0,1-.013-.466c0-.287,0-.574,0-.862" transform="translate(-222.1 -346.943)" fill="#fafbfc"/>
        <path id="Pfad_14275" data-name="Pfad 14275" d="M392.673,375.528q0-.571,0-1.142c0-.044,0-.087,0-.131a.055.055,0,0,1,.05-.046l.018,0h.468a.111.111,0,0,1,.1.045c.033.045.068.089.1.134l1.008,1.35c.018.024.03.055.065.061,0,0,.014,0,.015,0a.114.114,0,0,0,.009-.036c0-.056,0-.112,0-.168q0-.6,0-1.2c0-.037,0-.075,0-.112s.024-.071.067-.072h.356l.168,0a.059.059,0,0,1,.046.051c0,.037,0,.075,0,.112q0,1.179,0,2.359c0,.037,0,.075,0,.112a.052.052,0,0,1-.044.051c-.025,0-.05,0-.075,0l-.467-.007a2.3,2.3,0,0,1-.289-.364c-.279-.368-.553-.739-.83-1.109-.026-.035-.053-.069-.082-.1-.006-.007-.022-.007-.034-.008s-.009.007-.009.011c0,.05,0,.1,0,.15q0,.627,0,1.254c0,.037,0,.075,0,.112a.058.058,0,0,1-.055.061l-.112,0-.43,0a.054.054,0,0,1-.039-.035c0-.019,0-.037,0-.056,0-.044,0-.087,0-.131Z" transform="translate(-364.065 -346.943)" fill="#fafbfc"/>
        <path id="Pfad_14276" data-name="Pfad 14276" d="M159.572,375.542q0-.6,0-1.2a.768.768,0,0,1,.009-.111.039.039,0,0,1,.026-.024.349.349,0,0,1,.074-.007c.368,0,.736,0,1.1,0a1.7,1.7,0,0,1,.462.064l.071.023a.824.824,0,0,1,.573.8,1.215,1.215,0,0,1-.032.353.838.838,0,0,1-.322.489l-.091.066a.038.038,0,0,0-.01.049c.022.038.043.076.066.113l.371.584c.02.031.038.064.057.1a.035.035,0,0,1-.024.055c-.025,0-.05,0-.075,0-.175,0-.35-.005-.524,0a.163.163,0,0,1-.171-.109c-.089-.178-.186-.353-.279-.529-.015-.028-.03-.054-.046-.082a.067.067,0,0,0-.062-.034h-.43a.058.058,0,0,0-.057.06c0,.037,0,.075,0,.112q0,.178,0,.356c0,.037,0,.075,0,.112,0,.1-.009.11-.1.11h-.468c-.025,0-.05,0-.074,0a.055.055,0,0,1-.038-.036c0-.019,0-.037,0-.056,0-.044,0-.087,0-.131Zm.687-.389h0c0,.131,0,.262,0,.393a.059.059,0,0,0,.047.051.164.164,0,0,0,.018,0c.15,0,.3,0,.449,0a.812.812,0,0,0,.167-.022.358.358,0,0,0,.272-.233.509.509,0,0,0,.014-.313.354.354,0,0,0-.195-.237.369.369,0,0,0-.161-.043l-.561,0a.058.058,0,0,0-.05.047c0,.119,0,.237,0,.356" transform="translate(-147.947 -346.939)" fill="#fafbfc"/>
        <path id="Pfad_14277" data-name="Pfad 14277" d="M330.837,321.541q0-.6,0-1.2a.738.738,0,0,1,.01-.111.039.039,0,0,1,.026-.024.356.356,0,0,1,.074-.007c.369,0,.737,0,1.106,0a1.679,1.679,0,0,1,.462.064,1,1,0,0,1,.287.135.761.761,0,0,1,.312.431,1.141,1.141,0,0,1-.01.665.819.819,0,0,1-.3.422l-.1.079a.022.022,0,0,0-.007.033c.018.033.034.066.054.1l.362.569c.03.047.058.1.086.145.008.014,0,.042-.019.043s-.05.005-.074.005c-.181,0-.362,0-.543,0a.151.151,0,0,1-.158-.1c-.081-.162-.168-.321-.253-.48-.023-.044-.048-.088-.071-.132a.065.065,0,0,0-.059-.039h-.449a.051.051,0,0,0-.046.049c0,.156,0,.312,0,.468,0,.264.036.229-.225.231-.119,0-.237,0-.356,0-.087,0-.1-.008-.1-.11q0-.618,0-1.237Zm.686-.359h0c0,.118,0,.237,0,.355a.063.063,0,0,0,.061.057l.019,0c.143,0,.287,0,.43,0a.908.908,0,0,0,.167-.02.362.362,0,0,0,.3-.32.964.964,0,0,0,0-.149.364.364,0,0,0-.324-.354.315.315,0,0,0-.056-.006h-.542a.112.112,0,0,0-.018,0,.054.054,0,0,0-.035.039q0,.2,0,.392" transform="translate(-306.734 -296.871)" fill="#fafbfc"/>
        <path id="Pfad_14278" data-name="Pfad 14278" d="M319.49,375.582q0,.59,0,1.18c0,.037,0,.075-.005.112a.05.05,0,0,1-.038.036c-.044,0-.087,0-.131,0l-.449,0a.054.054,0,0,1-.057-.059c0-.019,0-.037,0-.056q0-.187,0-.374c0-.15,0-.3,0-.449a.32.32,0,0,0-.008-.074.04.04,0,0,0-.027-.024.618.618,0,0,0-.093-.006h-.843a.4.4,0,0,0-.093.007.058.058,0,0,0-.035.038.589.589,0,0,0-.008.111c0,.25,0,.5,0,.749a.644.644,0,0,1-.012.11c0,.009-.016.016-.025.023a.031.031,0,0,1-.018.005h-.58a.051.051,0,0,1-.05-.045c0-.025,0-.05,0-.075q0-1.217,0-2.434c0-.025,0-.05,0-.075a.057.057,0,0,1,.06-.057h.562a.057.057,0,0,1,.062.055c0,.05,0,.1,0,.149,0,.25,0,.5,0,.749a.612.612,0,0,0,.008.111c0,.015.021.029.035.039a.067.067,0,0,0,.036.005h.955l.019,0a.053.053,0,0,0,.05-.045c0-.05,0-.1,0-.149,0-.262,0-.524,0-.786a.558.558,0,0,1,.008-.093c0-.01.014-.019.024-.027a.029.029,0,0,1,.017,0h.58a.052.052,0,0,1,.049.047c0,.05,0,.1,0,.149q0,.581,0,1.161" transform="translate(-293.916 -346.959)" fill="#fbfcfd"/>
        <path id="Pfad_14279" data-name="Pfad 14279" d="M357.734,375.55q0-.572,0-1.143c0-.05,0-.1,0-.15a.055.055,0,0,1,.046-.05c.025,0,.05,0,.075,0h1.874a.349.349,0,0,1,.074.007c.01,0,.018.015.026.024a.028.028,0,0,1,.007.017c0,.15,0,.3,0,.449a.054.054,0,0,1-.048.049l-.15,0h-1.068a.9.9,0,0,0-.112.006c-.01,0-.018.016-.026.025a.032.032,0,0,0,0,.018c0,.137,0,.275,0,.412,0,.043.025.064.072.064.319,0,.637,0,.956,0,.288,0,.248-.042.247.246a.557.557,0,0,1-.021.275.8.8,0,0,1-.259.013c-.281,0-.562,0-.843,0-.037,0-.075,0-.112,0a.063.063,0,0,0-.035.039c0,.068-.009.137,0,.205.006.092-.025.187.022.275a.814.814,0,0,0,.259.014c.344,0,.687,0,1.031,0a.8.8,0,0,1,.112.008c.01,0,.019.015.026.025a.029.029,0,0,1,.006.018q0,.225,0,.449c0,.013-.024.036-.037.037s-.024,0-.037,0H357.86a.536.536,0,0,1-.093-.009.038.038,0,0,1-.025-.025.839.839,0,0,1-.008-.111q0-.553,0-1.106Z" transform="translate(-331.672 -346.94)" fill="#f8fafb"/>
        <path id="Pfad_14280" data-name="Pfad 14280" d="M295.89,321.552q0-.6,0-1.2c0-.037,0-.074.006-.112a.05.05,0,0,1,.039-.035c.025,0,.05,0,.075,0h1.874a.343.343,0,0,1,.074.007.05.05,0,0,1,.026.024.077.077,0,0,1,.009.036c0,.137,0,.275,0,.412,0,.034-.014.065-.072.065h-.956l-.319,0c-.047,0-.064.02-.066.07,0,.012,0,.025,0,.037s0,.025,0,.037c0,.311,0,.358.025.366a1.261,1.261,0,0,0,.353.015c.25,0,.5,0,.75,0,.037,0,.075,0,.112,0a.056.056,0,0,1,.039.036c0,.069.008.138,0,.206a.643.643,0,0,1-.021.275.832.832,0,0,1-.26.013c-.281,0-.562,0-.843,0a.588.588,0,0,0-.111.008c-.015,0-.026.023-.038.036a.028.028,0,0,0-.005.017c0,.137,0,.275,0,.412a.06.06,0,0,0,.058.061c.056,0,.112,0,.168,0h1.031l.15,0a.057.057,0,0,1,.045.051c0,.006,0,.012,0,.019,0,.131,0,.262,0,.394,0,.05-.019.07-.065.071h-1.912l-.112,0a.056.056,0,0,1-.054-.062c0-.05,0-.1,0-.15q0-.562,0-1.125" transform="translate(-274.334 -296.874)" fill="#fafbfc"/>
        <path id="Pfad_14281" data-name="Pfad 14281" d="M223.539,321.1c0,.187,0,.375,0,.562,0,.087,0,.175-.01.262a1.021,1.021,0,0,1-.663.9,1.49,1.49,0,0,1-.754.089,1.309,1.309,0,0,1-.464-.137,1.029,1.029,0,0,1-.559-.834,2.1,2.1,0,0,1-.012-.243q0-.674,0-1.349c0-.031,0-.062,0-.093a.053.053,0,0,1,.046-.05l.262,0h.3c.047,0,.072.023.073.065s0,.1,0,.15q0,.628,0,1.255a1.666,1.666,0,0,0,0,.187.532.532,0,0,0,.2.37.48.48,0,0,0,.237.1.642.642,0,0,0,.332-.027.5.5,0,0,0,.316-.43,1.445,1.445,0,0,0,.007-.206q0-.646,0-1.293c0-.181-.013-.179.169-.178h.45c.043,0,.064.024.065.073s0,.1,0,.15q0,.337,0,.674" transform="translate(-204.969 -296.87)" fill="#fafbfc"/>
        <path id="Pfad_14282" data-name="Pfad 14282" d="M196,376.89h-.3a.031.031,0,0,1-.026-.04c.019-.046.037-.093.057-.138l1.015-2.355c.073-.168.045-.154.229-.154h.487a.076.076,0,0,1,.072.05l.276.656.764,1.811c.017.04.032.081.048.122a.039.039,0,0,1-.038.05h-.618a.072.072,0,0,1-.07-.051c-.046-.116-.091-.232-.137-.348a.379.379,0,0,0-.034-.066.053.053,0,0,0-.03-.02.244.244,0,0,0-.055-.005h-.993a.349.349,0,0,0-.056,0,.07.07,0,0,0-.056.044c-.015.034-.029.069-.043.1-.032.081-.065.162-.094.245a.122.122,0,0,1-.135.1c-.087-.005-.175,0-.262,0Zm1.137-1.007v0h.261c.025,0,.049,0,.074,0a.035.035,0,0,0,.027-.04c-.02-.059-.04-.117-.062-.175q-.122-.322-.247-.644a.726.726,0,0,0-.043-.082s-.011,0-.012,0a.359.359,0,0,0-.039.063q-.152.381-.3.763a.64.64,0,0,0-.02.072c0,.015.011.041.026.041l.335.01" transform="translate(-181.414 -346.94)" fill="#fafbfc"/>
        <path id="Pfad_14283" data-name="Pfad 14283" d="M261.057,321.531q0-.581,0-1.161c0-.044,0-.087,0-.131a.055.055,0,0,1,.051-.046l.037,0c.368,0,.737,0,1.1,0a1.542,1.542,0,0,1,.425.061,1.026,1.026,0,0,1,.239.1.77.77,0,0,1,.361.482,1.17,1.17,0,0,1-.02.665.825.825,0,0,1-.41.489,1.228,1.228,0,0,1-.521.134c-.075,0-.15,0-.225,0h-.243c-.109,0-.111.014-.111.12q0,.225,0,.449c0,.044,0,.087,0,.131a.052.052,0,0,1-.047.049l-.337,0c-.274,0-.283,0-.291-.024a.837.837,0,0,1-.014-.278c0-.35,0-.7,0-1.049m.692-.384c0,.118,0,.236,0,.354,0,.063.017.082.073.082.131,0,.261,0,.392,0a.833.833,0,0,0,.148-.017.359.359,0,0,0,.293-.32.9.9,0,0,0,0-.186.333.333,0,0,0-.2-.274.484.484,0,0,0-.217-.048h-.429c-.043,0-.062.022-.062.072,0,.112,0,.224,0,.336" transform="translate(-242.035 -296.864)" fill="#f7f9fb"/>
        <path id="Pfad_14284" data-name="Pfad 14284" d="M186.883,319.823a2.056,2.056,0,0,1,.988.235.375.375,0,0,1,.078.051.069.069,0,0,1,.013.05.161.161,0,0,1-.02.052c-.041.084-.081.169-.124.252-.031.06-.044.131-.1.173a.559.559,0,0,1-.17-.073,2.084,2.084,0,0,0-.589-.178.574.574,0,0,0-.223.013.41.41,0,0,0-.053.018.175.175,0,0,0-.082.251.227.227,0,0,0,.091.091.971.971,0,0,0,.136.062c.106.037.213.07.32.105s.237.078.353.122a.843.843,0,0,1,.27.166.624.624,0,0,1,.209.367.739.739,0,0,1-.285.763,1.015,1.015,0,0,1-.462.192,1.95,1.95,0,0,1-1.458-.335l-.015-.011c-.057-.043-.065-.066-.035-.126q.091-.184.184-.368c.008-.017.02-.032.03-.047a.04.04,0,0,1,.049-.01c.041.028.082.057.123.085a1.8,1.8,0,0,0,.689.277.615.615,0,0,0,.332-.027.2.2,0,0,0,.133-.146.207.207,0,0,0-.075-.216.78.78,0,0,0-.149-.077c-.081-.031-.165-.057-.249-.081-.156-.045-.311-.091-.462-.151a.83.83,0,0,1-.321-.221.577.577,0,0,1-.149-.356.875.875,0,0,1,.016-.279.711.711,0,0,1,.267-.4,1.11,1.11,0,0,1,.5-.2c.092-.015.186-.017.245-.022" transform="translate(-172.177 -296.523)" fill="#fafbfc"/>
        <path id="Pfad_14285" data-name="Pfad 14285" d="M279.278,373.958a1.631,1.631,0,0,1,1.129.384.165.165,0,0,1,.039.04c.008.015.016.042.009.05-.115.14-.232.278-.349.416a.04.04,0,0,1-.05,0c-.031-.03-.062-.062-.1-.09a.969.969,0,0,0-.394-.207.722.722,0,0,0-.759.287.811.811,0,0,0-.028.9.7.7,0,0,0,.583.357.746.746,0,0,0,.312-.053.97.97,0,0,0,.279-.151l.1-.082a.047.047,0,0,1,.052,0c.018.017.037.033.054.051.061.063.122.126.181.19.158.172.178.136-.03.3a1.594,1.594,0,0,1-.8.336,1.176,1.176,0,0,1-.206.006,1.432,1.432,0,0,1-.693-.2,1.322,1.322,0,0,1-.631-.931,1.371,1.371,0,0,1,.027-.612,1.288,1.288,0,0,1,.57-.763,1.356,1.356,0,0,1,.7-.23" transform="translate(-257.708 -346.714)" fill="#f9fbfc"/>
        <path id="Pfad_14286" data-name="Pfad 14286" d="M232.366,150.756a2.856,2.856,0,0,1,1.069-2.3,3.176,3.176,0,0,1,1.4-.64,2.91,2.91,0,0,1,.67-.061,3.175,3.175,0,0,1,2.227.965,2.778,2.778,0,0,1,.727,1.371,2.452,2.452,0,0,1,.061.706,3.03,3.03,0,0,1-.161.786,4.82,4.82,0,0,1-.3.683,7.665,7.665,0,0,1-.449.734q-.314.455-.636.9c-.355.5-.7,1-1.011,1.531-.156.263-.3.53-.441.8-.017.033-.036.066-.054.1s-.033.021-.042.005-.025-.043-.036-.065a15.425,15.425,0,0,0-1.115-1.862c-.234-.339-.477-.672-.712-1.01-.164-.236-.325-.474-.48-.715a5.491,5.491,0,0,1-.45-.841,3.5,3.5,0,0,1-.221-.713,3,3,0,0,1-.039-.386m4.648,1.923a.072.072,0,0,0,.013.012c.013.007.025,0,.029-.009s-.006-.022-.02-.023a.261.261,0,0,0-.031-.126l-.511-1.368a.675.675,0,0,1-.033-.107.068.068,0,0,1,.015-.051.851.851,0,0,1,.082-.077l.888-.778c.042-.037.083-.076.124-.115,0,0,0-.012,0-.018s-.007-.019-.023-.019l-.169,0h-1.275a.074.074,0,0,1-.07-.052c-.015-.034-.027-.07-.041-.1q-.233-.622-.466-1.245c-.022-.058-.048-.115-.072-.172,0-.005-.01-.013-.013-.012s-.02.008-.023.015c-.017.04-.033.081-.048.122l-.481,1.279a1.445,1.445,0,0,1-.057.138.065.065,0,0,1-.044.029,1.15,1.15,0,0,1-.131,0h-1.031l-.281,0a.112.112,0,0,0-.036.009.016.016,0,0,0,0,.015.345.345,0,0,0,.046.056l.945.827.043.037c.121.107.1.079.055.2-.064.182-.137.362-.2.543q-.168.447-.334.894a.242.242,0,0,0-.013.072c0,.007.015.022.023.022a.414.414,0,0,0,.155-.062c.425-.211.849-.425,1.273-.636.169-.084.115-.087.29,0q.629.313,1.257.627a.534.534,0,0,0,.171.073" transform="translate(-215.437 -136.993)" fill="#023f7d"/>
        <path id="Pfad_14287" data-name="Pfad 14287" d="M132.094,395.739h.243a.562.562,0,0,1,.2.039.284.284,0,0,1,.155.128.264.264,0,0,1-.067.336.448.448,0,0,1-.242.088c-.037,0-.075,0-.112,0h-.355c-.156,0-.155,0-.154-.153,0-.131,0-.261,0-.392a.051.051,0,0,1,.048-.047h.28Z" transform="translate(-122.163 -366.908)" fill="#0a4581"/>
        <path id="Pfad_14288" data-name="Pfad 14288" d="M132.038,381.967c-.281,0-.284,0-.292-.022a.894.894,0,0,1-.015-.277c0-.068,0-.137,0-.206a.053.053,0,0,1,.049-.047c.169,0,.337,0,.506,0a.5.5,0,0,1,.164.035.223.223,0,0,1,.143.161.268.268,0,0,1-.221.348.474.474,0,0,1-.093.008h-.244" transform="translate(-122.131 -353.626)" fill="#0a4581"/>
        <path id="Pfad_14289" data-name="Pfad 14289" d="M168.994,382.144c0-.118,0-.237,0-.356a.058.058,0,0,1,.05-.047l.561,0a.37.37,0,0,1,.161.043.354.354,0,0,1,.195.237.509.509,0,0,1-.014.313.358.358,0,0,1-.272.233.806.806,0,0,1-.167.022c-.15,0-.3,0-.449,0a.158.158,0,0,1-.018,0,.059.059,0,0,1-.047-.051c0-.131,0-.262,0-.393Z" transform="translate(-156.682 -353.93)" fill="#0a4581"/>
        <path id="Pfad_14290" data-name="Pfad 14290" d="M340.236,328.15q0-.2,0-.392a.054.054,0,0,1,.035-.039.113.113,0,0,1,.018,0h.542a.314.314,0,0,1,.056.006.364.364,0,0,1,.324.354.963.963,0,0,1,0,.149.362.362,0,0,1-.3.32.913.913,0,0,1-.167.02c-.143,0-.287,0-.43,0l-.019,0a.063.063,0,0,1-.061-.057c0-.118,0-.237,0-.355Z" transform="translate(-315.447 -303.839)" fill="#084380"/>
        <path id="Pfad_14291" data-name="Pfad 14291" d="M211.179,385.186l-.335-.01c-.014,0-.03-.025-.025-.041a.656.656,0,0,1,.02-.072q.15-.382.3-.763a.358.358,0,0,1,.039-.063s.011,0,.012,0a.728.728,0,0,1,.043.082q.124.322.247.644c.022.058.042.116.062.175a.035.035,0,0,1-.027.04c-.025,0-.049,0-.074,0h-.261v0" transform="translate(-195.459 -356.243)" fill="#0b4582"/>
        <path id="Pfad_14292" data-name="Pfad 14292" d="M270.606,328.114c0-.112,0-.224,0-.336,0-.05.019-.072.062-.072h.429a.484.484,0,0,1,.217.048.333.333,0,0,1,.2.274.9.9,0,0,1,0,.186.359.359,0,0,1-.293.32.83.83,0,0,1-.148.017c-.131,0-.261,0-.392,0-.056,0-.073-.019-.073-.082,0-.118,0-.236,0-.354" transform="translate(-250.891 -303.83)" fill="#05417f"/>
        <path id="Pfad_14293" data-name="Pfad 14293" d="M249.008,160.988a.534.534,0,0,1-.171-.073q-.629-.312-1.257-.627c-.174-.087-.12-.084-.29,0-.425.211-.849.424-1.273.636a.413.413,0,0,1-.155.063c-.008,0-.023-.014-.023-.022a.242.242,0,0,1,.013-.072q.166-.448.334-.894c.068-.181.141-.361.2-.543.043-.124.066-.1-.055-.2l-.043-.037-.945-.827a.343.343,0,0,1-.046-.056.016.016,0,0,1,0-.015.113.113,0,0,1,.036-.009l.281,0h1.031a1.149,1.149,0,0,0,.131,0,.065.065,0,0,0,.044-.029,1.444,1.444,0,0,0,.057-.138l.481-1.279c.015-.041.031-.082.048-.122,0-.007.015-.012.023-.015s.011.007.013.012c.024.057.05.114.072.172q.234.622.466,1.245c.013.035.026.07.041.1a.074.074,0,0,0,.07.052h1.275l.169,0c.016,0,.024.007.023.019s0,.014,0,.018c-.041.039-.081.078-.124.115l-.888.778a.85.85,0,0,0-.082.077.068.068,0,0,0-.015.051.672.672,0,0,0,.033.107l.511,1.368a.261.261,0,0,1,.031.126l-.021.021" transform="translate(-227.431 -145.302)" fill="#fcfdfd"/>
        <path id="Pfad_14294" data-name="Pfad 14294" d="M296.2,215.017c.014,0,.024.01.02.023s-.017.016-.029.009a.077.077,0,0,1-.013-.012l.021-.021" transform="translate(-274.597 -199.352)" fill="#fcfdfd"/>
      </g>
    </g>
  </g>
</svg>
