<svg xmlns="http://www.w3.org/2000/svg" xmlns:xlink="http://www.w3.org/1999/xlink" width="1024" height="1024" viewBox="0 0 1024 1024"><defs><clipPath id="b"><rect width="1024" height="1024"/></clipPath></defs><g id="a" clip-path="url(#b)"><circle cx="512" cy="512" r="512" fill="#d9e0e7"/><path d="M524.3,419.8c25,0,48.8.6,72.5-.3,10.3-.4,13.5,5.4,17.4,12.6,17.1,31.9,34.4,63.7,53.5,98.9,21.1-38.7,40.7-74.7,60-110.3H812V595c-16.7,5.1-33.8.8-52.8,2.9V479.1c-1.3-.3-2.7-.6-4-.9C736,512.4,716.3,546.4,698,581.1c-6.8,13-15.2,17-29.6,16.9-14.7-.1-23.8-3.2-31.1-17.4A962.366,962.366,0,0,0,577,479.2V596.5H524.3C524.3,538,524.3,480.1,524.3,419.8Z" fill="#fff"/><path d="M496.8,596.1H444.7V479.3c-1.2-.4-2.4-.7-3.6-1.1-19.6,34.7-39.8,69.1-58.3,104.4-6.4,12.1-14.2,15.4-26.7,14.7-12.4-.8-23.5,1.1-31.2-14a1010.182,1010.182,0,0,0-62.1-105V595.4c-18.7,2.7-34.9,2.1-52.1.7V419.9c25.1,0,49.5.4,73.8-.2,9.7-.3,12.2,6.3,15.6,12.5,14.1,26.2,28,52.4,42.1,78.6,3.4,6.2,7.3,12.2,12.1,20.2,17.8-33,35.1-63.4,50.6-94.6,6.6-13.3,14.5-17.8,29-16.8,20.4,1.4,40.9.3,62.9.3C496.8,478.5,496.8,536.3,496.8,596.1Z" fill="#fff"/><path d="M286.9,361.7c60.4-89.1,145.6-129.3,251.5-119.6,96.4,8.9,166.1,61.1,214.5,149.2-45,0-86.3-.1-127.6.1-6.4,0-9.2-4.5-12.3-8.6C538,282.7,386.7,269,293.6,363.1a13.847,13.847,0,0,1-3.3,2C289.1,364,288,362.9,286.9,361.7Z" fill="#fff"/><path d="M735.4,651.2c-44.7,71.5-110.3,112.5-192.8,121.1C432.5,783.8,345,741.5,283.2,648.6c-4.2-6.3-10.1-12.3-9.2-22.9,41,0,81.9.1,122.8-.1,6.1,0,9.5,3,12.9,7.5,75.8,99.2,227.5,113.3,322.5,14C733.3,648.5,734.4,649.9,735.4,651.2Z" fill="#fff"/><path d="M740.1,644.1c-1.6,2.4-3.1,4.8-4.7,7.2-1.1-1.4-2.1-2.7-3.2-4.1,2-1.7,3.9-3.4,5.9-5.1C738.8,642.7,739.4,643.4,740.1,644.1Z" fill="#fff"/><path d="M290.2,365.1c-2,3.2-4.5,3.9-8.6,1.4,1.9-1.8,3.6-3.3,5.3-4.8C288,362.9,289.1,364,290.2,365.1Z" fill="#fff"/><path d="M738.1,642c.4-1.9,1.4-3.4,3.5-2,.3.2-1,2.6-1.5,4.1C739.4,643.4,738.8,642.7,738.1,642Z" fill="#fff"/></g></svg>