<svg xmlns="http://www.w3.org/2000/svg" xmlns:xlink="http://www.w3.org/1999/xlink" width="500" height="500" viewBox="0 0 500 500"><defs><clipPath id="b"><rect width="500" height="500"/></clipPath></defs><g id="a" clip-path="url(#b)"><rect width="500" height="500" fill="#fff"/><circle cx="250" cy="250" r="250" fill="#323c45"/><g transform="translate(102.949 116.453)"><path d="M83.008,66.453,43.979,105.482,4.95,66.453Z" transform="translate(0 157.742)" fill="#65c1c2"/><path d="M132.488,135.493c-8.161-9.58-7.806-14.9-2.838-19.869,6.032-6.032,12.418-3.548,19.514,3.193l-16.676,16.676ZM216.222,29.05c6.032-6.032,12.418-3.548,19.514,3.193L219.061,48.919c-8.515-9.58-8.161-14.547-2.838-19.869Zm50.383,17.031c-7.451,11.354-20.934,29.8-34.771,15.966L266.96,26.921c-3.193-3.193-5.322-6.032-7.451-7.806C240.7.311,219.416-.044,202.74,16.632c-11,11-14.192,23.772-11,35.836l-11-12.418c-2.838,1.419-16.321,13.483-6.387,31.223L161.937,60.983,145.261,77.659l22.708,22.708c-17.386-13.838-36.19-12.418-51.092,2.484-15.966,15.966-14.9,35.481-2.838,51.447l-2.484-2.484C95.588,135.847,78.2,141.524,69.687,150.04c-6.741,6.741-10.644,15.612-8.87,22L26.4,137.621,7.95,156.071l68.123,68.123h36.545L88.137,199.713c-12.773-13.128-13.128-19.869-6.741-26.256,6.032-6.032,13.128-2.129,25.546,9.935l24.127,24.127,18.1-18.1L126.1,166.361c16.676,12.418,36.545,13.128,54.286-4.613l.355-.355h0c11-9.935,14.192-19.869,14.192-19.869L181.1,132.3c-7.451,11.354-20.579,29.8-34.416,15.966l35.126-35.126,22,22,19.16-19.16-27.32-27.32c-12.773-12.773-5.322-24.837,0-29.449a52.487,52.487,0,0,0,10.644,14.9c17.74,17.74,40.448,21.288,60.672,1.419l.355-.355h0c11-9.935,14.192-19.869,14.192-19.869l-14.9-9.225Z" transform="translate(7.644 0)" fill="#fff"/></g></g></svg>