<?xml version="1.0" encoding="utf-8"?>
<!-- Generator: Adobe Illustrator 19.2.1, SVG Export Plug-In . SVG Version: 6.00 Build 0)  -->
<svg version="1.1" xmlns="http://www.w3.org/2000/svg" xmlns:xlink="http://www.w3.org/1999/xlink" x="0px" y="0px"
	 viewBox="0 0 1024 1024" enable-background="new 0 0 1024 1024" xml:space="preserve">
<g id="Layer_1">
	<circle id="XMLID_1_" fill="#F94877" cx="512" cy="512" r="512"/>
	<g>
		<g>
			<path fill="#FFFFFF" d="M709.7,223.3c0,0-274.1,0-318,0c-43.9,0-56.8,33-56.8,53.8c0,20.8,0,505.2,0,505.2
				c0,23.4,12.6,32.1,19.6,35c7.1,2.9,26.6,5.3,38.3-8.2c0,0,150.1-174.2,152.7-176.8c3.9-3.9,3.9-3.9,7.8-3.9c7.8,0,65.7,0,97.1,0
				c40.8,0,47.4-29.1,51.6-46.2c3.6-14.4,43.4-218.2,56.7-282.9C768.9,249.9,756.4,223.3,709.7,223.3z M702.1,582.2
				c3.6-14.4,43.4-218.2,56.7-282.9 M690.9,309.4L677.6,379c-1.6,7.5-11.1,15.4-19.8,15.4c-8.8,0-123.9,0-123.9,0
				c-13.9,0-23.9,9.5-23.9,23.4V433c0,13.9,10,23.8,24,23.8c0,0,95.3,0,105.1,0c9.8,0,19.5,10.8,17.4,21.3
				c-2.1,10.5-12.1,62.7-13.3,68.4c-1.2,5.8-7.8,15.6-19.5,15.6c-9.9,0-85.8,0-85.8,0c-15.6,0-20.3,2-30.8,15
				C496.5,590.1,402.5,703,402.5,703c-1,1.1-1.9,0.8-1.9-0.4V308.4c0-8.9,7.7-19.3,19.3-19.3c0,0,245.2,0,255.2,0
				C684.5,289,693.3,297.9,690.9,309.4z"/>
		</g>
	</g>
</g>
<g id="Layer_2">
</g>
</svg>
