<svg xmlns="http://www.w3.org/2000/svg" xmlns:xlink="http://www.w3.org/1999/xlink" width="40" height="41" viewBox="0 0 40 41">
  <defs>
    <clipPath id="clip-path">
      <rect id="Rechteck_11386" data-name="Rechteck 11386" width="40" height="41" transform="translate(0.5)" fill="none"/>
    </clipPath>
  </defs>
  <g id="Gruppe_15846" data-name="Gruppe 15846" transform="translate(15645 20417)">
    <g id="Gruppe_15820" data-name="Gruppe 15820" transform="translate(-15645.5 -20417)">
      <g id="Gruppe_15819" data-name="Gruppe 15819" clip-path="url(#clip-path)">
        <path id="Pfad_14256" data-name="Pfad 14256" d="M20.25,0A20.25,20.25,0,1,1,0,20.25,20.25,20.25,0,0,1,20.25,0" fill="#8ed500"/>
        <path id="Pfad_14257" data-name="Pfad 14257" d="M238.651,317.7a7.743,7.743,0,0,0-6.49,3.235c-.111.162-.3.51-.554.514-1.218.008-1.293-1.491-1.333-2.832a.374.374,0,0,0-.372-.36l-3.528-.02a.376.376,0,0,0-.376.38c.079,3.271.68,5.494,4.643,6.38a.475.475,0,0,1,.368.467v7.349a.371.371,0,0,0,.372.372h3.425a.371.371,0,0,0,.372-.372v-7.59a3.487,3.487,0,0,1,3.465-3.6,3.561,3.561,0,0,1,3.465,3.6v7.59a.371.371,0,0,0,.372.372H245.9a.371.371,0,0,0,.372-.372v-8.151c.008-3.9-3.318-6.961-7.625-6.961" transform="translate(-217.06 -305.135)" fill="#fcfcfc"/>
      </g>
    </g>
  </g>
</svg>
