<svg xmlns="http://www.w3.org/2000/svg" width="40" height="40" viewBox="0 0 40 40">
  <g id="Gruppe_15862" data-name="Gruppe 15862" transform="translate(22547 21333)">
    <g id="Gruppe_15855" data-name="Gruppe 15855" transform="translate(19)">
      <circle id="Ellipse_1604" data-name="Ellipse 1604" cx="20" cy="20" r="20" transform="translate(-22566 -21333)" fill="#d9e0e7"/>
      <g id="Gruppe_15852" data-name="Gruppe 15852" transform="translate(-22566 -21333)">
        <g id="Gruppe_15853" data-name="Gruppe 15853">
          <path id="Pfad_16150" data-name="Pfad 16150" d="M493.28.035a.064.064,0,0,0,0-.035h1.312c0,.011,0,.021,0,.032-.062,0-.123.005-.185.006l-.928,0c-.068,0-.135,0-.2-.007" transform="translate(-474.013)" fill="#93b8e4"/>
          <path id="Pfad_16151" data-name="Pfad 16151" d="M0,490.189l.063-.01a1.042,1.042,0,0,1-.063.535Z" transform="translate(0 -471.033)" fill="#82ace0"/>
          <path id="Pfad_16152" data-name="Pfad 16152" d="M.062,524.494,0,524.487v-.45a.31.31,0,0,1,.046.1c.01.12.012.24.017.36" transform="translate(0 -503.568)" fill="#a3c2e8"/>
          <path id="Pfad_16153" data-name="Pfad 16153" d="M531.468,1023.006c0,.012,0,.025,0,.037h-.712a3.483,3.483,0,0,1,.712-.037" transform="translate(-510.025 -983.043)" fill="#8ab2e2"/>
          <path id="Pfad_16154" data-name="Pfad 16154" d="M484.54,1023.081a1.33,1.33,0,0,1,.493.032h-.487a.277.277,0,0,0-.006-.032" transform="translate(-465.614 -983.113)" fill="#5e95d7"/>
          <path id="Pfad_16155" data-name="Pfad 16155" d="M1023.024,538.883h-.017l-.017,0a1.263,1.263,0,0,1,.035-.452Z" transform="translate(-983.024 -517.402)" fill="#9dbee7"/>
          <path id="Pfad_16156" data-name="Pfad 16156" d="M1023.011,475.031a.115.115,0,0,0,.034,0v.412a1.027,1.027,0,0,1-.034-.415" transform="translate(-983.045 -456.477)" fill="#a3c2e8"/>
          <path id="Pfad_16157" data-name="Pfad 16157" d="M526.92.032c0-.011,0-.021,0-.032h.337q0,.017,0,.035l-.336,0" transform="translate(-506.336)" fill="#cfdff3"/>
          <path id="Pfad_16158" data-name="Pfad 16158" d="M476.356,1023.175a.271.271,0,0,1,.006.032h-.337a.109.109,0,0,0,0-.035l.333,0" transform="translate(-457.43 -983.207)" fill="#bad1ee"/>
          <path id="Pfad_16159" data-name="Pfad 16159" d="M294.363,238.6c0-.081.008-.136.008-.191q0-1.3,0-2.6a3.246,3.246,0,0,0-.079-.743,1.776,1.776,0,0,0-1.021-1.264,3.261,3.261,0,0,0-.839-.257,7.83,7.83,0,0,0-1.68-.094,7.475,7.475,0,0,0-.988.094,3.6,3.6,0,0,0-.86.252,1.7,1.7,0,0,0-1.029,1.374,4.3,4.3,0,0,0-.035.654,2.509,2.509,0,0,1-.032.523c-.007.031-.01.062-.018.092a.733.733,0,0,1-.63.587,2.084,2.084,0,0,1-.354.033q-1.593,0-3.186,0a1.761,1.761,0,0,1-.481-.061.647.647,0,0,1-.481-.478,1.641,1.641,0,0,1-.062-.386,12.064,12.064,0,0,1,.036-1.554,5.127,5.127,0,0,1,2.77-4.192,8.456,8.456,0,0,1,2.12-.781,14.223,14.223,0,0,1,2-.309,21.239,21.239,0,0,1,2.64-.057,15.29,15.29,0,0,1,2.75.326,8.754,8.754,0,0,1,2.085.715,5.521,5.521,0,0,1,1.457,1.042,4.908,4.908,0,0,1,1.273,2.319,7.088,7.088,0,0,1,.2,1.726q0,.309,0,.618,0,6.887,0,13.774a2.145,2.145,0,0,1-.04.54c0,.006,0,.012,0,.018a.777.777,0,0,1-.723.652,2.875,2.875,0,0,1-.336.019q-1.546,0-3.092,0a3.091,3.091,0,0,1-.318-.017.726.726,0,0,1-.669-.54,2.964,2.964,0,0,1-.11-.588c-.026-.255-.049-.51-.075-.764a.721.721,0,0,0-.016-.076.418.418,0,0,0-.162.1,10.918,10.918,0,0,1-1.589,1.057,9.524,9.524,0,0,1-3.143,1.059,9.682,9.682,0,0,1-2.261.077,7.183,7.183,0,0,1-2.32-.558,4.967,4.967,0,0,1-3-3.844,5.234,5.234,0,0,1-.074-.839c0-.743-.011-1.487,0-2.23a4.966,4.966,0,0,1,.816-2.65,5.219,5.219,0,0,1,2.09-1.829,6.848,6.848,0,0,1,1.827-.6,9.5,9.5,0,0,1,1.752-.152q2.821,0,5.641,0Zm0,6.4a.192.192,0,0,0,0-.025q0-1.162,0-2.323a.409.409,0,0,0-.024-.093H289.6c-.137,0-.275,0-.412.012a2.43,2.43,0,0,0-.8.184,1.347,1.347,0,0,0-.771.844,2.075,2.075,0,0,0-.112.624c-.006.368,0,.737,0,1.105a1.622,1.622,0,0,0,.076.46,1.28,1.28,0,0,0,.661.8,2.047,2.047,0,0,0,.51.18,4.616,4.616,0,0,0,1.4.061,6.323,6.323,0,0,0,1.672-.394,10.362,10.362,0,0,0,2.511-1.4.32.32,0,0,0,.034-.037" transform="translate(-270.971 -220.273)" fill="#feffff"/>
        </g>
      </g>
    </g>
  </g>
</svg>
