<svg xmlns="http://www.w3.org/2000/svg" xmlns:xlink="http://www.w3.org/1999/xlink" width="1024" height="1024" viewBox="0 0 1024 1024"><defs><clipPath id="b"><rect width="1024" height="1024"/></clipPath></defs><g id="a" clip-path="url(#b)"><circle cx="512" cy="512" r="512" fill="#d9e0e7"/><path d="M286.2,406c-4.3-.8-9.3-1.4-15-1.9-5.6-.5-11.9-.7-18.9-.7-19.3,0-33.7,4.5-43.2,13.4-9.5,9-14.3,22.4-14.3,40.3v4h-20V493h20V607.3h47V493h34.5V461.2H240.2V460c0-9.5,1.6-15.9,4.9-19.2,3.2-3.3,9.4-5,18.6-5a45.546,45.546,0,0,1,10.7,1.2q4.95,1.2,8.1,2.1H286V406ZM410,461.2c-1.6-.2-3.4-.3-5.5-.4s-3.9-.1-5.6-.1c-6.4,0-13.4,1.5-21.1,4.4-7.6,2.9-16.6,8.8-26.9,17.6V461.2h-47V607.3h47V509.4a92.553,92.553,0,0,1,16.5-4.4,103.224,103.224,0,0,1,17.7-1.3c2.9,0,6.6.2,11.1.5a38.909,38.909,0,0,1,9.6,1.6H410V461.2Zm170.3,65.3q0-33.75-18-51.8c-12-12-29.8-18-53.6-18-25.8,0-46,7.1-60.8,21.2s-22.2,33.2-22.2,57.3q0,36.6,23.4,56.4t67.4,19.8a156.63,156.63,0,0,0,31.1-2.9,168.913,168.913,0,0,0,29.9-9.3V561.5h-5.2c-5.4,4.1-12.7,7.9-22,11.5a78.876,78.876,0,0,1-28.7,5.3c-15.6,0-27.4-3-35.5-9.1-8-6.1-12.4-14.8-13.1-26.3H580.2V526.5ZM473,515.5c.7-10.3,3.9-17.8,9.7-22.5s13.2-7,22.2-7c9.7,0,16.8,2.5,21.4,7.4s7,12.3,7.3,22.1Zm187.5-54.3h-47V607.3h47V461.2Zm1.4-56.4H612.1v35.6h49.8V404.8ZM848.4,526.5q0-33.75-18-51.8c-12-12-29.8-18-53.6-18q-38.7,0-60.8,21.2-22.2,21.15-22.2,57.3,0,36.6,23.4,56.4t67.4,19.8a156.63,156.63,0,0,0,31.1-2.9,168.913,168.913,0,0,0,29.9-9.3V561.5h-5.2c-5.4,4.1-12.7,7.9-22,11.5a78.876,78.876,0,0,1-28.7,5.3c-15.6,0-27.4-3-35.5-9.1-8-6.1-12.4-14.8-13.1-26.3H848.3l.1-16.4Zm-107.3-11c.7-10.3,3.9-17.8,9.7-22.5s13.2-7,22.2-7c9.7,0,16.8,2.5,21.4,7.4s7,12.3,7.3,22.1Z" fill="#fff"/></g></svg>