<svg xmlns="http://www.w3.org/2000/svg" xmlns:xlink="http://www.w3.org/1999/xlink" width="1024" height="1024" viewBox="0 0 1024 1024"><defs><clipPath id="b"><rect width="1024" height="1024"/></clipPath></defs><g id="a" clip-path="url(#b)"><circle cx="512" cy="512" r="512" fill="#d9e0e7"/><path d="M486.6,213.9c0,1.9-.1,3.8-.1,5.6q0,85.8.1,171.5c0,3.3-.7,4.6-4.3,4.6-7.3,0-14.6.3-21.8.9-46.2,4-92.6,4.9-138.9,7.5-3,.2-6.8,1.9-8.6-.2-1.5-1.7-.9-5.5-1.1-8.3q-3.15-46.8-6.3-93.5l-5.4-78.9a5.775,5.775,0,0,0-.6-1.7c0-2.5-1-6,.3-7.3s4.8-.3,7.3-.3Q396.75,213.95,486.6,213.9Z" fill="#fff"/><path d="M316.9,810.5l3.3-43.5q2.4-30.6,5-61.1c1.4-17.6,2.9-35.3,4.3-52.9.2-2.2.6-2.9,3-2.8,27.2,1.6,54.4,2.8,81.5,4.6,22.7,1.6,45.4,3.5,68.1,4.3,3.3.1,4.4,1,4.3,4.5q-.15,72.3-.1,144.7c0,.7.1,1.5.1,2.2Z" fill="#fff"/><path d="M625.1,395.4c-32,0-64.1-.1-96.1.1-3.3,0-4.2-.7-4-4.1q2.55-46.05,4.9-92.1c1.3-24.6,2.7-49.1,4-73.7.1-2.7.9-3.3,3.5-3,6.4.6,12.8.5,19.1,1.4,20.1,2.8,40.4,3.1,60.6,4.7,16.4,1.3,32.8,2.3,49.2,3.4,18.9,1.3,37.8,2.6,56.7,3.7,2,.1,2.7.8,2.5,2.7a7.521,7.521,0,0,0,0,1.5q0,75.6.1,151.1c0,3.5-1,4.3-4.4,4.3C689.2,395.3,657.1,395.4,625.1,395.4Z" fill="#fff"/><path d="M406.2,451c29.8,0,59.6.1,89.4-.1,3.2,0,3.9.9,3.9,4q-.15,78.3,0,156.5c0,3.7-1.2,4.1-4.3,3.7-18.2-2.7-36.4-5.2-54.7-7.1-20.7-2.2-41.4-4.8-62.1-7.1-20.8-2.4-41.7-4.7-62.5-7-2.6-.3-3.5-1.1-3.5-3.9q.15-67.5,0-135c0-3.2,1-3.9,4.1-3.9C346.3,451.1,376.3,451,406.2,451Z" fill="#fff"/><path d="M617.6,453.2c37.7-1.2,64.9-2,92.1-3,3.3-.1,4,.6,3.9,3.8-1.6,30.6-3,61.2-4.5,91.8-.8,16.9-1.6,33.9-2.3,50.8-.1,2.3-.9,2.9-3.1,3-29.4.9-58.7,1.9-88.1,3-23.1.8-46.1,1.7-69.2,2.6-3.1.1-4-.7-4-3.9q0-62.25-.2-124.4c0-6.2-.1-12.3-.3-18.4-.1-2.3.7-2.9,3-3C572.6,454.6,600.4,453.7,617.6,453.2Z" fill="#fff"/></g></svg>