<?xml version="1.0" encoding="utf-8"?>
<!-- Generator: Adobe Illustrator 19.2.1, SVG Export Plug-In . SVG Version: 6.00 Build 0)  -->
<svg version="1.1" id="Layer_1" xmlns="http://www.w3.org/2000/svg" xmlns:xlink="http://www.w3.org/1999/xlink" x="0px" y="0px"
	 viewBox="0 0 1024 1024" enable-background="new 0 0 1024 1024" xml:space="preserve">
<circle id="XMLID_1_" fill="#F0F2F4" cx="512" cy="512" r="512"/>
<g>
	<path fill="#1A365D" d="M699.1,506c-6.7,17-13.4,34-20.1,51c-1.8,4.7-4.5,9-5.4,14c-1.6,2.3-2.5,5-3.4,7.6
		c-2.9,6.4-5.4,13-8.1,19.5c-2.7,6.5-5.9,12.9-8.9,19.3c-1.5,3.3-2.8,6.7-4.2,10c-1.5,2-2.6,4.2-3.1,6.7c-1.1,1.2-1.8,2.7-2.1,4.3
		c-1.2,1.5-2,3.3-2.4,5.2l0.1-0.1c-0.2,0.4-0.5,0.8-0.7,1.2c-3.1,6.4-6.2,12.7-9.4,19.1c-17.6,35.8-35.9,71.2-58.9,103.9
		c-6.9,9.9-14.3,19.4-23.8,27.1c-6.2,5-12.8,6.2-20.4,3.3c-8.7-3.4-16.4-8.3-23.8-13.9c-31-23.5-57.1-51.9-82.6-81
		c-14.3-16.3-27.4-33.4-41.1-50.1c-0.5-0.7-0.9-1.3-1.4-2c-0.3-0.3-0.5-0.6-0.8-0.9l0-0.1c-7.4-10-14.8-20-22.2-30.1
		c-1.1-2.3-2.4-4.4-4.3-6.2c-0.5-1.6-1.3-2.9-3.1-3.2c-0.1-0.3-0.1-0.7-0.2-1c0.2-0.8-0.2-1.2-0.8-1.6c0.1-0.3,0-0.5-0.3-0.5
		c-1.2-1.8-2.4-3.7-3.7-5.5c-0.2-0.3-0.5-0.6-0.7-0.9c-0.3-0.4-0.5-0.7-0.8-1.1c-0.7-1.1-1.4-2.1-2.1-3.2c-0.3-0.5-0.6-1-0.9-1.5
		c-0.8-1.3-1.7-2.6-2.5-3.9c0.1-0.7-0.3-0.9-0.8-1.1l0,0c-0.3-0.5-0.6-0.9-1-1.4c-1.1-2.7-2.8-4.9-4.6-7.1c-0.3-0.4-0.5-0.8-0.8-1.1
		c0,0,0,0.1,0,0.1c-0.3-0.5-0.7-1-1-1.5c-0.4-0.6-0.7-1.1-1.1-1.7c-0.4-0.7-0.9-1.4-1.3-2c0.6-1.4-3.5-2.8,0-4.1
		c0.4,0.9,1.2,1,2.1,1c0,0-0.1-0.1-0.1-0.1c0.2,0.6,0.6,0.8,1.2,0.7c4.1,2,8.2,3.8,12.6,4.9c0.4,0.2,0.8,0.3,1.2,0.5
		c13.9,5,28.1,8.5,43,8.9c0.8,0.9,1.7,0.7,2.7,0.6c8.9,0.9,17.8,0.8,26.8,0.1c1,0.1,2,0.3,2.7-0.6c20.3-0.6,39.2-6.5,57.7-14.3
		c2.3-1,4.4-2.2,6.6-3.3c0.3-0.2,0.7-0.4,1-0.6c13.7-6.3,26.1-14.6,37.3-24.8c21.9-18.1,37.9-40.5,49-66.4
		c7.6-17.8,12.8-36.3,13.7-55.8c0.4-0.8,0.7-1.6,0.2-2.4c0.1-0.5,0.1-1.1,0.2-1.6c1.7-14.2,0.7-28.2-2.1-42.2
		c-0.3-4.2-1-8.3-2.5-12.2c-1.2-7.1-3.3-13.9-6.2-20.4c0.1-0.3,0-0.6-0.2-0.9c-6.7-19.2-17.2-36.2-29.8-52
		c-6-7.5-13.6-13.5-20.1-20.4c-0.4-0.3-0.7-0.7-1.1-1l-0.1-0.1c-0.3-0.3-0.7-0.6-1-0.9c-0.7-1.2-1.8-2-3.1-2.5
		c-7.8-7.3-17-12.6-27-18.9c13.5-3,26-6,38.5-8.6c31.7-6.5,63.7-11.5,96.1-13.3c30.3-1.7,60.5-2.3,90,6.8c2.7,0.8,5.3,1.9,7.9,2.9
		c18.5,7.1,27.4,20.9,28.5,40.2c0.4,6.7,0.5,13.4,0.7,20.2c-2.4,36.6-10.7,72-20.4,107.2c-9.4,33.9-20.7,67.2-32.7,100.3
		C699.7,503.6,699.4,504.8,699.1,506z"/>
	<path fill="#F5B81A" d="M441.7,534.3c-2.9,0.7-5.7,1.4-8.6,2.2c-0.8-0.2-1.6-0.3-2.2,0.6c-7.8,0.9-15.6,1.7-23.4,2.6
		c-0.7,0-1.3,0-2,0c-16.7,0.2-32.9-2.7-48.7-7.9c-14.4-5.8-27.9-13-39.6-23.2c-27.7-24-43.9-54-47.1-90.8
		c-3.3-38.4,8.9-71.8,33.4-100.9c4.6-5.5,10.5-9.9,15.7-14.8c18.1-13.7,38.2-23.2,60.7-27.1c19.3-3.3,38.3-2.1,57.2,2.3
		c16.5,5.1,32,12,45.9,22.6c14.7,11.2,26.3,25,36.1,40.6c0.4,0.7,0.8,1.4,1.2,2.1c2.2,4.6,4.3,9.2,6.5,13.8c0.1,0.3,0.2,0.7,0.3,1
		c0.8,1.8,1.5,3.7,2.3,5.5c0.4,1.4,0.9,2.9,1.3,4.3c1,4.3,2.1,8.5,3.1,12.8c0.2,1.6,0.4,3.2,0.6,4.7c6.3,42.5-4.7,79.8-33.2,111.9
		c-12.9,14.5-28.9,24.8-46.3,33.1c-2.1,0.2-4,1.1-5.7,2.2c-1.1,0-2.1,0.3-2.8,1.1c-1.4-0.1-2.7,0-3.7,1.1
		C442.4,534.1,442,534.2,441.7,534.3z"/>
</g>
</svg>
