<svg xmlns="http://www.w3.org/2000/svg" xmlns:xlink="http://www.w3.org/1999/xlink" width="40" height="40" viewBox="0 0 40 40">
  <defs>
    <clipPath id="clip-path">
      <rect id="Rechteck_11387" data-name="Rechteck 11387" width="40" height="40" transform="translate(-0.27)" fill="none"/>
    </clipPath>
  </defs>
  <g id="Gruppe_15845" data-name="Gruppe 15845" transform="translate(15645 20474)">
    <g id="Gruppe_15822" data-name="Gruppe 15822" transform="translate(-15644.73 -20474)">
      <g id="Gruppe_15821" data-name="Gruppe 15821" clip-path="url(#clip-path)">
        <path id="Pfad_14258" data-name="Pfad 14258" d="M19.865,0A19.865,19.865,0,1,1,0,19.865,19.865,19.865,0,0,1,19.865,0" fill="#f2f2f2"/>
        <path id="Pfad_14259" data-name="Pfad 14259" d="M680.758,587.445c-.047-.047-.022-.251.155-1.285.153-.892.173-1.058.134-1.125-.025-.044-.384-.409-.8-.812s-.77-.77-.795-.816a.155.155,0,0,1,.109-.233c.045-.011.546-.086,1.114-.167s1.063-.164,1.1-.183a9.225,9.225,0,0,0,.575-1.059c.5-1,.511-1.024.621-1.035l.113-.011.509,1.024a9.268,9.268,0,0,0,.582,1.07,10.32,10.32,0,0,0,1.125.2c.582.083,1.089.164,1.133.18s.08.058.08.133-.121.223-.821.906a7.656,7.656,0,0,0-.821.867c0,.038.082.543.182,1.13a10.505,10.505,0,0,1,.16,1.153c-.017.068-.046.089-.121.089a7.517,7.517,0,0,1-1.025-.487c-.509-.268-.97-.5-1.024-.521-.087-.03-.208.023-1.093.487-.907.475-1.125.566-1.2.5Z" transform="translate(-653.072 -558.188)" fill="#f6a620"/>
        <path id="Pfad_14260" data-name="Pfad 14260" d="M178.346,298.953a.431.431,0,0,1-.322-.254c-.029-.057-.342-1-.694-2.105-.551-1.719-1.4-4.363-3.223-9.989-.412-1.275-.487-1.443-.6-1.345-.05.042-.055.735-.055,6.8,0,6.71,0,6.758-.071,6.829s-.119.071-2.853.071H167.74l-.055-.078c-.05-.071-.055-.99-.055-9.072,0-4.946.01-9.028.021-9.071a.188.188,0,0,1,.116-.109c.052-.017,2.134-.029,4.626-.028,4.99,0,4.622-.015,4.756.23.039.07.2.536.362,1.037.363,1.129,2.1,6.45,2.719,8.35.254.776.484,1.431.511,1.458a.077.077,0,0,0,.087.025c.044-.027,1.1-3.244,3.212-9.744.2-.608.385-1.144.418-1.19a.439.439,0,0,1,.17-.128c.086-.034,1.141-.043,4.651-.039a36.7,36.7,0,0,1,4.6.062c.054.054.059.543.069,5.949.008,4.457,0,5.891-.031,5.891-.112,0-1.051-.15-1.122-.18a7.77,7.77,0,0,1-.77-1.436c-.379-.771-.725-1.432-.769-1.471a.367.367,0,0,0-.433,0c-.043.039-.4.708-.788,1.488-.573,1.146-.725,1.421-.79,1.436s-1.041.161-1.081.161c-.009,0-.02-1.621-.025-3.6-.007-2.642-.02-3.613-.05-3.643-.051-.051-.171.006-.208.1-.021.054-.457,1.4-2.713,8.377-.184.569-.608,1.89-.942,2.935s-.641,1.964-.681,2.042c-.136.267-.009.255-2.677.262-1.313,0-2.447-.006-2.522-.021Z" transform="translate(-161.126 -269.718)" fill="#006975"/>
      </g>
    </g>
  </g>
</svg>
