<?xml version="1.0" encoding="utf-8"?>
<!-- Generator: Adobe Illustrator 19.2.1, SVG Export Plug-In . SVG Version: 6.00 Build 0)  -->
<svg version="1.1" xmlns="http://www.w3.org/2000/svg" xmlns:xlink="http://www.w3.org/1999/xlink" x="0px" y="0px"
	 viewBox="0 0 1024 1024" enable-background="new 0 0 1024 1024" xml:space="preserve">
<g id="Layer_1">
	<circle id="XMLID_1_" fill="#313131" cx="512.5" cy="512" r="512"/>
</g>
<g id="Layer_2">
	<g>
		<path fill="#FFFFFF" d="M128.1,492.2c3.4-0.7,8.7-1.2,14.1-1.2c7.7,0,12.7,1.3,16.4,4.3c3.1,2.3,5,5.8,5,10.5
			c0,5.8-3.8,10.8-10.1,13.1v0.2c5.7,1.4,12.3,6.1,12.3,15c0,5.1-2,9-5,11.9c-4.2,3.8-10.9,5.6-20.6,5.6c-5.3,0-9.4-0.4-11.9-0.7
			V492.2z M135.8,516.7h7c8.1,0,12.9-4.2,12.9-10c0-7-5.3-9.7-13.1-9.7c-3.5,0-5.6,0.3-6.8,0.5V516.7z M135.8,545.3
			c1.5,0.3,3.7,0.4,6.5,0.4c8,0,15.3-2.9,15.3-11.6c0-8.1-7-11.5-15.4-11.5h-6.4V545.3z"/>
		<path fill="#FFFFFF" d="M188.5,492.2c3.9-0.8,9.5-1.2,14.8-1.2c8.2,0,13.5,1.5,17.3,4.9c3,2.7,4.7,6.7,4.7,11.3
			c0,7.9-5,13.1-11.2,15.2v0.3c4.6,1.6,7.3,5.8,8.8,12c1.9,8.3,3.4,14.1,4.6,16.4h-8c-1-1.7-2.3-6.8-4-14.2
			c-1.8-8.2-5-11.3-11.9-11.6h-7.3v25.8h-7.7V492.2z M196.2,519.4h7.9c8.2,0,13.5-4.5,13.5-11.3c0-7.7-5.6-11.1-13.7-11.2
			c-3.7,0-6.4,0.4-7.6,0.7V519.4z"/>
		<path fill="#FFFFFF" d="M299.7,520.7c0,20.5-12.5,31.4-27.7,31.4c-15.8,0-26.8-12.2-26.8-30.3c0-18.9,11.8-31.3,27.7-31.3
			C289.2,490.5,299.7,503,299.7,520.7z M253.4,521.6c0,12.7,6.9,24.2,19,24.2c12.2,0,19.1-11.2,19.1-24.8c0-11.9-6.2-24.2-19-24.2
			C259.8,496.8,253.4,508.5,253.4,521.6z"/>
		<path fill="#FFFFFF" d="M331.8,551.1l-15.1-59.6h8.1l7.1,30.2c1.8,7.4,3.4,14.9,4.4,20.6h0.2c1-5.9,2.8-13,4.9-20.7l8-30.1h8.1
			l7.3,30.3c1.7,7.1,3.3,14.2,4.2,20.4h0.2c1.2-6.5,2.9-13.2,4.8-20.6l7.9-30.1h7.9l-16.9,59.6h-8.1l-7.5-31.1
			c-1.9-7.6-3.1-13.5-3.9-19.5H353c-1.1,5.9-2.4,11.8-4.6,19.5l-8.5,31.1H331.8z"/>
		<path fill="#FFFFFF" d="M409.4,551.1v-59.6h8.4l19.1,30.2c4.4,7,7.9,13.3,10.7,19.4l0.2-0.1c-0.7-8-0.9-15.2-0.9-24.5v-25h7.3
			v59.6h-7.8l-18.9-30.3c-4.2-6.6-8.1-13.5-11.2-19.9L416,501c0.4,7.5,0.6,14.7,0.6,24.6v25.5H409.4z"/>
		<g>
			<path fill="#FFFFFF" d="M511.8,518.7c4.1-3.2,6.5-7.8,6.5-12.9c0-5.5-2.1-9.9-6-12.8c-4.3-3.5-9.9-5-18.2-5
				c-5.2,0-10.9,0.5-14.7,1.3l-2.3,0.5v63.6l2.5,0.4c2,0.3,6.3,0.7,12.3,0.7c10.7,0,17.9-2,22.7-6.4c3.9-3.8,5.9-8.6,5.9-14.1
				C520.5,526.6,516.6,521.6,511.8,518.7z M504.6,506.7c0,4.3-3.8,7.1-10,7.1h-4V500c1.1-0.1,2.4-0.1,3.9-0.1
				C504.6,499.9,504.6,504.8,504.6,506.7z M490.6,525.5h3.4c4.6,0,12.4,1.1,12.4,8.6c0,7.1-6.7,8.6-12.4,8.6c-1,0-2.3,0-3.5-0.1
				V525.5z"/>
			<path fill="#FFFFFF" d="M566.3,487.5c-18,0-30.6,14.1-30.6,34.3c0,19.6,12.2,33.2,29.8,33.2c15.3,0,30.6-10.6,30.6-34.4
				C596,501.1,583.8,487.5,566.3,487.5z M582,521c0,10.9-5,21.8-16.2,21.8c-11,0-16.1-11-16.1-21.2c0-10.1,4.2-21.9,16.2-21.9
				C577,499.7,582,510.7,582,521z"/>
			<path fill="#FFFFFF" d="M641.4,487.5c-18,0-30.6,14.1-30.6,34.3c0,19.6,12.2,33.2,29.8,33.2c15.3,0,30.6-10.6,30.6-34.4
				C671.2,501.1,658.9,487.5,641.4,487.5z M657.1,521c0,10.9-5,21.8-16.2,21.8c-11,0-16.1-11-16.1-21.2c0-10.1,4.2-21.9,16.2-21.9
				C652.1,499.7,657.1,510.7,657.1,521z"/>
			<polygon fill="#FFFFFF" points="714.9,517 739.2,488.5 721.9,488.5 703,511.6 703,488.5 689.4,488.5 689.4,554 703,554 
				703,529.4 705.4,526.7 723.8,554 740.1,554 			"/>
		</g>
		<path fill="#FFFFFF" d="M753.9,546.5c0-3.3,2.2-5.6,5.3-5.6s5.2,2.3,5.2,5.6c0,3.2-2,5.6-5.3,5.6
			C756,552.1,753.9,549.7,753.9,546.5z"/>
		<path fill="#FFFFFF" d="M786.7,527.1c0-3.4-0.1-6.2-0.3-8.9h5.3l0.3,5.4h0.1c1.6-3.1,5.4-6.2,10.9-6.2c4.5,0,11.6,2.7,11.6,14
			v19.6h-6v-18.9c0-5.3-2-9.7-7.6-9.7c-3.9,0-7,2.8-8,6.1c-0.3,0.7-0.4,1.8-0.4,2.8v19.7h-6V527.1z"/>
		<path fill="#FFFFFF" d="M838.5,535.8c0.1,8.1,5.3,11.4,11.3,11.4c4.3,0,6.9-0.7,9.1-1.7l1,4.3c-2.1,1-5.7,2-10.9,2
			c-10.1,0-16.1-6.6-16.1-16.6c0-9.9,5.8-17.7,15.4-17.7c10.7,0,13.6,9.4,13.6,15.5c0,1.2-0.1,2.2-0.2,2.8H838.5z M856.1,531.5
			c0.1-3.8-1.6-9.7-8.3-9.7c-6,0-8.7,5.6-9.2,9.7H856.1z"/>
		<path fill="#FFFFFF" d="M887.3,508.8v9.4h8.5v4.5h-8.5v17.7c0,4.1,1.2,6.4,4.5,6.4c1.6,0,2.7-0.2,3.5-0.4l0.3,4.5
			c-1.2,0.5-3,0.8-5.3,0.8c-2.8,0-5-0.9-6.4-2.5c-1.7-1.8-2.3-4.7-2.3-8.5v-17.9h-5.1v-4.5h5.1v-7.9L887.3,508.8z"/>
	</g>
</g>
</svg>
