<svg xmlns="http://www.w3.org/2000/svg" xmlns:xlink="http://www.w3.org/1999/xlink" width="1024" height="1024" viewBox="0 0 1024 1024"><defs><clipPath id="b"><rect width="1024" height="1024"/></clipPath></defs><g id="a" clip-path="url(#b)"><circle cx="512" cy="512" r="512" fill="#d9e0e7"/><path d="M512.7,797.5c-156.8,0-284.4-127.6-284.4-284.4S355.9,228.7,512.7,228.7,797.1,356.3,797.1,513.1,669.5,797.5,512.7,797.5Zm0-559.1c-151.5,0-274.8,123.3-274.8,274.8S361.2,788,512.7,788,787.5,664.7,787.5,513.2,664.2,238.4,512.7,238.4Z" fill="#fff"/><path d="M386.1,397.1h0l.4.3Z"/><path d="M487.1,567.6h0c0-.2.1-.4.1-.6Z"/><path d="M668,273.1l-.2.4a.758.758,0,0,0,.2-.4Z"/><path d="M386.1,397.1h0l.4.3Z"/><path d="M487.1,567.6h0c0-.2.1-.4.1-.6Z"/><path d="M668,273.1l-.2.4a.758.758,0,0,0,.2-.4Z"/><path d="M598.1,646.8a54.409,54.409,0,0,0-9.4-9.8c-7.4-5.9-21.7-8.5-35.4,3.4l-1.3,1.2c-19.3,17.7-51.5,47.3-77.2,41.2-19.2-4.5-21.5-21.8-20.3-38.9a114.037,114.037,0,0,1,1.4-13.1v-.1c.5-3.4,1.1-6.6,1.7-9.5,2.5-12.5,22.9-102.4,33.4-148.5,1.6-6.7,3.1-15.1,2.2-21.5-1.3-9.9-9.2-13.3-19.9-16-12.7-2.8-29.7,2.2-34.3,16.8-5,17-10.7,40.1-24.5,109.7-.8,3.3-1.6,7.1-2.7,10.7.1-.2.1-.3.2-.5-2.4,7.4-4.7,14.9-14.7,12.9-9.1-2.6-9.7-13-10.1-20.5,0,0-.1-1.5-.1-1.6l-.6-17.3c-1.3-26.2-1.3-53.8.1-84.4l1-18,1.4-29.6c.3-8.2-.6-12.4-4.8-16-4-3.4-10.4-4.1-18.3-2.7-6.3,1.2-12.5,3.8-16.8,8.7-4,4.8-5.6,10.9-6.2,17-1.4,15.1-2.5,30.2-3.2,45.3q-2.1,45.45-.4,90.9c.1,2.2.1,4.2.1,6.1v.3c.2,15.2-2,20.4-10.3,20.8-9.1.3-11.8-8.1-13.4-14.8l-1.1-4.4c-3.6-17.7-6.6-35.6-9.1-53L303.7,501c-3-18-5-29.9-6.8-45.9-.4-3.1-1.4-8.8-5.6-10.7-2.1-1-6-1.9-12.5,1.7h0a4.872,4.872,0,0,1-.7.3c-9.8,6.4-14.4,15.2-14.3,26.8.3,13.6,1.4,29.9,3,43.4a720.351,720.351,0,0,0,12.9,77.3c.2.8.3,1.6.5,2.4,1.3,7.3,1,12.6-2.1,15a7.959,7.959,0,0,1-7.2.7c-5.3-1.8-10.2-11.2-12.2-15.9l-.5-1c-8-18.9-14.3-40-20-60.9l-.4-1.5s-1.2-4.1-4.6-4.8c-3.1-.6-6.3-.2-11.4,5.8-7.1,8.9-1.4,30.5,1,42.8,12.2,62.8,62.4,160.8,155.2,198,71.5,28.6,115.9-7.8,205.9-86.7,7.3-6.4,15.7-16.9,17.8-26.9C602.6,655.9,601.9,652.2,598.1,646.8Z" fill="#fff"/><path d="M792.7,413.4c-27.6-82-74.5-118.5-82.5-124.7-2.8-2.2-18.1-14.5-26.9-16.6a28.527,28.527,0,0,0-7.1-1.2H675a6.992,6.992,0,0,0-4.2,1.1c-1.1.9-.9,2.5-.9,3,.2,3.1,4.3,8.3,10.5,14.3,13,12.6,32.3,33.6,38.9,42.9,4,5.6,6.1,12.8-.3,16.7-1.4.8-4.1,1.8-8-.3h-.1l-.2-.1h.1a36.262,36.262,0,0,1-8.2-6.4c-19.6-19.1-65.2-58.4-93-76.9-12.7-8.5-23.5-9.5-33.8-7.4l-1.8.6a6.941,6.941,0,0,0-1.3.5,12.808,12.808,0,0,0-2,1.1c-.1.1-.3.1-.4.2a3.044,3.044,0,0,0-.8.8,7.767,7.767,0,0,0-2.1,3.3c-.6,1.9-.5,5.8,3.2,9.1,12.3,10.9,72.1,63.4,82.3,75,9.7,11,9.8,16.9,6.1,20.7-5.4,5.5-14,.3-16.3-1.1a2.092,2.092,0,0,1,.6.4,68.517,68.517,0,0,1-7-5c-29.2-23.8-94.3-65.7-109.6-73.3-16.7-8.4-22.7-11-37.6-3a8.636,8.636,0,0,0-1.6,1c-6,4-8.2,7.6-8.7,11.8-.5,3.5.6,9,8.3,14.2,63.3,42.8,76.9,50,127.1,88,3.9,2.9,12.8,11.1,4.7,19.2-1.5,1.5-4.2,2.5-8,2.1a9.853,9.853,0,0,1-1.7-.2l-.9-.1c.3.1.5,0,.8.1-4.7-.9-10.2-3.8-15.3-6.9-27.5-16.5-75.4-41.3-100.7-50.9-17.5-6.7-28.2.1-34.9,8.9-5,7.1-6.4,15.5-5.1,20.8,1.6,6.7,8.3,11,12.8,13.6,35.6,20.7,63.1,32.8,98.1,54.5,11.1,6.7,12.9,7.6,23.7,14.8,12.3,8.3,31.3,20.3,36,35.9v-.2a32,32,0,0,1,1.6,10.2c-.1,7.1-2.1,14.1-11.8,20.7-17.1,11.7-47.5,8.2-74.2,6.4-5.6-.4-15.3-1-21.1-1.1-13.9-.1-21.4,3.4-25.6,9.9-3.8,5.9-4.1,16-4.1,21.1a35.325,35.325,0,0,0,.5,5.1,13.11,13.11,0,0,0,2.1,6c.1.1.2.3.4.5,6.3,8,18.6,10.5,32.6,12.1,24.8,1.5,51,1.9,81.3,2.5,70.9,1.4,151.4-3,182.9-46.1C810.6,529.9,809.1,461.1,792.7,413.4Z" fill="#fff"/><path d="M572.5,258.8a12.808,12.808,0,0,0-2,1.1A19.836,19.836,0,0,1,572.5,258.8Z" fill="#959595"/><path d="M339.2,562.9Z" fill="#959595"/><path d="M674.9,270.9Z" fill="#959595"/><path d="M710.9,348.5Z" fill="#959595"/><path d="M454.5,644c.1-1.1.2-2.3.3-3.4,0-.5.1-1.1.1-1.7a1.268,1.268,0,0,1,.1-.6c.2-2.4.5-4.8.9-7.4C455.2,635.2,454.8,639.6,454.5,644Z" fill="#959595"/><path d="M569.3,260.9a6.035,6.035,0,0,0,.8-.8Z" fill="#959595"/><path d="M610.7,423.2l-.4-.1a5.019,5.019,0,0,1-1.2-.2A4.145,4.145,0,0,0,610.7,423.2Z" fill="#959595"/><path d="M410.9,574.8l.1-.4Z" fill="#959595"/><path d="M338.8,570.2V570C338.9,570,338.8,570.1,338.8,570.2Z" fill="#959595"/><path d="M366.2,394.6c-.2,0-.3.1-.5.1a21.494,21.494,0,0,1,3.4-.5A14.454,14.454,0,0,0,366.2,394.6Z" fill="#959595"/><path d="M602.3,656.7v.7A1.634,1.634,0,0,1,602.3,656.7Z" fill="#959595"/><path d="M602,659.7Z" fill="#959595"/><path d="M339.1,566.9c0-.9.1-1.9.1-2.9C339.2,565,339.1,566,339.1,566.9Z" fill="#959595"/><path d="M601.7,651.5v0Z" fill="#959595"/><path d="M602.2,653.8c0,.4.1.7.1,1.1A4.1,4.1,0,0,1,602.2,653.8Z" fill="#959595"/><path d="M612.1,423.2h0Z" fill="#959595"/><path d="M482.5,291.8l.5-.5Z" fill="#959595"/><path d="M488.9,589Z" fill="#959595"/><path d="M483.5,290.8c1.2-1,2.5-1.9,3.8-2.8C486,288.9,484.7,289.8,483.5,290.8Z" fill="#959595"/><path d="M490,591.1c.2.3.5.7.7,1l-.1-.1A2.362,2.362,0,0,0,490,591.1Z" fill="#959595"/><path d="M455,638.3a1.268,1.268,0,0,1-.1.6A1.268,1.268,0,0,0,455,638.3Z" fill="#959595"/><path d="M455,638.9c0,.5-.1,1.1-.1,1.7A9.149,9.149,0,0,1,455,638.9Z" fill="#959595"/><path d="M455.9,630.9c-.4,2.5-.7,5-.9,7.4.3-2.6.6-5.1.9-7.4v-.4C456,630.6,456,630.7,455.9,630.9Z" fill="#959595"/><path d="M490.8,592.1a1.382,1.382,0,0,0,.3.4l-.1-.1c-.1-.1-.2-.3-.4-.5Z" fill="#959595"/><path d="M609,423c.4.1.8.1,1.2.2a5.852,5.852,0,0,1-1.3-.2,2.2,2.2,0,0,1-.8-.1Z" fill="#959595"/></g></svg>