<svg xmlns="http://www.w3.org/2000/svg" xmlns:xlink="http://www.w3.org/1999/xlink" width="1024" height="1024" viewBox="0 0 1024 1024"><defs><clipPath id="b"><rect width="1024" height="1024"/></clipPath></defs><g id="a" clip-path="url(#b)"><circle cx="512" cy="512" r="512" fill="#d9e0e7"/><path d="M265.7,385.5a209.321,209.321,0,0,1,15.5-27.2,274.267,274.267,0,0,1,31-39.4,292.806,292.806,0,0,1,42.9-37.3,277.823,277.823,0,0,1,78.4-39,272.806,272.806,0,0,1,60.7-11.8,296.855,296.855,0,0,1,71.7,2.9,257.538,257.538,0,0,1,36.7,8.7A265.959,265.959,0,0,1,679.3,281a243.737,243.737,0,0,1,26.6,21.9l-79.3,79.2c-3-2.5-6.3-5.4-9.7-8.2a147.222,147.222,0,0,0-53.5-27.8,167.034,167.034,0,0,0-81.6-2.3,156.02,156.02,0,0,0-35,12.1,173.15,173.15,0,0,0-69.9,61.8,162.2,162.2,0,0,0-18.3,37.4,7,7,0,0,1-.9,1.7c-3.5-2.7-7.3-5.2-10.7-8-8.3-6.9-16.9-13.2-25.3-19.9-10.8-8.6-21.7-16.9-32.6-25.3C281.4,397.6,273.6,391.5,265.7,385.5Z" fill="#fff"/><path d="M704.3,726.3a217.147,217.147,0,0,1-34.5,26.6,253.268,253.268,0,0,1-72.6,31.4A313.615,313.615,0,0,1,468.9,790a277.679,277.679,0,0,1-70.6-22.3,287.085,287.085,0,0,1-47.2-27.9,278.361,278.361,0,0,1-45.3-41.5,285.18,285.18,0,0,1-40.3-59.4c.2-1,1.2-1.4,1.9-1.9,6.1-4.7,12.4-9.3,18.5-14.2,13.1-10.4,26.4-20.6,39.7-30.8,10.8-8.3,21.4-16.8,32.1-25.2,2.3,5.2,4.1,10.5,6.4,15.7a173.716,173.716,0,0,0,79.7,83.7,158.564,158.564,0,0,0,50.7,15.9,185.968,185.968,0,0,0,62.7-2.2,160.944,160.944,0,0,0,45.7-16.3c4.3-2.3,8.1-5.3,12.5-7.3a3.681,3.681,0,0,0,2.1,2.3c6.2,3.7,10.9,9.2,17,13.1,3.6,2.3,6.7,5.5,10.1,8.1s6.9,4.9,10.2,7.6c4.5,3.6,9.2,6.9,13.7,10.4s9.5,6.8,13.9,10.8a101.623,101.623,0,0,0,9.8,7.5c.9.7,1.3,1.7,2.3,2.4C697.8,721.1,701.6,723,704.3,726.3Z" fill="#fff"/><path d="M704.3,726.3c-2.7-3.3-6.6-5.2-9.9-7.7-1-.7-1.4-1.7-2.3-2.4a101.615,101.615,0,0,1-9.8-7.5c-4.3-4-9.3-7.2-13.9-10.8s-9.2-6.9-13.7-10.4c-3.3-2.7-6.9-5-10.2-7.6s-6.5-5.8-10.1-8.1c-6-3.9-10.8-9.4-17-13.1a4.29,4.29,0,0,1-2.1-2.3c8.1-6,16-12.3,22.9-19.8a132.066,132.066,0,0,0,33-65.8v-1.6h-153a4.827,4.827,0,0,1-.6-3.2c0-34.5,0-69.1-.1-103.6,0-3,1-3.4,3.6-3.4q129.45.15,259,0H783a156.868,156.868,0,0,1,2.9,18,325.364,325.364,0,0,1,2.6,47.3c-.9,42.7-8.8,83.8-26.8,122.8a247.827,247.827,0,0,1-56.5,78.4A8.187,8.187,0,0,1,704.3,726.3Z" fill="#fff"/><path d="M357.8,567c-10.7,8.4-21.3,16.9-32.1,25.2-13.3,10.2-26.6,20.4-39.7,30.8-6.1,4.8-12.3,9.4-18.5,14.2-.7.5-1.7.9-1.9,1.9a212.76,212.76,0,0,1-11.7-26.3,201.346,201.346,0,0,1-7.6-23.1c-1.3-5-2.9-9.9-4-15-1-4.3-1.7-8.7-2.5-13.1-1-5-1.7-10.1-2.2-15.2-.1-3.5.6-7.1-1.1-10.5a210.646,210.646,0,0,1-1-34.6c.4-9.2,1-18.5,2.3-27.6a263.423,263.423,0,0,1,6-30.4,277.785,277.785,0,0,1,8.7-28.6c3.8-10,7.6-20.1,13.1-29.3,7.9,6,15.7,12.1,23.6,18.1,10.9,8.4,21.8,16.8,32.6,25.3,8.4,6.7,17,13,25.3,19.9,3.4,2.8,7.1,5.3,10.7,8-.3,3.6-2,6.8-2.7,10.2-.8,3.7-2,7.3-2.8,11a178.939,178.939,0,0,0-3.1,23,107.92,107.92,0,0,0,.3,24.1c.5,3.3.6,6.7,1,10.1a128.986,128.986,0,0,0,3.4,17.3C355.3,557.4,356.5,562.2,357.8,567Z" fill="#fff"/><path d="M236.5,536.1c1.7,3.3.9,6.9,1.1,10.5C235.9,543.2,236.6,539.6,236.5,536.1Z" fill="#fff"/></g></svg>