<svg xmlns="http://www.w3.org/2000/svg" xmlns:xlink="http://www.w3.org/1999/xlink" width="1024" height="1024" viewBox="0 0 1024 1024"><defs><clipPath id="b"><rect width="1024" height="1024"/></clipPath></defs><g id="a" clip-path="url(#b)"><g transform="translate(-0.5)"><circle cx="512" cy="512" r="512" transform="translate(0.5)" fill="#d9e0e7"/><path d="M128.1,492.2a76.339,76.339,0,0,1,14.1-1.2c7.7,0,12.7,1.3,16.4,4.3a12.457,12.457,0,0,1,5,10.5c0,5.8-3.8,10.8-10.1,13.1v.2c5.7,1.4,12.3,6.1,12.3,15a15.993,15.993,0,0,1-5,11.9c-4.2,3.8-10.9,5.6-20.6,5.6a99.081,99.081,0,0,1-11.9-.7V492.2h-.2Zm7.7,24.5h7c8.1,0,12.9-4.2,12.9-10,0-7-5.3-9.7-13.1-9.7a39.528,39.528,0,0,0-6.8.5v19.2Zm0,28.6a36.538,36.538,0,0,0,6.5.4c8,0,15.3-2.9,15.3-11.6,0-8.1-7-11.5-15.4-11.5h-6.4v22.7Z" fill="#fff"/><path d="M188.5,492.2a80.524,80.524,0,0,1,14.8-1.2c8.2,0,13.5,1.5,17.3,4.9a14.9,14.9,0,0,1,4.7,11.3c0,7.9-5,13.1-11.2,15.2v.3c4.6,1.6,7.3,5.8,8.8,12,1.9,8.3,3.4,14.1,4.6,16.4h-8c-1-1.7-2.3-6.8-4-14.2-1.8-8.2-5-11.3-11.9-11.6h-7.3v25.8h-7.7V492.2h-.1Zm7.7,27.2h7.9c8.2,0,13.5-4.5,13.5-11.3,0-7.7-5.6-11.1-13.7-11.2a34.73,34.73,0,0,0-7.6.7l-.1,21.8Z" fill="#fff"/><path d="M299.7,520.7c0,20.5-12.5,31.4-27.7,31.4-15.8,0-26.8-12.2-26.8-30.3,0-18.9,11.8-31.3,27.7-31.3C289.2,490.5,299.7,503,299.7,520.7Zm-46.3.9c0,12.7,6.9,24.2,19,24.2,12.2,0,19.1-11.2,19.1-24.8,0-11.9-6.2-24.2-19-24.2C259.8,496.8,253.4,508.5,253.4,521.6Z" fill="#fff"/><path d="M331.8,551.1l-15.1-59.6h8.1l7.1,30.2c1.8,7.4,3.4,14.9,4.4,20.6h.2c1-5.9,2.8-13,4.9-20.7l8-30.1h8.1l7.3,30.3c1.7,7.1,3.3,14.2,4.2,20.4h.2c1.2-6.5,2.9-13.2,4.8-20.6l7.9-30.1h7.9l-16.9,59.6h-8.1L357.3,520a171.708,171.708,0,0,1-3.9-19.5H353c-1.1,5.9-2.4,11.8-4.6,19.5l-8.5,31.1Z" fill="#fff"/><path d="M409.4,551.1V491.5h8.4l19.1,30.2a169.022,169.022,0,0,1,10.7,19.4l.2-.1c-.7-8-.9-15.2-.9-24.5v-25h7.3v59.6h-7.8l-18.9-30.3a202.04,202.04,0,0,1-11.2-19.9l-.3.1c.4,7.5.6,14.7.6,24.6v25.5Z" fill="#fff"/><path d="M511.8,518.7a16.246,16.246,0,0,0,6.5-12.9c0-5.5-2.1-9.9-6-12.8-4.3-3.5-9.9-5-18.2-5a78.705,78.705,0,0,0-14.7,1.3l-2.3.5v63.6l2.5.4a90.525,90.525,0,0,0,12.3.7c10.7,0,17.9-2,22.7-6.4a19.1,19.1,0,0,0,5.9-14.1A17.282,17.282,0,0,0,511.8,518.7Zm-7.2-12c0,4.3-3.8,7.1-10,7.1h-4V500c1.1-.1,2.4-.1,3.9-.1C504.6,499.9,504.6,504.8,504.6,506.7Zm-14,18.8H494c4.6,0,12.4,1.1,12.4,8.6,0,7.1-6.7,8.6-12.4,8.6-1,0-2.3,0-3.5-.1V525.5Z" fill="#fff"/><path d="M566.3,487.5c-18,0-30.6,14.1-30.6,34.3,0,19.6,12.2,33.2,29.8,33.2,15.3,0,30.6-10.6,30.6-34.4C596,501.1,583.8,487.5,566.3,487.5ZM582,521c0,10.9-5,21.8-16.2,21.8-11,0-16.1-11-16.1-21.2,0-10.1,4.2-21.9,16.2-21.9C577,499.7,582,510.7,582,521Z" fill="#fff"/><path d="M641.4,487.5c-18,0-30.6,14.1-30.6,34.3,0,19.6,12.2,33.2,29.8,33.2,15.3,0,30.6-10.6,30.6-34.4C671.2,501.1,658.9,487.5,641.4,487.5ZM657.1,521c0,10.9-5,21.8-16.2,21.8-11,0-16.1-11-16.1-21.2,0-10.1,4.2-21.9,16.2-21.9C652.1,499.7,657.1,510.7,657.1,521Z" fill="#fff"/><path d="M714.9,517l24.3-28.5H721.9L703,511.6V488.5H689.4V554H703V529.4l2.4-2.7L723.8,554h16.3Z" fill="#fff"/><path d="M753.9,546.5c0-3.3,2.2-5.6,5.3-5.6s5.2,2.3,5.2,5.6c0,3.2-2,5.6-5.3,5.6C756,552.1,753.9,549.7,753.9,546.5Z" fill="#fff"/><path d="M786.7,527.1c0-3.4-.1-6.2-.3-8.9h5.3l.3,5.4h.1a12.086,12.086,0,0,1,10.9-6.2c4.5,0,11.6,2.7,11.6,14V551h-6V532.1c0-5.3-2-9.7-7.6-9.7a8.516,8.516,0,0,0-8,6.1,7.885,7.885,0,0,0-.4,2.8V551h-6V527.1Z" fill="#fff"/><path d="M838.5,535.8c.1,8.1,5.3,11.4,11.3,11.4a20.656,20.656,0,0,0,9.1-1.7l1,4.3a25.842,25.842,0,0,1-10.9,2c-10.1,0-16.1-6.6-16.1-16.6,0-9.9,5.8-17.7,15.4-17.7,10.7,0,13.6,9.4,13.6,15.5a18,18,0,0,1-.2,2.8Zm17.6-4.3c.1-3.8-1.6-9.7-8.3-9.7-6,0-8.7,5.6-9.2,9.7Z" fill="#fff"/><path d="M887.3,508.8v9.4h8.5v4.5h-8.5v17.7c0,4.1,1.2,6.4,4.5,6.4a13.957,13.957,0,0,0,3.5-.4l.3,4.5a14.378,14.378,0,0,1-5.3.8,8.2,8.2,0,0,1-6.4-2.5c-1.7-1.8-2.3-4.7-2.3-8.5V522.8h-5.1v-4.5h5.1v-7.9Z" fill="#fff"/></g></g></svg>