<svg xmlns="http://www.w3.org/2000/svg" xmlns:xlink="http://www.w3.org/1999/xlink" width="1024" height="1024" viewBox="0 0 1024 1024"><defs><clipPath id="b"><rect width="1024" height="1024"/></clipPath></defs><g id="a" clip-path="url(#b)"><circle cx="512" cy="512" r="512" fill="#d9e0e7"/><path d="M214.3,504h41.9l-12.8,60.2a106.01,106.01,0,0,1-17.9,4.8,115.357,115.357,0,0,1-19.5,1.5c-14.2,0-25.3-4-33.1-11.9-7.9-8-11.8-19.2-11.8-33.8a91.713,91.713,0,0,1,8.4-39.5c5.6-11.9,13.5-21.2,23.7-27.8s21.9-9.9,34.9-9.9a88.53,88.53,0,0,1,17.4,1.7,69.491,69.491,0,0,1,16.8,5.7l-7.4,16.6c-9.5-4.7-18.6-7-27.3-7a40.447,40.447,0,0,0-23.5,7.4c-7,4.9-12.6,12-16.7,21.1a73.525,73.525,0,0,0-6.1,30.5c0,10,2.4,17.5,7.3,22.7,4.9,5.1,11.8,7.7,20.7,7.7a59.232,59.232,0,0,0,17.6-2.7l6.5-30.4H210.7Z" fill="#fff"/><path d="M348.9,512.3a73.877,73.877,0,0,1-6,30.1c-4,9-9.5,16-16.4,20.8a41.422,41.422,0,0,1-24,7.2c-10.5,0-18.8-3.1-25-9.4s-9.2-14.7-9.2-25.5a74.9,74.9,0,0,1,5.9-29.9,49.736,49.736,0,0,1,16.4-21.2,41.113,41.113,0,0,1,24.4-7.6c10.6,0,19,3.2,25,9.5C345.9,492.8,348.9,501.4,348.9,512.3Zm-19.4-.8c0-5.8-1.3-10.4-4-13.7s-6.5-5-11.5-5c-5.1,0-9.6,2-13.6,5.9s-7.1,9.2-9.3,15.9a68.021,68.021,0,0,0-3.3,21.4c0,6.1,1.4,10.7,4.1,13.9s6.7,4.8,12,4.8c4.9,0,9.3-1.9,13.3-5.6,3.9-3.7,7-8.9,9.2-15.6A76.43,76.43,0,0,0,329.5,511.5Z" fill="#fff"/><path d="M390.4,504l35.3-54.7h21.8l-51,74.7-9.3,44.9H367.7l9.7-45.3L358,449.3h19.8Z" fill="#fff"/><path d="M460.1,570.6c-10.7,0-19.1-3-25.2-9.1-6-6.1-9-14.5-9-25.4a72.623,72.623,0,0,1,6.3-30.2c4.2-9.3,10-16.5,17.2-21.6a40.992,40.992,0,0,1,24.3-7.6c8.8,0,15.6,2,20.5,5.9,4.9,4,7.3,9.6,7.3,16.8,0,9.9-4.5,17.7-13.6,23.3s-22,8.4-38.8,8.4h-3.5l-.2,2.5V536c0,6.1,1.5,10.8,4.6,14.2s7.7,5.2,13.8,5.2a42.853,42.853,0,0,0,11.7-1.6,76.9,76.9,0,0,0,13.7-5.3v15.3a76.2,76.2,0,0,1-14.4,5.1A60.557,60.557,0,0,1,460.1,570.6Zm12.4-79.1c-5.2,0-10.2,2.3-14.8,7s-7.9,10.9-9.9,18.6h2.4c10.3,0,18.3-1.5,24.1-4.4s8.7-7,8.7-12.4a8.285,8.285,0,0,0-2.6-6.5C478.6,492.3,476,491.5,472.5,491.5Z" fill="#fff"/><path d="M518.6,568.9H499.5l27-127.3h19.2Z" fill="#fff"/><path d="M554.1,568.9H535l27-127.3h19.2Z" fill="#fff"/><path d="M658.3,512.3a73.877,73.877,0,0,1-6,30.1c-4,9-9.5,16-16.4,20.8a41.422,41.422,0,0,1-24,7.2c-10.5,0-18.8-3.1-25-9.4-6.2-6.2-9.2-14.7-9.2-25.5a74.9,74.9,0,0,1,5.9-29.9A49.736,49.736,0,0,1,600,484.4a41.113,41.113,0,0,1,24.4-7.6c10.6,0,19,3.2,25,9.5C655.3,492.8,658.3,501.4,658.3,512.3Zm-19.4-.8c0-5.8-1.3-10.4-4-13.7s-6.5-5-11.5-5c-5.1,0-9.6,2-13.6,5.9s-7.1,9.2-9.3,15.9a68.02,68.02,0,0,0-3.3,21.4c0,6.1,1.4,10.7,4.1,13.9s6.7,4.8,12,4.8c4.9,0,9.3-1.9,13.3-5.6,3.9-3.7,7-8.9,9.2-15.6A76.431,76.431,0,0,0,638.9,511.5Z" fill="#fff"/><path d="M727.9,568.9l-1.6-51.3-.1-5.7.2-16.4-4.2,10.2c-1.4,3.4-10.9,24.5-28.3,63.2H672.5l-3.8-90.5h18.1l1.1,52.9c-.1,4.7-.4,11.4-.9,20h.5c3.6-9.6,6.6-17,8.9-22.3l22.7-50.6h20.8l1.6,49.4.1,4.3-.2,19.1h.5c.9-2.7,2.5-7.1,4.7-13s3.9-10.4,5.2-13.4,8.1-18.5,20.6-46.6h20L750,568.7H727.9Z" fill="#fff"/><path d="M768.9,565.2a7.342,7.342,0,0,1,1.9-5.3,6.852,6.852,0,0,1,5.2-2,5.219,5.219,0,0,1,3.6,1.2,4.778,4.778,0,0,1,1.3,3.7,6.864,6.864,0,0,1-1.9,5.1,6.273,6.273,0,0,1-4.9,2,5.3,5.3,0,0,1-3.9-1.4A4.156,4.156,0,0,1,768.9,565.2Z" fill="#fff"/><path d="M815.5,524.2c4.7,0,8.3,2.4,10.6,7.1h.3a57.79,57.79,0,0,1,1.5-9.9l3-14.2h9.2L827,568.9h-7.3l.8-7h-.3a25.413,25.413,0,0,1-6.7,6,14.215,14.215,0,0,1-6.9,1.8,10.755,10.755,0,0,1-8.9-4c-2.1-2.7-3.2-6.5-3.2-11.4a40.27,40.27,0,0,1,2.8-15.2c1.9-4.7,4.4-8.4,7.6-10.9A17.245,17.245,0,0,1,815.5,524.2Zm-5.3,38c2.2,0,4.3-1.1,6.4-3.3a24.362,24.362,0,0,0,5.1-8.5,30.04,30.04,0,0,0,1.9-10.6,9.507,9.507,0,0,0-1.7-5.8c-1.1-1.5-2.9-2.2-5.3-2.2a8.49,8.49,0,0,0-6.3,3.1,21.028,21.028,0,0,0-4.7,8.4,33.4,33.4,0,0,0-1.7,10.8Q804.05,562.2,810.2,562.2Z" fill="#fff"/><path d="M853.5,569.7c-5.2,0-9.3-1.5-12.2-4.4s-4.4-7-4.4-12.3a34.167,34.167,0,0,1,3.1-14.6,25.128,25.128,0,0,1,8.3-10.5,19.7,19.7,0,0,1,11.8-3.7c4.3,0,7.6,1,9.9,2.9,2.4,1.9,3.5,4.6,3.5,8.2,0,4.8-2.2,8.6-6.6,11.3s-10.7,4.1-18.8,4.1h-1.7l-.1,1.2V553a10.038,10.038,0,0,0,2.2,6.9c1.5,1.7,3.7,2.5,6.7,2.5a22.394,22.394,0,0,0,5.7-.8,42.808,42.808,0,0,0,6.7-2.6v7.4a35.065,35.065,0,0,1-7,2.5A25.7,25.7,0,0,1,853.5,569.7Zm6.1-38.3c-2.5,0-4.9,1.1-7.2,3.4a20.465,20.465,0,0,0-4.8,9h1.2q7.5,0,11.7-2.1t4.2-6a4.08,4.08,0,0,0-1.3-3.2A6.132,6.132,0,0,0,859.6,531.4Z" fill="#fff"/></g></svg>