<svg xmlns="http://www.w3.org/2000/svg" width="40" height="40" viewBox="0 0 40 40">
  <g id="Gruppe_15839" data-name="Gruppe 15839" transform="translate(15592 20188)">
    <g id="Gruppe_15823" data-name="Gruppe 15823" transform="translate(-4 -61)">
      <circle id="XMLID_4_" cx="20" cy="20" r="20" transform="translate(-15588 -20127)" fill="#d9e0e7"/>
      <path id="Pfad_14248" data-name="Pfad 14248" d="M5.042,20.644V10.032l3.322.614L9.558,8.4s8.542-.465,9.853,4.182a2.37,2.37,0,0,1,3.1-1.267,7.721,7.721,0,0,1,3.147,1.634l.465,1.5,1.136.378v5.816h-.378v-5.3l-.6-.2.247.773v4.723h-.378V16.167L25.644,14.3v6.342h-.4V13.31a9.485,9.485,0,0,0-2.741-1.3c-.922-.149-2.022-.192-2.516,1.035a2.878,2.878,0,0,0-.2,1.064v6.531h-.672V14.291a4.661,4.661,0,0,0-.962-2.726c-1.078-1.387-4.051-2-7.565-2V20.644H9.66V10.588L8.291,12.933v7.711H7.242V12.57l.541-.977L6.15,11.317v9.33S5.013,20.644,5.042,20.644Z" transform="translate(-15584.042 -20122.389)" fill="#fff"/>
    </g>
  </g>
</svg>
