<?xml version="1.0" encoding="utf-8"?>
<!-- Generator: Adobe Illustrator 19.2.1, SVG Export Plug-In . SVG Version: 6.00 Build 0)  -->
<svg version="1.1" id="Layer_1" xmlns="http://www.w3.org/2000/svg" xmlns:xlink="http://www.w3.org/1999/xlink" x="0px" y="0px"
	 viewBox="0 0 1024 1024" enable-background="new 0 0 1024 1024" xml:space="preserve">
<circle id="XMLID_1_" fill="#45A046" cx="512" cy="512" r="512"/>
<g id="XMLID_17_">
	<path id="XMLID_18_" fill="#FFFFFF" d="M286.2,406c-4.3-0.8-9.3-1.4-15-1.9c-5.6-0.5-11.9-0.7-18.9-0.7c-19.3,0-33.7,4.5-43.2,13.4
		c-9.5,9-14.3,22.4-14.3,40.3v4h-20V493h20v114.3h47V493h34.5v-31.8h-36.1V460c0-9.5,1.6-15.9,4.9-19.2c3.2-3.3,9.4-5,18.6-5
		c3.8,0,7.4,0.4,10.7,1.2c3.3,0.8,6,1.5,8.1,2.1h3.5V406L286.2,406z M410,461.2c-1.6-0.2-3.4-0.3-5.5-0.4c-2.1-0.1-3.9-0.1-5.6-0.1
		c-6.4,0-13.4,1.5-21.1,4.4c-7.6,2.9-16.6,8.8-26.9,17.6v-21.5h-47v146.1h47v-97.9c5.9-2.1,11.4-3.6,16.5-4.4
		c5.1-0.9,11-1.3,17.7-1.3c2.9,0,6.6,0.2,11.1,0.5c4.4,0.3,7.6,0.9,9.6,1.6h4.2V461.2L410,461.2z M580.3,526.5
		c0-22.5-6-39.8-18-51.8c-12-12-29.8-18-53.6-18c-25.8,0-46,7.1-60.8,21.2c-14.8,14.1-22.2,33.2-22.2,57.3
		c0,24.4,7.8,43.2,23.4,56.4c15.6,13.2,38.1,19.8,67.4,19.8c11.4,0,21.7-1,31.1-2.9c9.4-1.9,19.3-5,29.9-9.3v-37.7h-5.2
		c-5.4,4.1-12.7,7.9-22,11.5c-9.3,3.6-18.9,5.3-28.7,5.3c-15.6,0-27.4-3-35.5-9.1c-8-6.1-12.4-14.8-13.1-26.3h107.2V526.5
		L580.3,526.5z M473,515.5c0.7-10.3,3.9-17.8,9.7-22.5c5.8-4.7,13.2-7,22.2-7c9.7,0,16.8,2.5,21.4,7.4c4.6,4.9,7,12.3,7.3,22.1H473
		L473,515.5z M660.5,461.2h-47v146.1h47V461.2L660.5,461.2z M661.9,404.8h-49.8v35.6h49.8V404.8L661.9,404.8z M848.4,526.5
		c0-22.5-6-39.8-18-51.8c-12-12-29.8-18-53.6-18c-25.8,0-46.1,7.1-60.8,21.2c-14.8,14.1-22.2,33.2-22.2,57.3
		c0,24.4,7.8,43.2,23.4,56.4c15.6,13.2,38.1,19.8,67.4,19.8c11.4,0,21.7-1,31.1-2.9c9.4-1.9,19.3-5,29.9-9.3v-37.7h-5.2
		c-5.4,4.1-12.7,7.9-22,11.5c-9.3,3.6-18.9,5.3-28.7,5.3c-15.6,0-27.4-3-35.5-9.1c-8-6.1-12.4-14.8-13.1-26.3h107.2V526.5
		L848.4,526.5z M741.1,515.5c0.7-10.3,3.9-17.8,9.7-22.5c5.8-4.7,13.2-7,22.2-7c9.7,0,16.8,2.5,21.4,7.4c4.6,4.9,7,12.3,7.3,22.1
		H741.1L741.1,515.5z"/>
</g>
</svg>
