<svg xmlns="http://www.w3.org/2000/svg" xmlns:xlink="http://www.w3.org/1999/xlink" width="40" height="40" viewBox="0 0 40 40">
  <defs>
    <clipPath id="clip-path">
      <rect id="Rechteck_11385" data-name="Rechteck 11385" width="40" height="40" transform="translate(-0.22)" fill="#f0f2f4"/>
    </clipPath>
  </defs>
  <g id="Gruppe_15842" data-name="Gruppe 15842" transform="translate(15592 20359)">
    <g id="Gruppe_15826" data-name="Gruppe 15826" transform="translate(-15591.78 -20359)">
      <g id="Gruppe_15817" data-name="Gruppe 15817" clip-path="url(#clip-path)">
        <path id="Pfad_14249" data-name="Pfad 14249" d="M19.89,0A19.89,19.89,0,1,1,0,19.89,19.89,19.89,0,0,1,19.89,0" fill="#d9e0e7"/>
        <path id="Pfad_14250" data-name="Pfad 14250" d="M528.647,409.53a2.009,2.009,0,0,1-1.282-1.437,5.984,5.984,0,0,1,.151-3.854,2.17,2.17,0,0,1,.524-.8,1.73,1.73,0,0,1,1.826-.408c.062.019.128.043.21.07v-2.991c0-.19.016-.2.21-.206h.579c.183,0,.19.008.194.186v9.2c0,.085-.039.136-.132.128h-.012a1.016,1.016,0,0,1-.423-.019c-.113-.054-.179-.21-.253-.3-.241.144-.486.288-.73.431-.288,0-.575,0-.862,0m1.434-3.259c0-.676-.012-1.356.008-2.032a.377.377,0,0,0-.268-.416,1.835,1.835,0,0,0-.186-.07.765.765,0,0,0-.932.315,1.982,1.982,0,0,0-.264.509,5.689,5.689,0,0,0-.1,3.143,2.322,2.322,0,0,0,.117.326,1.018,1.018,0,0,0,1.5.571.2.2,0,0,0,.136-.21c-.008-.711,0-1.422,0-2.137" transform="translate(-506.64 -384.365)" fill="#fff"/>
        <path id="Pfad_14251" data-name="Pfad 14251" d="M169.621,376.1c.085.066.043.144.016.218q-.542,1.474-1.084,2.952-.658,1.806-1.313,3.609a.687.687,0,0,0-.043.233c0,1.076,0,2.152,0,3.232,0,.194,0,.194-.2.194s-.4-.008-.606,0c-.128,0-.175-.039-.171-.167,0-.4,0-.8,0-1.2V383.1a.684.684,0,0,0-.043-.249q-1.061-2.78-2.125-5.559a1.089,1.089,0,0,0-.058-.117V377.1a.667.667,0,0,1,.186-.051c.225-.008.447,0,.672,0s.221,0,.3.21q.793,2.226,1.581,4.456c.016.043.035.082.066.159.027-.085.043-.132.054-.179.1-.381.19-.765.311-1.138.458-1.434.925-2.863,1.387-4.293a.734.734,0,0,1,.1-.151c.322-.008.645-.008.967-.008" transform="translate(-157.629 -361.489)" fill="#fff"/>
        <path id="Pfad_14252" data-name="Pfad 14252" d="M288.388,484.2a2.271,2.271,0,0,1-1.173-2.362,2.843,2.843,0,0,1,.245-.96,1.615,1.615,0,0,1,2.218-.855c.043.019.089.039.155.066a2.647,2.647,0,0,0-.256-1.391.586.586,0,0,0-.761-.272,4.975,4.975,0,0,0-.61.307c-.183.1-.218.1-.307-.089-.082-.171-.159-.342-.241-.513-.043-.085-.039-.159.058-.2a3.087,3.087,0,0,1,1.775-.307,1.409,1.409,0,0,1,1.177,1.181,6.9,6.9,0,0,1,.136,1.294c.019,1.274.008,2.548.008,3.823,0,.124-.039.163-.167.179-.334.043-.563-.047-.625-.408a.541.541,0,0,0-.035-.07,1.9,1.9,0,0,1-.812.579ZM289.833,482v-.765c0-.357-.027-.4-.365-.517a.78.78,0,0,0-.089-.027.7.7,0,0,0-.971.458,2.331,2.331,0,0,0-.012,1.721.756.756,0,0,0,.563.528.919.919,0,0,0,.781-.241.274.274,0,0,0,.089-.187c.008-.322,0-.649,0-.971" transform="translate(-276.046 -459.03)" fill="#fff"/>
        <path id="Pfad_14253" data-name="Pfad 14253" d="M655.235,484.6a2.108,2.108,0,0,1-1.418-1.344,3.281,3.281,0,0,1-.206-.734,6.118,6.118,0,0,1,.334-3.275,2.194,2.194,0,0,1,.594-.87,1.35,1.35,0,0,1,2.071.253,3.02,3.02,0,0,1,.462,1.208,8.3,8.3,0,0,1,.1,1.667h-2.58a3.955,3.955,0,0,0,.008.641,3.883,3.883,0,0,0,.233.862,1.186,1.186,0,0,0,1.239.738,6.548,6.548,0,0,0,.719-.1c.113-.023.171,0,.19.117a1.823,1.823,0,0,0,.07.288.157.157,0,0,1-.109.229l-.893.326Zm.921-3.877a.336.336,0,0,0,.008-.089c-.031-.326-.051-.653-.1-.975a1.422,1.422,0,0,0-.28-.691.435.435,0,0,0-.688-.035.827.827,0,0,0-.19.288,8.634,8.634,0,0,0-.233.893,6.569,6.569,0,0,0-.074.664c.528-.012,1.037-.031,1.554-.054" transform="translate(-628.139 -459.435)" fill="#fff"/>
        <path id="Pfad_14254" data-name="Pfad 14254" d="M766.4,481.423c-.241.524-.478,1.053-.719,1.577-.19.42-.381.843-.571,1.259a.255.255,0,0,0,0,.237c.416.967.824,1.939,1.235,2.906.082.19.051.233-.148.233s-.377-.008-.563,0a.233.233,0,0,1-.26-.175c-.26-.715-.528-1.43-.792-2.141-.016-.039-.031-.082-.058-.155-.043.128-.074.225-.1.319-.229.657-.458,1.309-.684,1.966a.241.241,0,0,1-.268.19c-.175-.008-.35,0-.524,0-.2,0-.237-.062-.159-.249.334-.789.668-1.573,1-2.362.089-.214.186-.427.268-.645a.3.3,0,0,0,0-.21c-.381-.878-.769-1.756-1.154-2.634-.089-.206-.058-.253.167-.253.186,0,.377.008.563,0a.236.236,0,0,1,.268.183q.35.944.707,1.888c.016.047.035.089.066.163.082-.225.152-.423.225-.618.183-.486.365-.971.544-1.461a.2.2,0,0,1,.218-.155c.2.008.4,0,.591,0a1.085,1.085,0,0,1,.155.027Z" transform="translate(-733.107 -462.586)" fill="#fff"/>
        <path id="Pfad_14255" data-name="Pfad 14255" d="M412.173,479.807c.326-.124.633-.264.952-.354a1.476,1.476,0,0,1,1,.089.978.978,0,0,1,.6.831,2.446,2.446,0,0,1,.019.334v4.9c0,.229,0,.229-.233.229h-.563c-.163,0-.183-.019-.183-.186v-4.7a.646.646,0,0,0-.684-.723,1.633,1.633,0,0,0-.831.186c-.089.043-.078.109-.078.179V485.6c0,.237,0,.237-.237.237-.2,0-.4,0-.606,0-.089,0-.136-.035-.132-.128V479.7c0-.21,0-.21.21-.21s.4.008.606,0c.124,0,.175.039.159.163,0,.054,0,.117,0,.159" transform="translate(-395.22 -460.779)" fill="#fff"/>
      </g>
    </g>
  </g>
</svg>
