<?xml version="1.0" encoding="utf-8"?>
<!-- Generator: Adobe Illustrator 19.2.1, SVG Export Plug-In . SVG Version: 6.00 Build 0)  -->
<svg version="1.1" id="Layer_1" xmlns="http://www.w3.org/2000/svg" xmlns:xlink="http://www.w3.org/1999/xlink" x="0px" y="0px"
	 viewBox="0 0 1024 1024" enable-background="new 0 0 1024 1024" xml:space="preserve">
<circle id="XMLID_1_" fill="#E8E8EB" cx="512" cy="512" r="512"/>
<path id="XMLID_10_" fill="#DA1F26" d="M806,481.8c0,125.3-128.6,226.9-287.3,226.9c-42.5,0-100.8-25.5-133.1-4.5
	c-110.6,71.8-223.4,18.9-206.3,15.5c87.8-17.2,145.9-70.3,137.9-76.1c-4.2-3,0,0-4-3.2c-50.6-40.9-81.8-96.9-81.8-158.6
	c0-125.3,128.6-226.9,287.3-226.9S806,356.5,806,481.8z"/>
<g id="_x35_v7uDt.tif">
	<g>
		<path fill="#FFFFFF" d="M578.5,639.5c-36.1,0-55.2-19.1-78-35.4c-62.7-45.2-115.1-100-127.7-180.8c-6.9-43.9,9.8-79.8,46.7-105.2
			c6.1-4.2,18.9-9.4,20.8-7.2c17.6,19.8,36,39.8,49.2,62.6c9.8,16.9-3.3,31.1-17.3,42.5c-26.9,21.8-29.9,32.3-10.2,59.6
			c16.3,22.6,36.5,42.8,56.7,62.2c15.6,14.9,33.3,15.2,48.6-2.5c13-15.1,30.2-27.9,48.1-15.9c21.2,14.2,38.4,34.7,56,53.7
			c2.3,2.5-1.6,14.1-5.6,18.7C643.4,617,616.8,634.9,578.5,639.5z"/>
	</g>
</g>
</svg>
