<?xml version="1.0" encoding="utf-8"?>
<!-- Generator: Adobe Illustrator 20.0.0, SVG Export Plug-In . SVG Version: 6.00 Build 0)  -->
<svg version="1.1" id="Layer_1" xmlns="http://www.w3.org/2000/svg" xmlns:xlink="http://www.w3.org/1999/xlink" x="0px" y="0px"
	 viewBox="0 0 1024 1024" enable-background="new 0 0 1024 1024" xml:space="preserve">
<circle id="XMLID_1_" fill="#F0F2F4" cx="512" cy="512" r="512"/>
<g id="XMLID_16_">
	<path id="XMLID_14_" fill="#4A483E" d="M524.3,419.8c25,0,48.8,0.6,72.5-0.3c10.3-0.4,13.5,5.4,17.4,12.6
		c17.1,31.9,34.4,63.7,53.5,98.9c21.1-38.7,40.7-74.7,60-110.3c28.3,0,55.8,0,84.3,0c0,58.4,0,115.8,0,174.3
		c-16.7,5.1-33.8,0.8-52.8,2.9c0-40.6,0-79.7,0-118.8c-1.3-0.3-2.7-0.6-4-0.9c-19.2,34.2-38.9,68.2-57.2,102.9
		c-6.8,13-15.2,17-29.6,16.9c-14.7-0.1-23.8-3.2-31.1-17.4c-17.7-34.6-37.7-68-60.3-101.4c0,38.8,0,77.6,0,117.3
		c-18.9,0-35.1,0-52.7,0C524.3,538,524.3,480.1,524.3,419.8z"/>
	<path id="XMLID_13_" fill="#EB7B27" d="M496.8,596.1c-17.9,0-34.2,0-52.1,0c0-39.5,0-78.1,0-116.8c-1.2-0.4-2.4-0.7-3.6-1.1
		c-19.6,34.7-39.8,69.1-58.3,104.4c-6.4,12.1-14.2,15.4-26.7,14.7c-12.4-0.8-23.5,1.1-31.2-14c-18.2-35.8-38.9-70.4-62.1-105
		c0,38.9,0,77.8,0,117.1c-18.7,2.7-34.9,2.1-52.1,0.7c0-58.8,0-116.6,0-176.2c25.1,0,49.5,0.4,73.8-0.2c9.7-0.3,12.2,6.3,15.6,12.5
		c14.1,26.2,28,52.4,42.1,78.6c3.4,6.2,7.3,12.2,12.1,20.2c17.8-33,35.1-63.4,50.6-94.6c6.6-13.3,14.5-17.8,29-16.8
		c20.4,1.4,40.9,0.3,62.9,0.3C496.8,478.5,496.8,536.3,496.8,596.1z"/>
	<path id="XMLID_12_" fill="#EB7B27" d="M286.9,361.7c60.4-89.1,145.6-129.3,251.5-119.6c96.4,8.9,166.1,61.1,214.5,149.2
		c-45,0-86.3-0.1-127.6,0.1c-6.4,0-9.2-4.5-12.3-8.6c-75-100.1-226.3-113.8-319.4-19.7c-0.9,0.9-2.2,1.4-3.3,2
		C289.1,364,288,362.9,286.9,361.7z"/>
	<path id="XMLID_11_" fill="#4A483E" d="M735.4,651.2c-44.7,71.5-110.3,112.5-192.8,121.1C432.5,783.8,345,741.5,283.2,648.6
		c-4.2-6.3-10.1-12.3-9.2-22.9c41,0,81.9,0.1,122.8-0.1c6.1,0,9.5,3,12.9,7.5c75.8,99.2,227.5,113.3,322.5,14
		C733.3,648.5,734.4,649.9,735.4,651.2z"/>
	<path id="XMLID_10_" fill="#4A483E" d="M740.1,644.1c-1.6,2.4-3.1,4.8-4.7,7.2c-1.1-1.4-2.1-2.7-3.2-4.1c2-1.7,3.9-3.4,5.9-5.1
		C738.8,642.7,739.4,643.4,740.1,644.1z"/>
	<path id="XMLID_5_" fill="#EB7B27" d="M290.2,365.1c-2,3.2-4.5,3.9-8.6,1.4c1.9-1.8,3.6-3.3,5.3-4.8
		C288,362.9,289.1,364,290.2,365.1z"/>
	<path id="XMLID_4_" fill="#4A483E" d="M738.1,642c0.4-1.9,1.4-3.4,3.5-2c0.3,0.2-1,2.6-1.5,4.1C739.4,643.4,738.8,642.7,738.1,642z
		"/>
</g>
</svg>
