<svg xmlns="http://www.w3.org/2000/svg" xmlns:xlink="http://www.w3.org/1999/xlink" width="1024" height="1024" viewBox="0 0 1024 1024"><defs><clipPath id="b"><rect width="1024" height="1024"/></clipPath></defs><g id="a" clip-path="url(#b)"><path d="M427.4,444.3a84.552,84.552,0,0,0,39.3,71.4L546,366.9a84.288,84.288,0,0,0-118.6,77.4Z" fill="none"/><path d="M552.3,819l159-212.3c41.1-58.2,67.8-127.5,67.8-181.8,0-102.8-55.3-192.8-137.4-242L1006,376.8C946.7,159.7,748,0,512,0,229.2,0,0,229.2,0,512s229.2,512,512,512a510.839,510.839,0,0,0,183.6-33.9L502.2,886.6Z" fill="#d9e0e7"/><path d="M1024,512a515.272,515.272,0,0,0-18-135.2L641.7,182.9c82.1,49.2,137.4,139.2,137.4,242,0,54.3-26.7,123.6-67.8,181.8L552.3,819,513,908.3l182.6,81.8C887.7,916.3,1024,730.1,1024,512Z" fill="#d9e0e7"/><path d="M649.6,187a266.454,266.454,0,0,0-141.9-40.6c-153,0-277,129.4-277,289,0,55.7,24.2,125.9,66.7,186.5L366,714.3l92.6,124.5,54,70.2,49.3-69.4L718.3,621.8C758.7,562.1,785,491,785,435.3,784.7,329.6,730.5,237.6,649.6,187ZM507.2,538.6a79.118,79.118,0,0,1-44.4-13.5c-23.2-15.4-38.6-42.3-38.6-73.3,0-47.9,37.1-86.6,83-86.6a77.236,77.236,0,0,1,33.6,7.4c29.2,13.4,49.6,43.8,49.6,79.5C590.4,499.8,553.2,538.6,507.2,538.6Z" fill="#fff"/><circle cx="98.1" cy="98.1" r="98.1" transform="translate(414.3 345.7)" fill="#d9e0e7"/></g></svg>