<svg xmlns="http://www.w3.org/2000/svg" xmlns:xlink="http://www.w3.org/1999/xlink" width="1024" height="1024" viewBox="0 0 1024 1024"><defs><clipPath id="b"><rect width="1024" height="1024"/></clipPath></defs><g id="a" clip-path="url(#b)"><circle cx="512" cy="512" r="512" fill="#d9e0e7"/><path d="M510.7,837.3S330,604.1,315.4,447C301.1,294,392,206,506.8,201.5v-.2c1.5,0,3.1,0,4.6.1,1.5,0,3.1-.1,4.6-.1v.2C630.8,206,721.6,294,707.4,447,692.8,604.1,512,837.3,512,837.3Z" fill="#fff"/><path d="M511.4,264.3,558.8,362l106.1,15.6-76.7,76.1L606.3,561l-94.9-50.7L416.5,561l18.1-107.3-76.8-76.1L463.9,362Z" fill="#d9e0e7"/></g></svg>