<svg xmlns="http://www.w3.org/2000/svg" xmlns:xlink="http://www.w3.org/1999/xlink" width="1024" height="1024" viewBox="0 0 1024 1024"><defs><clipPath id="b"><rect width="1024" height="1024"/></clipPath></defs><g id="a" clip-path="url(#b)"><g transform="translate(0 -0.5)"><circle cx="512" cy="512" r="512" transform="translate(0 0.5)" fill="#d9e0e7"/><path d="M385.6,778.7c14.3-16,27.5-30.7,40.6-45.5,77.3-87,154.8-173.8,231.6-261.3,10.8-12.3,21.8-17.1,38-16.5,32.1,1.2,64.2.4,101.6.4-24.8,27-46.1,50.5-67.8,73.7C672.6,590.4,615.3,651,558.4,712a70.339,70.339,0,0,1-26.1,18c-43.4,17.2-86.6,34.9-129.9,52.2C398.2,783.8,393.3,783.9,385.6,778.7Z" fill="#fff"/><path d="M717.6,368c-13.3,10.5-24.2,14-38,11.9-21.9-3.2-44.3-3.2-66.2-6.6-15.2-2.4-24.5,2-34,14.1-67,85.2-134.9,169.4-201.6,254.6-13.1,16.8-26.7,28.9-48.9,30-11.9.6-23.7,4-35.4,6.1-2.8-7,2.6-9.5,5.1-12.6Q425.2,507.25,552.1,349.2c7.6-9.6,14.7-13.9,26.9-11.2C624.1,348.1,669.4,357.7,717.6,368Z" fill="#fff"/><path d="M225.6,574.6c34.9-48.7,68.9-96.1,102.9-143.6q64.65-90.15,129.1-180.5c6.1-8.7,11.7-13.1,22.9-9.6,49.4,15.4,99,30.2,148.4,45.4,1.7.5,3,2.2,4.7,3.5-10.5,12.2-21.4,15.1-37.2,9.3-29-10.6-59.3-17.4-88.4-27.7-14-4.9-21.2-2.2-29.5,9.8-57.2,83.1-115.1,165.6-172.8,248.4C278.3,568.6,278.3,568.6,225.6,574.6Z" fill="#fff"/></g></g></svg>