<?xml version="1.0" encoding="utf-8"?>
<!-- Generator: Adobe Illustrator 19.2.1, SVG Export Plug-In . SVG Version: 6.00 Build 0)  -->
<svg version="1.1" id="Layer_1" xmlns="http://www.w3.org/2000/svg" xmlns:xlink="http://www.w3.org/1999/xlink" x="0px" y="0px"
	 viewBox="0 0 1024 1024" enable-background="new 0 0 1024 1024" xml:space="preserve">
<circle id="XMLID_1_" fill="#F7941E" cx="512" cy="512" r="512"/>
<g id="XMLID_18_">
	<polygon id="XMLID_16_" fill="#FFFFFF" points="214.8,416.9 174.5,416.9 174.5,599.6 214.8,599.6 	"/>
	<path id="XMLID_27_" fill="#FFFFFF" d="M300.8,483.3c-36.2,0-68.2,21.9-68.2,60.5s32,59.9,68.2,59.9s68.2-21.9,68.2-59.9
		C369,504.7,337,483.3,300.8,483.3L300.8,483.3z M300.8,517.7c16.6,0,25.5,11.9,25.5,25.5c0,14.2-9.5,25.5-25.5,25.5
		c-16,0-25.5-11.3-25.5-25.5C274.7,529.6,284.2,517.7,300.8,517.7L300.8,517.7z"/>
	<polygon id="XMLID_13_" fill="#FFFFFF" points="423,416.9 383.3,416.9 383.3,599.6 423,599.6 423,553.9 466.9,599.6 523.2,599.6 
		463.3,539.1 519.7,486.9 465.1,486.9 423,527.8 	"/>
	<path id="XMLID_23_" fill="#FFFFFF" d="M582.5,517.7c16.6,0,25.5,11.9,25.5,25.5c0,14.2-9.5,25.5-25.5,25.5
		c-16.6,0-25.5-11.3-25.5-25.5C556.4,529.6,565.9,517.7,582.5,517.7L582.5,517.7z M647.2,486.9h-40.3v11.3
		c-8.3-10.1-21.9-14.8-35-14.8c-33.2,0-56.9,27.9-56.9,59.9c0,32.6,23.7,60.5,56.9,60.5c13,0,27.3-5.3,34.4-16.6h0.6v12.5h40.3
		V486.9L647.2,486.9z"/>
	<polygon id="XMLID_10_" fill="#FFFFFF" points="710.1,416.9 669.7,416.9 669.7,599.6 710.1,599.6 	"/>
	<path id="XMLID_19_" fill="#FFFFFF" d="M768.8,526.6c2.4-11.9,11.9-17.8,23.7-17.8c10.7,0,20.8,7.1,22.5,17.8H768.8L768.8,526.6z
		 M852.4,545.6c0-38.6-22.5-62.9-61.7-62.9c-36.8,0-62.9,22.5-62.9,60.5c0,39.1,27.9,59.9,65.2,59.9c25.5,0,51-11.9,57.5-38.6h-38.6
		c-4.2,7.7-10.7,10.1-19,10.1c-16.6,0-24.9-8.9-24.9-24.9h84.2V545.6L852.4,545.6z"/>
</g>
</svg>
