<svg xmlns="http://www.w3.org/2000/svg" xmlns:xlink="http://www.w3.org/1999/xlink" width="1024" height="1024" viewBox="0 0 1024 1024"><defs><clipPath id="b"><rect width="1024" height="1024"/></clipPath></defs><g id="a" clip-path="url(#b)"><path d="M512,0c282.77,0,512,229.23,512,512s-229.23,512-512,512S0,794.77,0,512,229.23,0,512,0Z" fill="#d9e0e7"/><path d="M512.2,887.8c-207.3.6-376.2-168.4-376-376,.2-207.1,167.8-377.3,379.5-375.6,102,.8,190.5,38.2,262.6,110.7C851.2,320.2,888,409.7,887.9,513,887.5,720.5,719.4,888,512.2,887.8Zm6.7-42.6c85.2-1.2,164.4-33.4,229.4-98.4s98.5-144.8,98-236.4C845.5,326,699.3,177.9,513,177c-91.8-.4-171.7,31.9-236.5,96.8-73.6,73.6-105.7,164-97,267.8,6.7,80,39.4,149.1,96.1,205.6,65.1,64.6,144.3,97.5,243.3,98Z" fill="#fff"/><path d="M518.9,845.2c-99-.5-178.2-33.4-243.3-98.1-56.8-56.4-89.4-125.5-96.1-205.6-8.7-103.8,23.5-194.1,97-267.8C341.3,208.8,421.2,176.5,513,177c186.3.9,332.5,149.1,333.4,333.4.4,91.6-32.9,171.4-98.1,236.5S604.1,844,518.9,845.2ZM703.1,296l-.9-1.2c-6.2-7.1-14.1-12-21.7-17.3-26.7-18.9-56-32.3-87.4-41.2A276.675,276.675,0,0,0,530.6,226a286.211,286.211,0,0,0-39.3.6,312.057,312.057,0,0,0-45,7.1,279.886,279.886,0,0,0-99,44.3c-5.6,3.9-11.8,7.3-16.1,12.9-1.9.1-3,1.4-3.9,2.9-5.6,2.1-9.8,6.1-13.9,10.3-19,19.3-36.6,39.8-49.3,63.9l-.7,1.2a.618.618,0,0,1-.2.7l-.9,2h0l-.8,1.2h.1c-5.4,6-8.1,13.6-11.2,20.9a46.354,46.354,0,0,0-2.5,4.2C235,429,226.6,461,224.6,494.4c-1.1,19.4-.9,38.9,2,58.2a290.143,290.143,0,0,0,14.6,58.2,278.926,278.926,0,0,0,20.7,44.7,293.174,293.174,0,0,0,64.5,77.1,301.432,301.432,0,0,0,62.1,40.2,276.286,276.286,0,0,0,60.5,21c19.8,4.4,39.8,7.3,60.1,7.2,9.3,0,18.6-.1,27.9-.7a273.444,273.444,0,0,0,34.9-4.7A293.043,293.043,0,0,0,734,701.7c2.3-2.6,5.5-4.9,6.4-8.7l4.9-4c2.9-.2,4.3-2.5,5.8-4.4,10.4-12.4,18.5-26.4,25.7-40.8A329.58,329.58,0,0,0,800.3,583c6.6-24.2,11.1-48.6,9.3-74a405.48,405.48,0,0,0-5.4-41.3c-.9-5.1-1.3-10.9-5.8-14.7-1.7-4.5-1.3-9.7-4-14-1.2-8.7-4.8-16.7-7.1-25.1l-.9-3.9c1.8-1.5,1.8-3.3,1-5.4-2.7-6.4-5-13-8-19.3-9.8-20.8-21.8-40.3-37-57.6-9.5-10.8-19.6-21.1-31.4-29.6-1.3-.9-2.6-2.9-4.7-1.2h-2l-1.1-.9Z" fill="#d9e0e7"/><path d="M787.1,413.7c2.3,8.4,5.9,16.4,7.1,25.1-.8-.3-1.8-.3-2.3-.9-8.3-8.9-19.4-10.9-30.7-12.1-8.9-1-17.7-2.1-26.6-2.9-12.5-1-25.2-.5-36.4,5.6-18.3,10-28,26.5-31.9,46.5a125.782,125.782,0,0,0-1.2,40.6c2,15.9,7.1,30.4,18.3,42.1,4.4,4.6,9,9.6,15.7,11,5.8,1.2,11.9,1.2,17.8,1.2a62.379,62.379,0,0,1,18.1,3c3.7,1.2,6.6,3.6,7.1,7.6a60.146,60.146,0,0,1,0,12c-1.5,13.1-3.2,26.3-4.8,39.4-1.6,12.5-3.7,24.9-4.7,37.4-.7,8.6-2.8,18.4,7.7,23.6-1,3.8-4.1,6-6.4,8.7a292.7,292.7,0,0,1-162.1,93.9,273.444,273.444,0,0,1-34.9,4.7c-9.3.6-18.6.7-27.9.7-20.3.1-40.3-2.8-60.1-7.2a274.486,274.486,0,0,1-60.5-21,298.027,298.027,0,0,1-62.2-40.2,291.951,291.951,0,0,1-64.6-77.1,283,283,0,0,1-20.7-44.7,300.651,300.651,0,0,1-14.6-58.2c-2.8-19.3-3.1-38.8-2-58.2,2-33.4,10.3-65.4,23.3-96.2a29.1,29.1,0,0,1,2.5-4.2c1.9,2.9,1.3,6.2.7,9.1-1.7,8.8-.7,17.5,3.6,25.1,6.5,11.6,13.7,22.8,19.8,34.6,13.3,25.9,31.5,47.5,56.1,63.9,23.3,15.5,46.9,30.5,71.6,43.8,9.9,5.3,10,12.8.9,19.7a15.8,15.8,0,0,0-4.9,7.3c-3.4,9.3-5.1,18.5-4,28.7,1.4,11.8,11,29.8,26.9,32.8a18.137,18.137,0,0,1,13.9,10.9c3.1,6.7,4.5,13.9,5.4,21.1a228.371,228.371,0,0,1,1.5,28.6c-.2,9.2-.6,18.4-1.1,27.6-.4,6.9-1.1,14,.6,20.9,1.5,6,7.4,9,12.7,6,7.9-4.4,15.2-9.7,20.2-17.4,7.2-11,16.9-19.5,27-27.6,16.5-13.1,35.1-23.2,52.1-35.6,13.8-10.1,28.5-18.9,40-31.9,5.6-6.3,7.3-12.3,2.9-19.5-5.6-9.2-13.3-16.8-23.4-21-8.9-3.6-18.2-6.1-27.4-9-3-.9-5.5-3-5.7-5.7-.6-10-7.7-14.9-15-19.1-20.6-11.9-42.6-20.7-65.4-27.4-11.9-3.5-24.1-5.9-35.9-10.1a12.976,12.976,0,0,1-6.9-5.5c-5.4-8.5-6.5-18.2-5.9-27.7a64.39,64.39,0,0,0-.8-15.2c-.9-5.6-4.3-11.3-10.4-12.2a34.174,34.174,0,0,0-26.7,7,90.2,90.2,0,0,1-8.2,5.5c-3.9,2.5-9.6,2-12.4-1.5-4.2-5.3-7.1-11.4-5.3-18.4,2.7-10.5,7.5-19.2,18.4-23.6,9.1-3.7,17.7-7.9,28.1-5.3,7.7,1.9,13.9,6,20,10.7,4.6,3.6,9.9,6.1,15.7,3.7,6.4-2.7,7.6-8.8,8.1-14.9a67.571,67.571,0,0,0,0-9,20.134,20.134,0,0,1,3.5-11.7c6.1-9.5,14.6-16.8,22.7-24.3A171.686,171.686,0,0,1,491.2,386c7.9-4.8,16-9.3,23-15.5,12.4-10.9,12.6-29.6,2.7-41.1-7-8.2-15.4-14.6-24.5-20.1-15-9.1-31-12.4-48.1-6.4-7.9,2.7-11.8,9.2-10.4,17,1.6,8.9-1.7,14.7-10.1,17.9-9.6,3.6-19.5,3.7-29.4,1.8-8.6-1.7-12-7.7-10-16.2,1.4-5.8,5.1-10.5,8-15.3,4.7-7.7,4.9-14.8-.2-22.1-1-1.5-2.2-2.9-3.3-4.4-2.7-3.7-6.2-5.8-11-5.6-10.1.3-17.9,4.4-22.6,13.6-3.9,7.6-9.7,9.5-17.4,5.6-2.5-1.3-4.9-2.8-7.4-4.1,4.3-5.6,10.5-9,16.1-12.9A282.735,282.735,0,0,1,445.7,234a326.553,326.553,0,0,1,45-7.1,322.183,322.183,0,0,1,39.3-.6,269.436,269.436,0,0,1,62.5,10.3,286.029,286.029,0,0,1,87.4,41.2c7.5,5.3,15.5,10.2,21.7,17.3v1a.878.878,0,0,1-.7.1c-2.7-.2-3.3,1.9-4,3.7-1.3,3.2-.2,6.5-.2,9.8v46c0,13.9-4.5,18.2-18.4,17.4-1.3-.1-2.9.4-3.3-1.4a3.527,3.527,0,0,1,1.6-3.5,50.192,50.192,0,0,1,8.5-6c7.8-4.1,8.9-10.7,5-15.6A151.179,151.179,0,0,1,678,329.1c-3.2-5.4-7.2-6.3-11.2-4.1-3.1,1.7-4.2,6.8-2.6,11.7.3.8.7,1.5,1,2.3.7,1.8,2.7,3.8.8,5.4-2.3,1.9-3.9-.5-5.4-2-3.1-3.2-6.6-4.1-10.2-1.4a16.008,16.008,0,0,0-6.7,12.3c-.4,8.9,1.8,11.4,10.6,11.7,3.1.1,4.9,1.2,5.5,4.4a5.375,5.375,0,0,0,5.7,4.6c4.3,0,5.5,1.3,3.5,5.7-3.1,6.9-3.4,14.3,1.1,20.9,8.1,11.9,24.5,17.3,38.7,13.5,11.3-3,20-9.2,26-19.3,3.4-5.6,8.1-6.5,14.2-3.7,7.8,3.6,14,9.4,20.8,14.4,4.7,3.4,8,9.3,15.1,8.4Z" fill="#fff"/><path d="M263.1,369.8a.663.663,0,0,0,.2-.7l.7-1.2c12.7-24.2,30.3-44.6,49.3-63.9,4.1-4.1,8.3-8.1,13.9-10.3a7.2,7.2,0,0,1,5,2c.5.4,1,.9,1.5,1.3,9.5,8.1,20.1,6.5,25.4-4.8,4.1-8.8,10.8-12.2,19.8-12.5a8.956,8.956,0,0,1,7.4,3.5c8.5,10.3,8.8,13.7,1.8,24.9-1.5,2.4-3.1,4.8-4.6,7.1a28.271,28.271,0,0,0-3.9,9.7c-1.5,7,2.6,15.6,8.7,17.3,11.9,3.3,24,4.1,35.9,0,12.9-4.4,16.7-11,14.3-24.4-.2-1-.2-2-.4-3a5.885,5.885,0,0,1,4-6.7c8-3.2,16.2-4.9,24.9-3.8,18.7,2.4,33.3,12.7,45.6,25.9,12.8,13.7,10.6,29.1-4.5,40.3a44.988,44.988,0,0,1-4.5,3.1,244.693,244.693,0,0,0-55.1,41.9c-10.4,10.6-19.2,21.4-15.6,37.7a8.35,8.35,0,0,1-.3,3.5c-1.2,6.9-6.9,9.7-13,6.2-2.9-1.6-5.3-4-7.9-6.1a41.179,41.179,0,0,0-13.5-7.3c-11.5-3.7-21.9-1.3-32.8,3.3-10.7,4.5-17.2,11.7-21.5,22.2-4.7,11.5-.5,20.7,5.9,29.7a6.965,6.965,0,0,0,5.6,2.9c5.4-.1,10.8-.4,14.9-4.5,5.7-5.9,12.9-8.6,20.7-10.2,8.9-1.9,14.5,2.1,15.1,11.4.4,5.5.1,11,.1,16.5a55.188,55.188,0,0,0,6.2,25.5c1.4,2.8,3.1,5.2,6.2,6.2,5.5,1.8,10.9,4.2,16.5,5.6,27.7,6.8,54.8,15.3,80.1,28.9,5.7,3.1,11.5,6.2,16.5,10.3,2.2,1.8,4.7,4.2,3.3,7.2-2.3,5.2.8,7.3,4.4,9.5,6.2,3.8,13.2,5.3,20.2,7,14.1,3.3,25.4,10.7,33.1,23.1,2.5,4.1,4,8.3-.2,12.2-8.7,8.2-16.8,17-27,23.6-19.8,12.9-39.5,26.1-58.7,39.8C492.2,730,478,741.1,468.5,757c-4.2,7-11.8,10.6-18.9,14.3-2.4,1.2-4.2.8-4.5-2.4a99.556,99.556,0,0,1-.5-18.9c1.8-22.6,2.8-45.2-1.4-67.7-2.8-15.2-9.3-26.7-26.2-29.1a13.483,13.483,0,0,1-8-4.7c-10.2-10.8-13.3-23.7-10.7-37.8,1.5-8.2,2.6-17.1,12.2-20.9,1.6-.6,2.2-2.3,2.8-4,3-8.6,1.1-13.2-8.1-18.3a845.19,845.19,0,0,1-78.1-48.3c-20.2-14.2-35.2-32.8-47-54.2-5.3-9.6-8.9-20.3-16-28.8-10-12.1-10.4-25.7-8.5-40.2,1-8,4.1-15.4,5.8-23.2h-.1c.7-.1.8-.6.8-1.2h0A1.609,1.609,0,0,0,263.1,369.8Z" fill="#d9e0e7"/><path d="M261.4,372.9c-1.7,7.8-4.7,15.2-5.8,23.2-1.9,14.5-1.4,28.1,8.5,40.2,7,8.5,10.6,19.2,16,28.8,11.8,21.4,26.7,40,47,54.2a824.154,824.154,0,0,0,78.1,48.3c9.2,5,11.1,9.7,8.1,18.3-.6,1.6-1.2,3.3-2.8,4-9.6,3.8-10.7,12.7-12.2,20.9-2.6,14.1.5,27.1,10.7,37.8,2.3,2.4,4.8,4.2,8,4.7,16.8,2.5,23.4,13.9,26.2,29.1,4.1,22.5,3.2,45.1,1.4,67.7a108.565,108.565,0,0,0,.5,18.9c.3,3.2,2.1,3.6,4.5,2.4,7.1-3.7,14.8-7.2,18.9-14.3,9.5-16,23.6-27,38.3-37.4,19.3-13.7,39-26.8,58.8-39.8,10.2-6.7,18.3-15.5,27-23.6,4.2-3.9,2.7-8.2.2-12.2-7.7-12.4-19-19.7-33.1-23.1-7-1.7-14-3.2-20.2-7-3.5-2.2-6.7-4.3-4.4-9.5,1.4-3-1.1-5.3-3.3-7.2-5-4.2-10.8-7.3-16.5-10.3-25.3-13.6-52.4-22.1-80.1-28.9-5.7-1.4-11-3.8-16.5-5.6-3.1-1-4.9-3.4-6.2-6.2a56.451,56.451,0,0,1-6.2-25.5c0-5.5.3-11-.1-16.5-.6-9.3-6.3-13.3-15.1-11.4-7.8,1.7-15,4.3-20.7,10.2-4,4.2-9.5,4.5-14.9,4.5a6.7,6.7,0,0,1-5.6-2.9c-6.4-9-10.6-18.2-5.9-29.7,4.3-10.5,10.8-17.6,21.5-22.2,10.9-4.6,21.3-7,32.8-3.3a41.18,41.18,0,0,1,13.5,7.3c2.6,2.1,5,4.4,7.9,6.1,6,3.5,11.8.6,13-6.2a10.179,10.179,0,0,0,.3-3.5c-3.6-16.2,5.1-27.1,15.6-37.7a241.787,241.787,0,0,1,55.1-41.9,35.831,35.831,0,0,0,4.5-3.1c15.1-11.3,17.4-26.6,4.5-40.3-12.3-13.1-26.8-23.5-45.6-25.9-8.7-1.1-16.9.6-24.9,3.8a5.885,5.885,0,0,0-4,6.7c.1,1,.2,2,.4,3,2.4,13.4-1.4,20-14.3,24.4-11.9,4.1-24,3.2-35.9,0-6.1-1.7-10.2-10.3-8.7-17.3a29.092,29.092,0,0,1,3.9-9.7c1.5-2.4,3.1-4.7,4.6-7.1,7-11.2,6.7-14.6-1.8-24.9a8.829,8.829,0,0,0-7.4-3.5c-9,.3-15.7,3.7-19.8,12.5-5.3,11.3-15.9,13-25.4,4.8-.5-.4-1-.9-1.5-1.3a7.2,7.2,0,0,0-5-2c.9-1.5,2-2.8,3.9-2.9,2.5,1.4,4.9,2.9,7.4,4.1,7.7,3.9,13.5,2.1,17.4-5.6,4.8-9.2,12.5-13.3,22.6-13.6a12.517,12.517,0,0,1,11,5.6c1.1,1.5,2.2,2.9,3.3,4.4,5.1,7.3,4.9,14.4.2,22.1-3,4.9-6.7,9.5-8,15.3-2,8.5,1.4,14.5,10,16.2,9.9,2,19.8,1.8,29.4-1.8,8.5-3.2,11.8-9,10.1-17.9-1.4-7.8,2.5-14.3,10.4-17,17.1-5.9,33.1-2.7,48.1,6.4,9.1,5.5,17.5,11.9,24.5,20.1,9.9,11.5,9.7,30.2-2.7,41.1-7.1,6.2-15.2,10.8-23,15.5A180.662,180.662,0,0,0,463.8,407c-8.1,7.5-16.6,14.7-22.7,24.3a20.241,20.241,0,0,0-3.7,11.6,67.571,67.571,0,0,1,0,9c-.5,6.1-1.7,12.2-8.1,14.9-5.8,2.5-11.1-.1-15.7-3.7-6.1-4.7-12.3-8.8-20-10.7-10.4-2.6-19,1.6-28.1,5.3-10.9,4.4-15.7,13.2-18.4,23.6-1.8,7,1.1,13.1,5.3,18.4,2.8,3.5,8.4,4,12.4,1.5,2.8-1.7,5.6-3.6,8.2-5.5a33.958,33.958,0,0,1,26.8-6.9c6.1.9,9.5,6.6,10.4,12.2a70.175,70.175,0,0,1,.8,15.2c-.6,9.5.5,19.3,5.9,27.7a12.976,12.976,0,0,0,6.9,5.5c11.7,4.2,23.9,6.6,35.9,10.1,22.8,6.7,44.8,15.5,65.4,27.4,7.3,4.2,14.4,9.1,15,19.1.2,2.8,2.7,4.8,5.7,5.7,9.2,2.8,18.5,5.3,27.4,9,10.1,4.1,17.7,11.8,23.4,21,4.4,7.2,2.7,13.2-2.9,19.5-11.5,13-26.3,21.8-40,31.9-17,12.5-35.6,22.6-52.1,35.6-10.1,8-19.8,16.6-27,27.6-5.1,7.7-12.4,13-20.2,17.4-5.3,3-11.2,0-12.7-6-1.8-6.9-1-13.9-.6-20.9.5-9.2.9-18.4,1.1-27.6a209.994,209.994,0,0,0-1.5-28.6c-.8-7.2-2.2-14.3-5.4-21.1a18.3,18.3,0,0,0-13.9-10.9c-15.9-3-25.6-21-26.9-32.8-1.2-10.2.6-19.4,4-28.7a15.3,15.3,0,0,1,4.9-7.3c9.1-7,9-14.4-.9-19.7-24.7-13.3-48.3-28.2-71.6-43.8-24.6-16.4-42.7-38-56.1-63.9-6.1-11.8-13.2-23-19.8-34.6-4.3-7.6-5.3-16.3-3.6-25.1.6-3,1.2-6.2-.7-9.1C253.3,386.5,256,379,261.4,372.9Z" fill="#d9e0e7"/><path d="M787.1,413.7h-1.7c-.2-2-1.7-3-3.2-3.9-9.9-9.4-20.2-18.1-32.5-24.3-7.3-3.6-12-2.3-16.7,4.4-2.5,3.5-4.8,7.2-7.1,10.8l-1.8,1.8c-8.1,5.3-17,8.5-26.7,8.3-18.7-.5-29.7-15.8-23-31.9l.9-.9,2-1,1.9-.2c1.5.1,3,.1,4.5.3,10.7,1.1,16.1-3.1,17.8-13.9.5-3.4-.1-6.6-.1-9.9,0-17.5-.1-34.9-.1-52.4l.2-4.9a1.483,1.483,0,0,0,.7-.1,1.232,1.232,0,0,0,1,.2V296l1.1.9h0a1.753,1.753,0,0,0,2,1A260.6,260.6,0,0,1,751.1,344c11.7,15.4,19.7,32.9,29.2,49.6,3,5.3,2.9,11.3,6,16.3Z" fill="#d9e0e7"/><path d="M740.2,692.8c-10.5-5.2-8.4-15-7.7-23.6,1-12.5,3.1-24.9,4.7-37.4,1.7-13.1,3.4-26.2,4.8-39.4a60.146,60.146,0,0,0,0-12c-.4-4-3.3-6.4-7.1-7.6a61.284,61.284,0,0,0-18.1-3c-6,0-12,0-17.8-1.2-6.7-1.3-11.3-6.3-15.7-11-11.1-11.7-16.2-26.2-18.2-42.1a125.78,125.78,0,0,1,1.2-40.6c3.9-20,13.6-36.5,31.9-46.5,11.3-6.2,23.9-6.6,36.4-5.6,8.9.7,17.8,1.9,26.6,2.9,11.3,1.3,22.4,3.3,30.7,12.1.5.5,1.5.6,2.3.9,2.7,4.3,2.3,9.4,4,14,.6,2.4,1.4,4.9.8,7.4a29.48,29.48,0,0,1-1.7-4.1c-4.2-15.3-14.5-23.1-29.9-25.4-11.9-1.8-23.9-2-35.7-3.5-24.2-3.1-46.1,9-55.7,31.4-8.3,19.4-9.5,39.6-6.1,60.2,2.6,15.7,8.6,29.7,20.9,40.3,4.5,3.9,9.3,6.3,15.8,6a101.284,101.284,0,0,1,26.3,2.6c12,2.7,13.7,4.6,13.5,16.8-.4,22.5-5.2,44.6-7.6,66.9-1.1,10.4-3.1,20.8-1.9,31.3.8,7.1,2.1,7.5,8,3.8l.3,2.3Z" fill="#d9e0e7"/><path d="M745.1,688.8l-.3-2.3.2.2a.9.9,0,0,0,.5-.1,2.2,2.2,0,0,0-.1-.8,154.1,154.1,0,0,0,13.7-18.4,325.785,325.785,0,0,0,42.1-103.5c4.4-20.3,6.4-40.7,4.3-61.4a399.554,399.554,0,0,0-6.4-42.3c.6-2.6-.2-5-.8-7.4,4.5,3.9,4.9,9.6,5.8,14.7a412.994,412.994,0,0,1,5.4,41.3c1.8,25.4-2.7,49.8-9.3,74a332.347,332.347,0,0,1-23.5,60.8C769.5,658,761.4,672,751,684.4,749.4,686.3,748,688.6,745.1,688.8Z" fill="#d9e0e7"/><path d="M786.2,409.8c-3.1-5-3-11.1-6-16.3-9.5-16.7-17.5-34.2-29.2-49.6a257.9,257.9,0,0,0-44.9-46.1v-.9c2.1-1.7,3.4.2,4.7,1.2,11.8,8.4,21.9,18.7,31.4,29.6,15.2,17.3,27.2,36.7,37,57.6,3,6.3,5.3,12.9,8,19.3A3.938,3.938,0,0,1,786.2,409.8Z" fill="#d9e0e7"/><path d="M263.1,369.8a1.961,1.961,0,0,1-.9,2Z" fill="#828282"/><path d="M706.2,296.8v.9a1.753,1.753,0,0,1-2-1Z" fill="#828282"/><path d="M264,367.9l-.7,1.2Z" fill="#828282"/><path d="M262.2,371.8c0,.6-.2,1.1-.8,1.2Z" fill="#828282"/><path d="M704.2,296.8l-1.1-.9Z" fill="#828282"/><path d="M703.1,296a1.232,1.232,0,0,1-1-.2v-1Z" fill="#858585"/><path d="M679.2,376.7l-1.9.2c-1.7-1.7-1.8-.3-2,1l-.9.9c-5.4,2.4-5,7.3-4.6,11.7,1,9.8,7.8,15.3,16,19.2,12.2,5.9,23.9,2.7,35.3-2.6a4.66,4.66,0,0,0,3.1-4.7l1.8-1.8c4.3-.1,5.3-4.1,7.2-6.7,5.2-7.4,10.6-9.3,17.7-5.2,5.3,3,10.1,6.9,15.2,10.3,5.4,3.6,9.4,9.4,16.2,10.8,1.5.9,3,1.9,3.2,3.9-7.1.9-10.4-5-15.1-8.4-6.8-5-13-10.8-20.8-14.4-6-2.8-10.8-1.9-14.2,3.7-6.1,10.1-14.7,16.3-26,19.3-14.2,3.8-30.7-1.7-38.7-13.5-4.5-6.6-4.2-14-1.1-20.9,2-4.5.8-5.7-3.5-5.7a5.375,5.375,0,0,1-5.7-4.6c-.7-3.3-2.4-4.3-5.5-4.4-8.8-.3-11-2.8-10.6-11.7a16.008,16.008,0,0,1,6.7-12.3c3.6-2.8,7.1-1.8,10.2,1.4,1.5,1.5,3.1,3.9,5.4,2,1.9-1.6-.1-3.6-.8-5.4a22.882,22.882,0,0,1-1-2.3c-1.6-4.9-.4-10,2.6-11.7,4-2.2,8-1.2,11.2,4.1a160.289,160.289,0,0,0,12.1,17.5c3.9,4.9,2.8,11.5-5,15.6a50.192,50.192,0,0,0-8.5,6,3.527,3.527,0,0,0-1.6,3.5c.4,1.8,2.1,1.3,3.3,1.4,13.9.8,18.4-3.5,18.4-17.4v-46c0-3.3-1.1-6.6.2-9.8.8-1.9,1.4-3.9,4-3.7l-.2,4.9c-3,.7-2,3.1-2,4.9-.1,18,0,36-.1,54,0,9.7-5.5,15-15,15.2C682.4,374.9,679.9,373.7,679.2,376.7Zm5-19c3-.7,4.9-2.4,5-5.6s-1.9-5.2-4.8-6.1c-2.1-.7-4.4-1.7-4.7-4-.7-4.6-4-8-5.2-12.3-.9-3-2.9-3.1-5-2.7-2.8.5-2.2,2.9-1.8,4.8.6,3.5,2.7,6.4,4.7,9.3,2.6,3.9,3,6.8-2,9-1.9.8-4.4,2.6-2.1,4.9,3.2,3.1,1.4,5.2-.5,7.6a28.484,28.484,0,0,0-2.3,2.6c-1,1.5-3.5,3.1-1.5,5,1.6,1.6,3.3-.4,4.8-1.4,1.9-1.4,3.7-2.8,5.5-4.3,4-.8,7.8-2.6,9.9-6.8Zm-23.8-6.2a12.261,12.261,0,0,0-3.1-8.5c-1-1.3-2.3-1.8-3.3-.4-2.7,4.1-6.2,7.9-6,13.2a5.952,5.952,0,0,0,4,5.7c2.4.9,4.1-.7,5.6-2.3a9.867,9.867,0,0,0,2.8-7.7Z" fill="#d9e0e7"/><path d="M679.2,376.7c.8-3,3.2-1.8,5-1.9,9.6-.2,15-5.5,15-15.2.1-18,0-36,.1-54,0-1.8-1.1-4.2,2-4.9.1,17.5.2,34.9.1,52.4,0,3.3.7,6.6.1,9.9-1.7,10.7-7,15-17.8,13.9C682.2,376.9,680.7,376.8,679.2,376.7Z" fill="#d9e0e7"/><path d="M782.2,409.8c-6.9-1.4-10.8-7.2-16.2-10.8-5.1-3.4-9.9-7.3-15.2-10.3-7.2-4.1-12.5-2.2-17.7,5.2-1.9,2.7-2.9,6.6-7.2,6.7,2.4-3.6,4.6-7.3,7.1-10.8,4.7-6.6,9.4-8,16.7-4.4C761.9,391.7,772.3,400.5,782.2,409.8Z" fill="#d9e0e7"/><path d="M724.1,402.5a4.66,4.66,0,0,1-3.1,4.7c-11.4,5.3-23.1,8.4-35.3,2.6-8.2-4-15-9.4-16-19.2-.4-4.4-.8-9.4,4.6-11.7-6.7,16.1,4.3,31.4,23,31.9C707.1,411,716,407.8,724.1,402.5Z" fill="#d9e0e7"/><path d="M675.2,378c.2-1.3.3-2.7,2-1Z" fill="#828282"/><path d="M799,460.2a378.792,378.792,0,0,1,6.4,42.3c2.1,20.8.2,41.2-4.3,61.4a326.411,326.411,0,0,1-42.2,103.4,162.594,162.594,0,0,1-13.7,18.4.67.67,0,0,0-.3.8l-.2-.2c-5.9,3.7-7.1,3.3-8-3.8-1.3-10.5.7-20.9,1.9-31.3,2.4-22.3,7.2-44.3,7.6-66.9.2-12.2-1.5-14.1-13.5-16.8a100.855,100.855,0,0,0-26.3-2.6c-6.4.3-11.2-2.1-15.8-6-12.3-10.7-18.3-24.7-20.9-40.3-3.4-20.6-2.2-40.8,6.1-60.2,9.6-22.5,31.5-34.6,55.7-31.4,11.9,1.5,23.9,1.8,35.7,3.5,15.4,2.3,25.7,10.1,29.9,25.4C797.8,457.5,798.3,458.9,799,460.2Z" fill="#d9e0e7"/><path d="M745,686.7a.756.756,0,0,1,.3-.8,1.95,1.95,0,0,1,.1.8C745.3,686.6,745.1,686.7,745,686.7Z" fill="#828282"/><path d="M674,364.8c-1.8,1.4-3.6,2.9-5.5,4.3-1.4,1-3.2,3-4.8,1.4-1.9-1.9.5-3.5,1.5-5a18.633,18.633,0,0,1,2.3-2.6c1.9-2.4,3.7-4.5.5-7.6-2.4-2.3.2-4,2.1-4.9,4.9-2.2,4.6-5.2,2-9-2-2.9-4-5.7-4.7-9.3-.3-1.9-1-4.3,1.8-4.8,2.1-.4,4.1-.3,5,2.7,1.2,4.3,4.5,7.6,5.2,12.3.3,2.3,2.6,3.3,4.7,4,2.9,1,4.9,2.9,4.8,6.1s-2,4.9-5,5.6C679.7,358.6,676.9,361.7,674,364.8Z" fill="#d9e0e7"/><path d="M660.4,351.5a9.937,9.937,0,0,1-2.9,7.8c-1.5,1.6-3.2,3.2-5.6,2.3a5.952,5.952,0,0,1-4-5.7c-.1-5.4,3.3-9.2,6-13.2,1-1.4,2.3-.9,3.3.4A11.946,11.946,0,0,1,660.4,351.5Z" fill="#d9e0e7"/></g></svg>