<?xml version="1.0" encoding="utf-8"?>
<!-- Generator: Adobe Illustrator 23.0.1, SVG Export Plug-In . SVG Version: 6.00 Build 0)  -->
<svg version="1.1" id="Layer_1" xmlns="http://www.w3.org/2000/svg" xmlns:xlink="http://www.w3.org/1999/xlink" x="0px" y="0px"
	 viewBox="0 0 1024 1024" style="enable-background:new 0 0 1024 1024;" xml:space="preserve">
<style type="text/css">
	.st0{fill:#F0F2F4;}
	.st1{fill:#31C4F3;}
</style>
<title>google</title>
<circle id="_Path_" class="st0" cx="512" cy="512" r="512"/>
<path id="XMLID_455_" class="st1" d="M512,230.8c-156.4,0-283.1,126.8-283.1,283.1c0,143.6,106.9,262.1,245.4,280.6v-57
	c0-16.1-10.1-30.5-25.4-35.7c-79.9-26.8-137.1-103.2-135-192.7c2.6-108.9,91.3-194.5,200.2-193.4c108.5,1.1,196.1,89.4,196.1,198.2
	c0,2.5-0.1,4.9-0.2,7.4c0,0.5,0,1.1-0.1,1.7c-0.1,2.3-0.2,4.6-0.4,6.8c-0.1,0.7-0.1,1.4-0.2,2.2c-0.1,1.6-0.3,3.1-0.5,4.7
	c-0.2,1.8-0.4,3.5-0.7,5.3c-0.1,0.8-0.2,1.6-0.3,2.4C683.6,704.2,475.4,794,474.3,794.5c12.3,1.6,24.9,2.5,37.7,2.5
	c156.4,0,283.1-126.8,283.1-283.1C795.1,357.6,668.4,230.8,512,230.8z"/>
</svg>
