<svg xmlns="http://www.w3.org/2000/svg" xmlns:xlink="http://www.w3.org/1999/xlink" width="1024" height="1024" viewBox="0 0 1024 1024"><defs><clipPath id="b"><rect width="1024" height="1024"/></clipPath></defs><g id="a" clip-path="url(#b)"><circle cx="512" cy="512" r="512" fill="#d9e0e7"/><rect width="568" height="567" rx="119" transform="translate(228 229)" fill="#fff"/><path d="M261.7,377.6l.3-14.4c1.3-5.1.9-10.4,1.2-15.6,1.7-10.9,3.5-21.8,7.4-32.2l2.5-5.5a120.292,120.292,0,0,1,20.1-25.4l4.2-3.5a123.02,123.02,0,0,1,20.5-11.9l3.9-1.5a188.547,188.547,0,0,1,33.3-5.7l5.5-.4,33.4-.7H632.7l33.4.8,5.5.3a197.658,197.658,0,0,1,33.2,6l5.6,2.2,17.8,10.8,4.1,3.5a124.052,124.052,0,0,1,20.2,25.4l2.9,6.9c3.7,9.6,5.3,19.7,6.8,29.8l1.6,26.6.1,4.4V644.2l-2,35.5c-1.8,15-6,29.1-13.9,42.1a112.448,112.448,0,0,1-28.8,27.5c-8.7,4.8-18.1,7.7-27.6,10.3-2.1-.7-3.6,1.4-5.5,1.3l-33.3,2.2-5.5.1-33.3.1H414l-33.3-.1h-5.5L341.9,761l-5.5-1a119.365,119.365,0,0,1-27.9-9.5l-6.5-4a198.816,198.816,0,0,1-17.4-15.7l-5.8-6.6c-.4-2.7-2.2-4.5-3.6-6.6-7.7-15-11.3-31-12.3-47.7l-1-25.5-.1-30V414.5Zm9.2,73.3V576.5L271,643l.2,7.7a151.448,151.448,0,0,0,1.1,22.3l.8,7.7c1.3,11,3.5,21.7,9.7,31.1a12.835,12.835,0,0,0,3.3,5.6,74.3,74.3,0,0,0,25,23.6c11.8,8.3,25.7,10.6,39.4,11.6,23.7,1.8,47.5,1.7,71.2,1.2H616l28.9-.1,9.9-.3c8.6-.1,17.1-.2,25.6-1.8,12.3-.6,23.4-5,34.1-10.6a72.4,72.4,0,0,0,24.1-22.6l4.1-6.4c6.2-9.9,8.7-20.9,9.7-32.4l.8-6.6a152.123,152.123,0,0,0,1.1-22.4l.2-5.3.2-37.8V408l-.1-22.2v-7.7c0-10.4-.1-20.8-1.9-31.1,0-2.3.3-4.6-.9-6.7-1-10.8-4-20.9-10.2-30-2.6-5.6-6.6-10.1-11.1-14.2a21.84,21.84,0,0,0-5.4-5.1A55.6,55.6,0,0,0,705,278.4c-2.8-1.2-5.6-2.5-8.8-2.6-7.2-2.8-14.7-3.3-22.3-3.9a28.938,28.938,0,0,0-8.8-.4c-10.7-1.4-21.5-1.2-32.2-.9H394c-10.8-.2-21.5-.6-32.2.9l-8.8.3c-7.9.6-15.9,1.1-23.4,4a14.9,14.9,0,0,0-6.8,2,52.363,52.363,0,0,0-21.2,12.4l-4.2,3.8a55.655,55.655,0,0,0-14.6,18.4c-5.4,8.5-8,17.9-8.9,27.8-1.3,2.5-1,5.1-1.1,7.8-1.6,9.6-1.7,19.2-1.7,28.9l-.1,7.7-.1,24.5v41.8Z" transform="translate(-1)" fill="#d9e0e7"/><path d="M644.7,505.3l.1,6.6L633,539.7l-1.5,4.3c-4.9,10.2-9.3,20.7-13.2,31.3a12.216,12.216,0,0,0-2.3,5.5c-5,10.1-9.1,20.6-13.2,31.1l-14.4,34.4a15.536,15.536,0,0,0-2.7,6.5c-.6,1.1-1.2,2.2-1.8,3.4-2.3,4.9-6.1,7.3-11.5,6.8-5.2-.4-8.3-3.4-9.8-8.3-.4-1.4-1-2.8-1.5-4.1l-2-6.5c-2.9-10.5-5.8-21-9.6-31.1l-1.5-5.5c-1.3-4.6-2.8-9.1-3.9-13.7-.7-2.9-1.7-3.2-4-1.4-6.5,5.1-13,10.1-19.5,15.1l-4.5,3.4a229.365,229.365,0,0,0-20.3,15.3,10.583,10.583,0,0,0-4.3,3.2,230.407,230.407,0,0,0-21,15.8l-4.5,3.3c-10,7-19.8,14.2-29.2,22a206.379,206.379,0,0,0-23.2,17.4c-9.8,6.1-13.4,5.3-20.1-4.6-2.8-4.2-5.8-8.4-8.7-12.6-1.8-3.2-3.8-6.3-5.9-9.3-4-5.1-5.3-10.4-1.9-16.3l5.7-4.3a10.957,10.957,0,0,0,2.6-.6c19-11.2,38-22.3,57-33.5,10.4-5.6,20.7-11.5,30.6-18L498,574.1l24.7-13.9c-6.2-4.5-10.6-9.8-16.8-12.8-.7-2.8-4.5-2.3-5.3-5.1-7.7-6.6-15.1-13.6-23.7-19.1l-5.5-4.5-1.9-1.2a17.163,17.163,0,0,1-2.7-8.8c2.2-8.6,5.3-11.1,14.2-11.1,3.5,0,6.9-.1,10.4-.2H613.5c5.5.1,11,.4,16.5.1C637,497,641.7,499.4,644.7,505.3Z" transform="translate(-1)" fill="#d9e0e7"/><path d="M360.7,453l-.2-5.4V380.9c0-9.4.2-18.8.1-28.2,0-2.8,1.1-5.8-.9-8.5l2.1-3.2,31-.3h7.8l29.9.3c1.1,1.2,1.2,2.8,1.3,4.3,0,.5-.1,1.1-.1,1.6-.2,12.3-.2,12.3-12.2,13H380.6q-1.05-.15-.9.9v18.9c-.4,7.8-.4,7.8,7.1,7.8,2,0,4-.1,6-.2h7.8c5.7.1,11.4.2,17.1.2,3.2,0,4.6,1.7,3.9,4.5-1.2,4.8,3.3,10.7-2.9,14.3-.8.5-2.2.1-3.3.1l-10.5.2c-7.2-.1-14.4,0-21.6-.2-3.3-.1-4,1.2-4,4.2.2,6.8.2,13.7-.1,20.5-.1,3.5,1.1,4.3,4.4,4.3,12-.2,24,0,36.1-.1,11.4,0,11.4,0,12,11.1l-.3,6.6c-1.9,1.5-4.2,1.1-6.3,1.1-8.6.1-17.2.1-25.8.2H394c-9-.1-18-.1-27-.2C364.9,454.2,362.6,454.6,360.7,453Z" transform="translate(-1)" fill="#d9e0e7"/><path d="M446.5,449.9a34.38,34.38,0,0,0,5.3-8.8c7.3-11.8,14.1-23.8,22-35.2,4.6-6.6,4.6-11.8-1-17.3a6.585,6.585,0,0,0-2-3.4c-5.2-9.5-10.8-18.7-16.8-27.7l-4-6.8c-1-3-4.1-5.1-3.8-8.7a42.472,42.472,0,0,1,22.1.1l3,5q7.2,13.5,15.6,26.1a19.231,19.231,0,0,0,4.1,6.7,54.671,54.671,0,0,0,6.3-10.7,245.088,245.088,0,0,0,13.5-22.6c2.2-1.9,2.5-5.8,6.3-5.8,4.9.1,9.9.1,14.8.2,3.1,0,4.4,1.3,3.3,4.5-2.7,2.9-4.2,6.5-5.9,9.9a272.207,272.207,0,0,0-14.9,24.3l-5.4,9c-6.5,8.8-6.5,8.8-.6,17.1,2.2,1.1,1.3,3.9,3,5.3l17.8,29c1.7,3,3.4,6,5.2,9,2.4,3.8,1,5.3-3.1,5.3-5.1,0-10.2.1-15.3.1-4.5-2.6-5.1-8-8.5-11.4a121.339,121.339,0,0,0-10-17.1c-1.5-2.7-3.1-5.4-4.5-8.2-2-4-3-1.6-3.9.6l-16.5,27.7-3.3,5.6c-.8.7-1.6,2-2.5,2-6,.2-12,.4-18.1.2C446.1,454,446,451.9,446.5,449.9Z" transform="translate(-1)" fill="#d9e0e7"/><path d="M645.1,413.1v32.1c-.4,8.8-.4,8.8-9.1,8.9-1.1,0-2.2.1-3.3.2l-5.5-.3-1.3-2.1V377.4c.1-2,.2-4,.2-6,0-12.2,0-12.2-12.2-11.5h-5.5c-3.9-.1-7.7-.2-11.6-.2-2.8,0-4-1.2-4-4,0-3.9-.1-7.7-.2-11.6a4.093,4.093,0,0,1,2.4-3.5h77.7c2.1.4,4.6-.3,5.7,2.4l.1,6.6a18.286,18.286,0,0,0-.2,3.3c.8,5.4-1.5,7.1-6.8,6.8-6.2-.4-12.5,0-18.8.1-7.7-.4-7.7-.4-7.7,7.1,0,3.8.1,7.7.1,11.5Z" transform="translate(-1)" fill="#d9e0e7"/><path d="M555,453l-.2-2.1V344.3l1.3-3.2c4.4,0,8.8.1,13.2-.2,3.3-.2,4.7,1.4,4.7,4.5v101c-.9,2.5,1.5,7-2.5,7.4C566.2,454.5,560.4,455.4,555,453Z" transform="translate(-1)" fill="#d9e0e7"/></g></svg>