<svg xmlns="http://www.w3.org/2000/svg" xmlns:xlink="http://www.w3.org/1999/xlink" width="1024" height="1024" viewBox="0 0 1024 1024"><defs><clipPath id="b"><rect width="1024" height="1024"/></clipPath></defs><g id="a" clip-path="url(#b)"><circle cx="512" cy="512" r="512" fill="#d9e0e7"/><path d="M709.7,223.3h-318c-43.9,0-56.8,33-56.8,53.8V782.3c0,23.4,12.6,32.1,19.6,35,7.1,2.9,26.6,5.3,38.3-8.2,0,0,150.1-174.2,152.7-176.8,3.9-3.9,3.9-3.9,7.8-3.9h97.1c40.8,0,47.4-29.1,51.6-46.2,3.6-14.4,43.4-218.2,56.7-282.9C768.9,249.9,756.4,223.3,709.7,223.3Zm-7.6,358.9c3.6-14.4,43.4-218.2,56.7-282.9m-67.9,10.1L677.6,379c-1.6,7.5-11.1,15.4-19.8,15.4H533.9c-13.9,0-23.9,9.5-23.9,23.4V433c0,13.9,10,23.8,24,23.8H639.1c9.8,0,19.5,10.8,17.4,21.3s-12.1,62.7-13.3,68.4c-1.2,5.8-7.8,15.6-19.5,15.6H537.9c-15.6,0-20.3,2-30.8,15C496.5,590.1,402.5,703,402.5,703c-1,1.1-1.9.8-1.9-.4V308.4c0-8.9,7.7-19.3,19.3-19.3H675.1A16.476,16.476,0,0,1,690.9,309.4Z" fill="#fff"/></g></svg>