<svg xmlns="http://www.w3.org/2000/svg" xmlns:xlink="http://www.w3.org/1999/xlink" width="1024" height="1024" viewBox="0 0 1024 1024"><defs><clipPath id="b"><rect width="1024" height="1024"/></clipPath></defs><g id="a" clip-path="url(#b)"><circle cx="512" cy="512" r="512" fill="#d9e0e7"/><path d="M568.6,497.7c-13.7,0-25.4,4.7-33.6,13.5-8.4,9-12.9,22-12.9,37.7,0,23.1,14.7,38.5,36.6,38.5,9.1,0,17.6-2.3,24.1-6.6l-3.5-22.4a21.1,21.1,0,0,1-14.3,5.3c-9.3,0-15.4-6.9-15.4-17.6,0-15.2,7.9-25,20.2-25a17.753,17.753,0,0,1,12.3,5l8.1-21.9c-5.7-4.3-13.1-6.5-21.6-6.5Z" fill="#fff"/><path d="M375.4,555.2a58.9,58.9,0,0,0-.9,9.4c0,14.8,7.8,22.7,22.5,22.7a40.493,40.493,0,0,0,15.8-2.9l.2-22.1a10.537,10.537,0,0,1-5.5,1.6c-3.5,0-5.2-2-5.2-6.1,0-1.4.2-2.9.3-4.3l15-95.1a204.259,204.259,0,0,1-28,6.5l-14.2,90.3Z" fill="#fff"/><path d="M688.9,555.2a58.9,58.9,0,0,0-.9,9.4c0,14.8,7.8,22.7,22.5,22.7a40.493,40.493,0,0,0,15.8-2.9l.2-22.1a10.537,10.537,0,0,1-5.5,1.6c-3.5,0-5.2-2-5.2-6.1,0-1.4.2-2.9.3-4.3l15-95.1a204.26,204.26,0,0,1-28,6.5l-14.2,90.3Z" fill="#fff"/><path d="M653.2,498.2c-19,0-34.5,5.5-44.8,15.8-9.3,9.3-14.2,22.3-14.2,37.3,0,22.2,11.7,36,30.4,36,8.9,0,16.5-3.3,23.3-10.1l.4-.4-.2,8.6h21.3l13.5-85.9c-8.8-.8-20.2-1.3-29.7-1.3Zm-.8,23.8L647,556c-4.4,5.9-8.8,8.5-14.1,8.5-7.1,0-11.2-5.7-11.2-15.7,0-7.8,2.3-14.4,6.6-19.2,4.7-5.2,11.6-7.9,19.9-7.9h4.2v.3Z" fill="#fff"/><path d="M501.1,507.8c-6.8-6.6-16.7-10.1-28.5-10.1-14.5,0-26.8,4.8-35.5,14-8.8,9.2-13.4,22.1-13.4,37.3,0,11.7,3.7,21.5,10.6,28.2s16.9,10.2,28.8,10.2c14.3,0,26.5-4.8,35.2-14s13.3-22.1,13.3-37.3c.1-11.8-3.5-21.6-10.5-28.3Zm-36,56.2c-8.8,0-13.8-6.4-13.8-17.6,0-15.2,7.6-25.3,19-25.3,8.8,0,14,6.6,14,17.6-.1,14.9-7.9,25.3-19.2,25.3Z" fill="#fff"/><path d="M847.8,397.4A57.828,57.828,0,0,0,790,339.6a19.289,19.289,0,0,0-2.5.1,57.774,57.774,0,0,0-32.9,103.4c2.7,2.4,5.4,3.9,8,5.9,9,6.4,26.8,21.5,26.8,41.6,0,28.3-6.9,38.2-4.5,40.3.8.5,4.1-1.2,9.8-6.9,34.2-35.7,50-84.3,52.8-117.8.3-1.9.3-7.8.3-8.8Zm-21.9,0a35.8,35.8,0,1,1-35.8-35.8,35.764,35.764,0,0,1,35.8,35.8Z" fill="#fff"/><path d="M781.9,419.1h-.2a.55.55,0,0,1-.3-.5l-1.2-15-13-7.5a.567.567,0,0,1,0-1l13.9-5.8,3.1-14.7a.43.43,0,0,1,.4-.4c.2-.1.4,0,.6.2l9.8,11.4,14.9-1.6a.55.55,0,0,1,.5.3.638.638,0,0,1,0,.6l-7.8,12.8,6.1,13.7c0,.1.1.2.1.3a.56.56,0,0,1-.6.5h-.1l-14.6-3.5L782.3,419c-.1,0-.3.1-.4.1Z" fill="#fff"/><path d="M270.6,499.6c-8.8-.8-20.1-1.4-29.6-1.4-43.4,0-58.9,27.4-58.9,53,0,22.2,11.7,36,30.4,36a30.464,30.464,0,0,0,18.1-6l.4-.3-.9,5.8c-2.2,12.5-9,18.1-21.9,18.1a46.874,46.874,0,0,1-16.5-2.8,191.02,191.02,0,0,1-11.3,18.8,64.931,64.931,0,0,0,28.6,6.5c13.5,0,24.4-3.3,32.3-9.8,8.2-6.7,13.5-17.1,15.7-30.9l13.6-87Zm-30.2,22.1v.2l-5.2,33.6h0c-4.8,6-9.2,8.7-14.3,8.7-7.1,0-11.2-5.7-11.2-15.7,0-7.7,2.3-14.3,6.6-19,4.6-5.1,11.5-7.9,19.8-7.9h4.3v.1Z" fill="#fff"/><path d="M354,507.8c-6.8-6.6-16.7-10.1-28.5-10.1-14.5,0-26.8,4.8-35.5,14-8.8,9.2-13.4,22.1-13.4,37.3,0,11.7,3.7,21.5,10.6,28.2s16.9,10.2,28.8,10.2c14.3,0,26.5-4.8,35.2-14s13.3-22.1,13.3-37.3c.1-11.8-3.5-21.6-10.5-28.3ZM318,564c-8.8,0-13.8-6.4-13.8-17.6,0-15.2,7.6-25.4,19-25.4,8.8,0,14,6.6,14,17.6-.1,15-7.9,25.4-19.2,25.4Z" fill="#fff"/></g></svg>