<svg xmlns="http://www.w3.org/2000/svg" xmlns:xlink="http://www.w3.org/1999/xlink" width="1024" height="1024" viewBox="0 0 1024 1024"><defs><clipPath id="b"><rect width="1024" height="1024"/></clipPath></defs><g id="a" clip-path="url(#b)"><path d="M513.5,390.8c-255.1,0-462,143.1-462,319.6a227.96,227.96,0,0,0,2,29.7C137.4,908.4,311.2,1024,512,1024c204,0,380.2-119.3,462.5-292,.7-7.1,1-14.3,1-21.6C975.5,533.9,768.7,390.8,513.5,390.8Z" fill="#d9e0e7"/><path d="M1018.9,439.5C983.7,191.1,770.2,0,512,0,253,0,39,192.3,4.8,441.9c127.8-93.2,308.4-151.3,508.7-151.3C712.1,290.6,891.3,347.7,1018.9,439.5Z" fill="#d9e0e7"/><path d="M513.5,327.8C298.3,327.8,109.1,404.7.1,521a512.207,512.207,0,0,0,5.8,68.8c85.4-135.4,280.5-230,507.6-230,225,0,418.6,92.8,505.2,226.1a517.858,517.858,0,0,0,5.3-68.1C914.5,403.3,726.8,327.8,513.5,327.8Z" fill="#d9e0e7"/><path d="M51.5,710.4c0-176.5,206.8-319.6,462-319.6s462,143.1,462,319.6c0,7.3-.3,14.4-1,21.6a508.377,508.377,0,0,0,44.2-146C932,452.6,738.4,359.8,513.4,359.8c-227.1,0-422.3,94.6-507.6,230A508.839,508.839,0,0,0,53.4,740.1,245.445,245.445,0,0,1,51.5,710.4Z" fill="#fff"/><path d="M.1,521c109-116.3,298.2-193.2,513.4-193.2,213.3,0,401,75.5,510.5,190.1v-5.8a516.591,516.591,0,0,0-5.1-72.5C891.4,347.8,712.1,290.7,513.5,290.7c-200.3,0-381,58.1-508.7,151.3A511.34,511.34,0,0,0,0,512C0,515,0,518,.1,521Z" fill="#fff"/><path d="M471,590.5,484.8,1024h56.8L556,591.3Z" fill="#fff"/><path d="M513.5,499c-119.2,0-215.9,66.9-215.9,149.4s96.7,149.4,215.9,149.4,215.9-66.9,215.9-149.4S632.7,499,513.5,499Zm0,226.9c-82.6,0-149.5-46.3-149.5-103.5S430.9,519,513.5,519,663,565.3,663,622.4,596.1,725.9,513.5,725.9Z" fill="#fff"/><path d="M513.5,434.9c-204,0-369.3,114.4-369.3,255.5S309.6,945.9,513.5,945.9,882.8,831.5,882.8,690.4,717.5,434.9,513.5,434.9Zm0,432.4c-158.9,0-287.8-89.1-287.8-199.1S354.5,469.1,513.5,469.1s287.8,89.1,287.8,199.1S672.4,867.3,513.5,867.3Z" fill="#fff"/><circle cx="232.6" cy="232.6" r="232.6" transform="translate(279.1 139.8)" fill="#fff"/></g></svg>