<svg id="Layer_1" data-name="Layer 1" xmlns="http://www.w3.org/2000/svg" viewBox="0 0 1024 1024"><defs><style>.cls-1{fill:#047dfa;}.cls-2{fill:#ced7e2;}.cls-3{fill:#959697;}.cls-4{fill:#e60304;}</style></defs><title>aroundme</title><path class="cls-1" d="M513.5,390.79c-255.15,0-462,143.1-462,319.62a224.78,224.78,0,0,0,2,29.65C137.35,908.37,311.17,1024,512,1024c204,0,380.16-119.33,462.45-292q1-10.7,1-21.58C975.49,533.89,768.65,390.79,513.5,390.79Z"/><path class="cls-1" d="M1018.9,439.48C983.68,191.06,770.15,0,512,0,253,0,38.95,192.29,4.77,441.89,132.52,348.7,313.19,290.58,513.5,290.58,712.07,290.58,891.35,347.7,1018.9,439.48Z"/><path class="cls-1" d="M513.5,327.78C298.29,327.78,109.06,404.7.09,521a515.32,515.32,0,0,0,5.78,68.8c85.37-135.35,280.53-230,507.63-230,225,0,418.58,92.83,505.19,226.15a515.77,515.77,0,0,0,5.27-68.11C914.54,403.32,726.77,327.78,513.5,327.78Z"/><path class="cls-2" d="M51.51,710.41c0-176.52,206.84-319.62,462-319.62s462,143.1,462,319.62q0,10.88-1,21.58a508.36,508.36,0,0,0,44.24-146C932.08,452.64,738.46,359.8,513.5,359.8c-227.1,0-422.26,94.61-507.63,230a508.37,508.37,0,0,0,47.61,150.3A224.78,224.78,0,0,1,51.51,710.41Z"/><path class="cls-2" d="M.09,521c109-116.26,298.21-193.18,513.41-193.18,213.27,0,401,75.54,510.46,190.06q0-2.91,0-5.84a516.37,516.37,0,0,0-5.1-72.52C891.35,347.7,712.07,290.58,513.5,290.58c-200.31,0-381,58.12-508.73,151.32A516.53,516.53,0,0,0,0,512C0,515,0,518,.09,521Z"/><polygon class="cls-3" points="471 590.51 484.8 1024 541.57 1024 556 591.25 471 590.51"/><path class="cls-2" d="M513.5,499c-119.24,0-215.9,66.87-215.9,149.36s96.66,149.36,215.9,149.36,215.9-66.87,215.9-149.36S632.74,499,513.5,499Zm0,226.88C430.92,725.87,364,679.56,364,622.43S430.92,519,513.5,519,663,565.3,663,622.43,596.08,725.87,513.5,725.87Z"/><path class="cls-2" d="M513.5,434.89c-204,0-369.33,114.4-369.33,255.51S309.53,945.92,513.5,945.92,882.83,831.52,882.83,690.4,717.47,434.89,513.5,434.89Zm0,432.37c-158.93,0-287.76-89.13-287.76-199.08S354.57,469.09,513.5,469.09s287.76,89.13,287.76,199.08S672.43,867.26,513.5,867.26Z"/><circle class="cls-4" cx="511.67" cy="372.43" r="232.61"/></svg>