<?xml version="1.0" encoding="utf-8"?>
<!-- Generator: Adobe Illustrator 19.2.1, SVG Export Plug-In . SVG Version: 6.00 Build 0)  -->
<svg version="1.1" id="Layer_1" xmlns="http://www.w3.org/2000/svg" xmlns:xlink="http://www.w3.org/1999/xlink" x="0px" y="0px"
	 viewBox="0 0 1024 1024" enable-background="new 0 0 1024 1024" xml:space="preserve">
<circle id="XMLID_1_" fill="#302F27" cx="512" cy="512" r="512"/>
<path fill="#EF4923" d="M696,488.3c-12.3-5.5-20.9-17.8-20.9-32.1V410c0-0.7,0-1.7,0-3c0-10.6,4.7-20.1,12.2-26.6
	c20.4-15.6,33.5-40.1,33.5-67.7c0-47-38.1-85.1-85.1-85.1c-47,0-85.1,38.1-85.1,85.1c0,27.6,13.2,52.2,33.6,67.8
	c7.4,6.4,12.1,15.9,12.1,26.5c0,1.3,0,2.3,0,3v46.4c-0.2,19.3-15.8,34.8-35.1,34.8c-9.2,0-17.6-3.5-23.8-9.3l-73.5-73.5
	c-0.5-0.5-1.1-1.1-1.9-2c-7.6-7.6-11-17.7-10.2-27.6c3.3-25.3-4.7-51.9-24.2-71.4c-33.2-33.3-87.1-33.3-120.4,0
	c-33.3,33.2-33.3,87.1,0,120.4c19.5,19.5,46.1,27.5,71.5,24.2c9.9-0.8,20,2.6,27.5,10.2c0.9,0.9,1.6,1.6,2.2,2.1L479,535
	c0.3,0.4,0.8,0.9,1.4,1.5c13.7,13.7,13.7,36,0,49.7c-6.4,6.4-14.7,9.8-23.1,10.2h-48c-0.7,0-1.6,0-2.8,0c-10.6,0-20.1-4.7-26.5-12.1
	c-15.6-20.4-40.1-33.6-67.7-33.6c-47,0-85.1,38.1-85.1,85.1c0,47,38.1,85.1,85.1,85.1c27.7,0,52.3-13.2,67.9-33.8
	c6.4-7.3,15.9-12,26.4-12c1.3,0,2.2,0,2.9,0h44.1c0.5,0,1,0.1,1.6,0.1c14.6,0,27.1,8.9,32.4,21.6c0.1,0.3,0.2,0.5,0.3,0.7
	c24,58,81.1,98.8,147.8,98.8c88.3,0,159.9-71.6,159.9-159.9C795.6,569.4,754.4,512.1,696,488.3z"/>
</svg>
