<svg xmlns="http://www.w3.org/2000/svg" xmlns:xlink="http://www.w3.org/1999/xlink" width="1024" height="1024" viewBox="0 0 1024 1024"><defs><clipPath id="b"><rect width="1024" height="1024"/></clipPath></defs><g id="a" clip-path="url(#b)"><circle cx="512" cy="512" r="512" fill="#d9e0e7"/><path d="M384.2,461.2c9.2-2,13.7-9.5,19-16.1,10.1-12.5,19.9-25.3,30.3-37.5a169.05,169.05,0,0,1,18.2-17.7c7.6-6.6,16.7-10.8,26.1-14.2,1-.3,2.1-.6,3.1-1,6.3-1.6,12.5-3.5,18.8-4.5a33.6,33.6,0,0,1,11.8.5c6.3,1.3,8.8,6.4,6.7,12.7-4.6,3-9.2,6-13.8,9.1-1,.7-1.9,1.6-2.8,2.3-.9.5-1.8,1.1-2.6,1.6a34.541,34.541,0,0,0-3.4,1.4c-15.6,9.7-27.2,23.4-37.2,38.6a18.811,18.811,0,0,0-3,7.5c-.7,4.3-2.1,8.9,1.7,12.7,3.1,3.7,7.6,4.6,13.5,2.3,6.4-2.5,12.7-5.3,19-8,12.5-5.5,25.6-6,38.9-5a13.382,13.382,0,0,1,2.6.9c1.5.1,2.9.3,4.4.4,17.7,3.2,26.3,15.3,30.7,31.4,1,3.6,1.4,7.4,2.4,12.3,5.4-12,10.3-22.8,15.1-33.7,9.1-20.3,18-40.7,27.2-61a92.358,92.358,0,0,1,6.7-12.4c4.3-6.9,11-10.4,19-11.2,9.3-.9,14.2,3.4,14.8,13-1.6,5.3-2.7,10.8-4.7,15.9-5.4,13.8-11.2,27.5-16.6,41.3-1.4,3.5-1.9,7.3-2.8,10.9-.2.8-.5,1.6-.9,3.1,1.7-.6,2.7-.9,3.7-1.2.6-.1,1.2-.3,1.9-.4.3-.3.6-.5.9-.8v.1c8-2.3,15.8-4.9,24.4-4.7,10,.3,18.9,2.9,26.4,9.8,6.8,6.1,12.4,13,15.9,21.6.4.5.8,1.1,1.2,1.6,5.8-5.7,11.3-11.7,17.5-17,13.2-11.3,28.1-18.7,46.1-19.1,12.5-.3,28.2,9.4,31.5,23.6a9.14,9.14,0,0,0,.7,1.4c-.3,4,.2,8.2-1,11.8-7.9,24.3-24.5,40-49.2,46.1-11.2,2.8-23.1,4.4-33.1-5.2a29.723,29.723,0,0,0-2.8,15c.3,4.7,1.8,8.9,6.7,10.8,6.7,2.6,13.5,1.6,20.3.3,1.2-.4,2.4-.7,3.5-1.1.8-.4,1.6-.7,2.5-1.1,15.1-5.5,28.2-13.9,38.2-26.6a31.016,31.016,0,0,0,2.9-5h-.1l1.2-1.2-.1.1,1.1-1.1h0a3.915,3.915,0,0,0,.8-1c.3-.1.4-.2.3-.5,1.1-1.7,2.1-3.4,3.2-5.1l.1-.1a21.152,21.152,0,0,0,1.1-2.1l-.1.1c.4-.8.8-1.5,1.2-2.3l-.1.1c.4-.4.7-.8,1.1-1.2h0c1.1-1.8,2.1-3.6,3.2-5.4.6-1.2,1.2-2.5,1.8-3.7l1.5-3h0c5.4-12.1,11.1-24,16.1-36.2,7.8-19.1,15.1-38.4,22.7-57.7,3.1-7.8,7.4-14.7,15.9-17.6a64.5,64.5,0,0,1,6.3-1.6c1.5,0,3.1.1,4.6.1,5.1,1.8,6.7,3.5,6.5,8.4-.2,4.2-1.3,8.4-1.9,12.6a10.234,10.234,0,0,0-1.4,2.2c-2.5,6.4-4.9,12.9-7.4,19.3-7.3,18.9-14.7,37.8-22,56.7q-8.55,22.05-16.9,44.1c-3.2,8.3-6.6,16.5-9.7,24.8-1.2,3.3-2.5,6.9.2,10.2,1.8,1.8,3.7,1.7,5.6.2,6.9-2,13.9-4.1,20.8-6.1,1.1,0,2.3.1,3.4.1,2.4,1.1,2.4,2.9,1.5,4.9-1,2.1-1.9,4.2-2.9,6.3l.1-.1A12.668,12.668,0,0,1,841,562a10.919,10.919,0,0,0-1.7,1.3c-9.7,9.7-21.1,16.2-34.6,18.4-7.4,1.2-15,.9-22.6,1.3-4.2-1.7-8.3-3.5-10.9-7.6-.5-3.2-1-6.3-1.7-10.3q-29.55,23.1-66.3,18.3c-10.6-2-20.1-5.9-26.3-15.4l-3-6.6v-1.8h-.6c0,.6.1,1.3.1,1.9-2,2.6-3.9,5.1-5.9,7.7-.6.5-1.1,1.1-1.7,1.6-6.4,3.4-12.8,6.8-19.2,10.3-.4.2-.6.8-1,1.2-1.9.3-3.8.7-5.7,1-1.4.3-2.7.5-4.1.8-3.4.8-6.7,1.6-10.1,2.4-5.3,0-10.5,0-15.8-.1-2-.4-4.1-.7-6.1-1.1-1-.3-2-.5-3-.8-1.3-.5-2.5-.9-3.8-1.4-2.7-.8-5.4-1.7-8.2-2.5l.1.1-1.1-1.1c-2.5-2.2-5-4.5-6.9-6.3-3.2,3.9-6.4,7.8-9.7,11.7-3.7.1-7.5.1-11.2.3-2.6.1-5.2.5-7.8.8-.3-.2-.6-.3-.9-.5-2-.3-3.9-.5-5.9-.8-6.2-1.2-8.8-5.2-7.6-11.4l1.8-9c3-4.1,3.3-8.9,4.8-14.5-5.9,6.1-10.8,11.4-15.9,16.5a56.972,56.972,0,0,1-29.7,15.7c-5.6,1.1-11.5.9-17.2,1.2-12.6-1.8-23.2-6.9-30.1-18.1-4.1-6.6-6-13.9-6.7-21.6a81.649,81.649,0,0,1,3.3-31.1,23.55,23.55,0,0,0-.3-15.5c-.8-3.4-3.3-4.8-6.5-5.8-3.1.8-5.4,2.2-6.5,5.6a78.723,78.723,0,0,1-3.2,7.4c-.4,1.1-.7,2.3-1.1,3.4a12.59,12.59,0,0,1-.4,2.7,324.6,324.6,0,0,1-22.7,56.9,211.5,211.5,0,0,1-37.9,52.1c-12.1,12.2-24.2,24.4-39.6,32.5a70.6,70.6,0,0,1-9.1,1.1c-8.7-.1-13.9-6.7-12.3-15.4,1.3-6.7,4.8-11.9,10.1-16.2,16.8-13.7,31.9-29.2,43.1-48,11.4-19,21-38.9,27-60.4,1.3-4.5,1.4-9.3,2-13.9-.4-1.9-.8-3.7-1.1-5.3-7.6-3.1-13-1.9-17.3,4.2a57.541,57.541,0,0,0-7,12.9c-7.2,18.7-14,37.7-21.2,56.4-3.1,8-8.5,13.9-17.2,16.1-2.9.7-6.1.6-9.2.8a.75.75,0,0,1-.5-.1c-11.9-2.9-15.2-8.2-11.2-19.7,4.2-12.1,9.1-23.9,13.6-35.9,1.9-5.1,3.4-10.3,5-15.4.3-1.6.7-3.1,1-4.7-.4-4.2-.7-8.4-1.3-12.5-.1-.9-1.2-1.6-1.9-2.3-1-.4-2-.9-2.9-1.3-3.7-.1-7.3-.1-11-.2a21.985,21.985,0,0,0-16.3,8.5c-6.7,8.3-8.8,18.8-13.3,28.2a10.892,10.892,0,0,0-.3,3.2c-.6,1.3-1.1,2.7-1.7,4l-2.7,6.3a21.721,21.721,0,0,1-.7,2.4,25.64,25.64,0,0,0-2.2,3.5c-2.3,6.3-4.5,12.6-6.7,18.9-2.5,7.1-6.7,12.8-14.2,15.3-2.5.8-5.1,1.3-7.7,1.9-11.4-1.4-17-9.7-13.4-21.7,3.3-11.1,7.5-21.9,11.8-32.7,6.1-15.5,12.5-30.9,18.8-46.3,2.9-7,5.5-14.2,9-20.9,4.9-9.4,12.7-14.8,23.9-13.7,3.2.3,6.3,1.8,9.5,2,10.1.6,20.3.8,30.4,1.1,4.5-.2,9-.3,13.5-.5,2.5.5,5,1,7.6,1.5,1.3.4,2.6.8,3.9,1.1,5.1,2.1,10.3,4.2,15.4,6.2a24.379,24.379,0,0,0,2.6.6c1.5,1.1,3,2.1,4.5,3.2-3.7-.8-7.4-1.2-11-2.3-7.3-2.3-13.7-7.3-21.7-7.6l-2.7-.9h-5.7c-2.7.3-5.4.7-8.1,1-12.1,0-24.3,1-36.2-2.1-2.4-.6-5.5-1.3-8,1.5,3.9.8,7.4,1.6,10.9,2.3,9.2,2,18.6,3.3,28,2.2,13.7-1.6,26.9-2.1,39.3,5.6a25,25,0,0,0,15.7,3.4c2-.2,3.7-.4,3.6-3,.9-.7,1.8-1.3,2.7-2A16.118,16.118,0,0,1,384.2,461.2Zm409,19.4c.2-.2.5-.3.7-.5a4.351,4.351,0,0,0-.7-.6c1.6-16.2-9.6-26.5-22.9-29.5a9.568,9.568,0,0,0-9.8,0c-1.8.2-3.6.4-5.4.7a5.7,5.7,0,0,1-.1,1.3,8.982,8.982,0,0,0,2.4,1.2c2.5.2,5.1,0,7.6.1,16.2.2,26.9,12.4,25.1,28.4-.1,1.2.6,2.5,1.2,4.9.9-2.3,1.3-3.5,1.7-4.6a3.4,3.4,0,0,0,.2-1.4Zm-295.5,4.2c-.3,0-.4.1-.4.4-.2.3-.5.5-.7.8a19.266,19.266,0,0,0-4,2.4c-8.3,8.2-12.9,18.5-14.5,29.8-1,6.8-1.5,14.1,3.2,20.3,2.8,6.5,8,8.9,14.7,9a26.164,26.164,0,0,0,17-6c15.7-12.3,22.5-28.7,21.4-48.4-.2-4.2-1.4-8.6-5.3-11.4-2.6-1.3-5.2-3.1-7.9-3.7-7-1.5-13.7-.4-19.5,4.4-.8.5-1.7,1-2.5,1.5a.792.792,0,0,0-.8.5C497.9,484.3,497.7,484.5,497.7,484.8Zm250.7-8.5c-2,1.1-4,2.1-6,3.2a17.491,17.491,0,0,0-9.3,21.5c1.8.4,3.8.8,5.9,1.2,12.6,2.2,26.2-6.8,27.8-20.9-.8-1.5-1.8-3.5-2.8-5.6-.5-.2-1-.3-1.5-.5a8.744,8.744,0,0,1-.8-1c-1.3-.3-2.7-.7-4-1-3,1-6.1,2-9.3,3.1ZM643.7,395.5c.9-.7,2.3-1.3,2.6-2.2a47.9,47.9,0,0,0,1.6-8.4c.4-3.2,0-6.5-3.1-8.1-3.3-1.7-7-1.5-11.3.3,4.3,1.1,7.6,2,11.3,2.9,0,2.6.1,4.5,0,6.5-.2,3-.7,6-1.1,9-.1.2-.3.3-.2.2Zm-24.1,99.8a10.705,10.705,0,0,0-1.4,1.6c-11,10.9-15.3,24.3-13.5,39.4.4,3.4,3.2,6.6,5,9.9a15.515,15.515,0,0,0,12.4,5.5c11.1.1,19.3-5.6,26.2-13.4,3.7-4.2,6.4-9.2,9.6-13.8.9.2,1.8.4,2.9.6-.4-2.2-.6-3.8-.9-5.5.7-5.7,2.3-11.5,2-17.1-.7-14.3-10.3-22.2-23.3-18.6C630.9,485.2,624.2,488.5,619.6,495.3Zm-56.2,3.3c.4-.1.9-.1,1.3-.2,1.6-21.1-7.4-41.1-22.5-46.6-12.1-4.4-30.1-5.3-33.2-1.2,6.6.5,13.2.9,19.8,1.7,7.6.9,14.7,2.9,20.5,8.6,7.1,7,9.5,15.9,11.3,25.3C561.6,490.3,562.5,494.5,563.4,498.6Zm138.8-8.8c-1.5-2.1-3.1-4-4.5-6.2-2.9-4.8-5.2-9.9-8.6-14.3-8.3-11-19.3-17.2-33.4-16.7a56.53,56.53,0,0,0-7,1.1,6.6,6.6,0,0,0,.1,1.4c2.4.1,4.8.4,7.2.4,11.4.3,21.2,4,28.3,13.3,3.2,4.2,6.1,8.5,8.9,12.8C695.5,485.1,698.1,488.1,702.2,489.8ZM499.5,552.2c-.1-.4-.2-.7-.3-1.1-2.8-.4-5.7-.4-8.3-1.2a21.58,21.58,0,0,1-15.2-20.4c-.1-6.3.6-12.6.9-18.9a35.174,35.174,0,0,0-.3-4.5c-.8.3-1.1.4-1.1.5a32.376,32.376,0,0,0-1.3,4.1c-2.7,11.2-3.2,22.3,3,32.6,4.2,7,10.6,10.7,18.9,10.5C497,553.6,498.2,552.7,499.5,552.2ZM603.2,514c-.6-.1-1.1-.1-1.7-.2-4.8,10.7-5.1,21.7.4,32.2,4.3,8.2,11.9,11.8,21.1,12,1.8,0,3.7.1,3.9-2.5-.3-.2-.4-.4-.6-.4-1.3-.1-2.5-.2-3.8-.3-9.6-1.1-16.4-5.5-19.6-15.2a36,36,0,0,1-.6-20.3A41.8,41.8,0,0,0,603.2,514ZM708,526.8c-3.7,2.5-4.6,14.3-1.5,21.4,3.4,7.8,15.2,11.4,27.3,8.3l-1.2-2.4H722.1c-8.6.1-14.7-7.5-14.1-14.6C708.2,535.3,708,531.2,708,526.8ZM451.7,439.1c-3.2,4.4-3.9,9.4-3.3,14.4.9,7.2,8.5,13.5,15.1,12.8.8-.1,1.6-1.1,2.6-1.8-1-.7-1.3-1-1.6-1-9.3,0-14.7-9.1-12.3-17.5C452.8,443.9,451.9,441.4,451.7,439.1ZM811,557.5V540.1c-3.9,4.2-4.6,8.3-4.6,12.8,0,6,5.5,10,11.4,9.4.6-.1,1.2-1.3,1.9-2.2C816.7,559.2,814.1,558.4,811,557.5Zm-82.7-67.3c-.8,1.1-2,2.1-2.3,3.4-1.7,5.9,1.5,11.5,7.6,13.4a19.027,19.027,0,0,0,13.3-.3C732.7,504.4,727.9,505.7,728.3,490.2Zm138.1-90.9c2.9-5.2,4.9-10.6,4.1-16.4-3.4-2.9-10.5-3.4-11.6-1.3,1,1.1,2,2.1,2.6,2.7,1.4-.3,2.8-.7,4.4-1C868.9,388.9,863.9,394.1,866.4,399.3ZM420,525.6c.5.2,1,.5,1.4.7,4.4-6.5,4.7-14.6,7.9-21.6.5-1-.2-2.5-.4-3.8-.5,0-1-.1-1.4-.1C425,509,422.5,517.3,420,525.6Zm76.8-150.8c6.1,2.2,13.5-1.8,18.2,5.8,1.6-3.4.6-5-1.8-6.2C507.7,371.7,502.3,372.1,496.8,374.8Zm124.5,86.1c2.3.1,3.9,3.7,6.9.6-1.8-1.2-3.4-2.3-5.4-3.5a37.826,37.826,0,0,0,1-5.7c.1-1.7,2.8-4.2-1.9-5.2C620.8,451.4,619.1,455.6,621.3,460.9Z" fill="#fff"/><path d="M230,597.3c4-1.5,8-3.1,12.1-4.3,2.1-.6,4.4-.6,5.4,2.3-.1,3.3-2.4,5.3-4.8,7.3-3.1,2.6-6.2,5.3-9.4,8-5.8,4.4-11.7,8.8-17.5,13.2h0c-.7.4-1.4.8-2.2,1.2l.1-.1c-3,2-6,3.9-9,5.9-.9.5-1.8,1.1-2.7,1.6-6.4,3-12.7,6-19.1,9-1.3.1-2.5.1-3.8.2-10,.5-15.7-4.3-16.9-14.2a67.634,67.634,0,0,1,2.9-27.9c2.8-8.8,6.1-17.4,9.1-26a37.831,37.831,0,0,0,1-4.6v.2l1.2-.9c.4-1.1.7-2.3,1.1-3.4h0c1.1-2.6,2.1-5.1,3.2-7.7V557c.3-1,.7-2,1-3,.4-.4.7-.9,1.1-1.3.3-1,.6-2,1-3a.55.55,0,0,1,.5-.3c.5-1.4,1-2.8,1.5-4.1s1.1-2.7,1.6-4c4.5-10.5,9.1-20.9,13.4-31.5,1.2-3,1.3-6.3-1.7-9.4-1.8.3-3.9.7-5.9,1-2.9,1.2-5.9,2.2-8.7,3.7-4.6,2.3-9,5-13.4,7.5h.1c-1,.4-1.9.8-2.9,1.2-.5.3-1,.7-1.5,1v-.1c-1.6.8-3.1,1.5-4.7,2.3-2.5.9-5,2-7.6,2.7-2.3.7-4.7,1.1-6.4-1.8.7-5.3,4.1-9.5,7.5-13.3,5.6-6.4,11.7-12.4,17.5-18.6,5.1-5.1,10.2-10.2,15.4-15.3h0l1.1-1.1h1.9c.4-.4.8-.9,1.2-1.3a38.331,38.331,0,0,0,2.9-2.8c1.3-1.5,2.6-3.1,3.9-4.6,2.5-1.8,5.1-3.5,7.6-5.3h0c6.4-3.2,12.7-6.5,19.1-9.6a15.326,15.326,0,0,1,3.2-.5c4.7,0,9.3.1,14,.1,1.3.4,2.6.7,3.9,1.1-.1.4-.1.9-.2,1.3-1.3,0-2.7-.1-4-.1-1-1.5-2.2-1.7-3.4-.2-2.7.7-5.9-1-8.9,2,7.2.5,13.6,1.1,19.3,4.6.6,1.8,1.1,3.5,1.5,4.7-1,5.2-2,9.9-2.9,14.6,3.5-2.7,4.5-5.7,5.3-12.5,1.5-1.1,1.5-2.2.1-3.3l-.5-.2c-.2-1.2-.4-2.4-.6-3.5-1.9-1.9-3.8-3.9-5.6-5.8l3.6-.3c4.4,2.1,6.1,5.8,6.3,10.4.1,1.6.1,3.2.1,4.8-7.8,25.8-19.8,49.8-30.7,74.4-.3.8-.7,1.6-1,2.4-3.3,7.8-6.9,15.6-9.8,23.5-2.8,7.7-4.9,15.7-7.3,23.6,0,.9-.1,1.8-.1,2.8-2.4,1.6-1.3,3.8-1.1,5.9v8.8c3.5-.6,6-1,8.5-1.4,3.6-1.5,7.2-3,10.7-4.5,1.1,0,2.2.1,3.3.1.2.2.4.3,1,.8a7.815,7.815,0,0,1-.8-1A6.152,6.152,0,0,1,230,597.3Zm-21.3-27.2c-.5-.1-1-.1-1.5-.2-3.7,9.5-6.4,19.2-5.6,29.5a16.663,16.663,0,0,0,2.4,7.1c2.1,3.5,5.6,3.9,8.9,1.4-7.2-2.1-8.2-3.5-8.3-11.1a58.213,58.213,0,0,1,3.6-20.7C208.8,574.2,208.6,572.1,208.7,570.1Zm-51.5-57.6v1.7c1.2-.1,2.4-.1,3.6-.2v-1.3C159.6,512.7,158.4,512.6,157.2,512.5Z" fill="#fff"/><path d="M169.7,486.1c-2.2,1.8-4.4,3.6-6.5,5.3-3.2-2.2-1.7-4.5-1-6.6,6.4-19.8,16.3-37.7,28.8-54.4,11.2-14.8,25.4-26.2,40.2-37.3,1.9-3.5,3.6-7.2,5.8-10.8,11-18,35.6-14.8,45.6.5,1.7,2.5,2.8,5.4,4.2,8.1a7.378,7.378,0,0,0,0,2.1c4.9,16.8-11.1,35.8-27.8,34.4-5.9-.5-11.4-1.3-16.4-4.9-1.7.3-3.4.2-4.8.9-5.4,2.6-10.8,5.1-15.9,8.1-13,7.7-21.6,19.5-29.7,31.8-1.2,1.9-1.9,4.1-2.9,6.1h.1l-1.1,1.1h0c-6.5,3.1-11.2,8.4-16.2,13.4h0A16.955,16.955,0,0,1,169.7,486.1Zm111.7-79c.4,0,.8.1,1.2.1.6-1,1.5-1.9,1.7-3,2.8-15-5.9-28.2-20.9-31-1.2-.2-2.6.7-4,1.1,0,.4.1.8.1,1.2,7.4,1.3,13.7,4.5,18.3,10.6C282.7,392.3,282.1,399.7,281.4,407.1Z" fill="#fff"/><path d="M187.5,541.1c-.5,1.3-1.1,2.7-1.6,4-.5,1.4-1,2.8-1.5,4.1a.55.55,0,0,0-.5.3c-.3,1-.6,2-1,3-.4.4-.7.9-1.1,1.3-.3,1-.7,2-1,3v.1c-1.1,2.6-2.1,5.1-3.2,7.7h0c-.7.9-1.5,1.7-2.2,2.6v1.6c-.7-.5-1.8-.9-2-1.6-3-11.1-6-22.2-8.7-33.4-1.2-4.9-1.7-9.9-2.5-14.9,1.5-1.4,3.1-2.9,4.6-4.3v.1c1-.2,1.9-.4,2.9-.7l1.6-1.6h-.1a28.258,28.258,0,0,0,5-1.3c3.3-1.3,6.5-2.8,10.2-4.5,0,8-.1,15.3.1,22.7a61.681,61.681,0,0,0,1.2,7.3A35.422,35.422,0,0,0,187.5,541.1Zm-4.7-25.8c-2.8,4.2-2.1,8.8-1.9,13.2.2,4.3-1.7,9.2,3.1,12.7C183.6,532.6,183.2,524,182.8,515.3Z" fill="#fff"/><path d="M281.2,643.4c-22.9,8.3-44.5,4.8-65-7.7-1.2-.8-2.5-1.5-3.7-2.3-1-1.1-2.1-2.2-3.3-3.4,1.5-1.7,3-3.4,4.4-5.1l-.1.1c.7-.4,1.4-.8,2.2-1.2h4.1c2,1.6,3.4,2.8,4.8,4,14.9,13.1,31.9,18.3,51.5,13.8,1.2-.3,2.5-.5,3.7-.7A12.3,12.3,0,0,1,281.2,643.4Z" fill="#fff"/><path d="M380.6,464.4c-1.5-1.1-3-2.1-4.5-3.2h8c1.1.4,2.2.9,3.2,1.3-.9.7-1.8,1.3-2.7,2C383.3,464.5,382,464.4,380.6,464.4Z" fill="#fff"/><path d="M346.7,451.7c-4.5.2-9,.3-13.5.5C337.6,452,342.2,451.9,346.7,451.7Z" fill="#fff"/><path d="M243.4,445.6c-4.7,0-9.3-.1-14-.1A21.658,21.658,0,0,1,243.4,445.6Z" fill="#fff"/><path d="M813.9,555.9c.8,0,1.6-.1,2.3-.1,1.1.1,2.2.2,3.2.3C817.6,557.6,815.7,557.8,813.9,555.9Z" fill="#fff"/><path d="M535.6,447.3c-1.5-.1-2.9-.3-4.4-.4C532.6,447,534.1,447.1,535.6,447.3Z" fill="#fff"/><path d="M326,508.8c-.3,1.6-.7,3.1-1,4.7C325.3,511.9,325.6,510.3,326,508.8Z" fill="#fff"/><path d="M597.3,583.5c1.3.5,2.5.9,3.8,1.4C599.8,584.4,598.5,583.9,597.3,583.5Z" fill="#fff"/><path d="M358.1,454.3c-1.3-.4-2.6-.8-3.9-1.1C355.5,453.6,356.8,454,358.1,454.3Z" fill="#fff"/><path d="M229.9,598.6c-1.1,0-2.2-.1-3.3-.1,1.1-.4,2.3-.8,3.4-1.2v1.1Z" fill="#fff"/><path d="M247.2,448c.1-.4.1-.9.2-1.3,1.2.4,2.4.7,3.6,1.1l-3.6.3Z" fill="#fff"/><path d="M700.7,482.8c-.4-.5-.8-1.1-1.2-1.6C699.9,481.7,700.3,482.2,700.7,482.8Z" fill="#fff"/><path d="M319.8,492.6c-3.7-.1-7.3-.1-11-.2C312.5,492.5,316.1,492.5,319.8,492.6Z" fill="#fff"/><path d="M657.9,524.5c.7-1.6,1.3-3.3,2-4.9.3,1.7.6,3.4.9,5.5C659.8,524.9,658.8,524.7,657.9,524.5Z" fill="#fff"/><path d="M770.4,450.1h-9.8A9.346,9.346,0,0,1,770.4,450.1Z" fill="#fff"/><path d="M339.5,453.5c-2.7.3-5.4.7-8.1,1C334.1,454.2,336.8,453.9,339.5,453.5Z" fill="#fff"/><path d="M279,532.3c-.6,1.3-1.1,2.7-1.7,4C277.9,534.9,278.4,533.6,279,532.3Z" fill="#fff"/><path d="M501.6,482.3c-.8.5-1.7,1-2.5,1.5C499.9,483.3,500.8,482.8,501.6,482.3Z" fill="#fff"/><path d="M501.7,394.9c-.9.5-1.8,1.1-2.6,1.6C499.9,396,500.8,395.5,501.7,394.9Z" fill="#fff"/><path d="M667.6,569.6c-.6.5-1.1,1.1-1.7,1.6C666.5,570.6,667,570.1,667.6,569.6Z" fill="#fff"/><path d="M640.1,583.6a1.7,1.7,0,0,0-.1.7c-1.3,0-2.6,0-3.9.1C637.4,584.1,638.7,583.9,640.1,583.6Z" fill="#fff"/><path d="M737.4,550.5c1.2-.4,2.4-.7,3.5-1.1C739.8,549.8,738.6,550.1,737.4,550.5Z" fill="#fff"/><path d="M761.7,474.2c-1.3-.3-2.7-.7-4-1C759.1,473.5,760.4,473.8,761.7,474.2Z" fill="#fff"/><path d="M619.6,495.3a10.705,10.705,0,0,0-1.4,1.6C618.7,496.3,619.1,495.8,619.6,495.3Z" fill="#fff"/><path d="M431.9,504.6c-.4,1.1-.7,2.3-1.1,3.4C431.2,506.9,431.6,505.7,431.9,504.6Z" fill="#fff"/><path d="M274.6,542.5a21.721,21.721,0,0,1-.7,2.4A21.721,21.721,0,0,0,274.6,542.5Z" fill="#fff"/><path d="M674,561.8l-.5.1c0-.6-.1-1.3-.1-1.9h.6Z" fill="#fff"/><path d="M792.2,505.8c.4-.8.8-1.5,1.2-2.3C793,504.3,792.6,505.1,792.2,505.8Z" fill="#fff"/><path d="M791.1,507.9a21.152,21.152,0,0,0,1.1-2.1A21.136,21.136,0,0,1,791.1,507.9Z" fill="#fff"/><path d="M347.9,454.4l-2.7-.9C346.2,453.8,347,454.1,347.9,454.4Z" fill="#fff"/><path d="M589.2,581.1l-1.1-1.1A11.417,11.417,0,0,1,589.2,581.1Z" fill="#fff"/><path d="M842.4,561.4a12.668,12.668,0,0,1-1.3,1.1A12.655,12.655,0,0,1,842.4,561.4Z" fill="#fff"/><path d="M784.5,516.8l1.2-1.2Z" fill="#fff"/><path d="M785.6,515.7l1.1-1.1Z" fill="#fff"/><path d="M786.8,514.5a3.915,3.915,0,0,0,.8-1C787.3,513.9,787,514.2,786.8,514.5Z" fill="#fff"/><path d="M793.3,503.7c.4-.4.7-.8,1.1-1.2A11.985,11.985,0,0,0,793.3,503.7Z" fill="#fff"/><path d="M497.3,485.2a1.779,1.779,0,0,1-.7.8C496.8,485.7,497.1,485.5,497.3,485.2Z" fill="#fff"/><path d="M498.3,484.4c-.2.2-.4.3-.6.5C497.7,484.5,497.9,484.3,498.3,484.4Z" fill="#fff"/><path d="M632,455.2c.3-.3.6-.5.9-.8C632.6,454.7,632.3,454.9,632,455.2Z" fill="#fff"/><path d="M793.2,481.9c0-.4.1-.9.1-1.3A6.152,6.152,0,0,0,793.2,481.9Z" fill="#fff"/><path d="M793.2,480.6a4.1,4.1,0,0,1,.1-1.1,4.351,4.351,0,0,0,.7.6A3.509,3.509,0,0,1,793.2,480.6Z" fill="#fff"/><path d="M157.2,512.5c1.2.1,2.4.1,3.6.2V514c-1.2.1-2.4.1-3.6.2Z" fill="#fff"/><path d="M204.7,630.7c-.9.5-1.8,1.1-2.7,1.6C202.9,631.8,203.8,631.3,204.7,630.7Z" fill="#fff"/><path d="M253.6,457.5c-.2-1.2-.4-2.4-.6-3.5C253.2,455.2,253.4,456.4,253.6,457.5Z" fill="#fff"/><path d="M243.2,447.9c-1.1-.1-2.3-.1-3.4-.2C241,446.3,242.1,446.4,243.2,447.9Z" fill="#fff"/><path d="M208.6,586.9c0,.9-.1,1.8-.1,2.8A26.2,26.2,0,0,1,208.6,586.9Z" fill="#fff"/><path d="M254,461c0-1.1,0-2.2.1-3.3C255.5,458.8,255.5,459.9,254,461Z" fill="#fff"/><path d="M226.7,537.4c-.3.8-.7,1.6-1,2.4A24.422,24.422,0,0,1,226.7,537.4Z" fill="#fff"/><path d="M230,598.5c.2.2.3.4.8,1a7.814,7.814,0,0,0-1-.8Z" fill="#fff"/><path d="M207.4,595.6l.3.2-.3.2Z" fill="#fff"/><path d="M191.4,469.6c.4-.4.8-.9,1.2-1.3A15.381,15.381,0,0,0,191.4,469.6Z" fill="#fff"/></g></svg>