<svg xmlns="http://www.w3.org/2000/svg" xmlns:xlink="http://www.w3.org/1999/xlink" width="39.998" height="40" viewBox="0 0 39.998 40">
  <defs>
    <clipPath id="clip-path">
      <rect id="Rechteck_11389" data-name="Rechteck 11389" width="39.998" height="40" fill="none"/>
    </clipPath>
  </defs>
  <g id="Gruppe_15841" data-name="Gruppe 15841" transform="translate(15592 20302)">
    <g id="Gruppe_15837" data-name="Gruppe 15837" transform="translate(-15592 -20302)">
      <g id="Gruppe_15833" data-name="Gruppe 15833" clip-path="url(#clip-path)">
        <path id="Pfad_14313" data-name="Pfad 14313" d="M18.856,0h2.4c0,.041.019.073.066.073l.319,0a.288.288,0,0,1,.111.009.536.536,0,0,0,.221.028.451.451,0,0,1,.149.008.656.656,0,0,0,.239.029.245.245,0,0,1,.093.006.584.584,0,0,0,.239.032A.251.251,0,0,1,22.782.2a.393.393,0,0,0,.147.022.333.333,0,0,1,.11.014A.587.587,0,0,0,23.2.264c.055.007.109.032.163.033A3.115,3.115,0,0,0,23.7.343a.412.412,0,0,0,.163.035.7.7,0,0,0,.182.035,1.98,1.98,0,0,0,.271.062,2.269,2.269,0,0,0,.324.08c.117.019.229.054.344.079s.241.058.359.1c.1.032.2.063.3.087.121.029.237.071.355.111s.239.065.357.1c.154.049.3.115.454.167s.317.108.473.169q.46.18.91.383c.215.1.429.2.644.3.243.113.472.253.71.375.155.079.31.159.459.249.186.112.37.228.56.335.076.042.149.089.222.137.187.123.376.242.557.373.146.105.3.2.437.317a6.117,6.117,0,0,1,.61.458.867.867,0,0,1,.093.062c.091.094.213.152.3.255a.115.115,0,0,0,.044.034.433.433,0,0,1,.13.105.351.351,0,0,0,.068.064,1.108,1.108,0,0,1,.24.207.6.6,0,0,0,.11.1.938.938,0,0,1,.185.156,2.973,2.973,0,0,0,.426.391.255.255,0,0,1,.04.039l.344.345a.289.289,0,0,1,.062.069.784.784,0,0,0,.169.2c.078.081.159.159.238.239a.375.375,0,0,1,.076.082.941.941,0,0,0,.181.213.461.461,0,0,1,.077.082.669.669,0,0,0,.155.186,1.689,1.689,0,0,1,.15.19,2.178,2.178,0,0,1,.214.257c.052.08.121.142.176.217.091.125.181.252.275.375a4.264,4.264,0,0,1,.262.362,1.137,1.137,0,0,0,.105.154c.115.132.192.29.3.428.089.193.233.352.333.539.067.126.152.242.216.37.014.028.03.054.046.081.078.134.162.265.233.4.2.383.386.769.578,1.154a.509.509,0,0,1,.049.1,1.457,1.457,0,0,0,.1.24c.035.08.064.162.1.24.058.117.1.242.15.361s.091.244.139.365c.055.138.11.277.158.418.087.252.172.5.246.761.062.214.132.426.185.643.032.133.081.26.108.394.022.109.045.218.072.326a4.891,4.891,0,0,1,.1.49,2.054,2.054,0,0,1,.062.271c.023.069.016.148.046.217-.014.114.049.217.043.332a.917.917,0,0,0,.032.144.484.484,0,0,0,.027.165.226.226,0,0,1,.011.092.777.777,0,0,0,.029.221,1.962,1.962,0,0,1,.013.2.826.826,0,0,1,.034.22,1.114,1.114,0,0,0,0,.112c0,.047.032.063.073.066v3.974c-.041,0-.072.019-.074.066a.268.268,0,0,0,0,.037c.018.163-.057.318-.041.481a.067.067,0,0,1-.009.036.451.451,0,0,0-.026.2,1.6,1.6,0,0,0-.038.2c.007.118-.047.23-.048.348a.3.3,0,0,0-.026.146.34.34,0,0,1-.01.074c-.042.168-.074.338-.1.508-.007.042-.025.083-.033.126a1.252,1.252,0,0,1-.024.146,2.4,2.4,0,0,0-.088.36c-.012.087-.047.167-.054.254-.075.184-.09.387-.169.57a1.392,1.392,0,0,1-.091.322c-.032.107-.056.215-.1.32-.065.174-.122.352-.186.526-.088.239-.175.478-.264.716-.033.088-.083.167-.114.256a7.314,7.314,0,0,1-.333.769c-.147.3-.3.6-.451.9a1.822,1.822,0,0,1-.189.343c-.093.19-.2.37-.312.552q-.129.216-.265.427c-.111.172-.224.343-.337.514-.079.119-.151.244-.239.355-.131.165-.238.349-.379.507-.087.152-.219.269-.313.416-.1.089-.153.212-.256.3a.116.116,0,0,0-.034.044.43.43,0,0,1-.1.13.356.356,0,0,0-.064.068,1.225,1.225,0,0,1-.22.253.494.494,0,0,0-.088.1.789.789,0,0,1-.156.185c-.11.111-.221.22-.33.332a1.111,1.111,0,0,0-.095.115,1.405,1.405,0,0,1-.29.29,1.19,1.19,0,0,0-.128.108c-.1.1-.2.2-.305.3a1.069,1.069,0,0,1-.253.22.194.194,0,0,0-.041.038,2.745,2.745,0,0,1-.265.235c-.1.073-.182.168-.283.241s-.166.151-.258.213-.142.12-.217.176c-.125.092-.255.177-.375.275-.2.165-.424.3-.635.454-.177.126-.361.241-.545.357s-.372.224-.554.343-.366.211-.552.31q-.354.19-.71.376c-.154.08-.319.14-.474.219-.172.088-.349.164-.524.245l-.034.014-.692.273c-.11.043-.218.092-.33.127-.384.122-.763.259-1.15.375-.3.09-.609.165-.915.242-.18.045-.358.1-.541.129l-.128.022c-.049.008-.1.025-.144.034a2.16,2.16,0,0,0-.273.05c-.061.02-.125.013-.182.034a.524.524,0,0,1-.183.031.117.117,0,0,0-.054.01.322.322,0,0,1-.165.026.3.3,0,0,0-.128.022.191.191,0,0,1-.072.014.453.453,0,0,0-.219.034,2.417,2.417,0,0,0-.369.04.867.867,0,0,0-.276.034.248.248,0,0,1-.093.005l-.169,0c-.047,0-.063.032-.066.073H18.368c0-.041-.019-.072-.066-.073l-.169,0a.445.445,0,0,1-.148-.01.631.631,0,0,0-.221-.028.415.415,0,0,1-.129-.014.469.469,0,0,0-.165-.023.385.385,0,0,1-.112-.006.406.406,0,0,0-.182-.03c-.072.01-.132-.04-.2-.037-.113,0-.218-.054-.331-.044a.307.307,0,0,0-.163-.032c-.059.008-.107-.038-.163-.035a1,1,0,0,1-.2-.04c-.147-.019-.291-.056-.436-.088a.543.543,0,0,0-.071-.022,2.943,2.943,0,0,1-.434-.1,2.979,2.979,0,0,1-.447-.124,7.064,7.064,0,0,1-.7-.195c-.138-.037-.271-.09-.406-.136-.112-.038-.224-.073-.335-.113-.146-.053-.29-.109-.435-.164s-.3-.112-.449-.181c-.106-.051-.216-.1-.325-.141-.189-.079-.377-.16-.562-.248s-.389-.2-.586-.291c-.237-.112-.458-.252-.692-.368a.292.292,0,0,1-.033-.017c-.176-.117-.365-.213-.544-.324-.148-.092-.3-.183-.441-.277-.25-.162-.5-.325-.74-.5l-.524-.386c-.065-.048-.125-.1-.189-.15a3.183,3.183,0,0,1-.39-.316.045.045,0,0,0-.016-.01.465.465,0,0,1-.145-.117.312.312,0,0,0-.069-.062.744.744,0,0,1-.186-.155.335.335,0,0,0-.068-.063,1.058,1.058,0,0,1-.239-.207,1.018,1.018,0,0,0-.213-.18.4.4,0,0,1-.082-.077l-.941-.941a.381.381,0,0,1-.076-.082.978.978,0,0,0-.194-.226,1.782,1.782,0,0,1-.167-.2,1.991,1.991,0,0,0-.194-.2.1.1,0,0,1-.022-.03.413.413,0,0,0-.1-.131.623.623,0,0,1-.064-.068,3.826,3.826,0,0,0-.29-.363.536.536,0,0,1-.033-.045C4.186,32.2,4.1,32.072,4,31.952c-.128-.16-.242-.33-.362-.5-.156-.216-.3-.439-.446-.665-.106-.168-.213-.335-.314-.507-.054-.091-.1-.188-.157-.275-.081-.119-.143-.247-.215-.371-.115-.2-.207-.411-.327-.608-.072-.117-.109-.251-.17-.373-.145-.289-.278-.584-.4-.883a1.573,1.573,0,0,0-.062-.155c-.084-.154-.12-.326-.2-.483a.971.971,0,0,1-.071-.172c-.068-.258-.18-.5-.254-.758-.082-.286-.179-.567-.258-.854-.046-.167-.089-.335-.133-.5-.035-.132-.062-.265-.091-.4-.034-.157-.07-.313-.1-.471A1.672,1.672,0,0,0,.4,23.745c-.019-.055-.012-.112-.029-.164A.513.513,0,0,1,.336,23.4a.11.11,0,0,0-.008-.055.4.4,0,0,1-.03-.183.933.933,0,0,0-.019-.109.759.759,0,0,1-.016-.091,1.882,1.882,0,0,1-.04-.369.063.063,0,0,0-.007-.036.415.415,0,0,1-.029-.2.236.236,0,0,0-.008-.092.551.551,0,0,1-.03-.239.38.38,0,0,0-.008-.13.726.726,0,0,1-.03-.277c0-.069,0-.137,0-.206A.707.707,0,0,1,.075,21.1c0-.187,0-.375,0-.562,0-.048-.032-.063-.073-.066v-.9c.041,0,.072-.019.073-.066s0-.087,0-.131c0-.175,0-.35,0-.525a.486.486,0,0,1,.026-.2.3.3,0,0,0,.011-.111c0-.075,0-.15,0-.225a.309.309,0,0,1,.013-.11.477.477,0,0,0,.024-.184.539.539,0,0,1,.008-.167.716.716,0,0,0,.03-.239A.175.175,0,0,1,.2,17.535a.449.449,0,0,0,.029-.2.356.356,0,0,1,.014-.11.458.458,0,0,0,.024-.146.7.7,0,0,1,.016-.091A.488.488,0,0,0,.3,16.876c-.006-.12.054-.23.045-.35.046-.084.021-.186.066-.27.012-.161.059-.316.087-.474s.064-.315.106-.47c.033-.126.076-.249.1-.377s.071-.25.1-.376c.049-.2.118-.392.178-.587a.837.837,0,0,0,.029-.088,2.306,2.306,0,0,1,.136-.425c.074-.185.129-.375.205-.559s.136-.36.21-.537c.084-.2.17-.4.263-.6.1-.214.2-.43.3-.643.067-.14.145-.275.222-.41s.152-.3.238-.444c.105-.176.2-.358.307-.533.087-.143.174-.286.265-.427.111-.172.224-.343.338-.514.086-.129.173-.258.263-.385.075-.106.16-.206.232-.314A.885.885,0,0,1,4.1,7.949a.278.278,0,0,0,.048-.057c.088-.151.22-.269.313-.415.1-.089.153-.212.256-.3a.081.081,0,0,0,.024-.029A.667.667,0,0,1,4.9,6.966.34.34,0,0,0,4.962,6.9,1.29,1.29,0,0,1,5.2,6.632a.875.875,0,0,0,.113-.124.758.758,0,0,1,.118-.144l.98-.981a.356.356,0,0,1,.068-.064,1.7,1.7,0,0,0,.307-.272.493.493,0,0,1,.1-.086.712.712,0,0,0,.157-.131.394.394,0,0,1,.082-.077c.126-.061.193-.2.322-.253a1.632,1.632,0,0,1,.187-.153c.062-.052.125-.1.19-.15.174-.13.34-.271.518-.394.194-.134.384-.274.581-.4.312-.2.623-.408.947-.593.1-.056.2-.1.291-.166.124-.084.264-.139.386-.226.444-.213.875-.451,1.326-.648.251-.109.5-.217.754-.32q.457-.186.924-.346c.153-.052.305-.1.459-.154s.318-.106.481-.144c.121-.028.237-.072.358-.1s.228-.055.342-.086.227-.06.341-.089.232-.039.344-.076c.077.012.145-.032.219-.041a1.4,1.4,0,0,0,.273-.05c.061-.021.126-.009.182-.034A.5.5,0,0,1,16.725.3a.142.142,0,0,0,.054-.012.33.33,0,0,1,.146-.025.3.3,0,0,0,.11-.012A.425.425,0,0,1,17.2.225a.236.236,0,0,0,.092-.01.419.419,0,0,1,.183-.028A.181.181,0,0,0,17.55.18a.527.527,0,0,1,.239-.03.254.254,0,0,0,.093-.007.61.61,0,0,1,.258-.031A.528.528,0,0,0,18.36.084a.287.287,0,0,1,.111-.009l.318,0c.047,0,.063-.032.066-.073M24,11.92a.99.99,0,0,0,.025.222,2.091,2.091,0,0,0,.609,1.156,2.12,2.12,0,0,0,1.95.558,2.117,2.117,0,0,0,1.655-2.031c0-.062,0-.125,0-.187a1.693,1.693,0,0,0-.072-.442,2.077,2.077,0,0,0-.7-1.063,1.991,1.991,0,0,0-1.217-.471c-.094,0-.187,0-.281,0a1.89,1.89,0,0,0-.739.184,2.094,2.094,0,0,0-.99.935,1.991,1.991,0,0,0-.238.839c-.008.016-.023.032-.024.048,0,.067,0,.135,0,.2,0,.016.015.032.024.048m2.021,3.453a1.147,1.147,0,0,0-.37.045,2.11,2.11,0,0,0-1.42,1.1,2.02,2.02,0,0,0-.237.971c0,.968,0,1.935,0,2.9,0,.462,0,.924,0,1.386a1.864,1.864,0,0,0,.08.553,2.1,2.1,0,0,0,1.127,1.33,2.28,2.28,0,0,0,.642.191,2.113,2.113,0,0,0,1.381-.292,2.137,2.137,0,0,0,.895-1.1,2.085,2.085,0,0,0,.12-.734q0-2.107,0-4.214c0-.056,0-.112,0-.169a1.457,1.457,0,0,0-.059-.387A2.1,2.1,0,0,0,27.26,15.7a2,2,0,0,0-1.057-.33.167.167,0,0,0-.186,0m-5.887,0a.15.15,0,0,0-.186,0,1.286,1.286,0,0,0-.406.056,2.134,2.134,0,0,0-1.613,2.048c-.006,1.431,0,2.861,0,4.292a1.821,1.821,0,0,0,.049.427,2.112,2.112,0,0,0,.911,1.324,2.2,2.2,0,0,0,.886.332,2.043,2.043,0,0,0,.724-.027,2.08,2.08,0,0,0,.917-.443,2.143,2.143,0,0,0,.774-1.676q0-2.08,0-4.16a2.343,2.343,0,0,0-.07-.574,2.1,2.1,0,0,0-.481-.9,2.041,2.041,0,0,0-.827-.565,1.845,1.845,0,0,0-.675-.132m-.122,14.817-.68-.015c-.044,0-.088,0-.131-.008-.148-.018-.3-.046-.445-.056a5.388,5.388,0,0,1-.628-.1c-.325-.06-.644-.144-.962-.236a9.848,9.848,0,0,1-1.467-.559,10.069,10.069,0,0,1-1.547-.91,9.409,9.409,0,0,1-.891-.714,10.591,10.591,0,0,1-1.284-1.387A10.386,10.386,0,0,1,11,24.677q-.219-.424-.4-.868a9.315,9.315,0,0,1-.348-1.027c-.089-.331-.171-.663-.227-1a6.466,6.466,0,0,1-.1-.8.476.476,0,0,0-.008-.093,1.378,1.378,0,0,1-.024-.261,5.5,5.5,0,0,0-.025-.561.522.522,0,0,1,0-.112c0-.062.011-.124.013-.186.005-.156.008-.312.012-.468,0-.044,0-.088.007-.131.019-.161.045-.321.06-.482.018-.193.06-.382.093-.572.043-.245.1-.487.168-.728a10.068,10.068,0,0,1,.588-1.615c.12-.261.253-.515.395-.765a9.8,9.8,0,0,1,1.22-1.7,10.261,10.261,0,0,1,1.511-1.4,10.179,10.179,0,0,1,2.889-1.515,9.551,9.551,0,0,1,.954-.268c.3-.066.61-.125.92-.164.235-.03.47-.062.707-.068.106,0,.212-.007.318-.013.075,0,.149-.012.224-.015a4.622,4.622,0,0,1,.5.021c.193.014.386.011.579.037.216.029.434.045.649.084.184.033.368.067.55.108.225.05.45.1.671.166a.406.406,0,0,0,.29-.029.448.448,0,0,0,.227-.612.426.426,0,0,0-.273-.24c-.072-.021-.143-.046-.215-.064A10.889,10.889,0,0,0,21.823,9.1a8.183,8.183,0,0,0-.966-.109.37.37,0,0,1-.075,0,1.635,1.635,0,0,0-.354-.025c-.156,0-.312,0-.469,0-.338-.009-.673.031-1.01.046l-.056.005-.444.062c-.123.017-.248.029-.37.052-.214.042-.427.089-.639.138a10.651,10.651,0,0,0-2.081.724,10.889,10.889,0,0,0-1.836,1.083,11.518,11.518,0,0,0-1.256,1.065c-.143.139-.275.29-.413.434-.2.2-.373.42-.547.641a10.962,10.962,0,0,0-1.035,1.58A11.152,11.152,0,0,0,9.08,18.353c-.016.1-.033.2-.04.3-.014.205-.055.409-.05.615a.138.138,0,0,1,0,.037,1.26,1.26,0,0,0-.024.317c0,.3,0,.6,0,.9a.628.628,0,0,0,.006.131A1.988,1.988,0,0,1,9,20.967c0,.044,0,.088.008.131.02.161.041.321.064.482.029.2.05.409.094.609.079.359.162.717.269,1.069a11.377,11.377,0,0,0,.642,1.635,11.093,11.093,0,0,0,.905,1.529A11.967,11.967,0,0,0,12.1,27.775c.111.118.235.224.352.337a10.013,10.013,0,0,0,1.018.854,10.466,10.466,0,0,0,1.066.695c.31.175.625.339.951.484q.463.2.939.373a11.134,11.134,0,0,0,1.958.48c.086.014.172.03.259.036.218.015.433.056.653.052a.288.288,0,0,1,.075.005,1.153,1.153,0,0,0,.279.021c.294,0,.587,0,.881,0a.663.663,0,0,0,.131-.005c.19-.04.385-.022.577-.055.134-.023.273-.024.408-.049.055-.01.11-.025.165-.03a5.538,5.538,0,0,0,.717-.133A11.078,11.078,0,0,0,24.906,30,10.87,10.87,0,0,0,26.556,29a11.617,11.617,0,0,0,1.309-1.117c.227-.224.437-.463.644-.7.227-.266.439-.544.639-.831.211-.3.4-.617.583-.938a10.653,10.653,0,0,0,.617-1.3,10.781,10.781,0,0,0,.407-1.244,10.957,10.957,0,0,0,.272-1.393,3.883,3.883,0,0,0,.052-.577.3.3,0,0,1,0-.075,1.63,1.63,0,0,0,.026-.373c0-.319,0-.637,0-.956a.573.573,0,0,0,0-.112c-.042-.2-.012-.412-.062-.614a4.943,4.943,0,0,0-.094-.685,10.786,10.786,0,0,0-.275-1.164,11.15,11.15,0,0,0-.641-1.676c-.15-.316-.318-.622-.5-.922-.084-.139-.174-.274-.26-.411a.492.492,0,0,0-.21-.181.459.459,0,0,0-.606.6c.023.044.049.087.076.129a10.82,10.82,0,0,1,.726,1.309,10.3,10.3,0,0,1,.4.99,9.952,9.952,0,0,1,.347,1.3c.053.276.1.552.131.831a5.234,5.234,0,0,1,.05.709c0,.044,0,.087.006.131.005.081.015.161.016.242a4.306,4.306,0,0,1-.019.467c-.018.186-.019.373-.037.56-.02.211-.046.421-.079.63q-.059.37-.144.733a10.226,10.226,0,0,1-1.309,3.107,9.26,9.26,0,0,1-.595.84,7.783,7.783,0,0,1-.549.639q-.264.266-.53.53a7.267,7.267,0,0,1-.639.549,10.195,10.195,0,0,1-2.908,1.6,9.854,9.854,0,0,1-1.608.419,6.347,6.347,0,0,1-.834.108c-.025,0-.05,0-.075.007-.081.008-.161.02-.242.022-.206.006-.412.009-.632.013m-3.893-8.435a2.13,2.13,0,1,0-2.132,2.114,2.119,2.119,0,0,0,2.132-2.114" fill="#d9e0e7"/>
        <path id="Pfad_14314" data-name="Pfad 14314" d="M240.515,250.511c.22,0,.426-.006.632-.013.081,0,.161-.014.242-.022.025,0,.05-.006.075-.007a6.348,6.348,0,0,0,.834-.108,9.86,9.86,0,0,0,1.608-.419,10.193,10.193,0,0,0,2.908-1.6,7.268,7.268,0,0,0,.639-.549q.266-.264.53-.53a7.783,7.783,0,0,0,.549-.639,9.278,9.278,0,0,0,.595-.84,10.228,10.228,0,0,0,1.309-3.107q.085-.364.144-.733c.033-.21.059-.419.079-.631.018-.187.019-.374.037-.56a4.3,4.3,0,0,0,.019-.467c0-.081-.011-.161-.016-.242,0-.044-.007-.087-.006-.131a5.23,5.23,0,0,0-.05-.709c-.032-.278-.077-.555-.131-.831a9.946,9.946,0,0,0-.347-1.3,10.306,10.306,0,0,0-.4-.99,10.826,10.826,0,0,0-.726-1.309c-.027-.042-.054-.084-.076-.129a.459.459,0,0,1,.606-.6.491.491,0,0,1,.21.181c.086.137.177.272.26.411.18.3.348.606.5.922a11.149,11.149,0,0,1,.641,1.676,10.784,10.784,0,0,1,.275,1.164,4.944,4.944,0,0,1,.094.685c.05.2.02.411.062.614a.573.573,0,0,1,0,.112c0,.319,0,.637,0,.956a1.629,1.629,0,0,1-.026.373.3.3,0,0,0,0,.075,3.883,3.883,0,0,1-.052.577,10.955,10.955,0,0,1-.272,1.393,10.771,10.771,0,0,1-.407,1.244,10.647,10.647,0,0,1-.617,1.3c-.182.321-.372.636-.583.938-.2.287-.412.565-.639.831-.207.242-.417.481-.644.7a11.615,11.615,0,0,1-1.309,1.117,10.876,10.876,0,0,1-1.65.994,11.077,11.077,0,0,1-2.375.843,5.544,5.544,0,0,1-.717.133c-.056.005-.11.02-.165.03-.135.025-.274.026-.408.049-.192.033-.387.015-.577.055a.657.657,0,0,1-.131.005c-.294,0-.587,0-.881,0a1.153,1.153,0,0,1-.279-.021.289.289,0,0,0-.075-.005c-.219,0-.435-.036-.653-.052-.087-.006-.173-.023-.259-.036a11.131,11.131,0,0,1-1.958-.48q-.477-.168-.939-.373c-.326-.144-.641-.308-.951-.484a10.465,10.465,0,0,1-1.066-.695,10.01,10.01,0,0,1-1.018-.854c-.116-.113-.24-.219-.352-.337a11.968,11.968,0,0,1-1.123-1.353,11.1,11.1,0,0,1-.905-1.529,11.379,11.379,0,0,1-.642-1.635c-.108-.352-.191-.71-.269-1.069-.044-.2-.065-.406-.094-.609-.023-.16-.043-.321-.064-.482-.005-.043-.005-.087-.008-.131a1.989,1.989,0,0,0-.026-.317.627.627,0,0,1-.006-.131c0-.3,0-.6,0-.9a1.261,1.261,0,0,1,.024-.317.138.138,0,0,0,0-.037c0-.207.037-.41.05-.615.007-.1.023-.2.039-.3a11.153,11.153,0,0,1,1.193-3.567,10.967,10.967,0,0,1,1.035-1.58c.174-.221.352-.438.547-.641.139-.144.27-.294.413-.434a11.525,11.525,0,0,1,1.256-1.065,10.889,10.889,0,0,1,1.836-1.083,10.649,10.649,0,0,1,2.081-.724c.212-.049.425-.1.639-.138.122-.024.247-.035.37-.052l.444-.062.056-.005c.337-.015.672-.055,1.01-.046.156,0,.312,0,.469,0a1.632,1.632,0,0,1,.354.025.368.368,0,0,0,.075,0,8.181,8.181,0,0,1,.965.109,10.892,10.892,0,0,1,1.115.238c.072.019.143.044.215.064a.426.426,0,0,1,.273.24.447.447,0,0,1-.227.612.406.406,0,0,1-.29.029c-.222-.063-.446-.116-.671-.166-.182-.041-.366-.074-.55-.108-.215-.039-.433-.054-.649-.083-.193-.026-.386-.023-.579-.037a4.62,4.62,0,0,0-.5-.021c-.075,0-.149.011-.224.015-.106.005-.212.01-.318.013-.237.006-.472.038-.707.068-.31.039-.616.1-.92.164a9.548,9.548,0,0,0-.954.268,10.179,10.179,0,0,0-2.889,1.515,10.259,10.259,0,0,0-1.511,1.4,9.8,9.8,0,0,0-1.22,1.7c-.142.25-.274.5-.395.765a10.065,10.065,0,0,0-.588,1.615c-.065.241-.125.483-.168.728-.033.19-.075.379-.093.572-.015.161-.041.321-.06.482-.005.043-.006.087-.007.131,0,.156-.007.312-.012.468,0,.062-.009.124-.013.186a.521.521,0,0,0,0,.112,5.5,5.5,0,0,1,.025.561,1.379,1.379,0,0,0,.024.261.476.476,0,0,1,.008.093,6.463,6.463,0,0,0,.1.8c.056.339.138.671.227,1a9.316,9.316,0,0,0,.348,1.027q.177.444.4.868a10.385,10.385,0,0,0,.971,1.532,10.591,10.591,0,0,0,1.284,1.387,9.4,9.4,0,0,0,.891.714,10.066,10.066,0,0,0,1.547.91,9.844,9.844,0,0,0,1.467.559c.318.092.637.176.962.236a5.392,5.392,0,0,0,.628.1c.149.01.3.038.445.056.043.005.087.006.131.008l.68.016" transform="translate(-220.507 -220.32)" fill="#fff"/>
        <path id="Pfad_14315" data-name="Pfad 14315" d="M461.04,393.566a1.845,1.845,0,0,1,.675.132,2.041,2.041,0,0,1,.827.565,2.1,2.1,0,0,1,.481.9,2.347,2.347,0,0,1,.07.574q0,2.08,0,4.16a2.143,2.143,0,0,1-.774,1.676,2.081,2.081,0,0,1-.917.443,2.042,2.042,0,0,1-.724.027,2.2,2.2,0,0,1-.886-.332,2.112,2.112,0,0,1-.911-1.324,1.817,1.817,0,0,1-.049-.427c0-1.431,0-2.861,0-4.292a2.134,2.134,0,0,1,1.613-2.048,1.288,1.288,0,0,1,.406-.056.146.146,0,0,0,.186,0" transform="translate(-440.91 -378.192)" fill="#fff"/>
        <path id="Pfad_14316" data-name="Pfad 14316" d="M616.418,393.537a2,2,0,0,1,1.057.33,2.1,2.1,0,0,1,.913,1.257,1.453,1.453,0,0,1,.059.387c0,.056,0,.112,0,.169q0,2.107,0,4.214a2.087,2.087,0,0,1-.12.734,2.136,2.136,0,0,1-.895,1.1,2.113,2.113,0,0,1-1.381.292,2.281,2.281,0,0,1-.642-.191,2.1,2.1,0,0,1-1.127-1.33,1.865,1.865,0,0,1-.081-.553c0-.462,0-.924,0-1.386,0-.968,0-1.935,0-2.9a2.02,2.02,0,0,1,.237-.971,2.111,2.111,0,0,1,1.42-1.1,1.147,1.147,0,0,1,.37-.045.148.148,0,0,0,.186,0" transform="translate(-590.215 -378.164)" fill="#fff"/>
        <path id="Pfad_14317" data-name="Pfad 14317" d="M307.783,504.379a2.13,2.13,0,1,1-2.126-2.139,2.119,2.119,0,0,1,2.126,2.139" transform="translate(-291.668 -482.622)" fill="#fff"/>
        <path id="Pfad_14318" data-name="Pfad 14318" d="M614.346,249.316a1.991,1.991,0,0,1,.238-.839,2.093,2.093,0,0,1,.99-.935,1.89,1.89,0,0,1,.739-.184c.094,0,.187,0,.281,0a1.992,1.992,0,0,1,1.217.471,2.077,2.077,0,0,1,.7,1.063,1.69,1.69,0,0,1,.072.442c0,.062,0,.125,0,.187a2.117,2.117,0,0,1-1.655,2.031,2.12,2.12,0,0,1-1.95-.558,2.091,2.091,0,0,1-.609-1.156.99.99,0,0,1-.025-.222s.011-.008.013-.013a.516.516,0,0,0,0-.272c0-.005-.009-.009-.013-.013" transform="translate(-590.349 -237.694)" fill="#fff"/>
        <path id="Pfad_14319" data-name="Pfad 14319" d="M613.732,297.55s.011.008.013.013a.516.516,0,0,1,0,.272c0,.005-.009.009-.013.013-.008-.016-.023-.032-.024-.048,0-.067,0-.135,0-.2,0-.016.016-.032.024-.048" transform="translate(-589.735 -285.928)" fill="#e1787d"/>
        <path id="Pfad_14320" data-name="Pfad 14320" d="M510.807,392.806a.146.146,0,0,1-.186,0,.149.149,0,0,1,.186,0" transform="translate(-490.677 -377.432)" fill="#a09e9b"/>
        <path id="Pfad_14321" data-name="Pfad 14321" d="M666.286,392.9a.148.148,0,0,1-.186,0,.167.167,0,0,1,.186,0" transform="translate(-640.084 -377.526)" fill="#e1787d"/>
      </g>
    </g>
  </g>
</svg>
