<svg xmlns="http://www.w3.org/2000/svg" xmlns:xlink="http://www.w3.org/1999/xlink" width="1024" height="1024" viewBox="0 0 1024 1024"><defs><clipPath id="b"><rect width="1024" height="1024"/></clipPath></defs><g id="a" clip-path="url(#b)"><g transform="translate(-2.9 -0.1)"><circle cx="512" cy="512" r="512" transform="translate(2.9 0.1)" fill="#d9e0e7"/><path d="M232.2,512.5c0-155.4,126.9-280.9,283.1-280.9S798.4,357.8,798.4,512.5c0,155.4-126.9,280.9-283.1,280.9S232.2,667.9,232.2,512.5Z" fill="#d9e0e7"/><path d="M449,317.8l2.9-2.1,3.6-.7,1.4-.7,2.1.7h1.4l3.6,2.1-1.4.7h-5l-5.7,3.6-3.6.7-.7-1.4Zm10.6-47.1-4.3,1.4h0l-.7,2.1c3.6,0,7.1,4.3,8.6,7.1l2.9-.7c1.4-2.1,4.3-3.6,6.4-5l.7-2.1c0-.7,0-.7-.7-1.4h-1.4a.686.686,0,0,0-.7.7l-2.9-.7h0Zm1.5,38.5-2.9.7-4.3,1.4h1.4l2.9-.7,2.1,1.4,2.1,1.4,1.4-2.1,1.4-2.1-2.1-1.4Zm-.7-2.8,2.1,2.1,2.9-2.1-2.1-2.9c-1.4.7-5,2.1-6.4.7l1.4-2.1-5.7,1.4c-.7,2.1-4.3,3.6-5.7,3.6,1.4,1.4,3.6,2.9,5.7,2.9A31.025,31.025,0,0,0,460.4,306.4Zm17.8,17.1a6.215,6.215,0,0,0,0-5l-2.1-2.1,1.4-5,4.3-1.4,1.4-6.4a2.572,2.572,0,0,0-2.1.7v.7h-.7c-.7,0-.7.7-1.4.7,0,1.4-1.4,3.6-2.1,4.3l-3.6.7c-5,3.6-.7,10.7,1.4,14.3Zm2.8-20.7,1.4-.7-1.4-.7c-.7,0-.7-.7-1.4-.7h0a.686.686,0,0,0-.7-.7c-.7,0-.7.7-1.4.7h-.7l-.7-1.4-2.1,1.4h-.7l-1.4.7-1.4,2.1,3.6.7h-.7c1.4-2.1,2.9-2.9,5-4.3h2.1l-1.4.7-.7,2.1-3.6.7a19.984,19.984,0,0,0,6.4.7.686.686,0,0,0,.7-.7Zm79.9,34.3c-.7-.7-2.9,0-3.6.7l-2.1-9.3h0l-.7-1.4c-2.9,1.4-7.1-.7-10-.7v1.4l-2.1,1.4-.7.7a.686.686,0,0,1-.7-.7h0c-7.1-4.3-7.8-1.4-12.1,0h0c-1.4.7-3.6.7-5.7,1.4l-.7,2.1c-5.7,5-7.8,0-12.1,2.1l-1.4,2.1.7,1.4-4.3,1.4.7,1.4-2.1,3.6,2.1.7A13.793,13.793,0,0,0,509,349c1.4,2.1.7,5,0,7.8h0c-2.9,6.4-9.3,12.8-9.3,17.1l3.6.7-3.6,2.9-5,.7-1.4,6.4,3.6,2.1c-4.3,6.4-7.8,5.7-11.4,10h0c-2.9,3.6-5,9.3-8.6,22.1-1.4,5.7-1.4,9.3-.7,12.1h0a85.6,85.6,0,0,1,2.1,11.4l3.6,2.1,2.9-.7a124.569,124.569,0,0,1,8.6-12.8h0c5-6.4,10-13.5,11.4-15,3.6-.7,6.4,0,10,.7,3.6-1.4,6.4-7.8,11.4-10l2.1,1.4c4.3.7,12.1-5.7,15.7-7.8a4.843,4.843,0,0,1-2.9-4.3,2.444,2.444,0,0,0-.7-1.4l2.1-3.6.7,2.9,2.1,1.4,2.1-3.6c-.7-4.3.7-9.3,2.1-13.5l3.6-2.9,2.1-8.6-1.4-4.3,4.3-2.9a6.568,6.568,0,0,1-2.1-5h0c-.7-5.7,4.3-11.4,7.8-15.7ZM528.1,438.3l3.6-.7,4.3-2.9,2.9-4.3h0l.7-.7-2.9-5.7-1.4.7h-5l-2.1-1.4h-3.6l.7,4.3-.7,2.1v.7h0v5.7Zm-9.3,79.9,7.8-2.1,3.6-5.7v-5h0l3.6-4.3-4.3-5-3.6-.7-3.6,2.9-5.7,3.6.7,3.6h0l.7,2.9-5,6.4ZM458.9,296.4V295c-.7-.7-2.1-.7-2.9-.7a13.449,13.449,0,0,0,5-1.4c-.7,0-2.1-.7-2.1-1.4a10.268,10.268,0,0,1,5-4.3,7.881,7.881,0,0,1-5.7-3.6,6.215,6.215,0,0,0-5,0l-1.4,2.1.7-2.1-2.9.7c-1.4.7-2.1,2.9-2.1,4.3l-2.9,2.1,1.4-5h-1.4c-2.9,2.1-5.7,4.3-10,4.3,2.1,3.6-1.4,4.3,1.4,9.3-.7.7-.7,1.4-1.4,2.1h0c-.7,1.4-1.4,2.1-1.4,3.6,1.4,2.9,5,2.1,7.1,1.4.7-2.1,2.1-3.6,3.6-5.7h0C449,300,453.9,297.8,458.9,296.4Zm82-64.2-7.1.7,8.6,2.1,11.4,4.3,12.1,2.9,10,.7,10.7,3.6,7.8,4.3,12.1,7.1v1.4l12.1,7.8,10.7,3.6,2.9,2.1h0l5,4.3-2.1,4.3,7.1,7.1,6.4,10.7-5.7-1.4-4.3-3.6-3.6.7v5l.7.7h0l5.7,7.1,6.4,10.7,9.3,9.3h0l3.6,7.1,4.3-1.4,4.3,3.6-2.9.7.7,6.4-2.1-.7-2.1-.7,10.7,9.3,2.1,1.4,3.6.7h0l7.1,8.6-3.6-4.3-2.1-1.4-2.1-.7-2.1-2.1-.7-.7h0l-3.6-2.1-15-7.1.7,1.4,2.1,2.9,2.1,1.4,4.3,2.9h0l12.1,8.6-.7,2.1-12.1,2.1-1.4,2.1,6.4,6.4-6.4,11.4-1.4,7.8h0l-.7,4.3-2.1-4.3-.7-1.4H653l.7,1.4h0l2.9,5.7,2.1,2.1.7,4.3-2.9,5.7,1.4,5.7-5.7,2.9,5,5-7.1-1.4h-1.4l-2.9-4.3-7.8-5.7h6.4l6.4-.7,2.9-5.7-6.4-6.4-3.6-.7L638,397h-6.4l-4.3,1.4h-1.4l-2.9-2.9h0l-2.1-2.1h-6.4l-2.1,2.1h0l-2.1,2.1-5.7,4.3-1.4,6.4-4.3,7.1L596,424l-1.4,6.4v1.4h0L593,439l-3.6,5.7-6.4,6.4-1.4,2.1-5.7,7.8v5.7h0v3.6l.7,7.8,5.7,3.6,5.7-3.6,5.7-2.9,3.6,7.1,3.6,7.1,2.9,10h5l1.4-5,5-4.3.7-2.1-.7-4.3.7-7.8,1.4-2.1,2.1-3.6-2.9-4.3h0l-3.6-13.5,2.9-7.1,2.9-7.1.7-6.4h0v-2.1h6.4v2.1h0l.7,5.7-4.3,7.1-.7,7.8v1.4l5,10,7.1,2.1,6.4-.7,4.3-2.9.7,2.1-2.9.7-3.6.7-1.4,1.4h0l-1.4.7-2.9,2.1.7,4.3,3.6,2.1V475l.7,4.3,1.4,4.3-2.9,2.1-4.3-5-2.1,3.6-.7,3.6,1.4,5.7,1.4,5.7-3.6,2.9-.7,2.1-2.9,2.1-2.1-2.9-7.8,5.7h0l-4.3,2.9-6.4-2.9h-.7l-4.3,3.6-2.9-3.6h0l-.7-.7V497.1l-.7-7.8-2.1-.7-5,6.4.7,9.3,2.1,5.7h0l.7,2.9-5.7,2.9h-6.4l-5,6.4-2.9,7.1-5,4.3-5,4.3-5.7,3.6-8.6-4.3-2.1,2.1h0l-1.4,2.1-7.1-1.4-5,4.3,4.3,3.6,2.1.7,5.7,9.3-.7,8.6-2.1,7.8h0v.7l-6.4.7-6.4-1.4h-.7l-2.1-.7-8.6-.7-7.1-1.4-3.6,2.9h0l-2.9,2.1.7,6.4-1.4,7.1-4.3,7.8,1.4,5.7v6.4l5.7,1.4,3.6,3.6h0l2.1,2.9h5l3.6-.7h10l2.9-2.1h0l2.9-1.4,5-4.3,2.9-7.1,5-6.4,7.1-5,5-5,.7-3.6,5.7-2.9,9.3-.7,5.7-2.9,4.3-2.9h0l1.4-1.4,1.4,1.4h0l5,2.9,2.9,4.3,2.9,4.3,7.8,4.3,5.7,3.6,5.7,1.4,2.1,5.7-1.4,7.1,5-6.4-1.4-5.7,5.7-2.9,2.9-2.1-7.1-2.9-3.6-2.1.7-2.1-2.1-2.1-3.6.7-5.7-3.6-4.3-5-.7-.7h0l-2.9-5-.7-2.9,5-4.3,2.1,1.4,1.4,2.9,4.3,3.6,5.7,3.6h0l.7.7,3.6,2.1,5.7,3.6,4.3,3.6.7,6.4,4.3,3.6,5,6.4.7,2.9,2.1,7.1h5l-.7-4.3,1.4-6.4,3.6-4.3-5-1.4-.7-2.9-1.4-5.7,4.3-2.9,5.7-2.9h5l5-5,.7-2.1h0l.7-1.4-4.3-5,1.4-7.1-.7-9.3,3.6-9.3.7-2.1.7-1.4,2.9-.7,6.4-.7L680,536l-.7,2.1,3.6,2.1,2.9,2.1,3.6-6.4h0l.7-1.4v-1.4l-2.9-4.3,3.6-5.7,3.6-5.7,2.1,1.4v4.3l-1.4,6.4,2.9,3.6,7.1,2.9h5v.7h0l2.1,4.3.7,2.9-2.9,5.7-5,4.3-2.9.7h-6.4l1.4,4.3-5.7,3.6-5.7,7.8-5.7,3.6v.7h0l-4.3,5.7-5.7,1.4-1.4,6.4,1.4,5.7,3.6,2.1,3.6,5.7h5l6.4-5,7.1-2.1,5.7-1.4,5-5h1.4l.7,1.4.7,6.4-.7,3.6v11.4l-1.4,4.3h0l-1.4,2.9c-2.1.7-3.6,2.9-5,4.3l-5-1.4c-7.1,12.8-21.4,7.8-25.7,12.1-8.6-4.3-29.2-1.4-25.7,13.5l-3.6,2.9-10-2.1-4.3,1.4c-3.6,0-7.8-2.1-8.6-5.7-5-1.4-14.3,0-17.1-1.4l-2.1-2.9-3.6.7c0-4.3,3.6-6.4,3.6-10.7l-1.4-4.3,1.4-5-2.9.7-3.6-2.1c-2.1.7-5,1.4-7.1,2.1-2.9-1.4-10.7,0-14.3.7-7.1-2.9-32.1,4.3-38.5,9.3l-2.1-.7-.7-1.4a41.549,41.549,0,0,1-13.5-2.1l-2.1-2.9c-2.9.7-7.1,7.8-8.6,10.7-6.4-.7-12.8,2.9-17.1,7.8,0,2.9-2.1,5.7-3.6,9.3h0v1.4c-2.1,4.3-10.7,5-15.7,6.4l-2.1-.7c-3.6.7-29.2,20-33.5,26.4h0a2.168,2.168,0,0,0-.7,1.4,31.734,31.734,0,0,1,4.3,5c-1.4,2.1-2.9,4.3-2.9,7.1l2.1,2.9c-.7,2.1-5.7,6.4-5.7,7.8-1.4,1.4-3.6,2.1-5.7,2.9,0,2.1,1.4,4.3,2.1,5.7-2.9,7.1,4.3,11.4,9.3,13.5l.7,2.9c2.9,1.4,3.6,5,6.4,6.4-1.4,1.4,1.4,2.9.7,4.3l2.1,2.9c5.7,0,16.4,16.4,32.1,16.4,10,0,18.5,2.1,28.5,2.9,15.7.7,26.4-5.7,42.1-1.4l2.1,2.9c3.6,1.4,13.5,0,17.1-1.4l2.1,1.4,2.9-.7c4.3,3.6-12.1,12.8-7.8,13.5l2.1.7.7,1.4,8.6,2.1-1.4,2.1,2.9-.7v.7c70.6-15.7,131.9-57,171.8-114.1a12.067,12.067,0,0,1,2.1-4.3c1.4-2.1,2.1-5,3.6-7.1,1.4-1.4.7-2.9,2.1-4.3a2.572,2.572,0,0,0,.7-2.1l.7-1.4.7-1.4-.7.7-1.4,1.4-2.1,3.6-3.6,4.3c-2.9,2.9-4.3,5.7-7.1,8.6l-5,6.4c-1.4,2.1-2.1,0-2.9-.7,5-5.7-7.8-2.9-8.6-3.6-4.3-3.6,0-5-6.4-6.4l-.7-1.4c2.1-5-.7-9.3-5-10a16.29,16.29,0,0,0-2.1-3.6h0c-.7-.7-.7-2.1-.7-3.6h-1.4c-2.1-3.6-4.3-8.6-7.8-10.7l-1.4-5.7c2.1,1.4,2.9,3.6,5,5l1.4-.7,2.1-8.6,2.1,7.1,5,5,2.9,4.3,3.6.7,2.9,3.6-.7,3.6h0l2.1,1.4v1.4l3.6.7,2.9,3.6v1.4l2.9,3.6.7,4.3v3.6l6.4-5,3.6-5.7,1.4-2.1,5-7.1h0l.7-.7,4.3-7.8,4.3-6.4,2.9-8.6,1.4-2.1,4.3-7.8h0l2.1-5.7,2.1-8.6.7-2.1,2.1-8.6,2.1-8.6-.7-1.4-2.9,2.1-2.1-.7-1.4-5.7-2.1,8.6-2.1,8.6-3.6,5.7-2.1-.7-.7-1.4-1.4,2.1-2.1-2.9H760l-2.9-3.6-.7-1.4V592l4.3-5h2.1l3.6,2.1,4.3-2.9,3.6-5.7,2.9-2.9h0l2.9-.7,2.1-4.3,3.6-4.3v-1.4l2.9-8.6.7-3.6,2.9-7.1.7,1.4v-3l.7,1.4.7,1.4,1.4-2.1-.7-2.9v-1.4l.7-3.6.7.7c.7-7.8,1.4-15.7,1.4-23.5C797.6,368.4,683.5,245.8,540.9,232.2ZM376.2,756.3v-1.4c0-1.4-2.9-5-3.6-5.7v-1.4c-11.4-7.1,1.4-12.1,3.6-20.7-4.3-7.1-25-22.1-25-22.8a126.3,126.3,0,0,1-32.1-20h0a86.675,86.675,0,0,1-8.6-7.8,7.85,7.85,0,0,1-4.3,1.4l.7-3.6-2.1-1.4c-2.1-1.4-5-2.9-6.4-4.3-.7-.7-.7-2.9.7-2.1l.7-2.1c-1.4-2.1-4.3-7.1-7.8-13.5h0c-5.7-10.7-13.5-24.2-19.3-23.5-1.4-1.4-2.1-3.6-2.9-5.7l-2.1-1.4v-2.9h0c-.7-1.4-1.4-2.1-2.1-3.6-2.9-5-12.8-25-19.3-37.1h0c-2.9-5-5-8.6-5-9.3v2.9c-.7-5-2.9-17.8-4.3-27.1h0c-.7-4.3-1.4-7.8-1.4-9.3,5-7.1,3.6-16.4,2.1-25h0a15.951,15.951,0,0,1-.7-5.7c.7-1.4,4.3-7.1,5.7-7.8,0-2.9,2.9-4.3,2.9-7.1l-2.1-2.9c1.4-4.3,0-8.6-.7-12.8-1.4,1.4-2.9.7-3.6.7.7-1.4.7-2.9,1.4-5h0c1.4-7.1,1.4-16.4,4.3-22.8,1.4-5,3.6-7.8,5.7-11.4h0c.7-1.4,2.1-2.9,2.9-5,.7-.7.7-2.9.7-3.6l3.6-2.9c1.4-.7,2.1,2.1,2.9,3.6-.7,2.1-.7,5-.7,8.6h0c0,5,0,10.7.7,14.3l1.4-.7c.7.7,1.4,12.8,1.4,14.3a19.019,19.019,0,0,1,3.6,6.4h0c-.7,7.1-6.4,17.8-8.6,25.7l2.1,2.9c7.1-7.1,5.7-20.7,12.8-27.8l2.9-.7c4.3,3.6,10.7,2.1,15,6.4A7.881,7.881,0,0,0,297,472a4.62,4.62,0,0,1,.7-2.9h0c.7-2.1,2.1-4.3,2.9-7.1a19.563,19.563,0,0,1,4.3-3.6c-2.1,2.1-2.9,5.7-3.6,8.6a5.244,5.244,0,0,1-2.9,1.4s5-2.1,5.7-2.9c0-2.1,1.4-5,2.9-7.1l-.7,3.6,2.1,2.1c7.8-5,4.3-4.3,10,.7l.7-2.1.7,2.9c1.4,1.4,4.3,3.6,5.7,1.4,1.4-1.4,0-.7-.7-.7,5.7-7.1,2.1-3.6,10-5,2.1.7,10,4.3,10,6.4a1.506,1.506,0,0,1,1.4,1.4h8.6v-4.3c2.1-2.1,5-6.4,4.3-9.3l5,1.4,1.4-5-2.9-4.3-18.5-2.9c4.3-2.1,10-2.9,15-2.9l.7,1.4,7.8.7c5,5,8.6,11.4,15.7,14.3a38.665,38.665,0,0,1,9.3-.7l4.3,3.6c2.9-2.1,6.4-5,8.6-8.6l-1.4-4.3,2.1-4.3c-.7-2.9-1.4-5.7-2.1-8.6h0a.686.686,0,0,0-.7-.7c0-8.6,9.3-17.8,10-27.1l3.6-2.9c-5-.7-9.3,4.3-15,2.9a7.937,7.937,0,0,1,0-5.7h0a10.353,10.353,0,0,1,1.4-4.3l10.7-9.3c-1.4-2.9.7-7.8,2.1-10l-3.6-5.7v-5c-8.6.7-15.7,10.7-25,13.5l-1.4,5c-5,6.4-13.5,5.7-20,5.7-2.1,2.9-5.7,7.8-9.3,10h0c-.7.7-2.1.7-2.9.7v-.7h0l-1.4-2.9c5.7-5,5.7-10.7,13.5-15l2.1-4.3-1.4-4.3c1.4-5,2.9-9.3,3.6-14.3h0a51.532,51.532,0,0,0,.7-10.7c3.6-1.4,6.4-4.3,9.3-7.1l.7-2.1c4.3-2.9,21.4-5,26.4-2.9l1.4-.7,3.6,2.1v1.4l4.3,2.1c4.3-1.4,7.8-2.9,12.1-3.6v5l5,1.4c3.6-1.4,6.4-2.9,10-4.3l2.1-3.6-.7-2.9a42.72,42.72,0,0,1-9.3,1.4l-3.6-2.1c1.4-.7,2.9-.7,3.6-1.4h0a9.373,9.373,0,0,0,5-4.3l-2.1-1.4c5-3.6,10.7-6.4,15-10.7a19.026,19.026,0,0,0-10.7,1.4l-3.6,4.3c-2.1,1.4-8.6.7-11.4,0l5.7-2.9,2.1.7,4.3-2.9c-.7-1.4-2.9-2.1-4.3-2.1l-4.3,1.4-2.1-2.1c0-3.6,2.9-6.4,3.6-9.3h0v-1.4l-3.6-2.1,3.6-2.9a6.215,6.215,0,0,0,0-5l2.9-2.1,3.6-.7A14.188,14.188,0,0,1,449,283l.7-2.1,2.9-2.1-1.4-1.4h0l-.7-.7,5.7-1.4v-1.4l2.9-2.1c-2.1-5,2.1-6.4,2.1-8.6,13.5-3.6,24.2-10,37.8-10.7l.7-2.1c1.4-.7,7.1-5,6.4-7.1-7.1.7-8.6-2.1-8.6-2.1l1.4-2.1-3.6-.7-4.3,1.4a3.893,3.893,0,0,0-3.6-2.1v-1.4c-141.2,15-253.1,134.8-253.1,279.5C232.2,615.9,290.7,707.8,376.2,756.3Zm76.3-429.2-3.6-.7c.7-2.9-3.6-1.4-3.6.7v1.4h0c.7,2.1,1.4,3.6,2.1,5.7l2.1,1.4a10.353,10.353,0,0,0,1.4,4.3c-1.4,2.1-3.6,3.6-6.4,5l2.1,2.9-.7,3.6c-2.9,0-5,2.9-7.1,4.3h-.7l-3.6.7-2.1,3.6-7.1-1.4,1.4-2.1h0l.7-.7-3.6-.7-2.9,2.1h0l-1.4.7c5.7,2.9,5,11.4,1.4,15.7a109.441,109.441,0,0,1,1.4,14.3c2.1-2.1,2.9-5.7,2.9-8.6l2.1.7.7,2.9,4.3,2.1c2.9-2.1,2.9-7.1,2.1-10,2.1-.7,5-5.7,6.4-7.1l2.1,1.4c-.7,3.6-2.1,7.8-1.4,11.4,2.9-2.1,7.1-2.9,10-5.7-.7-5,2.1-10.7.7-15,2.9,0,5-2.1,6.4-4.3h0a2.572,2.572,0,0,0,.7-2.1c-.7-3.6,1.4-7.1,0-10,2.9-5,5.7-7.1,8.6-10.7.7-.7,0-2.9,0-4.3h0v-2.9C466.8,319.2,456.1,323.5,452.5,327.1Zm-44.9,18.5c0,1.4-.7,3.6-2.1,4.3l7.1,1.4-2.1,2.9h0l.7,2.9c1.4-.7,2.1-2.1,2.9-2.9h0c3.6-4.3,4.3-9.3,7.1-14.3A36.039,36.039,0,0,1,407.6,345.6ZM486,294.3l-2.9.7-1.4,2.1c2.9,0,8.6-1.4,10-4.3C491,289.3,487.5,292.8,486,294.3Zm52.8,236,7.1.7,7.8-.7,3.6-2.9,3.6-4.3-.7-6.4-5-6.4-2.1-4.3h0l-1.4-2.9-2.1-7.8-2.9-4.3,4.3-6.4-7.1-2.9,2.9-5.7-3.6-.7h-1.4l-3.6,5.7-1.4,7.1.7,7.8,2.1,7.1,2.9,5h0l.7.7-3.6,2.9-2.9,7.1v5l-.7,2.1-6.4,5,2.1,1.4ZM483.9,277.9a10.353,10.353,0,0,0-4.3,1.4l3.6,2.1v1.4c.7,1.4,2.9,2.1,4.3,2.1l.7-3.6C486.7,280.7,483.9,279.3,483.9,277.9Zm106.2,67-2.1-.7-3.6.7v5h6.4Zm-6.4,10.7h0l2.9,3.6,3.6,5.7,3.6,2.1v-5l.7-3.6-1.4-2.9h0l-1.4-2.9-5-1.4-4.3,1.4Zm82.7,259.5h.7l5-1.4-3.6-2.1-2.9.7-5.7,1.4,6.5,1.4ZM615.1,304.3l-.7,2.1,4.3,2.1,5,1.4,2.1-3.6-4.3-2.1h-6.4v.1Zm-6.4-37.1-1.4,2.1,2.9,3.6,2.1.7h0l2.1.7v-.7h0l.7-2.1-3.6-.7Zm29.9,88.4h0l1.4,2.9.7,1.4.7,2.9,3.6,5.7,2.1,1.4,5.7,2.9,4.3-1.4-3.6-2.1-5-5-5-6.4-.7-2.1h0l-1.4-5-1.4-5.7-.7-2.9-2.9-5.7-2.9,2.1v5l2.1,7.1Zm-22.8,261,1.4-.7h0l3.6-2.9-2.9-4.3-4.3,1.4-2.1-.7-2.1,4.3,4.3,2.1h0Zm11.4-315.9-4.3,1.4h-1.4l2.1,1.4,5.7,1.4Zm-231,159.7-.7-1.4c-1.4,0-7.8,3.6-13.5,6.4h7.1C391.9,464,394.8,462.5,396.2,460.4ZM338.4,469l2.9,3.6,3.6-.7c2.9,2.9,7.1,2.9,10.7,4.3a13.027,13.027,0,0,0-3.6-8.6v-2.1h-8.6c.7.7,2.1,2.1,2.1,3.6C344.8,467.5,339.9,468.3,338.4,469ZM489.6,309.2c5,.7,12.8-3.6,15.7-7.8C502.4,302.1,484.6,299.3,489.6,309.2ZM592.3,581.6l-2.9,2.1-.7,2.1,2.9,3.6ZM506,310l-2.9,2.1L501,310l-1.4,2.1a10.389,10.389,0,0,1-7.8-.7l-1.4,2.1-3.6.7,2.9-2.1a10.389,10.389,0,0,1-7.8-.7,6.215,6.215,0,0,0,0,5l2.1,1.4-.7,2.1,2.1,1.4c2.1-.7,5-1.4,7.1-2.1,5.7,2.9,24.2-2.9,31.4.7l1.4-.7c2.9-5.7-4.3-8.6-5.7-12.8C515.3,307.1,506,300.7,506,310ZM387.6,471.1l1.4-5.7h-7.1c-4.3,2.1-7.8,4.3-9.3,5-.7,7.8,5.7,7.1,7.1,12.1l-1.4,5h3.6a19.984,19.984,0,0,1,.7,6.4,7.881,7.881,0,0,0,5.7-3.6c0-1.4,0-4.3-1.4-5.7l3.6-2.9-.7-2.9,1.4-2.1C391.9,474,389.8,471.8,387.6,471.1ZM588.7,606.6l4.3-2.9.7-7.8-2.9-4.3-1.4,2.1-1.4,5ZM256.4,536.7l2.1.7-.7-1.4c0-2.1-2.1-17.8-4.3-29.2h0c-1.4-6.4-2.1-11.4-2.1-11.4,1.4-2.1-3.6-5-3.6-5.7a14.217,14.217,0,0,0,2.1,7.8c-.7,1.4-.7,6.4,0,10h0c0,1.4.7,2.9,1.4,2.9,0,2.1,2.1,5.7,1.4,7.8l1.4,4.3-1.4,5C252.9,526.7,255.7,535.3,256.4,536.7Zm3.6,22.1c1.4,0,2.9,1.4,3.6,2.1l.7,2.9c2.1.7,3.6,4.3,3.6,5.7l.7-2.1c-2.9-6.4-3.6-18.5-8.6-24.2-.7,1.4-1.4,4.3,0,6.4h-1.4c-.7-2.1-1.4-4.3-2.9-5.7l-.7,3.6C257.9,548.8,259.3,556,260,558.8Z" fill="#fff"/><path d="M797.6,513.9c0-154.7-128.3-283.1-283.1-283.1s-283,126.2-283,280.9S359.8,793.4,514.6,793.4,797.6,667.9,797.6,513.9Z" fill="none" stroke="#fff" stroke-miterlimit="3.864" stroke-width="4"/></g></g></svg>