<?xml version="1.0" encoding="utf-8"?>
<!-- Generator: Adobe Illustrator 19.2.1, SVG Export Plug-In . SVG Version: 6.00 Build 0)  -->
<svg version="1.1" id="Layer_1" xmlns="http://www.w3.org/2000/svg" xmlns:xlink="http://www.w3.org/1999/xlink" x="0px" y="0px"
	 viewBox="0 0 1024 1024" enable-background="new 0 0 1024 1024" xml:space="preserve">
<circle id="XMLID_1_" fill="#F0F2F4" cx="512" cy="512" r="512"/>
<g>
	<path fill="#FEFEFE" d="M512.9,276.8c-71.3,0-142.5,0-213.8,0c-39.1,0-62,23-62,62.3c0,104.6,0,209.3,0,313.9
		c0,42.8,21.8,64.6,64.5,64.6c61.8,0,123.6,0.2,185.4-0.2c9.5-0.1,13.5,2.4,12.9,12.5c-0.8,13.1,0.1,26.4-0.3,39.5
		c-0.3,10.4,6.6,9.2,13.3,9.4c7.1,0.3,12-0.7,11.5-9.8c-0.6-12.3,0.5-24.8-0.3-37.1c-0.8-11.6,3.5-14.8,14.8-14.7
		c62.6,0.5,125.2,0.4,187.9,0.2c37.5-0.1,60.8-23.3,60.9-61c0.2-106.3,0.2-212.6,0-318.9c-0.1-37.5-23.8-60.9-61.1-60.9
		C655.5,276.7,584.2,276.8,512.9,276.8z"/>
	<path fill="#3A3738" d="M512.9,276.8c71.3,0,142.5,0,213.8,0c37.3,0,61,23.4,61.1,60.9c0.2,106.3,0.2,212.6,0,318.9
		c-0.1,37.6-23.4,60.9-60.9,61c-62.6,0.2-125.2,0.3-187.9-0.2c-11.3-0.1-15.7,3.1-14.8,14.7c0.9,12.3-0.2,24.7,0.3,37.1
		c0.4,9-4.4,10-11.5,9.8c-6.8-0.2-13.6,0.9-13.3-9.4c0.3-13.2-0.5-26.4,0.3-39.5c0.6-10.1-3.5-12.5-12.9-12.5
		c-61.8,0.3-123.6,0.2-185.4,0.2c-42.7,0-64.5-21.9-64.5-64.6c0-104.6,0-209.3,0-313.9c0-39.3,22.9-62.2,62-62.3
		C370.4,276.7,441.7,276.8,512.9,276.8z M512.5,692.7c70.9,0,141.8,0,212.6,0c25.5,0,38.1-12.4,38.1-37.7
		c0.1-105.1,0.1-210.2,0-315.2c0-25.4-12.7-38.3-37.7-38.3c-141.8,0-283.5,0-425.3,0c-26.2,0-38.5,12.3-38.5,38.5
		c0,104.7,0,209.3,0,314c0,27.1,11.8,38.7,39.3,38.7C371.6,692.7,442.1,692.7,512.5,692.7z"/>
	<path fill="#FDFDFC" d="M512.5,692.7c-70.5,0-140.9,0-211.4,0c-27.6,0-39.3-11.6-39.3-38.7c0-104.7,0-209.3,0-314
		c0-26.2,12.3-38.5,38.5-38.5c141.8,0,283.5,0,425.3,0c25,0,37.7,12.9,37.7,38.3c0.1,105.1,0.1,210.2,0,315.2
		c0,25.3-12.6,37.7-38.1,37.7C654.3,692.7,583.4,692.7,512.5,692.7z M297.8,492c-1.2,26.3-1.3,52.6-0.1,78.9
		c-0.2,24.3,0,48.6-0.8,72.8c-0.4,11,3.6,14,14.2,13.9c66.7-0.4,133.5-0.2,200.2-0.2c67.6,0,135.1-0.1,202.7,0.2
		c9.3,0,13.4-2.2,13.1-12.4c-0.8-25.5-0.5-51.1-0.6-76.6c0-14.8,0-29.7,0-44.5c0-10.7,0-21.4,0-32.1c0-9.9,0-19.8,0-29.7
		c0-12.4,0-24.7,0-37.1c0-14,0-28,0-42c0.1-10.3-0.5-20.7,0.6-30.9c1.3-11.9-3.6-14.3-14.6-14.3c-109.2,0.4-218.4,0.2-327.6,0.2
		c-25.6,0-51.1,0.2-76.6-0.1c-7.7-0.1-11.6,2.2-11.2,10.5c0.5,11.5,0.6,23,0.8,34.5c-1.1,14-1.3,28,0,42c-1.1,12.4-1.3,24.7,0,37.1
		C296.6,472.2,296.5,482.1,297.8,492z"/>
	<path fill="#FBDC19" d="M726.4,568.6c0.1,25.5-0.1,51.1,0.6,76.6c0.3,10.3-3.7,12.5-13.1,12.4c-67.5-0.3-135.1-0.2-202.7-0.2
		c-66.7,0-133.5-0.2-200.2,0.2c-10.7,0.1-14.6-2.9-14.2-13.9c0.9-24.3,0.6-48.6,0.8-72.8c0.5-0.7,1-1.5,1.5-2.2
		C441.6,568.6,584,568.6,726.4,568.6z"/>
	<path fill="#F9EA61" d="M297.7,383.2c-0.3-11.5-0.3-23-0.8-34.5c-0.4-8.3,3.5-10.6,11.2-10.5c25.5,0.3,51.1,0.1,76.6,0.1
		c109.2,0,218.4,0.1,327.6-0.2c11,0,15.9,2.4,14.6,14.3c-1.1,10.2-0.5,20.6-0.6,30.9C583.5,383.2,440.6,383.2,297.7,383.2z"/>
	<path fill="#FBDF20" d="M726.4,568.6c-142.4,0-284.7,0-427.1,0.1c-0.1-10.3,0.5-20.6-0.4-30.9c-1-10.7,2.4-14,13.6-14
		c138,0.4,275.9,0.3,413.9,0.3C726.4,538.9,726.4,553.7,726.4,568.6z"/>
	<path fill="#F9E851" d="M297.7,383.2c142.9,0,285.8,0,428.7,0c0,14,0,28,0,42c-142.9,0-285.7,0-428.6,0
		C296.3,411.2,296.6,397.2,297.7,383.2z"/>
	<path fill="#F9E644" d="M297.7,425.2c142.9,0,285.7,0,428.6,0c0,12.4,0,24.7,0,37.1c-142.9,0-285.7,0-428.6,0
		C296.4,449.9,296.6,437.6,297.7,425.2z"/>
	<path fill="#FAE22C" d="M726.4,524.1c-138,0-275.9,0.1-413.9-0.3c-11.2,0-14.5,3.2-13.6,14c0.9,10.2,0.3,20.6,0.4,30.9
		c-0.5,0.7-1,1.5-1.5,2.2c-1.3-26.3-1.1-52.6,0.1-78.9c142.9,0,285.7,0,428.6-0.1C726.4,502.6,726.4,513.4,726.4,524.1z"/>
	<path fill="#FAE436" d="M726.4,491.9c-142.9,0-285.7,0-428.6,0.1c-1.3-9.9-1.1-19.8,0-29.7c142.9,0,285.7,0,428.6,0
		C726.4,472.2,726.4,482,726.4,491.9z"/>
</g>
</svg>
