<svg xmlns="http://www.w3.org/2000/svg" xmlns:xlink="http://www.w3.org/1999/xlink" width="1024" height="1024" viewBox="0 0 1024 1024"><defs><clipPath id="b"><rect width="1024" height="1024"/></clipPath></defs><g id="a" clip-path="url(#b)"><circle cx="512" cy="512" r="512" fill="#d9e0e7"/><path d="M806,481.8c0,125.3-128.6,226.9-287.3,226.9-42.5,0-100.8-25.5-133.1-4.5C275,776,162.2,723.1,179.3,719.7c87.8-17.2,145.9-70.3,137.9-76.1-4.2-3,0,0-4-3.2-50.6-40.9-81.8-96.9-81.8-158.6,0-125.3,128.6-226.9,287.3-226.9S806,356.5,806,481.8Z" fill="#fff"/><path d="M578.5,639.5c-36.1,0-55.2-19.1-78-35.4-62.7-45.2-115.1-100-127.7-180.8-6.9-43.9,9.8-79.8,46.7-105.2,6.1-4.2,18.9-9.4,20.8-7.2,17.6,19.8,36,39.8,49.2,62.6,9.8,16.9-3.3,31.1-17.3,42.5-26.9,21.8-29.9,32.3-10.2,59.6,16.3,22.6,36.5,42.8,56.7,62.2,15.6,14.9,33.3,15.2,48.6-2.5,13-15.1,30.2-27.9,48.1-15.9,21.2,14.2,38.4,34.7,56,53.7,2.3,2.5-1.6,14.1-5.6,18.7C643.4,617,616.8,634.9,578.5,639.5Z" fill="#d9e0e7"/></g></svg>