<svg xmlns="http://www.w3.org/2000/svg" xmlns:xlink="http://www.w3.org/1999/xlink" width="1024" height="1024" viewBox="0 0 1024 1024"><defs><clipPath id="b"><rect width="1024" height="1024"/></clipPath></defs><g id="a" clip-path="url(#b)"><circle cx="512" cy="512" r="512" fill="#d9e0e7"/><g transform="translate(220.977 247.808)"><path d="M164.813,66.453,84.881,146.384,4.95,66.453Z" transform="translate(-4.95 383.386)" fill="#fff"/><path d="M263,272.724c-16.714-19.62-15.987-30.515-5.812-40.692,12.354-12.354,25.432-7.266,39.965,6.539Zm171.487-218c12.354-12.354,25.432-7.266,39.965,6.539l-34.15,34.152c-17.439-19.62-16.714-29.792-5.812-40.692ZM537.675,89.608c-15.26,23.253-42.873,61.03-71.211,32.7L538.4,50.369c-6.539-6.539-10.9-12.354-15.26-15.987C484.622-4.129,441.032-4.856,406.88,29.3c-22.528,22.528-29.065,48.685-22.528,73.392L361.824,77.257c-5.812,2.906-33.425,27.613-13.081,63.945l-25.428-21.074L289.163,154.28l46.506,46.506c-35.607-28.34-74.117-25.432-104.636,5.087-32.7,32.7-30.515,72.665-5.812,105.363l-5.087-5.087c-32.7-32.7-68.311-21.074-85.746-3.633-13.806,13.806-21.8,31.973-18.166,45.056l-70.486-70.49L7.95,314.868,147.466,454.384H222.31l-50.137-50.137c-26.159-26.886-26.886-40.692-13.806-53.772,12.354-12.354,26.886-4.36,52.318,20.347L260.1,420.233l37.069-37.069-47.245-47.223c34.152,25.432,74.844,26.886,111.178-9.447l.727-.727h0c22.528-20.347,29.065-40.692,29.065-40.692l-28.33-18.891c-15.26,23.253-42.146,61.03-70.484,32.7l71.938-71.938L409.071,272l39.24-39.24L392.36,176.81c-26.159-26.159-10.9-50.866,0-60.312a107.5,107.5,0,0,0,21.8,30.515c36.332,36.331,82.837,43.6,124.256,2.906l.727-.727h0c22.528-20.347,29.065-40.692,29.065-40.692L537.692,89.608Z" transform="translate(13.849 -4.547)" fill="#fff"/></g></g></svg>