<svg xmlns="http://www.w3.org/2000/svg" xmlns:xlink="http://www.w3.org/1999/xlink" width="1024" height="1024" viewBox="0 0 1024 1024"><defs><clipPath id="b"><rect width="1024" height="1024"/></clipPath></defs><g id="a" clip-path="url(#b)"><path d="M512,0c282.77,0,512,229.23,512,512s-229.23,512-512,512S0,794.77,0,512,229.23,0,512,0Z" fill="#d9e0e7"/><path d="M512.9,276.8H299.1c-39.1,0-62,23-62,62.3V653c0,42.8,21.8,64.6,64.5,64.6,61.8,0,123.6.2,185.4-.2,9.5-.1,13.5,2.4,12.9,12.5-.8,13.1.1,26.4-.3,39.5-.3,10.4,6.6,9.2,13.3,9.4,7.1.3,12-.7,11.5-9.8-.6-12.3.5-24.8-.3-37.1-.8-11.6,3.5-14.8,14.8-14.7,62.6.5,125.2.4,187.9.2,37.5-.1,60.8-23.3,60.9-61q.3-159.45,0-318.9c-.1-37.5-23.8-60.9-61.1-60.9Q619.95,276.75,512.9,276.8Z" fill="#fefefe"/><path d="M512.9,276.8H726.7c37.3,0,61,23.4,61.1,60.9q.3,159.45,0,318.9c-.1,37.6-23.4,60.9-60.9,61-62.6.2-125.2.3-187.9-.2-11.3-.1-15.7,3.1-14.8,14.7.9,12.3-.2,24.7.3,37.1.4,9-4.4,10-11.5,9.8-6.8-.2-13.6.9-13.3-9.4.3-13.2-.5-26.4.3-39.5.6-10.1-3.5-12.5-12.9-12.5-61.8.3-123.6.2-185.4.2-42.7,0-64.5-21.9-64.5-64.6V339.3c0-39.3,22.9-62.2,62-62.3C370.4,276.7,441.7,276.8,512.9,276.8Zm-.4,415.9H725.1c25.5,0,38.1-12.4,38.1-37.7q.15-157.65,0-315.2c0-25.4-12.7-38.3-37.7-38.3H300.2c-26.2,0-38.5,12.3-38.5,38.5V654c0,27.1,11.8,38.7,39.3,38.7Z" fill="#fff"/><path d="M512.5,692.7H301.1c-27.6,0-39.3-11.6-39.3-38.7V340c0-26.2,12.3-38.5,38.5-38.5H725.6c25,0,37.7,12.9,37.7,38.3q.15,157.65,0,315.2c0,25.3-12.6,37.7-38.1,37.7ZM297.8,492c-1.2,26.3-1.3,52.6-.1,78.9-.2,24.3,0,48.6-.8,72.8-.4,11,3.6,14,14.2,13.9,66.7-.4,133.5-.2,200.2-.2,67.6,0,135.1-.1,202.7.2,9.3,0,13.4-2.2,13.1-12.4-.8-25.5-.5-51.1-.6-76.6V383.2c.1-10.3-.5-20.7.6-30.9,1.3-11.9-3.6-14.3-14.6-14.3-109.2.4-218.4.2-327.6.2-25.6,0-51.1.2-76.6-.1-7.7-.1-11.6,2.2-11.2,10.5.5,11.5.6,23,.8,34.5a245.451,245.451,0,0,0,0,42,191.619,191.619,0,0,0,0,37.1A114.357,114.357,0,0,0,297.8,492Z" fill="#d9e0e7"/><path d="M726.4,568.6c.1,25.5-.1,51.1.6,76.6.3,10.3-3.7,12.5-13.1,12.4-67.5-.3-135.1-.2-202.7-.2-66.7,0-133.5-.2-200.2.2-10.7.1-14.6-2.9-14.2-13.9.9-24.3.6-48.6.8-72.8.5-.7,1-1.5,1.5-2.2Q512.85,568.55,726.4,568.6Z" fill="#fff"/><path d="M297.7,383.2c-.3-11.5-.3-23-.8-34.5-.4-8.3,3.5-10.6,11.2-10.5,25.5.3,51.1.1,76.6.1q163.8,0,327.6-.2c11,0,15.9,2.4,14.6,14.3-1.1,10.2-.5,20.6-.6,30.9Q512.1,383.15,297.7,383.2Z" fill="#fff"/><path d="M726.4,568.6q-213.6,0-427.1.1c-.1-10.3.5-20.6-.4-30.9-1-10.7,2.4-14,13.6-14q207,.6,413.9.3Z" fill="#fff"/><path d="M297.7,383.2H726.4v42H297.8A226.64,226.64,0,0,1,297.7,383.2Z" fill="#fff"/><path d="M297.7,425.2H726.3v37.1H297.7A191.614,191.614,0,0,1,297.7,425.2Z" fill="#fff"/><path d="M726.4,524.1q-207,0-413.9-.3c-11.2,0-14.5,3.2-13.6,14,.9,10.2.3,20.6.4,30.9-.5.7-1,1.5-1.5,2.2-1.3-26.3-1.1-52.6.1-78.9q214.35,0,428.6-.1C726.4,502.6,726.4,513.4,726.4,524.1Z" fill="#fff"/><path d="M726.4,491.9q-214.35,0-428.6.1a122.963,122.963,0,0,1,0-29.7H726.4Z" fill="#fff"/></g></svg>