<?xml version="1.0" encoding="utf-8"?>
<!-- Generator: Adobe Illustrator 19.2.1, SVG Export Plug-In . SVG Version: 6.00 Build 0)  -->
<svg version="1.1" id="Layer_1" xmlns="http://www.w3.org/2000/svg" xmlns:xlink="http://www.w3.org/1999/xlink" x="0px" y="0px"
	 viewBox="0 0 1024 1024" enable-background="new 0 0 1024 1024" xml:space="preserve">
<circle id="XMLID_1_" fill="#64C8F4" cx="512" cy="512" r="512"/>
<path id="XMLID_21_" fill="#FFFFFF" d="M511,229c-156.3,0-283,126.7-283,283s126.7,283,283,283s283-126.7,283-283S667.3,229,511,229
	z M511.2,656.4c6.9,4.5,13.8,8.8,21.4,12.3c-0.2,0.5-0.3,1-0.5,1.4H404.7c-0.1-0.4-0.1-0.8-0.2-1.2c5.7-2.3,11.4-4.6,17.2-6.8
	c8.4-3.2,13.8-8.7,17.1-17.5c10.9-29.4,18.8-59.6,25.9-90.1c4.7-20.4,8.8-40.9,13.3-61.3c1.2-5.2,0-8.9-4.7-11.9
	c-6.1-4-12.4-7.6-18.9-10.8c-20.8-10-40.8-21.3-59.6-34.7c-1.1-0.8-2.3-1.6-3.4-2.4c-1.5-1.1-2.8-2.3-1.7-4.3c1.1-2,2.9-0.6,4.2-0.2
	c22.6,7.8,45.9,13,69.6,16c25,3.2,50,3.6,75.1,1.9c36.6-2.5,72.1-10.1,106.8-21.9c1-0.3,1.9-0.8,3.1-0.1c0.8,2.9-1.3,3.8-3.4,4.6
	c-31.5,12.2-60.4,29.6-90.5,44.5c-6.4,3.2-10.2,8.7-11.8,15.7c-11.8,52.4-23.5,104.8-35.4,157.2C506.3,651.5,507.5,654,511.2,656.4z
	 M467.1,369.3c5.5-13.5,15.6-22.8,28.3-29.1c17.9-8.9,36.6-11.4,55.8-5c31.1,10.5,38.9,42.7,16.2,66.4
	c-12.9,13.4-32.2,21.3-49.5,21.3c-16.1,0.2-28.2-3.1-38.9-11.1C465.7,401.8,460.8,384.7,467.1,369.3z"/>
</svg>
