<svg xmlns="http://www.w3.org/2000/svg" xmlns:xlink="http://www.w3.org/1999/xlink" width="1024" height="1024" viewBox="0 0 1024 1024"><defs><clipPath id="b"><rect width="1024" height="1024"/></clipPath></defs><g id="a" clip-path="url(#b)"><circle cx="512" cy="512" r="512" fill="#d9e0e7"/><path d="M214.8,416.9H174.5V599.6h40.3Z" fill="#fff"/><path d="M300.8,483.3c-36.2,0-68.2,21.9-68.2,60.5s32,59.9,68.2,59.9S369,581.8,369,543.8c0-39.1-32-60.5-68.2-60.5Zm0,34.4c16.6,0,25.5,11.9,25.5,25.5,0,14.2-9.5,25.5-25.5,25.5s-25.5-11.3-25.5-25.5c-.6-13.6,8.9-25.5,25.5-25.5Z" fill="#fff"/><path d="M423,416.9H383.3V599.6H423V553.9l43.9,45.7h56.3l-59.9-60.5,56.4-52.2H465.1L423,527.8Z" fill="#fff"/><path d="M582.5,517.7c16.6,0,25.5,11.9,25.5,25.5,0,14.2-9.5,25.5-25.5,25.5-16.6,0-25.5-11.3-25.5-25.5-.6-13.6,8.9-25.5,25.5-25.5Zm64.7-30.8H606.9v11.3c-8.3-10.1-21.9-14.8-35-14.8-33.2,0-56.9,27.9-56.9,59.9,0,32.6,23.7,60.5,56.9,60.5,13,0,27.3-5.3,34.4-16.6h.6v12.5h40.3V486.9Z" fill="#fff"/><path d="M710.1,416.9H669.7V599.6h40.4Z" fill="#fff"/><path d="M768.8,526.6c2.4-11.9,11.9-17.8,23.7-17.8,10.7,0,20.8,7.1,22.5,17.8Zm83.6,19c0-38.6-22.5-62.9-61.7-62.9-36.8,0-62.9,22.5-62.9,60.5,0,39.1,27.9,59.9,65.2,59.9,25.5,0,51-11.9,57.5-38.6H811.9c-4.2,7.7-10.7,10.1-19,10.1-16.6,0-24.9-8.9-24.9-24.9h84.2v-4.1Z" fill="#fff"/></g></svg>