<svg xmlns="http://www.w3.org/2000/svg" xmlns:xlink="http://www.w3.org/1999/xlink" width="1024" height="1024" viewBox="0 0 1024 1024"><defs><clipPath id="b"><rect width="1024" height="1024"/></clipPath></defs><g id="a" clip-path="url(#b)"><circle cx="512" cy="512" r="512" fill="#d9e0e7"/><path d="M794.3,314.3c0,34.6-.1,65.8.1,97.1,0,8-5.3,12.5-10,17.5-24.6,26.2-49,52.8-74.2,78.5-8.5,8.7-8,14.3.1,22.8,24.8,26,48.7,53,73.4,79.2,6.8,7.2,10.1,14.6,9.9,24.7-.6,24.3-.2,48.6-.2,72.7-7.1,2.7-8.9-3.1-11.7-6.1q-77.85-84.6-155.6-169.3c-10.6-11.5-13.7-22.8-2.4-35.2Q704.85,407.55,786.2,319C787.3,318,789,317.5,794.3,314.3Z" fill="#fff"/><path d="M317.7,518.8c-28-30.4-54.4-59.7-81.5-88.2-8.2-8.6-11.8-17.5-11.5-29.4.7-27.8.2-55.6.2-83.8,8.7-.9,11.1,6.3,14.9,10.5q75,81.3,149.4,163c16.1,17.6,16.1,25.7.3,43Q314.95,615.35,240,696.8c-3.8,4.1-6.5,9.6-15.6,12.4,0-29.6-.1-58.1.1-86.7,0-5.8,5.4-8.7,8.8-12.5C260.9,580.1,288.5,550.4,317.7,518.8Z" fill="#fff"/><path d="M419.5,511.5a90.116,90.116,0,0,1,90-89.6c50,0,91,41.4,90.3,91.3-.7,50.2-41.9,90.4-92,89.6C458.7,602.1,419.1,561.1,419.5,511.5Zm6.9.5c-.1,47.4,36.2,84.1,83.3,84,46.9-.1,83.6-37.3,83.2-84.3-.4-46.5-36.5-82.8-82.7-83C462.8,428.4,426.5,464.5,426.4,512Z" fill="#fff"/><path d="M775.2,264.8q-87.15,99-174.3,197.9c-2.3-2-4.5-4-6.8-6q87.15-99,174.4-198C770.7,260.7,772.9,262.7,775.2,264.8Z" fill="#fff"/><path d="M244.6,758.4c58.1-66,116.2-132,176.2-200.2C421.7,573.1,265.3,754,248.5,762Z" fill="#fff"/><path d="M251.3,258.7q87.15,99,174.2,198.1c-2.2,1.9-4.4,3.9-6.6,5.8q-87.15-99-174.4-198C246.7,262.6,249,260.7,251.3,258.7Z" fill="#fff"/><path d="M768.3,764.5c-58.1-66-116.2-132-176.3-200.3,15.2,1.2,175.4,180.6,179.9,197.1C770.7,762.3,769.5,763.4,768.3,764.5Z" fill="#fff"/><circle cx="83.8" cy="83.8" r="83.8" transform="translate(426.5 428.4)" fill="#fff"/></g></svg>