<?xml version="1.0" encoding="utf-8"?>
<!-- Generator: Adobe Illustrator 20.0.0, SVG Export Plug-In . SVG Version: 6.00 Build 0)  -->
<svg version="1.1" id="Layer_1" xmlns="http://www.w3.org/2000/svg" xmlns:xlink="http://www.w3.org/1999/xlink" x="0px" y="0px"
	 viewBox="0 0 1024 1024" style="enable-background:new 0 0 1024 1024;" xml:space="preserve">
<style type="text/css">
	.st0{fill:#F0F2F4;}
	.st1{fill:#DE493A;}
	.st2{fill:#AB3C33;}
	.st3{fill:#E9893A;}
	.st4{fill:#F8C135;}
	.st5{fill:#DA923B;}
</style>
<circle id="XMLID_1_" class="st0" cx="512" cy="512" r="512"/>
<path id="XMLID_12_" class="st1" d="M486.6,213.9c0,1.9-0.1,3.8-0.1,5.6c0,57.2,0,114.4,0.1,171.5c0,3.3-0.7,4.6-4.3,4.6
	c-7.3,0-14.6,0.3-21.8,0.9c-46.2,4-92.6,4.9-138.9,7.5c-3,0.2-6.8,1.9-8.6-0.2c-1.5-1.7-0.9-5.5-1.1-8.3
	c-2.1-31.2-4.2-62.4-6.3-93.5c-1.8-26.3-3.6-52.6-5.4-78.9c0-0.6-0.4-1.1-0.6-1.7c0-2.5-1-6,0.3-7.3c1.3-1.3,4.8-0.3,7.3-0.3
	C366.9,213.9,426.7,213.9,486.6,213.9z"/>
<path id="XMLID_11_" class="st2" d="M316.9,810.5c1.1-14.5,2.2-29,3.3-43.5c1.6-20.4,3.3-40.8,5-61.1c1.4-17.6,2.9-35.3,4.3-52.9
	c0.2-2.2,0.6-2.9,3-2.8c27.2,1.6,54.4,2.8,81.5,4.6c22.7,1.6,45.4,3.5,68.1,4.3c3.3,0.1,4.4,1,4.3,4.5c-0.1,48.2-0.1,96.5-0.1,144.7
	c0,0.7,0.1,1.5,0.1,2.2C430,810.5,373.4,810.5,316.9,810.5z"/>
<path id="XMLID_10_" class="st3" d="M625.1,395.4c-32,0-64.1-0.1-96.1,0.1c-3.3,0-4.2-0.7-4-4.1c1.7-30.7,3.3-61.4,4.9-92.1
	c1.3-24.6,2.7-49.1,4-73.7c0.1-2.7,0.9-3.3,3.5-3c6.4,0.6,12.8,0.5,19.1,1.4c20.1,2.8,40.4,3.1,60.6,4.7c16.4,1.3,32.8,2.3,49.2,3.4
	c18.9,1.3,37.8,2.6,56.7,3.7c2,0.1,2.7,0.8,2.5,2.7c-0.1,0.5,0,1,0,1.5c0,50.4,0,100.8,0.1,151.1c0,3.5-1,4.3-4.4,4.3
	C689.2,395.3,657.1,395.4,625.1,395.4z"/>
<path id="XMLID_5_" class="st4" d="M406.2,451c29.8,0,59.6,0.1,89.4-0.1c3.2,0,3.9,0.9,3.9,4c-0.1,52.2-0.1,104.3,0,156.5
	c0,3.7-1.2,4.1-4.3,3.7c-18.2-2.7-36.4-5.2-54.7-7.1c-20.7-2.2-41.4-4.8-62.1-7.1c-20.8-2.4-41.7-4.7-62.5-7
	c-2.6-0.3-3.5-1.1-3.5-3.9c0.1-45,0.1-90,0-135c0-3.2,1-3.9,4.1-3.9C346.3,451.1,376.3,451,406.2,451z"/>
<path id="XMLID_4_" class="st5" d="M617.6,453.2c37.7-1.2,64.9-2,92.1-3c3.3-0.1,4,0.6,3.9,3.8c-1.6,30.6-3,61.2-4.5,91.8
	c-0.8,16.9-1.6,33.9-2.3,50.8c-0.1,2.3-0.9,2.9-3.1,3c-29.4,0.9-58.7,1.9-88.1,3c-23.1,0.8-46.1,1.7-69.2,2.6c-3.1,0.1-4-0.7-4-3.9
	c0-41.5-0.1-82.9-0.2-124.4c0-6.2-0.1-12.3-0.3-18.4c-0.1-2.3,0.7-2.9,3-3C572.6,454.6,600.4,453.7,617.6,453.2z"/>
</svg>
