<svg xmlns="http://www.w3.org/2000/svg" width="40" height="40" viewBox="0 0 40 40">
  <g id="Group_16447" data-name="Group 16447" transform="translate(-538 -1751)">
    <circle id="XMLID_1_" cx="20" cy="20" r="20" transform="translate(538 1751)" fill="#dae0e7"/>
    <g id="Group_13371" data-name="Group 13371" transform="translate(19126 11817.001)">
      <g id="Group_13371-2" data-name="Group 13371" transform="translate(-1 10)">
        <path id="Path_9190" data-name="Path 9190" d="M-6.013-29.51c-.043-.067,0-.118.012-.169.131-.41.264-.82.4-1.231q.641-1.987,1.281-3.974.6-1.866,1.2-3.732.055-.172.106-.344a.113.113,0,0,0-.042-.132l-.236-.177-5.515-4.058-2.02-1.484c-.056-.041-.11-.086-.168-.131.034-.063.089-.038.131-.038q.913,0,1.825,0l7.7,0c.284,0,.237.035.328-.244Q-.274-47.5.458-49.779l1.175-3.652q.149-.464.3-.929A.279.279,0,0,1,2-54.51a.549.549,0,0,1,.1.233Q2.67-52.5,3.238-50.725q.644,2.008,1.29,4.016.237.736.471,1.474c.017.054.035.107.052.161a.123.123,0,0,0,.139.1c.063,0,.126,0,.189,0H15c-.029.084-.094.1-.139.141s-.112.084-.169.126l-.152.113-.171.124-.152.113-.152.113-.171.123-.152.113-.152.113-.171.122c-.051.037-.1.076-.152.114l-.169.125c-.051.038-.1.073-.154.111l-.152.113-.169.126-.154.111-.169.125-.153.111L12-42.725l-.169.125-.153.112-.153.112-.169.126-.153.112-.169.125-.153.112-.153.112-.169.126-.154.111-.152.112-.169.126-.154.111-.169.125-.153.113-.153.111c-.057.041-.113.083-.169.125l-.152.113-.171.123-.153.113c-.051.038-.1.076-.152.113l-.171.123-.152.113-.152.113-.171.123-.152.113-.169.126-.153.111-.153.113-.169.125c-.051.038-.1.073-.153.112s-.109.089-.165.132-.1.076-.152.113l-.154.111-.169.126-.152.113-.154.111-.169.126c-.05.038-.1.077-.152.113s-.116.08-.172.122-.1.076-.151.114-.1.077-.151.114-.116.08-.172.121-.1.076-.152.113l-.154.111-.169.125-.152.113-.17.124-.153.112-.152.113-.169.125-.153.112-.169.125-.153.112-.153.112-.17.125-.152.113-.153.112-.17.124-.152.113c-.057.041-.116.079-.172.122a.393.393,0,0,0-.136.127c.027.023.052.008.077,0L6.253-36.5c.433-.113.865-.23,1.3-.345l.125-.031.022.059.044.119q.585,1.826,1.171,3.653.508,1.584,1.02,3.167c.036.113.069.227.106.348-.069.027-.105-.013-.14-.039-.228-.165-.453-.333-.679-.5l-3.393-2.5-3.411-2.51-.289-.211c-.12-.086-.131-.086-.257.005-.2.144-.4.291-.594.437l-3.786,2.782q-1.6,1.178-3.209,2.357a1.479,1.479,0,0,1-.294.2" transform="translate(-18569.004 -10013.981)" fill="#fff"/>
        <path id="Path_9191" data-name="Path 9191" d="M0-4.348,5.534-5.762,4.918-7.95Z" transform="translate(-18566.859 -10045.092)" fill="#dae0e7"/>
      </g>
    </g>
  </g>
</svg>
