<svg xmlns="http://www.w3.org/2000/svg" viewBox="0 0 1024 1024"><defs><style>.cls-1{isolation:isolate;}.cls-2{fill:#ed1c24;}.cls-3{fill:#fff;}.cls-4{mix-blend-mode:darken;}.cls-5{fill:#f36c71;}</style></defs><title>tomtom</title><g class="cls-1"><g id="Layer_1" data-name="Layer 1"><circle id="_Path_" data-name="&lt;Path&gt;" class="cls-2" cx="512" cy="512" r="512"/><g id="Beeldmerk"><g id="Wereldbol"><g id="Witbasis"><path class="cls-3" d="M512.68,797.55c-156.81,0-284.4-127.58-284.4-284.39s127.58-284.4,284.4-284.4,284.4,127.58,284.4,284.4S669.5,797.55,512.68,797.55Zm0-559.17c-151.51,0-274.78,123.27-274.78,274.78S361.16,787.93,512.68,787.93,787.46,664.67,787.46,513.16,664.19,238.38,512.68,238.38Z" transform="translate(0 0)"/></g></g><g id="Handen"><g id="Dikte_Rood" data-name="Dikte Rood"><path d="M386.11,397.09v0l0.38,0.27Z" transform="translate(0 0)"/><path d="M487.12,567.63h0c0-.22.08-0.42,0.12-0.64Z" transform="translate(0 0)"/><path d="M668,273.11l-0.24.38a4.78,4.78,0,0,1,.31-0.36Z" transform="translate(0 0)"/></g><g id="Dikte_Zwart" data-name="Dikte Zwart" class="cls-4"><path d="M386.11,397.09v0l0.38,0.27Z" transform="translate(0 0)"/><path d="M487.12,567.63h0c0-.22.08-0.42,0.12-0.64Z" transform="translate(0 0)"/><path d="M668,273.11l-0.24.38a4.78,4.78,0,0,1,.31-0.36Z" transform="translate(0 0)"/></g><g id="Handen-2" data-name="Handen"><path class="cls-3" d="M598.1,646.82a54.9,54.9,0,0,0-9.36-9.8c-7.38-5.88-21.66-8.51-35.39,3.41L552,641.61c-19.26,17.67-51.49,47.26-77.18,41.24-19.17-4.49-21.48-21.77-20.3-38.89a128.66,128.66,0,0,1,1.38-13.1c0-.12,0-0.24,0-0.37,0,0.09,0,.18,0,0.27,0.52-3.39,1.1-6.63,1.66-9.53,2.48-12.55,22.85-102.36,33.43-148.48,1.56-6.68,3.07-15.11,2.2-21.48-1.34-9.87-9.17-13.26-19.85-16-12.72-2.77-29.69,2.24-34.33,16.75C434,469,428.34,492.14,414.48,561.68c-0.78,3.28-1.56,7.12-2.72,10.68,0.06-.19.13-0.35,0.19-0.54-2.35,7.41-4.71,14.86-14.74,12.88-9.12-2.6-9.69-13-10.1-20.51,0,0-.09-1.55-0.09-1.57l-0.65-17.33c-1.32-26.16-1.3-53.76.08-84.37l1-18,1.37-29.56c0.34-8.22-.57-12.44-4.78-16-4-3.36-10.43-4.1-18.32-2.7-6.32,1.19-12.49,3.81-16.83,8.69-4,4.8-5.63,10.88-6.21,17q-2.12,22.61-3.18,45.3-2.09,45.41-.39,90.86c0.1,2.22.15,4.24,0.15,6.13,0-.13,0-0.23,0-0.37,0,0.22,0,.38,0,0.59V563c0.19,15.22-2,20.39-10.29,20.82-9.14.28-11.81-8.07-13.44-14.76l-1.08-4.44c-3.57-17.74-6.64-35.59-9.15-53L303.52,501c-3-18-5-29.93-6.8-45.94-0.42-3.09-1.35-8.82-5.57-10.73-2.12-1-6-1.86-12.55,1.72h0c-0.23.13-.44,0.2-0.67,0.34-9.83,6.36-14.43,15.23-14.34,26.8,0.34,13.65,1.44,29.88,3,43.43a721.9,721.9,0,0,0,12.93,77.3c0.16,0.77.32,1.57,0.46,2.39,1.32,7.32,1,12.6-2.09,15a7.88,7.88,0,0,1-7.18.69c-5.32-1.83-10.2-11.24-12.24-15.87l-0.46-1c-8-18.89-14.26-40-20-60.88l-0.42-1.45s-1.2-4.11-4.55-4.77c-3.07-.61-6.3-0.15-11.39,5.78-7.09,8.86-1.38,30.52,1,42.75,12.31,62.72,62.52,160.78,155.3,197.9,71.52,28.6,115.93-7.76,205.92-86.73,7.29-6.4,15.65-16.9,17.85-26.91C602.61,655.88,601.91,652.17,598.1,646.82Z" transform="translate(0 0)"/><path class="cls-3" d="M792.7,413.41c-27.59-82-74.55-118.46-82.54-124.71-2.81-2.2-18.08-14.46-26.94-16.61a28.72,28.72,0,0,0-7.09-1.16h-1.2a7.58,7.58,0,0,0-4.22,1.06c-1.12.89-.93,2.47-0.9,3,0.16,3.14,4.3,8.3,10.5,14.33,13,12.64,32.29,33.56,38.9,42.86,4,5.64,6.06,12.83-.3,16.68-1.4.75-4.09,1.78-8-.31l-0.1,0-0.17-.09,0.08,0a36.92,36.92,0,0,1-8.21-6.44c-19.58-19.1-65.15-58.35-93-76.91-12.71-8.46-23.45-9.53-33.83-7.38a16.79,16.79,0,0,0-1.82.6c-0.44.15-.92,0.29-1.31,0.46a13.4,13.4,0,0,0-2,1.14c-0.12.08-.28,0.15-0.39,0.24a10.85,10.85,0,0,0-.85.77,7.83,7.83,0,0,0-2.08,3.34c-0.59,1.94-.46,5.82,3.24,9.11,12.25,10.89,72.07,63.4,82.28,75,9.66,11,9.84,16.9,6.09,20.74-5.42,5.52-14,.33-16.31-1.15,0.23,0.14.42,0.22,0.64,0.35a61.93,61.93,0,0,1-7-5C607,339.54,541.84,297.67,526.6,290c-16.71-8.35-22.72-11-37.62-3-0.58.31-1.11,0.65-1.65,1-6,4-8.21,7.65-8.73,11.77-0.45,3.53.65,9,8.26,14.16,63.29,42.84,76.92,50,127.12,88,3.86,2.92,12.76,11.13,4.73,19.16-1.47,1.47-4.22,2.45-8,2.08A15.6,15.6,0,0,1,609,423l-0.86-.13c0.27,0.07.49,0.05,0.76,0.11-4.7-.85-10.15-3.76-15.34-6.86-27.52-16.46-75.43-41.25-100.73-50.94-17.46-6.68-28.23.14-34.87,8.89-5,7.06-6.42,15.45-5.13,20.83,1.61,6.71,8.32,11,12.84,13.62,35.58,20.69,63.07,32.83,98.06,54.49,11.06,6.72,12.93,7.65,23.7,14.82,12.34,8.29,31.3,20.31,36,35.87l0-.16A32.79,32.79,0,0,1,625,523.75c-0.1,7.09-2.1,14.08-11.79,20.68-17.09,11.65-47.55,8.23-74.23,6.44-5.64-.38-15.33-1.05-21.14-1.08-13.92-.06-21.38,3.42-25.59,9.94-3.78,5.86-4.13,16-4.13,21.1,0,0.48.15,2.86,0.45,5.12a13.76,13.76,0,0,0,2.1,6c0.11,0.14.24,0.35,0.35,0.47,6.28,8,18.65,10.53,32.59,12.13,24.85,1.45,51,1.93,81.31,2.52,70.92,1.39,151.36-3,182.9-46.09C810.57,529.89,809.06,461.07,792.7,413.41Z" transform="translate(0 0)"/></g><g id="Facetranden"><path class="cls-5" d="M572.54,258.76a11.84,11.84,0,0,0-2,1.14A13.4,13.4,0,0,1,572.54,258.76Z" transform="translate(0 0)"/><path class="cls-5" d="M339.23,562.88a0.39,0.39,0,0,0,0,.08v-0.08Z" transform="translate(0 0)"/><path class="cls-5" d="M674.94,270.92h0Z" transform="translate(0 0)"/><path class="cls-5" d="M710.94,348.54l-0.1,0Z" transform="translate(0 0)"/><path class="cls-5" d="M454.55,644c0.08-1.14.17-2.26,0.27-3.4,0-.54.11-1.12,0.15-1.67,0-.22,0-0.43.07-0.64,0.23-2.39.51-4.84,0.89-7.39A128.66,128.66,0,0,0,454.55,644Z" transform="translate(0 0)"/><path class="cls-5" d="M569.29,260.9a10.85,10.85,0,0,1,.85-0.77A8.4,8.4,0,0,0,569.29,260.9Z" transform="translate(0 0)"/><path class="cls-5" d="M610.66,423.21l-0.44-.06c-0.39,0-.8-0.1-1.21-0.16A15.6,15.6,0,0,0,610.66,423.21Z" transform="translate(0 0)"/><path class="cls-5" d="M410.89,574.77l0.15-.39Z" transform="translate(0 0)"/><path class="cls-5" d="M338.82,570.17l0-.23C338.85,570,338.83,570.09,338.82,570.17Z" transform="translate(0 0)"/><path class="cls-5" d="M366.17,394.56c-0.16,0-.32.08-0.48,0.11,1.2-.25,2.32-0.4,3.42-0.53C368.14,394.25,367.16,394.38,366.17,394.56Z" transform="translate(0 0)"/><path class="cls-5" d="M602.27,656.65c0,0.23,0,.48,0,0.71C602.23,657.12,602.26,656.88,602.27,656.65Z" transform="translate(0 0)"/><path class="cls-5" d="M602,659.67v0Z" transform="translate(0 0)"/><path class="cls-5" d="M339.1,566.89c0.05-.91.08-1.89,0.09-2.87C339.18,565,339.15,566,339.1,566.89Z" transform="translate(0 0)"/><path class="cls-5" d="M601.72,651.47a0.91,0.91,0,0,1,0,.13A0.91,0.91,0,0,0,601.72,651.47Z" transform="translate(0 0)"/><path class="cls-5" d="M602.15,653.79c0,0.37.06,0.74,0.08,1.13C602.2,654.55,602.19,654.17,602.15,653.79Z" transform="translate(0 0)"/><path class="cls-5" d="M612.07,423.17l-0.63,0C611.65,423.18,611.87,423.19,612.07,423.17Z" transform="translate(0 0)"/><path class="cls-5" d="M482.49,291.78l0.5-.47Z" transform="translate(0 0)"/><path class="cls-5" d="M488.87,589l0,0Z" transform="translate(0 0)"/><path class="cls-5" d="M483.54,290.82a33.81,33.81,0,0,1,3.78-2.78A27.29,27.29,0,0,0,483.54,290.82Z" transform="translate(0 0)"/><path class="cls-5" d="M490,591.06c0.23,0.35.47,0.68,0.72,1l-0.07-.11C490.48,591.68,490.27,591.4,490,591.06Z" transform="translate(0 0)"/><path class="cls-5" d="M455,638.25c0,0.21,0,.42-0.07.64C455,638.67,455,638.46,455,638.25Z" transform="translate(0 0)"/><path class="cls-5" d="M455,638.89c0,0.55-.11,1.13-0.15,1.67C454.88,640,454.92,639.44,455,638.89Z" transform="translate(0 0)"/><path class="cls-5" d="M455.93,630.86c-0.38,2.55-.66,5-0.89,7.39,0.27-2.55.59-5.06,0.9-7.48,0-.09,0-0.18,0-0.27C456,630.62,456,630.74,455.93,630.86Z" transform="translate(0 0)"/><path class="cls-5" d="M490.76,592.07a4.64,4.64,0,0,0,.34.44l-0.07-.08c-0.1-.12-0.23-0.33-0.35-0.47Z" transform="translate(0 0)"/><path class="cls-5" d="M609,423c0.41,0.06.83,0.12,1.21,0.16-0.43-.05-0.86-0.09-1.32-0.19-0.27-.05-0.48,0-0.76-0.11Z" transform="translate(0 0)"/></g></g></g></g></g></svg>