<?xml version="1.0" encoding="utf-8"?>
<!-- Generator: Adobe Illustrator 19.2.1, SVG Export Plug-In . SVG Version: 6.00 Build 0)  -->
<svg version="1.1" id="Layer_1" xmlns="http://www.w3.org/2000/svg" xmlns:xlink="http://www.w3.org/1999/xlink" x="0px" y="0px"
	 viewBox="0 0 1024 1024" enable-background="new 0 0 1024 1024" xml:space="preserve">
<circle id="XMLID_1_" fill="#F0F2F4" cx="512" cy="512" r="512"/>
<g>
	<path d="M566.5,647.8c-17.8-6.2-28-19.8-33-37c-9.7-33.3-8.3-66.6,3.9-99.2c2.9-7.8,7.5-14.9,13.5-20.7c13.5-13,29.4-15.9,47-10.5
		c1.6,0.5,3.3,1.1,5.4,1.8c0-1.6,0-2.9,0-4.3c0-24.2,0-48.5,0-72.7c0-4.9,0.4-5.2,5.4-5.3c5,0,9.9,0,14.9,0c4.7,0,4.9,0.2,5,4.8
		c0,0.6,0,1.2,0,1.7c0,77.2,0,154.5,0,231.7c0,1.2,0,2.3,0,3.5c0,2.2-1,3.5-3.4,3.3c-0.1,0-0.2,0-0.3,0c-3.7,0-7.9,1-10.9-0.5
		c-2.9-1.4-4.6-5.4-6.5-7.8c-6.2,3.7-12.5,7.4-18.8,11.1C581.3,647.8,573.9,647.8,566.5,647.8z M603.4,563.9
		c0-17.4-0.3-34.9,0.2-52.3c0.2-5.8-2-8.7-6.9-10.7c-1.6-0.6-3.2-1.4-4.8-1.8c-10-3-18.1-0.5-24,8.1c-2.8,4-5.3,8.5-6.8,13.1
		c-8.9,26.6-8.9,53.7-2.6,80.9c0.7,2.9,1.9,5.7,3,8.4c7.2,17.1,21.6,22.5,38.5,14.7c2.5-1.2,3.5-2.5,3.5-5.4
		C603.3,600.6,603.4,582.3,603.4,563.9z"/>
	<path fill="#E52620" d="M308.7,376.1c2.2,1.7,1.1,3.7,0.4,5.6c-9.3,25.3-18.6,50.6-27.9,76c-11.3,31-22.6,61.9-33.8,92.9
		c-0.7,1.9-1.1,4-1.1,6c-0.1,27.7,0,55.4,0,83.2c0,5-0.1,5-5.1,5c-5.2,0-10.4-0.2-15.6,0.1c-3.3,0.1-4.5-1-4.4-4.3
		c0.1-10.3,0.1-20.6,0.1-30.8c0-17.8,0-35.6,0-53.4c0-2.1-0.3-4.4-1.1-6.4c-18.2-47.7-36.4-95.4-54.7-143.1c-0.4-1.1-1-2-1.5-3
		c0-0.7,0-1.4,0-2.1c1.6-0.5,3.2-1.3,4.8-1.3c5.8-0.2,11.5-0.1,17.3-0.1c5.8,0,5.7,0,7.6,5.4c13.6,38.2,27.2,76.4,40.7,114.7
		c0.4,1.1,0.9,2.1,1.7,4.1c0.7-2.2,1.1-3.4,1.4-4.6c2.7-9.8,4.9-19.7,8-29.3c11.8-36.9,23.8-73.7,35.7-110.5
		c0.5-1.4,1.7-2.6,2.6-3.9C292.1,376.1,300.4,376.1,308.7,376.1z"/>
	<path d="M317.7,647.8c-25.2-10.3-32.1-40-30.2-60.8c0.8-8.6,2.6-16.8,6.3-24.7c11-23.4,33.2-32,57.1-22c1.1,0.5,2.3,1,4,1.7
		c-0.3-12.6,0.1-24.9-6.6-35.8c-4.5-7.4-11.5-10.1-19.6-7c-5.5,2.1-10.6,5.1-15.7,7.9c-4.7,2.6-5.6,2.5-7.9-2.3
		c-2.1-4.4-4.1-8.8-6.2-13.2c-1.1-2.2-1-4.1,1.5-5.2c14.6-6.1,29.6-10.9,45.7-7.9c16.9,3.1,26.8,14.2,30.3,30.4
		c2.3,10.9,3.3,22.2,3.5,33.3c0.5,32.8,0.2,65.6,0.2,98.4c0,3.2-1,4.2-4.3,4.6c-8.6,1.1-14.5-1.2-16.1-10.5
		c-0.1-0.4-0.4-0.8-0.9-1.8c-5.8,6.9-12.7,11.9-20.9,14.9C331.1,647.8,324.4,647.8,317.7,647.8z M354.9,591.4c0-6.6,0-13.2,0-19.7
		c0-9.2-0.7-10.2-9.4-13.3c-0.8-0.3-1.5-0.5-2.3-0.7c-12.3-3.5-20.3,0-25,11.8c-5.8,14.6-5.8,29.6-0.3,44.3
		c2.5,6.7,6.9,12.1,14.5,13.6c7.7,1.5,14.3-1.4,20.1-6.2c1.3-1.1,2.3-3.2,2.3-4.8C355,608.1,354.9,599.7,354.9,591.4z"/>
	<path d="M697.5,647.8c-18.2-5.2-29.7-17.5-36.5-34.6c-2.4-6.1-4.4-12.5-5.3-18.9c-4.4-28.8-2.4-57.1,8.6-84.3
		c3.4-8.5,8.2-16.3,15.3-22.4c17.2-15,40.2-12.1,53.3,6.5c6.6,9.4,9.8,20,11.9,31.1c2.7,14.3,2.7,28.7,2.5,42.9
		c-22.2,0-44.3,0-66.4,0c0,5.1-0.7,10.9,0.2,16.5c1.3,7.5,3,15.2,6,22.2c5.7,13.3,17.4,20,31.9,19c6.2-0.4,12.3-1.6,18.5-2.7
		c2.9-0.6,4.4,0.1,4.9,3c0.5,2.5,0.9,5,1.8,7.4c1.1,3.1,0,4.9-2.8,5.9c-7.7,2.8-15.3,5.6-23,8.4
		C711.4,647.8,704.4,647.8,697.5,647.8z M721.2,548c0.1-0.7,0.3-1.5,0.2-2.3c-0.8-8.4-1.3-16.8-2.5-25.1c-1-6.4-3-12.6-7.2-17.8
		c-4.9-6-12.4-6.5-17.7-0.9c-2,2.1-4,4.7-4.9,7.4c-2.4,7.5-4.4,15.2-6,23c-1.2,5.7-1.3,11.5-1.9,17.1
		C694.8,549.1,707.9,548.6,721.2,548z"/>
	<path d="M856.9,484.9c-6.2,13.5-12.3,27.1-18.5,40.6c-4.9,10.8-9.8,21.7-14.7,32.4c-1,2.1-1.1,3.9-0.1,6.1
		c10.7,24.9,21.2,49.9,31.8,74.8c2.1,4.9,1.3,6-3.8,6c-4.8,0-9.7-0.2-14.5,0.1c-3.6,0.2-5.5-1.3-6.7-4.5
		c-6.7-18.4-13.6-36.8-20.4-55.1c-0.4-1-0.8-2.1-1.5-4c-1.1,3.3-1.9,5.8-2.7,8.2c-5.9,16.9-11.8,33.7-17.6,50.6
		c-1.2,3.4-3.1,5.1-6.9,4.9c-4.5-0.2-9,0-13.5-0.1c-5.1,0-6.1-1.6-4.1-6.4c8.6-20.3,17.2-40.5,25.8-60.8c2.3-5.5,4.8-11,6.9-16.6
		c0.6-1.6,0.7-3.9,0-5.4c-9.8-22.6-19.8-45.2-29.7-67.8c-2.3-5.3-1.5-6.5,4.3-6.5c4.8,0,9.7,0.2,14.5-0.1c3.8-0.2,5.7,1.3,6.9,4.7
		c6,16.2,12.1,32.4,18.2,48.6c0.4,1.2,0.9,2.3,1.7,4.2c2.1-5.8,3.9-10.9,5.8-15.9c4.7-12.5,9.4-25,14-37.6c1-2.7,2.5-4.1,5.6-4
		c5.1,0.2,10.2,0,15.2,0.1c1.3,0,2.7,0.5,4,0.7C856.9,483.1,856.9,484,856.9,484.9z"/>
	<path d="M436.4,489.8c8.4-3.2,16.3-6.8,24.5-9.1c8.7-2.5,17.5-1.2,25.7,2.3c9.3,4,14.1,11.5,15.4,21.4c0.4,2.9,0.5,5.8,0.5,8.6
		c0,42,0,84.1,0,126.1c0,5.9,0,5.9-6,5.9c-4.8,0-9.7,0-14.5,0c-4.2,0-4.7-0.5-4.7-4.8c0-13.9,0-27.7,0-41.6c0-26.4,0-52.9,0-79.3
		c0-11.7-5.8-17.8-17.6-18.6c-7.6-0.5-14.6,1.5-21.4,4.8c-2.3,1.1-2,2.8-2,4.6c0,43,0,85.9,0,128.9c0,6.1,0,6.1-6.1,6.1
		c-5.2,0-10.4-0.1-15.6,0c-2.3,0-3.5-0.9-3.4-3.3c0-0.8,0-1.6,0-2.4c0-50.8,0-101.6,0-152.4c0-5.4,0-5.4,5.4-5.4
		c5.2,0,10.4,0.2,15.6-0.1c3.2-0.1,4.5,1,4.1,4.2C436.3,487.1,436.4,488.7,436.4,489.8z"/>
</g>
</svg>
