<?xml version="1.0" encoding="utf-8"?>
<!-- Generator: Adobe Illustrator 19.2.1, SVG Export Plug-In . SVG Version: 6.00 Build 0)  -->
<svg version="1.1" id="Layer_1" xmlns="http://www.w3.org/2000/svg" xmlns:xlink="http://www.w3.org/1999/xlink" x="0px" y="0px"
	 viewBox="0 0 1024 1024" enable-background="new 0 0 1024 1024" xml:space="preserve">
<circle id="XMLID_1_" fill="#0984BA" cx="512" cy="512" r="512"/>
<g id="XMLID_5_">
	<path id="XMLID_121_" fill="#FFFFFF" d="M384.2,461.2c9.2-2,13.7-9.5,19-16.1c10.1-12.5,19.9-25.3,30.3-37.5
		c5.5-6.4,11.8-12.2,18.2-17.7c7.6-6.6,16.7-10.8,26.1-14.2c1-0.3,2.1-0.6,3.1-1c6.3-1.6,12.5-3.5,18.8-4.5
		c3.8-0.6,7.9-0.3,11.8,0.5c6.3,1.3,8.8,6.4,6.7,12.7c-4.6,3-9.2,6-13.8,9.1c-1,0.7-1.9,1.6-2.8,2.3c-0.9,0.5-1.8,1.1-2.6,1.6
		c-1.1,0.5-2.4,0.8-3.4,1.4c-15.6,9.7-27.2,23.4-37.2,38.6c-1.5,2.2-2.6,4.9-3,7.5c-0.7,4.3-2.1,8.9,1.7,12.7
		c3.1,3.7,7.6,4.6,13.5,2.3c6.4-2.5,12.7-5.3,19-8c12.5-5.5,25.6-6,38.9-5c0.9,0.1,1.7,0.6,2.6,0.9c1.5,0.1,2.9,0.3,4.4,0.4
		c17.7,3.2,26.3,15.3,30.7,31.4c1,3.6,1.4,7.4,2.4,12.3c5.4-12,10.3-22.8,15.1-33.7c9.1-20.3,18-40.7,27.2-61
		c1.9-4.3,4.2-8.5,6.7-12.4c4.3-6.9,11-10.4,19-11.2c9.3-0.9,14.2,3.4,14.8,13c-1.6,5.3-2.7,10.8-4.7,15.9
		c-5.4,13.8-11.2,27.5-16.6,41.3c-1.4,3.5-1.9,7.3-2.8,10.9c-0.2,0.8-0.5,1.6-0.9,3.1c1.7-0.6,2.7-0.9,3.7-1.2
		c0.6-0.1,1.2-0.3,1.9-0.4c0.3-0.3,0.6-0.5,0.9-0.8l0,0.1c8-2.3,15.8-4.9,24.4-4.7c10,0.3,18.9,2.9,26.4,9.8
		c6.8,6.1,12.4,13,15.9,21.6c0.4,0.5,0.8,1.1,1.2,1.6c5.8-5.7,11.3-11.7,17.5-17c13.2-11.3,28.1-18.7,46.1-19.1
		c12.5-0.3,28.2,9.4,31.5,23.6c0.1,0.5,0.5,0.9,0.7,1.4c-0.3,4,0.2,8.2-1,11.8c-7.9,24.3-24.5,40-49.2,46.1
		c-11.2,2.8-23.1,4.4-33.1-5.2c-2.5,5-3,10-2.8,15c0.3,4.7,1.8,8.9,6.7,10.8c6.7,2.6,13.5,1.6,20.3,0.3c1.2-0.4,2.4-0.7,3.5-1.1
		c0.8-0.4,1.6-0.7,2.5-1.1c15.1-5.5,28.2-13.9,38.2-26.6c1.2-1.5,2-3.3,2.9-5l-0.1,0c0.4-0.4,0.8-0.8,1.2-1.2l-0.1,0.1
		c0.4-0.4,0.8-0.8,1.1-1.1l0,0c0.3-0.3,0.6-0.6,0.8-1c0.3-0.1,0.4-0.2,0.3-0.5c1.1-1.7,2.1-3.4,3.2-5.1l0.1-0.1
		c0.4-0.7,0.8-1.4,1.1-2.1l-0.1,0.1c0.4-0.8,0.8-1.5,1.2-2.3l-0.1,0.1c0.4-0.4,0.7-0.8,1.1-1.2l0,0c1.1-1.8,2.1-3.6,3.2-5.4
		c0.6-1.2,1.2-2.5,1.8-3.7c0.5-1,1-2,1.5-3l0,0c5.4-12.1,11.1-24,16.1-36.2c7.8-19.1,15.1-38.4,22.7-57.7
		c3.1-7.8,7.4-14.7,15.9-17.6c2-0.7,4.2-1.1,6.3-1.6c1.5,0,3.1,0.1,4.6,0.1c5.1,1.8,6.7,3.5,6.5,8.4c-0.2,4.2-1.3,8.4-1.9,12.6
		c-0.5,0.7-1.1,1.4-1.4,2.2c-2.5,6.4-4.9,12.9-7.4,19.3c-7.3,18.9-14.7,37.8-22,56.7c-5.7,14.7-11.3,29.4-16.9,44.1
		c-3.2,8.3-6.6,16.5-9.7,24.8c-1.2,3.3-2.5,6.9,0.2,10.2c1.8,1.8,3.7,1.7,5.6,0.2c6.9-2,13.9-4.1,20.8-6.1c1.1,0,2.3,0.1,3.4,0.1
		c2.4,1.1,2.4,2.9,1.5,4.9c-1,2.1-1.9,4.2-2.9,6.3l0.1-0.1c-0.4,0.4-0.9,0.8-1.3,1.1c-0.6,0.4-1.2,0.8-1.7,1.3
		c-9.7,9.7-21.1,16.2-34.6,18.4c-7.4,1.2-15,0.9-22.6,1.3c-4.2-1.7-8.3-3.5-10.9-7.6c-0.5-3.2-1-6.3-1.7-10.3
		c-19.7,15.4-41.8,21.5-66.3,18.3c-10.6-2-20.1-5.9-26.3-15.4c-1-2.2-2-4.4-3-6.6c0-0.6,0-1.2,0-1.8c-0.2,0-0.4,0-0.6,0
		c0,0.6,0.1,1.3,0.1,1.9c-2,2.6-3.9,5.1-5.9,7.7c-0.6,0.5-1.1,1.1-1.7,1.6c-6.4,3.4-12.8,6.8-19.2,10.3c-0.4,0.2-0.6,0.8-1,1.2
		c-1.9,0.3-3.8,0.7-5.7,1c-1.4,0.3-2.7,0.5-4.1,0.8c-3.4,0.8-6.7,1.6-10.1,2.4c-5.3,0-10.5,0-15.8-0.1c-2-0.4-4.1-0.7-6.1-1.1
		c-1-0.3-2-0.5-3-0.8c-1.3-0.5-2.5-0.9-3.8-1.4c-2.7-0.8-5.4-1.7-8.2-2.5l0.1,0.1c-0.4-0.4-0.7-0.7-1.1-1.1c-2.5-2.2-5-4.5-6.9-6.3
		c-3.2,3.9-6.4,7.8-9.7,11.7c-3.7,0.1-7.5,0.1-11.2,0.3c-2.6,0.1-5.2,0.5-7.8,0.8c-0.3-0.2-0.6-0.3-0.9-0.5c-2-0.3-3.9-0.5-5.9-0.8
		c-6.2-1.2-8.8-5.2-7.6-11.4c0.6-3,1.2-6,1.8-9c3-4.1,3.3-8.9,4.8-14.5c-5.9,6.1-10.8,11.4-15.9,16.5c-8.3,8.2-18.3,13.5-29.7,15.7
		c-5.6,1.1-11.5,0.9-17.2,1.2c-12.6-1.8-23.2-6.9-30.1-18.1c-4.1-6.6-6-13.9-6.7-21.6c-0.9-10.6,0.2-21,3.3-31.1
		c1.6-5.2,1.6-10.3-0.3-15.5c-0.8-3.4-3.3-4.8-6.5-5.8c-3.1,0.8-5.4,2.2-6.5,5.6c-0.8,2.5-2.1,4.9-3.2,7.4c-0.4,1.1-0.7,2.3-1.1,3.4
		c-0.1,0.9-0.1,1.8-0.4,2.7c-5.9,19.6-13.2,38.7-22.7,56.9c-10,19.3-22.6,36.7-37.9,52.1c-12.1,12.2-24.2,24.4-39.6,32.5
		c-3,0.4-6.1,1.1-9.1,1.1c-8.7-0.1-13.9-6.7-12.3-15.4c1.3-6.7,4.8-11.9,10.1-16.2c16.8-13.7,31.9-29.2,43.1-48
		c11.4-19,21-38.9,27-60.4c1.3-4.5,1.4-9.3,2-13.9c-0.4-1.9-0.8-3.7-1.1-5.3c-7.6-3.1-13-1.9-17.3,4.2c-2.8,4-5.3,8.3-7,12.9
		c-7.2,18.7-14,37.7-21.2,56.4c-3.1,8-8.5,13.9-17.2,16.1c-2.9,0.7-6.1,0.6-9.2,0.8c-0.2,0-0.4,0-0.5-0.1
		c-11.9-2.9-15.2-8.2-11.2-19.7c4.2-12.1,9.1-23.9,13.6-35.9c1.9-5.1,3.4-10.3,5-15.4c0.3-1.6,0.7-3.1,1-4.7
		c-0.4-4.2-0.7-8.4-1.3-12.5c-0.1-0.9-1.2-1.6-1.9-2.3c-1-0.4-2-0.9-2.9-1.3c-3.7-0.1-7.3-0.1-11-0.2c-6.7,0.4-12.2,3.4-16.3,8.5
		c-6.7,8.3-8.8,18.8-13.3,28.2c-0.4,0.9-0.2,2.1-0.3,3.2c-0.6,1.3-1.1,2.7-1.7,4c-0.9,2.1-1.8,4.2-2.7,6.3c-0.2,0.8-0.4,1.6-0.7,2.4
		c-0.7,1.2-1.7,2.2-2.2,3.5c-2.3,6.3-4.5,12.6-6.7,18.9c-2.5,7.1-6.7,12.8-14.2,15.3c-2.5,0.8-5.1,1.3-7.7,1.9
		c-11.4-1.4-17-9.7-13.4-21.7c3.3-11.1,7.5-21.9,11.8-32.7c6.1-15.5,12.5-30.9,18.8-46.3c2.9-7,5.5-14.2,9-20.9
		c4.9-9.4,12.7-14.8,23.9-13.7c3.2,0.3,6.3,1.8,9.5,2c10.1,0.6,20.3,0.8,30.4,1.1c4.5-0.2,9-0.3,13.5-0.5c2.5,0.5,5,1,7.6,1.5
		c1.3,0.4,2.6,0.8,3.9,1.1c5.1,2.1,10.3,4.2,15.4,6.2c0.8,0.3,1.8,0.4,2.6,0.6c1.5,1.1,3,2.1,4.5,3.2c-3.7-0.8-7.4-1.2-11-2.3
		c-7.3-2.3-13.7-7.3-21.7-7.6c-0.9-0.3-1.8-0.6-2.7-0.9c-1.9,0-3.8,0-5.7,0c-2.7,0.3-5.4,0.7-8.1,1c-12.1,0-24.3,1-36.2-2.1
		c-2.4-0.6-5.5-1.3-8,1.5c3.9,0.8,7.4,1.6,10.9,2.3c9.2,2,18.6,3.3,28,2.2c13.7-1.6,26.9-2.1,39.3,5.6c4.6,2.9,10.1,3.9,15.7,3.4
		c2-0.2,3.7-0.4,3.6-3c0.9-0.7,1.8-1.3,2.7-2C386.3,462.1,385.2,461.6,384.2,461.2z M793.2,480.6c0.2-0.2,0.5-0.3,0.7-0.5
		c-0.2-0.2-0.4-0.4-0.7-0.6c1.6-16.2-9.6-26.5-22.9-29.5c-3.3-1.8-6.5-1.8-9.8,0c-1.8,0.2-3.6,0.4-5.4,0.7c0,0.4,0,0.9-0.1,1.3
		c0.8,0.4,1.6,1.1,2.4,1.2c2.5,0.2,5.1,0,7.6,0.1c16.2,0.2,26.9,12.4,25.1,28.4c-0.1,1.2,0.6,2.5,1.2,4.9c0.9-2.3,1.3-3.5,1.7-4.6
		C793.2,481.5,793.2,481.1,793.2,480.6L793.2,480.6z M497.7,484.8c-0.3,0-0.4,0.1-0.4,0.4c-0.2,0.3-0.5,0.5-0.7,0.8
		c-1.4,0.8-3,1.4-4,2.4c-8.3,8.2-12.9,18.5-14.5,29.8c-1,6.8-1.5,14.1,3.2,20.3c2.8,6.5,8,8.9,14.7,9c6.4,0.1,12.1-2.1,17-6
		c15.7-12.3,22.5-28.7,21.4-48.4c-0.2-4.2-1.4-8.6-5.3-11.4c-2.6-1.3-5.2-3.1-7.9-3.7c-7-1.5-13.7-0.4-19.5,4.4
		c-0.8,0.5-1.7,1-2.5,1.5c-0.4,0-0.7,0.2-0.8,0.5C497.9,484.3,497.7,484.5,497.7,484.8z M748.4,476.3c-2,1.1-4,2.1-6,3.2
		c-8.2,4-12.1,12.7-9.3,21.5c1.8,0.4,3.8,0.8,5.9,1.2c12.6,2.2,26.2-6.8,27.8-20.9c-0.8-1.5-1.8-3.5-2.8-5.6c-0.5-0.2-1-0.3-1.5-0.5
		c-0.3-0.3-0.5-0.6-0.8-1c-1.3-0.3-2.7-0.7-4-1C754.7,474.2,751.6,475.2,748.4,476.3L748.4,476.3z M643.7,395.5
		c0.9-0.7,2.3-1.3,2.6-2.2c0.8-2.7,1.3-5.6,1.6-8.4c0.4-3.2,0-6.5-3.1-8.1c-3.3-1.7-7-1.5-11.3,0.3c4.3,1.1,7.6,2,11.3,2.9
		c0,2.6,0.1,4.5,0,6.5C644.6,389.5,644.1,392.5,643.7,395.5c-0.1,0.2-0.3,0.3-0.2,0.2C643.4,395.8,643.5,395.7,643.7,395.5z
		 M619.6,495.3c-0.5,0.5-1,1-1.4,1.6c-11,10.9-15.3,24.3-13.5,39.4c0.4,3.4,3.2,6.6,5,9.9c3.3,3.8,7.4,5.5,12.4,5.5
		c11.1,0.1,19.3-5.6,26.2-13.4c3.7-4.2,6.4-9.2,9.6-13.8c0.9,0.2,1.8,0.4,2.9,0.6c-0.4-2.2-0.6-3.8-0.9-5.5c0.7-5.7,2.3-11.5,2-17.1
		c-0.7-14.3-10.3-22.2-23.3-18.6C630.9,485.2,624.2,488.5,619.6,495.3z M563.4,498.6c0.4-0.1,0.9-0.1,1.3-0.2
		c1.6-21.1-7.4-41.1-22.5-46.6c-12.1-4.4-30.1-5.3-33.2-1.2c6.6,0.5,13.2,0.9,19.8,1.7c7.6,0.9,14.7,2.9,20.5,8.6
		c7.1,7,9.5,15.9,11.3,25.3C561.6,490.3,562.5,494.5,563.4,498.6z M702.2,489.8c-1.5-2.1-3.1-4-4.5-6.2c-2.9-4.8-5.2-9.9-8.6-14.3
		c-8.3-11-19.3-17.2-33.4-16.7c-2.3,0.1-4.7,0.7-7,1.1c0,0.5,0,0.9,0.1,1.4c2.4,0.1,4.8,0.4,7.2,0.4c11.4,0.3,21.2,4,28.3,13.3
		c3.2,4.2,6.1,8.5,8.9,12.8C695.5,485.1,698.1,488.1,702.2,489.8z M499.5,552.2c-0.1-0.4-0.2-0.7-0.3-1.1c-2.8-0.4-5.7-0.4-8.3-1.2
		c-9-2.9-15-10.8-15.2-20.4c-0.1-6.3,0.6-12.6,0.9-18.9c0.1-1.5-0.2-2.9-0.3-4.5c-0.8,0.3-1.1,0.4-1.1,0.5c-0.5,1.4-1,2.7-1.3,4.1
		c-2.7,11.2-3.2,22.3,3,32.6c4.2,7,10.6,10.7,18.9,10.5C497,553.6,498.2,552.7,499.5,552.2z M603.2,514c-0.6-0.1-1.1-0.1-1.7-0.2
		c-4.8,10.7-5.1,21.7,0.4,32.2c4.3,8.2,11.9,11.8,21.1,12c1.8,0,3.7,0.1,3.9-2.5c-0.3-0.2-0.4-0.4-0.6-0.4c-1.3-0.1-2.5-0.2-3.8-0.3
		c-9.6-1.1-16.4-5.5-19.6-15.2c-2.3-6.8-2.2-13.5-0.6-20.3C602.8,517.7,602.9,515.8,603.2,514z M708,526.8
		c-3.7,2.5-4.6,14.3-1.5,21.4c3.4,7.8,15.2,11.4,27.3,8.3c-0.4-0.8-0.8-1.6-1.2-2.4c-3.6,0-7.1,0-10.5,0
		c-8.6,0.1-14.7-7.5-14.1-14.6C708.2,535.3,708,531.2,708,526.8z M451.7,439.1c-3.2,4.4-3.9,9.4-3.3,14.4
		c0.9,7.2,8.5,13.5,15.1,12.8c0.8-0.1,1.6-1.1,2.6-1.8c-1-0.7-1.3-1-1.6-1c-9.3,0-14.7-9.1-12.3-17.5
		C452.8,443.9,451.9,441.4,451.7,439.1z M811,557.5c0-5.9,0-11.2,0-17.4c-3.9,4.2-4.6,8.3-4.6,12.8c0,6,5.5,10,11.4,9.4
		c0.6-0.1,1.2-1.3,1.9-2.2C816.7,559.2,814.1,558.4,811,557.5z M728.3,490.2c-0.8,1.1-2,2.1-2.3,3.4c-1.7,5.9,1.5,11.5,7.6,13.4
		c4.5,1.4,8.9,1.5,13.3-0.3C732.7,504.4,727.9,505.7,728.3,490.2z M866.4,399.3c2.9-5.2,4.9-10.6,4.1-16.4
		c-3.4-2.9-10.5-3.4-11.6-1.3c1,1.1,2,2.1,2.6,2.7c1.4-0.3,2.8-0.7,4.4-1C868.9,388.9,863.9,394.1,866.4,399.3z M420,525.6
		c0.5,0.2,1,0.5,1.4,0.7c4.4-6.5,4.7-14.6,7.9-21.6c0.5-1-0.2-2.5-0.4-3.8c-0.5,0-1-0.1-1.4-0.1C425,509,422.5,517.3,420,525.6z
		 M496.8,374.8c6.1,2.2,13.5-1.8,18.2,5.8c1.6-3.4,0.6-5-1.8-6.2C507.7,371.7,502.3,372.1,496.8,374.8z M621.3,460.9
		c2.3,0.1,3.9,3.7,6.9,0.6c-1.8-1.2-3.4-2.3-5.4-3.5c0.4-1.9,0.9-3.8,1-5.7c0.1-1.7,2.8-4.2-1.9-5.2
		C620.8,451.4,619.1,455.6,621.3,460.9z"/>
	<path id="XMLID_117_" fill="#FFFFFF" d="M230,597.3c4-1.5,8-3.1,12.1-4.3c2.1-0.6,4.4-0.6,5.4,2.3c-0.1,3.3-2.4,5.3-4.8,7.3
		c-3.1,2.6-6.2,5.3-9.4,8c-5.8,4.4-11.7,8.8-17.5,13.2l0,0c-0.7,0.4-1.4,0.8-2.2,1.2l0.1-0.1c-3,2-6,3.9-9,5.9
		c-0.9,0.5-1.8,1.1-2.7,1.6c-6.4,3-12.7,6-19.1,9c-1.3,0.1-2.5,0.1-3.8,0.2c-10,0.5-15.7-4.3-16.9-14.2c-1.1-9.5,0.1-18.8,2.9-27.9
		c2.8-8.8,6.1-17.4,9.1-26c0.5-1.5,0.7-3.1,1-4.6l0,0.2c0.4-0.3,0.8-0.6,1.2-0.9c0.4-1.1,0.7-2.3,1.1-3.4l0,0
		c1.1-2.6,2.1-5.1,3.2-7.7l0-0.1c0.3-1,0.7-2,1-3c0.4-0.4,0.7-0.9,1.1-1.3c0.3-1,0.6-2,1-3c0.1-0.2,0.3-0.3,0.5-0.3
		c0.5-1.4,1-2.8,1.5-4.1c0.5-1.3,1.1-2.7,1.6-4c4.5-10.5,9.1-20.9,13.4-31.5c1.2-3,1.3-6.3-1.7-9.4c-1.8,0.3-3.9,0.7-5.9,1
		c-2.9,1.2-5.9,2.2-8.7,3.7c-4.6,2.3-9,5-13.4,7.5l0.1,0c-1,0.4-1.9,0.8-2.9,1.2c-0.5,0.3-1,0.7-1.5,1l0-0.1
		c-1.6,0.8-3.1,1.5-4.7,2.3c-2.5,0.9-5,2-7.6,2.7c-2.3,0.7-4.7,1.1-6.4-1.8c0.7-5.3,4.1-9.5,7.5-13.3c5.6-6.4,11.7-12.4,17.5-18.6
		c5.1-5.1,10.2-10.2,15.4-15.3l0,0c0.4-0.4,0.7-0.7,1.1-1.1l-0.1,0c0.7,0,1.4,0,2,0c0.4-0.4,0.8-0.9,1.2-1.3c1-0.9,2-1.8,2.9-2.8
		c1.3-1.5,2.6-3.1,3.9-4.6c2.5-1.8,5.1-3.5,7.6-5.3l0,0c6.4-3.2,12.7-6.5,19.1-9.6c0.9-0.4,2.1-0.3,3.2-0.5c4.7,0,9.3,0.1,14,0.1
		c1.3,0.4,2.6,0.7,3.9,1.1c-0.1,0.4-0.1,0.9-0.2,1.3c-1.3,0-2.7-0.1-4-0.1c-1-1.5-2.2-1.7-3.4-0.2c-2.7,0.7-5.9-1-8.9,2
		c7.2,0.5,13.6,1.1,19.3,4.6c0.6,1.8,1.1,3.5,1.5,4.7c-1,5.2-2,9.9-2.9,14.6c3.5-2.7,4.5-5.7,5.3-12.5c1.5-1.1,1.5-2.2,0.1-3.3
		l-0.5-0.2c-0.2-1.2-0.4-2.4-0.6-3.5c-1.9-1.9-3.8-3.9-5.6-5.8c1.2-0.1,2.4-0.2,3.6-0.3c4.4,2.1,6.1,5.8,6.3,10.4
		c0.1,1.6,0.1,3.2,0.1,4.8c-7.8,25.8-19.8,49.8-30.7,74.4c-0.3,0.8-0.7,1.6-1,2.4c-3.3,7.8-6.9,15.6-9.8,23.5
		c-2.8,7.7-4.9,15.7-7.3,23.6c0,0.9-0.1,1.8-0.1,2.8c-2.4,1.6-1.3,3.8-1.1,5.9l0,0.4c0,2.4,0,4.9,0,8.4c3.5-0.6,6-1,8.5-1.4
		c3.6-1.5,7.2-3,10.7-4.5c1.1,0,2.2,0.1,3.3,0.1c0.2,0.2,0.4,0.3,1,0.8c-0.5-0.6-0.7-0.8-0.8-1C230,598.1,230,597.7,230,597.3z
		 M208.7,570.1c-0.5-0.1-1-0.1-1.5-0.2c-3.7,9.5-6.4,19.2-5.6,29.5c0.2,2.4,1.1,5,2.4,7.1c2.1,3.5,5.6,3.9,8.9,1.4
		c-7.2-2.1-8.2-3.5-8.3-11.1c-0.2-7.2,1.3-14,3.6-20.7C208.8,574.2,208.6,572.1,208.7,570.1z M157.2,512.5c0,0.6,0,1.1,0,1.7
		c1.2-0.1,2.4-0.1,3.6-0.2c0-0.4,0-0.9,0-1.3C159.6,512.7,158.4,512.6,157.2,512.5z"/>
	<path id="XMLID_114_" opacity="0.5" fill="#FFFFFF" d="M169.7,486.1c-2.2,1.8-4.4,3.6-6.5,5.3c-3.2-2.2-1.7-4.5-1-6.6
		c6.4-19.8,16.3-37.7,28.8-54.4c11.2-14.8,25.4-26.2,40.2-37.3c1.9-3.5,3.6-7.2,5.8-10.8c11-18,35.6-14.8,45.6,0.5
		c1.7,2.5,2.8,5.4,4.2,8.1c0,0.7-0.2,1.5,0,2.1c4.9,16.8-11.1,35.8-27.8,34.4c-5.9-0.5-11.4-1.3-16.4-4.9c-1.7,0.3-3.4,0.2-4.8,0.9
		c-5.4,2.6-10.8,5.1-15.9,8.1c-13,7.7-21.6,19.5-29.7,31.8c-1.2,1.9-1.9,4.1-2.9,6.1l0.1,0c-0.4,0.4-0.7,0.7-1.1,1.1l0,0
		c-6.5,3.1-11.2,8.4-16.2,13.4l0,0C171.4,484.7,170.6,485.4,169.7,486.1z M281.4,407.1c0.4,0,0.8,0.1,1.2,0.1c0.6-1,1.5-1.9,1.7-3
		c2.8-15-5.9-28.2-20.9-31c-1.2-0.2-2.6,0.7-4,1.1c0,0.4,0.1,0.8,0.1,1.2c7.4,1.3,13.7,4.5,18.3,10.6
		C282.7,392.3,282.1,399.7,281.4,407.1z"/>
	<path id="XMLID_108_" opacity="0.5" fill="#FFFFFF" d="M187.5,541.1c-0.5,1.3-1.1,2.7-1.6,4c-0.5,1.4-1,2.8-1.5,4.1
		c-0.2,0-0.4,0.1-0.5,0.3c-0.3,1-0.6,2-1,3c-0.4,0.4-0.7,0.9-1.1,1.3c-0.3,1-0.7,2-1,3l0,0.1c-1.1,2.6-2.1,5.1-3.2,7.7l0,0
		c-0.7,0.9-1.5,1.7-2.2,2.6c0,0.6,0,1.2,0,1.8l0-0.2c-0.7-0.5-1.8-0.9-2-1.6c-3-11.1-6-22.2-8.7-33.4c-1.2-4.9-1.7-9.9-2.5-14.9
		c1.5-1.4,3.1-2.9,4.6-4.3l0,0.1c1-0.2,1.9-0.4,2.9-0.7c0.5-0.5,1-1,1.6-1.6l-0.1,0c1.7-0.4,3.4-0.6,5-1.3c3.3-1.3,6.5-2.8,10.2-4.5
		c0,8-0.1,15.3,0.1,22.7c0.1,2.4,0.8,4.9,1.2,7.3C187.5,538.2,187.5,539.7,187.5,541.1z M182.8,515.3c-2.8,4.2-2.1,8.8-1.9,13.2
		c0.2,4.3-1.7,9.2,3.1,12.7C183.6,532.6,183.2,524,182.8,515.3z"/>
	<path id="XMLID_122_" opacity="0.5" fill="#FFFFFF" d="M281.2,643.4c-22.9,8.3-44.5,4.8-65-7.7c-1.2-0.8-2.5-1.5-3.7-2.3
		c-1-1.1-2.1-2.2-3.3-3.4c1.5-1.7,3-3.4,4.4-5.1l-0.1,0.1c0.7-0.4,1.4-0.8,2.2-1.2l0,0c1.6,0,3.2,0,4.1,0c2,1.6,3.4,2.8,4.8,4
		c14.9,13.1,31.9,18.3,51.5,13.8c1.2-0.3,2.5-0.5,3.7-0.7C280.4,641.7,280.8,642.5,281.2,643.4z"/>
	<path id="XMLID_111_" fill="#FFFFFF" d="M380.6,464.4c-1.5-1.1-3-2.1-4.5-3.2c2.7,0,5.3,0,8,0c1.1,0.4,2.2,0.9,3.2,1.3
		c-0.9,0.7-1.8,1.3-2.7,2C383.3,464.5,382,464.4,380.6,464.4z"/>
	<path id="XMLID_110_" fill="#FFFFFF" d="M346.7,451.7c-4.5,0.2-9,0.3-13.5,0.5C337.6,452,342.2,451.9,346.7,451.7z"/>
	<path id="XMLID_109_" fill="#FFFFFF" d="M243.4,445.6c-4.7,0-9.3-0.1-14-0.1C234.1,444,238.7,444,243.4,445.6z"/>
	<path id="XMLID_106_" fill="#FFFFFF" d="M813.9,555.9c0.8,0,1.6-0.1,2.3-0.1c1.1,0.1,2.2,0.2,3.2,0.3
		C817.6,557.6,815.7,557.8,813.9,555.9z"/>
	<path id="XMLID_104_" fill="#FFFFFF" d="M535.6,447.3c-1.5-0.1-2.9-0.3-4.4-0.4C532.6,447,534.1,447.1,535.6,447.3z"/>
	<path id="XMLID_103_" fill="#FFFFFF" d="M326,508.8c-0.3,1.6-0.7,3.1-1,4.7C325.3,511.9,325.6,510.3,326,508.8z"/>
	<path id="XMLID_100_" fill="#FFFFFF" d="M597.3,583.5c1.3,0.5,2.5,0.9,3.8,1.4C599.8,584.4,598.5,583.9,597.3,583.5z"/>
	<path id="XMLID_97_" fill="#FFFFFF" d="M358.1,454.3c-1.3-0.4-2.6-0.8-3.9-1.1C355.5,453.6,356.8,454,358.1,454.3z"/>
	<path id="XMLID_96_" fill="#FFFFFF" d="M229.9,598.6c-1.1,0-2.2-0.1-3.3-0.1c1.1-0.4,2.3-0.8,3.4-1.2c0,0.4,0,0.8,0,1.1
		L229.9,598.6z"/>
	<path id="XMLID_95_" fill="#FFFFFF" d="M247.2,448c0.1-0.4,0.1-0.9,0.2-1.3c1.2,0.4,2.4,0.7,3.6,1.1c-1.2,0.1-2.4,0.2-3.6,0.3
		L247.2,448z"/>
	<path id="XMLID_93_" fill="#FFFFFF" d="M700.7,482.8c-0.4-0.5-0.8-1.1-1.2-1.6C699.9,481.7,700.3,482.2,700.7,482.8z"/>
	<path id="XMLID_71_" fill="#FFFFFF" d="M319.8,492.6c-3.7-0.1-7.3-0.1-11-0.2C312.5,492.5,316.1,492.5,319.8,492.6z"/>
	<path id="XMLID_70_" fill="#FFFFFF" d="M657.9,524.5c0.7-1.6,1.3-3.3,2-4.9c0.3,1.7,0.6,3.4,0.9,5.5
		C659.8,524.9,658.8,524.7,657.9,524.5z"/>
	<path id="XMLID_69_" fill="#FFFFFF" d="M770.4,450.1c-3.3,0-6.5,0-9.8,0C763.9,448.3,767.1,448.2,770.4,450.1z"/>
	<path id="XMLID_64_" fill="#FFFFFF" d="M339.5,453.5c-2.7,0.3-5.4,0.7-8.1,1C334.1,454.2,336.8,453.9,339.5,453.5z"/>
	<path id="XMLID_63_" fill="#FFFFFF" d="M279,532.3c-0.6,1.3-1.1,2.7-1.7,4C277.9,534.9,278.4,533.6,279,532.3z"/>
	<path id="XMLID_60_" fill="#FFFFFF" d="M501.6,482.3c-0.8,0.5-1.7,1-2.5,1.5C499.9,483.3,500.8,482.8,501.6,482.3z"/>
	<path id="XMLID_59_" fill="#FFFFFF" d="M501.7,394.9c-0.9,0.5-1.8,1.1-2.6,1.6C499.9,396,500.8,395.5,501.7,394.9z"/>
	<path id="XMLID_58_" fill="#FFFFFF" d="M667.6,569.6c-0.6,0.5-1.1,1.1-1.7,1.6C666.5,570.6,667,570.1,667.6,569.6z"/>
	<path id="XMLID_57_" fill="#FFFFFF" d="M640.1,583.6c-0.1,0.2-0.1,0.5-0.1,0.7c-1.3,0-2.6,0-3.9,0.1
		C637.4,584.1,638.7,583.9,640.1,583.6z"/>
	<path id="XMLID_56_" fill="#FFFFFF" d="M737.4,550.5c1.2-0.4,2.4-0.7,3.5-1.1C739.8,549.8,738.6,550.1,737.4,550.5z"/>
	<path id="XMLID_55_" fill="#FFFFFF" d="M761.7,474.2c-1.3-0.3-2.7-0.7-4-1C759.1,473.5,760.4,473.8,761.7,474.2z"/>
	<path id="XMLID_54_" fill="#FFFFFF" d="M619.6,495.3c-0.5,0.5-1,1-1.4,1.6C618.7,496.3,619.1,495.8,619.6,495.3z"/>
	<path id="XMLID_53_" fill="#FFFFFF" d="M431.9,504.6c-0.4,1.1-0.7,2.3-1.1,3.4C431.2,506.9,431.6,505.7,431.9,504.6z"/>
	<path id="XMLID_52_" fill="#FFFFFF" d="M274.6,542.5c-0.2,0.8-0.4,1.6-0.7,2.4C274.2,544.1,274.4,543.3,274.6,542.5z"/>
	<path id="XMLID_51_" fill="#FFFFFF" d="M674,561.8l-0.5,0.1c0-0.6-0.1-1.3-0.1-1.9c0.2,0,0.4,0,0.6,0
		C674,560.5,674,561.2,674,561.8z"/>
	<path id="XMLID_50_" fill="#FFFFFF" d="M792.2,505.8c0.4-0.8,0.8-1.5,1.2-2.3C793,504.3,792.6,505.1,792.2,505.8z"/>
	<path id="XMLID_49_" fill="#FFFFFF" d="M791.1,507.9c0.4-0.7,0.8-1.4,1.1-2.1C791.9,506.5,791.5,507.2,791.1,507.9z"/>
	<path id="XMLID_48_" fill="#FFFFFF" d="M347.9,454.4c-0.9-0.3-1.8-0.6-2.7-0.9C346.2,453.8,347,454.1,347.9,454.4z"/>
	<path id="XMLID_47_" fill="#FFFFFF" d="M589.2,581.1c-0.4-0.4-0.7-0.7-1.1-1.1C588.5,580.3,588.8,580.7,589.2,581.1z"/>
	<path id="XMLID_46_" fill="#FFFFFF" d="M842.4,561.4c-0.4,0.4-0.9,0.8-1.3,1.1C841.5,562.1,842,561.7,842.4,561.4z"/>
	<path id="XMLID_44_" fill="#FFFFFF" d="M784.5,516.8c0.4-0.4,0.8-0.8,1.2-1.2C785.3,516,784.9,516.4,784.5,516.8z"/>
	<path id="XMLID_43_" fill="#FFFFFF" d="M785.6,515.7c0.4-0.4,0.8-0.8,1.1-1.1C786.4,514.9,786,515.3,785.6,515.7z"/>
	<path id="XMLID_42_" fill="#FFFFFF" d="M786.8,514.5c0.3-0.3,0.6-0.6,0.8-1C787.3,513.9,787,514.2,786.8,514.5z"/>
	<path id="XMLID_41_" fill="#FFFFFF" d="M793.3,503.7c0.4-0.4,0.7-0.8,1.1-1.2C794,502.9,793.6,503.3,793.3,503.7z"/>
	<path id="XMLID_40_" fill="#FFFFFF" d="M497.3,485.2c-0.1,0.3-0.4,0.6-0.7,0.8C496.8,485.7,497.1,485.5,497.3,485.2z"/>
	<path id="XMLID_39_" fill="#FFFFFF" d="M498.3,484.4c-0.2,0.2-0.4,0.3-0.6,0.5C497.7,484.5,497.9,484.3,498.3,484.4z"/>
	<path id="XMLID_38_" fill="#FFFFFF" d="M632,455.2c0.3-0.3,0.6-0.5,0.9-0.8C632.6,454.7,632.3,454.9,632,455.2z"/>
	<path id="XMLID_37_" fill="#FFFFFF" d="M793.2,481.9c0-0.4,0.1-0.9,0.1-1.3C793.2,481.1,793.2,481.5,793.2,481.9z"/>
	<path id="XMLID_36_" fill="#FFFFFF" d="M793.2,480.6c0-0.4,0-0.7,0.1-1.1c0.2,0.2,0.4,0.4,0.7,0.6
		C793.7,480.3,793.5,480.5,793.2,480.6z"/>
	<path id="XMLID_30_" fill="#FFFFFF" d="M157.2,512.5c1.2,0.1,2.4,0.1,3.6,0.2c0,0.4,0,0.9,0,1.3c-1.2,0.1-2.4,0.1-3.6,0.2
		C157.2,513.7,157.2,513.1,157.2,512.5z"/>
	<path id="XMLID_28_" fill="#FFFFFF" d="M204.7,630.7c-0.9,0.5-1.8,1.1-2.7,1.6C202.9,631.8,203.8,631.3,204.7,630.7z"/>
	<path id="XMLID_26_" fill="#FFFFFF" d="M253.6,457.5c-0.2-1.2-0.4-2.4-0.6-3.5C253.2,455.2,253.4,456.4,253.6,457.5z"/>
	<path id="XMLID_25_" fill="#FFFFFF" d="M243.2,447.9c-1.1-0.1-2.3-0.1-3.4-0.2C241,446.3,242.1,446.4,243.2,447.9z"/>
	<path id="XMLID_24_" fill="#FFFFFF" d="M208.6,586.9c0,0.9-0.1,1.8-0.1,2.8C208.5,588.8,208.5,587.8,208.6,586.9z"/>
	<path id="XMLID_21_" fill="#FFFFFF" d="M254,461c0-1.1,0-2.2,0.1-3.3C255.5,458.8,255.5,459.9,254,461z"/>
	<path id="XMLID_16_" fill="#FFFFFF" d="M226.7,537.4c-0.3,0.8-0.7,1.6-1,2.4C226,539,226.3,538.2,226.7,537.4z"/>
	<path id="XMLID_15_" fill="#FFFFFF" d="M230,598.5c0.2,0.2,0.3,0.4,0.8,1c-0.6-0.5-0.8-0.7-1-0.8L230,598.5z"/>
	<polygon id="XMLID_14_" fill="#FFFFFF" points="207.4,595.6 207.7,595.8 207.4,596 	"/>
	<path id="XMLID_13_" fill="#FFFFFF" d="M191.4,469.6c0.4-0.4,0.8-0.9,1.2-1.3C192.2,468.7,191.8,469.1,191.4,469.6z"/>
</g>
</svg>
