<?xml version="1.0" encoding="utf-8"?>
<!-- Generator: Adobe Illustrator 21.0.0, SVG Export Plug-In . SVG Version: 6.00 Build 0)  -->
<svg version="1.1" id="Layer_1" xmlns="http://www.w3.org/2000/svg" xmlns:xlink="http://www.w3.org/1999/xlink" x="0px" y="0px"
	 viewBox="0 0 1024 1024" enable-background="new 0 0 1024 1024" xml:space="preserve">
<g>
	<circle id="XMLID_11_" fill="#F0F2F4" cx="512" cy="512" r="512"/>
	<g>
		<path fill="#EF305E" d="M512,171.9c-130.7,0-236.8,106-236.8,236.8c0,38.7,9.3,75.2,25.7,107.4c15.7,30.8,37.9,57.7,64.9,78.9
			c0,0,0,0,0.1,0.1s0.2,0.1,0.3,0.2c4.5,3.1,9,6.3,13.3,9.7l0,0c27.3,21.1,50.6,47.1,68.7,76.6c6.4,10.3,14.1,21.1,19.1,32.3
			c15.9,35.6,26.9,75,26.9,116.5l0,0c0,12,9.7,21.7,21.7,21.7s21.7-9.7,21.7-21.7l0,0c0-54.5,13.3-105.5,39.8-148.8
			c18.1-29.5,40.4-55.5,67.7-76.6h-0.5c4.3-3.4,8.5-6.6,13.1-9.7c0.1-0.1,0.1-0.1,0.2-0.2c0,0,0,0,0-0.1
			c27-21.2,49.2-48.1,64.9-78.9c8-15.6,14.2-32.3,18.6-49.7c4.6-18.5,7.1-37.8,7.1-57.7C748.8,277.9,642.7,171.9,512,171.9z
			 M691.3,480.8c-12.6,31.3-33.1,58.5-59.1,79.1c-4.2,3.3-8.5,6.5-13,9.5c0,0,0,0-0.1,0.1c-26.9,20.5-50.5,45.2-69.9,73
			c-10.2,14.5-19.2,30-27,46.1c-3.8,7.8-7.2,15.8-10.3,24.1c-3.1-8.2-6.6-16.2-10.3-24.1c-4.4-9.2-9.2-18.2-14.5-27
			c-3.9-6.6-8-12.9-12.4-19.2c7.1,1.1,14.3,1.9,21.5,2.4c8.7-15.2,18.6-29.7,29.3-43.4c-4.5,0.3-9,0.5-13.6,0.5
			c-39.6,0-76.5-11.9-107.2-32.4c0,0,0,0-0.1-0.1c-4.5-2.9-8.8-6.1-13-9.5c-44.5-35.4-73-90-73-151.3
			c0-106.7,86.5-193.3,193.3-193.3s193.3,86.5,193.3,193.3C705.3,434.1,700.3,458.5,691.3,480.8z"/>
		<path fill="#5B5B5B" d="M512.4,265.8L512.4,265.8c-4.9,0-8.9,4-8.9,8.9v133.6c0,4.9,4,8.9,8.9,8.9l0,0c4.9,0,8.9-4,8.9-8.9V274.7
			C521.3,269.8,517.3,265.8,512.4,265.8z"/>
		<path fill="#5B5B5B" d="M605.1,422.1h-87.2c-7.7,0-14-6.3-14-14l0,0c0-7.7,6.3-14,14-14h87.2c7.7,0,14,6.3,14,14l0,0
			C619,415.8,612.8,422.1,605.1,422.1z"/>
	</g>
</g>
</svg>
