<svg xmlns="http://www.w3.org/2000/svg" width="40" height="40" viewBox="0 0 40 40">
  <g id="Gruppe_15861" data-name="Gruppe 15861" transform="translate(22547 21276)">
    <circle id="Ellipse_1606" data-name="Ellipse 1606" cx="20" cy="20" r="20" transform="translate(-22547 -21276)" fill="#d9e0e7"/>
    <g id="Gruppe_15859" data-name="Gruppe 15859" transform="translate(-22546.713 -21276.041)">
      <g id="Gruppe_15858" data-name="Gruppe 15858" transform="translate(-0.621)">
        <path id="Pfad_16161" data-name="Pfad 16161" d="M1372.176,1092.2a3.683,3.683,0,0,1-.114-.636,7.489,7.489,0,0,1,.194-2.716,7.167,7.167,0,0,1,1.292-2.6,7.3,7.3,0,0,1,4.535-2.71,7.631,7.631,0,0,1,1.346-.09,6.955,6.955,0,0,1,1.232.123.32.32,0,0,1,.067.029c0,.076-.062.113-.1.161s-.116.09-.118.173c-.055,0-.111-.007-.166-.014-.141-.018-.281-.048-.422-.055a7.892,7.892,0,0,0-1.955.1,6.879,6.879,0,0,0-1.813.629,6.92,6.92,0,0,0-2.5,2.185,6.7,6.7,0,0,0-.98,2.065,6.361,6.361,0,0,0-.251,1.66c0,.173,0,.346,0,.519a2.564,2.564,0,0,0,.012.278c.028.239.062.476.094.715a.2.2,0,0,0-.17.084c-.05.052-.1.111-.181.1" transform="translate(-1358.857 -1073.4)" fill="#fff"/>
        <path id="Pfad_16162" data-name="Pfad 16162" d="M2019.9,1727.874a3.636,3.636,0,0,1,.1.733,7.267,7.267,0,0,1-7.661,7.821,4.4,4.4,0,0,1-.934-.124.235.235,0,0,1,.084-.187c.047-.043.1-.083.107-.157.043,0,.086.005.129.01.159.019.318.047.478.056a7.559,7.559,0,0,0,1.606-.061,6.7,6.7,0,0,0,2.052-.662,6.833,6.833,0,0,0,3.22-3.446,6.66,6.66,0,0,0,.532-2.259,8,8,0,0,0-.072-1.569.2.2,0,0,0,.157-.083.213.213,0,0,1,.2-.071" transform="translate(-1992.321 -1711.858)" fill="#fff"/>
        <path id="Pfad_16163" data-name="Pfad 16163" d="M2634.209,2871.526c-.165.5-.3,1-.461,1.5a1.285,1.285,0,0,1-.324.009.762.762,0,0,1-.043-.1q-.27-.933-.538-1.867a.435.435,0,0,1-.009-.059c.05-.034.107-.019.159-.021s.109,0,.175,0c.143.509.259,1.019.4,1.522.064-.013.062-.061.073-.1q.183-.63.365-1.261c.015-.052.033-.1.051-.161h.348c.017.05.037.1.052.152q.184.62.367,1.242c.012.041.028.08.053.149.026-.069.045-.109.057-.152q.169-.635.336-1.27c.01-.036.021-.07.035-.112a.8.8,0,0,1,.3-.007.421.421,0,0,1,0,.092q-.268.934-.539,1.866c-.007.023-.017.045-.029.074h-.317a.424.424,0,0,1-.071-.184c-.113-.385-.223-.77-.335-1.155-.017-.057-.039-.112-.058-.167h-.043" transform="translate(-2607.989 -2844.379)" fill="#fff"/>
        <path id="Pfad_16164" data-name="Pfad 16164" d="M2175.562,2769.7a.277.277,0,0,1-.017-.062c0-.957,0-1.914,0-2.883a.8.8,0,0,1,.318-.006,2.961,2.961,0,0,1,.008.337c0,.1,0,.21,0,.315a1.546,1.546,0,0,0,.014.338l.164-.042a1.3,1.3,0,0,1,.606-.014.856.856,0,0,1,.7.7,1.367,1.367,0,0,1-.018.643.947.947,0,0,1-.67.7,1.8,1.8,0,0,1-1.107-.034m.325-.233a1.053,1.053,0,0,0,.57.027.686.686,0,0,0,.537-.481,1.123,1.123,0,0,0,.043-.439.637.637,0,0,0-.572-.625.887.887,0,0,0-.582.115c-.018.169-.017,1.234,0,1.4" transform="translate(-2154.938 -2741.095)" fill="#fff"/>
        <path id="Pfad_16165" data-name="Pfad 16165" d="M959.571,2868.018c-.014.183-.005.349-.007.514s0,.32,0,.482a.915.915,0,0,1-.311.015.9.9,0,0,1-.013-.108q0-1.314,0-2.628c0-.031,0-.061,0-.1a1.006,1.006,0,0,1,.412-.236,1.332,1.332,0,0,1,.677-.042.879.879,0,0,1,.723.726,1.433,1.433,0,0,1-.008.571,1,1,0,0,1-.9.808,3.151,3.151,0,0,1-.388.01c-.055,0-.11-.009-.19-.016m.007-1.716a.521.521,0,0,0-.013.08q0,.621,0,1.241a.348.348,0,0,0,.022.085,1.03,1.03,0,0,0,.628.007.67.67,0,0,0,.471-.458,1.077,1.077,0,0,0,.035-.531.6.6,0,0,0-.346-.474.86.86,0,0,0-.8.05" transform="translate(-949.905 -2839.333)" fill="#fff"/>
        <path id="Pfad_16166" data-name="Pfad 16166" d="M2951.936,2867.315a4.6,4.6,0,0,1-.489.01c-.16,0-.321,0-.481,0a2.918,2.918,0,0,0-.476.013.6.6,0,0,0,.49.664,1.578,1.578,0,0,0,.768-.051c.041-.011.081-.028.121-.042.037.089.037.089.024.253a.412.412,0,0,1-.211.095,1.811,1.811,0,0,1-.753.036.853.853,0,0,1-.752-.692,1.522,1.522,0,0,1,.016-.769.865.865,0,0,1,.837-.662,1.263,1.263,0,0,1,.276.017.709.709,0,0,1,.573.468,1.217,1.217,0,0,1,.057.658m-.318-.291a.369.369,0,0,0-.021-.2.459.459,0,0,0-.393-.368.563.563,0,0,0-.707.57,7.489,7.489,0,0,0,1.121,0" transform="translate(-2922.349 -2839.607)" fill="#fff"/>
        <path id="Pfad_16167" data-name="Pfad 16167" d="M1665.55,2867.494c-.253.013-.493,0-.732.006s-.48-.006-.717.007a.6.6,0,0,0,.491.671,1.613,1.613,0,0,0,.768-.049l.145-.043a.746.746,0,0,1,.006.255.754.754,0,0,1-.11.059,1.714,1.714,0,0,1-.985.041.815.815,0,0,1-.607-.59,1.424,1.424,0,0,1,.014-.892.839.839,0,0,1,.781-.607,1.293,1.293,0,0,1,.313.013.711.711,0,0,1,.574.467,1.343,1.343,0,0,1,.059.662m-.33-.292a.489.489,0,0,0-.506-.579.754.754,0,0,0-.129,0,.529.529,0,0,0-.464.578,8.663,8.663,0,0,0,1.1,0" transform="translate(-1647.88 -2839.781)" fill="#fff"/>
        <path id="Pfad_16168" data-name="Pfad 16168" d="M2407.668,2867.155a1.235,1.235,0,0,1-.085.483.861.861,0,0,1-.753.571,1.226,1.226,0,0,1-.476-.036.78.78,0,0,1-.534-.473,1.4,1.4,0,0,1,0-1.082.84.84,0,0,1,.719-.536,1.212,1.212,0,0,1,.512.039.8.8,0,0,1,.5.434,1.318,1.318,0,0,1,.117.6m-1.621-.014a1.1,1.1,0,0,0,.126.5.563.563,0,0,0,.523.292.544.544,0,0,0,.518-.3,1.049,1.049,0,0,0,0-.979.516.516,0,0,0-.334-.273.6.6,0,0,0-.773.413,2.969,2.969,0,0,0-.062.344" transform="translate(-2382.97 -2839.509)" fill="#fff"/>
        <path id="Pfad_16169" data-name="Pfad 16169" d="M1881.062,2872.679l.593-1.591a1.547,1.547,0,0,1,.321-.011c.014.02.019.024.02.029a.03.03,0,0,1,0,.019q-.579,1.49-1.16,2.98a.333.333,0,0,1-.034.052h-.3c.013-.048.02-.089.035-.127.1-.26.192-.521.3-.778a.328.328,0,0,0,0-.265c-.233-.577-.461-1.156-.691-1.735-.02-.05-.038-.1-.06-.162a.5.5,0,0,1,.189-.016c.054,0,.109,0,.172.007l.2.541c.063.174.125.348.191.521a2.637,2.637,0,0,0,.239.536" transform="translate(-1862.205 -2844.464)" fill="#fff"/>
        <path id="Pfad_16170" data-name="Pfad 16170" d="M1442.894,2868.2h-.307a.6.6,0,0,1-.016-.1q0-.88,0-1.759a.518.518,0,0,1,.009-.065c.041-.016.085-.036.131-.05a2.666,2.666,0,0,1,.69-.124,1.266,1.266,0,0,1,.422.041.583.583,0,0,1,.433.459,1.071,1.071,0,0,1,.028.219c0,.426,0,.852,0,1.278a.8.8,0,0,1-.009.08,1.238,1.238,0,0,1-.3.018c-.005-.058-.014-.105-.014-.152,0-.352,0-.7,0-1.055a1.422,1.422,0,0,0-.028-.275.367.367,0,0,0-.329-.3,1.474,1.474,0,0,0-.623.047.1.1,0,0,0-.083.106c0,.043,0,.086,0,.13q0,.648,0,1.3Z" transform="translate(-1428.757 -2839.538)" fill="#fff"/>
        <path id="Pfad_16171" data-name="Pfad 16171" d="M3179.9,2868.026v-.243a.991.991,0,0,1,.1.032,1.093,1.093,0,0,0,.486.1.753.753,0,0,0,.233-.048.3.3,0,0,0,.193-.251.253.253,0,0,0-.125-.269,2.182,2.182,0,0,0-.268-.124c-.074-.031-.154-.047-.225-.083a1.1,1.1,0,0,1-.249-.157.52.52,0,0,1,.117-.843.633.633,0,0,1,.155-.059,1.194,1.194,0,0,1,.777.076.467.467,0,0,1,.064.042.629.629,0,0,1,0,.263l-.159-.062a1,1,0,0,0-.471-.073.532.532,0,0,0-.194.054.228.228,0,0,0-.037.386,1.162,1.162,0,0,0,.209.115c.09.04.187.064.277.1a1.605,1.605,0,0,1,.244.131.46.46,0,0,1,.205.356.592.592,0,0,1-.428.671,1.171,1.171,0,0,1-.832-.051.2.2,0,0,1-.047-.029.282.282,0,0,1-.031-.035" transform="translate(-3149.965 -2839.481)" fill="#fff"/>
        <path id="Pfad_16172" data-name="Pfad 16172" d="M1272.3,2816.2c.036.172-.01.334.034.5l.5.009a.734.734,0,0,1,.006.251.855.855,0,0,1-.258.015c-.079,0-.159,0-.248,0a.661.661,0,0,0-.021.112c0,.376,0,.752,0,1.128,0,.024,0,.049,0,.074.016.165.083.228.251.23a1.664,1.664,0,0,0,.184-.014c.049,0,.1-.012.149-.019a.424.424,0,0,1,.015.245,1.053,1.053,0,0,1-.6.052.364.364,0,0,1-.293-.277,1.128,1.128,0,0,1-.034-.273c0-.352,0-.7,0-1.054,0-.06,0-.121-.008-.186-.1-.033-.2,0-.307-.026-.048-.078-.012-.163-.025-.253l.336-.019c0-.162,0-.314.007-.472a.672.672,0,0,1,.309-.02" transform="translate(-1259.42 -2790.089)" fill="#fff"/>
        <path id="Pfad_16173" data-name="Pfad 16173" d="M1199.26,2872.933a1.213,1.213,0,0,1-.308,0c-.024-.155-.033-1.672-.011-2.027a.8.8,0,0,1,.308-.01c.023.228.008.448.01.668s0,.455,0,.683Z" transform="translate(-1187.373 -2844.282)" fill="#fff"/>
        <path id="Pfad_16174" data-name="Pfad 16174" d="M1389.3,2008.091c.085.01.131-.049.181-.1a.2.2,0,0,1,.17-.084c.012.041.028.082.036.123a6.235,6.235,0,0,0,.41,1.291c.024.056.041.115.061.173a.4.4,0,0,0-.28.274,2.125,2.125,0,0,1-.116-.207,7.773,7.773,0,0,1-.452-1.379.743.743,0,0,1-.009-.091" transform="translate(-1375.983 -1989.295)" fill="#fff"/>
        <path id="Pfad_16175" data-name="Pfad 16175" d="M1451.595,2179.579a.4.4,0,0,1,.28-.274c.028.048.059.094.083.144a6.729,6.729,0,0,0,.472.817c.027.041.049.085.073.127a.655.655,0,0,1-.26.26.4.4,0,0,1-.067-.059,7.6,7.6,0,0,1-.54-.9.875.875,0,0,1-.042-.12" transform="translate(-1437.698 -2159.107)" fill="#fff"/>
        <path id="Pfad_16176" data-name="Pfad 16176" d="M1521.622,2297.042a.656.656,0,0,0,.26-.26.773.773,0,0,1,.063.067,6.438,6.438,0,0,0,.565.676c.089.092.174.188.261.282a.3.3,0,0,0-.244.279,4.532,4.532,0,0,1-.905-1.044" transform="translate(-1507.076 -2275.494)" fill="#fff"/>
        <path id="Pfad_16177" data-name="Pfad 16177" d="M1784.805,2522.812a4.307,4.307,0,0,1-.735-.3c-.105-.049-.2-.113-.306-.17,0-.069.05-.108.093-.151a.24.24,0,0,0,.1-.168c.028.012.057.021.084.035a7.088,7.088,0,0,0,.888.386.43.43,0,0,1,.063.035c0,.082-.065.124-.114.174a.182.182,0,0,0-.072.156" transform="translate(-1766.789 -2498.651)" fill="#fff"/>
        <path id="Pfad_16178" data-name="Pfad 16178" d="M2603.623,1243.231c.108.081.222.156.325.243a4.227,4.227,0,0,1,.554.542.39.39,0,0,0-.263.262c-.028-.023-.057-.045-.083-.07-.175-.161-.348-.324-.524-.484-.081-.073-.167-.142-.25-.212a.552.552,0,0,1,.241-.281" transform="translate(-2578.81 -1231.708)" fill="#fff"/>
        <path id="Pfad_16179" data-name="Pfad 16179" d="M1895.957,2571.541a.182.182,0,0,1,.072-.156c.05-.05.113-.092.114-.174.214.057.427.116.642.171.143.036.287.066.431.1,0,.075-.06.114-.107.157a.236.236,0,0,0-.084.188,4.655,4.655,0,0,1-1.069-.284" transform="translate(-1877.94 -2547.38)" fill="#fff"/>
        <path id="Pfad_16180" data-name="Pfad 16180" d="M2288,1100.185c0-.083.072-.12.118-.173s.1-.085.1-.161a3.831,3.831,0,0,1,1.04.292.364.364,0,0,1-.041.1c-.061.073-.128.14-.193.21-.036-.007-.072-.013-.107-.023l-.656-.174c-.088-.023-.177-.045-.266-.067" transform="translate(-2266.351 -1089.656)" fill="#fff"/>
        <path id="Pfad_16181" data-name="Pfad 16181" d="M2505.224,1178.918a.551.551,0,0,0-.242.281l-.171-.109c-.181-.116-.362-.234-.544-.35-.067-.043-.137-.082-.206-.122,0-.062.053-.094.088-.135s.094-.112.14-.167a1,1,0,0,1,.118.049,7.034,7.034,0,0,1,.768.5.331.331,0,0,1,.048.054" transform="translate(-2480.411 -1167.395)" fill="#fff"/>
        <path id="Pfad_16182" data-name="Pfad 16182" d="M2400.215,1131.792c-.046.056-.092.113-.14.168s-.085.072-.088.134a.729.729,0,0,1-.068-.027,6.7,6.7,0,0,0-.809-.353.728.728,0,0,1-.1-.05c.064-.07.131-.137.192-.21a.353.353,0,0,0,.041-.1c.121.042.247.076.363.129a3.127,3.127,0,0,1,.605.307" transform="translate(-2376.335 -1120.871)" fill="#fff"/>
        <path id="Pfad_16183" data-name="Pfad 16183" d="M1692.344,2467.743a.239.239,0,0,1-.1.168c-.043.043-.092.083-.093.151a2.4,2.4,0,0,1-.227-.113c-.19-.12-.377-.245-.564-.37a.558.558,0,0,1-.066-.062.494.494,0,0,1,.242-.282c.077.05.154.1.231.148l.576.359" transform="translate(-1675.177 -2444.368)" fill="#fff"/>
        <path id="Pfad_16184" data-name="Pfad 16184" d="M2864.891,1620.841a.213.213,0,0,0-.2.07.2.2,0,0,1-.157.083c-.023-.108-.045-.217-.071-.325-.052-.215-.107-.43-.161-.645.075,0,.113-.062.158-.107a.2.2,0,0,1,.171-.078,4.242,4.242,0,0,1,.221.768c.017.077.024.155.036.233" transform="translate(-2837.314 -1604.825)" fill="#fff"/>
        <path id="Pfad_16185" data-name="Pfad 16185" d="M2828.553,1528.775a.2.2,0,0,0-.172.078c-.045.046-.083.1-.158.107-.021-.051-.042-.1-.062-.152l-.275-.7c.075,0,.113-.057.158-.1a.2.2,0,0,1,.167-.082,3.7,3.7,0,0,1,.342.852" transform="translate(-2801.233 -1513.76)" fill="#fff"/>
        <path id="Pfad_16186" data-name="Pfad 16186" d="M1620.208,2407.891a.492.492,0,0,0-.242.282,3.443,3.443,0,0,1-.667-.558.3.3,0,0,1,.244-.28c.046.04.091.082.138.121l.527.434" transform="translate(-1603.847 -2385.024)" fill="#fff"/>
        <path id="Pfad_16187" data-name="Pfad 16187" d="M2695.926,1328.163a.39.39,0,0,1,.263-.262,3.087,3.087,0,0,1,.511.6,1.053,1.053,0,0,0-.261.271l-.512-.605" transform="translate(-2670.497 -1315.594)" fill="#fff"/>
        <path id="Pfad_16188" data-name="Pfad 16188" d="M2751.187,1392.514a1.042,1.042,0,0,1,.261-.271c.127.176.256.351.381.528a.385.385,0,0,1,.036.1c-.067,0-.105.047-.147.088s-.087.1-.161.1c-.084-.12-.168-.24-.251-.361-.042-.06-.08-.122-.119-.183" transform="translate(-2725.245 -1379.339)" fill="#fff"/>
        <path id="Pfad_16189" data-name="Pfad 16189" d="M2791.092,1460.135c.074,0,.115-.055.161-.1s.08-.089.147-.088a.36.36,0,0,1,.063.066,3.4,3.4,0,0,1,.295.566.2.2,0,0,0-.167.082c-.045.045-.083.1-.158.1l-.341-.628" transform="translate(-2764.781 -1446.415)" fill="#fff"/>
        <path id="Pfad_16190" data-name="Pfad 16190" d="M1194.854,2784.55a.211.211,0,1,1-.214-.209.21.21,0,0,1,.214.209" transform="translate(-1182.918 -2758.535)" fill="#fff"/>
        <path id="Pfad_16197" data-name="Pfad 16197" d="M1976.074,1200.338c.138-.022.247-.041.356-.056a3.46,3.46,0,0,1,1.192,6.813,3.034,3.034,0,0,1-.662.064.343.343,0,0,1-.375-.347.577.577,0,0,1,.027-.256.323.323,0,0,1,.307-.226c.111-.006.222-.014.332-.026a2.631,2.631,0,0,0,.361-5.146,2.712,2.712,0,0,0-1.23-.045,2.617,2.617,0,0,0-.3.092c-.118.037-.234.079-.354.108a.364.364,0,0,1-.483-.376c0-.093,0-.185,0-.278q0-1.343,0-2.687c0-.056,0-.112,0-.167a.3.3,0,0,1,.208-.28.546.546,0,0,1,.416,0,.3.3,0,0,1,.2.268c0,.055,0,.111,0,.167v2.15c0,.067,0,.134,0,.223" transform="translate(-1956.494 -1186.389)" fill="#fff"/>
        <path id="Pfad_16198" data-name="Pfad 16198" d="M1975.685,1658.486v5.025c0,.062,0,.124,0,.185a.318.318,0,0,1-.264.315.843.843,0,0,1-.293,0,.317.317,0,0,1-.265-.313c0-.043,0-.087,0-.13q0-2.6,0-5.207a.527.527,0,0,0,0-.056.446.446,0,0,1,.2-.431,2.134,2.134,0,0,1,.329-.2,2.621,2.621,0,0,1,1.126-.27,1.949,1.949,0,0,1,.578,3.818,1.782,1.782,0,0,1-.53.073.334.334,0,0,1-.359-.323.751.751,0,0,1,.012-.238.329.329,0,0,1,.312-.27,2.148,2.148,0,0,0,.361-.075,1.112,1.112,0,0,0,.589-.457,1.062,1.062,0,0,0-.133-1.33,1.162,1.162,0,0,0-.826-.362,1.414,1.414,0,0,0-.423.04,1,1,0,0,0-.41.21" transform="translate(-1956.107 -1642.039)" fill="#fff"/>
        <path id="Pfad_16199" data-name="Pfad 16199" d="M2154.087,1848.135c0,.092.017.184.014.276a6.224,6.224,0,0,1-.349,1.923,6.053,6.053,0,0,1-4.4,3.869,5.4,5.4,0,0,1-1.232.13c-.043,0-.086,0-.129-.008a.3.3,0,0,1,.085-.177c.037-.04.075-.079.115-.116a.172.172,0,0,0,.06-.146,9.045,9.045,0,0,0,.9-.112,5.582,5.582,0,0,0,4.343-4.207,5.214,5.214,0,0,0,.137-.989c0-.049.008-.1.012-.147a.4.4,0,0,0,.2-.122c.042-.044.086-.085.128-.129a.134.134,0,0,1,.114-.045" transform="translate(-2127.644 -1831.005)" fill="#fff"/>
        <path id="Pfad_16200" data-name="Pfad 16200" d="M1507.536,1280.066a6.874,6.874,0,0,1,.017-1.127,5.987,5.987,0,0,1,1.293-3.1,6,6,0,0,1,1.551-1.363c.174-.105.356-.2.535-.295a.741.741,0,0,1,.137-.055.178.178,0,0,1,.09-.005.27.27,0,0,1,.179.306.232.232,0,0,1-.137.142c-.11.056-.221.109-.33.167a5.349,5.349,0,0,0-1.082.773,5.563,5.563,0,0,0-1.7,2.955c-.046.2-.058.415-.092.622a6.263,6.263,0,0,0-.035.72.172.172,0,0,0-.146.057c-.049.052-.1.1-.153.154a.161.161,0,0,1-.131.049" transform="translate(-1493.106 -1262.308)" fill="#fff"/>
        <path id="Pfad_16201" data-name="Pfad 16201" d="M2293,2022.683c.036-.023.071-.048.108-.069a4.253,4.253,0,0,0,1.527-1.446c.023-.036.05-.07.074-.1a.2.2,0,0,0,.176-.082c.164-.167.331-.331.5-.5a.319.319,0,0,1,.239-.122,3.789,3.789,0,0,1-.407.947,4.728,4.728,0,0,1-2.712,2.181c-.052.017-.107.028-.16.042a.318.318,0,0,1,.12-.238c.153-.151.3-.3.456-.456.043-.043.093-.083.083-.155" transform="translate(-2270.655 -2001.637)" fill="#fff"/>
        <path id="Pfad_16202" data-name="Pfad 16202" d="M1659.166,1436.159c.022-.1.036-.193.067-.287a4.709,4.709,0,0,1,1.129-1.886,4.478,4.478,0,0,1,.72-.606,1.082,1.082,0,0,1,.094-.059.211.211,0,0,1,.3.048.471.471,0,0,1,.1.155.212.212,0,0,1-.063.251c-.038.031-.078.061-.118.089a4.159,4.159,0,0,0-1.287,1.43c-.044.081-.092.16-.137.24a.183.183,0,0,0-.071.013,1.734,1.734,0,0,0-.2.156c-.13.123-.254.252-.381.379a.18.18,0,0,1-.141.076" transform="translate(-1643.345 -1419.997)" fill="#fff"/>
        <path id="Pfad_16203" data-name="Pfad 16203" d="M1783.729,1638.658a2.968,2.968,0,0,1,.2-1.211,3.553,3.553,0,0,1,.391-.751.318.318,0,0,1,.53-.074.3.3,0,0,1,.07.44,2.685,2.685,0,0,0-.4.809c-.023.077-.044.154-.066.231a.187.187,0,0,0-.159.073c-.132.134-.267.266-.4.4a.2.2,0,0,1-.173.083" transform="translate(-1766.749 -1621.345)" fill="#fff"/>
        <path id="Pfad_16204" data-name="Pfad 16204" d="M1783.689,1808.473a.2.2,0,0,0,.173-.083c.132-.135.267-.266.4-.4a.187.187,0,0,1,.159-.073,3.724,3.724,0,0,0-.026.9,3.045,3.045,0,0,0,.079.413c.016.071.039.141.058.212a.177.177,0,0,0-.121.072l-.294.295a.2.2,0,0,1-.137.079,2.029,2.029,0,0,1-.2-.552,2.7,2.7,0,0,1-.091-.858" transform="translate(-1766.708 -1791.16)" fill="#fff"/>
        <path id="Pfad_16205" data-name="Pfad 16205" d="M1508.663,1888.215a.161.161,0,0,0,.131-.049c.05-.052.1-.1.154-.154a.171.171,0,0,1,.146-.057,6.853,6.853,0,0,0,.19,1.233c.039.141.077.283.116.425-.079.074-.159.147-.236.222a.168.168,0,0,1-.131.048,3.761,3.761,0,0,1-.209-.65,6.819,6.819,0,0,1-.164-.927.555.555,0,0,1,0-.092" transform="translate(-1494.233 -1870.457)" fill="#fff"/>
        <path id="Pfad_16206" data-name="Pfad 16206" d="M1643.7,1677.062a.179.179,0,0,0,.141-.076c.126-.127.251-.256.381-.379a1.71,1.71,0,0,1,.2-.156.184.184,0,0,1,.071-.013,1.013,1.013,0,0,1-.033.1,4.771,4.771,0,0,0-.3,1.034c-.012.066-.022.131-.033.2a.147.147,0,0,0-.13.055c-.065.066-.129.132-.2.195a.532.532,0,0,1-.245.153,3.784,3.784,0,0,1,.122-1.083.115.115,0,0,1,.019-.031" transform="translate(-1627.883 -1660.899)" fill="#fff"/>
        <path id="Pfad_16207" data-name="Pfad 16207" d="M1815.68,1972.547a.2.2,0,0,0,.136-.079l.294-.294a.177.177,0,0,1,.121-.072,3.56,3.56,0,0,0,.35.651.273.273,0,0,1,0,.359.387.387,0,0,1-.4.168.322.322,0,0,1-.146-.107,2.235,2.235,0,0,1-.353-.625" transform="translate(-1798.409 -1953.824)" fill="#fff"/>
        <path id="Pfad_16208" data-name="Pfad 16208" d="M2181.589,2270.686c.01.072-.04.112-.083.155q-.228.229-.456.456a.318.318,0,0,0-.12.238,3.465,3.465,0,0,1-1.042.161.185.185,0,0,1,.068-.159c.078-.075.154-.153.231-.229a.335.335,0,0,0,.109-.2l.233-.053a4.235,4.235,0,0,0,.94-.319c.038-.019.08-.031.12-.047" transform="translate(-2159.24 -2249.641)" fill="#fff"/>
        <path id="Pfad_16209" data-name="Pfad 16209" d="M2392.731,1436.773a1.133,1.133,0,0,1-.1-.081,4.194,4.194,0,0,0-.726-.59.671.671,0,0,1-.057-.046.538.538,0,0,1,.135-.192c.081-.073.16-.148.239-.222a3.68,3.68,0,0,1,.775.607.949.949,0,0,1,.084.116c-.045.056-.088.113-.135.166-.071.081-.144.161-.216.241" transform="translate(-2369.238 -1422.337)" fill="#fff"/>
        <path id="Pfad_16210" data-name="Pfad 16210" d="M1548.992,2067.148a.168.168,0,0,0,.131-.048c.077-.075.157-.148.236-.222a.867.867,0,0,1,.05.1,5.47,5.47,0,0,0,.533,1.062.885.885,0,0,1,.048.1c-.021.021-.042.041-.062.062l-.245.257c-.1-.147-.2-.289-.292-.441a4.4,4.4,0,0,1-.4-.863" transform="translate(-1534.193 -2047.722)" fill="#fff"/>
        <path id="Pfad_16211" data-name="Pfad 16211" d="M2595.8,1817.5c.012-.072.024-.145.038-.217a4.054,4.054,0,0,0,.08-.8c0-.043,0-.085.007-.128a.377.377,0,0,0,.2-.118c.063-.065.129-.127.191-.193a.168.168,0,0,1,.144-.06,3.419,3.419,0,0,1-.011,1.042.149.149,0,0,0-.13.054c-.073.074-.144.15-.221.22a.757.757,0,0,1-.3.2" transform="translate(-2571.3 -1799.151)" fill="#fff"/>
        <path id="Pfad_16212" data-name="Pfad 16212" d="M2285.236,1382.557c-.08.074-.158.149-.239.222a.533.533,0,0,0-.135.192.059.059,0,0,1-.018,0,5.177,5.177,0,0,0-.969-.429c-.005,0-.009-.008-.014-.012a.182.182,0,0,1,.068-.126c.066-.065.13-.132.2-.2a.2.2,0,0,0,.074-.144,2.761,2.761,0,0,1,.661.269c.131.065.25.151.375.228" transform="translate(-2262.251 -1369.251)" fill="#fff"/>
        <path id="Pfad_16213" data-name="Pfad 16213" d="M2120.162,1217.38c-.332-.022-.663-.063-1-.055a.23.23,0,0,1-.2-.354.215.215,0,0,1,.2-.111c.123,0,.247-.005.37,0,.2.015.393.037.588.061.091.011.18.036.271.054a.2.2,0,0,1-.062.13c-.035.034-.068.072-.1.1a.2.2,0,0,0-.064.166" transform="translate(-2098.85 -1205.579)" fill="#fff"/>
        <path id="Pfad_16214" data-name="Pfad 16214" d="M1739.7,2117.118c.06.077.116.157.18.231.141.161.285.318.429.476.041.045.084.089.126.133a.3.3,0,0,0-.1.042c-.108.107-.211.219-.316.328-.106-.1-.219-.194-.317-.3a2.439,2.439,0,0,1-.358-.46c0-.074.057-.116.1-.166a1.354,1.354,0,0,0,.253-.282" transform="translate(-1722.785 -2097.496)" fill="#fff"/>
        <path id="Pfad_16215" data-name="Pfad 16215" d="M2371.7,1267.207c.14.058.286.105.419.175.21.11.412.235.617.356a.526.526,0,0,1,.069.058c-.059.067-.117.136-.178.2-.041.044-.088.083-.089.15a7.7,7.7,0,0,0-.766-.427l-.349-.159a.473.473,0,0,1,.053-.114c.071-.083.149-.161.224-.241" transform="translate(-2348.997 -1255.462)" fill="#fff"/>
        <path id="Pfad_16216" data-name="Pfad 16216" d="M1643.479,1820.762a.532.532,0,0,0,.245-.153c.067-.063.131-.129.2-.2a.146.146,0,0,1,.13-.055c0,.222-.011.444-.009.666,0,.123.019.245.03.368a.158.158,0,0,0-.111.057l-.169.169a.308.308,0,0,1-.225.107,3.48,3.48,0,0,1-.086-.964" transform="translate(-1627.798 -1803.486)" fill="#fff"/>
        <path id="Pfad_16217" data-name="Pfad 16217" d="M2548.394,1928.813a.755.755,0,0,0,.3-.2c.077-.07.148-.146.222-.22a.148.148,0,0,1,.13-.054,3.112,3.112,0,0,1-.181.852.318.318,0,0,0-.239.122c-.165.166-.332.33-.5.5a.2.2,0,0,1-.176.082.5.5,0,0,1,.026-.068,4.311,4.311,0,0,0,.393-.957.294.294,0,0,1,.024-.05" transform="translate(-2523.893 -1910.462)" fill="#fff"/>
        <path id="Pfad_16218" data-name="Pfad 16218" d="M1623.533,2202.731l.245-.257c.02-.021.042-.041.062-.062a7.229,7.229,0,0,0,.669.795c.047.047.09.1.134.148-.069,0-.1.055-.146.094-.066.059-.116.138-.2.172a2.342,2.342,0,0,1-.215-.2c-.176-.205-.344-.417-.515-.626a.306.306,0,0,1-.031-.066" transform="translate(-1608.043 -2182)" fill="#fff"/>
        <path id="Pfad_16219" data-name="Pfad 16219" d="M1683.938,2032.092a1.364,1.364,0,0,1-.253.282c-.044.049-.1.091-.1.166a1.6,1.6,0,0,1-.266-.393,2.258,2.258,0,0,1-.255-.546.2.2,0,0,0,.163-.063c.053-.057.112-.11.166-.167a.215.215,0,0,1,.14-.075Z" transform="translate(-1667.02 -2012.469)" fill="#fff"/>
        <path id="Pfad_16220" data-name="Pfad 16220" d="M2491.725,1331.168c0-.067.049-.106.089-.15.061-.066.119-.134.178-.2a4.714,4.714,0,0,1,.861.7,1.606,1.606,0,0,1,.1.126c-.062,0-.1.042-.138.079-.066.062-.135.122-.2.182-.109-.1-.213-.2-.327-.295-.184-.151-.374-.295-.562-.442" transform="translate(-2468.188 -1318.482)" fill="#fff"/>
        <path id="Pfad_16221" data-name="Pfad 16221" d="M2185.173,1359.892a.2.2,0,0,1-.074.144c-.066.065-.131.131-.2.2a.178.178,0,0,0-.068.126c-.12-.025-.24-.055-.36-.075-.188-.031-.377-.055-.565-.083a.186.186,0,0,1,.071-.159c.079-.076.155-.155.233-.232a.176.176,0,0,0,.067-.125,2.827,2.827,0,0,1,.893.207" transform="translate(-2163.223 -1347.083)" fill="#fff"/>
        <path id="Pfad_16222" data-name="Pfad 16222" d="M2253.1,1230.388c-.075.08-.153.158-.224.241a.472.472,0,0,0-.053.114c-.252-.072-.5-.145-.756-.215-.117-.032-.236-.057-.354-.084a.2.2,0,0,1,.064-.166c.037-.033.069-.07.1-.1a.2.2,0,0,0,.062-.13,4.632,4.632,0,0,1,1.026.278,1.256,1.256,0,0,1,.13.067" transform="translate(-2230.405 -1218.644)" fill="#fff"/>
        <path id="Pfad_16223" data-name="Pfad 16223" d="M1654,1932.92a.215.215,0,0,0-.14.075c-.055.057-.113.109-.166.167a.2.2,0,0,1-.163.063,1.36,1.36,0,0,1-.151-.393c-.049-.164-.084-.332-.125-.5a.308.308,0,0,0,.226-.108l.169-.169a.158.158,0,0,1,.111-.057c.049.208.1.416.15.623.025.1.06.2.09.3" transform="translate(-1637.484 -1914.094)" fill="#fff"/>
        <path id="Pfad_16224" data-name="Pfad 16224" d="M1812.134,2208.054c.1-.11.208-.222.316-.328a.3.3,0,0,1,.1-.042c.158.117.316.235.475.351.128.093.155.218.04.387a.248.248,0,0,1-.369.077c-.138-.092-.27-.194-.4-.3-.056-.045-.131-.072-.161-.147" transform="translate(-1794.896 -2187.222)" fill="#fff"/>
        <path id="Pfad_16225" data-name="Pfad 16225" d="M2597.376,1724.678a.168.168,0,0,0-.145.06c-.062.066-.128.127-.191.193a.373.373,0,0,1-.2.118,7,7,0,0,0-.116-.89.177.177,0,0,0,.147-.061c.067-.071.138-.138.207-.208a.181.181,0,0,1,.125-.067,2.586,2.586,0,0,1,.143.584c.016.089.02.181.029.271" transform="translate(-2572.215 -1707.846)" fill="#fff"/>
        <path id="Pfad_16226" data-name="Pfad 16226" d="M2695.114,1567.95a3.376,3.376,0,0,1,.376.888.2.2,0,0,0-.162.065c-.068.068-.141.131-.213.2a.239.239,0,0,1-.028-.047,6,6,0,0,0-.3-.77.3.3,0,0,1-.014-.053c.087-.083.173-.167.263-.247a.262.262,0,0,1,.082-.032" transform="translate(-2669.349 -1553.418)" fill="#fff"/>
        <path id="Pfad_16227" data-name="Pfad 16227" d="M2752.488,1752.835a.135.135,0,0,0-.114.044c-.042.044-.087.085-.128.129a.4.4,0,0,1-.2.122.872.872,0,0,1-.009-.09,4.928,4.928,0,0,0-.038-.692,1.307,1.307,0,0,1-.007-.145.158.158,0,0,0,.112-.056c.047-.048.1-.094.143-.143a.171.171,0,0,1,.147-.059c.022.12.053.24.063.361a2.484,2.484,0,0,1,.028.53" transform="translate(-2726.045 -1735.705)" fill="#fff"/>
        <path id="Pfad_16228" data-name="Pfad 16228" d="M2639.872,1480.615a.264.264,0,0,0-.083.032c-.09.08-.176.164-.263.247-.072-.122-.142-.245-.217-.365-.1-.157-.2-.311-.3-.467a.21.21,0,0,0,.141-.079c.067-.063.137-.124.205-.186a3.472,3.472,0,0,1,.383.557c.05.083.089.173.133.26" transform="translate(-2614.108 -1466.083)" fill="#fff"/>
        <path id="Pfad_16229" data-name="Pfad 16229" d="M2487.027,1514.033c.072-.08.145-.16.216-.241.047-.054.091-.111.135-.167a2.208,2.208,0,0,1,.465.525.207.207,0,0,1,.018.068,1.481,1.481,0,0,1-.306.329c-.022.021-.067.019-.1.027l-.427-.542" transform="translate(-2463.534 -1499.597)" fill="#fff"/>
        <path id="Pfad_16230" data-name="Pfad 16230" d="M2533.043,1577.974c.034-.008.079-.006.1-.027a1.478,1.478,0,0,0,.306-.329.748.748,0,0,1,.158.2,2.916,2.916,0,0,1,.273.531.237.237,0,0,0-.186.066c-.092.089-.176.187-.263.28q-.15-.28-.3-.56c-.029-.053-.06-.1-.091-.157" transform="translate(-2509.123 -1562.996)" fill="#fff"/>
        <path id="Pfad_16231" data-name="Pfad 16231" d="M2120.875,1352.855a.176.176,0,0,1-.067.125c-.078.077-.154.156-.233.232a.186.186,0,0,0-.072.159c-.11,0-.221.006-.331,0a.24.24,0,0,1-.263-.264.523.523,0,0,1,0-.055.253.253,0,0,1,.237-.258.994.994,0,0,1,.184,0c.159.009.318.022.477.035a.259.259,0,0,1,.068.026" transform="translate(-2099.819 -1340.253)" fill="#fff"/>
        <path id="Pfad_16232" data-name="Pfad 16232" d="M2121.338,2315.891a.332.332,0,0,1-.109.2c-.077.076-.153.155-.231.229a.185.185,0,0,0-.068.159c-.111,0-.221.012-.332.008a.2.2,0,0,1-.21-.172.567.567,0,0,1,0-.219.211.211,0,0,1,.212-.172c.018,0,.037,0,.055,0l.5-.029.184-.008" transform="translate(-2100.282 -2294.427)" fill="#fff"/>
        <path id="Pfad_16233" data-name="Pfad 16233" d="M2575.129,1656.3c.088-.094.172-.191.263-.28a.238.238,0,0,1,.186-.066,2.912,2.912,0,0,1,.21.522.863.863,0,0,1,.021.106.179.179,0,0,0-.125.067c-.069.07-.14.137-.208.208a.176.176,0,0,1-.146.061l-.2-.618" transform="translate(-2550.819 -1640.606)" fill="#fff"/>
        <path id="Pfad_16234" data-name="Pfad 16234" d="M2732.708,1664.541a.172.172,0,0,0-.148.059c-.046.049-.1.1-.143.144a.156.156,0,0,1-.112.056c-.017-.077-.033-.154-.051-.23l-.134-.586c.071-.065.145-.128.213-.2a.2.2,0,0,1,.162-.065,3.2,3.2,0,0,1,.211.818" transform="translate(-2706.357 -1648.303)" fill="#fff"/>
        <path id="Pfad_16235" data-name="Pfad 16235" d="M1705.642,2304.426c.088-.034.137-.113.2-.172.044-.039.077-.094.146-.094.139.133.294.247.443.367.042.034.082.07.123.105-.061.069-.121.139-.184.206a.211.211,0,0,0-.081.14c-.051-.034-.1-.064-.151-.1-.125-.1-.25-.195-.37-.3a1.228,1.228,0,0,1-.13-.152" transform="translate(-1689.391 -2282.803)" fill="#fff"/>
        <path id="Pfad_16236" data-name="Pfad 16236" d="M1992.721,2453.009a3.127,3.127,0,0,1-.7-.142.317.317,0,0,1,.113-.238c.046-.046.106-.084.11-.16l.742.123a.159.159,0,0,1-.054.13c-.049.046-.094.1-.143.142a.17.17,0,0,0-.063.145" transform="translate(-1973.11 -2429.739)" fill="#fff"/>
        <path id="Pfad_16237" data-name="Pfad 16237" d="M1775.849,2355.465a.211.211,0,0,1,.081-.14c.063-.067.123-.137.184-.206l.591.375a.227.227,0,0,1-.091.188c-.053.055-.129.1-.133.187a2.929,2.929,0,0,1-.5-.3c-.045-.031-.085-.068-.128-.1" transform="translate(-1758.947 -2333.291)" fill="#fff"/>
        <path id="Pfad_16238" data-name="Pfad 16238" d="M2588.42,1420.532c-.069.062-.138.122-.205.186a.213.213,0,0,1-.142.079l-.2-.237-.274-.321c.067-.061.136-.12.2-.182.04-.038.076-.08.138-.079a1.961,1.961,0,0,1,.159.144,2.345,2.345,0,0,1,.324.411" transform="translate(-2563.171 -1406.817)" fill="#fff"/>
        <path id="Pfad_16239" data-name="Pfad 16239" d="M1912.826,2431.387c0,.076-.064.113-.11.16a.318.318,0,0,0-.113.238,2.936,2.936,0,0,1-.743-.251l.28-.326a.117.117,0,0,1,.031-.018c.071.02.142.039.213.06l.441.137" transform="translate(-1893.698 -2408.657)" fill="#fff"/>
        <path id="Pfad_16240" data-name="Pfad 16240" d="M2067.974,2466.142a.169.169,0,0,1,.063-.145c.049-.046.094-.1.143-.142a.161.161,0,0,0,.054-.13l.741.028a.173.173,0,0,1-.06.146c-.04.037-.078.076-.115.116a.3.3,0,0,0-.085.177,3.013,3.013,0,0,1-.74-.05" transform="translate(-2048.363 -2442.872)" fill="#fff"/>
        <path id="Pfad_16241" data-name="Pfad 16241" d="M1844.962,2395.866a.1.1,0,0,0-.031.018l-.28.326a2.5,2.5,0,0,1-.629-.3c0-.091.08-.131.133-.186a.228.228,0,0,0,.091-.188l.717.331" transform="translate(-1826.488 -2373.333)" fill="#fff"/>
      </g>
    </g>
  </g>
</svg>
