<svg xmlns="http://www.w3.org/2000/svg" xmlns:xlink="http://www.w3.org/1999/xlink" width="1024" height="1024" viewBox="0 0 1024 1024"><defs><clipPath id="b"><rect width="1024" height="1024"/></clipPath></defs><g id="a" clip-path="url(#b)"><circle cx="512" cy="512" r="512" fill="#d9e0e7"/><path d="M452.2,695.7c-50.3-76.2-104.5-133.9-138.7-212.5-43.4-99.5-9.1-211.6,81-266.9,93.9-57.6,212-36.4,281.1,50.4,54.8,69,60.8,162.4,9.2,244.6C645,574.7,598.7,634,555.3,695.2c-16.8,19.7-33.6,39.4-52.2,61.3C485.2,735.3,468.7,715.5,452.2,695.7Zm58.2-456.8c-83-1.3-150.9,61.9-154.1,143.4-3.2,79.6,63.5,150.3,144.5,153.1,86.6,2.9,156-62.4,156.6-147.2C657.8,305,593.9,240.1,510.4,238.9Z" fill="#fff"/><path d="M424.6,348l89.5,89.5,62.7-62.8-27.9-27.9-35.3,32.6-60.3-60Z" fill="#fff"/><path d="M440.7,712.5c-.5-.8-1-1.5-1-1.5Z" fill="#fff"/><path d="M524.7,856c61-4.5,146-21.6,146-70.7,0-59.7-117.2-61-117.2-61l-1.9,3.9.8-1.2c.5-.8,1-1.5,1-1.5l-1,1.5c-2.5,3.9-8.2,14.9,4.9,19.2,15.9,5.2,44.3,16.4,44.3,44.6,0,23.9-56.7,28.3-93.8,29.1l-.1.2-.1-.2c-37.1-.8-93.8-5.2-93.8-29.1,0-28.2,28.4-39.4,44.3-44.6,13.1-4.3,7.4-15.3,4.9-19.2l-1-1.5,1,1.5.8,1.2-1.9-3.9s-117.2,1.2-117.2,61c0,49.2,85,66.2,146,70.7l17.1,1Z" fill="#fff"/></g></svg>