<svg xmlns="http://www.w3.org/2000/svg" xmlns:xlink="http://www.w3.org/1999/xlink" width="1024" height="1024" viewBox="0 0 1024 1024"><defs><clipPath id="b"><rect width="1024" height="1024"/></clipPath></defs><g id="a" clip-path="url(#b)"><circle cx="512" cy="512" r="512" fill="#d9e0e7"/><path d="M699.1,506,679,557c-1.8,4.7-4.5,9-5.4,14a30.489,30.489,0,0,0-3.4,7.6c-2.9,6.4-5.4,13-8.1,19.5s-5.9,12.9-8.9,19.3c-1.5,3.3-2.8,6.7-4.2,10a16.466,16.466,0,0,0-3.1,6.7,8.7,8.7,0,0,0-2.1,4.3,12.4,12.4,0,0,0-2.4,5.2l.1-.1c-.2.4-.5.8-.7,1.2-3.1,6.4-6.2,12.7-9.4,19.1-17.6,35.8-35.9,71.2-58.9,103.9-6.9,9.9-14.3,19.4-23.8,27.1-6.2,5-12.8,6.2-20.4,3.3-8.7-3.4-16.4-8.3-23.8-13.9-31-23.5-57.1-51.9-82.6-81-14.3-16.3-27.4-33.4-41.1-50.1-.5-.7-.9-1.3-1.4-2-.3-.3-.5-.6-.8-.9v-.1c-7.4-10-14.8-20-22.2-30.1a20.315,20.315,0,0,0-4.3-6.2c-.5-1.6-1.3-2.9-3.1-3.2-.1-.3-.1-.7-.2-1,.2-.8-.2-1.2-.8-1.6.1-.3,0-.5-.3-.5-1.2-1.8-2.4-3.7-3.7-5.5-.2-.3-.5-.6-.7-.9-.3-.4-.5-.7-.8-1.1-.7-1.1-1.4-2.1-2.1-3.2l-.9-1.5c-.8-1.3-1.7-2.6-2.5-3.9.1-.7-.3-.9-.8-1.1h0a12.132,12.132,0,0,0-1-1.4,27.921,27.921,0,0,0-4.6-7.1,10.47,10.47,0,0,0-.8-1.1v.1c-.3-.5-.7-1-1-1.5-.4-.6-.7-1.1-1.1-1.7-.4-.7-.9-1.4-1.3-2,.6-1.4-3.5-2.8,0-4.1.4.9,1.2,1,2.1,1l-.1-.1a.949.949,0,0,0,1.2.7,64.476,64.476,0,0,0,12.6,4.9c.4.2.8.3,1.2.5,13.9,5,28.1,8.5,43,8.9.8.9,1.7.7,2.7.6a149.9,149.9,0,0,0,26.8.1c1,.1,2,.3,2.7-.6,20.3-.6,39.2-6.5,57.7-14.3,2.3-1,4.4-2.2,6.6-3.3.3-.2.7-.4,1-.6a145.254,145.254,0,0,0,37.3-24.8c21.9-18.1,37.9-40.5,49-66.4,7.6-17.8,12.8-36.3,13.7-55.8a2.323,2.323,0,0,0,.2-2.4c.1-.5.1-1.1.2-1.6a132.957,132.957,0,0,0-2.1-42.2,42.064,42.064,0,0,0-2.5-12.2,84.474,84.474,0,0,0-6.2-20.4,1.02,1.02,0,0,0-.2-.9c-6.7-19.2-17.2-36.2-29.8-52-6-7.5-13.6-13.5-20.1-20.4-.4-.3-.7-.7-1.1-1l-.1-.1c-.3-.3-.7-.6-1-.9a5.909,5.909,0,0,0-3.1-2.5c-7.8-7.3-17-12.6-27-18.9,13.5-3,26-6,38.5-8.6,31.7-6.5,63.7-11.5,96.1-13.3,30.3-1.7,60.5-2.3,90,6.8,2.7.8,5.3,1.9,7.9,2.9,18.5,7.1,27.4,20.9,28.5,40.2.4,6.7.5,13.4.7,20.2-2.4,36.6-10.7,72-20.4,107.2-9.4,33.9-20.7,67.2-32.7,100.3A15.116,15.116,0,0,1,699.1,506Z" fill="#fff"/><path d="M441.7,534.3c-2.9.7-5.7,1.4-8.6,2.2a1.764,1.764,0,0,0-2.2.6c-7.8.9-15.6,1.7-23.4,2.6h-2a149.236,149.236,0,0,1-48.7-7.9c-14.4-5.8-27.9-13-39.6-23.2-27.7-24-43.9-54-47.1-90.8-3.3-38.4,8.9-71.8,33.4-100.9,4.6-5.5,10.5-9.9,15.7-14.8,18.1-13.7,38.2-23.2,60.7-27.1,19.3-3.3,38.3-2.1,57.2,2.3,16.5,5.1,32,12,45.9,22.6,14.7,11.2,26.3,25,36.1,40.6l1.2,2.1c2.2,4.6,4.3,9.2,6.5,13.8.1.3.2.7.3,1,.8,1.8,1.5,3.7,2.3,5.5.4,1.4.9,2.9,1.3,4.3,1,4.3,2.1,8.5,3.1,12.8.2,1.6.4,3.2.6,4.7q9.45,63.75-33.2,111.9c-12.9,14.5-28.9,24.8-46.3,33.1a12.834,12.834,0,0,0-5.7,2.2,3.552,3.552,0,0,0-2.8,1.1,4.166,4.166,0,0,0-3.7,1.1A3.558,3.558,0,0,0,441.7,534.3Z" fill="#fff"/></g></svg>