<?xml version="1.0" encoding="utf-8"?>
<!-- Generator: Adobe Illustrator 21.0.0, SVG Export Plug-In . SVG Version: 6.00 Build 0)  -->
<svg version="1.1" id="Layer_1" xmlns="http://www.w3.org/2000/svg" xmlns:xlink="http://www.w3.org/1999/xlink" x="0px" y="0px"
	 viewBox="0 0 1024 1024" enable-background="new 0 0 1024 1024" xml:space="preserve">
<circle id="XMLID_1_" fill="#F0F2F4" cx="512" cy="512" r="512"/>
<g>
	<path fill="#ACBB14" d="M568.6,497.7c-13.7,0-25.4,4.7-33.6,13.5c-8.4,9-12.9,22-12.9,37.7c0,23.1,14.7,38.5,36.6,38.5
		c9.1,0,17.6-2.3,24.1-6.6l-3.5-22.4c-4,3.5-8.8,5.3-14.3,5.3c-9.3,0-15.4-6.9-15.4-17.6c0-15.2,7.9-25,20.2-25
		c4.6,0,8.7,1.7,12.3,5l8.1-21.9C584.5,499.9,577.1,497.7,568.6,497.7L568.6,497.7z"/>
	<path fill="#ACBB14" d="M375.4,555.2c-0.6,3.6-0.9,6.8-0.9,9.4c0,14.8,7.8,22.7,22.5,22.7c6,0,11.3-1,15.8-2.9l0.2-22.1
		c-1.9,1.1-3.6,1.6-5.5,1.6c-3.5,0-5.2-2-5.2-6.1c0-1.4,0.2-2.9,0.3-4.3l15-95.1c-8.9,2.8-18.3,4.9-28,6.5L375.4,555.2L375.4,555.2z
		"/>
	<path fill="#ACBB14" d="M688.9,555.2c-0.6,3.6-0.9,6.8-0.9,9.4c0,14.8,7.8,22.7,22.5,22.7c6,0,11.3-1,15.8-2.9l0.2-22.1
		c-1.9,1.1-3.6,1.6-5.5,1.6c-3.5,0-5.2-2-5.2-6.1c0-1.4,0.2-2.9,0.3-4.3l15-95.1c-8.9,2.8-18.3,4.9-28,6.5L688.9,555.2L688.9,555.2z
		"/>
	<path fill="#ACBB14" d="M653.2,498.2c-19,0-34.5,5.5-44.8,15.8c-9.3,9.3-14.2,22.3-14.2,37.3c0,22.2,11.7,36,30.4,36
		c8.9,0,16.5-3.3,23.3-10.1l0.4-0.4l-0.2,8.6h21.3l13.5-85.9C674.1,498.7,662.7,498.2,653.2,498.2L653.2,498.2z M652.4,522l-5.4,34
		c-4.4,5.9-8.8,8.5-14.1,8.5c-7.1,0-11.2-5.7-11.2-15.7c0-7.8,2.3-14.4,6.6-19.2c4.7-5.2,11.6-7.9,19.9-7.9h4.2L652.4,522L652.4,522
		z"/>
	<path fill="#ACBB14" d="M501.1,507.8c-6.8-6.6-16.7-10.1-28.5-10.1c-14.5,0-26.8,4.8-35.5,14c-8.8,9.2-13.4,22.1-13.4,37.3
		c0,11.7,3.7,21.5,10.6,28.2c6.9,6.7,16.9,10.2,28.8,10.2c14.3,0,26.5-4.8,35.2-14c8.7-9.2,13.3-22.1,13.3-37.3
		C511.7,524.3,508.1,514.5,501.1,507.8L501.1,507.8z M465.1,564c-8.8,0-13.8-6.4-13.8-17.6c0-15.2,7.6-25.3,19-25.3
		c8.8,0,14,6.6,14,17.6C484.2,553.6,476.4,564,465.1,564L465.1,564z"/>
	<path fill="#ACBB14" d="M847.8,397.4c0-31.9-25.9-57.8-57.8-57.8c-0.3,0-2.4,0-2.5,0.1c-30.8,1.3-55.3,26.7-55.3,57.7
		c0,21.4,11.4,37.1,22.4,45.7c2.7,2.4,5.4,3.9,8,5.9c9,6.4,26.8,21.5,26.8,41.6c0,28.3-6.9,38.2-4.5,40.3c0.8,0.5,4.1-1.2,9.8-6.9
		c34.2-35.7,50-84.3,52.8-117.8C847.8,404.3,847.8,398.4,847.8,397.4L847.8,397.4z M825.9,397.4c0,19.8-16,35.8-35.8,35.8
		c-19.8,0-35.8-16-35.8-35.8c0-19.8,16-35.8,35.8-35.8C809.8,361.6,825.9,377.6,825.9,397.4L825.9,397.4z"/>
	<path fill="#445478" d="M781.9,419.1c-0.1,0-0.1,0-0.2,0c-0.2-0.1-0.3-0.3-0.3-0.5l-1.2-15l-13-7.5c-0.2-0.1-0.3-0.3-0.3-0.5
		c0-0.2,0.1-0.4,0.3-0.5l13.9-5.8l3.1-14.7c0-0.2,0.2-0.4,0.4-0.4c0.2-0.1,0.4,0,0.6,0.2l9.8,11.4l14.9-1.6c0.2,0,0.4,0.1,0.5,0.3
		c0.1,0.2,0.1,0.4,0,0.6l-7.8,12.8l6.1,13.7c0,0.1,0.1,0.2,0.1,0.3c0,0.3-0.3,0.5-0.6,0.5c0,0-0.1,0-0.1,0l-14.6-3.5l-11.2,10.1
		C782.2,419,782,419.1,781.9,419.1L781.9,419.1z"/>
	<path fill="#445478" d="M270.6,499.6c-8.8-0.8-20.1-1.4-29.6-1.4c-43.4,0-58.9,27.4-58.9,53c0,22.2,11.7,36,30.4,36
		c6.5,0,12.5-2,18.1-6l0.4-0.3l-0.9,5.8c-2.2,12.5-9,18.1-21.9,18.1c-5.9,0-11.4-0.9-16.5-2.8c-3.4,6.4-7.1,12.7-11.3,18.8
		c8.5,4.2,18.4,6.5,28.6,6.5c13.5,0,24.4-3.3,32.3-9.8c8.2-6.7,13.5-17.1,15.7-30.9L270.6,499.6L270.6,499.6z M240.4,521.7l0,0.2
		l-5.2,33.6l0,0c-4.8,6-9.2,8.7-14.3,8.7c-7.1,0-11.2-5.7-11.2-15.7c0-7.7,2.3-14.3,6.6-19c4.6-5.1,11.5-7.9,19.8-7.9H240.4
		L240.4,521.7z"/>
	<path fill="#445478" d="M354,507.8c-6.8-6.6-16.7-10.1-28.5-10.1c-14.5,0-26.8,4.8-35.5,14c-8.8,9.2-13.4,22.1-13.4,37.3
		c0,11.7,3.7,21.5,10.6,28.2c6.9,6.7,16.9,10.2,28.8,10.2c14.3,0,26.5-4.8,35.2-14c8.7-9.2,13.3-22.1,13.3-37.3
		C364.6,524.3,361,514.5,354,507.8L354,507.8z M318,564c-8.8,0-13.8-6.4-13.8-17.6c0-15.2,7.6-25.4,19-25.4c8.8,0,14,6.6,14,17.6
		C337.1,553.6,329.3,564,318,564L318,564z"/>
</g>
</svg>
