<svg xmlns="http://www.w3.org/2000/svg" xmlns:xlink="http://www.w3.org/1999/xlink" width="1024" height="1024" viewBox="0 0 1024 1024"><defs><clipPath id="b"><rect width="1024" height="1024"/></clipPath></defs><g id="a" clip-path="url(#b)"><circle cx="512" cy="512" r="512" fill="#d9e0e7"/><path d="M512,171.9c-130.7,0-236.8,106-236.8,236.8A236.439,236.439,0,0,0,365.8,595l.1.1c.1.1.2.1.3.2,4.5,3.1,9,6.3,13.3,9.7h0a285.627,285.627,0,0,1,68.7,76.6c6.4,10.3,14.1,21.1,19.1,32.3,15.9,35.6,26.9,75,26.9,116.5h0a21.7,21.7,0,0,0,43.4,0h0c0-54.5,13.3-105.5,39.8-148.8,18.1-29.5,40.4-55.5,67.7-76.6h-.5c4.3-3.4,8.5-6.6,13.1-9.7l.2-.2V595a236.449,236.449,0,0,0,90.6-186.3C748.8,277.9,642.7,171.9,512,171.9ZM691.3,480.8a192.828,192.828,0,0,1-59.1,79.1c-4.2,3.3-8.5,6.5-13,9.5l-.1.1a327.309,327.309,0,0,0-69.9,73,330.936,330.936,0,0,0-27,46.1c-3.8,7.8-7.2,15.8-10.3,24.1-3.1-8.2-6.6-16.2-10.3-24.1-4.4-9.2-9.2-18.2-14.5-27-3.9-6.6-8-12.9-12.4-19.2,7.1,1.1,14.3,1.9,21.5,2.4a366.526,366.526,0,0,1,29.3-43.4c-4.5.3-9,.5-13.6.5a192.436,192.436,0,0,1-107.2-32.4l-.1-.1a148.924,148.924,0,0,1-13-9.5,192.823,192.823,0,0,1-73-151.3c0-106.7,86.5-193.3,193.3-193.3A193.245,193.245,0,0,1,705.2,408.6,190.625,190.625,0,0,1,691.3,480.8Z" fill="#fff"/><path d="M512.4,265.8h0a8.92,8.92,0,0,0-8.9,8.9V408.3a8.92,8.92,0,0,0,8.9,8.9h0a8.92,8.92,0,0,0,8.9-8.9V274.7A8.92,8.92,0,0,0,512.4,265.8Z" fill="#fff"/><path d="M605.1,422.1H517.9a14.041,14.041,0,0,1-14-14h0a14.041,14.041,0,0,1,14-14h87.2a14.041,14.041,0,0,1,14,14h0A14.106,14.106,0,0,1,605.1,422.1Z" fill="#fff"/></g></svg>