<?xml version="1.0" encoding="utf-8"?>
<!-- Generator: Adobe Illustrator 19.2.1, SVG Export Plug-In . SVG Version: 6.00 Build 0)  -->
<svg version="1.1" id="Layer_1" xmlns="http://www.w3.org/2000/svg" xmlns:xlink="http://www.w3.org/1999/xlink" x="0px" y="0px"
	 viewBox="0 0 1024 1024" enable-background="new 0 0 1024 1024" xml:space="preserve">
<circle id="XMLID_1_" fill="#F1742B" cx="512" cy="512" r="512"/>
<path fill="#FFFFFF" d="M446.9,797.2c-35.8,0.9-72.3-7-103.1-32c-37.8-30.7-57.4-70.6-54.5-119.9c2.4-40.3,14.9-78.7,24.7-117.6
	c11.8-46.8,25.9-93,34.8-140.5c3.2-17.3,7.4-34.7,3.4-52.4c-2.5-11-8.7-15.5-20-16.2c-26.2-1.6-51.3,5.4-76.7,10.1
	c-9.9,1.8-10.6,1.7-9.8-8.5c1.7-22.2,5.5-45.9,28.7-54.2c40.7-14.5,81-32.8,125.6-31.2c29.2,1,55.5,9.4,71.7,36.3
	c10.2,17,13.1,35.9,11.1,55.5c-3.6,35.5-13.7,69.7-21.9,104.3c-14.3,60.3-31.7,119.8-44,180.6c-3.7,18.5-3.3,36.9,1.5,55.2
	c7.1,27,31.4,45.5,60.1,46.1c38.6,0.9,71.7-14,100.2-38.1c54.4-46.1,88.5-104.7,101-175.2c4.6-26,8.6-52.2,2.1-78.8
	c-4.1-16.7-11.7-31.3-22.5-44.4c-16.1-19.7-28.7-41-29.8-67.3c-2-45.5,23-80.3,73.6-81.1c31.9-0.5,63.7,16.4,72.1,65
	c6.7,38.7,4.9,76.9,0.2,115.5c-7.6,62.8-23.6,123-51.8,179.6c-34.5,69.2-78.5,130.9-145.7,172.3
	C538.8,784.3,496.4,798.1,446.9,797.2z"/>
<g>
	<g>
		<path fill="#25689B" d="M1139,663.5c3.2,0,3.2-5,0-5C1135.8,658.5,1135.8,663.5,1139,663.5L1139,663.5z"/>
	</g>
</g>
</svg>
