<svg id="Layer_1" data-name="Layer 1" xmlns="http://www.w3.org/2000/svg" viewBox="0 0 1024 1024"><defs><style>.cls-1{fill:#f0f2f4;}.cls-2{fill:#e94435;}.cls-3{fill:#38a952;}.cls-4{fill:#567fbf;}.cls-5{fill:#f8bb18;}.cls-6{fill:#f0d774;}</style></defs><title>google</title><circle id="_Path_" data-name="&lt;Path&gt;" class="cls-1" cx="512" cy="512" r="512"/><g id="_Group_" data-name="&lt;Group&gt;"><path id="_Path_2" data-name="&lt;Path&gt;" class="cls-2" d="M265.69,385.5a213.86,213.86,0,0,1,15.45-27.19,275.31,275.31,0,0,1,31-39.41,293.57,293.57,0,0,1,42.9-37.32,277.73,277.73,0,0,1,78.43-39,274.3,274.3,0,0,1,60.68-11.78,297.29,297.29,0,0,1,71.67,2.86,254.89,254.89,0,0,1,36.66,8.72A265.82,265.82,0,0,1,679.28,281a257.82,257.82,0,0,1,26.64,21.92l-79.27,79.19c-3-2.52-6.27-5.4-9.66-8.16a146.91,146.91,0,0,0-53.53-27.77,166.76,166.76,0,0,0-81.63-2.28A152.57,152.57,0,0,0,446.87,356,173.22,173.22,0,0,0,377,417.82a160.57,160.57,0,0,0-18.26,37.38,10.42,10.42,0,0,1-.9,1.67c-3.55-2.7-7.27-5.2-10.68-8-8.26-6.86-16.88-13.24-25.28-19.91-10.77-8.56-21.72-16.9-32.6-25.31Q277.49,394.53,265.69,385.5Z" transform="translate(0 0)"/><path id="_Path_3" data-name="&lt;Path&gt;" class="cls-3" d="M704.31,726.32a219.47,219.47,0,0,1-34.5,26.56,255.78,255.78,0,0,1-72.64,31.42A313.36,313.36,0,0,1,468.93,790a280.45,280.45,0,0,1-70.61-22.25,284.72,284.72,0,0,1-47.21-27.88,279.81,279.81,0,0,1-45.25-41.45A287.39,287.39,0,0,1,265.6,639c0.2-1,1.17-1.39,1.86-1.92,6.14-4.74,12.38-9.35,18.46-14.16,13.14-10.38,26.41-20.6,39.72-30.77,10.81-8.27,21.44-16.79,32.14-25.2,2.31,5.17,4.12,10.54,6.44,15.72a173.89,173.89,0,0,0,79.68,83.7,160.09,160.09,0,0,0,50.69,15.9,187.41,187.41,0,0,0,62.72-2.2A163.78,163.78,0,0,0,603,663.78c4.26-2.29,8.06-5.3,12.45-7.34a4,4,0,0,0,2.06,2.34c6.19,3.65,10.91,9.19,16.95,13.07,3.61,2.32,6.68,5.51,10.09,8.09s6.89,4.94,10.22,7.59c4.49,3.57,9.19,6.89,13.7,10.43s9.53,6.79,13.86,10.77a96.51,96.51,0,0,0,9.79,7.53c0.93,0.66,1.31,1.66,2.29,2.37C697.75,721.09,701.57,723,704.31,726.32Z" transform="translate(0 0)"/><path id="_Path_4" data-name="&lt;Path&gt;" class="cls-4" d="M704.31,726.32c-2.74-3.28-6.56-5.23-9.94-7.69-1-.71-1.36-1.71-2.29-2.37a96.51,96.51,0,0,1-9.79-7.53c-4.34-4-9.26-7.16-13.86-10.77s-9.21-6.86-13.7-10.43c-3.33-2.65-6.86-5-10.22-7.59s-6.48-5.77-10.09-8.09c-6-3.88-10.75-9.42-16.95-13.07a4,4,0,0,1-2.06-2.34c8.14-6,16-12.32,22.87-19.79a132.12,132.12,0,0,0,33-65.8,10.21,10.21,0,0,0,0-1.62h-153c-0.85-1.2-.57-2.24-0.57-3.22,0-34.54,0-69.08-.09-103.62,0-3,1-3.4,3.6-3.4q129.52,0.09,259,0h2.87a171.42,171.42,0,0,1,2.91,18,325.6,325.6,0,0,1,2.63,47.25c-0.92,42.68-8.82,83.85-26.81,122.8a248.69,248.69,0,0,1-56.45,78.39A12.25,12.25,0,0,1,704.31,726.32Z" transform="translate(0 0)"/><path id="_Path_5" data-name="&lt;Path&gt;" class="cls-5" d="M357.79,567c-10.71,8.41-21.33,16.93-32.14,25.2-13.3,10.17-26.57,20.39-39.72,30.77-6.09,4.81-12.33,9.41-18.46,14.16-0.69.53-1.66,0.88-1.86,1.92a219.35,219.35,0,0,1-11.67-26.28,217,217,0,0,1-7.63-23.06c-1.3-5-2.86-9.93-4-15-1-4.31-1.67-8.71-2.49-13.06a142.31,142.31,0,0,1-2.2-15.16c-0.15-3.5.61-7.1-1.07-10.45a210.1,210.1,0,0,1-1-34.6c0.38-9.23,1-18.49,2.31-27.63a283.62,283.62,0,0,1,6-30.4,273.2,273.2,0,0,1,8.73-28.64c3.76-10,7.56-20.06,13.09-29.3q11.78,9.06,23.56,18.12c10.89,8.41,21.83,16.76,32.6,25.31,8.4,6.67,17,13.05,25.28,19.91,3.41,2.83,7.13,5.33,10.68,8-0.27,3.57-2,6.76-2.7,10.21-0.8,3.69-2,7.29-2.77,11a179.41,179.41,0,0,0-3.08,23,112.65,112.65,0,0,0,.3,24.14c0.47,3.34.56,6.73,1,10.07a132.75,132.75,0,0,0,3.35,17.33C355.25,557.39,356.5,562.19,357.79,567Z" transform="translate(0 0)"/><path id="_Path_6" data-name="&lt;Path&gt;" class="cls-6" d="M236.51,536.06c1.68,3.35.92,6.94,1.07,10.45C235.92,543.16,236.55,539.58,236.51,536.06Z" transform="translate(0 0)"/></g></svg>