<svg id="Layer_1" data-name="Layer 1" xmlns="http://www.w3.org/2000/svg" viewBox="0 0 1024 1024"><defs><style>.cls-1{fill:#214175;}.cls-2{fill:#b3cfe4;}.cls-3{fill:#438fcd;}.cls-4{fill:#30b3e3;}.cls-5{fill:#7dd121;}.cls-6{fill:#2ca1c5;}.cls-7{fill:#7cd023;}.cls-8{fill:#2ca1c6;}.cls-9{fill:#3c81ab;}.cls-10{fill:#3d80a4;}.cls-11{fill:#2ca1c7;}.cls-12{fill:#2da4cb;}.cls-13{fill:#7acf27;}.cls-14{fill:#7bcf25;}</style></defs><title>navmii</title><circle id="_Path_" data-name="&lt;Path&gt;" class="cls-1" cx="512" cy="512" r="512"/><path class="cls-2" d="M512,888.8c-207.34.58-376.2-168.37-376-376,.19-207.15,167.82-377.33,379.5-375.6C617.54,138,706,175.42,778.11,247.91,851,321.18,887.88,410.68,887.69,514,887.32,721.5,719.24,889,512,888.8Zm6.75-42.58c85.18-1.22,164.36-33.39,229.43-98.38S846.66,603,846.23,511.39C845.38,327,699.17,178.87,512.83,178c-91.84-.45-171.74,31.92-236.53,96.79-73.56,73.64-105.73,164-97,267.78,6.71,80,39.35,149.12,96.12,205.57C340.49,812.81,419.72,845.68,518.74,846.22Z" transform="translate(0.17 -1)"/><path class="cls-3" d="M518.74,846.22c-99-.55-178.25-33.42-243.34-98.14C218.62,691.64,186,622.54,179.28,542.52c-8.7-103.81,23.47-194.13,97-267.78C341.09,209.88,421,177.51,512.83,178c186.33.91,332.55,149.07,333.4,333.43.42,91.57-32.89,171.35-98.06,236.45S603.91,845,518.74,846.22ZM702.93,297l-.93-1.18c-6.18-7.07-14.12-12-21.67-17.31-26.71-18.86-56-32.28-87.44-41.2A274.8,274.8,0,0,0,530.34,227a303,303,0,0,0-39.34.58,317.3,317.3,0,0,0-45,7.06A282,282,0,0,0,347,278.9c-5.61,3.93-11.75,7.33-16.08,12.9-1.94.09-3,1.39-3.92,2.87-5.6,2.1-9.83,6.11-13.9,10.25-19,19.32-36.59,39.76-49.3,63.94l-.71,1.24a.8.8,0,0,1-.22.73l-.9,2v0l-.83,1.17.09-.05c-5.43,6-8.06,13.6-11.24,20.85a34.17,34.17,0,0,0-2.53,4.24c-12.93,30.8-21.29,62.81-23.26,96.17-1.14,19.38-.86,38.9,2,58.2a295,295,0,0,0,14.55,58.24,278.06,278.06,0,0,0,20.7,44.73A291.31,291.31,0,0,0,326,733.44a296.15,296.15,0,0,0,62.15,40.18,274.53,274.53,0,0,0,60.55,21c19.79,4.39,39.75,7.27,60.06,7.18,9.29,0,18.57-.11,27.88-.73a269.94,269.94,0,0,0,34.9-4.71A292.66,292.66,0,0,0,733.6,702.48c2.33-2.64,5.48-4.91,6.43-8.67l4.92-4c2.87-.2,4.28-2.55,5.81-4.37C761.16,673,769.21,659,776.42,644.59a329.67,329.67,0,0,0,23.47-60.76c6.64-24.23,11.13-48.62,9.28-74a396.09,396.09,0,0,0-5.38-41.32c-.92-5.11-1.25-10.85-5.78-14.71-1.71-4.55-1.31-9.7-4-14-1.2-8.7-4.85-16.71-7.14-25.11l-.86-3.92c1.83-1.51,1.83-3.3,1-5.36-2.68-6.43-5-13-8-19.31-9.77-20.83-21.83-40.25-37-57.57-9.5-10.84-19.59-21.15-31.41-29.56-1.31-.93-2.6-2.9-4.67-1.16l-2-.05h0l-1.14-.91Z" transform="translate(0.17 -1)"/><path class="cls-4" d="M786.91,414.72c2.29,8.4,5.93,16.41,7.14,25.11-.77-.28-1.77-.34-2.26-.87-8.34-8.89-19.39-10.86-30.71-12.14-8.87-1-17.72-2.15-26.62-2.85-12.55-1-25.15-.54-36.43,5.62-18.32,10-28,26.51-31.89,46.47a127.54,127.54,0,0,0-1.22,40.59c2,15.9,7.13,30.37,18.28,42.09,4.39,4.61,9,9.61,15.69,10.95,5.85,1.17,11.86,1.15,17.85,1.19a59.06,59.06,0,0,1,18.06,3c3.74,1.23,6.63,3.61,7.06,7.62a55.43,55.43,0,0,1,0,12c-1.46,13.14-3.16,26.25-4.83,39.36-1.58,12.46-3.72,24.86-4.69,37.37-.67,8.63-2.82,18.39,7.73,23.62-.95,3.76-4.1,6-6.43,8.67a292.66,292.66,0,0,1-162.09,93.86,269.94,269.94,0,0,1-34.9,4.71c-9.31.62-18.59.69-27.88.73-20.3.09-40.27-2.79-60.06-7.18a274.53,274.53,0,0,1-60.55-21A296.15,296.15,0,0,1,326,733.44a291.31,291.31,0,0,1-64.56-77.09,278.06,278.06,0,0,1-20.7-44.73,295,295,0,0,1-14.55-58.24c-2.82-19.3-3.1-38.82-2-58.2,2-33.36,10.32-65.37,23.26-96.17a34.14,34.14,0,0,1,2.53-4.24c1.91,2.91,1.28,6.19.72,9.15-1.7,8.84-.71,17.48,3.59,25.09,6.53,11.56,13.65,22.75,19.75,34.59,13.34,25.9,31.45,47.54,56.07,63.94,23.32,15.54,46.88,30.52,71.58,43.78,9.86,5.29,10,12.76.88,19.73a15.26,15.26,0,0,0-4.9,7.32c-3.36,9.28-5.13,18.48-4,28.67,1.35,11.79,11,29.77,26.94,32.78a18.43,18.43,0,0,1,13.93,10.93c3.14,6.74,4.54,13.86,5.35,21.08a215.23,215.23,0,0,1,1.46,28.61c-.19,9.23-.64,18.42-1.14,27.63-.37,6.93-1.13,14,.63,20.86,1.52,6,7.39,9,12.72,5.95,7.85-4.42,15.16-9.65,20.23-17.37,7.19-11,16.86-19.55,27-27.57,16.54-13.06,35.13-23.16,52.1-35.64,13.76-10.12,28.55-18.87,40.05-31.89,5.57-6.31,7.29-12.33,2.91-19.49-5.63-9.19-13.28-16.82-23.37-21-8.87-3.63-18.21-6.11-27.39-9-3-.94-5.5-3-5.67-5.71-.63-10-7.69-14.89-15-19.1-20.63-11.87-42.64-20.66-65.45-27.36-11.91-3.5-24.13-5.9-35.85-10.12a13.25,13.25,0,0,1-6.88-5.5c-5.37-8.49-6.47-18.24-5.87-27.74a66.87,66.87,0,0,0-.77-15.22c-.93-5.59-4.25-11.3-10.38-12.19A34.27,34.27,0,0,0,372.52,497a95.69,95.69,0,0,1-8.23,5.55c-3.94,2.49-9.61,2-12.37-1.5-4.22-5.31-7.13-11.38-5.3-18.43,2.72-10.47,7.54-19.23,18.44-23.64,9.1-3.69,17.73-7.87,28.15-5.3,7.72,1.91,13.89,6,20,10.72,4.64,3.56,9.87,6.13,15.7,3.67,6.37-2.69,7.6-8.78,8.07-14.91a79.27,79.27,0,0,0,0-9,19.77,19.77,0,0,1,3.54-11.68c6.07-9.52,14.59-16.75,22.72-24.25a174.7,174.7,0,0,1,28.06-21.33c7.89-4.77,16-9.31,23-15.53,12.42-10.89,12.61-29.58,2.73-41.09-7-8.16-15.38-14.56-24.46-20.06-15-9.13-31-12.35-48.1-6.43-7.85,2.72-11.77,9.18-10.35,17,1.63,8.91-1.69,14.71-10.14,17.89-9.61,3.62-19.48,3.74-29.37,1.78-8.61-1.7-12-7.71-10-16.24,1.38-5.82,5.06-10.46,8-15.33,4.71-7.68,4.94-14.77-.16-22.1-1-1.5-2.17-2.94-3.25-4.4-2.73-3.7-6.21-5.76-11-5.61-10.12.32-17.88,4.36-22.64,13.6-3.93,7.63-9.7,9.46-17.39,5.56-2.51-1.28-4.92-2.76-7.38-4.15,4.33-5.58,10.47-9,16.08-12.9A282,282,0,0,1,446,234.66a317.3,317.3,0,0,1,45-7.06,303,303,0,0,1,39.34-.58,274.8,274.8,0,0,1,62.55,10.27c31.41,8.93,60.72,22.35,87.44,41.2,7.55,5.33,15.49,10.24,21.67,17.31q0,.49,0,1a1.39,1.39,0,0,1-.74.14c-2.65-.18-3.27,1.86-4,3.71-1.31,3.23-.21,6.53-.21,9.79q0,23,0,46c0,13.87-4.53,18.16-18.41,17.4-1.25-.07-2.93.44-3.32-1.35a3.6,3.6,0,0,1,1.6-3.46,50.91,50.91,0,0,1,8.52-6c7.79-4.1,8.9-10.72,5-15.6a157.24,157.24,0,0,1-12.08-17.46c-3.22-5.35-7.24-6.34-11.24-4.12-3.07,1.71-4.24,6.8-2.64,11.67.26.79.74,1.49,1,2.27.7,1.77,2.73,3.8.8,5.42-2.26,1.91-3.92-.49-5.37-2-3.07-3.18-6.61-4.15-10.17-1.39-3.9,3-6.51,7.06-6.73,12.28-.38,8.93,1.76,11.41,10.59,11.7,3.13.11,4.87,1.2,5.55,4.44a5.43,5.43,0,0,0,5.7,4.59c4.31,0,5.48,1.25,3.47,5.73-3.11,6.93-3.37,14.29,1.12,20.89,8.06,11.86,24.51,17.32,38.71,13.55,11.34-3,19.95-9.2,26-19.3,3.37-5.6,8.14-6.52,14.15-3.74,7.79,3.59,14,9.42,20.83,14.39,4.65,3.37,8,9.34,15.07,8.4Z" transform="translate(0.17 -1)"/><path class="cls-5" d="M262.89,370.83a.8.8,0,0,0,.22-.73l.71-1.24c12.72-24.18,30.29-44.62,49.3-63.94,4.07-4.13,8.3-8.14,13.9-10.25a7.3,7.3,0,0,1,5,2c.5.44,1,.86,1.52,1.3,9.45,8.15,20.06,6.46,25.38-4.83,4.12-8.75,10.75-12.16,19.78-12.47a8.72,8.72,0,0,1,7.36,3.5c8.51,10.26,8.78,13.72,1.84,24.89-1.5,2.4-3.07,4.76-4.62,7.13a27.79,27.79,0,0,0-3.86,9.69c-1.45,7,2.6,15.65,8.71,17.33,11.9,3.26,24,4.11,35.91,0,12.88-4.39,16.68-11,14.31-24.39-.17-1-.24-2-.36-3a5.83,5.83,0,0,1,4-6.69c8-3.22,16.21-4.88,24.87-3.79,18.73,2.36,33.25,12.72,45.56,25.85,12.85,13.71,10.56,29.06-4.54,40.32a41.87,41.87,0,0,1-4.53,3.11,243.67,243.67,0,0,0-55.07,41.94c-10.42,10.57-19.21,21.44-15.56,37.68a9.27,9.27,0,0,1-.25,3.46c-1.19,6.85-6.93,9.74-13,6.24-2.85-1.65-5.3-4-7.9-6.08a41.24,41.24,0,0,0-13.49-7.3c-11.53-3.69-21.92-1.3-32.79,3.33-10.67,4.54-17.19,11.68-21.45,22.16-4.68,11.51-.54,20.73,5.91,29.71a6.71,6.71,0,0,0,5.61,2.85c5.37-.08,10.83-.35,14.86-4.53,5.71-5.92,12.9-8.57,20.68-10.23,8.86-1.89,14.5,2.12,15.11,11.38.36,5.47.11,11,.07,16.49a56.11,56.11,0,0,0,6.19,25.47c1.36,2.77,3.14,5.16,6.21,6.15,5.54,1.79,10.85,4.19,16.54,5.59,27.7,6.82,54.82,15.31,80.09,28.89,5.72,3.07,11.45,6.16,16.49,10.33,2.24,1.85,4.66,4.15,3.3,7.18-2.34,5.2.84,7.35,4.37,9.51,6.21,3.81,13.24,5.33,20.2,7,14.08,3.35,25.38,10.66,33.11,23.07,2.54,4.07,4,8.33-.16,12.24-8.72,8.19-16.83,17-27,23.64-19.79,12.94-39.46,26.09-58.75,39.76C492,731,477.86,742.06,468.35,758c-4.19,7-11.82,10.58-18.94,14.26-2.4,1.24-4.16.78-4.5-2.38a101.53,101.53,0,0,1-.51-18.91c1.8-22.6,2.77-45.19-1.37-67.72-2.8-15.21-9.34-26.65-26.16-29.11-3.25-.48-5.76-2.28-8-4.67-10.23-10.75-13.31-23.67-10.71-37.81,1.5-8.15,2.59-17.14,12.2-20.89,1.57-.61,2.23-2.33,2.8-4,3-8.56,1.14-13.22-8.07-18.25a834.12,834.12,0,0,1-78.13-48.35c-20.24-14.16-35.2-32.79-47-54.16-5.3-9.61-8.92-20.26-15.95-28.78-10-12.08-10.44-25.7-8.54-40.16,1-8,4.1-15.39,5.77-23.18l-.09.05c.67-.11.81-.6.83-1.17v0A2,2,0,0,0,262.89,370.83Z" transform="translate(0.17 -1)"/><path class="cls-6" d="M261.24,373.94c-1.67,7.79-4.72,15.2-5.77,23.18-1.9,14.46-1.44,28.08,8.54,40.16,7,8.52,10.65,19.17,15.95,28.78,11.78,21.36,26.74,40,47,54.16a834.12,834.12,0,0,0,78.13,48.35c9.22,5,11.08,9.69,8.07,18.25-.58,1.64-1.23,3.35-2.8,4-9.62,3.75-10.71,12.73-12.2,20.89-2.6,14.14.49,27.06,10.71,37.81,2.27,2.39,4.78,4.2,8,4.67,16.82,2.46,23.37,13.91,26.16,29.11,4.14,22.52,3.18,45.12,1.37,67.72a101.53,101.53,0,0,0,.51,18.91c.34,3.16,2.1,3.62,4.5,2.38,7.12-3.68,14.75-7.23,18.94-14.26,9.51-16,23.63-27,38.31-37.44,19.3-13.66,39-26.82,58.75-39.76,10.18-6.65,18.29-15.45,27-23.64,4.16-3.91,2.7-8.17.16-12.24-7.74-12.41-19-19.73-33.11-23.07-7-1.65-14-3.17-20.2-7-3.53-2.17-6.71-4.32-4.37-9.51,1.36-3-1.06-5.33-3.3-7.18-5-4.17-10.76-7.25-16.49-10.33C489.84,574.28,462.73,565.79,435,559c-5.69-1.4-11-3.8-16.54-5.59-3.07-1-4.85-3.38-6.21-6.15a56.11,56.11,0,0,1-6.19-25.47c0-5.5.29-11-.07-16.49-.61-9.26-6.25-13.27-15.11-11.38-7.79,1.66-15,4.32-20.68,10.23-4,4.18-9.49,4.45-14.86,4.53a6.71,6.71,0,0,1-5.61-2.85c-6.44-9-10.58-18.2-5.91-29.71,4.26-10.48,10.79-17.62,21.45-22.16,10.87-4.63,21.26-7,32.79-3.33a41.24,41.24,0,0,1,13.49,7.3c2.59,2.08,5,4.43,7.9,6.08,6,3.5,11.77.61,13-6.24a9.27,9.27,0,0,0,.25-3.46c-3.64-16.24,5.14-27.12,15.56-37.68a243.67,243.67,0,0,1,55.07-41.94,41.87,41.87,0,0,0,4.53-3.11c15.09-11.26,17.39-26.61,4.54-40.32-12.31-13.13-26.83-23.48-45.56-25.85-8.66-1.09-16.88.57-24.87,3.79a5.83,5.83,0,0,0-4,6.69c.12,1,.18,2,.36,3,2.37,13.38-1.43,20-14.31,24.39-11.94,4.07-24,3.22-35.91,0-6.12-1.68-10.17-10.33-8.71-17.33a27.79,27.79,0,0,1,3.86-9.69c1.55-2.37,3.12-4.72,4.62-7.13,6.95-11.17,6.67-14.62-1.84-24.89a8.72,8.72,0,0,0-7.36-3.5c-9,.3-15.66,3.71-19.78,12.47-5.32,11.29-15.94,13-25.38,4.83-.5-.43-1-.85-1.52-1.3a7.3,7.3,0,0,0-5-2c.93-1.47,2-2.78,3.92-2.87,2.46,1.39,4.86,2.88,7.38,4.15,7.68,3.9,13.46,2.07,17.39-5.56,4.76-9.23,12.52-13.28,22.64-13.6,4.77-.15,8.25,1.92,11,5.61,1.08,1.47,2.21,2.91,3.25,4.4,5.1,7.33,4.87,14.42.16,22.1-3,4.87-6.67,9.51-8,15.33-2,8.53,1.37,14.54,10,16.24,9.88,2,19.75,1.83,29.37-1.78,8.45-3.18,11.77-9,10.14-17.89-1.43-7.81,2.5-14.27,10.35-17,17.1-5.92,33.06-2.7,48.1,6.43,9.07,5.51,17.45,11.9,24.46,20.06,9.88,11.51,9.68,30.19-2.73,41.09-7.1,6.22-15.16,10.76-23,15.53a174.7,174.7,0,0,0-28.06,21.33c-8.13,7.5-16.65,14.73-22.72,24.25A19.77,19.77,0,0,0,437,444.18a79.27,79.27,0,0,1,0,9c-.47,6.13-1.7,12.22-8.07,14.91-5.83,2.46-11.06-.1-15.7-3.67-6.08-4.67-12.25-8.8-20-10.72-10.41-2.58-19,1.61-28.15,5.3-10.9,4.42-15.72,13.18-18.44,23.64-1.83,7,1.07,13.12,5.3,18.43,2.76,3.47,8.43,4,12.37,1.5a95.69,95.69,0,0,0,8.23-5.55,34.27,34.27,0,0,1,26.75-6.93c6.14.89,9.45,6.59,10.38,12.19a66.87,66.87,0,0,1,.77,15.22c-.6,9.5.5,19.25,5.87,27.74a13.25,13.25,0,0,0,6.88,5.5c11.72,4.22,23.94,6.62,35.85,10.12,22.81,6.7,44.82,15.49,65.45,27.36,7.32,4.21,14.38,9.11,15,19.1.17,2.75,2.65,4.77,5.67,5.71,9.18,2.85,18.52,5.33,27.39,9,10.09,4.13,17.74,11.76,23.37,21,4.38,7.16,2.67,13.18-2.91,19.49-11.5,13-26.29,21.77-40.05,31.89-17,12.48-35.56,22.58-52.1,35.64-10.15,8-19.82,16.6-27,27.57-5.07,7.73-12.38,13-20.23,17.37-5.32,3-11.2,0-12.72-5.95-1.76-6.9-1-13.93-.63-20.86.5-9.21.94-18.4,1.14-27.63a215.23,215.23,0,0,0-1.46-28.61c-.81-7.22-2.21-14.34-5.35-21.08a18.43,18.43,0,0,0-13.93-10.93c-15.91-3-25.59-21-26.94-32.78-1.17-10.19.6-19.39,4-28.67a15.26,15.26,0,0,1,4.9-7.32c9.11-7,9-14.44-.88-19.73-24.69-13.25-48.26-28.24-71.58-43.78-24.62-16.4-42.73-38-56.07-63.94-6.1-11.84-13.22-23-19.75-34.59-4.3-7.61-5.29-16.25-3.59-25.09.57-3,1.2-6.24-.72-9.15C253.18,387.53,255.81,380,261.24,373.94Z" transform="translate(0.17 -1)"/><path class="cls-7" d="M786.91,414.72H785.2c-.17-2-1.66-3-3.21-3.9-9.9-9.35-20.24-18.14-32.52-24.25-7.32-3.64-12-2.3-16.71,4.35-2.47,3.52-4.75,7.17-7.11,10.76l-1.75,1.83c-8.11,5.32-17,8.5-26.72,8.26-18.71-.47-29.66-15.83-23-31.91l.9-.89,2-1,1.94-.22c1.49.1,3,.15,4.48.31,10.74,1.12,16.06-3.15,17.77-13.88.54-3.37-.14-6.62-.13-9.93.05-17.47-.06-34.94-.12-52.4l.24-4.9a1.39,1.39,0,0,0,.74-.14,1.43,1.43,0,0,0,1,.21l-.05-.1,1.14.91h0a1.81,1.81,0,0,0,2,1,260.45,260.45,0,0,1,44.85,46.13c11.69,15.4,19.72,32.88,29.17,49.56,3,5.27,2.9,11.34,6,16.34Z" transform="translate(0.17 -1)"/><path class="cls-8" d="M740,693.82c-10.55-5.23-8.41-15-7.73-23.62,1-12.5,3.11-24.91,4.69-37.37,1.67-13.11,3.37-26.22,4.83-39.36a55.43,55.43,0,0,0,0-12c-.43-4-3.32-6.39-7.06-7.62a59.06,59.06,0,0,0-18.06-3c-6,0-12,0-17.85-1.19-6.69-1.34-11.3-6.34-15.69-10.95C672,547,666.91,532.55,664.91,516.65a127.54,127.54,0,0,1,1.22-40.59c3.9-20,13.57-36.46,31.89-46.47,11.28-6.16,23.88-6.61,36.43-5.62,8.89.7,17.75,1.85,26.62,2.85,11.32,1.28,22.38,3.25,30.71,12.14.5.53,1.5.59,2.26.87,2.65,4.28,2.25,9.43,4,14,.61,2.44,1.38,4.87.79,7.44a34.29,34.29,0,0,1-1.71-4.12c-4.19-15.28-14.47-23.11-29.88-25.41-11.87-1.77-23.87-2-35.74-3.52-24.19-3.14-46.08,9-55.7,31.42-8.31,19.39-9.48,39.6-6.12,60.19,2.56,15.7,8.56,29.67,20.9,40.35,4.54,3.93,9.35,6.34,15.76,6.05a100,100,0,0,1,26.26,2.56c12.05,2.69,13.73,4.64,13.52,16.82-.39,22.53-5.15,44.57-7.59,66.87-1.13,10.39-3.13,20.77-1.86,31.28.85,7.08,2.09,7.52,8,3.79l.3,2.27Z" transform="translate(0.17 -1)"/><path class="cls-9" d="M744.95,689.8l-.3-2.27.15.15a2,2,0,0,0,.45-.1,4.83,4.83,0,0,0-.1-.75,169.79,169.79,0,0,0,13.7-18.37A327.87,327.87,0,0,0,801,565c4.44-20.26,6.37-40.68,4.25-61.44a387.38,387.38,0,0,0-6.44-42.34c.59-2.57-.18-5-.79-7.44,4.53,3.87,4.86,9.6,5.78,14.71a396.09,396.09,0,0,1,5.38,41.32c1.84,25.38-2.65,49.76-9.28,74a329.67,329.67,0,0,1-23.47,60.76c-7.22,14.39-15.26,28.4-25.67,40.84C749.23,687.26,747.82,689.61,744.95,689.8Z" transform="translate(0.17 -1)"/><path class="cls-10" d="M786.05,410.8c-3.13-5-3-11.07-6-16.34-9.46-16.68-17.48-34.16-29.17-49.56A260.45,260.45,0,0,0,706,298.76q0-.46,0-.93c2.07-1.73,3.36.23,4.67,1.16,11.82,8.41,21.91,18.72,31.41,29.56,15.18,17.32,27.24,36.74,37,57.57,3,6.3,5.28,12.88,8,19.31C787.89,407.5,787.88,409.29,786.05,410.8Z" transform="translate(0.17 -1)"/><path class="cls-6" d="M262.89,370.83a2,2,0,0,1-.9,2Z" transform="translate(0.17 -1)"/><path class="cls-11" d="M706,297.84q0,.46,0,.93a1.81,1.81,0,0,1-2-1Z" transform="translate(0.17 -1)"/><path class="cls-6" d="M263.82,368.86l-.71,1.24Z" transform="translate(0.17 -1)"/><path class="cls-6" d="M262,372.82c0,.57-.16,1.06-.83,1.17Z" transform="translate(0.17 -1)"/><path class="cls-11" d="M704,297.78l-1.14-.91Z" transform="translate(0.17 -1)"/><path class="cls-12" d="M702.93,297a1.43,1.43,0,0,1-1-.21q0-.49,0-1Z" transform="translate(0.17 -1)"/><path class="cls-12" d="M679,377.72l-1.94.22c-1.71-1.67-1.85-.3-2,1l-.9.89c-5.42,2.36-5.05,7.34-4.63,11.71,1,9.82,7.77,15.26,16,19.21,12.2,5.86,23.86,2.68,35.26-2.57a4.71,4.71,0,0,0,3.1-4.71l1.75-1.83c4.35-.15,5.32-4.06,7.23-6.74,5.24-7.35,10.57-9.26,17.72-5.2,5.29,3,10.06,6.91,15.16,10.28,5.42,3.58,9.38,9.38,16.24,10.79,1.55.91,3,1.86,3.21,3.9-7.09.94-10.42-5-15.07-8.4-6.83-5-13-10.79-20.83-14.39-6-2.78-10.78-1.85-14.15,3.74-6.07,10.09-14.68,16.29-26,19.3-14.2,3.77-30.65-1.69-38.71-13.55-4.49-6.6-4.23-14-1.12-20.89,2-4.48.84-5.72-3.47-5.73a5.43,5.43,0,0,1-5.7-4.59c-.67-3.25-2.42-4.34-5.55-4.44-8.84-.3-11-2.77-10.59-11.7.22-5.22,2.83-9.25,6.73-12.28,3.56-2.77,7.1-1.8,10.17,1.39,1.45,1.5,3.11,3.9,5.37,2,1.92-1.62-.1-3.65-.8-5.42-.31-.77-.79-1.48-1-2.27-1.6-4.87-.43-10,2.64-11.67,4-2.22,8-1.23,11.24,4.12a157.24,157.24,0,0,0,12.08,17.46c3.92,4.89,2.81,11.5-5,15.6a50.91,50.91,0,0,0-8.52,6,3.6,3.6,0,0,0-1.6,3.46c.39,1.79,2.07,1.29,3.32,1.35,13.87.76,18.41-3.54,18.41-17.4q0-23,0-46c0-3.27-1.1-6.57.21-9.79.75-1.85,1.37-3.9,4-3.71l-.24,4.9c-3,.66-2,3.12-2,4.88-.07,18,0,36-.07,54,0,9.72-5.46,15-15,15.2C682.2,375.9,679.75,374.74,679,377.72Zm5-19c3-.68,4.94-2.37,5-5.56s-1.89-5.16-4.83-6.13c-2.13-.71-4.39-1.69-4.73-4-.68-4.62-4-8-5.21-12.26-.86-3-2.89-3.07-5-2.68-2.82.52-2.18,2.94-1.84,4.84.62,3.52,2.7,6.41,4.66,9.27,2.64,3.86,2.95,6.81-2,9-1.88.84-4.42,2.58-2.06,4.88,3.18,3.1,1.42,5.23-.52,7.62a29.63,29.63,0,0,0-2.25,2.65c-1,1.55-3.46,3.14-1.53,5,1.58,1.56,3.33-.35,4.75-1.4,1.86-1.38,3.65-2.84,5.47-4.27C678.14,364.7,681.9,362.92,684,358.71Zm-23.76-6.17c.2-3.23-1.14-6-3.14-8.54-1-1.25-2.34-1.76-3.29-.35-2.73,4.06-6.17,7.87-6,13.23a5.92,5.92,0,0,0,4,5.71c2.38.89,4.07-.69,5.58-2.3A10,10,0,0,0,660.2,352.54Z" transform="translate(0.17 -1)"/><path class="cls-11" d="M679,377.72c.76-3,3.2-1.82,5-1.85,9.56-.18,15-5.48,15-15.2.08-18,0-36,.07-54,0-1.76-1.08-4.23,2-4.88.06,17.47.17,34.94.12,52.4,0,3.31.67,6.56.13,9.93-1.71,10.73-7,15-17.77,13.88C682,377.87,680.49,377.82,679,377.72Z" transform="translate(0.17 -1)"/><path class="cls-11" d="M782,410.82c-6.86-1.41-10.81-7.21-16.24-10.79-5.1-3.37-9.87-7.27-15.16-10.28-7.15-4.07-12.48-2.16-17.72,5.2-1.91,2.69-2.88,6.59-7.23,6.74,2.36-3.59,4.64-7.25,7.11-10.76,4.68-6.65,9.39-8,16.71-4.35C761.74,392.68,772.09,401.47,782,410.82Z" transform="translate(0.17 -1)"/><path class="cls-11" d="M723.89,403.52a4.71,4.71,0,0,1-3.1,4.71c-11.4,5.25-23.06,8.43-35.26,2.57-8.22-4-15-9.39-16-19.21-.43-4.38-.79-9.36,4.63-11.71-6.65,16.07,4.3,31.44,23,31.91C706.9,412,715.78,408.84,723.89,403.52Z" transform="translate(0.17 -1)"/><path class="cls-11" d="M675.06,379c.15-1.34.29-2.71,2-1Z" transform="translate(0.17 -1)"/><path class="cls-5" d="M798.81,461.25a387.38,387.38,0,0,1,6.44,42.34c2.12,20.76.19,41.18-4.25,61.44a327.87,327.87,0,0,1-42.15,103.44,169.74,169.74,0,0,1-13.7,18.37.75.75,0,0,0-.35.85l-.15-.15c-5.91,3.73-7.14,3.29-8-3.79-1.27-10.5.73-20.89,1.86-31.28,2.43-22.3,7.19-44.34,7.59-66.87.21-12.17-1.47-14.12-13.52-16.82a100,100,0,0,0-26.26-2.56c-6.42.29-11.22-2.13-15.76-6.05-12.34-10.68-18.34-24.65-20.9-40.35-3.36-20.59-2.19-40.8,6.12-60.19,9.62-22.45,31.51-34.56,55.7-31.42,11.86,1.54,23.86,1.75,35.74,3.52,15.41,2.3,25.69,10.13,29.88,25.41A34.29,34.29,0,0,0,798.81,461.25Z" transform="translate(0.17 -1)"/><path class="cls-8" d="M744.8,687.69a.75.75,0,0,1,.35-.85,4.78,4.78,0,0,1,.1.75A2,2,0,0,1,744.8,687.69Z" transform="translate(0.17 -1)"/><path class="cls-13" d="M673.88,365.77c-1.82,1.43-3.61,2.9-5.47,4.27-1.42,1.05-3.17,3-4.75,1.4-1.93-1.9.55-3.49,1.53-5a29.63,29.63,0,0,1,2.25-2.65c1.94-2.4,3.7-4.53.52-7.62-2.37-2.3.18-4,2.06-4.88,4.94-2.21,4.63-5.17,2-9-2-2.85-4-5.74-4.66-9.27-.33-1.9-1-4.32,1.84-4.84,2.09-.39,4.12-.27,5,2.68,1.24,4.25,4.53,7.64,5.21,12.26.34,2.27,2.6,3.26,4.73,4,2.93,1,4.86,2.9,4.83,6.13s-2,4.88-5,5.56C679.56,359.58,676.75,362.72,673.88,365.77Z" transform="translate(0.17 -1)"/><path class="cls-14" d="M660.2,352.54a10,10,0,0,1-2.86,7.76c-1.51,1.61-3.2,3.19-5.58,2.3a5.92,5.92,0,0,1-4-5.71c-.13-5.37,3.31-9.17,6-13.23.95-1.41,2.3-.9,3.29.35C659.06,346.54,660.4,349.31,660.2,352.54Z" transform="translate(0.17 -1)"/><path class="cls-6" d="M673.88,365.77c2.87-3.05,5.68-6.18,10.08-7.05C681.9,362.92,678.14,364.7,673.88,365.77Z" transform="translate(0.17 -1)"/></svg>