<?xml version="1.0" encoding="utf-8"?>
<!-- Generator: Adobe Illustrator 21.0.0, SVG Export Plug-In . SVG Version: 6.00 Build 0)  -->
<svg version="1.1" id="Layer_1" xmlns="http://www.w3.org/2000/svg" xmlns:xlink="http://www.w3.org/1999/xlink" x="0px" y="0px"
	 viewBox="0 0 1024 1024" enable-background="new 0 0 1024 1024" xml:space="preserve">
<path fill="none" d="M427.4,444.3c0,30,15.7,56.4,39.3,71.4L546,366.9c-10.6-4.6-21.9-7.3-34.1-7.3
	C465.2,359.5,427.4,397.4,427.4,444.3z"/>
<g>
	<path fill="#8FBF3F" d="M552.3,819l159-212.3c41.1-58.2,67.8-127.5,67.8-181.8c0-102.8-55.3-192.8-137.4-242L1006,376.8
		C946.7,159.7,748,0,512,0C229.2,0,0,229.2,0,512s229.2,512,512,512c64.7,0,126.6-12,183.6-33.9L502.2,886.6L552.3,819z"/>
	<path fill="#698C2E" d="M1024,512c0-46.8-6.3-92.1-18-135.2L641.7,182.9c82.1,49.2,137.4,139.2,137.4,242
		c0,54.3-26.7,123.6-67.8,181.8L552.3,819L513,908.3l182.6,81.8C887.7,916.3,1024,730.1,1024,512z"/>
</g>
<path fill="#FFFFFF" d="M649.6,187c-41.4-25.9-90-40.6-141.9-40.6c-153,0-277,129.4-277,289c0,55.7,24.2,125.9,66.7,186.5l68.6,92.4
	l92.6,124.5l54,70.2l49.3-69.4l156.4-217.8c40.4-59.7,66.7-130.8,66.7-186.5C784.7,329.6,730.5,237.6,649.6,187z M507.2,538.6
	c-16.4,0-31.6-4.9-44.4-13.5c-23.2-15.4-38.6-42.3-38.6-73.3c0-47.9,37.1-86.6,83-86.6c12,0,23.4,2.5,33.6,7.4
	c29.2,13.4,49.6,43.8,49.6,79.5C590.4,499.8,553.2,538.6,507.2,538.6z"/>
<circle fill="#698C2E" cx="512.4" cy="443.8" r="98.1"/>
</svg>
