<?xml version="1.0" encoding="utf-8"?>
<!-- Generator: Adobe Illustrator 19.2.1, SVG Export Plug-In . SVG Version: 6.00 Build 0)  -->
<svg version="1.1" id="Layer_1" xmlns="http://www.w3.org/2000/svg" xmlns:xlink="http://www.w3.org/1999/xlink" x="0px" y="0px"
	 viewBox="0 0 1024 1024" enable-background="new 0 0 1024 1024" xml:space="preserve">
<circle id="XMLID_1_" fill="#F0F2F4" cx="512" cy="512" r="512"/>
<g>
	<path fill="#FEB03D" d="M510.7,837.3c0,0-180.7-233.2-195.3-390.3C301.1,294,392,206,506.8,201.5l0-0.2c1.5,0,3.1,0,4.6,0.1
		c1.5,0,3.1-0.1,4.6-0.1l0,0.2C630.8,206,721.6,294,707.4,447C692.8,604.1,512,837.3,512,837.3H510.7z"/>
	<polygon fill="#FFFFFF" points="511.4,264.3 558.8,362 664.9,377.6 588.2,453.7 606.3,561 511.4,510.3 416.5,561 434.6,453.7 
		357.8,377.6 463.9,362 	"/>
</g>
</svg>
