<?xml version="1.0" encoding="utf-8"?>
<!-- Generator: Adobe Illustrator 19.2.1, SVG Export Plug-In . SVG Version: 6.00 Build 0)  -->
<svg version="1.1" xmlns="http://www.w3.org/2000/svg" xmlns:xlink="http://www.w3.org/1999/xlink" x="0px" y="0px"
	 viewBox="0 0 1024 1024" enable-background="new 0 0 1024 1024" xml:space="preserve">
<g id="Layer_1">
	<circle id="XMLID_1_" fill="#C12126" cx="512" cy="512.5" r="512"/>
</g>
<g id="Layer_2">
	<g id="XMLID_11_">
		<path id="XMLID_15_" fill="#FFFFFF" d="M385.6,778.7c14.3-16,27.5-30.7,40.6-45.5c77.3-87,154.8-173.8,231.6-261.3
			c10.8-12.3,21.8-17.1,38-16.5c32.1,1.2,64.2,0.4,101.6,0.4c-24.8,27-46.1,50.5-67.8,73.7c-57,60.9-114.3,121.5-171.2,182.5
			c-7.6,8.1-15.8,13.9-26.1,18c-43.4,17.2-86.6,34.9-129.9,52.2C398.2,783.8,393.3,783.9,385.6,778.7z"/>
		<path id="XMLID_14_" fill="#FFFFFF" d="M717.6,368c-13.3,10.5-24.2,14-38,11.9c-21.9-3.2-44.3-3.2-66.2-6.6
			c-15.2-2.4-24.5,2-34,14.1C512.4,472.6,444.5,556.8,377.8,642c-13.1,16.8-26.7,28.9-48.9,30c-11.9,0.6-23.7,4-35.4,6.1
			c-2.8-7,2.6-9.5,5.1-12.6C383,560,467.8,454.8,552.1,349.2c7.6-9.6,14.7-13.9,26.9-11.2C624.1,348.1,669.4,357.7,717.6,368z"/>
		<path id="XMLID_13_" fill="#FFFFFF" d="M225.6,574.6c34.9-48.7,68.9-96.1,102.9-143.6c43.1-60.1,86.3-120.2,129.1-180.5
			c6.1-8.7,11.7-13.1,22.9-9.6c49.4,15.4,99,30.2,148.4,45.4c1.7,0.5,3,2.2,4.7,3.5c-10.5,12.2-21.4,15.1-37.2,9.3
			c-29-10.6-59.3-17.4-88.4-27.7c-14-4.9-21.2-2.2-29.5,9.8c-57.2,83.1-115.1,165.6-172.8,248.4
			C278.3,568.6,278.3,568.6,225.6,574.6z"/>
	</g>
</g>
</svg>
