<svg xmlns="http://www.w3.org/2000/svg" xmlns:xlink="http://www.w3.org/1999/xlink" width="1024" height="1024" viewBox="0 0 1024 1024"><defs><clipPath id="b"><rect width="1024" height="1024"/></clipPath></defs><g id="a" clip-path="url(#b)"><circle cx="512" cy="512" r="512" fill="#d9e0e7"/><path d="M347.5,796.2c-1.7-2.3-4.1-3.5-6.5-4.8-18.8-10-27.5-25.9-27.5-46.9V493.1c0-13.5-.1-27,0-40.5.2-30,21.6-51.2,51.8-51.2,43.3,0,86.6-.1,130,.1,5.8,0,7.9-1.4,7.5-7.5-.5-9.4.3-19-.3-28.4-.3-6,2-7.6,7.3-7a20.907,20.907,0,0,0,5,0c3.8-.4,4.9,1.3,4.8,5-.2,9.7.5,19.5-.3,29.1-.6,7.7,2.3,8.8,9.2,8.8,42.6-.3,85.2-.1,127.8-.1,31.2,0,52.2,20.9,52.2,52V743.9c0,23.6-10.1,40.2-32,49.6-1.3.6-3.3.8-3.7,2.8H661.4c-2.1-2.3-4.9-1.4-7.4-1.4H364.6c-2.5,0-5.3-1-7.3,1.4ZM647.3,772c28.5-10,36.7-21.9,36.7-52.8V496.9c0-7.7,0-7.7-7.2-4.4a197.238,197.238,0,0,0-41.9,25.1C553.8,583,522.4,670.8,520.8,772c.7,3.9,3.9,2.8,6.2,2.8,39.3.1,78.5.1,117.8,0a8.768,8.768,0,0,0,2.8,0C650.5,773.6,647,773,647.3,772Zm-272.8-.1c-2.7,2.8-1,3,1.7,3H501.8c2.1,0,4.4.2,4.9-2.8a23.253,23.253,0,0,0,.5-2.8c-1.5-59.1-15.7-114.7-45.6-165.9-27.9-47.9-66.4-84.8-116.5-108.9-6.7-3.2-6.6-3.6-6.6,4V727.3a43.6,43.6,0,0,0,2.5,16c5.7,15.9,17.8,24.3,33.5,28.6Zm-38.6-278-.7-.3V733.1h.7Z" fill="#fcfcfc"/><path d="M371.6,227.7c2,2.2,4.7,2.4,7.5,3,46.7,9.9,83.6,32.9,104.6,77.5,5.7,12.1,8.6,25,10.2,38.2.2,2.1,1.3,4.9-.3,6.1-2.2,1.7-4.3-.8-6.3-1.9q-84-47.4-167.9-94.9c-6.5-3.7-13-7.4-20.5-11.6,11.9-6.9,23.5-10.4,35.5-13.2,2.7-.7,5.5-1,7.5-3.2Z" fill="#fcfcfc"/><path d="M357.4,796.2c2.1-2.4,4.9-1.4,7.3-1.4q144.75-.15,289.4,0c2.5,0,5.3-1,7.4,1.4Z" fill="#fcfcfc"/><path d="M296.6,249.8c20.8,11.7,40.8,23,60.7,34.2q63.6,36,127.2,72.1c1.8,1,4.8,1.4,4.8,3.7.1,2.8-3.2,3-5.2,3.9-51.4,22.6-97.9,12.6-140.6-21.4-25.6-20.4-42.2-46.4-46.5-79.4C296.5,258.9,295.8,254.9,296.6,249.8Z" fill="#fcfcfc"/><path d="M727.1,251.3c-1.7,16.7-4.6,32.3-11.6,46.5-18.9,38.2-50.1,62.4-90.4,74.6-30.2,9.2-60,5.9-88.5-7.6-1.6-.7-4.1-1-4-3.2,0-1.8,2.2-2.3,3.6-3.1Q629.5,305.7,722.8,253A29.443,29.443,0,0,1,727.1,251.3Z" fill="#fcfcfc"/><path d="M658.6,230.1h13l7,.5a2.3,2.3,0,0,0,3,.5,164.778,164.778,0,0,1,35.7,11.3c1.6.7,4.3.9,4.3,3.1s-2.5,2.6-4.1,3.5L620,304.2q-43.05,24.3-85.9,48.5c-1.6.9-3.3,2.9-5,1.9-2.2-1.2-1-3.8-.8-5.8,6-52.1,35.3-86.2,82.2-106.9,12.2-5.4,25.1-8.4,38.1-10.9a3.968,3.968,0,0,0,4.4-.7Z" fill="#fcfcfc"/><path d="M374.5,771.9c-15.7-4.3-27.8-12.7-33.7-28.6a45.806,45.806,0,0,1-2.5-16V498.5c0-7.6-.1-7.2,6.6-4,50.2,24.2,88.6,61,116.6,108.9,29.9,51.2,44.1,106.9,45.6,165.9a13.733,13.733,0,0,1-.5,2.8Zm58-95a22.95,22.95,0,1,0,.1,0Z" fill="#d9e0e7"/><path d="M520.8,772c1.5-101.2,33-189,114.1-254.5a191.6,191.6,0,0,1,41.9-25.1c7.2-3.3,7.2-3.3,7.2,4.4V719.1c0,30.9-8.3,42.8-36.7,52.8Zm69.1-95.2a22.95,22.95,0,1,0,.1,0c0,.1,0,.1-.1,0Z" fill="#d9e0e7"/><path d="M374.5,771.9l132.1.2c-.5,3-2.7,2.8-4.9,2.8H376.1C373.5,774.9,371.8,774.8,374.5,771.9Z" fill="#fcfcfc"/><path d="M520.8,772H647.3c-.3,1,3.2,1.6.4,2.8a6.608,6.608,0,0,1-2.8,0H527.1C524.7,774.8,521.5,776,520.8,772Z" fill="#fcfcfc"/><path d="M335.9,493.9V733.1h-.7V493.7Z" fill="#fcfcfc"/><path d="M432.5,676.9a23.318,23.318,0,1,1-.2,0Z" fill="#fcfcfc"/><path d="M589.9,676.9a23.264,23.264,0,1,1-.3,0Z" fill="#fcfcfc"/></g></svg>