<svg xmlns="http://www.w3.org/2000/svg" xmlns:xlink="http://www.w3.org/1999/xlink" width="1024" height="1024" viewBox="0 0 1024 1024"><defs><clipPath id="b"><rect width="1024" height="1024"/></clipPath></defs><g id="a" clip-path="url(#b)"><circle cx="512" cy="512" r="512" fill="#d9e0e7"/><path d="M831.2,606.7c-18.4,13.8-38.3,14.6-59.2,6.9a50.673,50.673,0,0,1-15.8-12.9,70.89,70.89,0,0,1-6.5-12.9l-2.2-9.9-.2-15.3,1.8-9.9c6.1-16.9,20.1-23.1,36-26.7,16.7-3.7,33.6-4.4,50.6-4.4,3.8,0,6.3-.5,6.2-4.8,9.3,2.1,18.7-1.3,27.9.8-.7,9.6-1.1,19.3-2.2,28.8a76.04,76.04,0,0,0,2.1,30c3.2,11.1,5.4,22.4,8.4,33.6.8,3.1,0,3.6-2.8,3.8-7.5.6-14.9,1.4-22.3,2.4-2.3.3-3.3-.3-3.6-2.5l-3-13.8c-.6-2.2.1-5.5-2.1-6.4-1.6-.6-2.7,2.5-3.9,4.1Zm-28.9-12.9c7.5.3,14.5-1.4,20.7-6,4.4-2.5,7.2-6.4,9.7-10.5,5.7-9.8,7.5-20.7,8.5-31.7.2-1.7-.4-2.2-2.1-2.1-5.7.3-11.4.4-17.1.8a365.6,365.6,0,0,0-38.9,4.8c-1.4.3-3,.4-3.7,2.2-1.3,3.4-2.9,6.8-3,10.5-1.2,8.9-.3,17.3,6,24.5C787.6,592.5,794.7,593.9,802.3,593.8Z" fill="#fff"/><path d="M687,548.8c3.4-9.7,5.8-19.7,8.5-29.5a8.653,8.653,0,0,1,.7-1.7c5.6,0,11.2-.5,16.8.2,4.2.5,8.5-1,12.6.8-2.3,10.3-6,20.2-8.7,30.4a49.729,49.729,0,0,0-3.2,9.9c-5.3,14.3-10.7,28.7-16,43-1.4,3.7-3,7.2-4.5,10.9-.6,1.4-1.2,2.3-3,2.3-7.6-.1-15.2,0-22.8,0a2.828,2.828,0,0,1-2.9-1.4L656.4,594l-11.2-30.6c0-.6,0-1.2-.6-1.5a24.605,24.605,0,0,0-.7-2.9l-7.5-23.7,25-.2,5.2,14.6a68.086,68.086,0,0,0,3.8,10.7,153.924,153.924,0,0,0,7.2,18.5L683,562A105.238,105.238,0,0,0,687,548.8Z" fill="#fff"/><path d="M536.1,552.7l-4.5-16.8a19.55,19.55,0,0,1,5.9-.8H562c3.3,10.3,6.5,20.6,9.8,30.9.4,1.2,1,2.3,1.4,3.5a25.074,25.074,0,0,0,3.4,8.7l2.7-7.2c4.1-10,7.5-20.3,10.8-30.7a26.045,26.045,0,0,1,2.1-5.5c1.1,1.6,2.7,1,4.1,1,5.6,0,11.3.1,16.9.2a2.1,2.1,0,0,1,1.7,1.3L611,549.6c-1.8,2.5-1.8,5.7-2.9,8.4l-7.9,22.1-3.5,9c-3.2,7.6-6.5,15.1-9.5,22.7-.9,2.2-2,3.1-4.4,3.1-7.1-.2-14.2-.1-21.3,0-1.3,0-2.5,0-3.4-1.2l-8.7-22.1-8.2-22.9Z" fill="#fff"/><path d="M869.8,517.6c-9.3-2.2-18.7,1.3-27.9-.8.1-4.1.2-8.1.2-12.2,0-18.8-11.1-30.1-30-30.5a96.107,96.107,0,0,0-42.9,8.9c-2.9,1.4-3.5.9-3.8-2.1-.8-6.9-1.7-13.9-2.9-20.8-.5-2.8.6-3.8,2.9-4.7a133.34,133.34,0,0,1,45-8.8c9.1-.3,18.1.3,26.7,3.2,19.9,6.7,30.5,21,33.1,41.5C871.2,500.1,870.5,508.8,869.8,517.6Z" fill="#fff"/><path d="M615,537.3a1.937,1.937,0,0,0-1.7-1.3c-5.6-.1-11.3-.2-16.9-.2-1.5,0-3.1.6-4.1-1,4.2-14.6,8.5-29.2,12.6-43.8,3.5-12.4,6.6-25,9-37.7.4-2.2,1.3-3.1,3.7-3.1,6.5.2,12.9.1,19.4,0,1.5,0,2.5,0,2.9,2,5.1,27.8,13,54.9,21.3,81.9a1.95,1.95,0,0,1,.1.8l-25,.2c-3.3-9.4-5.8-19.1-8.5-28.7-.3-1.1.1-3-1.7-2.9s-1.4,1.8-1.7,3C621.6,516.9,618.9,527.3,615,537.3Z" fill="#fff"/><path d="M562.1,535.1H537.6a16.846,16.846,0,0,0-5.9.8,510.946,510.946,0,0,1-12.3-51.7c-1.8-9.7-3.2-19.5-4.3-29.3-.2-2-.4-3.4,2.3-3.5,8.2-.4,16.5-1,24.7-1.7,2-.1,2.9.3,3.2,2.5,3.2,27.1,9.2,53.7,16.3,80C561.7,533.1,561.9,534.1,562.1,535.1Z" fill="#fff"/><path d="M725.6,518.5c-4.1-1.8-8.4-.3-12.6-.8-5.5-.6-11.2-.2-16.8-.2,2.6-11.6,5.3-23.2,7.9-34.9a283.825,283.825,0,0,0,5.2-30.4c.3-2.4,1.1-3,3.4-2.8,8,.7,15.9,1.3,23.9,1.7,3.3.2,2.5,2.3,2.3,4a369.414,369.414,0,0,1-7.9,43C729.3,505,727.4,511.7,725.6,518.5Z" fill="#fff"/><path d="M369.8,469.3h-6.9c-.7-2.2-2.5-1.3-3.9-1.3-12.4-.1-24.9,0-37.3,0-.5-2.7-.9-5.5-1.5-8.2-.5-2.3.5-3.4,2.5-4.2a109.724,109.724,0,0,1,29.6-7.8c13.3-1.6,26.5-2.3,39.5,1.9,9.9,3.2,18.2,8.7,24,17.5-7.2,2.1-14.5,0-21.8.7-6.9.6-14,.1-20.9.2C372,468,370.4,467.3,369.8,469.3Z" fill="#fff"/><path d="M465.2,443.5c-.1-20.6-.1-41.1-.3-61.7,0-2.2.9-2.5,2.7-2.4,6.2.1,12.4.1,18.7,0,1.8,0,2.7.3,2.7,2.4q-.15,30.45-.3,61C480.9,444.3,473,442.9,465.2,443.5Z" fill="#fff"/><path d="M164.6,451.9a249.566,249.566,0,0,1-19.3-44.4c-.7-2.2,0-2.6,1.9-2.8,7.2-.6,14.4-1.3,21.6-2,1.4-.1,2.3-.1,2.9,1.5,5.8,16.2,13.6,31.6,21.1,47-1.6-.2-3.1.3-4.8.2C180.2,450.8,172.4,451.4,164.6,451.9Z" fill="#fff"/><path d="M389.5,605.9a54.485,54.485,0,0,1-21.8,10.8,66.685,66.685,0,0,1-39-3.1c-4.8-3.2-9.7-6.3-13.6-10.6-1.3-2.7-3.8-4.7-4.7-7.6,2.6,0,5.3-.2,7.9,0,5.3.3,10.5-.9,15.9-.1,2.1.3,4.6.8,5.8-2a33.562,33.562,0,0,0,23.8,3.8l6-.9c-.2,2.3,1.4,2.2,3,2.2h18.5c1.3,0,2.8-.5,3.8.9C394,602.3,391.1,603.5,389.5,605.9Z" fill="#fff"/><path d="M309.4,548a29.294,29.294,0,0,1,14.4-13.8,5.157,5.157,0,0,0,4.4,1.7c3.9-.3,8-.9,11.7-.4,8.7,1.1,17.3-.1,26,.2,18.9.6,37.8.2,56.7.2l-.8,13.7-.9,6.1H398.8c.3-3.5.3-7.1,1.1-10.5.9-3.7-.8-4-3.6-3.8-9.3.8-18.6.8-27.9,2.2-6.7.6-13.4,1.1-19.9,2.7a69.311,69.311,0,0,0-15,2.6c-1.6,0-3.3,0-5-.1C322.1,548.5,315.7,549.7,309.4,548Z" fill="#fff"/><path d="M223.3,501.5c3.4,3.9,3.4,3.9,6.8-.1a27.318,27.318,0,0,0,9.4,1.6c6.2.3,12.4-.7,18.6,0a241.064,241.064,0,0,1-18.7,26.3c-.6-1-1.6-1.1-2.7-1.1H215.8c-1,0-2.1,0-2.7,1a250.2,250.2,0,0,1-18.4-26.1c1.9-.2,3.8-.9,5.6-.6,6.6,1.1,13.3.2,20,.5C221.6,503.1,223,503.4,223.3,501.5Z" fill="#fff"/><path d="M264.5,443.5c3.7-8.2,7.4-16.3,11-24.5,1.9-4.3,3.5-8.6,5.1-13,.6-1.7,1.4-2.7,3.5-2.6q10.65.15,21.3,0c2.2,0,2.6.6,2,2.6-4.6,13.3-9.2,26.7-16,39.1a7.419,7.419,0,0,0-2.5-.5c-6.9,1.1-13.8.2-20.7.5C266.6,445.1,265.2,445.1,264.5,443.5Z" fill="#fff"/><path d="M395,599.4c-1-1.4-2.5-.9-3.8-.9H372.7c-1.6,0-3.1.1-3-2.2,3.5-1.5,7.2-2.6,9.9-5.4A29.3,29.3,0,0,0,393,572.8l1-.3c1.5.9,3.1.6,4.8.8,3,.3,5.9-1.4,9-.7a32.615,32.615,0,0,0,14.9-.2l1.9,5.4c.7,5.5,2.3,10.7,3.8,16-.2,2.1.6,4.1,1,6.1a8.746,8.746,0,0,1-4.8.8H405.7l-1.8-8.1c-.5-2-1.7-2.2-2.8-.6-1.7,2.3-3.8,4.3-4.8,7.1Z" fill="#fff"/><path d="M422.5,535.9c-18.9,0-37.8.4-56.7-.2-8.7-.3-17.3.9-26-.2-3.7-.5-7.8.2-11.7.4a4.991,4.991,0,0,1-4.4-1.7c8-4.8,17-6.6,26-8.3a65.321,65.321,0,0,1,14.6-1.6c.6,1,1.1.8,1.5-.2a4.77,4.77,0,0,1,3.1-.3c.9,2.1,3.1,2.1,4.5,1.9,9.6-1.7,19.2.5,28.9-.3,6.9-.6,14,.3,21,.6C423.3,529.3,423.4,532.6,422.5,535.9Z" fill="#fff"/><path d="M264.5,443.5c.7,1.6,2.1,1.6,3.5,1.5,6.9-.3,13.8.6,20.7-.5a6.963,6.963,0,0,1,2.5.5,206.166,206.166,0,0,1-14.5,27.5c-1.6-.3-3.1-1-4.8-.8-7.6.8-15.2.2-22.8,0Z" fill="#fff"/><path d="M309.4,548c6.3,1.6,12.6.4,19,.8,1.6.1,3.3.1,5,.1-1.7,3.9-3.7,7.7-3.9,12.1-.9,4-1.4,8.1-.1,12.2l.2,4.3c-.7,1.2-1.9,1-3,1l-21.2-.1-.3.1c-.1-5.6-.1-11.2-.2-16.7l1.8-8.3C307.7,551.8,307.9,549.6,309.4,548Z" fill="#fff"/><path d="M488.8,573.2l.3,2.2c0,4.4-.1,8.7-.1,13.1-.1,4.8-.2,9.6-.2,14.5H465.2c-.1-1-.1-2.1-.2-3.1,0-7.3,0-14.7-.1-22l.3-4.6C473,573.6,480.9,572.3,488.8,573.2Z" fill="#fff"/><path d="M401.4,511.4a74.1,74.1,0,0,0-.4-16.3c-.6-3.9-2.3-7.5-3.7-11.1,4.1.9,8.2.6,12.3.8,4.6.3,9.2-1.4,13.7-.1,2.6,8.8,1.7,17.8,1.2,26.7A222.491,222.491,0,0,0,401.4,511.4Z" fill="#fff"/><path d="M465.2,509.9V483.2h23.6v26.7Z" fill="#fff"/><path d="M465.2,443.5c7.8-.6,15.8.8,23.6-.8v25.9H465.2Z" fill="#fff"/><path d="M164.6,451.9c7.8-.5,15.6-1.1,23.5-.5,1.7.1,3.2-.4,4.8-.2l10,18.1c-1.1,3.1-3.6,1.8-5.4,1.5a15.249,15.249,0,0,0-6-.4c-5.4,1.1-10.9.5-16.3.8A134.361,134.361,0,0,1,164.6,451.9Z" fill="#fff"/><path d="M423.3,484.7c-4.6-1.3-9.1.4-13.7.1-4.1-.3-8.3.1-12.3-.8-6.4-10-16.2-13.8-27.5-14.7.6-2,2.3-1.3,3.5-1.3,7-.1,14,.5,20.9-.2,7.3-.7,14.6,1.4,21.8-.7C420,472.3,422.1,478.3,423.3,484.7Z" fill="#fff"/><path d="M175.1,471.1c5.4-.3,10.9.3,16.3-.8a17.387,17.387,0,0,1,6,.4c1.8.3,4.4,1.6,5.4-1.5l10.6,17.6c-.3,2.1-1.9,1.7-3.3,1.7H190.3c-1.4,0-3.1-.5-4,1.4A169.419,169.419,0,0,1,175.1,471.1Z" fill="#fff"/><path d="M213.3,613.7V599.1l.2-3.8c1.2.3,2.5.9,3.6.7,7.4-1.4,14.8-.3,22.2-.7,0,5.4,0,10.9.1,16.3,0,1.5,0,2.8-2.1,2.8-7.7-.1-15.4-.1-23.1-.2C213.9,614.3,213.6,614,213.3,613.7Z" fill="#fff"/><path d="M239.6,548.8a63.714,63.714,0,0,0,0,10.7l-.3,1.5a13.383,13.383,0,0,1-5.6.8c-6.7-1.2-13.5.5-20.2,0V542.7c6.4,1,12.7.5,19.1,0,2.2-.2,4.4,1,6.7,0Z" fill="#fff"/><path d="M249.1,471.7c7.6.2,15.2.8,22.8,0,1.7-.2,3.2.5,4.8.8a124,124,0,0,1-10,16.8c-1.1-1.3-2.6-.8-3.9-.8H243.1c-1.3,0-2.8.5-3.9-.8Z" fill="#fff"/><path d="M239.3,595.4c-7.4.4-14.8-.7-22.2.7-1.1.2-2.4-.4-3.6-.7V577.1h25.8Z" fill="#fff"/><path d="M186.4,490c.9-1.9,2.6-1.4,4-1.4h19.8c1.3,0,2.9.4,3.3-1.7l9.9,14.6c-.3,1.9-1.7,1.6-2.9,1.5-6.6-.3-13.3.6-20-.5-1.8-.3-3.7.4-5.6.6A86.354,86.354,0,0,1,186.4,490Z" fill="#fff"/><path d="M239.3,487.7c1.1,1.3,2.6.8,3.9.8h19.7c1.3,0,2.8-.5,3.9.8a108.424,108.424,0,0,1-8.6,13.7c-6.2-.7-12.4.3-18.6,0a27.318,27.318,0,0,1-9.4-1.6Z" fill="#fff"/><path d="M239.3,577H213.5V561.7c6.7.5,13.5-1.2,20.2,0a11.954,11.954,0,0,0,5.6-.8Z" fill="#fff"/><path d="M401.4,511.4a224.42,224.42,0,0,1,23.2,0,88.955,88.955,0,0,1-1.2,14.6c-7-.3-14-1.2-21-.6-9.6.8-19.3-1.3-28.9.3-1.4.2-3.6.2-4.5-1.9,9.2-.3,18.5-.8,27.7-1,2.3-.1,3.5-.2,3.8-3.2A58.723,58.723,0,0,1,401.4,511.4Z" fill="#fff"/><path d="M465.1,573.2c-.1-3.1-.2-6.1-.3-9.2.1-2.5.2-5.1.3-7.6h23.6v16.8C480.9,572.3,473,573.6,465.1,573.2Z" fill="#fff"/><path d="M239.3,542.7c-2.2,1-4.4-.2-6.7,0-6.4.5-12.7,1-19.1,0l-.3-13.5c.6-1,1.7-1,2.7-1h20.9c1,0,2,0,2.7,1.1C239.4,533.8,239.3,538.2,239.3,542.7Z" fill="#fff"/><path d="M488.7,556.5H465.1v-16h23.6Z" fill="#fff"/><path d="M488.7,540.4H465.1V525.1h23.6Z" fill="#fff"/><path d="M488.7,525.2H465.1V509.9h23.5C488.7,515,488.7,520.1,488.7,525.2Z" fill="#fff"/><path d="M405.8,600.7h18.9a8.9,8.9,0,0,0,4.8-.8c1.7,3.7,2,7.8,3.2,11.7.6,1.9-.5,2.3-1.8,2.5-6.8.8-13.5,1.6-20.3,2.4-2.1.3-1.5-2-2.5-2.8a44.555,44.555,0,0,0-2.4-11.4Z" fill="#fff"/><path d="M465.2,468.7h23.6v14.5H465.2Z" fill="#fff"/><path d="M464.9,613.8l.3-10.8h23.6c0,3.1,0,6.3.1,9.4,0,1.3,0,2.6-1.9,2.6H466.6A1.743,1.743,0,0,1,464.9,613.8Z" fill="#fff"/><path d="M321.7,468H359c1.3,0,3.2-.9,3.9,1.3-13,.9-25.6,3.6-37.4,9.3-2.2,1-2.7.3-2.9-1.6C322.4,474,322,471,321.7,468Z" fill="#fff"/><path d="M365.9,524.2c-.4,1-.9,1.2-1.5.2A1.212,1.212,0,0,1,365.9,524.2Z" fill="#fff"/><path d="M330.3,578.5a16.765,16.765,0,0,0,3.4,7.7,12.241,12.241,0,0,0,6.4,7c-1.2,2.8-3.7,2.3-5.8,2-5.3-.8-10.6.4-15.9.1-2.6-.1-5.3,0-7.9,0l-3.8-8.5-1.3-8.4,21.2.1c1.1,0,2.3.2,3-1Z" fill="#fff"/><path d="M394.1,572.5c.9-3.8,2.6-7.5,3-11.5l1.5-5.3h22.1l.2,3.1c-.8,4.7,1.3,9.1,1.8,13.7a34.059,34.059,0,0,1-14.9.2c-3-.7-5.9,1-9,.7C397.3,573.1,395.6,573.4,394.1,572.5Z" fill="#fff"/></g></svg>