<svg id="Layer_1" data-name="Layer 1" xmlns="http://www.w3.org/2000/svg" viewBox="0 0 1024 1024"><defs><style>.cls-1{fill:#1667a5;}.cls-2{fill:#fcfcfd;}</style></defs><title>tupalo</title><circle id="_Path_" data-name="&lt;Path&gt;" class="cls-1" cx="512" cy="512" r="512"/><path class="cls-2" d="M347.46,796.19c-1.7-2.26-4.13-3.53-6.55-4.82-18.78-10-27.51-25.89-27.51-46.89q0-125.71,0-251.41c0-13.49-.08-27,0-40.48.22-30,21.6-51.17,51.78-51.19,43.32,0,86.65-.11,130,.12,5.84,0,7.86-1.43,7.54-7.45-.5-9.44.26-19-.28-28.39-.34-6,2-7.63,7.31-7a22.53,22.53,0,0,0,5,0c3.77-.38,4.92,1.32,4.85,5-.18,9.7.55,19.46-.25,29.1-.64,7.72,2.35,8.82,9.16,8.77,42.61-.29,85.22-.15,127.84-.15,31.22,0,52.24,20.9,52.24,52q0,145.24.05,290.47c0,23.6-10.11,40.22-32,49.56-1.33.57-3.3.79-3.72,2.79H661.54c-2.09-2.33-4.88-1.37-7.36-1.37q-144.72-.07-289.44,0c-2.47,0-5.26-1-7.34,1.37ZM647.31,772C675.76,762,684,750.08,684,719.18q0-35.16,0-70.31,0-76,0-152c0-7.71,0-7.67-7.2-4.43-14.95,6.75-29.14,14.86-41.89,25.14C553.79,583,522.37,670.85,520.84,772c.71,3.93,3.86,2.79,6.22,2.8q58.9.08,117.8,0a7.69,7.69,0,0,0,2.82-.05C650.5,773.6,647,773,647.31,772Zm-272.81-.06c-2.73,2.84-1,3,1.67,3q62.8-.06,125.6,0c2.15,0,4.41.22,4.88-2.76a14.55,14.55,0,0,0,.47-2.79c-1.48-59.08-15.72-114.72-45.59-165.94C433.61,555.51,395.17,518.7,345,494.54c-6.7-3.23-6.58-3.57-6.58,4q0,114.39,0,228.78a45.22,45.22,0,0,0,2.45,16C346.73,759.19,358.83,767.64,374.5,771.93Zm-38.62-278-.7-.28V733.18h.7Z" transform="translate(0 0)"/><path class="cls-2" d="M371.62,227.72c2,2.22,4.7,2.45,7.46,3,46.68,9.86,83.65,32.93,104.57,77.53,5.68,12.1,8.62,25,10.16,38.21.24,2.07,1.31,4.86-.32,6.11-2.22,1.7-4.34-.84-6.29-1.94q-84-47.41-167.9-94.91c-6.51-3.68-13-7.38-20.5-11.63,11.86-6.9,23.55-10.36,35.45-13.24,2.72-.66,5.49-1,7.53-3.16Z" transform="translate(0 0)"/><path class="cls-2" d="M357.4,796.19c2.08-2.38,4.87-1.37,7.34-1.37q144.72-.08,289.44,0c2.48,0,5.26-1,7.36,1.37Z" transform="translate(0 0)"/><path class="cls-2" d="M296.57,249.77c20.81,11.73,40.77,23,60.7,34.23q63.64,36,127.24,72.07c1.77,1,4.76,1.4,4.81,3.7.06,2.84-3.19,3-5.18,3.89-51.38,22.61-97.92,12.56-140.59-21.42-25.63-20.4-42.19-46.38-46.54-79.39C296.48,258.87,295.77,254.91,296.57,249.77Z" transform="translate(0 0)"/><path class="cls-2" d="M727.12,251.26c-1.65,16.7-4.57,32.28-11.58,46.46-18.9,38.22-50.11,62.36-90.36,74.62-30.22,9.2-59.95,5.89-88.5-7.58-1.57-.74-4.07-1-4-3.22,0-1.8,2.21-2.28,3.61-3.07q93.31-52.8,186.65-105.54A40.55,40.55,0,0,1,727.12,251.26Z" transform="translate(0 0)"/><path class="cls-2" d="M658.6,230.1l13,0,7,.53a2.35,2.35,0,0,0,3,.54,158.59,158.59,0,0,1,35.73,11.33c1.58.74,4.26.85,4.26,3.12s-2.54,2.58-4.11,3.47Q668.76,276.73,620,304.3,577,328.58,534.1,352.83c-1.58.89-3.28,2.93-5,1.93-2.17-1.23-1-3.84-.77-5.8,6-52.07,35.34-86.23,82.16-106.89,12.17-5.37,25.06-8.44,38.1-10.86a4,4,0,0,0,4.44-.68Z" transform="translate(0 0)"/><path class="cls-1" d="M374.5,771.93c-15.66-4.29-27.77-12.74-33.66-28.57a45.22,45.22,0,0,1-2.45-16q0-114.39,0-228.78c0-7.56-.13-7.22,6.58-4,50.2,24.16,88.64,61,116.57,108.85,29.87,51.21,44.11,106.86,45.59,165.94a14.55,14.55,0,0,1-.47,2.79Zm58.05-95a22.78,22.78,0,1,0,23,22.92A22.93,22.93,0,0,0,432.55,676.89Z" transform="translate(0 0)"/><path class="cls-1" d="M520.84,772c1.53-101.19,33-189,114.11-254.45,12.76-10.29,26.95-18.39,41.89-25.14,7.19-3.25,7.2-3.28,7.2,4.43q0,76,0,152,0,35.16,0,70.31c0,30.9-8.28,42.81-36.74,52.81Zm69.08-95.16a22.79,22.79,0,1,0,23,23A22.92,22.92,0,0,0,589.92,676.88Z" transform="translate(0 0)"/><path class="cls-2" d="M374.5,771.93l132.15.19c-.47,3-2.73,2.76-4.88,2.76q-62.8,0-125.6,0C373.47,774.91,371.77,774.77,374.5,771.93Z" transform="translate(0 0)"/><path class="cls-2" d="M520.84,772,647.31,772c-.29,1,3.2,1.61.37,2.83a7.69,7.69,0,0,1-2.82.05q-58.9,0-117.8,0C524.69,774.83,521.55,776,520.84,772Z" transform="translate(0 0)"/><path class="cls-2" d="M335.88,493.95V733.18h-.7V493.67Z" transform="translate(0 0)"/><path class="cls-2" d="M432.55,676.89a22.78,22.78,0,1,1-23.37,22.58A22.87,22.87,0,0,1,432.55,676.89Z" transform="translate(0 0)"/><path class="cls-2" d="M589.92,676.88a22.79,22.79,0,1,1-23.38,22.57A22.86,22.86,0,0,1,589.92,676.88Z" transform="translate(0 0)"/></svg>