<?xml version="1.0" encoding="utf-8"?>
<!-- Generator: Adobe Illustrator 19.2.1, SVG Export Plug-In . SVG Version: 6.00 Build 0)  -->
<svg version="1.1" id="Layer_1" xmlns="http://www.w3.org/2000/svg" xmlns:xlink="http://www.w3.org/1999/xlink" x="0px" y="0px"
	 viewBox="0 0 1024 1024" enable-background="new 0 0 1024 1024" xml:space="preserve">
<circle id="XMLID_1_" fill="#4B8B96" cx="512" cy="512" r="512"/>
<g id="XMLID_28_">
	<path id="XMLID_26_" fill="#F8FAFA" d="M794.3,314.3c0,34.6-0.1,65.8,0.1,97.1c0,8-5.3,12.5-10,17.5c-24.6,26.2-49,52.8-74.2,78.5
		c-8.5,8.7-8,14.3,0.1,22.8c24.8,26,48.7,53,73.4,79.2c6.8,7.2,10.1,14.6,9.9,24.7c-0.6,24.3-0.2,48.6-0.2,72.7
		c-7.1,2.7-8.9-3.1-11.7-6.1c-51.9-56.4-103.6-113-155.6-169.3c-10.6-11.5-13.7-22.8-2.4-35.2c54.1-59.1,108.3-118.2,162.5-177.2
		C787.3,318,789,317.5,794.3,314.3z"/>
	<path id="XMLID_25_" fill="#F8FAFA" d="M317.7,518.8c-28-30.4-54.4-59.7-81.5-88.2c-8.2-8.6-11.8-17.5-11.5-29.4
		c0.7-27.8,0.2-55.6,0.2-83.8c8.7-0.9,11.1,6.3,14.9,10.5c50,54.2,99.7,108.6,149.4,163c16.1,17.6,16.1,25.7,0.3,43
		C339.8,588.2,290,642.5,240,696.8c-3.8,4.1-6.5,9.6-15.6,12.4c0-29.6-0.1-58.1,0.1-86.7c0-5.8,5.4-8.7,8.8-12.5
		C260.9,580.1,288.5,550.4,317.7,518.8z"/>
	<path id="XMLID_45_" fill="#F8FAFA" d="M419.5,511.5c0.4-49.6,40.5-89.6,90-89.6c50,0,91,41.4,90.3,91.3
		c-0.7,50.2-41.9,90.4-92,89.6C458.7,602.1,419.1,561.1,419.5,511.5z M426.4,512c-0.1,47.4,36.2,84.1,83.3,84
		c46.9-0.1,83.6-37.3,83.2-84.3c-0.4-46.5-36.5-82.8-82.7-83C462.8,428.4,426.5,464.5,426.4,512z"/>
	<path id="XMLID_22_" fill="#F8FAFA" d="M775.2,264.8c-58.1,66-116.2,131.9-174.3,197.9c-2.3-2-4.5-4-6.8-6
		c58.1-66,116.2-132,174.4-198C770.7,260.7,772.9,262.7,775.2,264.8z"/>
	<path id="XMLID_21_" fill="#F8FAFA" d="M244.6,758.4c58.1-66,116.2-132,176.2-200.2C421.7,573.1,265.3,754,248.5,762
		C247.2,760.8,245.9,759.6,244.6,758.4z"/>
	<path id="XMLID_20_" fill="#F8FAFA" d="M251.3,258.7c58.1,66,116.1,132.1,174.2,198.1c-2.2,1.9-4.4,3.9-6.6,5.8
		c-58.1-66-116.3-132-174.4-198C246.7,262.6,249,260.7,251.3,258.7z"/>
	<path id="XMLID_19_" fill="#F8FAFA" d="M768.3,764.5c-58.1-66-116.2-132-176.3-200.3c15.2,1.2,175.4,180.6,179.9,197.1
		C770.7,762.3,769.5,763.4,768.3,764.5z"/>
</g>
<circle id="XMLID_4_" fill="#CE2328" cx="510.3" cy="512.2" r="83.8"/>
</svg>
