<svg xmlns="http://www.w3.org/2000/svg" xmlns:xlink="http://www.w3.org/1999/xlink" width="1024" height="1024" viewBox="0 0 1024 1024"><defs><clipPath id="b"><rect width="1024" height="1024"/></clipPath></defs><g id="a" clip-path="url(#b)"><circle cx="512" cy="512" r="512" fill="#d9e0e7"/><path d="M696,488.3a35.2,35.2,0,0,1-20.9-32.1V407a35.072,35.072,0,0,1,12.2-26.6,85.084,85.084,0,1,0-103.1.1A34.953,34.953,0,0,1,596.3,407v49.4a35.082,35.082,0,0,1-35.1,34.8,34.719,34.719,0,0,1-23.8-9.3l-73.5-73.5c-.5-.5-1.1-1.1-1.9-2a34.878,34.878,0,0,1-10.2-27.6A85.125,85.125,0,1,0,378.7,452a34.547,34.547,0,0,1,27.5,10.2c.9.9,1.6,1.6,2.2,2.1L479,535a16.665,16.665,0,0,0,1.4,1.5,35.09,35.09,0,0,1-23.1,59.9H406.5A34.953,34.953,0,0,1,380,584.3a85.068,85.068,0,1,0,.2,102.8,35.156,35.156,0,0,1,26.4-12h47c.5,0,1,.1,1.6.1a35.085,35.085,0,0,1,32.4,21.6,4.88,4.88,0,0,0,.3.7A159.915,159.915,0,1,0,696,488.3Z" fill="#fff"/></g></svg>