<svg xmlns="http://www.w3.org/2000/svg" xmlns:xlink="http://www.w3.org/1999/xlink" width="1024" height="1024" viewBox="0 0 1024 1024"><defs><clipPath id="a"><path d="M725.444,297.113c-49.675,6.561-98.413,27.181-137.309,58.11-43.114,34.21-71.232,77.793-80.6,126.531-2.812,14.528-4.218,30.461-5.155,47.8-5.155,66.077-11.716,106.38-66.077,106.38a17.239,17.239,0,0,0-15,9.373,16.57,16.57,0,0,0,1.406,17.339C495.814,759.654,621.407,770.9,709.042,770.9h28.587c41.24,0,84.354-1.874,123.25-16.4,68.889-25.775,126.531-83.417,147.619-146.682,23.432-71.7,12.653-144.339-30.93-204.324C929.3,336.478,846.351,295.239,761.06,295.239a179.752,179.752,0,0,0-35.616,1.875" fill="#d9e0e7"/></clipPath><clipPath id="c"><rect width="1024" height="1024"/></clipPath></defs><g id="b" clip-path="url(#c)"><circle cx="512" cy="512" r="512" fill="#d9e0e7"/><g transform="translate(-9.731 -15.91)"><g transform="translate(-198.336 -38.589)"><g clip-path="url(#a)"><path d="M418.489,291.021l616.252,3.749-2.812,478.943-616.252-3.281Z" fill="#d9e0e7"/></g></g><path d="M562.661,272.646c149.827,0,283.239,133.794,231.611,290.683C773.468,626.5,715.542,677.751,656.756,699.7c-38.363,14.315-83.12,15.364-117.285,15.364H510.842c-85.888,0-204.509-10.5-273.124-101.539,94.095,0,75.486-105.07,87.606-167.386,18.7-95.049,112.7-158.988,203.841-171.3a264.372,264.372,0,0,1,33.5-2.195m0-33.305a280.087,280.087,0,0,0-37.982,2.577,302.885,302.885,0,0,0-145.246,61.458c-46.475,36.645-76.345,83.788-86.651,136.275-3.054,15.651-4.39,32.924-5.63,49.624-2,26.148-4.008,53.155-12.311,70.81-5.726,12.024-14.124,20.136-37.027,20.136a33.215,33.215,0,0,0-26.53,53.25c77.585,102.875,208.23,114.8,299.749,114.8h28.629c42.658,0,87.8-2.1,128.927-17.464,34.26-12.788,66.9-33.5,94.381-59.835,29.679-28.534,51.533-62.126,63.08-97.244,12.979-39.508,16.223-79.208,9.734-118.048-6.108-36.264-20.518-70.333-42.849-101.157-25.194-34.832-59.644-63.843-99.63-83.979a291.894,291.894,0,0,0-130.645-31.206" fill="#fff"/><path d="M519.908,438.315a31.969,31.969,0,1,1-31.969-31.969,31.971,31.971,0,0,1,31.969,31.969" fill="#fff"/><path d="M669.162,438.315a31.969,31.969,0,1,1-31.969-31.969,31.971,31.971,0,0,1,31.969,31.969" fill="#fff"/><path d="M561.421,609.518c-54.109,0-102.875-35.5-111.845-81.88a16.62,16.62,0,0,1,32.637-6.3c5.249,27.293,37.982,56.018,81.5,54.873,45.425-1.241,75.391-28.343,81.5-54.491a16.666,16.666,0,1,1,32.447,7.634c-5.058,21.377-18.8,41.226-38.745,55.827-20.8,15.174-46.475,23.667-74.245,24.335h-3.245" fill="#fff"/><path d="M334.867,744.553A65.943,65.943,0,1,1,400.81,810.5a65.9,65.9,0,0,1-65.943-65.943" fill="#fff"/><path d="M379.052,744.553a21.758,21.758,0,1,1,21.758,21.758,21.749,21.749,0,0,1-21.758-21.758" fill="#d9e0e7"/><path d="M563.806,744.553A65.943,65.943,0,1,1,629.749,810.5a65.9,65.9,0,0,1-65.943-65.943" fill="#fff"/><path d="M607.991,744.553a21.758,21.758,0,1,1,21.758,21.758,21.749,21.749,0,0,1-21.758-21.758" fill="#d9e0e7"/></g></g></svg>