<svg id="Layer_1" data-name="Layer 1" xmlns="http://www.w3.org/2000/svg" viewBox="0 0 1024 1024"><defs><style>.cls-1{fill:#f0f2f4;}.cls-2{fill:#f5b002;}.cls-3{fill:#f0b202;}.cls-4{fill:#3d80c2;}.cls-5{fill:#2a6eb5;}.cls-6{fill:#8accf1;}.cls-7{fill:#6caee0;}.cls-8{fill:#5d9ed6;}.cls-9{fill:#81c3ec;}.cls-10{fill:#64a4da;}.cls-11{fill:#74b7e5;}.cls-12{fill:#5193ce;}.cls-13{fill:#4688c7;}</style></defs><title>yalwa</title><circle id="_Path_" data-name="&lt;Path&gt;" class="cls-1" cx="512" cy="512" r="512"/><path class="cls-2" d="M831.18,606.7c-18.39,13.76-38.29,14.58-59.18,6.89a51.73,51.73,0,0,1-15.83-12.94,69.37,69.37,0,0,1-6.55-12.91l-2.21-9.91-.16-15.25,1.82-9.87c6.08-16.9,20.14-23.13,36-26.69,16.65-3.73,33.63-4.4,50.61-4.44,3.78,0,6.26-.46,6.18-4.83,9.26,2.09,18.68-1.35,27.93.81-.72,9.61-1.14,19.25-2.23,28.82a75.64,75.64,0,0,0,2.12,30c3.18,11.07,5.42,22.42,8.37,33.57.83,3.12,0,3.57-2.85,3.8q-11.19.9-22.32,2.43c-2.34.32-3.32-.28-3.57-2.47l-3-13.81c-.63-2.23.14-5.55-2.12-6.38-1.59-.58-2.71,2.48-3.86,4.08Zm-28.85-12.89c7.54.25,14.55-1.36,20.66-6,4.36-2.47,7.23-6.36,9.68-10.53,5.74-9.77,7.49-20.65,8.49-31.71.16-1.71-.39-2.21-2.09-2.11-5.7.35-11.42.44-17.12.84a347,347,0,0,0-38.9,4.78c-1.43.27-3,.36-3.69,2.19-1.32,3.43-2.9,6.77-2.95,10.55-1.17,8.93-.31,17.35,6,24.45C787.63,592.5,794.68,593.94,802.33,593.81Z" transform="translate(0 0)"/><path class="cls-2" d="M687,548.82c3.36-9.7,5.79-19.67,8.52-29.55a15.65,15.65,0,0,1,.7-1.73c5.59,0,11.24-.46,16.76.16,4.22.48,8.52-1,12.62.75-2.28,10.3-6,20.19-8.65,30.37a48.27,48.27,0,0,0-3.17,9.93q-8,21.5-16,43c-1.38,3.67-3,7.24-4.45,10.89-.56,1.44-1.2,2.31-3,2.29-7.61-.08-15.21,0-22.82,0a2.91,2.91,0,0,1-2.9-1.38l-8.12-19.68L645.26,563.3c0-.59,0-1.17-.61-1.53-.24-1-.44-2-.74-2.9q-3.75-11.83-7.53-23.65l25-.2,5.19,14.58a64.05,64.05,0,0,0,3.81,10.69,152.92,152.92,0,0,0,7.19,18.49L683,561.9A99.22,99.22,0,0,0,687,548.82Z" transform="translate(0 0)"/><path class="cls-2" d="M536.14,552.66l-4.55-16.8a18.26,18.26,0,0,1,5.93-.78c8.18.05,16.36,0,24.54,0q4.9,15.46,9.82,30.91c.38,1.18,1,2.31,1.43,3.46a26.12,26.12,0,0,0,3.39,8.73l2.71-7.23c4.08-10,7.52-20.32,10.77-30.66a25.36,25.36,0,0,1,2.12-5.54c1.08,1.62,2.67,1,4.14,1q8.45.07,16.9.24a2.07,2.07,0,0,1,1.7,1.35l-3.9,12.25c-1.79,2.52-1.85,5.65-2.93,8.43l-7.92,22.09-3.45,9c-3.19,7.57-6.46,15.1-9.52,22.72-.87,2.17-2,3.14-4.42,3.09-7.1-.16-14.2-.07-21.3,0-1.31,0-2.54,0-3.38-1.21l-8.65-22.14-8.23-22.88Z" transform="translate(0 0)"/><path class="cls-3" d="M869.82,517.56c-9.26-2.16-18.67,1.28-27.93-.81.07-4.06.21-8.13.21-12.19,0-18.84-11.14-30.13-30-30.49a96.67,96.67,0,0,0-42.88,8.86c-2.92,1.35-3.52.87-3.84-2.13-.75-6.94-1.66-13.88-2.87-20.75-.5-2.82.58-3.76,2.87-4.66a133.61,133.61,0,0,1,45-8.8c9.08-.28,18.07.31,26.72,3.23,19.9,6.72,30.53,21,33.07,41.52C871.23,500.08,870.55,508.83,869.82,517.56Z" transform="translate(0 0)"/><path class="cls-3" d="M615,537.33a2.07,2.07,0,0,0-1.7-1.35q-8.45-.17-16.9-.24c-1.47,0-3.06.64-4.14-1,4.2-14.6,8.45-29.18,12.6-43.79,3.53-12.43,6.63-25,9.05-37.67.43-2.23,1.29-3.13,3.72-3.06,6.47.19,12.94.08,19.42.05,1.49,0,2.51,0,2.88,2,5.11,27.83,13,54.94,21.34,81.94a5.13,5.13,0,0,1,.12.75l-25,.2c-3.29-9.43-5.82-19.08-8.5-28.69-.3-1.09.08-3-1.71-2.93s-1.39,1.81-1.71,3C621.58,516.89,618.88,527.28,615,537.33Z" transform="translate(0 0)"/><path class="cls-3" d="M562.06,535.08c-8.18,0-16.36,0-24.54,0a18.26,18.26,0,0,0-5.93.78,485.41,485.41,0,0,1-12.28-51.74c-1.82-9.72-3.2-19.51-4.27-29.34-.21-1.95-.44-3.4,2.34-3.54,8.23-.42,16.45-1.05,24.67-1.68,2-.15,2.91.29,3.18,2.54,3.19,27.12,9.24,53.67,16.25,80C561.73,533.09,561.87,534.09,562.06,535.08Z" transform="translate(0 0)"/><path class="cls-3" d="M725.63,518.45c-4.1-1.77-8.4-.27-12.62-.75-5.52-.62-11.17-.16-16.76-.16,2.62-11.62,5.29-23.22,7.86-34.85a280.73,280.73,0,0,0,5.16-30.37c.26-2.37,1.12-3,3.37-2.76,8,.67,15.94,1.29,23.93,1.68,3.29.16,2.47,2.28,2.27,4a360.06,360.06,0,0,1-7.9,43C729.28,505,727.4,511.72,725.63,518.45Z" transform="translate(0 0)"/><path class="cls-4" d="M369.76,469.26l-6.85,0c-.71-2.16-2.54-1.28-3.88-1.28-12.43-.07-24.86,0-37.29,0-.48-2.74-.89-5.49-1.47-8.21-.49-2.3.45-3.35,2.54-4.24a109.86,109.86,0,0,1,29.65-7.81c13.26-1.65,26.52-2.3,39.52,1.9,9.92,3.21,18.16,8.71,24,17.48-7.19,2.11-14.52,0-21.8.73-6.92.65-14,.11-20.94.17C372,468,370.36,467.28,369.76,469.26Z" transform="translate(0 0)"/><path class="cls-5" d="M465.17,443.55c-.07-20.57-.12-41.14-.27-61.71,0-2.17.89-2.47,2.72-2.44q9.33.12,18.67,0c1.82,0,2.73.27,2.72,2.44-.15,20.32-.19,40.63-.27,60.95C480.92,444.33,473,442.95,465.17,443.55Z" transform="translate(0 0)"/><path class="cls-5" d="M164.56,451.94a250.72,250.72,0,0,1-19.34-44.44c-.7-2.18,0-2.62,1.93-2.79,7.2-.62,14.39-1.33,21.58-2.05,1.37-.14,2.34-.1,2.93,1.52,5.84,16.21,13.59,31.56,21.15,47-1.59-.18-3.11.33-4.78.21C180.22,450.82,172.38,451.4,164.56,451.94Z" transform="translate(0 0)"/><path class="cls-6" d="M389.51,605.93a54.67,54.67,0,0,1-21.81,10.81,66,66,0,0,1-39-3.13c-4.84-3.15-9.66-6.32-13.58-10.64-1.27-2.71-3.75-4.68-4.66-7.61,2.64,0,5.28-.17,7.91,0,5.28.27,10.54-.89,15.85-.09,2.1.32,4.61.84,5.8-2a33.63,33.63,0,0,0,23.79,3.81l6-.86c-.18,2.31,1.38,2.23,3,2.23,6.15,0,12.31,0,18.46,0,1.31,0,2.82-.5,3.81.94C394,602.25,391.07,603.52,389.51,605.93Z" transform="translate(0 0)"/><path class="cls-7" d="M309.42,548.05a29.17,29.17,0,0,1,14.35-13.82,5.13,5.13,0,0,0,4.38,1.67c3.9-.25,8-.86,11.67-.41,8.71,1.08,17.33-.09,26,.19,18.87.6,37.77.19,56.66.19l-.82,13.73-.87,6.09-22.07,0c.32-3.51.25-7.11,1.06-10.51.88-3.72-.75-4-3.63-3.78-9.29.82-18.64.82-27.88,2.19-6.68.64-13.38,1.07-19.92,2.74a74.82,74.82,0,0,0-15,2.58c-1.65,0-3.31,0-5-.08C322.06,548.49,315.68,549.65,309.42,548.05Z" transform="translate(0 0)"/><path class="cls-8" d="M223.3,501.51c3.41,3.88,3.41,3.88,6.79-.08a27.16,27.16,0,0,0,9.45,1.62c6.21.28,12.42-.7,18.63,0A241.28,241.28,0,0,1,239.5,529.3c-.61-1-1.63-1.06-2.66-1.06H215.93c-1,0-2.06,0-2.69,1a248.34,248.34,0,0,1-18.35-26.1c1.86-.22,3.79-.88,5.56-.59,6.65,1.12,13.31.19,20,.5C221.61,503.1,223,503.36,223.3,501.51Z" transform="translate(0 0)"/><path class="cls-5" d="M264.47,443.53c3.67-8.17,7.41-16.3,11-24.51,1.86-4.26,3.47-8.63,5.07-13,.63-1.73,1.37-2.69,3.46-2.65,7.1.13,14.21.11,21.31,0,2.19,0,2.65.62,1.95,2.65-4.62,13.32-9.17,26.66-16,39.06a7.94,7.94,0,0,0-2.55-.48c-6.87,1.06-13.78.18-20.66.47C266.57,445.14,265.19,445.09,264.47,443.53Z" transform="translate(0 0)"/><path class="cls-9" d="M395,599.38c-1-1.43-2.49-.93-3.81-.94-6.15,0-12.31,0-18.46,0-1.59,0-3.15.08-3-2.23,3.47-1.51,7.19-2.56,9.93-5.41a29.13,29.13,0,0,0,13.39-18.09l1-.25c1.48.92,3.15.64,4.76.83,3,.34,5.91-1.36,9-.68a33.46,33.46,0,0,0,14.91-.18l1.92,5.39c.67,5.47,2.29,10.72,3.82,16-.18,2.11.57,4.06,1,6.06a9,9,0,0,1-4.78.85c-6.31,0-12.63,0-18.94,0-.6-2.71-1.16-5.43-1.82-8.12-.51-2-1.69-2.17-2.83-.57-1.66,2.33-3.8,4.35-4.77,7.14Z" transform="translate(0 0)"/><path class="cls-10" d="M422.47,535.87c-18.89,0-37.79.41-56.66-.19-8.66-.28-17.28.9-26-.19-3.67-.46-7.77.16-11.67.41a5.13,5.13,0,0,1-4.38-1.67c8-4.85,17-6.58,26-8.27a67.25,67.25,0,0,1,14.61-1.59c.64.95,1.14.84,1.51-.2a4.92,4.92,0,0,1,3.1-.35c.85,2.1,3.07,2.12,4.45,1.87,9.61-1.7,19.22.5,28.86-.35,6.92-.61,14,.35,21,.61C423.26,529.28,423.36,532.62,422.47,535.87Z" transform="translate(0 0)"/><path class="cls-4" d="M264.47,443.53c.71,1.56,2.09,1.61,3.52,1.54,6.88-.29,13.79.59,20.66-.47a7.94,7.94,0,0,1,2.55.48,205.23,205.23,0,0,1-14.47,27.48c-1.6-.31-3.13-1-4.84-.79-7.61.81-15.21.17-22.82,0Z" transform="translate(0 0)"/><path class="cls-11" d="M309.42,548.05c6.26,1.6,12.64.44,19,.77,1.65.09,3.3.06,5,.08-1.7,3.91-3.74,7.72-3.94,12.12-.86,4.05-1.39,8.11-.12,12.18l.24,4.35c-.74,1.17-1.93,1-3.05,1l-21.17-.09-.31.07q-.09-8.37-.18-16.74l1.83-8.32C307.74,551.77,307.88,549.56,309.42,548.05Z" transform="translate(0 0)"/><path class="cls-9" d="M488.75,573.24l.31,2.21Q489,582,489,588.54q-.12,7.22-.24,14.45H465.16q-.11-1.55-.21-3.09,0-11-.07-22l.27-4.63C473,573.59,480.88,572.27,488.75,573.24Z" transform="translate(0 0)"/><path class="cls-12" d="M401.35,511.42a73.71,73.71,0,0,0-.39-16.3c-.62-3.92-2.28-7.49-3.72-11.14,4.07.93,8.22.57,12.33.82,4.6.28,9.16-1.42,13.74-.1,2.58,8.81,1.67,17.78,1.22,26.73A222.14,222.14,0,0,0,401.35,511.42Z" transform="translate(0 0)"/><path class="cls-12" d="M465.18,509.92q0-13.35,0-26.7h23.59q0,13.35,0,26.7Z" transform="translate(0 0)"/><path class="cls-4" d="M465.17,443.55c7.84-.6,15.75.79,23.56-.76q0,13,0,25.94H465.17Q465.17,456.14,465.17,443.55Z" transform="translate(0 0)"/><path class="cls-4" d="M164.56,451.94c7.82-.54,15.65-1.12,23.47-.55,1.67.12,3.19-.39,4.78-.21l10,18.08c-1.06,3.09-3.64,1.82-5.44,1.5a16.62,16.62,0,0,0-6-.43c-5.41,1.09-10.86.46-16.28.76A143.71,143.71,0,0,1,164.56,451.94Z" transform="translate(0 0)"/><path class="cls-13" d="M423.32,484.7c-4.59-1.32-9.15.38-13.74.1-4.11-.25-8.26.11-12.33-.82-6.43-10-16.21-13.76-27.49-14.72.6-2,2.27-1.26,3.53-1.27,7-.06,14,.48,20.94-.17,7.28-.68,14.61,1.38,21.8-.73C420,472.31,422.06,478.35,423.32,484.7Z" transform="translate(0 0)"/><path class="cls-13" d="M175.06,471.09c5.42-.3,10.87.33,16.28-.76a16.62,16.62,0,0,1,6,.43c1.8.32,4.38,1.59,5.44-1.5l10.65,17.64c-.31,2.07-1.92,1.66-3.26,1.66-6.61,0-13.21,0-19.82,0-1.45,0-3.15-.48-4,1.37A165.21,165.21,0,0,1,175.06,471.09Z" transform="translate(0 0)"/><path class="cls-6" d="M213.25,613.74q0-7.31,0-14.61l.23-3.77c1.22.25,2.51.89,3.64.68,7.36-1.4,14.78-.31,22.16-.68q0,8.15.08,16.31c0,1.45,0,2.83-2.06,2.81-7.71-.07-15.42-.08-23.13-.15C213.86,614.33,213.56,613.95,213.25,613.74Z" transform="translate(0 0)"/><path class="cls-7" d="M239.58,548.81a60.48,60.48,0,0,0,0,10.72l-.3,1.5a12.36,12.36,0,0,1-5.55.75c-6.74-1.18-13.47.51-20.2,0q0-9.54,0-19.07c6.37,1,12.74.48,19.1,0,2.23-.17,4.44,1,6.66,0Z" transform="translate(0 0)"/><path class="cls-13" d="M249.08,471.74c7.61.2,15.21.84,22.82,0,1.7-.18,3.23.48,4.84.79a125.88,125.88,0,0,1-9.95,16.8c-1.1-1.28-2.59-.77-3.91-.78-6.57-.05-13.13,0-19.7,0-1.33,0-2.82.5-3.91-.79Z" transform="translate(0 0)"/><path class="cls-9" d="M239.28,595.36c-7.38.37-14.79-.73-22.16.68-1.13.22-2.42-.43-3.64-.68q0-9.16,0-18.32h25.77Q239.28,586.21,239.28,595.36Z" transform="translate(0 0)"/><path class="cls-12" d="M186.37,490c.85-1.85,2.55-1.37,4-1.37,6.61,0,13.21,0,19.82,0,1.33,0,2.95.41,3.26-1.66l9.86,14.62c-.26,1.85-1.69,1.59-2.9,1.54-6.64-.31-13.31.62-20-.5-1.77-.3-3.7.36-5.56.59A99.83,99.83,0,0,1,186.37,490Z" transform="translate(0 0)"/><path class="cls-12" d="M239.28,487.75c1.09,1.29,2.58.78,3.91.79,6.57,0,13.13,0,19.7,0,1.32,0,2.81-.51,3.91.78A106.88,106.88,0,0,1,258.16,503c-6.21-.69-12.42.3-18.63,0a27.16,27.16,0,0,1-9.45-1.62Z" transform="translate(0 0)"/><path class="cls-11" d="M239.27,577.05H213.5q0-7.63,0-15.25c6.73.5,13.46-1.18,20.2,0a12.36,12.36,0,0,0,5.55-.75Q239.27,569,239.27,577.05Z" transform="translate(0 0)"/><path class="cls-8" d="M401.35,511.42a222.14,222.14,0,0,1,23.19,0A83.41,83.41,0,0,1,423.3,526c-7-.26-14.05-1.22-21-.61-9.64.85-19.25-1.35-28.86.35-1.38.24-3.6.23-4.45-1.87,9.23-.34,18.45-.76,27.68-1,2.34-.06,3.55-.21,3.75-3.16A71.19,71.19,0,0,1,401.35,511.42Z" transform="translate(0 0)"/><path class="cls-11" d="M465.15,573.24q-.13-4.59-.25-9.18.13-3.8.26-7.6h23.57q0,8.39,0,16.78C480.88,572.27,473,573.59,465.15,573.24Z" transform="translate(0 0)"/><path class="cls-10" d="M239.26,542.72c-2.22,1-4.43-.19-6.66,0-6.36.49-12.73,1-19.1,0q-.13-6.74-.27-13.49c.63-1,1.67-1,2.69-1h20.91c1,0,2,0,2.66,1.06Q239.38,536,239.26,542.72Z" transform="translate(0 0)"/><path class="cls-7" d="M488.74,556.46H465.16q0-8,0-16h23.57Z" transform="translate(0 0)"/><path class="cls-10" d="M488.74,540.44H465.17q0-7.63,0-15.26h23.57Z" transform="translate(0 0)"/><path class="cls-8" d="M488.74,525.18H465.16q0-7.63,0-15.26h23.55Q488.73,517.55,488.74,525.18Z" transform="translate(0 0)"/><path class="cls-6" d="M405.78,600.69c6.31,0,12.63,0,18.94,0a9,9,0,0,0,4.78-.85c1.66,3.72,2,7.82,3.23,11.65.62,1.86-.46,2.28-1.83,2.45-6.77.83-13.54,1.62-20.31,2.42-2.14.25-1.55-2-2.53-2.79a43.86,43.86,0,0,0-2.36-11.37Z" transform="translate(0 0)"/><path class="cls-13" d="M465.17,468.73h23.57v14.49H465.16Q465.16,476,465.17,468.73Z" transform="translate(0 0)"/><path class="cls-6" d="M464.89,613.76l.27-10.77h23.56q0,4.72.09,9.44c0,1.32,0,2.61-1.85,2.61h-20.4A1.8,1.8,0,0,1,464.89,613.76Z" transform="translate(0 0)"/><path class="cls-13" d="M321.74,468c12.43,0,24.86,0,37.29,0,1.34,0,3.17-.88,3.88,1.28-13,.91-25.58,3.64-37.37,9.34-2.16,1-2.66.26-2.86-1.61C322.36,474,322.05,471,321.74,468Z" transform="translate(0 0)"/><path class="cls-8" d="M365.92,524.18c-.38,1-.88,1.15-1.51.2A1.18,1.18,0,0,1,365.92,524.18Z" transform="translate(0 0)"/><path class="cls-9" d="M330.25,578.54a17.27,17.27,0,0,0,3.39,7.73c1.27,3.1,3.16,5.64,6.36,7-1.19,2.82-3.69,2.3-5.8,2-5.31-.81-10.56.36-15.85.09-2.63-.14-5.27,0-7.91,0l-3.83-8.46-1.33-8.4,21.17.09c1.12,0,2.31.15,3-1Z" transform="translate(0 0)"/><path class="cls-11" d="M394.12,572.46c.89-3.85,2.59-7.48,3-11.45l1.55-5.31,22.07,0,.16,3.08c-.8,4.74,1.27,9.1,1.81,13.67a33.46,33.46,0,0,1-14.91.18c-3-.68-5.91,1-9,.68C397.26,573.1,395.59,573.38,394.12,572.46Z" transform="translate(0 0)"/></svg>