<svg xmlns="http://www.w3.org/2000/svg" width="40" height="40" viewBox="0 0 40 40">
  <g id="Gruppe_15840" data-name="Gruppe 15840" transform="translate(15592 20245)">
    <g id="Gruppe_15832" data-name="Gruppe 15832" transform="translate(-5 -123)">
      <circle id="XMLID_4_" cx="20" cy="20" r="20" transform="translate(-15587 -20122)" fill="#d9e0e7"/>
    </g>
    <path id="Pfad_14295" data-name="Pfad 14295" d="M548.479,252.626a.044.044,0,0,0,.035,0v.412a.17.17,0,0,1-.023-.049,1.525,1.525,0,0,1-.011-.365" transform="translate(-16100.514 -20480.221)" fill="#93adc7"/>
    <path id="Pfad_14296" data-name="Pfad 14296" d="M548.515,291.621l-.017,0-.017,0a1.3,1.3,0,0,1,.009-.329.149.149,0,0,1,.025-.048Z" transform="translate(-16100.516 -20516.027)" fill="#93adc7"/>
    <g id="Gruppe_15838" data-name="Gruppe 15838">
      <path id="Pfad_14297" data-name="Pfad 14297" d="M220.461,139.8a3.729,3.729,0,0,1,1.228-2.826,4.047,4.047,0,0,1,1.813-.929,3.888,3.888,0,0,1,.853-.1,4.1,4.1,0,0,1,2.044.523,3.762,3.762,0,0,1,1.408,1.341,3.7,3.7,0,0,1,.47,1.215,3.91,3.91,0,0,1,.063.407,3.088,3.088,0,0,1,0,.542,4.235,4.235,0,0,1-.433,1.5,8.45,8.45,0,0,1-.541.94c-.222.34-.46.669-.7,1-.361.5-.708,1.013-1.022,1.546a10.944,10.944,0,0,0-.791,1.611,7.956,7.956,0,0,0-.39,1.365.892.892,0,0,1-.049.237.026.026,0,0,1-.015.01.013.013,0,0,1-.011-.007c-.013-.054-.029-.108-.037-.163a7.417,7.417,0,0,0-.475-1.631,11.537,11.537,0,0,0-.869-1.676c-.265-.431-.551-.847-.845-1.259-.21-.295-.42-.59-.625-.888a8.378,8.378,0,0,1-.619-1.046,4.7,4.7,0,0,1-.378-1.054,3.925,3.925,0,0,1-.079-.654m.867,0a3,3,0,0,0,.039.386,3.5,3.5,0,0,0,.221.713,5.492,5.492,0,0,0,.45.841c.156.241.317.479.48.715.235.338.478.671.712,1.01a15.441,15.441,0,0,1,1.115,1.862c.011.022.024.044.036.065s.031.014.042-.005.038-.065.054-.1c.136-.274.285-.541.441-.8.312-.527.656-1.033,1.011-1.531q.321-.45.636-.9a7.663,7.663,0,0,0,.449-.734,4.821,4.821,0,0,0,.3-.683,3.03,3.03,0,0,0,.161-.786,2.454,2.454,0,0,0-.061-.706,2.777,2.777,0,0,0-.727-1.371,3.174,3.174,0,0,0-2.227-.965,2.912,2.912,0,0,0-.67.061,3.176,3.176,0,0,0-1.4.64,2.856,2.856,0,0,0-1.069,2.3" transform="translate(-15796.398 -20372.035)" fill="#fff"/>
      <path id="Pfad_14298" data-name="Pfad 14298" d="M122.437,375.547q0-.6,0-1.2a.812.812,0,0,1,.009-.111.041.041,0,0,1,.024-.025.169.169,0,0,1,.055-.008c.4,0,.8,0,1.2,0a1.581,1.581,0,0,1,.443.064.956.956,0,0,1,.27.127.576.576,0,0,1,.206.238.6.6,0,0,1-.193.736c-.041.029-.085.052-.127.078a.016.016,0,0,0-.006.014c0,.011.009.025.017.03.038.02.08.035.118.056a.634.634,0,0,1,.319.44.738.738,0,0,1,.008.278.651.651,0,0,1-.288.441.957.957,0,0,1-.325.141,1.357,1.357,0,0,1-.333.046c-.062,0-.125,0-.187,0H122.6c-.164,0-.159.01-.158-.167,0-.031,0-.062,0-.094Zm1.011.225v0h-.28a.051.051,0,0,0-.048.047q0,.2,0,.392c0,.156,0,.154.154.153h.355c.037,0,.075,0,.112,0a.448.448,0,0,0,.242-.088.264.264,0,0,0,.067-.336.283.283,0,0,0-.155-.128.562.562,0,0,0-.2-.039h-.243m-.024-.49h.244a.472.472,0,0,0,.093-.008.268.268,0,0,0,.221-.348.222.222,0,0,0-.143-.161.5.5,0,0,0-.164-.035c-.168,0-.337,0-.506,0a.053.053,0,0,0-.049.046c0,.069-.006.137,0,.206a.9.9,0,0,0,.015.277c.008.023.011.022.292.022" transform="translate(-15705.518 -20592.941)" fill="#fff"/>
      <path id="Pfad_14299" data-name="Pfad 14299" d="M239.556,375.546q0-.6,0-1.2a.7.7,0,0,1,.011-.111c0-.009.015-.017.024-.024a.031.031,0,0,1,.018-.005h.506a.081.081,0,0,1,.065.031q.053.066.1.133l1,1.335a.975.975,0,0,0,.071.086c.006.007.022,0,.034,0s.009-.007.009-.012c0-.056,0-.112,0-.168q0-.618,0-1.236c0-.044,0-.087.005-.131a.069.069,0,0,1,.034-.041l.037,0h.468c.084,0,.093.026.093.1,0,.031,0,.062,0,.094q0,1.152,0,2.3,0,.066,0,.131a.057.057,0,0,1-.059.058h-.506a.079.079,0,0,1-.064-.033l-.248-.329-.852-1.14a.915.915,0,0,0-.059-.073.073.073,0,0,0-.033-.014.028.028,0,0,0-.007.014c0,.056-.006.112-.006.168q0,.609,0,1.217c0,.038,0,.075,0,.112,0,.059-.019.076-.079.078h-.075c-.444,0-.473,0-.478-.023a2.418,2.418,0,0,1-.013-.466c0-.287,0-.574,0-.862" transform="translate(-15814.1 -20592.943)" fill="#fff"/>
      <path id="Pfad_14300" data-name="Pfad 14300" d="M392.673,375.528q0-.571,0-1.142c0-.044,0-.087,0-.131a.055.055,0,0,1,.05-.046l.018,0h.468a.111.111,0,0,1,.1.045c.033.045.068.089.1.134l1.008,1.35c.018.024.03.055.065.061,0,0,.014,0,.015,0a.114.114,0,0,0,.009-.036c0-.056,0-.112,0-.168q0-.6,0-1.2c0-.037,0-.075,0-.112s.024-.071.067-.072h.356l.168,0a.059.059,0,0,1,.046.051c0,.037,0,.075,0,.112q0,1.179,0,2.359c0,.037,0,.075,0,.112a.052.052,0,0,1-.044.051c-.025,0-.05,0-.075,0l-.467-.007a2.3,2.3,0,0,1-.289-.364c-.279-.368-.553-.739-.83-1.109-.026-.035-.053-.069-.082-.1-.006-.007-.022-.007-.034-.008s-.009.007-.009.011c0,.05,0,.1,0,.15q0,.627,0,1.254c0,.037,0,.075,0,.112a.058.058,0,0,1-.055.061l-.112,0-.43,0a.054.054,0,0,1-.039-.035c0-.019,0-.037,0-.056,0-.044,0-.087,0-.131Z" transform="translate(-15956.065 -20592.943)" fill="#fff"/>
      <path id="Pfad_14301" data-name="Pfad 14301" d="M159.572,375.542q0-.6,0-1.2a.768.768,0,0,1,.009-.111.039.039,0,0,1,.026-.024.349.349,0,0,1,.074-.007c.368,0,.736,0,1.1,0a1.7,1.7,0,0,1,.462.064l.071.023a.824.824,0,0,1,.573.8,1.215,1.215,0,0,1-.032.353.838.838,0,0,1-.322.489l-.091.066a.038.038,0,0,0-.01.049c.022.038.043.076.066.113l.371.584c.02.031.038.064.057.1a.035.035,0,0,1-.024.055c-.025,0-.05,0-.075,0-.175,0-.35-.005-.524,0a.163.163,0,0,1-.171-.109c-.089-.178-.186-.353-.279-.529-.015-.028-.03-.054-.046-.082a.067.067,0,0,0-.062-.034h-.43a.058.058,0,0,0-.057.06c0,.037,0,.075,0,.112q0,.178,0,.356c0,.037,0,.075,0,.112,0,.1-.009.11-.1.11h-.468c-.025,0-.05,0-.074,0a.055.055,0,0,1-.038-.036c0-.019,0-.037,0-.056,0-.044,0-.087,0-.131Zm.687-.389h0c0,.131,0,.262,0,.393a.059.059,0,0,0,.047.051.164.164,0,0,0,.018,0c.15,0,.3,0,.449,0a.812.812,0,0,0,.167-.022.358.358,0,0,0,.272-.233.509.509,0,0,0,.014-.313.354.354,0,0,0-.195-.237.369.369,0,0,0-.161-.043l-.561,0a.058.058,0,0,0-.05.047c0,.119,0,.237,0,.356" transform="translate(-15739.946 -20592.939)" fill="#fff"/>
      <path id="Pfad_14302" data-name="Pfad 14302" d="M330.837,321.541q0-.6,0-1.2a.738.738,0,0,1,.01-.111.039.039,0,0,1,.026-.024.356.356,0,0,1,.074-.007c.369,0,.737,0,1.106,0a1.679,1.679,0,0,1,.462.064,1,1,0,0,1,.287.135.761.761,0,0,1,.312.431,1.141,1.141,0,0,1-.01.665.819.819,0,0,1-.3.422l-.1.079a.022.022,0,0,0-.007.033c.018.033.034.066.054.1l.362.569c.03.047.058.1.086.145.008.014,0,.042-.019.043s-.05.005-.074.005c-.181,0-.362,0-.543,0a.151.151,0,0,1-.158-.1c-.081-.162-.168-.321-.253-.48-.023-.044-.048-.088-.071-.132a.065.065,0,0,0-.059-.039h-.449a.051.051,0,0,0-.046.049c0,.156,0,.312,0,.468,0,.264.036.229-.225.231-.119,0-.237,0-.356,0-.087,0-.1-.008-.1-.11q0-.618,0-1.237Zm.686-.359h0c0,.118,0,.237,0,.355a.063.063,0,0,0,.061.057l.019,0c.143,0,.287,0,.43,0a.908.908,0,0,0,.167-.02.362.362,0,0,0,.3-.32.964.964,0,0,0,0-.149.364.364,0,0,0-.324-.354.315.315,0,0,0-.056-.006h-.542a.112.112,0,0,0-.018,0,.054.054,0,0,0-.035.039q0,.2,0,.392" transform="translate(-15898.734 -20542.871)" fill="#fff"/>
      <path id="Pfad_14303" data-name="Pfad 14303" d="M319.49,375.582q0,.59,0,1.18c0,.037,0,.075-.005.112a.05.05,0,0,1-.038.036c-.044,0-.087,0-.131,0l-.449,0a.054.054,0,0,1-.057-.059c0-.019,0-.037,0-.056q0-.187,0-.374c0-.15,0-.3,0-.449a.32.32,0,0,0-.008-.074.04.04,0,0,0-.027-.024.618.618,0,0,0-.093-.006h-.843a.4.4,0,0,0-.093.007.058.058,0,0,0-.035.038.589.589,0,0,0-.008.111c0,.25,0,.5,0,.749a.644.644,0,0,1-.012.11c0,.009-.016.016-.025.023a.031.031,0,0,1-.018.005h-.58a.051.051,0,0,1-.05-.045c0-.025,0-.05,0-.075q0-1.217,0-2.434c0-.025,0-.05,0-.075a.057.057,0,0,1,.06-.057h.562a.057.057,0,0,1,.062.055c0,.05,0,.1,0,.149,0,.25,0,.5,0,.749a.612.612,0,0,0,.008.111c0,.015.021.029.035.039a.067.067,0,0,0,.036.005h.955l.019,0a.053.053,0,0,0,.05-.045c0-.05,0-.1,0-.149,0-.262,0-.524,0-.786a.558.558,0,0,1,.008-.093c0-.01.014-.019.024-.027a.029.029,0,0,1,.017,0h.58a.052.052,0,0,1,.049.047c0,.05,0,.1,0,.149q0,.581,0,1.161" transform="translate(-15885.916 -20592.959)" fill="#fff"/>
      <path id="Pfad_14304" data-name="Pfad 14304" d="M357.734,375.55q0-.572,0-1.143c0-.05,0-.1,0-.15a.055.055,0,0,1,.046-.05c.025,0,.05,0,.075,0h1.874a.349.349,0,0,1,.074.007c.01,0,.018.015.026.024a.028.028,0,0,1,.007.017c0,.15,0,.3,0,.449a.054.054,0,0,1-.048.049l-.15,0h-1.068a.9.9,0,0,0-.112.006c-.01,0-.018.016-.026.025a.032.032,0,0,0,0,.018c0,.137,0,.275,0,.412,0,.043.025.064.072.064.319,0,.637,0,.956,0,.288,0,.248-.042.247.246a.557.557,0,0,1-.021.275.8.8,0,0,1-.259.013c-.281,0-.562,0-.843,0-.037,0-.075,0-.112,0a.063.063,0,0,0-.035.039c0,.068-.009.137,0,.205.006.092-.025.187.022.275a.814.814,0,0,0,.259.014c.344,0,.687,0,1.031,0a.8.8,0,0,1,.112.008c.01,0,.019.015.026.025a.029.029,0,0,1,.006.018q0,.225,0,.449c0,.013-.024.036-.037.037s-.024,0-.037,0H357.86a.536.536,0,0,1-.093-.009.038.038,0,0,1-.025-.025.839.839,0,0,1-.008-.111q0-.553,0-1.106Z" transform="translate(-15923.672 -20592.939)" fill="#fff"/>
      <path id="Pfad_14305" data-name="Pfad 14305" d="M295.89,321.552q0-.6,0-1.2c0-.037,0-.074.006-.112a.05.05,0,0,1,.039-.035c.025,0,.05,0,.075,0h1.874a.343.343,0,0,1,.074.007.05.05,0,0,1,.026.024.077.077,0,0,1,.009.036c0,.137,0,.275,0,.412,0,.034-.014.065-.072.065h-.956l-.319,0c-.047,0-.064.02-.066.07,0,.012,0,.025,0,.037s0,.025,0,.037c0,.311,0,.358.025.366a1.261,1.261,0,0,0,.353.015c.25,0,.5,0,.75,0,.037,0,.075,0,.112,0a.056.056,0,0,1,.039.036c0,.069.008.138,0,.206a.643.643,0,0,1-.021.275.832.832,0,0,1-.26.013c-.281,0-.562,0-.843,0a.588.588,0,0,0-.111.008c-.015,0-.026.023-.038.036a.028.028,0,0,0-.005.017c0,.137,0,.275,0,.412a.06.06,0,0,0,.058.061c.056,0,.112,0,.168,0h1.031l.15,0a.057.057,0,0,1,.045.051c0,.006,0,.012,0,.019,0,.131,0,.262,0,.394,0,.05-.019.07-.065.071h-1.912l-.112,0a.056.056,0,0,1-.054-.062c0-.05,0-.1,0-.15q0-.562,0-1.125" transform="translate(-15866.334 -20542.875)" fill="#fff"/>
      <path id="Pfad_14306" data-name="Pfad 14306" d="M223.539,321.1c0,.187,0,.375,0,.562,0,.087,0,.175-.01.262a1.021,1.021,0,0,1-.663.9,1.49,1.49,0,0,1-.754.089,1.309,1.309,0,0,1-.464-.137,1.029,1.029,0,0,1-.559-.834,2.1,2.1,0,0,1-.012-.243q0-.674,0-1.349c0-.031,0-.062,0-.093a.053.053,0,0,1,.046-.05l.262,0h.3c.047,0,.072.023.073.065s0,.1,0,.15q0,.628,0,1.255a1.666,1.666,0,0,0,0,.187.532.532,0,0,0,.2.37.48.48,0,0,0,.237.1.642.642,0,0,0,.332-.027.5.5,0,0,0,.316-.43,1.445,1.445,0,0,0,.007-.206q0-.646,0-1.293c0-.181-.013-.179.169-.178h.45c.043,0,.064.024.065.073s0,.1,0,.15q0,.337,0,.674" transform="translate(-15796.969 -20542.869)" fill="#fff"/>
      <path id="Pfad_14307" data-name="Pfad 14307" d="M196,376.89h-.3a.031.031,0,0,1-.026-.04c.019-.046.037-.093.057-.138l1.015-2.355c.073-.168.045-.154.229-.154h.487a.076.076,0,0,1,.072.05l.276.656.764,1.811c.017.04.032.081.048.122a.039.039,0,0,1-.038.05h-.618a.072.072,0,0,1-.07-.051c-.046-.116-.091-.232-.137-.348a.379.379,0,0,0-.034-.066.053.053,0,0,0-.03-.02.244.244,0,0,0-.055-.005h-.993a.349.349,0,0,0-.056,0,.07.07,0,0,0-.056.044c-.015.034-.029.069-.043.1-.032.081-.065.162-.094.245a.122.122,0,0,1-.135.1c-.087-.005-.175,0-.262,0Zm1.137-1.007v0h.261c.025,0,.049,0,.074,0a.035.035,0,0,0,.027-.04c-.02-.059-.04-.117-.062-.175q-.122-.322-.247-.644a.726.726,0,0,0-.043-.082s-.011,0-.012,0a.359.359,0,0,0-.039.063q-.152.381-.3.763a.64.64,0,0,0-.02.072c0,.015.011.041.026.041l.335.01" transform="translate(-15773.414 -20592.941)" fill="#fff"/>
      <path id="Pfad_14308" data-name="Pfad 14308" d="M261.057,321.531q0-.581,0-1.161c0-.044,0-.087,0-.131a.055.055,0,0,1,.051-.046l.037,0c.368,0,.737,0,1.1,0a1.542,1.542,0,0,1,.425.061,1.026,1.026,0,0,1,.239.1.77.77,0,0,1,.361.482,1.17,1.17,0,0,1-.02.665.825.825,0,0,1-.41.489,1.228,1.228,0,0,1-.521.134c-.075,0-.15,0-.225,0h-.243c-.109,0-.111.014-.111.12q0,.225,0,.449c0,.044,0,.087,0,.131a.052.052,0,0,1-.047.049l-.337,0c-.274,0-.283,0-.291-.024a.837.837,0,0,1-.014-.278c0-.35,0-.7,0-1.049m.692-.384c0,.118,0,.236,0,.354,0,.063.017.082.073.082.131,0,.261,0,.392,0a.833.833,0,0,0,.148-.017.359.359,0,0,0,.293-.32.9.9,0,0,0,0-.186.333.333,0,0,0-.2-.274.484.484,0,0,0-.217-.048h-.429c-.043,0-.062.022-.062.072,0,.112,0,.224,0,.336" transform="translate(-15834.035 -20542.865)" fill="#fff"/>
      <path id="Pfad_14309" data-name="Pfad 14309" d="M186.883,319.823a2.056,2.056,0,0,1,.988.235.375.375,0,0,1,.078.051.069.069,0,0,1,.013.05.161.161,0,0,1-.02.052c-.041.084-.081.169-.124.252-.031.06-.044.131-.1.173a.559.559,0,0,1-.17-.073,2.084,2.084,0,0,0-.589-.178.574.574,0,0,0-.223.013.41.41,0,0,0-.053.018.175.175,0,0,0-.082.251.227.227,0,0,0,.091.091.971.971,0,0,0,.136.062c.106.037.213.07.32.105s.237.078.353.122a.843.843,0,0,1,.27.166.624.624,0,0,1,.209.367.739.739,0,0,1-.285.763,1.015,1.015,0,0,1-.462.192,1.95,1.95,0,0,1-1.458-.335l-.015-.011c-.057-.043-.065-.066-.035-.126q.091-.184.184-.368c.008-.017.02-.032.03-.047a.04.04,0,0,1,.049-.01c.041.028.082.057.123.085a1.8,1.8,0,0,0,.689.277.615.615,0,0,0,.332-.027.2.2,0,0,0,.133-.146.207.207,0,0,0-.075-.216.78.78,0,0,0-.149-.077c-.081-.031-.165-.057-.249-.081-.156-.045-.311-.091-.462-.151a.83.83,0,0,1-.321-.221.577.577,0,0,1-.149-.356.875.875,0,0,1,.016-.279.711.711,0,0,1,.267-.4,1.11,1.11,0,0,1,.5-.2c.092-.015.186-.017.245-.022" transform="translate(-15764.177 -20542.523)" fill="#fff"/>
      <path id="Pfad_14310" data-name="Pfad 14310" d="M279.278,373.958a1.631,1.631,0,0,1,1.129.384.165.165,0,0,1,.039.04c.008.015.016.042.009.05-.115.14-.232.278-.349.416a.04.04,0,0,1-.05,0c-.031-.03-.062-.062-.1-.09a.969.969,0,0,0-.394-.207.722.722,0,0,0-.759.287.811.811,0,0,0-.028.9.7.7,0,0,0,.583.357.746.746,0,0,0,.312-.053.97.97,0,0,0,.279-.151l.1-.082a.047.047,0,0,1,.052,0c.018.017.037.033.054.051.061.063.122.126.181.19.158.172.178.136-.03.3a1.594,1.594,0,0,1-.8.336,1.176,1.176,0,0,1-.206.006,1.432,1.432,0,0,1-.693-.2,1.322,1.322,0,0,1-.631-.931,1.371,1.371,0,0,1,.027-.612,1.288,1.288,0,0,1,.57-.763,1.356,1.356,0,0,1,.7-.23" transform="translate(-15849.708 -20592.713)" fill="#fff"/>
      <path id="Pfad_14311" data-name="Pfad 14311" d="M249.008,160.988a.534.534,0,0,1-.171-.073q-.629-.312-1.257-.627c-.174-.087-.12-.084-.29,0-.425.211-.849.424-1.273.636a.413.413,0,0,1-.155.063c-.008,0-.023-.014-.023-.022a.242.242,0,0,1,.013-.072q.166-.448.334-.894c.068-.181.141-.361.2-.543.043-.124.066-.1-.055-.2l-.043-.037-.945-.827a.343.343,0,0,1-.046-.056.016.016,0,0,1,0-.015.113.113,0,0,1,.036-.009l.281,0h1.031a1.149,1.149,0,0,0,.131,0,.065.065,0,0,0,.044-.029,1.444,1.444,0,0,0,.057-.138l.481-1.279c.015-.041.031-.082.048-.122,0-.007.015-.012.023-.015s.011.007.013.012c.024.057.05.114.072.172q.234.622.466,1.245c.013.035.026.07.041.1a.074.074,0,0,0,.07.052h1.275l.169,0c.016,0,.024.007.023.019s0,.014,0,.018c-.041.039-.081.078-.124.115l-.888.778a.85.85,0,0,0-.082.077.068.068,0,0,0-.015.051.672.672,0,0,0,.033.107l.511,1.368a.261.261,0,0,1,.031.126l-.021.021" transform="translate(-15819.431 -20391.303)" fill="#fff"/>
    </g>
    <path id="Pfad_14312" data-name="Pfad 14312" d="M296.2,215.017c.014,0,.024.01.02.023s-.017.016-.029.009a.077.077,0,0,1-.013-.012l.021-.021" transform="translate(-15866.597 -20445.352)" fill="#fcfdfd"/>
  </g>
</svg>
