<svg xmlns="http://www.w3.org/2000/svg" xmlns:xlink="http://www.w3.org/1999/xlink" width="1024" height="1024" viewBox="0 0 1024 1024"><defs><clipPath id="b"><rect width="1024" height="1024"/></clipPath></defs><g id="a" clip-path="url(#b)"><circle cx="512" cy="512" r="512" fill="#d9e0e7"/><path d="M511,229c-156.3,0-283,126.7-283,283S354.7,795,511,795,794,668.3,794,512,667.3,229,511,229Zm.2,427.4a167.26,167.26,0,0,0,21.4,12.3c-.2.5-.3,1-.5,1.4H404.7c-.1-.4-.1-.8-.2-1.2,5.7-2.3,11.4-4.6,17.2-6.8,8.4-3.2,13.8-8.7,17.1-17.5,10.9-29.4,18.8-59.6,25.9-90.1,4.7-20.4,8.8-40.9,13.3-61.3,1.2-5.2,0-8.9-4.7-11.9a177.03,177.03,0,0,0-18.9-10.8,402.662,402.662,0,0,1-59.6-34.7c-1.1-.8-2.3-1.6-3.4-2.4-1.5-1.1-2.8-2.3-1.7-4.3s2.9-.6,4.2-.2a346.153,346.153,0,0,0,69.6,16,384.761,384.761,0,0,0,75.1,1.9,419.175,419.175,0,0,0,106.8-21.9c1-.3,1.9-.8,3.1-.1.8,2.9-1.3,3.8-3.4,4.6-31.5,12.2-60.4,29.6-90.5,44.5-6.4,3.2-10.2,8.7-11.8,15.7q-17.7,78.6-35.4,157.2C506.3,651.5,507.5,654,511.2,656.4ZM467.1,369.3c5.5-13.5,15.6-22.8,28.3-29.1,17.9-8.9,36.6-11.4,55.8-5,31.1,10.5,38.9,42.7,16.2,66.4-12.9,13.4-32.2,21.3-49.5,21.3-16.1.2-28.2-3.1-38.9-11.1A35.749,35.749,0,0,1,467.1,369.3Z" fill="#fff"/></g></svg>