<svg xmlns="http://www.w3.org/2000/svg" xmlns:xlink="http://www.w3.org/1999/xlink" width="1024" height="1024" viewBox="0 0 1024 1024"><defs><clipPath id="b"><rect width="1024" height="1024"/></clipPath></defs><g id="a" clip-path="url(#b)"><circle cx="512" cy="512" r="512" fill="#d9e0e7"/><path d="M786.93,402.43l.86.4a15.631,15.631,0,0,0,2.06,1.31,69.929,69.929,0,0,1,19.34,12.72c2.73,2.52,5.11,5.41,7.64,8.14l-9.51-1.56-.49-.08-9.07-1.12-3.41-.2a15.61,15.61,0,0,0-6.65-.93l-2.36-.13a10.812,10.812,0,0,0-2.13-.68c-4.46-.47-8.93-.86-13.4-1.31q-8.3-.84-16.6-1.71c-.41,0-.83-.1-1.24-.13l-24.18-1.38c-.91-.05-1.83-.13-2.74-.2l-1.48-.26-4-.28-2.35-.08c-5-.12-10-.18-15-.37-3.65-.14-7.3-.45-11-.65-.91-.05-1.83,0-2.75,0H647.05c-5.47.25-10.95.54-16.42.75-2.82.11-5.65.06-8.48.08-.07-.91-.19-1.82-.19-2.73,0-5.33,0-10.66-.05-16a65.816,65.816,0,0,1,7.62-.91q34.68-.22,69.36-.26a65.889,65.889,0,0,1,10,.32c6.63,1,13.35.07,19.93,1.05,5,.74,10,.06,14.91,1,4.06.79,8.18.19,12.15,1,3.63.74,7.33.32,10.88,1,2.73.55,5.52.25,8.15.87,4,.93,8.17.38,11.95,2.19v.12Z" fill="#fff"/><path d="M684.44,532.7a31.877,31.877,0,0,1-3.46.38c-10.44.05-20.88,0-31.31.12-9.76.16-19.52.52-29.27.91-6.25.25-12.49.68-18.73,1.06-4.66.29-9.32.56-14,1-5.39.48-10.77,1.11-16.15,1.65-1.41.14-2.84.13-4.24.29-5.2.6-10.4,1.24-15.6,1.85-1.07.12-2.17.1-3.24.22-1.48.17-3,.42-4.43.64-.33.05-.64.2-1,.23l-10.9,1.22c-2.72.31-5.44.67-8.17.94a14,14,0,0,1-2.26-.14,10.526,10.526,0,0,1-.27-1.6q0-7.89,0-15.78c0-2,.32-2.18,2.34-2.42,3.14-.36,6.27-.78,9.4-1.23,3.79-.54,7.57-1.19,11.36-1.7,1.57-.21,3.17-.09,4.75-.27,6.62-.74,13.22-1.65,19.85-2.29,8.21-.8,16.45-1.43,24.67-2.07s16.62-1.28,24.94-1.79c3.58-.22,7.18,0,10.77-.2,17.1-.83,34.2-1,51.31-.9a5.05,5.05,0,0,1,3.46,1.06Q684.38,523.29,684.44,532.7Z" fill="#eaeef2"/><path d="M684.57,493c-1.4.13-2.8.36-4.21.38-11.85.14-23.71.18-35.56.37-7.84.12-15.68.36-23.52.67q-10,.39-20,1.07-13,.9-25.93,2-10.33.91-20.64,2.1c-4,.45-7.88,1.2-11.84,1.72-3.71.48-7.43.81-11.15,1.24a28.172,28.172,0,0,0-3.19.55,15.29,15.29,0,0,1-6.8,0c0-.6-.14-1.24-.14-1.88V486.44c0-2.45.22-2.62,2.64-3,4.45-.63,8.88-1.38,13.34-2,3.55-.48,7.12-.79,10.67-1.21,5-.6,10.09-1.25,15.14-1.85,1.24-.15,2.5-.17,3.74-.28,6.8-.63,13.6-1.32,20.4-1.9,3.66-.31,7.33-.45,11-.66,5.41-.31,10.82-.69,16.23-.93,9.5-.41,19-.85,28.5-1.07,12.26-.29,24.53-.35,36.79-.56a7.89,7.89,0,0,1,4.53,1.08Z" fill="#c5ced6"/><path d="M683.87,453.24c-1.08.08-2.15.23-3.23.23-14.27.11-28.54.13-42.81.33-7.25.1-14.49.47-21.73.82-6.32.3-12.67.48-19,1.2-4.4.51-8.81.58-13.2.95-5.22.44-10.41,1.15-15.61,1.75l-.75.08c-4.9.41-9.8.72-14.68,1.27-4,.44-7.87,1.18-11.81,1.78l-.5.07c-3.71.42-7.42.8-11.13,1.26-2.05.25-4.09.65-6.14.95a8.9,8.9,0,0,1-1.48-.07c-.23-6.21-.06-12.34-.11-18.62,1.85-.41,3.59-.85,5.35-1.18,2-.37,4.07-.7,6.12-1,3.87-.47,7.75-.83,11.62-1.32,4.43-.56,8.85-1.22,13.27-1.83.58-.08,1.16-.12,1.74-.16,2.64-.18,5.27-.34,7.91-.74,5.25-.78,10.58-1,15.88-1.39,2.64-.2,5.32.12,7.92-.77a10.868,10.868,0,0,1,3-.25c9.56-.42,19.15-.49,28.68-1.3,17.16-1.47,34.33-.59,51.49-.91h6.76c1,0,2,.21,3,.31-.17,1.48-.47,3-.49,4.44C683.86,443.9,683.88,448.57,683.87,453.24Z" fill="#7b848e"/><path d="M221.72,484.22a7.29,7.29,0,0,1,1.48-.6c2-.34,3.93-.65,5.9-.89s3.81-.35,5.71-.57l16.56-2c4.37-.55,8.73-1.15,13.09-1.69,1.24-.15,2.49-.19,3.73-.26,2.15-.12,4.35.2,6.38-.86a1.42,1.42,0,0,1,.74-.11c5.94.48,11.77-.93,17.67-1.11,3.48-.11,6.95-.64,10.43-.86,2.58-.16,5.18,0,7.76-.16,4.48-.24,9-.6,13.44-.9h2q15.15,0,30.3-.12c2.41,0,4.82-.32,7.23-.3,3.08,0,6.16.23,9.24.4a5.171,5.171,0,0,1,1.18.35c-1.28.63-2.55,1.3-3.85,1.89-1.13.52-2.29,1-3.59,1.48.37.34.48.53.61.55a59.385,59.385,0,0,1,13.88,4.34A50.43,50.43,0,0,1,393,489.32a39,39,0,0,1,3.65,3.66,15.718,15.718,0,0,1-3,.58c-12.51-.08-25-.3-37.54-.3-10,0-20-.16-30,.55-7.41.53-14.88.1-22.2,1-5.56.72-11.16.18-16.67,1.21a37.109,37.109,0,0,1-5.2.51c-3.08.13-6.17-.1-9.17.9a8.709,8.709,0,0,1-2.49.12c-2.83.06-5.67-.05-8.43.86a13.752,13.752,0,0,1-2.73.17c-2.14.23-4.28.54-6.42.77-2.48.27-5,.44-7.44.73q-6.67.77-13.33,1.63c-2.63.34-5.25.8-7.88,1.15a20.746,20.746,0,0,1-2.46,0c.11-1.71.32-3.42.32-5.13C221.89,493.28,221.78,488.75,221.72,484.22Z" fill="#b2becb"/><path d="M221.72,405.07c.8-1.09,2-1,3.15-1a11.79,11.79,0,0,0,4.89-.79,6.679,6.679,0,0,1,2.46-.23c1.9-.11,3.82.08,5.65-.79a6.6,6.6,0,0,1,2.46-.23,16.693,16.693,0,0,0,5.91-.79,5.55,5.55,0,0,1,2-.21c2.33-.08,4.66,0,6.91-.86a6.811,6.811,0,0,1,2.23-.17c2.49-.08,5,.17,7.39-.9a.58.58,0,0,1,.25,0c4.43.12,8.78-.67,13.17-1,3.64-.3,7.32-.2,10.92-1a8.351,8.351,0,0,1,1.5-.07c4.25-.17,8.49-.31,12.74-.51,6.9-.32,13.82-.44,20.69-1.08,6-.56,12-.32,18-.49,2.83-.08,5.66-.25,8.49-.29,1.32,0,2.65.24,4,.25s2.48-.16,3.72-.19,2.44,0,3.67.06a1.7,1.7,0,0,0,1.25,1.3,70,70,0,0,1,10,3.39,47.22,47.22,0,0,1,17.55,14.35c-1.15.11-2.3.31-3.45.31-16.11,0-32.22-.06-48.32.06-4.9,0-9.79.57-14.69.87h-2.25c-5.67.16-11.33.25-17,.51-4.82.22-9.62.62-14.43,1-4.64.33-9.29.65-13.92,1.07-6.78.61-13.59,1.12-20.33,2-3.05.41-6.16.5-9.13,1.1-2.56.51-5.1.54-7.64.87-3.36.44-6.69,1.14-10,1.73a4.355,4.355,0,0,1-.48.12l-7.43.4c.11-2,.32-4.09.33-6.13C221.89,413.45,221.79,409.26,221.72,405.07Z" fill="#b2becb"/><path d="M622,554.62a14.5,14.5,0,0,1,3.09-.75c9-.19,18,0,27-.54a208.071,208.071,0,0,1,25.45-.33c11.91.73,23.85-.09,35.7,1,6,.56,12,0,17.92.93,5.13.79,10.33.24,15.4,1.1,4.22.73,8.52.15,12.65,1,3.39.72,6.79.48,10.16.91,3.2.41,6.42.71,9.63,1.07,2.71.31,5.43.6,8.13,1,2,.27,3.92.64,5.87,1l-.78,1.28h0c-1.13.45-2.25,1-3.41,1.34-2.36.78-4.24,2.76-6.94,2.74-.4,0-.8.52-1.22.79-.25.16-.54.43-.78.41-2-.22-3.76.86-5.66,1.2-2.43.44-4.81,1.14-7.23,1.59-2.83.53-5.7.91-8.54,1.39-.29,0-.55.33-.82.5l-1.53.29c-2,0-4.09-.37-6,.79l-2.1.31-3.37.2-2.05.31c-1-.33-2-.68-2.87.23l-5.66.28h-1.95l-2.59-.27-1.49-.21-3-.29-2.4-.1c-4.24-.11-8.48-.17-12.72-.34-3-.12-5.95-.4-8.92-.61l-3.52-.07-6.47-.08a15.3,15.3,0,0,0-1.95-.24H649.37a15.515,15.515,0,0,0-1.95.24l-8.47.09-3,.06c-3.78.23-7.56.48-11.34.69-.9,0-1.81-.05-2.71-.09Q622,564,622,554.62Z" fill="#fff"/><path d="M360.38,572.12l-6.28.47a5.189,5.189,0,0,1-2.22.15c-7.17,0-14.34,0-21.51.12-4.15.1-8.28.66-12.42.85-3.5.16-7,0-10.5.15-3.06.14-6.11.55-9.17.83-.58.05-1.16,0-1.75.08-2.65.18-5.3.38-7.94.54a9.059,9.059,0,0,1-1.46-.14,51.421,51.421,0,0,0-6.1-.72h-56c-1,0-1.93-.08-3.08-.14V563.69c.36-1.1,1.33-.74,2.09-.88,1.38-.24,2.76-.51,4.13-.77.16,0,.32-.12.48-.14l10.13-1.11c.5-.05,1,0,1.5-.06,4.27-.6,8.53-1.28,12.81-1.82,2.47-.31,5-.39,7.46-.61,3.39-.31,6.78-.69,10.17-1,4.39-.38,8.78-.72,13.17-1.05s9-.5,13.42-1c6.88-.8,13.81-.62,20.7-1.08,25-1.67,50-.7,75.06-.84a3.74,3.74,0,0,1,2.92,1.1,9.63,9.63,0,0,1-.71,1,47.34,47.34,0,0,1-26.64,14.89c-2.41.53-4.88.72-7.32,1.13C361,571.48,360.7,571.88,360.38,572.12Z" fill="#b2becb"/><path d="M748.08,573.59l2.1-.31c1.69.59,3.37,1.18,5.22.71a47.688,47.688,0,0,1,5-1.15,29.987,29.987,0,0,0,4.52-.79c2.27-.68,4.81-.32,7.19-1.19,1.87-.69,4-.71,5.9-1.29a77.707,77.707,0,0,0,7.79-2.81c2.46-1,4.81-2.33,7.27-3.53l-.8-1h0l9.67.53a2.153,2.153,0,0,1,1,.15c1.38,1.11,3,.81,4.54.86a3.18,3.18,0,0,1,1.68.25c1.19.92,2.51.7,3.82.74,1.63,0,3.32-.3,4.8.83.33.26,1,.15,1.46.17,1.56,0,3.15-.24,4.55.83.33.26,1,.17,1.46.17,1.41,0,2.83,0,4.24-.07h0c0,.91.55,1.09,1.3,1.1,1.08,0,2.37-.28,3.19.21,1.43.84,2.85.7,4.33.82a8.193,8.193,0,0,1,2.09.62,3.73,3.73,0,0,0,3.54-.1h1c1,1.67,1.22,1.74,3.49,1h1.52c.86,1.63,1,1.68,3,1l2.53.1c1.29,2,2.59,2.32,4.6,1.12a.34.34,0,0,1,.39.09,2.55,2.55,0,0,0,2.78,1.64,6.392,6.392,0,0,1,1.69.27c.94.22,1.87.49,2.81.71.48.11,1,.07,1.47.19,2.1.58,4.19,1.2,6.29,1.8,1.17.34,2.32.74,3.51,1,2.07.42,4.19.63,6.23,1.13s3.78,1.34,5.7,1.85c3.36.9,6.83,1.4,10,2.91.39.19,1-.17,1.58-.28l1,.1a6.592,6.592,0,0,0,1.08,1.52c.56.45.84,0,.92-.59l1,.06a2.23,2.23,0,0,0,2.8,1.82,3.11,3.11,0,0,1,1.41.05c2.69,1.12,5.35,2.3,8.08,3.49.55,3.39.35,15.29-.36,17-.82-.32-1.62-.69-2.47-.94-1.64-.49-3.32-.85-4.95-1.36-2.72-.86-5.39-1.83-8.11-2.68-1.63-.51-3.31-.85-4.94-1.35s-3.22-1.14-4.86-1.59c-.47-.13-1.07.23-1.61.37l-1-.1c-.77-1.5-.87-1.54-2.47-.92l-1.54-.11c-.3-1.06-.79-1.73-2-.9l-1.54-.15c-.4-1.36-1.54-1.54-2.71-1.76-1.83-.35-3.67-.69-5.47-1.17-1.95-.52-3.83-1.33-5.79-1.78-2.21-.5-4.48-.73-6.73-1.1-.32-.05-.61-.25-.92-.33-.86-.22-1.72-.44-2.58-.63-.56-.12-1.29,0-1.68-.28-1-.81-2.17-.65-3.32-.76a9.81,9.81,0,0,1-2.33-.63,3.81,3.81,0,0,0-3.53.1h-1c-1-1.64-1.5-1.78-4-1l-1.53-.08c-.91-1.58-1-1.62-3-.92l-2-.09c-.92-1.58-1.05-1.62-3-.9l-2.53-.14c-1-1.53-1.24-1.58-3.47-.89l-2.55-.12c-.59-1.73-2.16-1.57-3.5-1.76-1-.14-2.21.27-3-.18-1.65-1-3.41-.53-5.06-.91a28.548,28.548,0,0,0-7.84-1,.38.38,0,0,1-.24-.06c-1.6-1.3-3.49-.77-5.29-.9a25.984,25.984,0,0,1-2.69-.34c-1-.18-2.05-.54-3.09-.63-1.41-.12-3.07.4-4.2-.18-2.35-1.2-4.72-.66-7.08-.86a7.669,7.669,0,0,1-2.18-.36,12.78,12.78,0,0,0-8-.18l-1.53-.06c-.33-.43-.64-1.21-1-1.23-2.17-.09-4.38-.62-6.51.27h-2.53c-.32-.43-.64-1.22-1-1.23-1.84,0-3.68.16-5.51.27l-6-.09,1.63-1.38h-3Z" fill="#b2becb"/><path d="M390.67,413.71a47.22,47.22,0,0,0-17.55-14.35,69.994,69.994,0,0,0-10-3.39,1.7,1.7,0,0,1-1.25-1.3c7.42,0,14.85.15,22.27.12q14.52,0,29,1c8.15.55,16.32.73,24.47,1.28,5.73.39,11.43,1.12,17.15,1.71l.5.06c5.06.44,10.13.8,15.18,1.33,4,.42,7.91,1.06,11.87,1.6.41.06.82.17,1.23.22,4,.43,8,.76,11.91,1.31,4.18.59,8.33,1.39,12.57,2.11.06.76.14,1.32.14,1.89v13.77c0,2.81-.64,3.46-3.43,3.07-3.53-.49-7-1.16-10.56-1.74l-.24-.05c-3.8-.43-7.6-.85-11.4-1.3-4.21-.51-8.42-1.05-12.62-1.58-1-.12-2-.27-3-.38-2.73-.3-5.45-.63-8.18-.86-5.81-.48-11.62-.9-17.43-1.34a21.293,21.293,0,0,1-2.49-.15,64.382,64.382,0,0,0-13.71-.85h-.51l-3.61-.4-1.48-.13-2-.24-2.36-.11c-5.58-.17-11.15-.31-16.73-.51-2.16-.08-4.31-.28-6.47-.42l-.14-.18-.19.12Z" fill="#fff"/><path d="M396.61,493a39,39,0,0,0-3.65-3.66,50.429,50.429,0,0,0-11.34-6.59,59.38,59.38,0,0,0-13.88-4.34c-.13,0-.24-.21-.61-.55,1.29-.53,2.46-1,3.59-1.48,1.3-.59,2.57-1.26,3.85-1.89,2.16-.13,4.31-.39,6.47-.38q9.27,0,18.53.19c3.08.07,6.16.34,9.24.53.92.06,1.83.15,2.75.2,8.91.45,17.83.81,26.74,1.39,5.65.37,11.28,1.08,16.91,1.65.42,0,.83.13,1.24.16,5.15.43,10.3.78,15.44,1.32,3.88.41,7.74,1.08,11.61,1.64.41.06.82.16,1.23.21,3.89.43,7.79.75,11.66,1.29s7.68,1.29,11.54,2a16.189,16.189,0,0,1,.21,1.71q0,7,0,14c0,2.77-.84,3.47-3.45,3.1-4.85-.7-9.74-1.22-14.56-2.08-5.58-1-11.18-1.65-16.82-2.13-6.72-.57-13.42-1.33-20.13-2L436,495.48c-.33,0-.66-.1-1-.11-9.08-.42-18.16-.77-27.24-1.27C404.05,493.89,400.33,493.36,396.61,493Z" fill="#fff"/><path d="M222,563.69v10.66c1.14.05,2.11.14,3.08.14,18.65,0,37.3-.07,56,0a51.421,51.421,0,0,1,6.1.72c-2.15.17-4.31.32-6.46.51-2.57.23-5.14.5-7.7.74-1.08.1-2.16.13-3.24.24-2.4.25-4.79.55-7.19.8-1.08.11-2.16.13-3.23.25-2.15.24-4.29.53-6.43.79-.82.1-1.65.17-2.48.26l-6.19.71c-1.08.12-2.16.2-3.23.33-1.57.2-3.13.43-4.69.65l-3,.39-4.94.71c-.41.06-.81.21-1.22.26-3.38.42-6.77.75-10.13,1.27-3.19.5-6.35,1.24-9.53,1.79-2.7.47-5.42.77-8.12,1.24-2.94.52-5.86,1.14-8.79,1.72-2.28.45-4.56.88-6.83,1.36-3,.63-6,1.31-9,1.93-2.19.45-4.39.82-6.58,1.26-1.87.37-3.74.73-5.59,1.2-3.37.86-6.71,1.83-10.08,2.69s-6.6,1.58-9.9,2.4c-1.52.38-3,.83-4.53,1.28q-4.62,1.39-9.23,2.82-4.37,1.36-8.73,2.78c-2.2.71-4.38,1.48-6.57,2.2a1.42,1.42,0,0,1-2-1,2.94,2.94,0,0,1-.11-1V589.46c2.05-.78,4.08-1.62,6.17-2.32,4-1.34,8-2.64,12-3.87,3-.91,6.05-1.65,9.06-2.52,3.17-.91,6.31-2,9.5-2.82,3.36-.89,6.77-1.57,10.16-2.37,2.1-.5,4.18-1.06,6.28-1.55,2.34-.54,4.68-1.05,7-1.55,2.19-.46,4.39-.88,6.58-1.33l9-1.88c2.52-.53,5-1.08,7.55-1.6,2.19-.45,4.38-.92,6.59-1.28,2.87-.47,5.76-.81,8.63-1.26,3.26-.51,6.51-1.12,9.77-1.61a8.463,8.463,0,0,1,2.25.19Z" fill="#fff"/><path d="M360.38,572.12c.32-.24.62-.63,1-.69,2.44-.4,4.91-.6,7.32-1.13a47.34,47.34,0,0,0,26.64-14.89,9.629,9.629,0,0,0,.71-1,10,10,0,0,1,2.77-.76c4.42.11,8.83.36,13.24.57,2,.1,4,.23,6,.34,7.66.41,15.33.7,23,1.24,5.31.38,10.6,1.11,15.9,1.68l1.24.13c4.89.42,9.8.74,14.68,1.28,4.05.44,8.07,1.17,12.11,1.71,3.79.5,7.6.89,11.4,1.37,3.05.38,6.12.75,9.15,1.28,2.47.42,2.64.75,2.64,3.32v13.27c0,2.72-1,3.43-3.6,2.8-1.37-.33-2.77-.53-4.17-.74-3.85-.6-7.71-1.18-11.56-1.77-.41-.06-.82-.15-1.23-.21-2.72-.35-5.44-.71-8.16-1s-5.45-.66-8.18-.91c-5.06-.48-10.12-.89-15.18-1.35q-1.86-.17-3.72-.41c-.74-.1-1.47-.33-2.22-.39-6.32-.44-12.64-.85-19-1.29-4.41-.31-8.81-.72-13.22-1-7.74-.41-15.49-.72-23.24-1.06h-1.25a20.19,20.19,0,0,0-2.2-.24h-26c-1.24,0-2.48.11-3.72.18Z" fill="#fff"/><path d="M816.84,425c-2.54-2.72-4.91-5.62-7.64-8.14a69.928,69.928,0,0,0-19.34-12.72,15.633,15.633,0,0,1-2.06-1.31c.36-.27.71-.77,1.07-.79a13,13,0,0,1,5.42.54,13.229,13.229,0,0,0,3.93.41c1.32.08,2.68-.17,3.85.74a1.82,1.82,0,0,0,1,.22,34.692,34.692,0,0,1,7.37.89,41,41,0,0,0,6.85,1c4.39.42,8.6,1.6,12.92,2.3,2.7.44,5.41.77,8.09,1.29s5.13,1.24,7.72,1.76c2.42.49,4.89.77,7.31,1.26s4.91,1.17,7.36,1.76a10.524,10.524,0,0,0,1.22.23,39.129,39.129,0,0,1,7.9,1.81c1.55.52,3.19.78,4.78,1.19,4,1,8,2.06,12,3.14,3.75,1,7.47,2.13,11.22,3.19,3.93,1.11,7.88,2.14,11.79,3.32,3.13.94,6.23,2,9.31,3.13a2,2,0,0,1,1.17,1.34c.08,5.66.05,11.33.05,17-2,1.07-3.57,0-5.16-.43-4.14-1.17-8.24-2.49-12.36-3.75s-8.08-2.55-12.17-3.68c-4.79-1.33-9.62-2.49-14.44-3.72-1.69-.43-3.38-.89-5.08-1.26-4.36-1-8.74-1.88-13.1-2.83-3.48-.76-6.95-1.58-10.43-2.33-3.25-.7-6.51-1.35-9.76-2s-6.5-1.3-9.77-1.84c-3-.5-6.08-.84-9.12-1.28a16.282,16.282,0,0,1-1.9-.44Z" fill="#b2becb"/><path d="M221.55,542.54a7.907,7.907,0,0,1-1.57.66c-1.87.35-3.76.64-5.64.92-3,.43-5.92.76-8.87,1.26-3.11.52-6.18,1.19-9.28,1.78-2.36.45-4.74.83-7.09,1.3-3,.6-6,1.27-9,1.87-2.35.47-4.72.85-7.06,1.32-2.11.42-4.21.89-6.31,1.37q-3.74.86-7.47,1.79c-3.22.8-6.43,1.62-9.64,2.43-2.24.57-4.48,1.13-6.72,1.72q-2.28.6-4.54,1.27c-4.43,1.31-8.87,2.61-13.28,4q-5.44,1.7-10.81,3.58c-2,.68-2.75.33-2.76-1.63V549.75c2.08-.8,4-1.65,6.05-2.31q6.11-2,12.28-3.87c2.92-.88,5.88-1.65,8.81-2.48,3.18-.9,6.35-1.83,9.53-2.73,1.51-.43,3-.84,4.57-1.19,3.55-.82,7.11-1.57,10.66-2.4,2.17-.51,4.32-1.14,6.48-1.67,1.85-.45,3.7-.89,5.57-1.26,4.15-.82,8.3-1.56,12.45-2.38,4.64-.91,9.26-1.91,13.9-2.77,2.93-.54,5.91-.87,8.86-1.34,3.11-.49,6.21-1,9.32-1.54a9.659,9.659,0,0,1,1.72,0c.06.73.18,1.46.19,2.19v14.38a13.8,13.8,0,0,1-.35,2.16Z" fill="#fff"/><path d="M221.72,484.22c.07,4.53.17,9.06.18,13.6,0,1.71-.21,3.42-.32,5.13a3,3,0,0,1-.87.47c-3,.43-5.91.81-8.87,1.24-2.38.35-4.75.74-7.13,1.14-4,.68-8,1.31-12,2.1-4.22.85-8.4,1.91-12.61,2.81-2.35.5-4.73.81-7.09,1.27-1.95.38-3.88.84-5.81,1.29-2.66.62-5.32,1.22-8,1.89-3.37.85-6.73,1.75-10.09,2.62s-6.56,1.66-9.82,2.55c-2.79.76-5.57,1.59-8.33,2.44s-5.51,1.75-8.26,2.65-5.65,1.82-8.45,2.81c-1.91.68-2.76.24-2.78-1.72V510.07c2.14-.8,4.18-1.65,6.28-2.34,4-1.32,8-2.58,12-3.81,2.84-.87,5.71-1.66,8.56-2.48,2.06-.59,4.12-1.19,6.19-1.76q4.55-1.23,9.12-2.41,3.72-1,7.46-1.84c2-.47,4-.86,6.06-1.32,2.58-.58,5.15-1.2,7.72-1.78,1.86-.42,3.71-.86,5.58-1.22,2.36-.46,4.75-.82,7.11-1.28,2.77-.54,5.52-1.17,8.28-1.72,2-.41,4.07-.79,6.11-1.12,2.86-.46,5.74-.87,8.61-1.3s5.91-.88,8.87-1.29C220.24,484.29,221,484.27,221.72,484.22Z" fill="#fff"/><path d="M221.56,463.36l-1,.52-1,.06L218,464l-.19-.13-.15.17c-4.09.65-8.19,1.26-12.27,2-2.94.52-5.84,1.2-8.77,1.77-2.36.45-4.74.8-7.1,1.26-2.84.55-5.67,1.16-8.51,1.74-2.11.44-4.22.86-6.32,1.33-2.82.62-5.63,1.29-8.45,1.92-2,.45-4.06.83-6.08,1.3-2.17.51-4.33,1.1-6.49,1.65-1.92.49-3.85.94-5.77,1.45q-5.13,1.38-10.25,2.82c-2.78.78-5.57,1.57-8.34,2.4s-5.67,1.75-8.49,2.68c-2.35.77-4.66,1.66-7,2.41-1.4.45-2.31-.21-2.32-1.7V470.34c3.32-1.14,6.57-2.28,9.84-3.38,2.9-1,5.81-1.93,8.73-2.83,2.76-.85,5.55-1.62,8.33-2.4,3.5-1,7-2,10.5-2.89,1.92-.51,3.87-.9,5.8-1.37,2.17-.53,4.33-1.1,6.49-1.65,1.76-.44,3.51-.93,5.29-1.31,3.88-.82,7.79-1.54,11.67-2.37,4.21-.89,8.4-1.9,12.62-2.75,2.68-.54,5.41-.86,8.1-1.34,2.94-.52,5.84-1.22,8.79-1.65,4.67-.67,9.37-1.18,14.05-1.76.06.9.18,1.81.19,2.71v12.77A31.163,31.163,0,0,1,221.56,463.36Z" fill="#fff"/><path d="M398.6,434.75c3.08.12,6.15.23,9.23.37,1.25.06,2.49.21,3.74.28,8.83.43,17.66.75,26.48,1.32,5.57.36,11.11,1.1,16.66,1.66.25,0,.49.08.74.1,5.23.45,10.47.81,15.68,1.36,3.88.41,7.74,1.06,11.61,1.6.41.06.82.17,1.23.21,4,.44,8,.77,11.91,1.33s8,1.34,12.11,2c.05.86.12,1.51.12,2.16v13.77c0,2.49-.71,3.2-3.19,2.86-3.38-.46-6.73-1.1-10.09-1.67a4.855,4.855,0,0,1-.49-.11c-3.8-.44-7.6-.87-11.39-1.33-4.13-.5-8.25-1-12.38-1.55-.5-.06-1-.19-1.48-.25q-5.59-.6-11.17-1.17c-3.48-.35-7-.76-10.44-1-6.82-.47-13.64-.85-20.46-1.24-6.49-.37-13-.7-19.48-1-3.16-.17-6.33-.32-9.49-.52a9,9,0,0,1-1.66-.43c.21-.95.4-1.9.64-2.85a32.5,32.5,0,0,0,1.39-5.48C398.68,441.71,398.56,438.22,398.6,434.75Z" fill="#fff"/><path d="M221.72,405.07c.06,4.19.17,8.39.17,12.58,0,2-.21,4.09-.33,6.13l-1,.42H220l-4.95.94-2.54.13-4.46,1-1,.06-5,1-1,.05c-2.86.45-5.74.86-8.59,1.37s-5.86,1.12-8.77,1.74c-2.43.51-4.83,1.1-7.25,1.65-2.1.48-4.2.93-6.3,1.42l-12.33,2.87c-2.1.48-4.21.9-6.3,1.42-1.92.48-3.81,1.08-5.72,1.62-1.67.47-3.35.9-5,1.39l-13.56,4q-5.69,1.69-11.37,3.46c-.71.22-1.35.66-2.06.87-1.47.41-2.28-.16-2.28-1.69V430.77c3.4-1.15,6.74-2.31,10.09-3.42,2.9-1,5.8-1.94,8.73-2.81s6.05-1.64,9.07-2.49c3.18-.9,6.35-1.85,9.53-2.76,1.51-.43,3-.88,4.55-1.22,3.55-.81,7.12-1.53,10.67-2.35,3.79-.88,7.55-1.87,11.34-2.72,2.5-.56,5-.94,7.56-1.42,1.87-.35,3.74-.7,5.6-1.09,2.68-.56,5.35-1.19,8-1.71,2.53-.49,5.08-.85,7.61-1.31q5.625-1.02,11.24-2.08l1.11-.06Z" fill="#fff"/><path d="M438.52,535.52l-2-.31-1-.07-5-.2h-3.44l-2.11-.19-1-.14-2.52-.34-1.49-.12-3.46-.16-8.43-.12-.9-.24a34.265,34.265,0,0,0,.74-4.81c.08-4.62,0-9.24,0-13.85a7.5,7.5,0,0,1,1.83-.41c2.42.07,4.83.24,7.25.37,7.83.41,15.66.73,23.47,1.28,5.4.38,10.77,1.09,16.15,1.65l1.74.16c4.73.42,9.46.74,14.18,1.27,4,.46,8.06,1.19,12.1,1.72,3.88.5,7.78.82,11.65,1.35,3.45.47,6.88,1.11,10.32,1.71a9.178,9.178,0,0,1,1.55.6v15.77c0,2.35-.85,3.14-3,2.79-3.2-.51-6.36-1.22-9.57-1.67-3.94-.55-7.92-.9-11.87-1.34h-1l-3.58-.8-1.88-.12-7.66-1-.85-.05-1.56-.08-2.51-.06-2.1-.31-1-.23-1-.2-.4-.05-2.51-.16-4-.11-1.6-.24-1-.21-6.49-.53h-2.46l-2.59-.23Z" fill="#fff"/><path d="M622,554.62q0,9.37-.06,18.75a28.667,28.667,0,0,1-2.89.41c-4.41.2-8.83.28-13.24.52q-7.1.39-14.19,1c-5,.43-9.92,1-14.88,1.51-1.24.12-2.49.17-3.74.28-4.39.39-8.86.42-13.15,1.3-4,.82-8.16.26-12.06,1.69a12.543,12.543,0,0,1-2.48.17c-1.55.21-3.09.5-4.63.77-.16,0-.32.12-.48.14l-10.13,1.13c-1.24.14-2.47.37-3.71.49-1.88.18-2.41-.25-2.59-2.14-.09-1,0-2,0-3v-11c0-2.44,1-3.54,3.3-3.77,3.79-.38,7.66-.35,11.33-1.22,2.72-.65,5.58-.2,8-1.06,2.88-1,5.76-.56,8.6-1.08,4.15-.76,8.35-1.21,12.55-1.7,2.06-.24,4.15-.26,6.23-.4,4.8-.34,9.61-.68,14.41-1.07,1.57-.13,3.12-.49,4.69-.6,2.49-.18,5-.19,7.49-.37,2.06-.15,4.12-.44,6.18-.68.74-.08,1.48-.24,2.23-.25,3.59,0,7.18-.08,10.77-.06A20.828,20.828,0,0,1,622,554.62Z" fill="#b2becb"/><path d="M621.9,396.06c0,5.33,0,10.66.05,16,0,.91.13,1.82.19,2.73l-10.47.62c-6.15.36-12.29.68-18.44,1.09q-6.09.4-12.18,1c-4.71.48-9.41,1.08-14.11,1.61-1.16.13-2.32.17-3.48.31-2.06.24-4.11.53-6.16.79-.74.09-1.49.16-2.23.2-2.23.12-4.49-.15-6.64.86a7.93,7.93,0,0,1-2.22.17c-1.81.23-3.61.51-5.41.75-.82.11-1.65.15-2.47.27-1.89.26-3.77.57-5.66.79-2.39.28-4.79.57-7.19.69-.47,0-1-.63-1.47-1a1.05,1.05,0,0,1-.19-.71V406.46c0-1,.77-1.38,1.72-1.39,3.14,0,6.11-1.56,9.31-1.08,2.33-1.22,5-.45,7.3-1.11,2.88-.82,5.88-.28,8.58-1.05,2.9-.83,5.84-.26,8.57-1,3.37-.89,6.85-.26,10.05-1.08s6.07-.62,9.11-.83a3.289,3.289,0,0,0,1-.1c3-1.26,6.24-.75,9.38-.91,1.24-.06,2.48-.24,3.73-.34l7.68-.65c3.39-.3,6.77-.75,10.17-.87C614.23,395.88,618.07,396,621.9,396.06Z" fill="#b2becb"/><path d="M827.78,526.8c2.59.48,5.33,0,7.79,1.25a2.372,2.372,0,0,0,.73.16c2.61.38,5.24.65,7.84,1.14,2.35.44,4.65,1.17,7,1.68,2.75.6,5.52,1.08,8.28,1.64,1.85.37,3.74.65,5.55,1.19a44.55,44.55,0,0,0,7.84,1.92,41,41,0,0,1,5.28,1.29c2.3.58,4.62,1.12,6.91,1.73,2.77.74,5.52,1.52,8.27,2.33,1.81.53,3.6,1.12,5.4,1.68,3,.94,6,1.87,9,2.82l12.13,3.87a10.2,10.2,0,0,1,.26,1.63q0,7.38,0,14.77v.5c-.13,1.61-.5,2-2,1.58-2-.5-4-1.13-6-1.74-5.47-1.67-10.93-3.37-16.41-5-4.28-1.29-8.56-2.57-12.88-3.72-3.35-.89-6.76-1.56-10.14-2.35-3.72-.87-7.43-1.79-11.15-2.64-2.75-.62-5.53-1.14-8.28-1.74-2.42-.54-4.82-1.2-7.25-1.7s-5-.89-7.56-1.34c-.81-.14-1.62-.29-2.43-.48-.4-.09-.78-.34-1.18-.4-2.86-.41-5.78-.59-8.59-1.22a37.5,37.5,0,0,0-7.37-1.05c-.55,0-1.08-.82-1.62-1.27l-.05-.67.09-.1.39-.39.13-.11.37-.37c1.13-1.52,2.37-3,3.38-4.58C823.66,533.69,825.7,530.23,827.78,526.8Z" fill="#b2becb"/><path d="M829.84,448.23a7.75,7.75,0,0,1,5.36.49,1.441,1.441,0,0,0,.47.16c2.69.4,5.38.77,8.07,1.19a14.5,14.5,0,0,1,1.9.46c.39.12.76.44,1.14.45,3.25,0,6.26,1.11,9.35,2,2.28.63,4.7.71,7,1.21s4.42,1.19,6.63,1.77c1.83.48,3.68.9,5.52,1.35,3.05.75,6.12,1.45,9.15,2.27,3.32.9,6.59,2,9.91,2.87,2.93.8,5.9,1.43,8.83,2.25,2.21.62,4.37,1.38,6.54,2.13,3.34,1.15,6.67,2.35,10.18,3.59v17.9c-1.66.85-3.16.13-4.63-.32-4.2-1.28-8.38-2.62-12.56-3.95-2.68-.85-5.34-1.72-8-2.54-1.67-.51-3.36-.95-5-1.39-3.54-.92-7.07-1.87-10.63-2.73-4-1-8.09-1.84-12.13-2.81-2.17-.52-4.3-1.18-6.47-1.7-2-.48-4.05-.85-6.08-1.28-2.84-.59-5.68-1.23-8.53-1.76-2.68-.5-5.38-.95-8.08-1.32a4.42,4.42,0,0,1-3.1-1.39l-.63-1.68c-.38-2.11-.65-4.25-1.17-6.33C831.92,455.47,830.85,451.86,829.84,448.23Z" fill="#b2becb"/><path d="M835.27,489a5.9,5.9,0,0,1,5.27.35,1.221,1.221,0,0,0,.47.17c2.59.39,5.2.72,7.78,1.17,1,.18,2,.7,3.05.9,2.25.44,4.53.69,6.77,1.16s4.64,1.17,7,1.72,4.68,1.06,7,1.6c1.52.35,3.06.65,4.57,1.06,2,.54,3.92,1.18,5.89,1.74,1.57.45,3.17.81,4.74,1.25,2.12.58,4.22,1.2,6.33,1.8,1.34.38,2.68.74,4,1.16,4.4,1.39,8.78,2.81,13.18,4.19,2.83.89,5.68,1.71,8.59,2.57.06.63.16,1.12.16,1.6V526.2c0,2.3-.26,2.55-2.48,1.94-3-.83-6-1.85-9.05-2.76-4.28-1.29-8.56-2.55-12.84-3.83-2.93-.88-5.84-1.81-8.78-2.63S881,517.4,878,516.67c-3.87-.95-7.74-1.9-11.63-2.75-4.44-1-8.91-1.84-13.36-2.79-2.34-.5-4.65-1.13-7-1.63a57.456,57.456,0,0,0-7.05-1.31,12.78,12.78,0,0,1-5.18-1.41A125.768,125.768,0,0,0,835.27,489Z" fill="#b2becb"/><path d="M684.57,493V474.2c4,0,8-.11,12-.12a113.9,113.9,0,0,1,14.44.81c4.36.54,8.84.11,13.26.24,1.81.05,3.62.44,5.43.66a21.056,21.056,0,0,0,2.22.24c2.75.05,5.51.05,8.27.08a6.159,6.159,0,0,1,2,.09c3.64,1.35,7.43.68,11.15.94,1.21.08,2.39.49,3.6.67,1,.15,2,.15,3,.28,1.22.16,2.43.38,3.65.58a2,2,0,0,1,.14.47,72.824,72.824,0,0,1-.47,15.81,10.863,10.863,0,0,0,.13,2.4c-1.39,0-2.8,0-4.18-.08-1.15-.1-2.28-.54-3.43-.61-6.72-.42-13.44-.76-20.15-1.16-1.32-.08-2.64-.28-4-.44s-2.47-.33-3.71-.44c-.74-.07-1.5,0-2.25,0-6.07-.15-12.12-.22-18.19-.79-6.45-.61-13-.21-19.49-.3A26.564,26.564,0,0,1,684.57,493Z" fill="#b2becb"/><path d="M829.84,448.23c1,3.63,2.08,7.24,3,10.88.52,2.08.79,4.22,1.17,6.33-.22.8-.63,1.36-1.56,1.23-3.33-.47-6.66-.93-10-1.43-1-.16-2.07-.45-3.11-.65a40.931,40.931,0,0,0-4.1-.73c-1.38-.13-2.76,0-4.15,0l-1.26-.16c-1.54-1.58-3.4-1.18-5.25-.84l-2.26-.13c-1.36-1.45-3-1.32-4.74-.9l-1.68-.08a13.67,13.67,0,0,0-6.26-1.3,41.627,41.627,0,0,1-4.4-.63c-1-.11-2.11,0-3.17-.05l-2.76-.1c-2-.69-4-1.63-6.25-.92l-1.75-.07c-1.94-.37-3.87-.82-5.82-1.09a15.709,15.709,0,0,0-2.93.13l-1.83-.08-1.5-1.76a17.405,17.405,0,0,0-.77-2.07c-3.29-6.35-8-11.29-14.66-14.12-2-.85-4.07-1.65-6.1-2.48l2.94-.51,4.06.35c1.81,1.69,3.89,1,5.93.66,2.29.09,4.58.14,6.87.28a6.061,6.061,0,0,1,1.58.56,2.65,2.65,0,0,0,3.07.19l6.1.31c1.12,1.28,2.47,1.26,3.92.7l5.6.31a2.06,2.06,0,0,0,2.92.69l5.1.3,3.13.73,4.89.27c.94.66,1.87,1.35,3.11.77l4.91.28,2.57.77,3.95.2,2.1.3,4.92.73,2.53.82,3.48.18,2.85,1C826.16,447.21,828.25,446.51,829.84,448.23Z" fill="#fff"/><path d="M827.78,526.8c-2.08,3.43-4.12,6.9-6.27,10.29-1,1.6-2.25,3.06-3.38,4.58l-.37.37-.13.11-.39.39-.09.1a8.55,8.55,0,0,1-2,.27,98.991,98.991,0,0,1-11.82-1.36,46.61,46.61,0,0,0-5.86-.79c-.89-.08-1.76-.47-2.64-.52-1.86-.12-3.73-.11-5.59-.16l-1.85-.13c-1.83-1.85-4-1.24-6.17-.89l-2.47-.18c-1.82-1.66-3.94-1.22-6-.85h-1.43a37.893,37.893,0,0,0-4.49-1.13,19,19,0,0,0-3.6.17H761.3c-2-.4-4-.92-6-1.17a19.24,19.24,0,0,0-3.61.2l-5-.13a13.58,13.58,0,0,0-8.26-.91l-4.77-.12a3.059,3.059,0,0,0-.87-.39c-2.7-.27-5.41-.5-8.11-.74-.7-.06-1.58.16-1.63-1h3.57c2,.53,3.93.58,5.65-.81l2.37-.19c1.2.31,2.35.43,3.18-.77l.83-.19,1-.09.84-.1,1.23-.76h0c.83-.07,1.83.38,2.33-.73a23,23,0,0,0,8.3-5.73c1.69-1.79,3.11-3.83,4.65-5.76a23.2,23.2,0,0,1,2.9.12c1.32.1,2.65.21,4,.36,2.38.27,4.76.58,7.14.87h.5c4.63.42,9.27.74,13.88,1.29,3.94.47,7.84,1.21,11.77,1.81a19.032,19.032,0,0,0,2,.15c2.07.11,4.19-.09,6.12.92a1.5,1.5,0,0,0,.49.07c3.45.42,7,.61,10.35,1.32C820,525.34,824,525.33,827.78,526.8Z" fill="#fff"/><path d="M763.35,497.41a10.863,10.863,0,0,1-.13-2.4,72.827,72.827,0,0,0,.47-15.81,2,2,0,0,0-.14-.47c2.14.05,4.28.08,6.41.18.65,0,1.28.36,1.93.41a72.4,72.4,0,0,1,8.9.95c4.05.78,8.25.81,12.36,1.33,3.69.47,7.34,1.17,11,1.76.25,0,.49.1.74.12,3.7.44,7.42.78,11.1,1.34,3.09.47,6.13,1.23,9.21,1.78,2.6.46,5.22.89,7.84,1.16a2.46,2.46,0,0,1,2.22,1.29,125.629,125.629,0,0,1-1.47,17.74l-1.47.08-2.85-.24-3.68-.85-1.86-.11c-1.79-.34-3.57-.71-5.36-1-3.18-.56-6.36-1.08-9.54-1.62-.33-.06-.65-.17-1-.21-3.7-.44-7.41-.85-11.11-1.33s-7.55-1-11.33-1.57c-.41-.06-.81-.2-1.22-.24-4.62-.46-9.24-.88-13.86-1.35-2-.2-3.95-.47-5.92-.71l-.12-.13-.15.11Z" fill="#fff"/><path d="M737.71,437.18c2,.82,4.08,1.62,6.1,2.48,6.7,2.82,11.37,7.76,14.66,14.12a17.393,17.393,0,0,1,.77,2.07l-.17.94c-1.63,1.42-3.24.25-4.86,0h0a39,39,0,0,1-12.52-1h0c-1.23.05-2.45.16-3.68.15a31.084,31.084,0,0,1-3.2-.23c-2.78-.28-5.56-.58-8.33-.87h-.15c-1.16,0-2.31.08-3.47.08-.58,0-1.15-.17-1.73-.19l-24.9-.7q-5.48-.16-11-.37a7,7,0,0,1-1.43-.36c0-4.67,0-9.34.08-14a38.4,38.4,0,0,1,.49-4.44,7.278,7.278,0,0,1,1.44-.29c6,0,12.08-.5,18,.17,7.23.82,14.44.65,21.66.91,1.8.06,3.57.72,5.37.87,2.16.18,4.33.11,6.5.15Z" fill="#b2becb"/><path d="M407.88,514.93c0,4.62.12,9.24,0,13.85a34.267,34.267,0,0,1-.74,4.81l-6.45-.21c-.91,0-1.83-.12-2.74-.13l-55.2-.09h-8.74a10.881,10.881,0,0,1-1.68-.27,29.472,29.472,0,0,0,3.54-.91,14.45,14.45,0,0,0,6.59-5.57,13.88,13.88,0,0,0,2.83-8.54c-.06-1.33,0-2.67-.05-4a9.8,9.8,0,0,1,1.23-.18c5.75-.15,11.5-.42,17.25-.39q19.27.11,38.54.5a31.417,31.417,0,0,1,5.62,1.13Z" fill="#b2becb"/><path d="M221.56,463.36a31.353,31.353,0,0,0,.33-3.19V447.4c0-.9-.12-1.81-.19-2.71a5.249,5.249,0,0,1,1.4-.68c5-.75,10-1.46,15-2.17.74-.1,1.48-.17,2.23-.21,1.9-.09,3.8,0,5.63-.8a7.871,7.871,0,0,1,2.71-.21c2-.09,4,.15,5.86-.86a1.251,1.251,0,0,1,.48-.1l13.36-1.09a45.479,45.479,0,0,0,5.44-.5,43.38,43.38,0,0,1,10.91-.39q.07,9.34.13,18.69c-1.8.22-3.61.43-5.41.66-2,.25-3.93.59-5.9.77-1.74.16-3.49.1-5.23.25s-3.28.43-4.92.65c-.82.11-1.64.25-2.46.29-2.57.11-5.15-.12-7.64.87a9.921,9.921,0,0,1-2.47.17c-2.06.23-4.11.5-6.16.75-.82.1-1.64.22-2.47.25-1.82.07-3.68-.13-5.36.84a1.23,1.23,0,0,1-.48.12q-5.565.57-11.12,1.12C224,463.22,222.79,463.27,221.56,463.36Z" fill="#b2becb"/><path d="M398.6,434.75c0,3.47.09,7-.16,10.41a32.509,32.509,0,0,1-1.39,5.48c-.24.94-.43,1.9-.64,2.85a12.581,12.581,0,0,1-5.92.24,12.4,12.4,0,0,0-2.49-.09H340c-1.15,0-2.29-.2-3.44-.3a24.458,24.458,0,0,1,.66-3.64c1.14-3.37.14-6.51-1-9.58a28.9,28.9,0,0,0-2.54-4.39c.09-1.14.89-1.24,1.78-1.24h7c4.83,0,9.65,0,14.48-.05,1.66,0,3.31-.31,5-.3q17.59.16,35.18.41A10.218,10.218,0,0,1,398.6,434.75Z" fill="#b2becb"/><path d="M726.65,532.69h-3.56c-4.25,0-8.49,0-12.74.13a6.89,6.89,0,0,0-2,.75c-7.48-.83-15-.21-22.48-.45a5.379,5.379,0,0,1-1.38-.43q-.06-9.41-.12-18.82c1-.06,2-.17,3-.17,5.16,0,10.33,0,15.49.05a31.381,31.381,0,0,1,5.45.4c4.71.89,9.46.43,14.18.57a56.8,56.8,0,0,1,8.91.8c2.74.51,5.64.21,8.47.24a14.651,14.651,0,0,1,5.65.74,6.9,6.9,0,0,0,2.21.22c2.57.13,5.15.23,7.72.39a7.841,7.841,0,0,1,1.63.46c-1.54,1.93-3,4-4.65,5.76a23,23,0,0,1-8.3,5.73l-2.33.73h0l-1.23.76-.84.1-1,.09-.83.19-3.18.77-2.37.19Z" fill="#b2becb"/><path d="M345.28,513.88c0,1.33,0,2.67.05,4a13.88,13.88,0,0,1-2.83,8.54,14.451,14.451,0,0,1-6.59,5.57,29.471,29.471,0,0,1-3.54.91l-4.47.22-1.5.12-4,.38c-3,0-6.08,0-9.13.08-1.31,0-2.63.17-3.94.25l-4,.17-1.5.13-2,.32-1,.12-2.11.2h-6.44l-7.48-.09q-.05-9-.11-18a19.915,19.915,0,0,1,3.29-.77c11-.7,22.05-1.48,33.09-2,7.89-.34,15.79-.27,23.69-.37a1.89,1.89,0,0,1,.52.22Z" fill="#fff"/><path d="M224.13,523.37l2.53-.12c.77.69,1.27.55,1.48-.48l5.55-.51c1.89.72,2,.68,3-.84l3.55-.15a35.79,35.79,0,0,0,4,.27c.34,0,.66-.77,1-1.19l3.53-.11a35.831,35.831,0,0,0,4,.29c.34,0,.65-.79,1-1.21l3.53-.1c1.78.9,3.67.43,5.5.31.35,0,.66-.79,1-1.21l2.52-.1c2.29,1,4.68.39,7,.31.34,0,.66-.8,1-1.23l2-.1a20.547,20.547,0,0,0,2.58.46c1.37.08,2.76,0,4.43,0,0,4.21.06,8.08,0,11.94,0,2.13-.31,4.26-.48,6.38l-6,.13a32.774,32.774,0,0,0-3.6-.24c-.3,0-.58.7-.87,1.07l-6.55.18c-2-.73-2.55-.64-3.47.52-2,.89-4,.56-6.05.48a35.789,35.789,0,0,0-4-.27c-.34,0-.65.78-1,1.19l-3,.09c-1.5-.11-3-.3-4.51-.27-.33,0-.65.79-1,1.22l-2.53.07c-1.24-.13-2.48-.32-3.72-.34-.23,0-.48.67-.71,1l-3.07.33a5.85,5.85,0,0,0-5.2,0,4.89,4.89,0,0,1-3.6.25,6.351,6.351,0,0,1-.19-1q0-7.335,0-14.67a12.9,12.9,0,0,1,.35-2.35Z" fill="#b2becb"/><path d="M333.74,435.72a28.9,28.9,0,0,1,2.54,4.39c1.14,3.07,2.14,6.21,1,9.58a24.462,24.462,0,0,0-.66,3.64c-5.56.37-11.11.89-16.68,1.08-6.07.21-12.15,0-18.18,1-1.47.24-3,0-4.49.16-3.06.23-6.12.55-9.18.79-1.07.08-2.14,0-3.22,0q-.07-9.35-.13-18.69a31.8,31.8,0,0,1,4.57-1q15.915-1.005,31.84-1.85c2.9-.16,5.82-.16,8.72-.31a5.07,5.07,0,0,1,3.87,1.21Z" fill="#fff"/><path d="M891.51,599.79c.54-.14,1.14-.5,1.61-.37,1.64.44,3.23,1.09,4.86,1.59s3.32.84,4.94,1.35c2.72.85,5.39,1.83,8.11,2.68,1.63.51,3.31.87,4.95,1.36.84.25,1.65.62,2.47.94.7-1.69.9-13.6.36-17-2.74-1.19-5.4-2.37-8.08-3.49a3.11,3.11,0,0,0-1.41-.05c-1.43.13-2.46-.32-2.8-1.82a68.312,68.312,0,0,1,11,3.52,22.078,22.078,0,0,0,2.3.65,9.474,9.474,0,0,1,.26,1.58v15.26c0,2.13-.86,2.79-2.81,2.19q-12.36-3.86-24.69-7.81a6.137,6.137,0,0,1-1.07-.58Z" fill="#63bfe6"/><path d="M772.77,577.75a12.78,12.78,0,0,1,8,.18,7.669,7.669,0,0,0,2.18.36c2.36.2,4.73-.34,7.08.86,1.13.58,2.79.06,4.2.18,1,.09,2.06.45,3.09.63a26,26,0,0,0,2.69.34c1.79.13,3.69-.4,5.29.9a.38.38,0,0,0,.24.06,28.555,28.555,0,0,1,7.84,1c1.65.38,3.41-.1,5.06.91.74.45,2,0,3,.18,1.34.19,2.92,0,3.5,1.76-3-.52-6-1.09-9-1.55-3.2-.49-6.41-.87-9.61-1.3-.74-.1-1.47-.22-2.21-.34a6.364,6.364,0,0,1-.73-.16l-11.84-1.52h-.5c-4-.55-8-1.11-12.06-1.64-1.24-.16-2.49-.21-3.72-.37C774.35,578.11,773.56,577.91,772.77,577.75Z" fill="#63bfe6"/><path d="M902.48,583.89c-.53.11-1.18.47-1.58.28-3.19-1.51-6.66-2-10-2.91-1.93-.51-3.77-1.37-5.7-1.85s-4.16-.71-6.23-1.13c-1.19-.24-2.34-.65-3.51-1-2.1-.6-4.19-1.22-6.29-1.8-.47-.13-1-.09-1.47-.19-.94-.21-1.87-.49-2.81-.71a6.387,6.387,0,0,0-1.69-.27,2.55,2.55,0,0,1-2.78-1.64c2.9.56,5.83,1,8.71,1.71,3.35.8,6.64,1.85,10,2.72,1.9.5,3.84.84,5.76,1.27,1.61.36,3.22.69,4.8,1.15q5.72,1.65,11.4,3.43a6.441,6.441,0,0,1,1.39.94Z" fill="#63bfe6"/><path d="M847.92,589.27a3.81,3.81,0,0,1,3.53-.1,9.806,9.806,0,0,0,2.33.63c1.15.11,2.29-.06,3.32.76.39.31,1.11.16,1.68.28.87.18,1.73.4,2.58.63.31.08.61.28.92.33,2.24.37,4.52.59,6.73,1.1,2,.45,3.84,1.25,5.79,1.78,1.8.48,3.64.82,5.47,1.17,1.17.22,2.31.4,2.71,1.76-1.61-.33-3.23-.61-4.82-1-4.79-1.22-9.55-2.57-14.36-3.7-5.14-1.2-10.33-2.21-15.49-3.31A.974.974,0,0,1,847.92,589.27Z" fill="#63bfe6"/><path d="M224.13,523.37a12.9,12.9,0,0,0-.48,2.41q0,7.335,0,14.67a6.352,6.352,0,0,0,.19,1,4.89,4.89,0,0,0,3.6-.25,5.85,5.85,0,0,1,5.2,0c-3.67.68-7.27,1.89-11.09,1.33a13.73,13.73,0,0,0,.35-2.16q0-7.185,0-14.38c0-.73-.12-1.46-.19-2.19C222.37,522.85,223.28,523.28,224.13,523.37Z" fill="#b2becb"/><path d="M829.44,566.71c-1.41,0-2.83.06-4.24.07-.49,0-1.12.09-1.46-.17-1.4-1.07-3-.79-4.55-.83-.49,0-1.12.09-1.46-.17-1.48-1.13-3.17-.78-4.8-.83-1.31,0-2.64.18-3.82-.74a3.179,3.179,0,0,0-1.68-.25c-1.56-.05-3.17.25-4.54-.86-.22-.18-.64-.13-1-.15l-9.67-.53L793,561c.64.05,1.29.08,1.92.16,1.73.21,3.45.42,5.17.66,1.22.17,2.44.38,3.66.59.24,0,.47.2.71.24,3.09.41,6.18.84,9.27,1.18,1.39.15,2.79,0,4.12.74a5.109,5.109,0,0,0,2.19.28,9.6,9.6,0,0,1,4.1.75c1,.48,2.28.22,3.43.3C828.32,565.92,829.18,565.68,829.44,566.71Z" fill="#63bfe6"/><path d="M282.75,536c.17-2.13.44-4.25.48-6.38.08-3.86,0-7.73,0-11.94-1.67,0-3.05.06-4.43,0a20.558,20.558,0,0,1-2.58-.46l8.48-.34q.05,9,.11,18a1.46,1.46,0,0,1-2.06,1.12Z" fill="#b2becb"/><path d="M789.27,540.07c1.87,0,3.73,0,5.59.16.89.06,1.75.44,2.64.52a46.608,46.608,0,0,1,5.86.79,98.989,98.989,0,0,0,11.82,1.36,8.554,8.554,0,0,0,2-.27v.67c-2.46,1.08-4.9.15-7.32-.13-4.36-.51-8.71-1.16-13-1.81C794.3,541,791.79,540.5,789.27,540.07Z" fill="#fff"/><path d="M708.3,533.59a6.89,6.89,0,0,1,2-.75c4.24-.1,8.49-.1,12.74-.13,0,1.14.93.92,1.63,1,2.7.24,5.41.48,8.11.74a3.061,3.061,0,0,1,.87.39,26.922,26.922,0,0,1-4.4.14,135.5,135.5,0,0,0-19.8-1.15A5.7,5.7,0,0,1,708.3,533.59Z" fill="#fff"/><path d="M811.11,463.82c1.38,0,2.78-.08,4.15,0a32.649,32.649,0,0,1,4.1.73c1,.2,2.06.49,3.11.65,3.33.5,6.66,1,10,1.43.93.13,1.34-.43,1.56-1.23l.63,1.68c-.45.17-.92.55-1.33.49-2-.27-4.08-.65-6.12-1-3-.49-6-.94-9.06-1.46C815.78,464.77,813.45,464.27,811.11,463.82Z" fill="#fff"/><path d="M361.53,572.52c1.24-.06,2.48-.17,3.72-.18h26a20.22,20.22,0,0,1,2.2.24,8.6,8.6,0,0,1-1.44.24h-29a7.466,7.466,0,0,1-1.48-.3Z" fill="#fff"/><path d="M843.86,569.34a3.73,3.73,0,0,1-3.54.1,8.19,8.19,0,0,0-2.09-.62c-1.47-.12-2.9,0-4.33-.82-.82-.48-2.11-.19-3.19-.21-.76,0-1.33-.19-1.3-1.1,3.26.41,6.53.74,9.77,1.28a38.142,38.142,0,0,1,4.68,1.37Z" fill="#63bfe6"/><path d="M782.08,459.73a30.443,30.443,0,0,1,3.17.05c1.47.15,2.93.59,4.4.63a13.671,13.671,0,0,1,6.26,1.3,8.589,8.589,0,0,1-1.68.13c-2.47-.28-4.94-.54-7.4-1A42.9,42.9,0,0,1,782.08,459.73Z" fill="#fff"/><path d="M738.47,535a13.58,13.58,0,0,1,8.26.91,3.629,3.629,0,0,1-1.18.24C743.18,535.75,740.82,535.35,738.47,535Z" fill="#fff"/><path d="M751.7,536a19.246,19.246,0,0,1,3.61-.2c2,.25,4,.77,6,1.17a17.85,17.85,0,0,1-3.14.13C756,536.83,753.85,536.38,751.7,536Z" fill="#fff"/><path d="M274.23,517.3c-.33.43-.64,1.22-1,1.23-2.34.07-4.72.64-7-.31a4.62,4.62,0,0,1,1.12-.4C269.65,517.62,271.94,517.47,274.23,517.3Z" fill="#b2becb"/><path d="M763.75,576.74c2.13-.89,4.34-.37,6.51-.27.34,0,.65.8,1,1.23Z" fill="#63bfe6"/><path d="M748.08,573.59l-.73.68h3l-1.63,1.38c-1.55-.17-3.33.18-4-1.86Z" fill="#63bfe6"/><path d="M762.57,457.69a15.712,15.712,0,0,1,2.93-.13c2,.27,3.88.71,5.82,1.09A17.439,17.439,0,0,1,762.57,457.69Z" fill="#fff"/><path d="M763.22,537a19,19,0,0,1,3.6-.17,37.9,37.9,0,0,1,4.49,1.13,19.366,19.366,0,0,1-3.12.05C766.52,537.8,764.88,537.37,763.22,537Z" fill="#fff"/><path d="M754.74,575.74c1.84-.11,3.68-.28,5.51-.27.33,0,.65.8,1,1.23Z" fill="#63bfe6"/><path d="M263.71,518.32c-.33.42-.64,1.19-1,1.21-1.84.11-3.72.58-5.5-.31a7,7,0,0,1,1.36-.43C260.28,518.6,262,518.47,263.71,518.32Z" fill="#b2becb"/><path d="M309.31,533.95c1.31-.09,2.63-.23,3.94-.25,3-.06,6.08-.06,9.13-.08a4.241,4.241,0,0,1-1.29.48c-3.7.07-7.4.09-11.1.11A2.06,2.06,0,0,1,309.31,533.95Z" fill="#fff"/><path d="M781.25,539c2.15-.35,4.33-1,6.17.89Z" fill="#fff"/><path d="M772.74,538c2.11-.38,4.22-.82,6,.85Z" fill="#fff"/><path d="M773.08,458.72c2.23-.72,4.22.23,6.25.92C777.12,460.17,775.11,459.39,773.08,458.72Z" fill="#fff"/><path d="M750.63,437.68c-2,.33-4.12,1-5.93-.66Z" fill="#fff"/><path d="M242.67,540.11c.32-.43.64-1.21,1-1.22,1.5,0,3,.16,4.51.27Z" fill="#b2becb"/><path d="M804.6,462.81c1.85-.34,3.71-.73,5.25.84Z" fill="#fff"/><path d="M251.19,539.08c.33-.42.64-1.18,1-1.19a35.8,35.8,0,0,1,4,.27Z" fill="#b2becb"/><path d="M245.17,520.35c-.33.42-.64,1.18-1,1.19a35.79,35.79,0,0,1-4-.27Z" fill="#b2becb"/><path d="M253.69,519.32c-.32.42-.64,1.2-1,1.21a35.831,35.831,0,0,1-4-.29Z" fill="#b2becb"/><path d="M797.59,461.79c1.72-.42,3.38-.55,4.74.9Z" fill="#fff"/><path d="M860,572.6c-2,1.19-3.32.87-4.6-1.12Z" fill="#63bfe6"/><path d="M272.23,537c.29-.38.57-1.06.87-1.07a32.789,32.789,0,0,1,3.6.24Z" fill="#b2becb"/><path d="M842.92,588.25c2.48-.79,3-.66,4,1Z" fill="#63bfe6"/><path d="M235.71,540.89c.24-.36.48-1,.71-1a35.951,35.951,0,0,1,3.72.34Z" fill="#b2becb"/><path d="M408.08,533.83l8.43.12Z" fill="#040404"/><path d="M772.17,439.73c-1.45.56-2.8.57-3.92-.7Z" fill="#fff"/><path d="M827.4,585.23c2.22-.69,2.43-.64,3.47.89Z" fill="#63bfe6"/><path d="M848.37,570.35c-2.27.76-2.53.69-3.49-1Z" fill="#63bfe6"/><path d="M262.21,537.68c.92-1.16,1.48-1.25,3.47-.52Z" fill="#b2becb"/><path d="M647.05,414h3.39" fill="#5fbee6"/><path d="M852.87,571.38c-2,.7-2.11.65-3-1Z" fill="#63bfe6"/><path d="M838.41,587.25c1.94-.7,2.07-.66,3,.92Z" fill="#63bfe6"/><path d="M833.4,586.26c1.92-.71,2.06-.67,3,.9Z" fill="#63bfe6"/><path d="M236.66,521.42c-1,1.52-1.08,1.56-3,.84Z" fill="#b2becb"/><path d="M292.3,534.93h0Z" fill="#040404"/><path d="M796.92,442.81c-1.24.58-2.17-.11-3.11-.77" fill="#fff"/><path d="M685.62,413.92h2.89" fill="#5fbee6"/><path d="M780.7,440.74a2.06,2.06,0,0,1-2.92-.69Z" fill="#fff"/><path d="M762.16,438.71a2.65,2.65,0,0,1-3.07-.19Z" fill="#fff"/><path d="M824.24,447.09l-2.85-1" fill="#060606"/><path d="M905.5,584.92c-.09.56-.36,1-.92.59A6.593,6.593,0,0,1,903.5,584Z" fill="#63bfe6"/><path d="M888,598.76c1.59-.61,1.7-.58,2.47.92Z" fill="#63bfe6"/><path d="M804.41,443.86l-2.57-.77" fill="#060606"/><path d="M759.08,456.77l.17-.94,1.5,1.76C759.82,458.07,759.48,457.37,759.08,456.77Z" fill="#fff"/><path d="M737.71,437.18l-.29-.6,3.23.08Z" fill="#fff"/><path d="M817.91,445.91" fill="#060606"/><path d="M815.38,445.09" fill="#060606"/><path d="M884.51,597.75c1.17-.83,1.66-.16,2,.9Z" fill="#63bfe6"/><path d="M453.62,537l4,.11Z" fill="#040404"/><path d="M808.36,444.06" fill="#060606"/><path d="M794.37,422l3.41.2Z" fill="#5fbfe8"/><path d="M427.08,534.9h0Z" fill="#040404"/><path d="M829.48,506.62l2.85.24Z" fill="#5fc0e9"/><path d="M723.59,415.31l1.48.26" fill="#5fbee6"/><path d="M419.48,415.3l1.48.13C420.4,416.17,419.91,416.06,419.48,415.3Z" fill="#060606"/><path d="M228.14,522.77c-.21,1-.7,1.18-1.48.48Z" fill="#b2becb"/><path d="M326.4,533.23l1.5-.12C327.45,533.73,327,533.91,326.4,533.23Z" fill="#fff"/><path d="M303.86,534.25l1.5-.13C304.91,534.72,304.42,534.89,303.86,534.25Z" fill="#fff"/><path d="M726.34,454.78h.15l-.1.3Z" fill="#526a71"/><path d="M415.11,415l2.36.11A1.83,1.83,0,0,1,415.11,415Z" fill="#060606"/><path d="M717.22,414.95l2.35.08" fill="#5fbee6"/><path d="M442.1,536h0Z" fill="#040404"/><path d="M785.35,421l2.36.13" fill="#5fbfe8"/><path d="M212.53,425.31l2.54-.13Z" fill="#5ebee7"/><path d="M464.65,538l2.51.06Z" fill="#040404"/><path d="M732.18,574.6Z" fill="#63bfe6"/><path d="M216.66,405.27l-1.11.06Z" fill="#5ebee7"/><path d="M741.7,455.73Z" fill="#526a71"/><path d="M300.86,534.7l1-.12C301.58,535.15,301.27,535.31,300.86,534.7Z" fill="#fff"/><path d="M823.94,505.66l1.86.11Z" fill="#5fc0e9"/><path d="M754.22,456.73Z" fill="#526a71"/><path d="M468.72,538.18l.85.05Z" fill="#040404"/><path d="M482.69,540.11h0Z" fill="#040404"/><path d="M201.07,427.37l1-.05Z" fill="#5ebee7"/><path d="M219.58,463.94l1-.06Z" fill="#5ebee7"/><path d="M207,426.33l1-.06Z" fill="#5ebee7"/><path d="M786.93,402.43l-.09.07.01-.11.12-.12Z" fill="#5fbfe8"/><path d="M391.58,414l.19-.12.14.18-.2.26Z" fill="#5ebee7"/><path d="M217.69,464.1l.15-.17.19.13-.15.29Z" fill="#5ebee7"/><path d="M764.36,497.58l.15-.11.12.13-.15.27Z" fill="#5fbfe8"/><path d="M220,424.24h0Z" fill="#5ebee7"/><path d="M424.57,415.83h0Z" fill="#060606"/><path d="M460.17,537.24l.4.05-.23.26Z" fill="#040404"/><path d="M792.25,562.25l.8,1c-2.45,1.2-4.81,2.49-7.27,3.53a77.692,77.692,0,0,1-7.79,2.81c-1.92.58-4,.6-5.9,1.29-2.38.87-4.92.51-7.19,1.19a29.986,29.986,0,0,1-4.52.79,47.687,47.687,0,0,0-5,1.15c-1.85.47-3.52-.12-5.22-.71,1.87-1.16,3.93-.84,6-.79l-1,.58c.94,0,2.24.94,2.49-.87.27-.17.53-.45.82-.5,2.84-.48,5.71-.86,8.54-1.39,2.43-.46,4.81-1.16,7.23-1.59,1.9-.34,3.64-1.42,5.66-1.2.24,0,.53-.25.78-.41.41-.26.81-.79,1.22-.79,2.7,0,4.58-2,6.94-2.74C790,563.21,791.12,562.7,792.25,562.25Z" fill="#63bfe6"/><path d="M757.66,572.2c-.25,1.81-1.55.84-2.49.87l1-.58Z" fill="#5abfe9"/><path d="M817.23,542.54l.39-.39Z" fill="#526a71"/><path d="M817.76,542l.37-.37Z" fill="#526a71"/><path d="M726.65,532.69l5.65-.81C730.57,533.27,728.65,533.22,726.65,532.69Z" fill="#fff"/><path d="M734.67,531.7l3.18-.77C737,532.13,735.87,532,734.67,531.7Z" fill="#fff"/><path d="M741.75,529.8l2.33-.73C743.58,530.18,742.58,529.73,741.75,529.8Z" fill="#fff"/><path d="M740.52,530.56l1.23-.76Z" fill="#526a71"/><path d="M738.68,530.74l1-.09Z" fill="#526a71"/></g></svg>