<?xml version="1.0" encoding="utf-8"?>
<!-- Generator: Adobe Illustrator 19.2.1, SVG Export Plug-In . SVG Version: 6.00 Build 0)  -->
<svg version="1.1" id="Layer_1" xmlns="http://www.w3.org/2000/svg" xmlns:xlink="http://www.w3.org/1999/xlink" x="0px" y="0px"
	 viewBox="0 0 1024 1024" enable-background="new 0 0 1024 1024" xml:space="preserve">
<circle id="XMLID_1_" fill="#E20E0E" cx="514.9" cy="512.1" r="512"/>
<g id="XMLID_76_">
	<g id="XMLID_77_">
		<path id="XMLID_72_" fill="#94D3F3" d="M232.2,512.5c0-155.4,126.9-280.9,283.1-280.9s283.1,126.2,283.1,280.9
			c0,155.4-126.9,280.9-283.1,280.9S232.2,667.9,232.2,512.5L232.2,512.5z"/>
		<path id="XMLID_109_" fill="#16643B" d="M449,317.8l2.9-2.1l3.6-0.7l1.4-0.7l2.1,0.7h1.4l3.6,2.1l-1.4,0.7h-5l-5.7,3.6l-3.6,0.7
			l-0.7-1.4L449,317.8z M459.6,270.7l-4.3,1.4l0,0l0,0l-0.7,2.1c3.6,0,7.1,4.3,8.6,7.1l2.9-0.7c1.4-2.1,4.3-3.6,6.4-5l0.7-2.1
			c0-0.7,0-0.7-0.7-1.4h-1.4c0,0-0.7,0-0.7,0.7l-2.9-0.7l0,0L459.6,270.7z M461.1,309.2l-2.9,0.7l-4.3,1.4h1.4l2.9-0.7l2.1,1.4
			l2.1,1.4l1.4-2.1l1.4-2.1l-2.1-1.4L461.1,309.2z M460.4,306.4l2.1,2.1l2.9-2.1l-2.1-2.9c-1.4,0.7-5,2.1-6.4,0.7l1.4-2.1l-5.7,1.4
			c-0.7,2.1-4.3,3.6-5.7,3.6c1.4,1.4,3.6,2.9,5.7,2.9C455.4,309.2,458.2,307.8,460.4,306.4z M478.2,323.5c0.7-1.4,0.7-3.6,0-5
			l-2.1-2.1l1.4-5l4.3-1.4l1.4-6.4c-0.7,0-1.4,0-2.1,0.7v0.7h-0.7c-0.7,0-0.7,0.7-1.4,0.7c0,1.4-1.4,3.6-2.1,4.3l-3.6,0.7
			c-5,3.6-0.7,10.7,1.4,14.3L478.2,323.5z M481,302.8l1.4-0.7l-1.4-0.7c-0.7,0-0.7-0.7-1.4-0.7l0,0c0,0,0-0.7-0.7-0.7
			c-0.7,0-0.7,0.7-1.4,0.7l0,0h-0.7l0,0l-0.7-1.4l-2.1,1.4l0,0h-0.7l-1.4,0.7l-1.4,2.1l3.6,0.7l0,0h-0.7c1.4-2.1,2.9-2.9,5-4.3h0.7
			h1.4l-1.4,0.7l-0.7,2.1l-3.6,0.7c2.1,0.7,4.3,0.7,6.4,0.7c0,0,0.7,0,0.7-0.7L481,302.8z M560.9,337.1c-0.7-0.7-2.9,0-3.6,0.7
			l-2.1-9.3l0,0l-0.7-1.4c-2.9,1.4-7.1-0.7-10-0.7v1.4l-2.1,1.4l-0.7,0.7c0,0-0.7,0-0.7-0.7l0,0c-7.1-4.3-7.8-1.4-12.1,0l0,0
			c-1.4,0.7-3.6,0.7-5.7,1.4l-0.7,2.1c-5.7,5-7.8,0-12.1,2.1l-1.4,2.1l0.7,1.4l-4.3,1.4l0.7,1.4l-2.1,3.6l2.1,0.7
			c0.7,1.4,2.1,2.9,2.9,3.6c1.4,2.1,0.7,5,0,7.8l0,0c-2.9,6.4-9.3,12.8-9.3,17.1l3.6,0.7l-3.6,2.9l-5,0.7l-1.4,6.4l3.6,2.1
			c-4.3,6.4-7.8,5.7-11.4,10l0,0c-2.9,3.6-5,9.3-8.6,22.1c-1.4,5.7-1.4,9.3-0.7,12.1l0,0c0.7,2.9,1.4,5.7,2.1,11.4l3.6,2.1l2.9-0.7
			c0.7-1.4,4.3-7.1,8.6-12.8l0,0c5-6.4,10-13.5,11.4-15c3.6-0.7,6.4,0,10,0.7c3.6-1.4,6.4-7.8,11.4-10l2.1,1.4
			c4.3,0.7,12.1-5.7,15.7-7.8c-1.4-0.7-2.9-2.1-2.9-4.3c0-0.7-0.7-1.4-0.7-1.4l2.1-3.6l0.7,2.9l2.1,1.4l2.1-3.6
			c-0.7-4.3,0.7-9.3,2.1-13.5l3.6-2.9l2.1-8.6l-1.4-4.3l4.3-2.9c-1.4-1.4-2.1-2.9-2.1-5l0,0c-0.7-5.7,4.3-11.4,7.8-15.7L560.9,337.1
			z M528.1,438.3l3.6-0.7l4.3-2.9l2.9-4.3l0,0l0.7-0.7l-2.9-5.7l-1.4,0.7h-5l-2.1-1.4h-3.6l0.7,4.3l-0.7,2.1v0.7l0,0v5.7
			L528.1,438.3z M518.8,518.2l7.8-2.1l3.6-5.7v-5l0,0l0,0l3.6-4.3l-4.3-5l-3.6-0.7l-3.6,2.9l-5.7,3.6l0.7,3.6l0,0l0.7,2.9l-5,6.4
			L518.8,518.2z M458.9,296.4V295c-0.7-0.7-2.1-0.7-2.9-0.7c1.4,0,3.6-0.7,5-1.4c-0.7,0-2.1-0.7-2.1-1.4c0.7-1.4,2.9-3.6,5-4.3
			c-2.1,0-5-2.1-5.7-3.6c-1.4-0.7-3.6-0.7-5,0l-1.4,2.1l0.7-2.1l-2.9,0.7c-1.4,0.7-2.1,2.9-2.1,4.3l-2.9,2.1l1.4-5h-1.4
			c-2.9,2.1-5.7,4.3-10,4.3c2.1,3.6-1.4,4.3,1.4,9.3c-0.7,0.7-0.7,1.4-1.4,2.1l0,0c-0.7,1.4-1.4,2.1-1.4,3.6c1.4,2.9,5,2.1,7.1,1.4
			c0.7-2.1,2.1-3.6,3.6-5.7l0,0l0,0C449,300,453.9,297.8,458.9,296.4z M540.9,232.2l-7.1,0.7l8.6,2.1l11.4,4.3l12.1,2.9l10,0.7
			l10.7,3.6l7.8,4.3l12.1,7.1v1.4l12.1,7.8l10.7,3.6l2.9,2.1l0,0l5,4.3l-2.1,4.3l7.1,7.1l6.4,10.7l-5.7-1.4l-4.3-3.6l-3.6,0.7v5
			l0.7,0.7l0,0l5.7,7.1l6.4,10.7l9.3,9.3l0,0l0,0l3.6,7.1l4.3-1.4l4.3,3.6l-2.9,0.7l0.7,6.4l-2.1-0.7l-2.1-0.7l10.7,9.3l2.1,1.4
			l3.6,0.7l0,0l0,0l7.1,8.6l-3.6-4.3l-2.1-1.4l-2.1-0.7l-2.1-2.1l-0.7-0.7l0,0l-3.6-2.1l-15-7.1l0.7,1.4l2.1,2.9l2.1,1.4l4.3,2.9
			l0,0l12.1,8.6l-0.7,2.1l-12.1,2.1l-1.4,2.1l6.4,6.4l-6.4,11.4l-1.4,7.8l0,0l-0.7,4.3l-2.1-4.3l-0.7-1.4h-6.4l0.7,1.4l0,0l2.9,5.7
			l2.1,2.1l0.7,4.3l-2.9,5.7l1.4,5.7l-5.7,2.9l5,5l-7.1-1.4h-1.4l-2.9-4.3l-7.8-5.7h6.4l6.4-0.7l2.9-5.7l-6.4-6.4l-3.6-0.7l-5.7-2.9
			h-6.4l-4.3,1.4h-1.4l-2.9-2.9l0,0l-2.1-2.1h-6.4l-2.1,2.1l0,0l-2.1,2.1l-5.7,4.3l-1.4,6.4l-4.3,7.1l-2.9,8.6l-1.4,6.4v1.4l0,0
			L593,439l-3.6,5.7l-6.4,6.4l-1.4,2.1l-5.7,7.8v5.7l0,0l0,0v3.6l0.7,7.8l5.7,3.6l5.7-3.6l5.7-2.9l3.6,7.1l3.6,7.1l2.9,10h5l1.4-5
			l5-4.3l0.7-2.1l-0.7-4.3l0.7-7.8l1.4-2.1l2.1-3.6l-2.9-4.3l0,0l0,0l-3.6-13.5l2.9-7.1l2.9-7.1l0.7-6.4l0,0v-2.1h6.4v2.1l0,0
			l0.7,5.7l-4.3,7.1l-0.7,7.8v1.4l5,10l7.1,2.1l6.4-0.7l4.3-2.9l0.7,2.1l-2.9,0.7l-3.6,0.7l-1.4,1.4h0.7h-0.7l-1.4,0.7l-2.9,2.1
			l0.7,4.3l3.6,2.1v-1.4l0.7,4.3l1.4,4.3l-2.9,2.1l-4.3-5l-2.1,3.6l-0.7,3.6l1.4,5.7l1.4,5.7l-3.6,2.9l-0.7,2.1l-2.9,2.1l-2.1-2.9
			l-7.8,5.7l0,0l-4.3,2.9l-6.4-2.9h-0.7l-4.3,3.6l-2.9-3.6l0,0l-0.7-0.7v-5v-6.4l-0.7-7.8l-2.1-0.7l-5,6.4l0.7,9.3l2.1,5.7l0,0
			l0.7,2.9l-5.7,2.9h-6.4l-5,6.4l-2.9,7.1l-5,4.3l-5,4.3l-5.7,3.6l-8.6-4.3l-2.1,2.1l0,0l-1.4,2.1l-7.1-1.4l-5,4.3l4.3,3.6l2.1,0.7
			l5.7,9.3l-0.7,8.6l-2.1,7.8l0,0v0.7l-6.4,0.7l-6.4-1.4h-0.7l-2.1-0.7l-8.6-0.7l-7.1-1.4l-3.6,2.9l0,0l-2.9,2.1l0.7,6.4l-1.4,7.1
			l-4.3,7.8l1.4,5.7v6.4l5.7,1.4l3.6,3.6l0,0l2.1,2.9h5l3.6-0.7h10l2.9-2.1l0,0l2.9-1.4l5-4.3l2.9-7.1l5-6.4l7.1-5l5-5l0.7-3.6
			l5.7-2.9l9.3-0.7l5.7-2.9l4.3-2.9l0,0l1.4-1.4l1.4,1.4l0,0l5,2.9l2.9,4.3l2.9,4.3l7.8,4.3l5.7,3.6l5.7,1.4l2.1,5.7l-1.4,7.1l5-6.4
			l-1.4-5.7l5.7-2.9l2.9-2.1l-7.1-2.9l-3.6-2.1l0.7-2.1l-2.1-2.1l-3.6,0.7l-5.7-3.6l-4.3-5l-0.7-0.7l0,0l-2.9-5l-0.7-2.9l5-4.3
			l2.1,1.4l1.4,2.9l4.3,3.6l5.7,3.6l0,0l0.7,0.7l3.6,2.1l5.7,3.6l4.3,3.6l0.7,6.4l4.3,3.6l5,6.4l0.7,2.9l2.1,7.1h5l-0.7-4.3l1.4-6.4
			l3.6-4.3l-5-1.4l-0.7-2.9l-1.4-5.7l4.3-2.9l5.7-2.9h5l5-5l0.7-2.1l0,0l0.7-1.4l-4.3-5l1.4-7.1l-0.7-9.3l3.6-9.3l0.7-2.1l0.7-1.4
			l2.9-0.7l6.4-0.7L680,536l-0.7,2.1l3.6,2.1l2.9,2.1l3.6-6.4l0,0l0.7-1.4v-1.4l-2.9-4.3l3.6-5.7l3.6-5.7l2.1,1.4v4.3l-1.4,6.4
			l2.9,3.6l7.1,2.9h5v0.7l0,0l2.1,4.3l0.7,2.9l-2.9,5.7l-5,4.3l-2.9,0.7h-6.4l1.4,4.3l-5.7,3.6l-5.7,7.8l-5.7,3.6v0.7l0,0l-4.3,5.7
			l-5.7,1.4l-1.4,6.4l1.4,5.7l3.6,2.1l3.6,5.7h5l6.4-5l7.1-2.1l5.7-1.4l5-5h1.4l0.7,1.4l0.7,6.4l-0.7,3.6v5v6.4l-1.4,4.3l0,0
			l-1.4,2.9c-2.1,0.7-3.6,2.9-5,4.3l-5-1.4c-7.1,12.8-21.4,7.8-25.7,12.1c-8.6-4.3-29.2-1.4-25.7,13.5l-3.6,2.9l-10-2.1l-4.3,1.4
			c-3.6,0-7.8-2.1-8.6-5.7c-5-1.4-14.3,0-17.1-1.4l-2.1-2.9l-3.6,0.7c0-4.3,3.6-6.4,3.6-10.7l-1.4-4.3l1.4-5l-2.9,0.7l-3.6-2.1
			c-2.1,0.7-5,1.4-7.1,2.1c-2.9-1.4-10.7,0-14.3,0.7c-7.1-2.9-32.1,4.3-38.5,9.3l-2.1-0.7l-0.7-1.4c-5,0-9.3-0.7-13.5-2.1l-2.1-2.9
			c-2.9,0.7-7.1,7.8-8.6,10.7c-6.4-0.7-12.8,2.9-17.1,7.8c0,2.9-2.1,5.7-3.6,9.3l0,0c0,0.7,0,1.4,0,1.4c-2.1,4.3-10.7,5-15.7,6.4
			l-2.1-0.7c-3.6,0.7-29.2,20-33.5,26.4l0,0c-0.7,0.7-0.7,1.4-0.7,1.4c1.4,1.4,2.9,2.9,4.3,5c-1.4,2.1-2.9,4.3-2.9,7.1l2.1,2.9
			c-0.7,2.1-5.7,6.4-5.7,7.8c-1.4,1.4-3.6,2.1-5.7,2.9c0,2.1,1.4,4.3,2.1,5.7c-2.9,7.1,4.3,11.4,9.3,13.5l0.7,2.9
			c2.9,1.4,3.6,5,6.4,6.4c-1.4,1.4,1.4,2.9,0.7,4.3l2.1,2.9c5.7,0,16.4,16.4,32.1,16.4c10,0,18.5,2.1,28.5,2.9
			c15.7,0.7,26.4-5.7,42.1-1.4l2.1,2.9c3.6,1.4,13.5,0,17.1-1.4l2.1,1.4l2.9-0.7c4.3,3.6-12.1,12.8-7.8,13.5l2.1,0.7l0.7,1.4
			l8.6,2.1l-1.4,2.1l2.9-0.7v0.7c70.6-15.7,131.9-57,171.8-114.1c0.7-2.1,1.4-3.6,2.1-4.3c1.4-2.1,2.1-5,3.6-7.1
			c1.4-1.4,0.7-2.9,2.1-4.3c0.7-0.7,0.7-1.4,0.7-2.1l0.7-1.4l0.7-1.4l-0.7,0.7l-1.4,1.4l-2.1,3.6l-3.6,4.3c-2.9,2.9-4.3,5.7-7.1,8.6
			l-5,6.4c-1.4,2.1-2.1,0-2.9-0.7c5-5.7-7.8-2.9-8.6-3.6c-4.3-3.6,0-5-6.4-6.4l-0.7-1.4c2.1-5-0.7-9.3-5-10
			c-0.7-1.4-1.4-2.9-2.1-3.6l0,0c-0.7-0.7-0.7-2.1-0.7-3.6h-1.4c-2.1-3.6-4.3-8.6-7.8-10.7l-1.4-5.7c2.1,1.4,2.9,3.6,5,5l1.4-0.7
			l2.1-8.6l2.1,7.1l5,5l2.9,4.3l3.6,0.7l2.9,3.6l-0.7,3.6l0,0l0,0l2.1,1.4v1.4l3.6,0.7l2.9,3.6v1.4l2.9,3.6l0.7,4.3v5v-1.4l6.4-5
			l3.6-5.7l1.4-2.1l5-7.1l0,0l0.7-0.7l4.3-7.8l4.3-6.4l2.9-8.6l1.4-2.1l4.3-7.8l0,0l0,0l2.1-5.7l2.1-8.6l0.7-2.1l2.1-8.6l2.1-8.6
			l-0.7-1.4l-2.9,2.1l-2.1-0.7l-1.4-5.7l-2.1,8.6l-2.1,8.6l-3.6,5.7l-2.1-0.7l-0.7-1.4l-1.4,2.1l-2.1-2.9h-1.4l-2.9-3.6l-0.7-1.4
			v-2.1l4.3-5h2.1l3.6,2.1l4.3-2.9l3.6-5.7l2.9-2.9l0,0l0,0l2.9-0.7l2.1-4.3l3.6-4.3v-1.4l2.9-8.6l0.7-3.6l2.9-7.1l0.7,1.4v-1.4V546
			l0.7,1.4l0.7,1.4l1.4-2.1l-0.7-2.9v-1.4l0.7-3.6l0.7,0.7c0.7-7.8,1.4-15.7,1.4-23.5C797.6,368.4,683.5,245.8,540.9,232.2z
			 M376.2,756.3c0-0.7,0-1.4,0-1.4c0-1.4-2.9-5-3.6-5.7v-1.4c-11.4-7.1,1.4-12.1,3.6-20.7c-4.3-7.1-25-22.1-25-22.8
			c-11.4-5-22.1-11.4-32.1-20l0,0c-2.9-2.1-5.7-5-8.6-7.8c-0.7,0.7-2.9,1.4-4.3,1.4l0.7-3.6l-2.1-1.4c-2.1-1.4-5-2.9-6.4-4.3
			c-0.7-0.7-0.7-2.9,0.7-2.1l0.7-2.1c-1.4-2.1-4.3-7.1-7.8-13.5l0,0c-5.7-10.7-13.5-24.2-19.3-23.5c-1.4-1.4-2.1-3.6-2.9-5.7
			l-2.1-1.4c0-1.4,0-2.1,0-2.9l0,0l0,0l0,0c-0.7-1.4-1.4-2.1-2.1-3.6c-2.9-5-12.8-25-19.3-37.1l0,0c-2.9-5-5-8.6-5-9.3v2.9
			c-0.7-5-2.9-17.8-4.3-27.1l0,0c-0.7-4.3-1.4-7.8-1.4-9.3c5-7.1,3.6-16.4,2.1-25l0,0c-0.7-2.1-0.7-3.6-0.7-5.7
			c0.7-1.4,4.3-7.1,5.7-7.8c0-2.9,2.9-4.3,2.9-7.1l-2.1-2.9c1.4-4.3,0-8.6-0.7-12.8c-1.4,1.4-2.9,0.7-3.6,0.7c0.7-1.4,0.7-2.9,1.4-5
			l0,0c1.4-7.1,1.4-16.4,4.3-22.8c1.4-5,3.6-7.8,5.7-11.4l0,0c0.7-1.4,2.1-2.9,2.9-5c0.7-0.7,0.7-2.9,0.7-3.6l3.6-2.9
			c1.4-0.7,2.1,2.1,2.9,3.6c-0.7,2.1-0.7,5-0.7,8.6l0,0c0,5,0,10.7,0.7,14.3l1.4-0.7c0.7,0.7,1.4,12.8,1.4,14.3
			c1.4,1.4,2.9,4.3,3.6,6.4l0,0l0,0c-0.7,7.1-6.4,17.8-8.6,25.7l2.1,2.9c7.1-7.1,5.7-20.7,12.8-27.8l2.9-0.7
			c4.3,3.6,10.7,2.1,15,6.4c2.1,0,5-2.1,5.7-3.6c0-0.7,0-2.1,0.7-2.9l0,0c0.7-2.1,2.1-4.3,2.9-7.1c1.4-1.4,2.9-2.9,4.3-3.6
			c-2.1,2.1-2.9,5.7-3.6,8.6c-0.7,0.7-2.1,1.4-2.9,1.4c0,0,5-2.1,5.7-2.9c0-2.1,1.4-5,2.9-7.1l-0.7,3.6l2.1,2.1
			c7.8-5,4.3-4.3,10,0.7l0.7-2.1l0.7,2.9c1.4,1.4,4.3,3.6,5.7,1.4c1.4-1.4,0-0.7-0.7-0.7c5.7-7.1,2.1-3.6,10-5
			c2.1,0.7,10,4.3,10,6.4c0.7,0,1.4,0.7,1.4,1.4h8.6v-4.3c2.1-2.1,5-6.4,4.3-9.3l5,1.4l1.4-5l-2.9-4.3l-18.5-2.9
			c4.3-2.1,10-2.9,15-2.9l0.7,1.4l7.8,0.7c5,5,8.6,11.4,15.7,14.3c2.9-0.7,5.7-0.7,9.3-0.7l4.3,3.6c2.9-2.1,6.4-5,8.6-8.6l-1.4-4.3
			l2.1-4.3c-0.7-2.9-1.4-5.7-2.1-8.6l0,0c0,0,0-0.7-0.7-0.7c0-8.6,9.3-17.8,10-27.1l3.6-2.9c-5-0.7-9.3,4.3-15,2.9
			c-0.7-1.4-0.7-3.6,0-5.7l0,0c0-1.4,0.7-2.9,1.4-4.3l10.7-9.3c-1.4-2.9,0.7-7.8,2.1-10l-3.6-5.7v-5c-8.6,0.7-15.7,10.7-25,13.5
			l-1.4,5c-5,6.4-13.5,5.7-20,5.7c-2.1,2.9-5.7,7.8-9.3,10l0,0c-0.7,0.7-2.1,0.7-2.9,0.7v-0.7l0,0l-1.4-2.9c5.7-5,5.7-10.7,13.5-15
			l2.1-4.3l-1.4-4.3c1.4-5,2.9-9.3,3.6-14.3l0,0c0.7-3.6,0.7-6.4,0.7-10.7c3.6-1.4,6.4-4.3,9.3-7.1l0.7-2.1c4.3-2.9,21.4-5,26.4-2.9
			l1.4-0.7l3.6,2.1v1.4l4.3,2.1c4.3-1.4,7.8-2.9,12.1-3.6v5l5,1.4c3.6-1.4,6.4-2.9,10-4.3l2.1-3.6l-0.7-2.9
			c-2.9,0.7-6.4,1.4-9.3,1.4l-3.6-2.1c1.4-0.7,2.9-0.7,3.6-1.4l0,0l0,0c2.1-0.7,3.6-2.1,5-4.3l-2.1-1.4c5-3.6,10.7-6.4,15-10.7
			c-3.6-0.7-7.1,0-10.7,1.4l-3.6,4.3c-2.1,1.4-8.6,0.7-11.4,0l5.7-2.9l2.1,0.7l4.3-2.9c-0.7-1.4-2.9-2.1-4.3-2.1l-4.3,1.4l-2.1-2.1
			c0-3.6,2.9-6.4,3.6-9.3l0,0c0-0.7,0-0.7,0-1.4l-3.6-2.1l3.6-2.9c0.7-1.4,0.7-3.6,0-5l2.9-2.1l3.6-0.7c1.4-3.6,5.7-7.1,9.3-7.8
			l0.7-2.1l2.9-2.1l-1.4-1.4l0,0l-0.7-0.7l5.7-1.4v-1.4l2.9-2.1c-2.1-5,2.1-6.4,2.1-8.6c13.5-3.6,24.2-10,37.8-10.7l0.7-2.1
			c1.4-0.7,7.1-5,6.4-7.1c-7.1,0.7-8.6-2.1-8.6-2.1l1.4-2.1l-3.6-0.7l-4.3,1.4c-0.7-1.4-2.1-2.1-3.6-2.1v-1.4
			c-141.2,15-253.1,134.8-253.1,279.5C232.2,615.9,290.7,707.8,376.2,756.3z M452.5,327.1l-3.6-0.7c0.7-2.9-3.6-1.4-3.6,0.7
			c0,0.7,0,0.7,0,1.4l0,0c0.7,2.1,1.4,3.6,2.1,5.7l2.1,1.4c0,1.4,0.7,2.9,1.4,4.3c-1.4,2.1-3.6,3.6-6.4,5l2.1,2.9l-0.7,3.6
			c-2.9,0-5,2.9-7.1,4.3l0,0c0,0,0,0-0.7,0l-3.6,0.7l-2.1,3.6l-7.1-1.4l1.4-2.1l0,0l0.7-0.7l-3.6-0.7l-2.9,2.1l0,0l-1.4,0.7
			c5.7,2.9,5,11.4,1.4,15.7c0.7,5,1.4,10,1.4,14.3c2.1-2.1,2.9-5.7,2.9-8.6l2.1,0.7l0.7,2.9l4.3,2.1c2.9-2.1,2.9-7.1,2.1-10
			c2.1-0.7,5-5.7,6.4-7.1l2.1,1.4c-0.7,3.6-2.1,7.8-1.4,11.4c2.9-2.1,7.1-2.9,10-5.7c-0.7-5,2.1-10.7,0.7-15c2.9,0,5-2.1,6.4-4.3
			l0,0c0.7-0.7,0.7-1.4,0.7-2.1c-0.7-3.6,1.4-7.1,0-10c2.9-5,5.7-7.1,8.6-10.7c0.7-0.7,0-2.9,0-4.3l0,0c0-1.4,0-2.1,0-2.9
			C466.8,319.2,456.1,323.5,452.5,327.1z M407.6,345.6c0,1.4-0.7,3.6-2.1,4.3l7.1,1.4l-2.1,2.9l0,0l0,0l0.7,2.9
			c1.4-0.7,2.1-2.1,2.9-2.9l0,0c3.6-4.3,4.3-9.3,7.1-14.3C416.9,342.8,411.9,344.9,407.6,345.6z M486,294.3l-2.9,0.7l-1.4,2.1
			c2.9,0,8.6-1.4,10-4.3C491,289.3,487.5,292.8,486,294.3z M538.8,530.3l7.1,0.7l7.8-0.7l3.6-2.9l3.6-4.3l-0.7-6.4l-5-6.4l-2.1-4.3
			l0,0l-1.4-2.9l-2.1-7.8l-2.9-4.3l4.3-6.4l-7.1-2.9l2.9-5.7l-3.6-0.7h-1.4l-3.6,5.7l-1.4,7.1l0.7,7.8l2.1,7.1l2.9,5l0,0l0.7,0.7
			l-3.6,2.9l-2.9,7.1v5l-0.7,2.1l-6.4,5l2.1,1.4L538.8,530.3z M483.9,277.9c-1.4,0-2.9,0.7-4.3,1.4l3.6,2.1v1.4
			c0.7,1.4,2.9,2.1,4.3,2.1l0.7-3.6C486.7,280.7,483.9,279.3,483.9,277.9z M590.1,344.9l-2.1-0.7l-3.6,0.7v5h6.4L590.1,344.9z
			 M583.7,355.6L583.7,355.6l2.9,3.6l3.6,5.7l3.6,2.1v-5l0.7-3.6l-1.4-2.9l0,0l-1.4-2.9l-5-1.4l-4.3,1.4L583.7,355.6z M666.4,615.1
			L666.4,615.1L666.4,615.1h0.7l5-1.4l-3.6-2.1l-2.9,0.7l-5.7,1.4L666.4,615.1L666.4,615.1z M615.1,304.3l-0.7,2.1l4.3,2.1l5,1.4
			l2.1-3.6l-4.3-2.1H615.1z M608.7,267.2l-1.4,2.1l2.9,3.6l2.1,0.7l0,0l0,0l2.1,0.7v-0.7l0,0l0.7-2.1l-3.6-0.7L608.7,267.2z
			 M638.6,355.6L638.6,355.6l1.4,2.9l0.7,1.4l0.7,2.9l3.6,5.7l2.1,1.4l5.7,2.9l4.3-1.4l-3.6-2.1l-5-5l-5-6.4l-0.7-2.1l0,0l-1.4-5
			l-1.4-5.7l-0.7-2.9l-2.9-5.7l-2.9,2.1v5l2.1,7.1L638.6,355.6z M615.8,616.6l1.4-0.7l0,0l3.6-2.9l-2.9-4.3l-4.3,1.4l-2.1-0.7
			l-2.1,4.3l4.3,2.1l0,0L615.8,616.6z M627.2,300.7l-4.3,1.4h-1.4l2.1,1.4l5.7,1.4L627.2,300.7z M396.2,460.4l-0.7-1.4
			c-1.4,0-7.8,3.6-13.5,6.4h7.1l0,0C391.9,464,394.8,462.5,396.2,460.4z M338.4,469l2.9,3.6l3.6-0.7c2.9,2.9,7.1,2.9,10.7,4.3
			c0-2.9-1.4-6.4-3.6-8.6v-2.1h-8.6c0.7,0.7,2.1,2.1,2.1,3.6C344.8,467.5,339.9,468.3,338.4,469z M489.6,309.2
			c5,0.7,12.8-3.6,15.7-7.8C502.4,302.1,484.6,299.3,489.6,309.2z M592.3,581.6l-2.9,2.1l-0.7,2.1l2.9,3.6L592.3,581.6z M506,310
			l-2.9,2.1L501,310l-1.4,2.1c-2.1,0.7-5,0.7-7.8-0.7l-1.4,2.1l-3.6,0.7l2.9-2.1c-2.1,0.7-5,0.7-7.8-0.7c-0.7,1.4-0.7,3.6,0,5
			l2.1,1.4l-0.7,2.1l2.1,1.4c2.1-0.7,5-1.4,7.1-2.1c5.7,2.9,24.2-2.9,31.4,0.7l1.4-0.7c2.9-5.7-4.3-8.6-5.7-12.8
			C515.3,307.1,506,300.7,506,310z M387.6,471.1l1.4-5.7h-7.1c-4.3,2.1-7.8,4.3-9.3,5c-0.7,7.8,5.7,7.1,7.1,12.1l-1.4,5h3.6
			c0.7,2.1,0.7,4.3,0.7,6.4c2.1,0,5-2.1,5.7-3.6c0-1.4,0-4.3-1.4-5.7l3.6-2.9l-0.7-2.9l1.4-2.1C391.9,474,389.8,471.8,387.6,471.1z
			 M588.7,606.6l4.3-2.9l0.7-7.8l-2.9-4.3l-1.4,2.1l-1.4,5L588.7,606.6z M256.4,536.7l2.1,0.7l-0.7-1.4c0-2.1-2.1-17.8-4.3-29.2l0,0
			c-1.4-6.4-2.1-11.4-2.1-11.4c1.4-2.1-3.6-5-3.6-5.7c0,2.9,0.7,5.7,2.1,7.8c-0.7,1.4-0.7,6.4,0,10l0,0c0,1.4,0.7,2.9,1.4,2.9
			c0,2.1,2.1,5.7,1.4,7.8l1.4,4.3l-1.4,5C252.9,526.7,255.7,535.3,256.4,536.7z M260,558.8c1.4,0,2.9,1.4,3.6,2.1l0.7,2.9
			c2.1,0.7,3.6,4.3,3.6,5.7l0.7-2.1c-2.9-6.4-3.6-18.5-8.6-24.2c-0.7,1.4-1.4,4.3,0,6.4h-1.4c-0.7-2.1-1.4-4.3-2.9-5.7l-0.7,3.6
			C257.9,548.8,259.3,556,260,558.8z"/>
		<path id="XMLID_79_" fill="none" stroke="#0389BE" stroke-width="0.4" stroke-linecap="round" stroke-miterlimit="3.8637" d="
			M474.6,300c7.1-32.1,53.5-49.2,102-37.8c49.2,11.4,82,48.5,74.2,78.4c-7.8,32.1-52.8,49.2-101.3,37.8
			C500.3,367,466.8,332.1,474.6,300L474.6,300z M389.1,317.1c14.3-62,95.5-94.1,191.8-74.2c86.3,17.8,153.3,87,138.3,149
			c-14.3,62-99.1,97.7-191.1,76.3C435.4,446.9,374.1,379.1,389.1,317.1L389.1,317.1z M782.7,607.3c-44.2,93.4-179,145.5-314.5,112.7
			c-152.6-36.4-249.6-154-228.2-266.7 M680.7,740.6c-58.5,32.8-139,44.2-221.8,25.7c-111.2-25-189-99.8-213.9-177.5 M796.9,476.8
			c-0.7,15-2.1,34.2-3.6,39.9c-25.7,107-161.1,167.6-305.9,134.8C342,618.7,245.7,499.6,270,395.5c3.6-16.4,9.3-34.9,18.5-49.2
			 M747.7,352.7c18.5,32.1,27.8,72,20,104.1C747,543.1,630.1,590.2,505.3,562.4C381.2,534.6,299.9,441.9,318.5,352
			c5-25,25-52.1,44.9-70.6c5.7-5,11.4-10.7,17.8-15.7 M565.9,329.9c0,125.5-16.4,385.8-61.3,463.5 M574.4,329.9
			c29.9,85.6,82.7,359.4,15,454.2 M583,329.2c54.2,77,159,320.9,79.9,423.5 M589.4,327.1c90.6,82.7,194.7,263.8,144.7,364.4
			 M599.4,310.7c67.7,12.8,142.6,42.1,185.4,116.2 M595.8,322.8c101.3,57.8,210.3,194.7,181.8,296.6 M598.7,317.1
			c79.1,30.7,176.8,85.6,199.7,201.1 M595.8,303.5c49.2-2.1,111.9,10.7,157.6,56.3 M589.4,297.8c33.5-8.6,85.6-9.3,121.9,13.5
			 M583,292.8c24.2-15.7,59.2-23.5,84.9-16.4 M575.9,289.3c12.8-20,33.5-32.8,50.6-34.9 M568.7,287.1c5.7-17.8,5.7-39.2,1.4-50.6
			 M560.9,286.4c-4.3-22.8-19.3-46.3-37.8-54.9 M551.6,285.7c-18.5-24.2-42.8-47.1-79.9-50.6 M533.1,291.4
			c-42.8-20-115.5-35.7-186.1-3.6 M528.8,297.1c-61.3-13.5-174.7-21.4-245.3,55.6 M528.1,304.3c-102-2.1-245.3,29.2-285.2,137.6
			 M531,310.7c-132.6,23.5-293.8,107-296.6,224.6 M535.2,316.4c-104.1,39.9-284.5,154-283.8,293.8 M541.6,321.4
			c-105.5,72-272.4,253.1-245.3,367.2 M548.8,324.9C476,416.9,342,639.4,355.5,742.8 M556.6,328.5
			c-32.1,90.6-119.1,348.7-129.1,449.9 M542.4,287.1c-32.1-25.7-85.6-45.6-132.6-34.2"/>
		<path id="XMLID_4_" fill="none" stroke="#FFFFFF" stroke-width="4" stroke-miterlimit="3.8637" d="M797.6,513.9
			c0-154.7-128.3-283.1-283.1-283.1S231.5,357,231.5,511.7c0,154.7,128.3,281.7,283.1,281.7S797.6,667.9,797.6,513.9z"/>
	</g>
</g>
</svg>
