<svg xmlns="http://www.w3.org/2000/svg" width="40" height="40" viewBox="0 0 40 40">
  <g id="Group_16379" data-name="Group 16379" transform="translate(-538 -1671)">
    <circle id="XMLID_1_" cx="20" cy="20" r="20" transform="translate(538 1671)" fill="#dae0e7"/>
    <g id="Group_12851" data-name="Group 12851" transform="translate(396.328 1404.621)">
      <path id="Path_9175" data-name="Path 9175" d="M176.1,280.195l-2.305,2.527a7.075,7.075,0,0,1,2.245,6.193,6.817,6.817,0,0,1-2.079,4.161,7.172,7.172,0,0,1-9.811.148l-2.263,2.446-2.276-2.457a7.088,7.088,0,0,1-5.72,1.827,6.892,6.892,0,0,1-4.5-2.408,7.187,7.187,0,0,1,.569-9.926l-2.236-2.453c.225-.026.368-.056.51-.056,1.363,0,2.727.013,4.09-.014a1.913,1.913,0,0,0,.889-.255,16.045,16.045,0,0,1,17.4.032,1.762,1.762,0,0,0,.838.225C172.953,280.207,174.449,280.195,176.1,280.195Zm-7.147,12.6a4.816,4.816,0,1,0-4.794-4.842A4.819,4.819,0,0,0,168.957,292.8Zm-9.373-4.8a4.82,4.82,0,1,0-4.808,4.8A4.8,4.8,0,0,0,159.584,288Zm7.641-7.222a13.924,13.924,0,0,0-10.668.008c2.911,1.286,4.819,3.271,5.34,6.5C162.4,284.03,164.333,282.083,167.225,280.777Z" fill="#fff"/>
      <path id="Path_9176" data-name="Path 9176" d="M308.513,346.741a2.5,2.5,0,1,1-5-.02,2.5,2.5,0,1,1,5,.02Z" transform="translate(-137.012 -58.744)" fill="#fff"/>
      <path id="Path_9177" data-name="Path 9177" d="M190.592,346.716a2.516,2.516,0,1,1-5.032.026,2.574,2.574,0,0,1,2.509-2.546A2.543,2.543,0,0,1,190.592,346.716Z" transform="translate(-33.308 -58.743)" fill="#fff"/>
    </g>
  </g>
</svg>
