<svg xmlns="http://www.w3.org/2000/svg" xmlns:xlink="http://www.w3.org/1999/xlink" width="1024" height="1024" viewBox="0 0 1024 1024"><defs><clipPath id="b"><rect width="1024" height="1024"/></clipPath></defs><g id="a" clip-path="url(#b)"><circle cx="512" cy="512" r="512" fill="#d9e0e7"/><g transform="translate(152.001 443)"><path d="M139.933.618H11.326V29.19h70.1L6.72,130.581l-6.1,8.328H135.494V110.364H59.132L133.755,8.951Zm98.874,109.746h5.2v28.545h-88.3V.618h85.346V29.107H185.895V53.169h53.984V81.941H185.895v28.423ZM386.476.618h5.2V138.909H365.8l-1.55-2.022L297.235,52.607v86.3H267.363V.618H294.58l1.528,1.933L361.8,85.23V.618h24.673Zm329.571,0H691.286V85.23L625.612,2.551,624.079.618H596.89V138.909h29.934v-86.3l66.934,84.279,1.55,2.022H721.18V.618m-178.819,0H572.9v137.4H542.361ZM500.294,88.7c-2.245-3.478-7.939-11.961-13.617-16.422,7.878-4.9,17.117-14.556,17.117-33.15.061-.867.522-23.695-22.789-35.056l-.128.189-.044-.367h-.189a45.059,45.059,0,0,0-5.111-2.15l-.228-.061A64.93,64.93,0,0,0,467.932.24H416.648V139.131h30.5V83.358a7.238,7.238,0,0,1,1.4-.083,24.6,24.6,0,0,1,18.795,9.011l32.034,46.023H534.7L500.294,88.7ZM473.288,42.157c0,6.333-2.678,10.578-7.872,12.672l-.294.056a24.178,24.178,0,0,1-7.883.983H447.143V26.707h13.511a16.454,16.454,0,0,1,4.333.956c.128.167.378.228.5.333,3.572,1.778,7.8,5.717,7.8,14.161" transform="translate(-0.62 -0.24)" fill="#fff"/></g></g></svg>